<?xml version="1.0" encoding="UTF-8" standalone="no"?>
<!-- Created with Inkscape (http://www.inkscape.org/) -->

<svg
   xmlns:dc="http://purl.org/dc/elements/1.1/"
   xmlns:cc="http://creativecommons.org/ns#"
   xmlns:rdf="http://www.w3.org/1999/02/22-rdf-syntax-ns#"
   xmlns:svg="http://www.w3.org/2000/svg"
   xmlns="http://www.w3.org/2000/svg"
   xmlns:sodipodi="http://sodipodi.sourceforge.net/DTD/sodipodi-0.dtd"
   xmlns:inkscape="http://www.inkscape.org/namespaces/inkscape"
   version="1.1"
   id="svg8238"
   width="344.32001"
   height="348.16"
   viewBox="0 0 344.32001 348.16"
   sodipodi:docname="ccp4_diamond.svg"
   inkscape:version="0.92.2 5c3e80d, 2017-08-06">
  <metadata
     id="metadata8244">
    <rdf:RDF>
      <cc:Work
         rdf:about="">
        <dc:format>image/svg+xml</dc:format>
        <dc:type
           rdf:resource="http://purl.org/dc/dcmitype/StillImage" />
        <dc:title></dc:title>
      </cc:Work>
    </rdf:RDF>
  </metadata>
  <defs
     id="defs8242" />
  <sodipodi:namedview
     pagecolor="#ffffff"
     bordercolor="#666666"
     borderopacity="1"
     objecttolerance="10"
     gridtolerance="10"
     guidetolerance="10"
     inkscape:pageopacity="0"
     inkscape:pageshadow="2"
     inkscape:window-width="1157"
     inkscape:window-height="797"
     id="namedview8240"
     showgrid="false"
     inkscape:pagecheckerboard="true"
     inkscape:zoom="1.8324908"
     inkscape:cx="172.16"
     inkscape:cy="217.73643"
     inkscape:window-x="0"
     inkscape:window-y="0"
     inkscape:window-maximized="0"
     inkscape:current-layer="svg8238" />
  <g
     id="g8248">
    <path
       style="fill:#f4f9fb;stroke-width:0.63999999"
       d="M 113.69776,284.65633 C 35.919666,206.50333 5.1200001,175.02368 5.1200001,173.68143 5.1200001,172.52151 170.60555,6.4283206 171.8226,6.3667322 172.67181,6.3237582 339.20755,173.52223 339.17671,174.38683 c -0.0128,0.35924 -37.38081,38.17036 -83.04,84.0247 -54.8274,55.06174 -83.45134,83.37315 -84.29671,83.37632 -0.84905,0.003 -20.42413,-19.23161 -58.14224,-57.13152 z"
       id="path8262"
       inkscape:connector-curvature="0" />
    <path
       style="fill:#edf8fd;stroke-width:0.63999999"
       d="M 111.78729,282.09686 C 34.742703,204.67979 5.7600002,175.07747 5.7600002,173.80284 5.7600002,172.46337 170.09476,7.6863949 171.45634,7.6606266 172.98562,7.6316858 338.54039,174.21138 337.98253,175.21777 c -1.10707,1.99722 -165.49168,165.90403 -166.40274,165.91909 -0.56089,0.009 -27.4675,-26.55874 -59.7925,-59.04 z"
       id="path8260"
       inkscape:connector-curvature="0" />
    <path
       style="fill:#f1f6f8;stroke-width:0.63999999"
       d="M 111.78729,282.09686 C 34.742703,204.67979 5.7600002,175.07747 5.7600002,173.80284 5.7600002,172.55662 170.05213,7.68 171.29393,7.68 c 0.7164,0 0.88858,13.912956 1.02367,82.72 l 0.16241,82.72 82.88,0.32602 c 45.584,0.1793 82.96631,0.3953 83.0718,0.48 0.10549,0.0847 -0.0545,0.59398 -0.35538,1.13175 -1.18663,2.12038 -165.54174,166.06331 -166.49664,166.07909 -0.56089,0.009 -27.4675,-26.55874 -59.7925,-59.04 z"
       id="path8258"
       inkscape:connector-curvature="0" />
    <path
       style="fill:#ebf5f9;stroke-width:0.63999999"
       d="M 114.04284,283.6906 C 37.30966,206.55901 6.4000002,175.0294 6.4000002,173.88876 c 0,-0.52725 37.2240008,-38.21191 82.7200028,-83.743698 L 171.84,7.36 l 0.32,82.88 0.32001,82.88 82.21044,0.16244 c 54.25516,0.1072 82.43014,0.38214 82.85654,0.80854 0.76316,0.76316 -164.47807,166.38273 -166.01948,166.39962 -0.53213,0.006 -26.40023,-25.55417 -57.48467,-56.8 z"
       id="path8256"
       inkscape:connector-curvature="0" />
    <path
       style="fill:#e8f1f4;stroke-width:0.63999999"
       d="M 139.51844,309.28 C 92.088732,261.8523 8.3120841,177.14658 7.2085154,175.50276 6.2689085,174.10319 6.3896705,173.87532 10.261045,169.74276 16.857764,162.70102 170.4853,8.9919629 170.70601,9.2126682 c 0.1116,0.111607 0.19319,36.8661768 0.1813,81.6768228 -0.02,75.153029 0.0611,81.565309 1.04473,82.652209 1.02509,1.13271 4.23454,1.1783 82.94049,1.1783 51.88211,0 81.796,0.22448 81.66081,0.6128 -0.37949,1.09009 -164.41587,165.1472 -165.12633,165.1472 -0.37799,0 -14.72784,-14.04 -31.88857,-31.2 z"
       id="path8254"
       inkscape:connector-curvature="0" />
    <path
       style="fill:#e7eef1;stroke-width:0.63999999"
       d="M 105.92,275.00984 C 30.392191,199.19891 6.7759074,175.02508 7.3437365,174.10632 c 0.5734759,-0.92791 161.8446435,-0.93165 163.5783435,-0.004 1.21408,0.64975 1.23792,2.25262 1.23792,83.2 0,65.58942 -0.16426,82.54283 -0.8,82.56355 -0.44,0.0143 -29.888,-29.17097 -65.44,-64.85623 z"
       id="path8252"
       inkscape:connector-curvature="0" />
    <path
       style="fill:#e5ebee;stroke-width:0.63999999"
       d="M 117.83934,286.08 C 60.591512,228.74603 8.7663087,176.28429 8.4266671,175.32349 8.293775,174.94756 38.768405,174.72 89.246755,174.72 c 64.237655,0 81.096535,0.16582 81.337945,0.8 0.16749,0.44 0.23045,37.376 0.13992,82.08 L 170.56,338.88 Z"
       id="path8250"
       inkscape:connector-curvature="0" />
  </g>
</svg>
