<?xml version="1.0" encoding="UTF-8"?>
<!-- Created with Inkscape (http://www.inkscape.org/) -->
<svg width="256" height="256" version="1.1" viewBox="0 0 256 256" xmlns="http://www.w3.org/2000/svg" xmlns:cc="http://creativecommons.org/ns#" xmlns:dc="http://purl.org/dc/elements/1.1/" xmlns:rdf="http://www.w3.org/1999/02/22-rdf-syntax-ns#">
 <metadata>
  <rdf:RDF>
   <cc:Work rdf:about="">
    <dc:format>image/svg+xml</dc:format>
    <dc:type rdf:resource="http://purl.org/dc/dcmitype/StillImage"/>
    <dc:title/>
   </cc:Work>
  </rdf:RDF>
 </metadata>
 <path d="m112.72 245.3c-17.681-16.695-38.035-36.951-58.302-58.023-27.682-28.781-27.709-28.512 2.987-29.276l20.1-0.5 0.5-43 0.5-43 2.9464-5.3189c3.2898-5.9387 7.538-10.062 13.831-13.425 4.0984-2.19 5.0579-2.2561 32.722-2.2561s28.624 0.06616 32.722 2.2561c6.2934 3.3629 10.542 7.4863 13.831 13.425l2.9464 5.3189 0.5 43 0.5 43 20.1 0.5c14.971 0.37242 20.521 0.85019 21.75 1.8724 4.2518 3.5358 3.1217 4.9326-35.1 43.383-20.212 20.334-40.24 40.07-44.506 43.857-7.6022 6.75-7.8662 6.8868-13.285 6.8868h-5.5284zm-111.47-173.94c-0.93967-0.3927-1.25-5.3846-1.25-20.107 0-18.635 1.105-30.55 3.2076-34.587 2.0515-3.9391 8.3878-9.9295 12.946-12.239l4.7802-2.4223h107.22c105.91 0 107.27 0.024937 111.44 2.042 5.4952 2.6602 12.923 10.66 14.461 15.576 0.74095 2.3672 1.3992 13.132 1.6868 27.587l0.47174 23.705-2.3567 0.5915c-1.2962 0.32532-5.9552 0.45807-10.353 0.29499l-7.9966-0.2965-0.58228-21c-0.32025-11.55-0.93728-21.804-1.3712-22.787-2.1279-4.8201 0.26941-4.713-105.55-4.713-107.25 0-103.83-0.1698-105.6 5.239-0.40591 1.2435-1.0003 11.486-1.3209 22.761l-0.58285 20.5-9 0.18905c-4.95 0.10398-9.5625-0.046021-10.25-0.33333z" fill="#cad5f5"/>
 <path d="m121.97 252.31c-4.9539-3.3902-37.831-35.436-62.098-60.528-25.287-26.147-27.145-28.651-23.497-31.678 0.86263-0.71592 8.9875-1.4154 21.75-1.8724l20.373-0.72961 0.5-43 0.5-43 2.954-5.3327c3.5133-6.3425 7.1232-9.5852 14.546-13.066 5.4595-2.5604 5.6878-2.5795 31.021-2.5902l25.521-0.01075 6.6934 3.2951c6.8357 3.3652 11.283 7.71 14.501 14.166 1.5769 3.164 1.8167 8.0929 2.2637 46.539l0.5 43 20.373 0.72961c12.762 0.45706 20.887 1.1565 21.75 1.8724 4.0466 3.3584 2.7188 4.9364-40.373 47.981-22.962 22.937-43.325 42.651-45.25 43.807-4.2333 2.5429-8.6957 2.6979-12.027 0.41785zm-121.54-205.06c0.84482-27.631 1.5464-30.35 9.7317-37.709 8.9853-8.0786 1.3061-7.6104 119.9-7.309l105.44 0.26798 4.6511 2.7342c5.8936 3.4646 12.519 10.945 13.856 15.643 0.56682 1.9925 1.3185 14.085 1.6705 26.873l0.6399 23.25h-10.042c-9.5686 0-10.07-0.10607-10.645-2.25-0.33164-1.2375-0.60913-10.812-0.61664-21.277-0.01535-21.395-0.36213-22.642-6.7931-24.428-5.0676-1.4074-195.3-1.4266-200.37-0.020247-6.3723 1.77-6.8511 3.4915-6.8665 24.691-0.00751 10.332-0.28499 19.798-0.61663 21.035-0.57449 2.1437-1.0768 2.25-10.633 2.25h-10.03z" fill="#b8c6f2"/>
 <path d="m123 252.42c-5.0367-2.163-86.598-83.965-87.566-87.824-1.2798-5.1026 0.62578-5.5944 21.676-5.5944 10.3 0 19.439-0.27314 20.309-0.60699 1.4065-0.53974 1.5818-5.1174 1.5818-41.318 0-46.563 0.1491-47.687 7.3888-55.74 2.403-2.6727 6.561-5.9789 9.2401-7.3472 4.7636-2.4329 5.4411-2.4943 30.719-2.7856 31.142-0.35892 33.059 0.04126 41.716 8.708 9.0212 9.0307 8.9358 8.4889 8.9358 56.661 0 36.66 0.17481 41.282 1.5818 41.822 0.86998 0.33385 10.009 0.60699 20.309 0.60699 20.687 0 22.943 0.54359 21.763 5.2438-0.83202 3.315-83.285 85.879-87.996 88.114-4.183 1.985-5.1617 1.9911-9.6575 0.0604zm-122.57-182.73c-0.29317-0.76399-0.155-11.957 0.30704-24.873l0.84008-23.484 3.2649-5.0878c3.3479-5.2173 6.9996-8.5048 13.155-11.843 3.3751-1.8305 7.2995-1.8982 110-1.8982h106.5l5.4225 3c5.8541 3.2388 12.276 10.479 13.957 15.736 0.57426 1.7954 1.1738 13.614 1.3323 26.264l0.28815 23h-19l-0.5-21.333-0.5-21.333-3.2658-2.9169-3.2658-2.9169h-100.76c-89.428 0-101.01 0.17449-102.98 1.5513-4.2627 2.9857-4.6817 5.1098-5.2165 26.449l-0.51377 20.5-9.2669 0.28775c-7.1855 0.22312-9.3866-0.024236-9.7999-1.1013z" fill="#a5b7ef"/>
 <path d="m121 250.87c-4.8514-2.9442-82.422-80.85-84.497-84.862-1.5531-3.0033-1.5577-3.381-0.06023-4.8809 1.3551-1.3573 4.9609-1.7082 21.84-2.1257l20.217-0.5 0.5-42.5 0.5-42.5 2.7901-5.6816c3.161-6.4369 8.0059-11.134 14.659-14.213 4.265-1.9734 6.2151-2.1057 31.051-2.1057s26.786 0.13224 31.051 2.1057c6.6532 3.0784 11.498 7.7758 14.659 14.213l2.7901 5.6816 0.5 42.5 0.5 42.5 20.217 0.5c16.92 0.41846 20.483 0.76637 21.848 2.1333 1.3559 1.358 1.4247 2.0323 0.4086 4-1.4694 2.8454-74.017 76.008-82.275 82.973-6.6954 5.6468-10.82 6.329-16.698 2.7617zm-119.98-203.08c0.019448-20.621 0.23703-23.761 1.9005-27.425 2.6446-5.824 8.62-12.097 14.231-14.941l4.7802-2.4223h212.13l4.7168 2.4136c5.9566 3.048 11.521 8.7878 14.14 14.586 1.8542 4.1048 2.0347 6.5451 2.0547 27.788l0.02196 23.288-9.25-0.28753-9.25-0.28753-0.50431-21c-0.27738-11.55-0.87766-21.761-1.334-22.69-0.45631-0.9295-2.0294-2.5045-3.4957-3.5-2.5288-1.7168-7.8174-1.81-102.76-1.81-80.629 0-100.57 0.25489-102.55 1.3104-4.9661 2.6578-5.3205 4.2734-5.8542 26.69l-0.5 21-9.25 0.28753-9.25 0.28753z" fill="#94aaed"/>
 <path d="m119.34 249.12c-2.6619-2.1344-22.535-21.676-44.163-43.425-35.214-35.411-39.29-39.839-39-42.369 0.30539-2.6655 0.66261-2.8614 6.3237-3.4666 3.3-0.3528 12.814-0.6903 21.143-0.75 12.82-0.0919 15.236-0.35119 15.75-1.6903 0.33384-0.86998 0.61138-20.107 0.61676-42.75l0.0098-41.168 2.3707-5c2.9501-6.222 8.5834-11.701 15.11-14.696 4.8004-2.2027 6.0177-2.2939 30.5-2.2839 24.653 0.01009 25.675 0.08905 30.77 2.3767 6.4139 2.8799 14.346 11.208 16.03 16.831 0.84721 2.8277 1.1996 15.915 1.1996 44.556 0 22.304 0.27314 41.264 0.60699 42.134 0.51537 1.343 2.9682 1.5967 16.25 1.6807 8.6036 0.0544 18.118 0.39189 21.143 0.75 5.0812 0.60152 5.5243 0.86234 5.8187 3.4252 0.28351 2.4674-4.2553 7.3482-41.051 44.143-22.753 22.753-42.922 42.316-44.819 43.472-5.2404 3.1946-8.983 2.7411-14.61-1.7705zm-118.34-201.48 0.0022195-22.86 3.1798-5.966c1.7489-3.2813 4.9622-7.4917 7.1407-9.3563 7.9939-6.8425 1.8919-6.5226 118.74-6.2256l105.44 0.26798 4.6128 2.7118c5.7132 3.3586 10.493 8.7022 12.986 14.518 1.6819 3.9237 1.9017 7.0526 1.9036 27.103l0.00222 22.667-9.2522-0.5-9.2522-0.5-0.5-21.225c-0.56933-24.168-0.76366-24.728-9.1424-26.346-5.6892-1.0991-192.03-1.0991-197.72 0-8.3787 1.6187-8.573 2.1788-9.1424 26.346l-0.5 21.225-9.2522 0.5-9.2522 0.5z" fill="#839dea"/>
 <path d="m123 251.29c-4.2678-2.0308-85.406-82.843-86.436-86.089-1.5186-4.7848 0.12893-5.2002 20.625-5.2002 11.146 0 19.739-0.42611 20.878-1.0352 1.8635-0.99731 1.9343-2.5177 1.9343-41.557 0-25.635 0.39572-42.094 1.0772-44.8 1.7023-6.7604 7.5159-13.577 14.791-17.343l6.3065-3.2647h51.506l6.1403 3.0683c3.3772 1.6876 7.6996 4.8901 9.6054 7.1166 6.4519 7.5376 6.5737 8.5465 6.5737 54.458 0 39.795 0.0699 41.324 1.9343 42.322 1.1381 0.60907 9.7318 1.0352 20.878 1.0352 15.806 0 19.154 0.2541 20.216 1.5341 1.025 1.235 1.028 1.9922 0.0157 3.8838-2.1048 3.9329-84.343 85.38-87.359 86.519-3.6884 1.3929-4.5277 1.3303-8.6849-0.6479zm-122-203.01c0.0022567-21.842 0.046776-22.317 2.5961-27.701 1.4266-3.013 4.7461-7.4914 7.3765-9.9519 8.6046-8.0486 2.0591-7.6245 117.67-7.6245 100.37 0 102.38 0.038049 107.71 2.0318 6.2073 2.3224 13.212 9.0996 16.554 16.016 1.9315 3.9978 2.0913 6.0496 2.0934 26.89l0.00229 22.562-8.9158-0.31874-8.9158-0.31874-0.33872-20.681c-0.36464-22.264-0.62765-23.447-5.9063-26.565-2.4712-1.4598-12.488-1.6165-103.35-1.6165h-100.61l-3.7353 3.4227-3.7353 3.4227-0.34996 21.009-0.34996 21.009-8.9023 0.3184-8.9023 0.3184z" fill="#6b8ae6"/>
 <path d="m123.2 250.65c-3.4996-1.9424-43.17-40.691-66.025-64.492-13.463-14.019-20.21-21.754-19.989-22.913 0.29991-1.5676 2.5115-1.834 21.306-2.5668 14.246-0.5554 21.212-1.1968 21.723-2 0.41355-0.65031 0.75881-19.665 0.76723-42.254 0.01733-46.491 0.12287-47.275 7.3619-54.708 7.7562-7.9644 8.719-8.1803 38.001-8.5177 21.298-0.24547 26.672-0.02407 30.532 1.2579 6.03 2.0028 11.411 6.476 14.872 12.364l2.749 4.6764 0.5 43.668c0.275 24.017 0.73205 43.899 1.0157 44.182s9.9534 0.88221 21.489 1.3319c19.164 0.74713 21.003 0.97549 21.323 2.6472 0.24805 1.2961-10.536 12.772-36.989 39.36-20.536 20.642-40.388 40.181-44.114 43.42-7.1173 6.1872-9.9593 7.0764-14.522 4.5439zm-122.2-202.96c0.0012839-11.995 0.36615-21.584 0.8108-21.309s1.3178-1.4048 1.9404-3.7325c1.5247-5.7006 8.4531-13.369 14.713-16.284l5.0381-2.3461 104.5 0.012193c102.91 0.012007 104.57 0.043213 109 2.0449 7.8518 3.5468 16 13.194 16 18.943 0 1.1544 0.45 1.8207 1 1.4808 0.65496-0.40479 1.0008 6.9069 1.0023 21.191l0.00234 21.809-8.3671-0.31964-8.3671-0.31964-0.47657-19.68c-0.38793-16.02-0.79739-20.299-2.2017-23.009-3.3442-6.4529 1.5697-6.1712-107.66-6.1712-89.679 0-99.459 0.15588-102.58 1.6348-5.7045 2.707-6.3091 5.0537-7.0261 27.271l-0.644 19.956-8.3458 0.31904-8.3458 0.31904z" fill="#4068e0"/>
</svg>
