<?xml version="1.0" encoding="UTF-8"?>
<!-- Created with Inkscape (http://www.inkscape.org/) -->
<svg width="27.738" height="27.738" version="1.1" viewBox="0 0 27.73815 27.73815" xmlns="http://www.w3.org/2000/svg" xmlns:cc="http://creativecommons.org/ns#" xmlns:dc="http://purl.org/dc/elements/1.1/" xmlns:rdf="http://www.w3.org/1999/02/22-rdf-syntax-ns#">
 <metadata>
  <rdf:RDF>
   <cc:Work rdf:about="">
    <dc:format>image/svg+xml</dc:format>
    <dc:type rdf:resource="http://purl.org/dc/dcmitype/StillImage"/>
    <dc:title/>
   </cc:Work>
  </rdf:RDF>
 </metadata>
 <g stroke-width=".2167">
  <path d="m4.5508 27.417c-0.41716-0.1482-0.97788-0.58981-1.246-0.98136l-0.48758-0.71191v-23.709l0.48758-0.7078c0.85827-1.2459 1.2987-1.3001 10.564-1.3001 9.2656 0 9.7061 0.0542 10.564 1.3001 0.45503 0.66054 0.48758 0.93562 0.48758 4.1198 0 4.0014-0.06069 4.0993-1.7209 2.7774-1.2436-0.99019-1.2922-1.12-1.3669-3.6531l-0.054345-1.842h-15.819v22.321h15.819l0.05435-1.842c0.07474-2.5331 0.12332-2.6629 1.3669-3.6531 1.6602-1.3219 1.7209-1.2239 1.7209 2.7774 0 3.1842-0.03255 3.4593-0.48758 4.1198-0.86275 1.2524-1.2822 1.3026-10.673 1.2775-6.1355-0.016404-8.6593-0.096431-9.2099-0.29205zm12.476-6.5205c-0.24404-0.24404-0.34054-0.76597-0.34054-1.842v-1.5015h-3.2604c-3.1727 0-3.2747-0.01431-3.7923-0.53191-0.50609-0.50609-0.53191-0.65911-0.53191-3.1521s0.025823-2.646 0.53191-3.1521c0.51761-0.51761 0.61959-0.53191 3.7923-0.53191h3.2604v-1.5015c0-1.6462 0.29196-2.1825 1.1881-2.1825 0.65334 0 8.5636 6.8058 8.5636 7.3679 0 0.23109-1.6163 1.7867-4.0283 3.8769-4.1174 3.5682-4.6521 3.8812-5.3828 3.1505z" fill="#f2f2f2"/>
  <path d="m4.8758 27.48c-0.93496-0.33201-1.5992-1.0102-1.8572-1.8963-0.14634-0.50251-0.20173-4.751-0.15888-12.187 0.064468-11.187 0.074838-11.428 0.51868-12.027 0.93634-1.2645 0.91317-1.2618 10.491-1.2618 9.5767 0 9.5538-0.002755 10.491 1.2611 0.40487 0.54619 0.46026 0.96569 0.52234 3.9558 0.08241 3.9692-0.01638 4.1339-1.6505 2.751l-1.0194-0.86263-0.10835-2.0357c-0.059593-1.1196-0.18724-2.1576-0.28367-2.3066-0.13489-0.20842-1.9695-0.27088-7.9563-0.27088-7.471 0-7.7899 0.016697-8.0053 0.41916-0.30838 0.57621-0.30838 21.123 0 21.699 0.21539 0.40246 0.53427 0.41916 8.0053 0.41916 5.9868 0 7.8214-0.06246 7.9563-0.27088 0.09642-0.14898 0.22408-1.187 0.28367-2.3066l0.10835-2.0357 1.0194-0.86263c1.6341-1.3829 1.7329-1.2182 1.6505 2.751-0.06208 2.9901-0.11747 3.4096-0.52234 3.9558-0.93049 1.2553-0.9476 1.2574-10.274 1.3018-5.6084 0.026696-8.784-0.038855-9.2099-0.19011zm12.244-6.6768c-0.34323-0.34323-0.43341-0.72235-0.43341-1.8221v-1.3887l-3.2282-0.07405c-4.2871-0.09834-4.1397 0.03161-4.1397-3.6497 0-3.6813-0.1474-3.5513 4.1397-3.6497l3.2282-0.07405v-1.3887c0-1.443 0.42974-2.2555 1.193-2.2555 0.59143 0 8.342 6.8456 8.342 7.3679s-7.7506 7.3679-8.342 7.3679c-0.17938 0-0.52117-0.19503-0.75955-0.43341z" fill="#eaeaea"/>
  <path d="m4.7675 27.437c-0.98988-0.35985-1.6718-1.3958-1.8417-2.7976-0.075097-0.61972-0.10588-5.9051-0.068403-11.745 0.06577-10.25 0.083576-10.645 0.51248-11.377 0.83043-1.4175 0.76393-1.4086 10.499-1.4086 9.7353 0 9.6688-0.0089225 10.499 1.4086 0.39268 0.67029 0.44434 1.1238 0.44434 3.9007 0 2.9789-0.02253 3.1452-0.43341 3.1988-0.25996 0.033943-0.80199-0.2878-1.3544-0.80395l-0.92099-0.86054v-2.0598c0-1.8146-0.04988-2.0865-0.41916-2.2841-0.57118-0.30569-15.06-0.30569-15.631 0-0.40599 0.21728-0.41916 0.57115-0.41916 11.261 0 10.69 0.013171 11.044 0.41916 11.261 0.26545 0.14206 3.1315 0.22433 7.8156 0.22433 4.6841 0 7.5501-0.08226 7.8156-0.22433 0.36928-0.19763 0.41916-0.46945 0.41916-2.2841v-2.0598l0.92099-0.86054c0.55241-0.51615 1.0944-0.83789 1.3544-0.80395 0.41088 0.05365 0.43341 0.21992 0.43341 3.1988 0 3.5092-0.25347 4.3361-1.5279 4.9842-0.87797 0.44649-17.33 0.56383-18.517 0.13207zm12.33-6.7681c-0.16051-0.1934-0.32973-1.0223-0.37605-1.842l-0.08421-1.4903h-3.2261c-4.2186 0-4.0929 0.10646-4.0929-3.4673 0-3.5762-0.12935-3.4673 4.1174-3.4673h3.2506l0.0032-1.246c0.0039-1.5214 0.3616-2.3075 1.089-2.3933 0.42846-0.050501 1.3476 0.63479 4.4374 3.3084 2.5872 2.2387 3.897 3.5153 3.897 3.7982 0 0.57587-7.5836 7.1512-8.2477 7.1512-0.26164 0-0.60703-0.15824-0.76754-0.35164z" fill="#dcdcdc"/>
  <path d="m4.7752 27.349c-0.41291-0.20285-0.97363-0.70018-1.246-1.1052l-0.49531-0.73634v-23.276l0.49531-0.73634c0.98589-1.4656 1.0444-1.474 10.34-1.474 9.3024 0 9.3533 0.0072887 10.345 1.4822 0.47426 0.70502 0.4977 0.91137 0.44114 3.8829-0.03821 2.0075-0.14422 3.1664-0.29418 3.2162-0.12895 0.042835-0.68967-0.34604-1.246-0.86417l-1.0116-0.94205v-1.946c0-1.2246-0.0964-2.0424-0.26004-2.2061-0.37283-0.37283-15.577-0.37283-15.949 0-0.37485 0.37485-0.37485 22.076 0 22.451 0.37283 0.37283 15.577 0.37283 15.949 0 0.16365-0.16365 0.26004-0.98144 0.26004-2.2061v-1.946l1.0116-0.94205c0.55638-0.51813 1.1171-0.907 1.246-0.86417 0.14997 0.04982 0.25597 1.2087 0.29418 3.2162 0.05656 2.9715 0.03312 3.1779-0.44114 3.8829-0.99217 1.4749-1.043 1.4822-10.345 1.4822-7.4176 0-8.4264-0.04092-9.0939-0.36882zm12.561-6.5399c-0.22136-0.13966-0.35962-0.70896-0.43341-1.7845l-0.10835-1.5794-3.3245-0.10835c-4.229-0.13783-4.1518-0.0733-4.1518-3.4673 0-3.394-0.077267-3.3294 4.1518-3.4673l3.3245-0.10835 0.10835-1.5794c0.10614-1.5472 0.33003-1.9842 1.0211-1.9929 0.31824-0.00402 8.2972 6.8697 8.2972 7.1479s-7.9789 7.1519-8.2972 7.1479c-0.14446-0.0018-0.40894-0.09561-0.58772-0.20841z" fill="#c7c7c7"/>
  <path d="m4.7675 27.349c-0.50021-0.24324-0.92449-0.69805-1.246-1.3357-0.48684-0.96544-0.48758-0.98392-0.48758-12.144 0-11.16 7.42e-4 -11.178 0.48758-12.144 0.86493-1.7152 0.80032-1.7046 10.348-1.7046 9.5473 0 9.4827-0.010643 10.348 1.7046 0.43267 0.85801 0.48758 1.2912 0.48758 3.8465 0 3.31-0.12444 3.4768-1.5711 2.1056l-0.81264-0.77023v-1.8426c0-2.95 0.84829-2.6809-8.4515-2.6809-7.6904 0-8.0116 0.016366-8.2271 0.41916-0.30851 0.57646-0.30851 21.556 0 22.132 0.21557 0.4028 0.53678 0.41916 8.2271 0.41916 9.2998 0 8.4515 0.26909 8.4515-2.6809v-1.8426l0.81264-0.77023c1.4467-1.3712 1.5711-1.2044 1.5711 2.1056 0 2.5553-0.05491 2.9885-0.48758 3.8465-0.86492 1.7152-0.80032 1.7046-10.348 1.7046-7.4146 0-8.4275-0.04105-9.1016-0.36882zm12.574-6.7566c-0.3486-0.3486-0.43838-0.72208-0.43838-1.8238 0-1.0634-0.07967-1.416-0.34278-1.5169-0.18853-0.07235-1.6931-0.13154-3.3434-0.13154-2.4389 0-3.0644-0.06375-3.3412-0.34054-0.49682-0.49682-0.49682-5.3232 0-5.8201 0.27679-0.27679 0.90226-0.34054 3.3412-0.34054 1.6504 0 3.1549-0.05919 3.3434-0.13154 0.26564-0.10194 0.34278-0.46013 0.34278-1.5917 0-1.1638 0.0843-1.5364 0.41538-1.8361 0.3292-0.29792 0.5079-0.3264 0.8613-0.13727 1.0465 0.56008 7.7165 6.565 7.7165 6.9471 0 0.37714-6.6637 6.3837-7.6936 6.9348-0.33348 0.17848-0.51563 0.13364-0.8613-0.21203z" fill="#bcbcbc"/>
  <path d="m4.8688 27.305c-0.48063-0.23792-1.0657-0.7498-1.3002-1.1375-0.4099-0.67775-0.42635-1.1523-0.42635-12.299 0-11.168 0.015752-11.62 0.42867-12.303 0.23577-0.38989 0.82728-0.90185 1.3145-1.1377 0.83418-0.40382 1.3577-0.42881 8.9837-0.42881s8.1495 0.024987 8.9837 0.42881c1.4811 0.717 1.7314 1.3813 1.8181 4.8251 0.06598 2.6228 0.03181 2.9951-0.28617 3.1171-0.24379 0.093549-0.63774-0.13157-1.2126-0.69293l-0.85153-0.8315v-2.0024c0-1.8236-0.04301-2.0326-0.48163-2.3398-0.72278-0.50626-15.217-0.50626-15.94 0l-0.48163 0.33734v22.055l0.48163 0.33734c0.41335 0.28952 1.5432 0.33734 7.9698 0.33734 6.4267 0 7.5565-0.04782 7.9698-0.33734 0.43861-0.30722 0.48163-0.51618 0.48163-2.3398v-2.0024l0.85153-0.8315c0.57489-0.56136 0.96884-0.78648 1.2126-0.69293 0.31797 0.12202 0.35215 0.49429 0.28617 3.1171-0.08663 3.4438-0.33695 4.1081-1.8181 4.8251-0.83428 0.40387-1.3575 0.4288-8.998 0.42864-7.6704-1.61e-4 -8.1598-0.02373-8.986-0.43274zm12.328-6.7687c-0.09077-0.14687-0.21842-0.95138-0.28367-1.7878l-0.11863-1.5208-3.2402-0.06022c-4.186-0.0778-4.0194 0.05894-4.0194-3.2987 0-3.3576-0.16662-3.2209 4.0194-3.2987l3.2402-0.06022 0.11863-1.5208c0.22733-2.9142 0.47925-2.8514 5.2448 1.3092 2.1156 1.847 3.8465 3.4537 3.8465 3.5705s-1.7309 1.7235-3.8465 3.5705c-3.7353 3.2611-4.5467 3.7676-4.9611 3.097z" fill="#a9a9a9"/>
  <path d="m4.9885 27.359c-0.41478-0.20839-0.9755-0.71025-1.246-1.1152l-0.4919-0.73634v-23.276l0.4919-0.73634c0.99103-1.4835 1.0632-1.4941 10.127-1.4941 9.0634 0 9.1356 0.010646 10.127 1.4941 0.45435 0.68012 0.4919 0.97378 0.4919 3.8465 0 1.7106-0.07318 3.1102-0.16262 3.1102-0.08944 0-0.57703-0.3788-1.0835-0.84178l-0.9209-0.84178v-1.9599c0-1.4928-0.08116-2.0411-0.34054-2.3004-0.29692-0.29692-1.3359-0.34054-8.1109-0.34054-6.7751 0-7.814 0.04362-8.1109 0.34054-0.30065 0.30065-0.34054 1.6314-0.34054 11.361 0 9.7301 0.039886 11.061 0.34054 11.361 0.29691 0.29692 1.3359 0.34054 8.1109 0.34054 6.7751 0 7.814-0.04362 8.1109-0.34054 0.25937-0.25937 0.34054-0.80765 0.34054-2.3004v-1.9599l0.9209-0.84178c0.50649-0.46298 0.99408-0.84178 1.0835-0.84178 0.08944 0 0.16262 1.3996 0.16262 3.1102 0 2.8727-0.03756 3.1664-0.4919 3.8465-0.99103 1.4835-1.0632 1.4941-10.127 1.4941-7.3047 0-8.2027-0.03831-8.8806-0.37889zm12.385-6.8349c-0.12777-0.15395-0.26161-0.95847-0.29741-1.7878l-0.06511-1.5079-3.4311-0.10835c-4.2174-0.13318-4.0452 0.0052-4.0452-3.2506 0-3.2558-0.17227-3.1174 4.0452-3.2506l3.4311-0.10835 0.06511-1.5079c0.06505-1.5065 0.28417-2.0677 0.8074-2.0677 0.29306 0 8.1207 6.6843 8.1207 6.9345s-7.8277 6.9345-8.1207 6.9345c-0.15272 0-0.38222-0.12596-0.50998-0.27991z" fill="#929292"/>
  <path d="m5.0315 27.378c-0.39115-0.19279-0.92749-0.65378-1.1919-1.0244-0.4801-0.67305-0.48076-0.68816-0.54038-12.223-0.066114-12.792-0.092674-12.522 1.3325-13.538 0.6686-0.47692 0.78737-0.48413 8.9724-0.54488 9.195-0.06824 9.3012-0.054468 10.292 1.3343 0.43571 0.61083 0.49023 0.98173 0.55348 3.7656 0.07859 3.4588-0.0079 3.6306-1.2006 2.3837-0.6373-0.66627-0.67761-0.81071-0.7468-2.6759-0.046864-1.2634-0.18074-2.1011-0.37271-2.3322-0.27116-0.32638-1.0621-0.3552-8.3368-0.30381l-8.0372 0.056785-0.27402 0.54176c-0.39665 0.78419-0.39665 21.32 0 22.104l0.27402 0.54176 8.0372 0.05678c7.2746 0.0514 8.0656 0.02257 8.3368-0.30381 0.19197-0.23107 0.32585-1.0688 0.37271-2.3322 0.06919-1.8652 0.1095-2.0096 0.7468-2.6759 1.1926-1.2468 1.2792-1.075 1.2006 2.3837-0.06325 2.7839-0.11777 3.1548-0.55348 3.7656-0.97192 1.3626-1.1115 1.3816-10.06 1.3762-7.0115-0.0043-8.1888-0.0518-8.8048-0.35546zm12.512-6.7966c-0.21035-0.12974-0.3512-0.71966-0.42352-1.7738l-0.10835-1.5794-3.2724-0.10835c-2.3217-0.07687-3.3762-0.19476-3.6298-0.40577-0.29489-0.24542-0.35737-0.74279-0.35737-2.8448s0.062481-2.5994 0.35737-2.8448c0.25355-0.21101 1.3081-0.32889 3.6298-0.40577l3.2724-0.10835 0.10835-1.603c0.15598-2.3075 0.42398-2.3956 2.3343-0.76675 5.2387 4.4667 6.3083 5.4378 6.3091 5.7286 8.67e-4 0.28586-6.6994 6.2334-7.5698 6.7195-0.19016 0.1062-0.47118 0.10302-0.65011-0.0073z" fill="#858585"/>
  <path d="m5.3093 27.534c-0.6106-0.25958-1.5555-1.3094-1.8282-2.0312-0.15186-0.40192-0.23049-4.3781-0.23049-11.655 0-12.083-0.022194-11.857 1.2878-13.09l0.69103-0.65011h17.279l0.69103 0.65011c1.0892 1.0247 1.2878 1.7401 1.2878 4.6394 0 1.427-0.09168 2.6513-0.20373 2.7205-0.11205 0.069252-0.55088-0.17889-0.97517-0.55142l-0.77144-0.67733v-1.9039c0-1.5517-0.07664-1.9985-0.41426-2.4155l-0.41426-0.51159h-15.679l-0.41426 0.51159c-0.39548 0.4884-0.41426 1.0007-0.41426 11.299 0 10.298 0.018782 10.81 0.41426 11.299l0.41426 0.51159h15.679l0.41426-0.51159c0.33762-0.41695 0.41426-0.86381 0.41426-2.4155v-1.9039l0.77144-0.67733c0.42429-0.37253 0.86312-0.62067 0.97517-0.55142 0.11205 0.06925 0.20373 1.2935 0.20373 2.7205 0 2.8991-0.19857 3.6146-1.2875 4.6394l-0.69082 0.65011-8.3833 0.04424c-4.6108 0.024332-8.5783-0.038675-8.8167-0.14001zm11.946-7.2782c-0.07482-0.19498-0.13604-0.96995-0.13604-1.7222 0-1.0472-0.08031-1.3985-0.34278-1.4992-0.18853-0.07235-1.7293-0.13154-3.4239-0.13154-2.1075 0-3.1633-0.08217-3.3412-0.26004-0.35862-0.35862-0.35862-5.189 0-5.5476 0.17787-0.17787 1.2337-0.26004 3.3412-0.26004 1.6946 0 3.2354-0.05919 3.4239-0.13154 0.26622-0.10216 0.34278-0.46173 0.34278-1.6098 0-1.549 0.38155-2.3352 0.96982-1.9982 0.56776 0.32527 7.6984 6.5991 7.6984 6.7734 0 0.34556-7.4176 6.6103-7.9039 6.6754-0.30091 0.04029-0.5451-0.07189-0.62826-0.2886z" fill="#767676"/>
  <path d="m5.2009 27.342c-1.0353-0.55438-1.6787-1.5743-1.8418-2.9193-0.075147-0.61972-0.10593-5.8076-0.068403-11.529 0.07566-11.535 0.036115-11.217 1.5277-12.281l0.70756-0.50467h16.686l0.70756 0.50467c1.1262 0.80326 1.4136 1.5942 1.524 4.1938 0.05406 1.2731 0.03402 2.5708-0.04454 2.8838l-0.14283 0.56909-0.85956-0.68078-0.85956-0.68078v-2.0405c0-3.1449 0.70838-2.9073-8.6682-2.9073-7.5124 0-7.8174 0.016052-8.2348 0.43341-0.42208 0.42208-0.43341 0.72235-0.43341 11.485 0 10.763 0.011332 11.063 0.43341 11.485 0.41736 0.41736 0.72235 0.43341 8.2348 0.43341 9.3765 0 8.6682 0.23759 8.6682-2.9073v-2.0405l0.85956-0.68078 0.85956-0.68078 0.14283 0.56909c0.07856 0.313 0.0986 1.6107 0.04454 2.8838-0.11039 2.5996-0.3978 3.3905-1.524 4.1938-0.70676 0.5041-0.7167 0.50474-8.834 0.56375-7.5954 0.05522-8.176 0.03254-8.8849-0.34708zm12.213-7.0219c-0.09077-0.14687-0.21842-0.95138-0.28367-1.7878l-0.11863-1.5208-3.4215-0.10835c-2.7209-0.08616-3.4635-0.17492-3.6265-0.43341-0.26671-0.42301-0.26671-4.7779 0-5.2009 0.16298-0.25849 0.9056-0.34724 3.6265-0.43341l3.4215-0.10835 0.11863-1.5208c0.12784-1.6388 0.27962-2.0548 0.74963-2.0548 0.36117 0 7.7999 6.4068 7.7999 6.7178s-7.4387 6.7178-7.7999 6.7178c-0.16551 0-0.37519-0.12017-0.46596-0.26704z" fill="#6a6a6a"/>
  <path d="m5.6343 27.584c-0.55193-0.2164-1.3806-0.93336-1.7816-1.5414-0.35359-0.53614-0.38254-1.4575-0.38254-12.174 0-12.824-0.077714-12.091 1.4052-13.257l0.64008-0.50349h16.707l0.64008 0.50349c1.2861 1.0117 1.405 1.395 1.4066 4.5349 8.67e-4 1.5792-0.07696 2.8713-0.17276 2.8713-0.09581 0-0.48588-0.32157-0.86682-0.71461-0.67534-0.69677-0.69262-0.76354-0.69262-2.6752 0-1.6242-0.068-2.0221-0.3963-2.3193-0.35353-0.31994-1.2503-0.35864-8.3095-0.35864-7.391 0-7.9369 0.026153-8.2719 0.3963-0.32395 0.35796-0.35864 1.4762-0.35864 11.56 0 10.54 0.02214 11.184 0.3963 11.522 0.35353 0.31994 1.2503 0.35864 8.3095 0.35864 9.3798 0 8.6305 0.23767 8.6305-2.7375 0-1.9156 0.01079-1.9554 0.71461-2.6376 0.39303-0.38094 0.7831-0.69262 0.86682-0.69262 0.08371 0 0.15157 1.2921 0.15078 2.8713-0.0015 3.1397-0.12042 3.523-1.4063 4.5349l-0.6398 0.50349-8.132 0.04091c-4.4726 0.0225-8.2783-0.01644-8.457-0.08653zm11.847-7.1417c-0.07946-0.07946-0.14447-0.7541-0.14447-1.4992 0-2.1609 0.212-2.0403-3.5865-2.0403-4.0915 0-3.9981 0.07087-3.9981-3.0339 0-3.1065-0.096237-3.0339 4.0172-3.0339 3.826 0 3.5139 0.19596 3.62-2.2733 0.04095-0.95292 0.14222-1.3135 0.38084-1.3561 0.40902-0.0729 7.693 6.236 7.693 6.6632 0 0.34003-7.2145 6.7132-7.6027 6.7161-0.12912 9.53e-4 -0.29978-0.06328-0.37923-0.14273z" fill="#575757"/>
  <path d="m5.7717 27.589c-0.63631-0.1713-1.6843-1.1921-2.0086-1.9566-0.23702-0.55868-0.29584-2.8976-0.29584-11.763 0-12.155-0.024326-11.915 1.3252-13.111l0.7335-0.65011h16.686l0.7335 0.65011c1.1256 0.99767 1.3252 1.7024 1.3252 4.68v2.6352l-0.70429-0.54217c-0.67804-0.52196-0.70632-0.60579-0.75887-2.249-0.06572-2.0552-0.16614-2.5467-0.61134-2.9919-0.2969-0.2969-1.352-0.33979-8.2886-0.33689-4.3716 0.0018247-8.0557 0.074963-8.1868 0.16253-0.69455 0.46377-0.73673 1.1366-0.73673 11.753 0 10.616 0.042177 11.289 0.73673 11.753 0.13114 0.08757 3.8152 0.1607 8.1868 0.16253 6.9366 0.0029 7.9917-0.03999 8.2886-0.33689 0.4452-0.4452 0.54562-0.93665 0.61134-2.9919 0.05254-1.6432 0.08083-1.727 0.75887-2.249l0.70429-0.54217v2.6352c0 2.9776-0.19954 3.6823-1.3252 4.68l-0.7335 0.65011-8.0181 0.03395c-4.4099 0.01868-8.2-0.01504-8.4224-0.07491zm11.817-7.2846c-0.1265-0.15242-0.25929-0.95568-0.2951-1.785l-0.06511-1.5079-3.3589-0.10835c-1.8474-0.05959-3.4808-0.18724-3.6298-0.28367-0.38203-0.24725-0.38203-5.2531 0-5.5004 0.14898-0.09642 1.7824-0.22408 3.6298-0.28367l3.3589-0.10835 0.06329-1.5521c0.09871-2.4208 0.23496-2.4138 3.2238 0.16491 4.6407 4.0039 5.056 4.3762 5.056 4.532 0 0.15529-6.9582 6.2518-7.4756 6.5499-0.15252 0.08786-0.3808 0.03503-0.5073-0.11739z" fill="#4d4d4d"/>
  <path d="m5.6853 27.585c-0.26994-0.051884-0.43918-0.17786-0.37609-0.27994 0.063092-0.10208-0.079204-0.24716-0.31621-0.32238-0.23701-0.075225-0.65287-0.44794-0.92414-0.82824l-0.49322-0.69147v-23.187l0.49322-0.69147c0.27127-0.38031 0.68713-0.75302 0.92414-0.82824 0.23701-0.075224 0.38233-0.21539 0.32294-0.31149-0.2216-0.35856 1.4273-0.44419 8.5532-0.44419 7.1258 0 8.7748 0.085633 8.5532 0.44419-0.05939 0.096095 0.08593 0.23626 0.32294 0.31149 0.23701 0.075224 0.65287 0.44793 0.92414 0.82824 0.4388 0.61519 0.50159 0.99628 0.56915 3.4545 0.04177 1.5196-8e-3 2.763-0.11056 2.763-0.10258 0-0.45368-0.24774-0.78023-0.55053-0.56095-0.52014-0.59372-0.65637-0.59372-2.4681 0-1.5651-0.07614-2.0116-0.41426-2.4292l-0.41426-0.51159h-16.113l-0.41426 0.51159c-0.39572 0.4887-0.41426 1.004-0.41426 11.515 0 10.511 0.018537 11.027 0.41426 11.515l0.41426 0.51159h16.113l0.41426-0.51159c0.33813-0.41757 0.41426-0.86402 0.41426-2.4292 0-1.8117 0.03277-1.9479 0.59372-2.4681 0.32655-0.30279 0.67765-0.55053 0.78023-0.55053 0.10258 0 0.15233 1.2433 0.11056 2.763-0.06756 2.4582-0.13035 2.8393-0.56915 3.4545-0.27127 0.38031-0.68713 0.75302-0.92414 0.82824-0.23701 0.07522-0.38233 0.21539-0.32294 0.31149 0.05939 0.0961-0.19518 0.23535-0.5657 0.30946-0.74395 0.14879-15.388 0.13193-16.171-0.01862zm11.783-7.5574c-0.07235-0.18853-0.13154-0.95823-0.13154-1.7104 0-1.0472-0.08031-1.3985-0.34278-1.4992-0.18853-0.07235-1.7871-0.13154-3.5524-0.13154-2.7269 0-3.2294-0.05156-3.3412-0.34278-0.17107-0.44581-0.17107-4.5029 0-4.9488 0.11185-0.29148 0.62266-0.34328 3.4131-0.3461 1.8049-0.0018 3.3987-0.07781 3.542-0.16885 0.15401-0.09789 0.28683-0.82614 0.32506-1.7822 0.05044-1.2615 0.13925-1.6309 0.40422-1.6814 0.32126-0.061235 7.6785 6.1217 7.6785 6.4529 0 0.25382-7.2952 6.5011-7.5916 6.5011-0.14946 0-0.33094-0.15425-0.40328-0.34278z" fill="#434343"/>
  <path d="m5.7591 27.579c-0.47683-0.070669-0.5573-0.14228-0.32506-0.28927 0.25593-0.16198 0.24771-0.19591-0.048126-0.19867-0.19623-0.001734-0.65944-0.34802-1.0293-0.76932l-0.67256-0.766v-23.374l0.67256-0.76601c0.36991-0.4213 0.83311-0.7675 1.0293-0.76932 0.2767-0.0025736 0.29223-0.044243 0.069201-0.18564-0.5562-0.35262 1.3569-0.45638 8.414-0.45638 7.0571 0 8.9702 0.10377 8.414 0.45638-0.22303 0.1414-0.2075 0.18307 0.0692 0.18564 0.19623 0.001825 0.65944 0.34802 1.0293 0.76932l0.67256 0.76601v5.7003l-0.65011-0.62285c-0.62808-0.60174-0.65023-0.68941-0.65343-2.5868-0.001733-1.0802-0.074962-2.0713-0.16253-2.2024-0.4509-0.67529-1.1781-0.73673-8.719-0.73673s-8.2681 0.061445-8.719 0.73673c-0.087565 0.13114-0.15921 5.2606-0.15921 11.399 0 6.1381 0.071644 11.268 0.15921 11.399 0.4509 0.67528 1.1781 0.73673 8.719 0.73673s8.2681-0.06144 8.719-0.73673c0.08757-0.13114 0.1607-1.1222 0.16253-2.2024 0.0032-1.8974 0.02535-1.9851 0.65343-2.5868l0.65011-0.62285v5.7003l-0.67256 0.766c-0.36991 0.4213-0.83312 0.7675-1.0293 0.76932-0.2767 0.0026-0.29223 0.04424-0.0692 0.18564 0.19575 0.1241 0.02276 0.22608-0.54176 0.31935-0.9069 0.14985-14.957 0.13485-15.982-0.01705zm11.794-8.616c0-2.3372 0.09927-2.277-3.7566-2.277-2.2839 0-3.3885-0.0805-3.568-0.26004-0.35662-0.35662-0.35662-4.7576 0-5.1142 0.17954-0.17954 1.2841-0.26004 3.568-0.26004 3.8559 0 3.7566 0.06017 3.7566-2.277 0-1.1194 0.06706-1.4232 0.30214-1.3686 0.36001 0.083485 7.4992 6.2361 7.4992 6.4628s-7.1392 6.3794-7.4992 6.4628c-0.23508 0.05451-0.30214-0.24926-0.30214-1.3686z" fill="#3a3a3a"/>
  <path d="m5.7427 27.521c-0.61825-0.15732-0.62356-0.16792-0.10835-0.2162 0.45219-0.042381 0.4716-0.068598 0.11738-0.15857-0.77599-0.19712-1.4733-0.7891-1.7722-1.5045-0.43357-1.0377-0.43357-22.508 0-23.546 0.29893-0.71545 0.99624-1.3074 1.7722-1.5045 0.35421-0.089975 0.33481-0.11619-0.11738-0.15857-0.51521-0.048288-0.50989-0.058886 0.10835-0.2162 0.84759-0.21567 15.405-0.21567 16.253 0 0.61825 0.15732 0.62356 0.16791 0.10835 0.2162-0.45219 0.042382-0.4716 0.0686-0.11738 0.15857 1.6124 0.40958 2.0677 1.4313 2.0677 4.6402v2.4285l-0.52148-0.48991c-0.46511-0.43695-0.52953-0.70802-0.59594-2.5076-0.11745-3.1828 0.66781-2.9291-9.0677-2.9291-8.0282 0-8.1746 0.00779-8.5804 0.45616-0.39477 0.43622-0.41282 0.94685-0.41282 11.679 0 10.732 0.018049 11.243 0.41282 11.679 0.40577 0.44837 0.55224 0.45616 8.5804 0.45616 9.7355 0 8.9502 0.25366 9.0677-2.9291 0.06641-1.7995 0.13083-2.0706 0.59594-2.5076l0.52148-0.48991v2.4285c0 3.2089-0.45528 4.2307-2.0677 4.6402-0.35421 0.08997-0.33481 0.11619 0.11738 0.15857 0.51521 0.04829 0.5099 0.05889-0.10835 0.2162-0.35756 0.09098-4.0144 0.16542-8.1264 0.16542s-7.7688-0.07444-8.1264-0.16542zm11.929-7.3897c-0.06005-0.16684-0.13573-0.98596-0.16818-1.8203l-0.05901-1.5169-3.5756-0.13255c-1.9666-0.0729-3.6-0.14604-3.6298-0.16253-0.0298-0.01649-0.05418-1.2002-0.05418-2.6304s0.02438-2.6139 0.05418-2.6304c0.0298-0.01649 1.6632-0.08963 3.6298-0.16253l3.5756-0.13255 0.10835-1.6822c0.05959-0.92519 0.19215-1.6933 0.29456-1.7069 0.24707-0.03277 7.2901 6.0604 7.2901 6.3069 0 0.10537-1.4384 1.4347-3.1964 2.954-1.758 1.5193-3.4133 2.9553-3.6783 3.191-0.38413 0.34161-0.50409 0.36702-0.5911 0.12524z" fill="#323232"/>
 </g>
</svg>
