<?xml version="1.0" encoding="UTF-8"?>
<!-- Created with Inkscape (http://www.inkscape.org/) -->
<svg width="913.33" height="361.33" version="1.1" viewBox="0 0 913.33331 361.33334" xmlns="http://www.w3.org/2000/svg" xmlns:cc="http://creativecommons.org/ns#" xmlns:dc="http://purl.org/dc/elements/1.1/" xmlns:rdf="http://www.w3.org/1999/02/22-rdf-syntax-ns#">
 <metadata>
  <rdf:RDF>
   <cc:Work rdf:about="">
    <dc:format>image/svg+xml</dc:format>
    <dc:type rdf:resource="http://purl.org/dc/dcmitype/StillImage"/>
    <dc:title/>
   </cc:Work>
  </rdf:RDF>
 </metadata>
 <g stroke-width="1.3333">
  <path d="m150.77 309.02c-104.58-103.28-117.72-116.6-122.23-123.97-4.3876-7.1612-4.5432-7.8009-2.6139-10.745 1.1283-1.7219 38.028-38.67 82-82.107l79.949-78.977 7.0648 3.5251c5.615 2.8017 22.854 19.281 84.006 80.303 42.317 42.228 77.635 78.455 78.484 80.504 0.84895 2.0495 1.139 5.3881 0.64444 7.419-0.60648 2.4908-23.763 26.625-71.151 74.154-38.639 38.754-74.317 74.004-79.286 78.333-7.9073 6.8901-9.7242 7.872-14.565 7.872-5.4501 0-6.0678-0.53027-42.299-36.31zm623.23 6.0322c-7.372-1.3616-8.9742-2.0735-13.387-5.9484-7.5928-6.6666-10.312-13.293-9.7236-23.7 0.88662-15.691 12.725-33.089 27.362-40.21 9.2622-4.5063 22.731-5.1218 28.883-1.3199 19.859 12.274 5.2108 34.484-26.61 40.347-9.858 1.8164-12.036 4.044-9.7735 9.9951 1.849 4.8632 3.4122 5.7361 10.316 5.7607 5.7685 0.0205 11.564-2.2496 17.447-6.8348 4.4101-3.437 6.425-3.1099 8.7692 1.4233 1.9974 3.8625 1.9573 3.9544-4.0106 9.2076-9.2841 8.1722-21.212 12.768-29.272 11.28zm8.1208-43.687c8.7139-3.6409 16.517-11.679 16.537-17.035 0.0276-7.3427-17.117 2.7511-22.498 13.246-3.1166 6.0781-1.6887 6.9859 5.9608 3.7898zm-374.48 40.6c-10.729-5.8167-16.944-19.326-14.497-31.512 4.9978-24.886 28.027-42.702 49.895-38.6 5.9743 1.1208 15.374 9.3098 18.444 16.068 7.7075 16.969-3.9441 42.511-24.152 52.944-8.4291 4.352-22.714 4.8808-29.69 1.099zm21.822-13.434c10.167-10.167 18.151-34.167 14.115-42.431-2.556-5.2342-10.246-4.5836-16.424 1.3895-7.4155 7.1702-14.045 21.953-14.842 33.097-0.78386 10.956 0.53032 13.41 7.1817 13.41 3.4943 0 5.728-1.2246 9.9684-5.465zm79.766 12.234c-2.4234-2.4234-3.8974-5.2881-3.8974-7.5745 0-2.0224 2.5074-12.561 5.5721-23.419 3.0646-10.858 5.1081-20.2 4.541-20.759-0.56712-0.5591-4.156 2.334-7.9752 6.4292-7.2766 7.8022-16.502 24.049-20.878 36.767-3.3055 9.6076-4.6467 11.121-9.8577 11.121-4.3407 0-10.069-4.4633-10.069-7.8454 0-0.92043 3.1473-12.5 6.9939-25.732l6.9939-24.058-4.3272-3.6126c-7.2116-6.0205-6.4177-6.8218 9.4252-9.5123 8.6575-1.4703 9.2356-1.4023 12.262 1.4412 1.7471 1.6413 3.3585 4.2273 3.5809 5.7468 0.38152 2.6066 0.66789 2.533 5.071-1.3035 9.8085-8.5461 17.701-9.628 24.034-3.2946 5.9677 5.9676 6.2633 9.6977 2.0217 25.504-5.1557 19.213-5.4566 21.333-3.0273 21.333 1.6515 0 6.3047 5.2424 6.3047 7.1031 0 0.29164-1.8424 2.8485-4.0941 5.682-8.4463 10.628-16.03 12.63-22.675 5.9842zm89.214 0.23078c-1.863-2.0167-3.7644-4.7374-4.2253-6.0462-0.4687-1.3309 4.4949-21.014 11.264-44.665l12.102-42.286-4.9212-4.254c-2.7066-2.3397-4.5742-4.8153-4.1502-5.5014 0.97584-1.579 21.411-4.8177 24.038-3.8098 1.078 0.41368 2.8877 2.168 4.0215 3.8984 1.9359 2.9546 1.3723 5.5553-9.2556 42.703-6.2244 21.756-11.317 40.246-11.317 41.089 0 1.0558 0.66027 0.98354 2.1257-0.23269 1.8144-1.5058 2.4935-1.2857 4.637 1.5034 3.5223 4.5832 3.1938 7.1317-1.6273 12.623-8.1762 9.3122-16.915 11.23-22.691 4.9783zm41.658-0.4359c-2.2644-2.2644-4.1026-5.5131-4.1026-7.2506 0-1.7314 2.7-12.555 6-24.053 3.3-11.498 6-21.906 6-23.129 0-1.223-1.8336-3.3067-4.0747-4.6306-7.0666-4.1743-4.7711-6.582 8.3385-8.746l11.579-1.9114 2.7008 3.2447c1.4855 1.7846 2.7193 4.1447 2.7418 5.2447 0.0225 1.1-2.3576 10.563-5.289 21.029-2.9314 10.466-5.3299 19.833-5.3299 20.815 0 1.1537 1.1054 1.5743 3.1238 1.1884 2.479-0.47388 3.4652 0.22704 4.7777 3.3957 1.4148 3.4156 1.308 4.5208-0.73859 7.6442-3.7106 5.6631-12.29 11.26-17.26 11.26-3.0954 0-5.5567-1.1926-8.4666-4.1026zm77.128 0.20512c-2.4234-2.4234-3.8974-5.2881-3.8974-7.5745 0-2.0224 2.5074-12.561 5.5721-23.419 3.0647-10.858 5.1081-20.2 4.541-20.759-0.56712-0.5591-4.156 2.334-7.9752 6.4292-7.2766 7.8022-16.502 24.049-20.878 36.767-3.3055 9.6076-4.6467 11.121-9.8576 11.121-4.3407 0-10.069-4.4633-10.069-7.8454 0-0.92043 3.1472-12.5 6.9939-25.732l6.9939-24.058-4.3272-3.6126c-7.2116-6.0205-6.4177-6.8218 9.4252-9.5123 8.6575-1.4703 9.2356-1.4023 12.262 1.4412 1.7471 1.6413 3.3585 4.2273 3.5809 5.7468 0.38152 2.6066 0.6679 2.533 5.071-1.3035 9.8085-8.5461 17.701-9.628 24.034-3.2946 5.9676 5.9676 6.2633 9.6977 2.0217 25.504-5.1557 19.213-5.4566 21.333-3.0273 21.333 1.6515 0 6.3047 5.2424 6.3047 7.1031 0 0.29164-1.8424 2.8485-4.0941 5.682-8.4463 10.628-16.03 12.63-22.675 5.9842zm-170.23-26.923c-3.2146-2.0587-4.3333-3.7495-4.3333-6.549 0-7.1122 2.3542-7.9643 22.004-7.9643h17.814l2.7575 3.8725c3.5317 4.9598 3.4688 6.2041-0.51528 10.188-3.0916 3.0916-4.106 3.2715-18.333 3.2503-12.956-0.0193-15.666-0.41023-19.394-2.7976zm117.52-51.832c-7.6785-3.0686-11.083-14.066-5.5542-17.939 4.3269-3.0307 7.0398-2.5767 12.324 2.0625 3.5928 3.1546 4.7131 5.1757 4.7131 8.5034 0 6.2167-5.5147 9.7575-11.482 7.3726zm-232.16-47.403c-3.8393-1.034-10.139-3.4791-14-5.4337-8.7137-4.4115-24.505-20.207-29.405-29.412-11.469-21.547-11.915-55.415-1.0371-78.661 21.941-46.887 93.811-46.019 115.52 1.3956 5.1581 11.267 3.8791 12.566-16.682 16.949l-7.253 1.5461-4.747-5.4398c-2.6109-2.9919-6.4163-7.5204-8.4566-10.063-7.0012-8.7266-23.959-9.1228-35.411-0.82735-3.3396 2.4192-6.6449 6.6369-9.0675 11.571-3.6428 7.4188-3.8122 8.5931-3.8122 26.43 0 20.958 1.4455 27.757 7.3254 34.454 8.586 9.7789 26.457 9.896 36.36 0.23825 4.4306-4.3208 6.0614-7.0089 9.5204-15.692 2.3882-5.9954 3.3104-6.0785 17.43-1.5699 11.297 3.6073 17.931 8.544 17.994 13.391 0.0204 1.5515-2.0638 7.0201-4.6314 12.153-5.0903 10.175-14.138 19.67-23.101 24.243-12.947 6.6051-32.282 8.5694-46.544 4.7286zm138.67 0c-3.8393-1.034-10.139-3.4791-14-5.4337-8.7138-4.4115-24.505-20.207-29.405-29.412-11.469-21.547-11.915-55.415-1.0371-78.661 21.941-46.887 93.811-46.019 115.52 1.3956 5.1581 11.267 3.8791 12.566-16.682 16.949l-7.253 1.5461-4.747-5.4398c-2.6109-2.9919-6.4163-7.5204-8.4566-10.063-7.0012-8.7266-23.959-9.1228-35.411-0.82735-3.3396 2.4192-6.6449 6.6369-9.0675 11.571-3.6428 7.4188-3.8122 8.5931-3.8122 26.43 0 20.958 1.4455 27.757 7.3254 34.454 8.586 9.7789 26.457 9.896 36.36 0.23825 4.4306-4.3208 6.0614-7.0089 9.5204-15.692 2.3883-5.9954 3.3104-6.0785 17.43-1.5699 11.297 3.6073 17.931 8.544 17.994 13.391 0.0204 1.5515-2.0638 7.0201-4.6314 12.153-5.0903 10.175-14.138 19.67-23.101 24.243-12.947 6.6051-32.282 8.5694-46.544 4.7286zm94.647-5.4366-4.3333-4.7557v-65.621c0-51.905 0.3641-66.119 1.7419-68.004 1.6151-2.2088 4.4548-2.3487 39-1.9215l37.258 0.46075 7.6904 3.7763c8.9866 4.4128 19.573 14.237 23.347 21.666 3.9152 7.7072 6.0321 19.746 4.9942 28.402-1.891 15.771-10.726 28.21-24.583 34.609-6.6266 3.0603-9.4351 3.4871-25.449 3.8677-9.9 0.23527-19.95 0.73638-22.333 1.1136l-4.3333 0.68582v21.853c0 12.019-0.58515 23.392-1.3003 25.273-1.2748 3.353-1.5564 3.4194-14.333 3.3853l-13.033-0.0348-4.3333-4.7557zm61.979-80.696c8.1755-2.5376 13.014-13.115 9.6807-21.162-2.2316-5.3875-8.105-6.9112-24.66-6.3974l-13.333 0.41381-0.38246 13.891c-0.2806 10.191 0.0745 14.198 1.3333 15.043 2.0415 1.3703 21.225 0.11668 27.362-1.7881zm112.76 81.76c-3.9383-3.3727-4.2965-4.3665-4.6667-12.946l-0.40092-9.2927-23.437-0.66666-23.437-0.66667-4.2294-3.9957c-4.1118-3.8846-4.2294-4.314-4.2294-15.446v-11.45l28.043-41.221c15.424-22.671 29.557-42.571 31.408-44.221 2.7424-2.4453 4.9355-3 11.862-3 7.8093 0 8.8813 0.3621 13.239 4.4715l4.7412 4.4715 0.35377 39.195 0.35379 39.195 4 0.4338c2.22 0.24075 5.9283 2.2855 8.3333 4.5949 4.1075 3.9442 4.3333 4.6647 4.3333 13.824 0 8.4738-0.36464 9.9183-2.9633 11.738-1.6298 1.1416-5.1656 2.0756-7.8574 2.0756-5.974 0-6.5126 1.1449-6.5126 13.842 0 5.7078-0.65111 10.275-1.6 11.224-0.98969 0.9897-5.6941 1.5793-12.333 1.5458-9.7324-0.0492-11.131-0.39484-14.999-3.7074zm-4.6824-67.238c0.24119-7.3038-0.12413-11.667-0.97672-11.667-1.8659 0-16.128 21.502-15.228 22.958 0.39706 0.64245 4.119 0.98973 8.2709 0.77173l7.549-0.39636z" fill="#91ddf7"/>
  <path d="m185.85 342.47c-6.5849-4.9082-153.92-152.28-155.76-155.8-0.95965-1.8333-2.1613-4.6833-2.6702-6.3333l-0.92543-3 79.09-0.0204c43.499-0.0107 79.835-0.49367 80.746-1.0721 1.2823-0.81436 1.7336-18.937 2-80.313l0.34401-79.261 3.3333 0.47265c1.8333 0.25996 5.0082 1.3382 7.0552 2.3961 2.047 1.0579 38.447 36.545 80.888 78.861 54.326 54.165 77.408 78.038 77.983 80.655 0.49781 2.2665-0.0409 5.5251-1.3802 8.3474-2.1906 4.6164-151.36 153.03-157.01 156.22-4.3568 2.4566-9.4216 2.03-13.692-1.1531zm222.64-30.269c-8.9646-5.6569-14.316-15.579-14.226-26.376 0.22726-27.302 32.155-51.499 53.549-40.585 7.8832 4.0217 14.509 12.203 15.56 19.214 2.5004 16.674-8.3541 36.522-24.897 45.526-9.3766 5.1034-23.734 6.1669-29.986 2.2212zm20.849-11.692c12.297-11.109 21.662-42.536 14.151-47.485-2.6225-1.7277-8.9582-1.0896-13.036 1.3129-4.9473 2.9149-11.851 13.266-15.595 23.383-3.1818 8.5969-3.8954 23.377-1.256 26.017 3.2546 3.2546 10.12 1.8464 15.736-3.2281zm83.299 13.141c-2.639-1.8951-5.9692-8.254-5.9692-11.398 0-1.7484 2.4-11.386 5.3333-21.418 2.9333-10.031 5.3333-19.456 5.3333-20.943 0-2.6528-0.0781-2.6585-4.0899-0.29579-8.0022 4.7128-20.299 23.911-25.941 40.5-1.7928 5.2711-3.9427 10.407-4.7775 11.413-2.615 3.1509-11.858 1.9536-11.858-1.536 0-0.96043-0.75-1.9974-1.6667-2.3043-1.2157-0.40707 0.2326-7.2016 5.3526-25.111 3.8606-13.504 7.0106-25.189 7-25.967-0.0107-0.77746-1.8434-3.2794-4.073-5.5598-4.6492-4.7553-4.8908-4.5705 9.2087-7.0443 8.0158-1.4064 8.6653-1.3231 11.667 1.4966 1.7481 1.6422 3.1783 4.499 3.1783 6.3483v3.3625l4.3333-4.0601c10.923-10.234 17.485-11.205 25.586-3.7853 4.8562 4.4481 5.066 4.9761 4.274 10.755-0.45815 3.3425-2.639 12.277-4.8464 19.855-4.6012 15.795-4.7426 16.909-2.0134 15.861 1.2665-0.48598 2 0.0184 2 1.3752 0 1.1785 0.9 2.1426 2 2.1426 3.9717 0 1.866 5.0938-4.6095 11.151-6.4334 6.0177-11.751 7.7977-15.421 5.162zm89.287 0c-3.0302-2.1043-5.9227-7.7627-5.9227-11.586 0-2.2072 5.2032-22.07 11.563-44.139l11.563-40.126-4.4396-4.2427c-2.4418-2.3335-4.154-4.5284-3.8048-4.8775 0.34914-0.34913 5.23-1.3492 10.846-2.2223 9.3386-1.4518 10.442-1.3789 12.909 0.85338 1.4835 1.3425 2.6972 3.706 2.6972 5.2523 0 1.5462-5.1258 20.727-11.391 42.625-6.2648 21.898-11.079 40.125-10.699 40.505 0.38041 0.3804 1.5591-0.0283 2.6193-0.90818 1.5293-1.2692 2.5003-1.1095 4.6989 0.77299 3.7322 3.1956 3.5068 4.8496-1.4267 10.469-6.4265 7.3194-14.843 10.659-19.213 7.6245zm39.009-3.4173c-1.9791-2.5948-3.5984-5.8227-3.5984-7.1732s2.7-11.862 6-23.358c6.3332-22.063 7.0348-26.339 4.3333-26.406-2.0483-0.0515-6.7249-6.2363-5.3353-7.0559 0.55108-0.32502 5.4223-1.327 10.825-2.2267 9.7243-1.6194 9.8567-1.6019 13.197 1.7384l3.3742 3.3742-6.1971 22.006c-3.4084 12.103-6.1971 22.672-6.1971 23.486 0 1.0589 0.74668 1.0806 2.6236 0.0761 2.0248-1.0836 3.242-0.87453 5.3333 0.91607 1.4904 1.2761 2.7098 2.9594 2.7098 3.7406 0 0.78127-2.9173 4.2939-6.4829 7.8059-4.8993 4.8256-7.7659 6.5575-11.735 7.0899-4.8039 0.64435-5.559 0.30195-8.8504-4.0133zm79.704 3.4173c-2.6391-1.8951-5.9692-8.254-5.9692-11.398 0-1.7484 2.4-11.386 5.3333-21.418 2.9333-10.031 5.3333-19.456 5.3333-20.943 0-2.6528-0.0781-2.6585-4.0899-0.29579-8.0022 4.7128-20.299 23.911-25.941 40.5-1.7928 5.2711-3.9427 10.407-4.7775 11.413-2.615 3.1509-11.858 1.9536-11.858-1.536 0-0.96043-0.75-1.9974-1.6667-2.3043-1.2157-0.40707 0.2326-7.2016 5.3526-25.111 3.8606-13.504 7.0106-25.189 7-25.967-0.0107-0.77746-1.8434-3.2794-4.073-5.5598-4.6492-4.7553-4.8908-4.5705 9.2087-7.0443 8.0158-1.4064 8.6653-1.3231 11.667 1.4966 1.7481 1.6422 3.1783 4.499 3.1783 6.3483v3.3625l4.3333-4.0601c10.923-10.234 17.485-11.205 25.586-3.7853 4.8562 4.4481 5.066 4.9761 4.274 10.755-0.45815 3.3425-2.639 12.277-4.8464 19.855-4.6012 15.795-4.7425 16.909-2.0134 15.861 1.2664-0.48598 2 0.0184 2 1.3752 0 1.1785 0.9 2.1426 2 2.1426 3.9716 0 1.866 5.0938-4.6096 11.151-6.4334 6.0177-11.751 7.7977-15.421 5.162zm47.364 0.0788c-3.3729-1.233-8.1886-6.1006-12.188-12.319-10.729-16.684 2.0882-45.154 25.065-55.673 10.072-4.6109 21.613-4.0371 28.781 1.4309 5.6952 4.3439 6.9282 7.2921 5.7272 13.694-1.8133 9.6657-15.045 18.72-33.176 22.702-12.393 2.7216-13.817 4.0451-11.756 10.926 2.7723 9.253 12.498 9.8806 25.723 1.6599 6.2218-3.8677 6.6772-3.9575 9.1847-1.8106 3.7081 3.175 3.3316 4.7813-2.2746 9.7035-7.6348 6.7034-17.227 10.618-25.754 10.511-4.0333-0.0507-8.2333-0.42123-9.3333-0.82335zm19.975-44.125c6.3553-3.9176 12.025-11.052 12.025-15.131 0-3.7423-7.4626-3.2046-13.489 0.97198-5.1435 3.5644-10.719 10.913-12.473 16.44-0.95851 3.02-0.78395 3.135 3.4766 2.2907 2.4672-0.48892 7.1744-2.5463 10.461-4.572zm-241.98 12.211c-1.7644-2.6929-2.0522-4.4584-1.1471-7.0365 1.206-3.4349 1.242-3.4422 18.512-3.7909 16.631-0.33572 17.458-0.22264 21.303 2.9127 3.8641 3.1511 3.9304 3.3895 1.951 7.0159l-2.049 3.754-18.107 0.3698-18.107 0.36982zm114.74-54.271c-4.0179-5.2678-4.3148-8.9674-0.96286-12.001 3.3198-3.0044 5.4256-2.7845 11.252 1.1748 3.8198 2.5956 4.9762 4.2776 4.9762 7.2381 0 8.8103-9.5671 11.059-15.265 3.588zm-228.73-43.293c-11.99-3.1339-19.569-7.9448-29.621-18.802-14.544-15.709-21-32.959-21-56.113 0-38.831 20.135-65.779 52.846-70.726 12.522-1.8938 27.66 0.1544 38.441 5.2012 17.439 8.1635 33.151 25.738 32.355 36.192l-0.35531 4.6667-11.333 2.9774c-6.2333 1.6376-12.346 2.6591-13.583 2.2701-2.1532-0.67701-10.417-11.875-10.417-14.116 0-0.5927-2.55-2.4204-5.6667-4.0616-7.6034-4.0039-20.729-4.0503-28.333-0.10015-6.9227 3.5961-10.498 7.5334-14.268 15.713-2.7662 6.0014-3.0651 8.6008-3.0651 26.65 0 19.569 0.0863 20.171 4 27.94 2.2 4.3672 5.5085 9.0288 7.3522 10.359 4.4353 3.1998 15.237 4.3688 22.433 2.4278 7.7398-2.0876 16.594-11.015 19.757-19.921 1.534-4.319 3.1921-6.8061 4.5375-6.8061 3.1272 0 19.914 5.9513 24.924 8.8362 2.3852 1.3734 4.6439 3.4471 5.0193 4.6082 1.7344 5.3646-7.7374 22.976-16.723 31.094-13.748 12.42-36.663 17.103-57.3 11.709zm138.67 0c-11.99-3.1339-19.569-7.9448-29.621-18.802-14.544-15.709-21-32.959-21-56.113 0-38.831 20.135-65.779 52.846-70.726 12.522-1.8938 27.66 0.1544 38.441 5.2012 17.439 8.1635 33.151 25.738 32.355 36.192l-0.3553 4.6667-11.333 2.9774c-6.2333 1.6376-12.346 2.6591-13.583 2.2701-2.1532-0.67701-10.417-11.875-10.417-14.116 0-0.5927-2.55-2.4204-5.6667-4.0616-7.6034-4.0039-20.729-4.0503-28.333-0.10015-6.9227 3.5961-10.498 7.5334-14.268 15.713-2.7662 6.0014-3.0651 8.6008-3.0651 26.65 0 19.569 0.0863 20.171 4 27.94 2.2 4.3672 5.5085 9.0288 7.3522 10.359 4.4353 3.1998 15.237 4.3688 22.433 2.4278 7.7399-2.0876 16.594-11.015 19.757-19.921 1.534-4.319 3.1921-6.8061 4.5375-6.8061 3.1272 0 19.914 5.9513 24.924 8.8362 2.3852 1.3734 4.6439 3.4471 5.0193 4.6082 1.7344 5.3646-7.7374 22.976-16.723 31.094-13.748 12.42-36.663 17.103-57.3 11.709zm98.386-2.2939c-0.94559-1.1255-2.4748-2.8881-3.3982-3.917-1.3129-1.4629-1.6036-16.641-1.3333-69.62l0.3456-67.75h36c42.047 0 44.409 0.48312 58.275 11.921 10.084 8.3174 14.237 15.639 15.645 27.579 2.082 17.658-2.3803 30.73-13.973 40.935-9.2038 8.1015-15.381 9.7802-39.507 10.737-11.491 0.45565-21.391 1.3269-22 1.936s-1.2979 11.397-1.5316 23.974c-0.24921 13.411-1.0059 23.566-1.8299 24.559-2.1658 2.6097-24.451 2.3147-26.693-0.35334zm60.263-83.016c8.5694-4.1858 13.239-15.673 9.3352-22.967-1.9877-3.7141-9.5649-5.2882-25.495-5.2966-16.543-0.0087-15.774-0.80734-15.804 16.414-0.0275 15.728 0.3779 16.131 15.125 15.03 7.0042-0.52263 14.168-1.8756 16.839-3.1805zm111.51 80.485c-2.9338-3.8464-3.4916-5.9537-3.4916-13.191 0-6.6239-0.48705-8.7999-2.109-9.4223-1.16-0.44513-12.575-0.80932-25.366-0.80932h-23.257l-1.2673-3.3333c-0.69702-1.8333-1.8822-3.3333-2.6337-3.3333-0.83111 0-1.3544-4.5701-1.3359-11.667l0.0304-11.667 29.391-43 29.391-43h9.9584c9.0989 0 12.593 0.98559 17.865 5.0389 0.36667 0.28194 0.96667 18.614 1.3333 40.737l0.66668 40.224 4 0.41629c2.2 0.22896 4.6138 1.129 5.364 2s2.5502 2.2466 4 3.0567c2.1805 1.2185 2.7041 3.1406 3.0302 11.123 0.45694 11.186-0.75306 13.404-7.3118 13.404-8.7333 0-9.7491 1.4358-9.7491 13.78 0 6.7932-0.61368 11.633-1.6 12.62-0.98369 0.9837-5.8019 1.6-12.508 1.6-10.86 0-10.924-0.0205-14.4-4.5777zm-3.7783-67.089c0.20915-7.5224-0.16123-13.667-0.82383-13.667-1.5042 0-17.556 24.193-17.556 26.46 0 1.2012 2.4931 1.5522 9 1.2672l9-0.39426z" fill="#9ea3a4"/>
  <path d="m107 259.21c-44.183-43.689-80.333-79.984-80.333-80.656 0-0.72519 31.897-1.2209 78.558-1.2209 43.207 0 79.507-0.36419 80.667-0.80932 1.8904-0.72542 2.1091-9.0115 2.1091-79.921 0-53.562 0.44988-79.39 1.393-79.973 1.3049-0.8065 150.85 146.5 159.04 156.65 2.948 3.6566 3.5992 5.5537 2.9851 8.6962-0.602 3.0807-18.618 21.845-77.15 80.353-75.304 75.272-76.438 76.333-81.652 76.322-5.1979-0.0107-6.6362-1.3455-85.62-79.446zm300.25 49.527c-9.1616-4.607-13.102-11.542-12.996-22.868 0.26264-27.918 33.151-52.18 54.411-40.14 16.11 9.1239 16.073 36.788-0.0715 53.411-6.0009 6.1789-12.772 9.5805-21.258 10.68-3.6667 0.47488-8.1667 1.1895-10 1.5881-2.113 0.45942-5.8053-0.51829-10.085-2.6706zm22.089-8.232c9.677-8.7426 18.861-32.716 16.603-43.338-1.142-5.3703-6.2777-9.4341-11.923-9.4341-2.6736 0-4.9839 0.21-5.1342 0.46666-0.15022 0.25667-3.0897 4.6667-6.5323 9.8-9.1701 13.674-12.041 21.07-12.737 32.812-0.56085 9.4682-0.39245 10.291 2.5228 12.333 5.2799 3.6982 11.188 2.7913 17.2-2.6401zm80.843 8.7313c-4.7264-3.7178-4.5377-6.6637 1.8202-28.406 2.9333-10.031 5.3333-19.981 5.3333-22.111 0-5.1969-4.326-6.6488-9.1602-3.0744-5.2891 3.9108-13.492 15.287-13.5 18.722-4e-3 1.6683-2.0228 7.0683-4.4869 12-2.4641 4.9317-5.5265 12.16-6.8054 16.062-1.2789 3.9023-3.1381 7.407-4.1315 7.7882-2.6279 1.0084-11.25-2.1325-11.25-4.0983 0-0.92114 3-12.015 6.6667-24.653 8.067-27.805 8.2257-29.986 2.3333-32.07-3.3378-1.1802-3.8738-1.7856-2.3333-2.635 2.8607-1.5773 19.87-4.3313 21.299-3.4485 1.2682 0.78382 1.449 2.2157 1.3316 10.549l-0.0732 5.1944 8.1215-7.519c8.4351-7.8094 11.727-9.3792 18.117-8.6405 4.2693 0.49345 9.8708 7.5589 9.8708 12.451 0 1.6236-2.42 11.515-5.3778 21.981-2.9578 10.466-5.0614 19.345-4.6748 19.731 0.38662 0.3866 1.8039-0.2934 3.1494-1.5111 5.2456-4.7472 5.9458-0.45008 0.90319 5.5428-1.8333 2.1788-3.3333 4.9037-3.3333 6.0554 0 2.3892-3.9268 4.8544-7.7325 4.8544-1.416 0-4.1554-1.2436-6.0876-2.7634zm90.487 1.1702c-3.6994-2.0978-4.6226-3.7745-4.6462-8.4384-0.0107-2.2174 5.0796-21.668 11.313-43.223 6.2333-21.556 11.333-40.622 11.333-42.371 0-2.3337-1.0638-3.55-4-4.5736-2.2-0.76694-4-1.8741-4-2.4604 0-1.0629 14.42-4.0064 19.627-4.0064 2.0755 0 2.9541 1.1283 3.6129 4.6399 0.67526 3.5995-1.6833 13.524-10.518 44.261-6.2638 21.791-11.389 40.744-11.389 42.118 0 2.3804 0.18058 2.3682 3.8725-0.26063 6.5517-4.6652 7.527-2.6218 2.1275 4.4574-1.8333 2.4036-3.3333 4.9706-3.3333 5.7044 0 2.3761-4.7896 5.7486-8.105 5.7069-1.7756-0.0223-4.4283-0.72103-5.895-1.5527zm43.333 0.64735c-3.677-1.352-6.6667-4.7724-6.6667-7.6273 0-1.5546 2.7319-12.344 6.0709-23.976 6.6593-23.199 7.075-28.923 2.1838-30.065-1.6933-0.3955-3.1671-1.3191-3.2752-2.0524-0.21896-1.4857 18.38-5.1979 21.002-4.1918 3.7739 1.4482 2.9892 8.5005-3.4866 31.335-3.6207 12.767-6.2948 23.501-5.9423 23.854 0.35245 0.35244 2.2533-0.62758 4.2242-2.1779 6.8592-5.3955 8.0428-2.6963 1.8904 4.311-2.2 2.5056-4 5.5054-4 6.6661 0 3.7255-6.6379 5.8966-12 3.925zm74.18-1.8175c-4.7264-3.7178-4.5377-6.6637 1.8202-28.406 2.9333-10.031 5.3333-19.981 5.3333-22.111 0-5.1969-4.326-6.6488-9.1602-3.0744-5.2891 3.9108-13.492 15.287-13.5 18.722-4e-3 1.6683-2.0228 7.0683-4.4869 12-2.4641 4.9317-5.5265 12.16-6.8054 16.062-1.2789 3.9023-3.1381 7.407-4.1315 7.7882-2.6279 1.0084-11.25-2.1325-11.25-4.0983 0-0.92114 3-12.015 6.6667-24.653 8.067-27.805 8.2257-29.986 2.3333-32.07-3.3378-1.1802-3.8738-1.7856-2.3333-2.635 2.8606-1.5773 19.87-4.3313 21.299-3.4485 1.2682 0.78382 1.449 2.2157 1.3316 10.549l-0.0732 5.1944 8.1215-7.519c8.4351-7.8094 11.727-9.3792 18.117-8.6405 4.2693 0.49345 9.8708 7.5589 9.8708 12.451 0 1.6236-2.42 11.515-5.3778 21.981-2.9578 10.466-5.0615 19.345-4.6748 19.731 0.38661 0.3866 1.8038-0.2934 3.1494-1.5111 5.2456-4.7472 5.9459-0.45008 0.90319 5.5428-1.8333 2.1788-3.3333 4.9037-3.3333 6.0554 0 2.3892-3.9269 4.8544-7.7325 4.8544-1.416 0-4.1554-1.2436-6.0876-2.7634zm46.282 0.18998c-3.8124-1.7311-6.6175-4.3557-9-8.4212-10.026-17.108 2.7517-44.897 25.416-55.273 6.107-2.7959 8.8153-3.2685 16.08-2.8059 7.508 0.47806 9.1778 1.07 11.88 4.2116 6.4817 7.5354 5.7437 14.82-2.2742 22.448-5.2121 4.9581-15.387 9.0733-22.471 9.0887-12.178 0.0264-19.755 7.3931-15.918 15.477 4.3383 9.1407 15.279 9.9031 28.064 1.9557 3.6336-2.2588 6.8667-4.1069 7.1847-4.1069 3.778 0-11.867 16.555-17.764 18.797-5.1827 1.9704-15.276 1.318-21.197-1.3702zm23.314-39.693c6.4406-3.9819 12.224-11.134 12.224-15.117 0-1.277-1.0955-3.6746-2.4344-5.3281-2.013-2.486-3.2458-2.8541-7.1223-2.1269-3.7044 0.69496-5.6412 2.2921-9.2323 7.613-7.2559 10.751-10.499 16.422-10.522 18.4-0.0353 2.9644 9.9927 0.94468 17.087-3.4415zm-238.44 12.439c-5.106-1.9061-6.3044-4.5336-4.0169-8.8077 1.4054-2.6261 2.4257-2.7549 19.036-2.4032l17.551 0.37156 1.2574 4.3907c0.89463 3.1241 0.79399 4.8549-0.34888 6-2.3169 2.3214-27.556 2.6596-33.479 0.44867zm113.33-53.797c-5.3378-2.1583-6.9237-9.1902-2.895-12.836 5.3587-4.8496 12.442-0.46845 12.72 7.8671 0.1645 4.9409-0.0672 5.2753-3.8249 5.5186-2.2 0.14248-4.9-0.1048-6-0.54964zm-229.03-46.305c-32.445-7.857-52.257-35.434-52.257-72.737 0-38.831 20.135-65.779 52.846-70.726 19.657-2.973 42.082 3.5855 54.539 15.951 6.016 5.9717 13.902 20.103 13.902 24.912 0 3.2105-1.8183 4.0306-15.333 6.9157-6.8104 1.4538-14.318-2.0485-16.696-7.7886-2.5525-6.1623-9.6914-11.624-16.534-12.651-14.159-2.1233-27.89 5.258-34.756 18.684-3.955 7.7334-4.0139 8.1527-4.0139 28.609 0 19.509 0.20106 21.156 3.3333 27.314 6.182 12.152 19.493 17.85 33.118 14.175 7.7398-2.0876 16.594-11.015 19.757-19.921 2.865-8.0664 3.5283-8.181 17.696-3.0558 8.1328 2.942 10.349 4.385 12.389 8.0652l2.4844 4.4821-3.9694 8.4823c-11.422 24.409-38.117 36.166-66.506 29.291zm138.67 0c-32.445-7.857-52.257-35.434-52.257-72.737 0-38.831 20.135-65.779 52.846-70.726 19.657-2.973 42.082 3.5855 54.539 15.951 6.016 5.9717 13.902 20.103 13.902 24.912 0 3.2105-1.8183 4.0306-15.333 6.9157-6.8104 1.4538-14.318-2.0485-16.696-7.7886-2.5525-6.1623-9.6914-11.624-16.534-12.651-14.159-2.1233-27.89 5.258-34.756 18.684-3.955 7.7334-4.0138 8.1527-4.0138 28.609 0 19.509 0.20105 21.156 3.3333 27.314 6.182 12.152 19.493 17.85 33.118 14.175 7.7399-2.0876 16.594-11.015 19.757-19.921 2.865-8.0664 3.5283-8.181 17.696-3.0558 8.1328 2.942 10.349 4.385 12.389 8.0652l2.4844 4.4821-3.9694 8.4823c-11.422 24.409-38.117 36.166-66.506 29.291zm96.018-3.0435-4.3453-2.189 0.3453-68.086 0.34531-68.086h36c31.259 0 36.908 0.31674 42.894 2.4053 10.014 3.4938 18.15 11.289 23.876 22.875 4.4119 8.9268 4.8298 10.759 4.8298 21.169 0 9.2417-0.61328 12.736-3.244 18.482-4.1515 9.0682-10.438 15.311-19.678 19.541-6.5701 3.0079-9.6006 3.4383-28.945 4.1107-15.064 0.5236-22.131 1.2748-23.336 2.4807-1.2314 1.2315-1.9215 8.5278-2.3962 25.333l-0.66667 23.604-10.667 0.27476c-7.6833 0.19792-11.882-0.33747-15.012-1.9142zm60.994-80.09c6.2261-3.0412 10.684-9.9684 10.684-16.601 0-4.215-0.9072-6.1767-4.5333-9.8028l-4.5333-4.5333h-33.666l-1.3003 3.4201c-1.509 3.9691-1.7277 25.879-0.27992 28.047 1.8142 2.7164 4.9284 3.1662 16.98 2.4525 7.2558-0.42974 13.838-1.6085 16.649-2.9816zm112.68 79.892c-3.7499-2.2175-4.0417-2.9843-4.6667-12.264-0.36666-5.4444-1.1521-10.649-1.7454-11.566-0.79269-1.2248-7.0389-1.6667-23.559-1.6667-18.959 0-23.122-0.36548-26.58-2.3333-4.076-2.3199-4.0995-2.3987-4.0776-13.667l0.022-11.333 29.427-43.052 29.427-43.052 10.772 0.38525c15.953 0.57053 15.428-1.0006 15.549 46.563l0.0974 38.178 3 0.80397c1.65 0.44218 4.2907 0.81216 5.8683 0.82217 4.9059 0.0311 8.6555 8.2023 8.1908 17.849l-0.39239 8.1454-6.4101 0.91213c-9.4345 1.3425-10.1 2.3254-10.54 15.566l-0.38346 11.545-10 0.26424c-7.5415 0.19927-10.983-0.31729-14-2.1012zm-4.9546-65.591c0.20831-7.0186-0.15088-14.193-0.7982-15.943-1.0825-2.9262-1.9954-1.9567-11.374 12.079-11.61 17.375-11.615 17.348 3.1269 16.893l8.6667-0.2678z" fill="#68aec6"/>
  <path d="m188 258.83c0-65.744 0.32054-80.103 1.816-81.344 1.3161-1.0922 23.798-1.4125 81.667-1.1632l79.851 0.34389-0.22312 4.5772c-0.20357 4.1762-6.9226 11.271-76.713 81-73.633 73.568-76.675 76.423-81.444 76.423h-4.9534zm221.43 50.885c-2.5145-1.3097-6.4145-4.6869-8.6667-7.505-3.8174-4.7767-4.0948-5.8605-4.0948-16 0-13.004 3.2277-20.841 12.335-29.948 6.709-6.709 14.1-10.283 23.952-11.582 9.3099-1.2275 14.998 0.85718 21.456 7.8632 8.2448 8.9445 8.9337 20.357 2.1082 34.92-5.975 12.748-16.348 20.695-29.185 22.357-3.6667 0.47488-8.1667 1.1813-10 1.5697-1.9025 0.40314-5.2958-0.31582-7.9052-1.6749zm18.122-5.542c9.4246-6.8272 17.824-23.126 19.872-38.558 1.1534-8.6948-0.94548-14.151-6.2958-16.368-3.5184-1.4574-11.688-2.1217-12.292-0.9994-0.12374 0.23024-3.0417 4.6186-6.4842 9.7519-9.1904 13.704-12.041 21.063-12.742 32.895-0.56921 9.611-0.39817 10.436 2.8322 13.667 4.4513 4.4513 8.5736 4.3451 15.109-0.38949zm83.349 4.7415c-1.5945-1.6973-2.8991-4.3074-2.8991-5.8002 0-1.4929 2.6946-12.254 5.988-23.914 3.2934-11.66 5.9934-21.553 6-21.986 0.0208-1.3632-6.6334-3.8807-10.257-3.8807-3.4492 0-3.4568-0.0225-0.94041-2.8032 3.4251-3.7847 8.9942-6.5302 13.246-6.5302 4.4656 0 11.297 6.68 11.297 11.047 0 1.7885-2.4093 11.777-5.354 22.196s-4.9306 19.63-4.4132 20.467c1.6474 2.6656 0.43347 10.895-1.8622 12.623-3.3849 2.5486-7.5971 1.9952-10.805-1.4193zm89.333 0c-1.5945-1.6973-2.8991-4.7168-2.8991-6.7102 0-1.9934 5.1504-21.407 11.445-43.141 6.2949-21.734 11.143-40.765 10.774-42.29-0.36904-1.5249-1.0664-4.0346-1.5497-5.5771-0.78667-2.5108-0.21608-2.8953 5.4485-3.6717 6.679-0.91545 11.215 1.3153 11.215 5.5154 0 1.0776-5.1 19.702-11.333 41.387-11.158 38.819-12.64 45.573-10 45.573 2.2965 0 1.4527 7.4787-1.105 9.7933-3.4429 3.1158-8.5977 2.738-11.996-0.87928zm41.704-0.44209c-1.7983-1.9404-3.2697-4.3308-3.2697-5.3119s3.0072-12.388 6.6828-25.348c6.3504-22.392 6.5755-23.728 4.526-26.856-2.3983-3.6603-1.0144-5.5462 4.1245-5.6206 1.4667-0.0212 3.9657-0.38709 5.5534-0.81299 2.1062-0.56498 3.4625 0.10427 5.0161 2.4754 2.0136 3.0731 1.763 4.5416-4.6076 27.005-4.6667 16.455-6.3106 24.182-5.3495 25.143 0.76314 0.76313 1.3875 3.3464 1.3875 5.7406 0 7.5251-8.4225 9.6725-14.064 3.5856zm76.963 0.44209c-1.5945-1.6973-2.8991-4.3074-2.8991-5.8002 0-1.4929 2.6946-12.254 5.988-23.914 3.2934-11.66 5.9934-21.553 6-21.986 0.0208-1.3632-6.6334-3.8807-10.257-3.8807-3.4492 0-3.4568-0.0225-0.94041-2.8032 3.4251-3.7847 8.9942-6.5302 13.246-6.5302 4.4656 0 11.297 6.68 11.297 11.047 0 1.7885-2.4093 11.777-5.354 22.196s-4.9306 19.63-4.4132 20.467c1.6474 2.6656 0.43347 10.895-1.8622 12.623-3.3849 2.5486-7.5971 1.9952-10.805-1.4193zm48.307 1.7872c-4.3799-1.7708-12.412-11.999-13.35-17.002-1.3248-7.0621 0.14904-15.653 4.0553-23.637 5.9427-12.146 19.569-24.224 26.112-23.144 2.2068 0.36432 1.8739 1.298-2.7623 7.7476-10.332 14.373-12.974 22.667-7.22 22.667 4.5331 0 16.598-7.0044 21.816-12.666 6.946-7.5356 7.4244-12.855 1.481-16.469-2.1974-1.3363-3.5974-2.8275-3.1111-3.3137 1.9141-1.9142 8.066-0.71735 12.781 2.4864 8.4813 5.7632 8.3186 13.878-0.44518 22.215-5.2121 4.9581-15.387 9.0733-22.471 9.0887-12.735 0.0276-19.098 6.7221-15.836 16.659 1.4647 4.4614 2.6443 5.6424 7.2152 7.2236 4.8122 1.6647 6.2405 1.6348 11.968-0.25086 3.5771-1.1776 6.7676-1.8774 7.09-1.5549 1.4484 1.4484-3.6067 7.8331-7.4861 9.455-4.7439 1.9834-15.492 2.2516-19.837 0.49509zm-295.11-2.3523-3.0182-2.444 6.7926-23.344c6.7249-23.111 8.0417-30.965 5.4592-32.561-2.8069-1.7347-1.0877-3.165 5.5033-4.5786 6.0281-1.2928 7.0481-1.1876 8.6243 0.88952 2.2026 2.9026 2.0878 2.326 2.0629 10.356-0.0271 8.7122-3.0264 21.177-6.9005 28.677-1.7018 3.2946-4.6576 10.19-6.5683 15.323-3.8321 10.295-6.562 12.049-11.955 7.6823zm208 0-3.0182-2.444 6.7925-23.344c6.7249-23.111 8.0417-30.965 5.4592-32.561-2.8069-1.7347-1.0877-3.165 5.5033-4.5786 6.0281-1.2928 7.0481-1.1876 8.6243 0.88952 2.2026 2.9026 2.0878 2.326 2.0629 10.356-0.0271 8.7122-3.0264 21.177-6.9005 28.677-1.7018 3.2946-4.6576 10.19-6.5684 15.323-3.8321 10.295-6.5619 12.049-11.955 7.6823zm-129.3-26.035c-4.7103-2.4225-6.3605-5.6271-4.2236-8.2019 1.4167-1.707 4.7482-2.1118 17.383-2.1118 13.449 0 15.938 0.34028 17.837 2.4383 3.1901 3.525 2.7137 6.7682-1.2135 8.2613-4.8831 1.8566-25.953 1.5835-29.782-0.38598zm110.69-56.421c-3.1754-4.0369-3.5846-7.2628-1.2208-9.6265 2.486-2.486 5.4258-1.9104 9.4901 1.8582 5.2438 4.8623 4.6044 10.377-1.2693 10.948-3.2282 0.31386-4.821-0.4097-7-3.1798zm-227.69-43.786c-12.174-2.953-20.976-8.246-30.498-18.339-13.941-14.779-20.557-32.163-20.609-54.157-0.11066-46.485 29.264-74.9 71.896-69.549 12.465 1.5646 23.376 6.7129 33.628 15.867 7.659 6.8387 14.452 17.939 14.452 23.615 0 3.1348-1.4731 3.7855-15.667 6.9211-6.7309 1.4869-10.437-0.72869-15.101-9.0274-5.5206-9.8226-18.93-14.136-32.029-10.303-9.5022 2.7806-16.191 8.539-20.784 17.893-3.6231 7.3781-3.7514 8.3465-3.7514 28.306 0 18.717 0.28778 21.291 3.0509 27.285 3.911 8.4835 6.378 11.19 12.949 14.208 16.416 7.5382 35.835-2.1468 42.048-20.97 0.82085-2.4872 1.8092-4.5222 2.1962-4.5222s5.7214 1.5305 11.854 3.401c8.7524 2.6696 11.757 4.253 13.971 7.3629l2.8211 3.9619-4.0252 8.6016c-11.451 24.471-38.133 36.303-66.401 29.446zm138.67 0c-12.174-2.953-20.977-8.246-30.498-18.339-13.941-14.779-20.557-32.163-20.609-54.157-0.11067-46.485 29.264-74.9 71.896-69.549 12.465 1.5646 23.376 6.7129 33.628 15.867 7.659 6.8387 14.452 17.939 14.452 23.615 0 3.1348-1.4731 3.7855-15.667 6.9211-6.7309 1.4869-10.437-0.72869-15.101-9.0274-5.5206-9.8226-18.93-14.136-32.029-10.303-9.5022 2.7806-16.191 8.539-20.784 17.893-3.6231 7.3781-3.7514 8.3465-3.7514 28.306 0 18.717 0.28777 21.291 3.0509 27.285 3.911 8.4835 6.3779 11.19 12.949 14.208 16.416 7.5382 35.835-2.1468 42.048-20.97 0.82086-2.4872 1.8092-4.5222 2.1962-4.5222s5.7214 1.5305 11.854 3.401c8.7524 2.6696 11.757 4.253 13.971 7.3629l2.8211 3.9619-4.0252 8.6016c-11.451 24.471-38.133 36.303-66.401 29.446zm96.451-3.9933-3.5819-3.3196v-133.77l36.333 0.55253c33.84 0.51461 36.777 0.75248 42.791 3.4661 10.399 4.6919 18.945 12.746 23.637 22.278 3.6833 7.482 4.1715 9.8024 4.1715 19.83 0 9.1998-0.61608 12.702-3.244 18.442-4.1515 9.0682-10.438 15.311-19.678 19.541-6.5701 3.0079-9.6006 3.4383-28.945 4.1107-15.064 0.5236-22.131 1.2748-23.336 2.4807-1.2314 1.2315-1.9215 8.5278-2.3962 25.333l-0.66667 23.604-10.751 0.38324c-9.8822 0.35225-11.041 0.1148-14.333-2.9363zm61.082-77.535c8.355-3.9647 12.587-12.825 10.766-22.536-0.70367-3.7509-1.9549-5.2637-6.1041-7.3805-4.3626-2.2257-7.8586-2.6625-21.305-2.6625-16.041 0-16.09 0.0097-17.386 3.4201-1.7201 4.5243-1.6681 24.772 0.0755 29.358l1.3758 3.6186 13.928-0.78876c8.8056-0.49865 15.665-1.6129 18.65-3.0295zm112.3 77.066c-3.21-3.3506-3.6314-4.8207-3.6314-12.67 0-7.4149-0.42554-9.1079-2.579-10.26-1.4825-0.79339-12.047-1.3802-24.847-1.3802-22.16 0-22.283-0.0165-25.421-3.402-2.7292-2.9448-3.1529-4.7387-3.1529-13.349v-9.9466l27.52-40.318c15.136-22.175 28.429-41.368 29.54-42.651 1.5593-1.8012 4.1161-2.3333 11.211-2.3333 8.3549 0 9.4841 0.33342 12.418 3.6667l3.2273 3.6667 0.0421 38.067c0.0449 40.601 0.1466 41.233 6.6421 41.304 1.943 0.0212 5.0003 1.6691 7.1343 3.8454 3.4166 3.4844 3.7002 4.5295 3.3333 12.285l-0.40097 8.4762-6.4101 0.91213c-9.4345 1.3425-10.1 2.3254-10.54 15.566l-0.38346 11.545-10.035 0.38405c-9.5182 0.36427-10.222 0.18874-13.667-3.4063zm-4.298-66.2c0-11.127-0.47704-16.048-1.5918-16.419-2.0974-0.69912-21.743 28.753-20.807 31.193 0.5589 1.4565 3.1872 1.7976 11.561 1.5004l10.838-0.38463z" fill="#52899d"/>
  <path d="m192 336.9c0-2.0665 151.21-153.01 155.67-155.39 2.6996-1.4424 3-1.3007 3 1.4149 0 2.2061-19.097 22.159-71 74.183-39.05 39.141-73.904 73.504-77.453 76.362-6.6297 5.3398-10.214 6.5421-10.214 3.4266zm322.67-26.262c0-0.75148-1.5-1.9366-3.3333-2.6337-2.2037-0.83784-3.3354-2.2952-3.3395-4.3003-4e-3 -1.6681 2.7815-13.029 6.1887-25.246 3.4072-12.217 5.8236-23.181 5.3698-24.364-1.2194-3.1777-4.7439-4.0552-9.4156-2.3443l-4.1367 1.5151 4.323-3.9356c8.354-7.6053 15.485-7.0245 19.977 1.627 3.3891 6.5276 3.3559 6.7883-4.214 33.048-4.4491 15.434-4.9158 19.167-2.8196 22.559 0.75724 1.2252 0.31428 2.4497-1.318 3.6432-2.9001 2.1206-7.2822 2.3802-7.2822 0.4314zm89.333 0c0-0.75148-1.5-1.9366-3.3333-2.6337-2.5524-0.97042-3.3333-2.2224-3.3333-5.3439 0-2.2421 5.1-21.685 11.333-43.207 11.402-39.368 12.655-45.594 9.7556-48.493-2.224-2.2239-1.3038-2.695 6.2275-3.1882 4.7296-0.30968 6.6368 0.0575 6.6563 1.2812 0.0151 0.94343 0.88937 2.2481 1.943 2.8993 1.5946 0.98548-0.22259 8.5766-10.84 45.285-8.7425 30.226-12.216 44.101-11.04 44.101 1.0588 0 1.4484 1.0205 1.0179 2.6667-0.44358 1.6962-0.0343 2.6828 1.1248 2.711 2.8261 0.0688-4.0752 5.289-6.9922 5.289-1.3854 0-2.519-0.61486-2.519-1.3663zm38.687-2.5574-4.6464-3.852 2.1353-7.7788c1.1744-4.2783 4.4244-16.011 7.2223-26.073 4.8735-17.526 4.9888-18.402 2.7471-20.879-2.6593-2.9385-2.4123-3.0952 7.5215-4.771 4.423-0.74617 5-0.5288 5 1.8836 0 1.4999 0.6 2.7271 1.3333 2.7271 2.3754 0 1.3509 5.592-5.252 28.667-3.9934 13.956-6.0285 23.226-5.2953 24.123 0.65499 0.8008 0.76347 1.8834 0.24107 2.4058s-0.0672 1.5286 1.0116 2.236c1.6741 1.0978 1.5822 1.5754-0.62678 3.2608-3.7094 2.8301-6.1254 2.4167-11.392-1.9491zm79.98 2.5574c0-0.75148-1.5-1.9366-3.3333-2.6337-2.2037-0.83784-3.3354-2.2952-3.3395-4.3003-4e-3 -1.6681 2.7815-13.029 6.1887-25.246 3.4072-12.217 5.8236-23.181 5.3698-24.364-1.2194-3.1777-4.7439-4.0552-9.4156-2.3443l-4.1367 1.5151 4.323-3.9356c8.354-7.6053 15.486-7.0245 19.977 1.627 3.3891 6.5276 3.3559 6.7883-4.214 33.048-4.4491 15.434-4.9158 19.167-2.8196 22.559 0.75724 1.2252 0.31428 2.4497-1.318 3.6432-2.9001 2.1206-7.2822 2.3802-7.2822 0.4314zm43.775-2.1249c-8.1997-4.1173-12.106-9.7715-12.837-18.58-1.1082-13.364 8.0881-30.833 20.592-39.115 7.5857-5.0246 11.614-5.4985 5.9053-0.69471-4.6413 3.9054-5.5371 6.7432-1.4356 4.5482 3.5604-1.9055 3.3661-0.94249-1.0359 5.1343-5.8982 8.1422-9.1478 16.183-7.0614 17.472 0.9528 0.58886 1.2145 1.2933 0.5815 1.5654-0.63298 0.2721-2.2642 3.6533-3.625 7.5139-2.33 6.6102-2.3434 7.2187-0.22963 10.445 1.2345 1.8841 4.4417 4.3436 7.1272 5.4657 4.7938 2.003 9.599 1.5965 18.243-1.5432 1.4667-0.53272 0.71666 0.34636-1.6667 1.9535-4.463 3.0095-5.5951 5.2911-2.6667 5.3741 0.91667 0.026 0.16667 0.90472-1.6667 1.9528-4.7791 2.732-13.025 2.124-20.225-1.4913zm-290.9 0.22338c-0.43592-1.136-2.0114-2.0655-3.5011-2.0655-1.4897 0-2.7085-0.36606-2.7085-0.81346 0-0.44742 3.0406-11.263 6.7568-24.034 7.1078-24.427 7.9915-29.841 5.384-32.982-1.3369-1.6108-0.49389-2.159 5.1974-3.3795 8.5478-1.8332 7.9951-1.9091 7.9951 1.0987 0 1.4056 0.7201 2.7956 1.6002 3.089 1.6792 0.55973-0.0293 11.204-3.3324 20.762-1.1579 3.3504-1.145 4.6397 0.054 5.3807 1.1454 0.70788 0.6282 2.9678-1.8904 8.2605-1.9069 4.0073-5.0543 11.482-6.9943 16.61-3.461 9.1489-6.9029 12.396-8.5608 8.075zm208 0c-0.43592-1.136-2.0114-2.0655-3.5011-2.0655-1.4897 0-2.7085-0.36606-2.7085-0.81346 0-0.44742 3.0406-11.263 6.7568-24.034 7.1078-24.427 7.9915-29.841 5.384-32.982-1.3369-1.6108-0.4939-2.159 5.1974-3.3795 8.5478-1.8332 7.9951-1.9091 7.9951 1.0987 0 1.4056 0.72009 2.7956 1.6002 3.089 1.6792 0.55973-0.0293 11.204-3.3324 20.762-1.1579 3.3504-1.145 4.6397 0.054 5.3807 1.1454 0.70788 0.6282 2.9678-1.8904 8.2605-1.9069 4.0073-5.0543 11.482-6.9943 16.61-3.461 9.1489-6.9029 12.396-8.5608 8.075zm-276.86-2.432c-8.2581-4.367-10.948-9.9635-10.399-21.633 0.74398-15.801 10.702-30.753 24.564-36.885 6.8117-3.0132 8.9562-2.6048 3.8593 0.73481-4.0956 2.6836-4.4181 4.8397-0.57344 3.8343 2.4578-0.64273 2.232 0.0677-1.8404 5.7915-6.9538 9.7734-10.046 16.65-12.655 28.141-2.9053 12.798-2.5022 15.898 2.4591 18.915 2.1404 1.3017 3.4938 2.7645 3.0076 3.2508-1.3502 1.3502-2.2301 1.1257-8.4228-2.1491zm28.153-0.53132c1.9592-2.3889 2.2877-2.4091-6.9998 0.42936-2.0009 0.61151-1.0721-0.89282 3.171-5.1359 7.505-7.505 13.77-20.442 15.892-32.816 1.4331-8.3574 1.3586-10.073-0.61788-14.218-1.2362-2.5924-4.2055-5.9072-6.5983-7.3661-3.906-2.3815-4.0396-2.6531-1.3077-2.6575 4.8153-8e-3 11.59 3.351 14.679 7.2774 1.5599 1.9831 4.085 6.9434 5.6113 11.023 2.4046 6.4268 2.5835 8.3408 1.3397 14.332-2.4965 12.025-11.233 24.727-20.273 29.473-5.0149 2.6326-7.2096 2.4797-4.8961-0.34111zm114.17-25.557c-2.0154-1.2163-3.6654-2.8414-3.6667-3.6114-7e-3 -3.7231 3.6104-4.6 18.973-4.6 13.807 0 15.883 0.29109 16.636 2.3333 0.4735 1.2833 1.4421 2.7228 2.1525 3.1988 0.71034 0.47599 0.92293 1.826 0.47242 3-1.2057 3.142-29.261 2.8817-34.567-0.32068zm234.53-6.2412c9.3171-4.5863 17.802-13.89 17.802-19.521 0-2.5564-1.1663-5.5187-2.8991-7.3631l-2.8991-3.0859h3.386c4.3399 0 9.0706 3.7861 12.262 9.8132 2.1853 4.1276 2.291 5.2955 0.80461 8.884-1.9669 4.7485-7.8086 9.5859-15.392 12.746l-5.2616 2.1925 2.54-2.8179c2.9464-3.2687 1.5998-3.5533-4.7105-0.99535-2.4729 1.0024-6.2962 2.206-8.4962 2.6748-2.8326 0.60348-1.9965-0.13404 2.8651-2.5271zm-119.91-47.076c-6.2904-3.7764-6.0261-12.228 0.38228-12.228 3.5869 0 10.083 9.1714 8.3948 11.852-1.8369 2.9172-4.3632 3.0253-8.7771 0.3754zm-227.16-44.283c-7.9697-1.5768-26.62-12.764-34.848-20.902-15.943-15.771-22.579-44.21-16.824-72.099 2.8111-13.622 7.6137-23.43 15.626-31.914 12.013-12.719 25.51-18.135 45.017-18.065 14.305 0.05185 23.886 2.7788 34.378 9.7852 6.7212 4.4882 9.4668 7.572 15.67 17.6 8.6504 13.984 8.5161 15.466-1.6177 17.855-9.6394 2.2723-15.194 2.1973-15.194-0.20534 0-1.1-0.84298-2-1.8733-2s-3.4299-2.6561-5.3324-5.9025c-5.9281-10.116-9.1231-11.806-21.039-11.13-24.677 1.3997-36.141 16.33-36.06 46.959 0.0668 25.204 1.6148 31.885 8.6274 37.234 18.979 14.476 42.839 6.9134 50.392-15.972 0.82085-2.4872 1.8092-4.5222 2.1962-4.5222s5.7406 1.5363 11.897 3.414c7.4144 2.2615 11.193 4.0761 11.193 5.3752 0 1.0786 0.9 2.3065 2 2.7286 5.2841 2.0277-2.0975 19.212-12.287 28.604-12.663 11.672-33.164 16.867-51.92 13.156zm138.67 0c-7.9697-1.5768-26.62-12.764-34.848-20.902-15.943-15.771-22.579-44.21-16.824-72.099 2.8111-13.622 7.6137-23.43 15.626-31.914 12.013-12.719 25.51-18.135 45.017-18.065 14.305 0.05185 23.886 2.7788 34.378 9.7852 6.7211 4.4882 9.4668 7.572 15.67 17.6 8.6504 13.984 8.5161 15.466-1.6177 17.855-9.6394 2.2723-15.194 2.1973-15.194-0.20534 0-1.1-0.84299-2-1.8733-2s-3.4299-2.6561-5.3324-5.9025c-5.9281-10.116-9.1231-11.806-21.039-11.13-24.677 1.3997-36.141 16.33-36.06 46.959 0.0668 25.204 1.6148 31.885 8.6274 37.234 18.979 14.476 42.839 6.9134 50.392-15.972 0.82086-2.4872 1.8092-4.5222 2.1962-4.5222s5.7406 1.5363 11.897 3.414c7.4144 2.2615 11.193 4.0761 11.193 5.3752 0 1.0786 0.9 2.3065 2 2.7286 5.284 2.0277-2.0975 19.212-12.287 28.604-12.663 11.672-33.164 16.867-51.92 13.156zm95.941-3.8892c-0.39886-1.5253-1.8161-2.7224-3.2231-2.7224-2.4263 0-2.5112-2.282-2.5112-67.486v-67.486l36.333 0.55253c34.192 0.51996 36.726 0.72966 43 3.5575 8.5523 3.8549 12.891 7.9947 20.466 19.529 5.9331 9.0337 6.1461 9.7115 6.6356 21.116 0.62149 14.478-1.6762 21.429-10.04 30.37-9.4728 10.127-15.848 12.142-41.332 13.065-15.02 0.54392-22.131 1.3093-23.333 2.5115-1.2314 1.2312-1.9215 8.527-2.3962 25.333l-0.66667 23.604-11.11 0.38904c-10.234 0.35835-11.166 0.17424-11.822-2.3333zm58.93-78.144c7.3802-3.5021 10.67-9.1608 10.67-18.355 0-6.9606-0.41944-8.1491-4-11.333-3.8922-3.4614-4.461-3.5573-21.104-3.5573-15.391 0-17.294 0.25921-19 2.5882-2.5348 3.4599-2.7325 32.138-0.22948 33.291 3.4955 1.6107 28.909-0.3776 33.664-2.6338zm115.34 78.778c0-1.149-1.5-2.6594-3.3333-3.3564-3.1734-1.2065-3.3333-1.7809-3.3333-11.967v-10.7h-24.62c-23.255 0-24.699-0.1478-26.047-2.6667-0.78493-1.4667-2.306-2.6667-3.3802-2.6667-1.5527 0-1.9531-2.1898-1.9531-10.682v-10.682l27.52-40.318c15.136-22.175 28.429-41.368 29.54-42.651 1.5817-1.8271 4.1448-2.3333 11.813-2.3333 8.7023 0 9.7934 0.27976 9.7934 2.5112 0 1.3898 1.1908 2.8226 2.6667 3.2085 2.5921 0.67786 2.6667 1.8187 2.6667 40.822v40.125h5.3663c4.4147 0 5.5788 0.55888 6.5645 3.1515 0.659 1.7333 2.1442 3.5145 3.3003 3.9582 1.5222 0.58412 2.1021 2.6274 2.1021 7.4061 0 9.5292-0.7934 10.818-6.6616 10.818-8.6028 0-10.568 2.8634-10.982 16l-0.35676 11.333-10.333 0.38941c-8.6578 0.32628-10.333 0.0507-10.333-1.6997zm-6.9613-69.69c0.21956-10.427-0.14268-17.667-0.88392-17.667-1.2543 0-22.128 29.974-23.667 33.985-0.71363 1.8597 0.7166 2.0719 11.683 1.7336l12.496-0.38552z" fill="#1496b5"/>
  <path d="m192 336.9c0-2.0665 151.21-153.01 155.67-155.39 2.6996-1.4424 3-1.3007 3 1.4149 0 2.2061-19.097 22.159-71 74.183-39.05 39.141-73.904 73.504-77.453 76.362-6.6297 5.3398-10.214 6.5421-10.214 3.4266zm322.23-26.771c-1.0353-2.6978 6.644-5.7904 8.8418-3.5607 1.2373 1.2552 1.0152 2.0417-0.99568 3.5258-3.297 2.4334-6.9196 2.4495-7.8462 0.0348zm89.37 0.0959c-1.02-2.658 7.4197-6.2345 9.4878-4.0206 1.2007 1.2853 0.88244 2.135-1.3978 3.7322-3.625 2.539-7.1777 2.6657-8.09 0.28844zm42.007 0.1886c-1.2323-1.2323-0.68506-1.9718 2.428-3.2807 6.3207-2.6577 11.092 0.43651 5.3839 3.4914-3.3849 1.8116-5.8563 1.7449-7.8119-0.21068zm76.623-0.28447c-1.0352-2.6978 6.644-5.7904 8.8418-3.5607 1.2373 1.2552 1.0152 2.0417-0.99568 3.5258-3.297 2.4334-6.9196 2.4495-7.8462 0.0348zm47.846-0.16701c-2.4165-1.8277-2.239-1.9576 2.6755-1.9576 2.895 0 7.0693-0.51787 9.2763-1.1508 2.7787-0.79692 4.4868-0.64324 5.5545 0.49975 3.7199 3.9822-12.496 6.3985-17.506 2.6087zm-294.52-1.1828c-0.42691-1.1125-0.24916-2.3485 0.39501-2.7466 0.64416-0.39812 2.4908-4.7673 4.1036-9.7094 1.6128-4.942 4.7036-12.136 6.8684-15.986 2.1648-3.85 3.2919-7 2.5048-7-2.2117 0-1.6986-5.0902 1.5764-15.638 2.3718-7.6393 3.3872-9.3903 4.8956-8.4418 1.6111 1.013 1.6462 2.3896 0.2286 8.9718-0.921 4.2764-2.3598 9.758-3.1973 12.181-1.1579 3.3504-1.145 4.6397 0.054 5.3807 1.1454 0.70788 0.6282 2.9678-1.8904 8.2605-1.9069 4.0073-5.0543 11.482-6.9943 16.61-3.4486 9.1159-6.9023 12.397-8.5444 8.1177zm208 0c-0.42691-1.1125-0.24916-2.3485 0.39501-2.7466 0.64416-0.39812 2.4908-4.7673 4.1036-9.7094 1.6128-4.942 4.7036-12.136 6.8684-15.986 2.1648-3.85 3.292-7 2.5048-7-2.2117 0-1.6986-5.0902 1.5764-15.638 2.3718-7.6393 3.3872-9.3903 4.8956-8.4418 1.6111 1.013 1.6462 2.3896 0.2286 8.9718-0.921 4.2764-2.3598 9.758-3.1973 12.181-1.1579 3.3504-1.145 4.6397 0.054 5.3807 1.1454 0.70788 0.6282 2.9678-1.8904 8.2605-1.9069 4.0073-5.0543 11.482-6.9943 16.61-3.4485 9.1159-6.9023 12.397-8.5444 8.1177zm-249.33-2.4415c0.58205-0.91667 1.0677-1.9667 1.0792-2.3333 0.012-0.36667 2.9611-3.3667 6.5547-6.6667 7.942-7.2931 13.716-18.828 14.969-29.904l0.91067-8.0492 1.8256 5.2732c4.2582 12.3-6.292 34.344-19.841 41.456-4.4776 2.3506-6.9121 2.4495-5.4986 0.22344zm83.988-4.5556c-1.6624-1.6624-0.89444-5.966 4.3208-24.215 2.8653-10.026 5.6239-20.229 6.1303-22.674 0.88536-4.274 0.99298-4.3407 2.8129-1.7423 2.2142 3.1613 1.5867 6.6912-5.5667 31.312-2.5236 8.6857-4.2524 16.336-3.8419 17 0.8555 1.3842-2.5115 1.6628-3.8554 0.31891zm89.311-1.1015c-1.5847-1.5847-1.7161-3.0115-0.64446-7 4.6024-17.13 22.805-79.891 23.565-81.249 0.58288-1.0415 1.6082-1.2133 2.8098-0.47062 1.5632 0.96613-0.27332 8.6604-10.568 44.273-6.8528 23.707-12.463 43.854-12.467 44.77-9e-3 2.1274-0.2769 2.0953-2.6959-0.32375zm40.925-0.0723c-0.43535-1.1345 1.4372-9.9845 4.1611-19.667 2.724-9.6822 5.8416-20.754 6.928-24.604 1.2014-4.2573 2.7219-7 3.8807-7 2.9613 0 2.3596 3.8434-4.173 26.655-3.3431 11.674-6.1708 22.452-6.2837 23.952-0.24064 3.1946-3.3656 3.6541-4.5131 0.66354zm77.764 1.1738c-1.6624-1.6624-0.89444-5.966 4.3208-24.215 2.8653-10.026 5.6239-20.229 6.1303-22.674 0.88536-4.274 0.99297-4.3407 2.8129-1.7423 2.2142 3.1613 1.5867 6.6912-5.5667 31.312-2.5236 8.6857-4.2524 16.336-3.8419 17 0.85549 1.3842-2.5115 1.6628-3.8554 0.31891zm-320.9-5.8134c-3.5783-13.289 8.5085-42.872 17.832-43.644l3.4839-0.28833-4.4933 6.3173c-2.4713 3.4745-5.7708 8.8545-7.3322 11.955-3.1687 6.2932-7.1489 21.732-7.0539 27.362 0.0868 5.1478-0.74872 4.5639-2.436-1.7023zm358.25-4.4757c-1.5535-4.0483-1.0054-9.7503 1.1057-11.502 1.4917-1.238 1.6376-2.1299 0.56084-3.4274-1.0835-1.3055-0.53786-3.7989 2.134-9.7526 3.1042-6.917 8.622-14.362 8.622-11.633 0 0.50612 1.2 0.278 2.6667-0.50693 3.4953-1.8706 3.3654-0.75444-0.51438 4.4223-5.0579 6.7487-8.8107 15.105-8.9178 19.858-0.0544 2.4125-1.1445 6.7554-2.4226 9.6508-1.871 4.2389-2.5011 4.802-3.2344 2.891zm-212.02-9.7108c-2.4707-2.4707 0.34256-3.1111 13.667-3.1111 8.1874 0 14.75-0.56464 15-1.2906 0.26198-0.76074 1.2085-0.81598 2.3054-0.13457 1.0244 0.63637 1.4928 2.1156 1.0418 3.2906-0.68456 1.7839-3.3082 2.1346-15.972 2.1346-8.3341 0-15.553-0.4-16.042-0.88889zm242.32-6.9599c1.397-1.5498 2.057-2.8179 1.4666-2.8179-0.59036 0 1.3855-1.7812 4.3907-3.9582 5.5527-4.0224 7.9539-7.3332 9.4935-13.09l0.85689-3.204 1.8156 3.3925c3.5197 6.5766-2.9448 15.154-15.302 20.303l-5.2616 2.1925zm-127.8-46.695c-0.46178-0.74719 0.44227-2.6404 2.009-4.2072 3.4416-3.4416 6.9072-1.5122 4.4091 2.4547-1.7093 2.7143-5.2296 3.6755-6.4181 1.7524zm-229.76-45.535c-3.1245-0.61608-8.2245-2.7101-11.333-4.6535-3.1088-1.9434-4.5439-3.1699-3.189-2.7257 7.9335 2.6011 21.285 3.5424 31.027 2.1874 19.587-2.7243 33.083-11.961 40.767-27.899 2.3411-4.8566 4.3552-8.9942 4.4757-9.1948 0.12054-0.20059 1.205 0.0136 2.41 0.47599 3.3408 1.282 2.6409 6.671-1.9964 15.372-11.12 20.862-36.244 31.548-62.16 26.438zm138.67 0c-3.1245-0.61608-8.2245-2.7101-11.333-4.6535-3.1088-1.9434-4.5439-3.1699-3.189-2.7257 7.9335 2.6011 21.285 3.5424 31.027 2.1874 19.587-2.7243 33.083-11.961 40.767-27.899 2.3411-4.8566 4.3552-8.9942 4.4758-9.1948 0.12053-0.20059 1.205 0.0136 2.41 0.47599 3.3408 1.282 2.6409 6.671-1.9964 15.372-11.12 20.862-36.244 31.548-62.16 26.438zm96.619-2.0937c-0.51614-0.51614-0.93843-1.7384-0.93843-2.7162 0-1.3122 2.4444-1.7778 9.3333-1.7778h9.3333v-24.4c0-17.2 0.47213-24.872 1.6-26 1.0753-1.0754 7.1159-1.6 18.422-1.6 26.962 0 37.3-2.8448 46.831-12.887 8.6116-9.0728 9.8136-12.664 9.8136-29.319 0-8.18 0.37704-14.64 0.83787-14.355 2.9905 1.8482 5.161 10.6 5.1491 20.762-0.0155 13.196-3.2785 21.542-11.494 29.399-9.3478 8.9398-15.621 10.759-40.097 11.63-15.036 0.53509-22.13 1.2945-23.333 2.498-1.2314 1.2312-1.9215 8.527-2.3962 25.333l-0.66667 23.604-10.728 0.38287c-5.9005 0.21057-11.151-0.0395-11.667-0.55556zm173.36-1.7743c-0.66119-2.5284-0.1103-2.7197 7.8306-2.7197h8.5418v-12.503c0-8.5089 0.54328-12.954 1.7005-13.915 0.93529-0.77622 4.6853-1.5997 8.3333-1.8299l6.6328-0.41861 0.40334-7.0094c0.37307-6.4834 0.59823-6.9052 3-5.6198 2.0291 1.0859 2.5967 2.8128 2.5967 7.9004 0 9.4347-0.80352 10.729-6.6616 10.729-8.6028 0-10.568 2.8634-10.982 16l-0.35676 11.333-10.164 0.38637c-9.2774 0.35267-10.226 0.14916-10.875-2.3333zm-56.072-26.275c-0.48889-0.48888-0.88889-1.6889-0.88889-2.6667 0-1.4149 4.8444-1.7778 23.733-1.7778 22.914 0 26.933 0.63668 26.933 4.2667 0 1.2799-48.502 1.4531-49.778 0.17777zm-375.67-15.732c-4.0485-9.1524-5.8099-26.243-4.0513-39.311 2.4042-17.864 8.0966-27.738 19.502-33.826 6.5724-3.5084 23.34-4.044 28.667-0.91569 3.1844 1.8704 2.8698 1.9966-7.0449 2.8254-24.94 2.0848-36.008 16.597-35.927 47.109 0.0371 14.01 1.0871 26.769 2.3744 28.852 0.41507 0.6716 0.38552 1.2211-0.0656 1.2211-0.45119 0-2.0056-2.6794-3.4542-5.9543zm138.67 0c-4.0486-9.1524-5.8099-26.243-4.0513-39.311 2.4042-17.864 8.0966-27.738 19.502-33.826 6.5724-3.5084 23.34-4.044 28.667-0.91569 3.1845 1.8704 2.8698 1.9966-7.0449 2.8254-24.94 2.0848-36.008 16.597-35.927 47.109 0.0371 14.01 1.0871 26.769 2.3744 28.852 0.41507 0.6716 0.38552 1.2211-0.0656 1.2211-0.45118 0-2.0056-2.6794-3.4542-5.9543zm254.04-10.166c-1.2231-1.979 27.481-44.437 30.408-44.978 3.988-0.7368 3.0807 8.1054-1.3333 12.995-2.0167 2.2338-7.8667 10.636-13 18.673-7.1189 11.145-10.026 14.629-12.255 14.688-1.6067 0.042-3.3255-0.57768-3.8196-1.377zm57.074 0.57036c-1.2813-0.51703-1.6667-9.9174-1.6667-40.659 0-37.365 0.153-39.957 2.3333-39.538 2.1515 0.41392 2.3608 3.5909 2.6862 40.764 0.19409 22.174-0.10587 40.268-0.66667 40.21-0.56075-0.0579-1.7696-0.40789-2.6862-0.77778zm-172.78-25.339c-0.48889-0.48889-0.88889-9.1678-0.88889-19.286 0-17.575 0.13066-18.468 2.9254-19.963 4.2479-2.2734 31.474-0.75762 36.913 2.0551 2.2886 1.1835 4.1612 2.3541 4.1612 2.6014s-7.8459 0.38184-17.435 0.29909c-21.89-0.18888-21.231-0.81263-21.231 20.104 0 11.677-0.40109 15.078-1.7778 15.078-0.97779 0-2.1778-0.4-2.6667-0.88889zm-211.56-17.645c0-1.9576 1.5915-2.9097 7-4.1874 12.396-2.9284 13.142-3.3973 11.653-7.3153-1.8071-4.7531 0.14072-3.1984 3.2054 2.5585 3.279 6.1595 1.8039 7.9754-8.0932 9.963-10.952 2.1996-13.765 1.9914-13.765-1.0188zm138.67 0c0-1.9576 1.5915-2.9097 7-4.1874 12.396-2.9284 13.142-3.3973 11.653-7.3153-1.8071-4.7531 0.14072-3.1984 3.2054 2.5585 3.279 6.1595 1.8039 7.9754-8.0932 9.963-10.952 2.1996-13.765 1.9914-13.765-1.0188z" fill="#30788b"/>
  <path d="m192 336.9c0-2.0665 151.21-153.01 155.67-155.39 2.6996-1.4424 3-1.3007 3 1.4149 0 2.2061-19.097 22.159-71 74.183-39.05 39.141-73.904 73.504-77.453 76.362-6.6297 5.3398-10.214 6.5421-10.214 3.4266zm322.67-26.067c0-1.6309 7.871-4.7352 9.0407-3.5655 0.52533 0.52533-0.20859 1.8061-1.6309 2.8461-2.8712 2.0995-7.4097 2.5401-7.4097 0.71941zm89.333 0.10614c0-1.0643 7.7515-4.3074 10.095-4.2235 0.68127 0.0244-0.1778 1.2244-1.909 2.6667-3.1408 2.6164-8.1856 3.576-8.1856 1.5568zm42.667-0.10614c0-1.6309 7.871-4.7352 9.0406-3.5655 0.52534 0.52533-0.20858 1.8061-1.6309 2.8461-2.8712 2.0995-7.4097 2.5401-7.4097 0.71941zm76 0c0-1.6309 7.871-4.7352 9.0406-3.5655 0.52533 0.52533-0.20859 1.8061-1.6309 2.8461-2.8712 2.0995-7.4097 2.5401-7.4097 0.71941zm55.333-0.92193c3.6667-1.0203 7.8667-1.8454 9.3333-1.8335 2.3625 0.0191 2.2864 0.23888-0.66666 1.927-1.8333 1.048-6.0333 1.8731-9.3333 1.8335l-6-0.072 6.6667-1.8551zm-302-0.4754c0-0.78709 0.55742-1.4311 1.2387-1.4311 0.68129 0 2.2124-3.3492 3.4024-7.4427 3.8087-13.101 11.162-26.532 13.336-24.358 0.31875 0.31876-0.97879 3.8543-2.8834 7.8567-1.9046 4.0024-5.0502 11.473-6.9901 16.601-2.2335 5.9041-4.3664 9.4854-5.8155 9.7644-1.2586 0.24239-2.2883-0.2033-2.2883-0.99041zm208 0c0-0.78709 0.55743-1.4311 1.2387-1.4311 0.6813 0 2.2124-3.3492 3.4024-7.4427 3.8087-13.101 11.162-26.532 13.336-24.358 0.31874 0.31876-0.97879 3.8543-2.8834 7.8567-1.9046 4.0024-5.0502 11.473-6.9901 16.601-2.2335 5.9041-4.3664 9.4854-5.8155 9.7644-1.2586 0.24239-2.2883-0.2033-2.2883-0.99041zm-242.4-9.4626c10.145-9.1562 15.344-18.305 16.645-29.291 0.71799-6.0623 1.0268-6.6783 2.0122-4.0145 1.4733 3.9827-0.765 15.134-4.4386 22.113-3.3168 6.3014-11.151 14.742-16.088 17.334-7.4365 3.9039-6.7455 1.6341 1.8697-6.1414zm77.067-0.85735c9e-3 -3.5595 13.136-45.838 13.865-44.658 1.6358 2.6468-9.7703 44.403-12.365 45.268-0.82654 0.27552-1.5015 9.3e-4 -1.4999-0.61019zm89.33-1.0525c0-2.3864 23.682-84.852 24.644-85.813 3.0152-3.0152 0.79994 6.7687-10.055 44.41-11.016 38.198-14.588 48.337-14.588 41.403zm42.667-0.51429c0-3.5547 12.025-45.975 13.458-47.478 2.4602-2.579 1.1417 4.3858-5.0957 26.917-5.7839 20.893-8.3627 27.233-8.3627 20.561zm76.003 1.5668c9e-3 -3.5595 13.136-45.838 13.865-44.658 1.6358 2.6468-9.7703 44.403-12.365 45.268-0.82653 0.27552-1.5015 9.3e-4 -1.4999-0.61019zm-319.38-12.236c0.63149-10.751 5.2971-22.677 11.948-30.541 5.8612-6.9306 8.1533-5.3598 2.9184 2-6.6523 9.3524-9.9146 16.474-12.831 28.009l-2.6105 10.324zm357.8 0.90232c-0.80331-4.2023 0.015-6.4438 2.3526-6.4438 2.3136 0 2.3138 0.0167 0.0751 5.341-1.7466 4.1539-1.8366 4.1948-2.4277 1.1028zm-199.76-6.0893c11.132-0.33115 14.339-0.8682 15.653-2.6215 1.9196-2.5608 3.7127-1.4775 2.5537 1.5428-0.6586 1.7163-3.3944 2.0109-16.498 1.7763l-15.709-0.28118zm226.67-4.9612c0-0.35337 3.3289-3.1017 7.3976-6.1074s8.3798-7.5246 9.5803-10.042c2.2949-4.8125 4.3554-6.0004 4.3554-2.5109 0 3.5777-3.8073 9.615-7.9025 12.531-4.1993 2.9902-13.431 7.2031-13.431 6.1294zm-24.552-1.8739c-1.4336-2.3196 4.5545-14.618 8.8965-18.272 4.4449-3.7401 6.6822-3.3292 3.1463 0.57782-1.2486 1.3797-4.2689 6.2493-6.7116 10.821-2.4427 4.5719-4.8418 7.6646-5.3313 6.8726zm-276.78-8.4474c0-1.9588 4.4502-15.289 5.4544-16.339 1.6275-1.7005 1.5525 2.6549-0.15131 8.789-1.081 3.8918-5.3031 9.9024-5.3031 7.5496zm208 0c0-1.9588 4.4502-15.289 5.4544-16.339 1.6275-1.7005 1.5525 2.6549-0.15131 8.789-1.081 3.8918-5.3031 9.9024-5.3031 7.5496zm-32-37.641c0-1.5226 5.5771-6.2985 6.3973-5.4782 1.2525 1.2525-1.689 5.316-4.2068 5.8116-1.2047 0.23711-2.1904 0.0871-2.1904-0.33333zm-230.32-46.173c-10.827-2.136-10.079-3.468 1.602-2.855 27.941 1.4665 49.063-9.865 58.334-31.294 3.2684-7.5551 6.3893-9.328 6.3893-3.6297 0 5.3114-7.6728 18.545-14.287 24.642-12.696 11.703-33.142 16.864-52.038 13.136zm138.67 0c-10.827-2.136-10.079-3.468 1.602-2.855 27.941 1.4665 49.063-9.865 58.334-31.294 3.2684-7.5551 6.3894-9.328 6.3894-3.6297 0 5.3114-7.6728 18.545-14.287 24.642-12.696 11.703-33.142 16.864-52.038 13.136zm96.351-2.5488c-1.1958-1.9349 1.2553-2.5876 11.307-3.011l8.6667-0.36507 0.3619-24.771 0.36192-24.771 22.971-1.3329c26.815-1.5559 33.42-3.6396 42.393-13.375 8.4282-9.1436 11.091-16.295 11.175-30.01 0.0939-15.453 2.577-13.047 3.2074 3.1072 0.57662 14.774-1.6935 21.678-10.075 30.638-9.4728 10.127-15.848 12.142-41.332 13.065-15.02 0.54392-22.131 1.3093-23.333 2.5115-1.2314 1.2312-1.9215 8.527-2.3962 25.333l-0.66667 23.604-10.889 0.38547c-6.5612 0.23225-11.232-0.16894-11.751-1.0094zm174.28-0.31761c0.36318-1.0997 3.5353-1.8686 8.7497-2.1208l8.18-0.39572 0.38086-12.938 0.38087-12.938 5.3333-0.35539c11.133-0.74183 11.333-0.90331 11.333-9.1145 0-9.0551 3.1026-9.496 3.7544-0.53346 0.72127 9.9171-0.37345 12.003-6.2987 12.003-8.733 0-10.684 2.8122-11.099 16l-0.35676 11.333-10.464 0.39177c-8.0943 0.30306-10.335 1e-3 -9.8942-1.3333zm-56.975-27.725c-0.53775-0.87009 7.5417-1.3333 23.255-1.3333 15.164 0 24.079 0.49367 24.079 1.3333 0 0.83792-8.6404 1.3333-23.255 1.3333-14.065 0-23.58-0.52691-24.079-1.3333zm-375.53-20.911c-1.1854-3.3526-1.7952-11.459-1.7866-23.756 0.012-16.617 0.35068-19.416 3.0886-25.491 3.669-8.1406 9.6214-14.23 16.863-17.251 6.1362-2.5596 18.996-3.0367 22.774-0.84487 2.2395 1.2993 1.8521 1.5109-2.8299 1.5459-8.0594 0.06024-17.938 3.437-23.491 8.0295-10.495 8.6806-15.464 27.922-13.136 50.862 0.6224 6.1319 0.94828 11.339 0.72419 11.572-0.22409 0.23247-1.2172-1.8675-2.207-4.6667zm138.67 0c-1.1854-3.3526-1.7951-11.459-1.7866-23.756 0.012-16.617 0.35068-19.416 3.0886-25.491 3.669-8.1406 9.6213-14.23 16.863-17.251 6.1362-2.5596 18.996-3.0367 22.774-0.84487 2.2395 1.2993 1.8521 1.5109-2.8299 1.5459-8.0594 0.06024-17.938 3.437-23.491 8.0295-10.495 8.6806-15.464 27.922-13.136 50.862 0.6224 6.1319 0.94828 11.339 0.72418 11.572-0.22409 0.23247-1.2172-1.8675-2.207-4.6667zm256.2-6.4546c0-0.38421 6.15-9.8342 13.667-21 12.845-19.081 13.692-20.04 14.085-15.957 0.34468 3.5769-1.5397 7.2786-10.667 20.954-8.6379 12.942-11.748 16.619-14.085 16.656-1.65 0.0255-3-0.26799-3-0.6522zm55.27-0.9861c-1.3008-3.3897 0.04-76.321 1.3968-75.983 1.8859 0.47006 2.5269 77.668 0.64496 77.668-0.76742 0-1.6862-0.7581-2.0418-1.6847zm-171.27-41.088v-18.773l17.27 0.43929c11.149 0.28359 17.838 1.0086 18.873 2.0455 1.2495 1.2525-1.8402 1.5461-14.031 1.3333-19.758-0.34481-19.445-0.65491-19.445 19.315 0 8.719-0.52668 14.412-1.3333 14.412-0.82576 0-1.3333-7.1464-1.3333-18.773zm-213.02 2.4993c0.29455-0.88364 4.9859-2.7269 10.425-4.0962 5.4393-1.3692 10.316-3.1795 10.837-4.0227 0.64339-1.041 1.2324-0.79072 1.8351 0.77981 1.3828 3.6036-1.448 5.7844-9.6458 7.4308-9.8074 1.9696-14.129 1.9401-13.452-0.09175zm138.67 0c0.29454-0.88364 4.9859-2.7269 10.425-4.0962 5.4393-1.3692 10.316-3.1795 10.837-4.0227 0.64338-1.041 1.2324-0.79072 1.8351 0.77981 1.3828 3.6036-1.448 5.7844-9.6458 7.4308-9.8074 1.9696-14.129 1.9401-13.452-0.09175z" fill="#53656a"/>
 </g>
</svg>
