<?xml version="1.0" encoding="UTF-8"?>
<svg width="256" height="256" version="1.1" viewBox="0 0 256 256" xmlns="http://www.w3.org/2000/svg">
 <g transform="matrix(1.0395 0 0 1.3404 -4.5136 -47.175)">
  <path d="m126.91 226.22c-1.9772-0.94808-26.727-15.224-55-31.724-34.724-20.265-52.809-31.395-55.731-34.299-2.3791-2.3646-5.6679-7.1677-7.3085-10.674-2.5389-5.4255-3.1352-8.3159-4.0062-19.42-1.5972-20.361 1.1984-33.044 8.4927-38.529 1.7312-1.3017 26.604-14.201 55.272-28.666l52.125-26.299 6.3752 2.8542c3.5064 1.5698 22.125 10.236 41.375 19.258s45.257 21.212 57.793 27.089c26.259 12.309 26.793 12.819 19.959 19.066-3.5124 3.2107-4.236 4.6567-5.7618 11.515-1.6499 7.4159-1.5763 19.611 0.14541 24.098 0.30054 0.78321 2.411 1.7927 4.6898 2.2434 5.4146 1.0708 6.8632 3.7796 6.4182 12.001-0.22932 4.2372-0.96445 7.0657-2.291 8.8149-1.8204 2.4004-90.63 53.105-106.93 61.048-7.8486 3.8255-10.462 4.0968-15.623 1.6219zm20.01-27.378c8.5431-4.6782 19.094-11.579 23.585-15.425 2.8675-2.4558 2.7203-2.431-3.3351 0.56201-3.4843 1.7222-11.419 5.5384-17.633 8.4805-11.646 5.5142-13.104 6.6034-12.152 9.0839 0.77767 2.0266 1.0319 1.9545 9.5347-2.7016zm-53.415-118.1c1.1-1.7489 3.8-4.2282 6-5.5097 3.4622-2.0167 5.0345-2.2789 11.695-1.9503 6.7243 0.33174 8.0376 0.10641 10.411-1.7863 1.494-1.1913 2.4201-2.6452 2.0581-3.231-1.1893-1.9244-10.711-3.526-18.13-3.0499-10.444 0.67025-25.534 8.0215-25.534 12.439 0 1.2423 8.3878 6.2428 10.5 6.2598 0.55 0.0044 1.9-1.4228 3-3.1717z" fill="#f3f3f3"/>
  <path d="m129 224.29c-0.825-0.30505-25.125-14.275-54-31.044-54.837-31.846-59.897-35.321-64.493-44.284-4.9237-9.602-7.1156-35.18-3.9333-45.896 3.1732-10.685-1.1727-8.1031 98.081-58.274l16.154-8.1659 10.346 4.7869c58.291 26.971 117.14 55.267 117.9 56.69 1.3206 2.4676 0.27986 4.5055-3.4139 6.6849-2.6436 1.5598-3.5537 3.1319-5.3815 9.2961-1.2099 4.0804-2.4684 9.9911-2.7967 13.135-0.552 5.2861-0.73844 5.6278-2.4779 4.5414-1.5784-0.98573-2.4926-0.6864-5.6823 1.8605-10.8 8.6239-65.436 39.58-67.035 37.981-0.25132-0.25131 1.0485-1.8423 2.8885-3.5356 2.3509-2.1634 2.7509-2.8863 1.3455-2.4317-4.621 1.4947-26.096 12.132-27.185 13.466-2.9418 3.6018-6.1411 18.723-4.8331 22.844 1.358 4.2786 1.4024 4.2577 51.018-23.906 18.15-10.303 37.612-21.301 43.25-24.44 8.6464-4.8152 10.25-6.0905 10.25-8.1519 0-2.0028 0.49621-2.441 2.75-2.429 4.2192 0.0226 7.5275 2.1738 8.4053 5.4653 1.1983 4.4933-0.14783 10.493-3.0579 13.629-2.4153 2.6028-92.242 53.668-105.6 60.031-5.7519 2.7403-9.2647 3.3438-12.5 2.1475zm7.3398-137.09c2.4806-1.479 2.7791-2.1539 2.3596-5.3354-0.71435-5.4181-4.3753-9.5729-11.545-13.103-12.495-6.1512-31.728-4.5379-42.333 3.5509-6.0095 4.5836-5.9409 5.9065 0.49737 9.5901 2.9838 1.7071 5.6054 3.1039 5.8259 3.1039 0.22048 0 1.1892-1.4625 2.1527-3.25 2.4773-4.5959 7.8608-7.9627 13.617-8.5157 9.8749-0.94885 16.569 3.734 17.966 12.567 0.44502 2.8152 1.3688 5.7929 2.053 6.6172 1.085 1.3074 1.5837 1.1776 3.9057-1.0168 1.464-1.3835 3.9397-3.2775 5.5016-4.2087z" fill="#eaf2f9"/>
  <path d="m129 224.29c-0.825-0.30505-25.125-14.275-54-31.044-54.837-31.846-59.897-35.321-64.493-44.284-1.2805-2.4972-3.0434-8.6849-3.9176-13.75-3.0468-17.655-1.5558-32.526 3.9988-39.882 2.6655-3.5301 12.709-10.009 17.687-11.41 1.7739-0.49904 23.025-11.033 47.225-23.409 24.2-12.376 44.57-22.503 45.267-22.505 1.2924-4e-3 34.748 15.248 70.733 32.245 11 5.1959 28.438 13.4 38.75 18.231 17.342 8.1244 18.749 8.9805 18.738 11.402-9e-3 1.8512-0.97006 3.2379-3.282 4.7344-2.6883 1.74-3.6588 3.4292-5.4584 9.5-1.2038 4.061-2.4574 9.956-2.7857 13.1-0.552 5.2861-0.73844 5.6278-2.4779 4.5414-1.5784-0.98573-2.4926-0.6864-5.6823 1.8605-10.8 8.6239-65.436 39.58-67.035 37.981-0.25132-0.25131 1.0485-1.8423 2.8885-3.5356 2.3509-2.1634 2.7509-2.8863 1.3455-2.4317-4.621 1.4947-26.096 12.132-27.185 13.466-2.9418 3.6018-6.1411 18.723-4.8331 22.844 1.358 4.2786 1.4024 4.2577 51.018-23.906 18.15-10.303 37.612-21.301 43.25-24.44 8.6464-4.8152 10.25-6.0905 10.25-8.1519 0-2.0028 0.49621-2.441 2.75-2.429 4.2192 0.0226 7.5275 2.1738 8.4053 5.4653 1.1983 4.4933-0.14783 10.493-3.0579 13.629-2.4153 2.6028-92.242 53.668-105.6 60.031-5.7519 2.7403-9.2647 3.3438-12.5 2.1475zm7.25-137.06c3.1063-1.8737 3.4938-4.5462 1.3789-9.5097-1.8572-4.3586-5.0458-7.1038-11.892-10.238-7.111-3.2555-18.08-4.3067-25.846-2.4766-9.5635 2.2538-20.891 9.0999-20.891 12.626 0 0.69025 2.8113 2.8393 6.2474 4.7757l6.2474 3.5207 1.7352-3.3823c5.8527-11.408 25.731-12.061 30.354-0.99761 0.77906 1.8646 1.4165 4.4294 1.4165 5.6997s0.6982 3.3064 1.5516 4.5248l1.5516 2.2152 2.6984-2.5495c1.4841-1.4022 3.9359-3.2959 5.4484-4.2083z" fill="#e6ecf5"/>
  <path d="m129 224.29c-0.825-0.30505-25.125-14.275-54-31.044-54.837-31.846-59.897-35.321-64.493-44.284-2.8199-5.4992-5.5127-20.313-5.4913-30.21 0.01942-9.0128 1.9975-17.685 5.0496-22.14 2.5006-3.6494 9.2691-8.5033 15.555-11.155 3.4411-1.4516 37.942-18.774 80.47-40.401l14.642-7.4465 21.384 9.8675c11.761 5.4271 34.209 15.918 49.884 23.313 15.675 7.3949 34.35 16.146 41.5 19.448s13.562 6.4541 14.25 7.0062c2.1881 1.7572 1.3773 4.7799-1.7584 6.5555-2.4768 1.4025-3.4457 3.1171-5.4833 9.7035-1.3612 4.4-2.738 10.572-3.0594 13.716-0.54054 5.2872-0.72554 5.628-2.4654 4.5414-1.5784-0.98573-2.4926-0.6864-5.6823 1.8605-10.8 8.6239-65.436 39.58-67.035 37.981-0.25132-0.25131 1.0485-1.8423 2.8885-3.5356 2.3509-2.1634 2.7509-2.8863 1.3455-2.4317-4.621 1.4947-26.096 12.132-27.185 13.466-2.9418 3.6018-6.1411 18.723-4.8331 22.844 0.35927 1.132 1.4342 2.0581 2.3887 2.0581 2.493 0 16.251-6.8253 27.749-13.766 9.5588-5.7703 43.122-24.947 64.13-36.641 8.8635-4.9338 10.25-6.0534 10.25-8.2771 0-2.4605 0.18136-2.5425 4.2004-1.8998 2.3102 0.36942 4.7381 1.118 5.3954 1.6634 3.313 2.7496 2.2116 13.605-1.776 17.503-2.3632 2.3102-94.387 54.349-105.32 59.557-5.7519 2.7403-9.2647 3.3438-12.5 2.1475zm0.0772-128.69c-0.93137-1.1222-0.50075-2.0353 2.1276-4.5112 1.8124-1.7073 4.5715-3.6617 6.1313-4.343 2.5549-1.116 2.7868-1.6143 2.3401-5.0262-0.73709-5.6298-4.7596-10.136-12.41-13.902-6.3952-3.1483-7.263-3.3088-17.745-3.2818-13.069 0.03374-19.553 2.1068-26.948 8.6163-5.3911 4.7454-5.2605 5.1475 3.2247 9.9363 5.2179 2.9448 5.7115 3.0496 6.6687 1.4156 4.3428-7.4135 9.1992-10.497 16.534-10.497 8.8414 0 15 4.9663 15 12.096 0 2.6535 0.68959 4.4962 2.25 6.0122 1.2375 1.2023 1.575 1.8175 0.75 1.3671-0.96455-0.52662-0.81998-0.04366 0.40499 1.3529 2.0776 2.3687 3.5697 3.0512 1.6722 0.76489z" fill="#ebebeb"/>
  <path d="m120.96 218.14c-35.561-20.445-94.4-54.911-98.636-57.777-2.8478-1.9273-6.7782-5.8342-8.7341-8.6821-8.4285-12.272-11.178-40.902-5.0632-52.726 2.1843-4.224 7.0334-8.3361 13.697-11.615 7.5049-3.693 63.214-31.78 83.868-42.283l14.642-7.4465 21.384 9.8675c11.761 5.4271 34.209 15.918 49.884 23.313 15.675 7.3949 34.35 16.146 41.5 19.448s13.562 6.4541 14.25 7.0062c2.1776 1.7488 1.3775 4.7791-1.7309 6.5555-2.1735 1.2421-3.7467 3.5939-5.8081 8.6831l-2.8272 6.9796-21.942 12.092c-12.068 6.6506-28.719 16.413-37.003 21.695s-20.198 12.135-26.477 15.229-12.204 6.3396-13.168 7.2116c-6.2427 5.6496-8.9017 29.314-3.2938 29.314 2.4561 0 13.771-5.9636 46.5-24.508 16.775-9.5047 36.572-20.665 43.994-24.801 10.074-5.6138 13.64-8.1117 14.07-9.8556 0.45855-1.8571 1.1773-2.2917 3.5064-2.12 7.9997 0.5896 8.5394 13.534 0.79271 19.011-3.1317 2.2139-88.375 50.242-100.17 56.436-9.896 5.1985-12.621 5.0782-23.238-1.026zm22.156-118.32c4.1218-2.3166 4.7922-3.5309 2.4461-4.4312-2.5621-0.98317-4.7214-5.4517-5.5843-11.556-1.1207-7.9285-4.2253-11.841-12.71-16.018-6.3952-3.1483-7.263-3.3088-17.745-3.2818-13.069 0.03374-19.553 2.1068-26.948 8.6163-5.3911 4.7454-5.2605 5.1475 3.2247 9.9363 5.2179 2.9448 5.7115 3.0496 6.6687 1.4156 4.3428-7.4135 9.1992-10.497 16.534-10.497 8.7162 0 14.997 4.9749 15.004 11.885 5e-3 5.1623 3.1086 9.5658 9.2049 13.062 2.9102 1.669 5.4551 3.0387 5.6552 3.0439 0.20011 5e-3 2.1126-0.97348 4.25-2.1748z" fill="#d8e8f8"/>
  <path d="m121.98 218.72c-56.812-32.523-100.88-58.859-104.51-62.45-5.5015-5.4514-7.9908-10.716-10.568-22.351-1.6079-7.259-1.967-11.482-1.5658-18.419 0.64774-11.2 1.9293-15.59 5.8563-20.063 3.5049-3.9918 15.45-11.434 18.369-11.444 1.068-0.0038 21.701-10.129 45.85-22.5s44.457-22.493 45.128-22.493c2.096 0 25.734 10.772 100.46 45.783 29.786 13.955 31.348 15.126 25.096 18.819-2.1973 1.298-3.7941 3.699-5.8658 8.8202l-2.8466 7.0367-21.942 12.092c-12.068 6.6506-28.719 16.413-37.003 21.695s-20.198 12.135-26.477 15.229-12.204 6.3396-13.168 7.2116c-6.2427 5.6496-8.9017 29.314-3.2938 29.314 2.4561 0 13.771-5.9636 46.5-24.508 16.775-9.5047 36.575-20.663 44-24.797 9.8331-5.4741 13.587-8.0832 13.82-9.6056 0.46313-3.0292 6.4739-2.9369 8.6238 0.13241 3.12 4.4544 1.035 12.888-4.0802 16.504-3.1317 2.2139-88.375 50.242-100.17 56.436-9.6686 5.079-12.679 5.019-22.22-0.44287zm21.138-118.9c3.8805-2.181 5.2001-4.8159 2.4118-4.8159-1.9574 0-4.3274-4.7518-5.06-10.145-1.0316-7.5946-1.3212-8.3276-4.6242-11.706-8.4315-8.6239-23.655-12.172-37.148-8.6573-10.822 2.8188-21.775 10.246-20.399 13.832 0.56501 1.4724 11.187 7.6782 13.133 7.6733 0.58983-0.0015 1.9724-1.689 3.0724-3.75 2.3523-4.4074 9.1233-8.2585 14.462-8.2253 1.946 0.01208 5.4676 0.89766 7.8258 1.968 4.6693 2.1192 7.2124 6.3703 7.2124 12.056 0 2.2704 1.0129 4.1096 3.75 6.8088 2.9827 2.9414 8.8572 6.6842 11.114 7.0809 0.20011 0.0352 2.1126-0.91891 4.25-2.1202z" fill="#e3e3e3"/>
  <path d="m127 219.68c-6.098-3.1917-101.93-59.237-105.64-61.781-16.713-11.463-21.872-52.014-8.212-64.553 3.6462-3.347 14.123-9.3391 16.347-9.3497 1.1-0.005245 21.759-10.131 45.909-22.503s44.457-22.493 45.128-22.493c2.096 0 25.734 10.772 100.46 45.783 30.02 14.064 31.219 14.983 24.835 19.025-1.989 1.2593-4.2617 4.1505-5.8023 7.3813-2.4221 5.0793-3.0782 5.6197-15.033 12.382-6.875 3.8889-23.075 13.089-36 20.444s-29.125 16.436-36 20.179c-7.1623 3.8995-13.834 8.3093-15.624 10.327-3.8486 4.3378-6.3759 12.898-6.3759 21.595 0 7.0937 1.0099 8.9003 4.95 8.8552 3.204-0.0367 8.6023-2.9133 61.8-32.933 32.165-18.151 43.25-24.871 43.25-26.222 0-2.3105 4.2028-2.4705 6.4286-0.2447 1.8456 1.8456 2.0551 7.273 0.41926 10.863-0.63369 1.3908-3.8962 4.2948-7.25 6.4534-5.6847 3.6588-91.063 51.758-99.639 56.133-4.4607 2.2757-10.339 2.5529-13.959 0.65827zm48.121-105.36c1.7524-1.7524 1.8937-2.4266 0.89837-4.2863-1.6103-3.0089-8.5608-5.989-14.02-6.0111-4.9055-0.0199-11 2.9654-11 5.3882 0 1.919 2.712 4.5385 6.4566 6.2363 4.6024 2.0868 15.035 1.303 17.665-1.3271zm-31.082-14.343c2.1781-1.1112 3.9602-2.2664 3.9602-2.5672s-1.5325-1.9922-3.4056-3.7587c-2.6691-2.5173-3.5459-4.2869-4.0546-8.1828-1.0694-8.1906-1.3316-8.8783-4.6984-12.322-8.4315-8.6239-23.655-12.172-37.148-8.6573-10.822 2.8188-21.775 10.246-20.399 13.832 0.56501 1.4724 11.187 7.6782 13.133 7.6733 0.58983-0.0015 1.9724-1.689 3.0724-3.75 2.3523-4.4074 9.1233-8.2585 14.462-8.2253 1.946 0.01208 5.4676 0.89766 7.8258 1.968 4.639 2.1054 7.2124 6.3668 7.2124 11.943 0 3.61 4.6777 9.3156 9.9003 12.076 4.5814 2.4215 5.3398 2.4193 10.14-0.02936z" fill="#c8e2f7"/>
  <path d="m127 219.68c-6.098-3.1917-101.93-59.237-105.64-61.781-17.204-11.8-21.909-53.006-7.4413-65.18 5.1331-4.3192 13.468-8.6009 16.593-8.524 2.0253 0.049875 16.756-7.0352 45.865-22.06 23.585-12.174 43.522-22.134 44.305-22.134 2.3573 0 41.593 17.519 95.814 42.781 34.815 16.221 35.805 16.93 29.335 21.027-1.989 1.2593-4.2617 4.1505-5.8023 7.3813-2.4221 5.0793-3.0782 5.6197-15.033 12.382-6.875 3.8889-23.075 13.089-36 20.444s-29.125 16.436-36 20.179c-7.1623 3.8995-13.834 8.3093-15.624 10.327-3.8486 4.3378-6.3759 12.898-6.3759 21.595 0 7.0937 1.0099 8.9003 4.95 8.8552 3.204-0.0367 8.6023-2.9133 61.8-32.933 32.165-18.151 43.25-24.871 43.25-26.222 0-2.3105 4.2028-2.4705 6.4286-0.2447 1.8456 1.8456 2.0551 7.273 0.41926 10.863-0.63369 1.3908-3.8962 4.2948-7.25 6.4534-5.6847 3.6588-91.063 51.758-99.639 56.133-4.4607 2.2757-10.339 2.5529-13.959 0.65827zm48.121-105.36c1.7524-1.7524 1.8937-2.4266 0.89837-4.2863-1.6103-3.0089-8.5608-5.989-14.02-6.0111-4.9055-0.0199-11 2.9654-11 5.3882 0 1.919 2.712 4.5385 6.4566 6.2363 4.6024 2.0868 15.035 1.303 17.665-1.3271zm-31.082-14.343c2.1781-1.1112 3.9602-2.2664 3.9602-2.5672s-1.5325-1.9922-3.4056-3.7587c-2.6691-2.5173-3.5459-4.2869-4.0546-8.1828-1.0787-8.2624-1.4497-9.2988-4.6224-12.912-3.8369-4.37-11.588-8.0799-20.195-9.6658-8.2888-1.5273-17.768-0.06848-26.373 4.0586-6.5167 3.1255-12.912 9.1386-12.066 11.344 0.5292 1.3791 12.874 8.7041 14.669 8.7041 0.48577 0 1.7078-1.6816 2.7156-3.7368 2.6858-5.4773 7.4325-8.2632 14.079-8.2632 9.6176 0 15.253 4.7537 15.253 12.866 0 3.6801 4.6276 9.3559 9.9003 12.143 4.5814 2.4215 5.3398 2.4193 10.14-0.02936z" fill="#cbd9ed"/>
  <path d="m127 219.68c-6.098-3.1917-101.93-59.237-105.64-61.781-9.302-6.38-15.591-21.701-15.762-38.398-0.17648-17.222 3.411-24.429 15.554-31.246 2.939-1.65 6.9389-3.2388 8.8886-3.5308s22.875-10.505 46.5-22.696c32.214-16.623 43.58-22.041 45.455-21.669 3.0772 0.61022 37.858 16.261 72 32.398 14.025 6.629 31.8 14.944 39.5 18.477 15.377 7.0567 16.786 8.5322 11.879 12.445-1.5655 1.2483-3.9787 4.6438-5.3627 7.5457-2.4019 5.0363-3.0845 5.5975-15.016 12.347-6.875 3.8889-23.075 13.089-36 20.444s-29.125 16.436-36 20.179c-7.1623 3.8995-13.834 8.3093-15.624 10.327-3.8486 4.3378-6.3759 12.898-6.3759 21.595 0 10.246 2.389 11.076 14.707 5.1093 8.9088-4.3154 92.246-51.095 93.849-52.681 0.58078-0.57429 1.3661-1.8627 1.7451-2.8631 0.51023-1.3468 1.2745-1.6395 2.944-1.1276 3.6711 1.1255 4.7549 2.4981 4.7549 6.022 0 5.3401-1.9041 8.1304-8.4022 12.313-5.6847 3.6588-91.063 51.758-99.639 56.133-4.4607 2.2757-10.339 2.5529-13.959 0.65827zm45.452-103.09c7.0028-2.926 6.202-8.0216-1.8341-11.671-12.449-5.6535-28.049 3.6747-16.303 9.7488 6.8724 3.5538 12.743 4.176 18.137 1.9221zm-27.789-16.127c2.3858-1.3982 4.3379-2.9628 4.3379-3.477s-1.1864-1.7121-2.6364-2.6622c-3.045-1.9952-5.3636-6.8956-5.3636-11.336 0-12.629-20.702-23.322-38.866-20.076-3.8147 0.68173-9.568 2.5019-12.785 4.0448-6.5167 3.1255-12.912 9.1386-12.066 11.344 0.5292 1.3791 12.874 8.7041 14.669 8.7041 0.48577 0 1.7078-1.6816 2.7156-3.7368 1.0078-2.0552 3.3614-4.7552 5.2302-6 5.7697-3.843 16.973-2.7387 20.96 2.0659 0.66688 0.80354 1.6345 4.0538 2.1503 7.2229 1.0458 6.4257 3.0407 9.1537 9.9373 13.589 5.4356 3.4957 6.2545 3.5178 11.716 0.31695z" fill="#d8d8d8"/>
  <path d="m124.5 216.18c-14.581-8.1099-99.583-57.896-103-60.328-5.3208-3.7867-10.01-10.88-13.179-19.937-5.0027-14.296-3.0258-34.146 4.1115-41.284 4.3165-4.3165 13.043-9.2269 17.613-9.9114 1.9497-0.29199 22.875-10.505 46.5-22.696 32.214-16.623 43.58-22.041 45.455-21.669 3.0772 0.61022 37.858 16.261 72 32.398 14.025 6.629 31.8 14.944 39.5 18.477 9.224 4.233 14.115 7.0196 14.337 8.1685 0.19688 1.0176-1.2607 3.275-3.5 5.4208-2.1106 2.0224-4.5528 5.027-5.4272 6.677-1.7874 3.373-2.4214 3.7517-56.41 33.703-48.057 26.661-46.327 25.585-48.749 30.297-4.2396 8.2472-6.0516 20.95-3.8242 26.808 1.3328 3.5056 5.0334 4.0653 10.743 1.6248 2.6567-1.1356 26.137-14.048 52.179-28.693 35.525-19.979 47.574-27.221 48.251-29.001 0.71119-1.8706 1.3783-2.2315 3.1514-1.7048 7.8769 2.3398 5.5648 10.058-5.055 16.875-6.6525 4.27-86.775 49.508-97.087 54.817-6.8206 3.5111-11.24 3.5006-17.609-0.042zm47.952-99.598c7.0028-2.926 6.202-8.0216-1.8341-11.671-12.449-5.6535-28.049 3.6747-16.303 9.7488 6.8724 3.5538 12.743 4.176 18.137 1.9221zm-27.789-16.127c2.3858-1.3982 4.3379-2.9628 4.3379-3.477s-1.1864-1.7121-2.6364-2.6622c-3.045-1.9952-5.3636-6.8956-5.3636-11.336 0-12.629-20.702-23.322-38.866-20.076-3.8147 0.68173-9.568 2.5019-12.785 4.0448-6.5167 3.1255-12.912 9.1386-12.066 11.344 0.5292 1.3791 12.874 8.7041 14.669 8.7041 0.48577 0 1.7078-1.6816 2.7156-3.7368 1.0078-2.0552 3.3614-4.7552 5.2302-6 5.7697-3.843 16.973-2.7387 20.96 2.0659 0.66688 0.80354 1.6345 4.0538 2.1503 7.2229 1.0458 6.4257 3.0407 9.1537 9.9373 13.589 5.4356 3.4957 6.2545 3.5178 11.716 0.31695z" fill="#b3d8f6"/>
  <path d="m124.5 216.18c-14.581-8.1099-99.583-57.896-103-60.328-5.3208-3.7867-10.01-10.88-13.179-19.937-2.0869-5.9635-2.598-9.2812-2.6064-16.918-0.018605-17.058 3.4528-23.944 15.564-30.873 6.5954-3.7735 8.8636-3.8671 15.88-0.65502l5.3994 2.4719 40.098-23.961 40.098-23.961 5.411 1.8617c17.574 6.0462 119.18 53.301 119.67 55.659 0.18556 0.88114-1.3894 3.2568-3.5 5.2791-2.1106 2.0224-4.5528 5.027-5.4272 6.677-1.7874 3.373-2.4214 3.7517-56.41 33.703-48.057 26.661-46.327 25.585-48.749 30.297-4.2396 8.2472-6.0516 20.95-3.8242 26.808 1.3328 3.5056 5.0334 4.0653 10.743 1.6248 2.6567-1.1356 26.137-14.048 52.179-28.693 35.525-19.979 47.574-27.221 48.251-29.001 0.71119-1.8706 1.3783-2.2315 3.1514-1.7048 7.8769 2.3398 5.5648 10.058-5.055 16.875-6.6525 4.27-86.775 49.508-97.087 54.817-6.8206 3.5111-11.24 3.5006-17.609-0.042zm47.952-99.598c7.0028-2.926 6.202-8.0216-1.8341-11.671-12.647-5.7431-28.235 3.5785-16.303 9.7488 6.8724 3.5538 12.743 4.176 18.137 1.9221zm-27.35-16.335c2.693-1.5125 4.8968-3.0357 4.8974-3.385 5.6e-4 -0.34924-1.2365-1.4404-2.749-2.4249-3.9884-2.5959-5.0837-4.3916-5.7581-9.4401-0.33061-2.475-0.80804-5.5042-1.061-6.7317-0.78115-3.7909-6.3131-9.0869-12.766-12.222-11.41-5.5428-24.111-5.8983-37.009-1.0357-6.735 2.5392-15.035 9.7804-14.485 12.637 0.36719 1.9066 12.918 9.36 15.731 9.3421 0.90151-0.0057 2.2995-1.6808 3.2067-3.8422 1.1947-2.8466 2.7547-4.387 6.0657-5.9898 11.006-5.3281 21.805-0.01522 21.833 10.741 0.0115 4.529 4.3476 9.5901 11.493 13.415 4.0875 2.1879 4.9689 2.0994 10.602-1.0642z" fill="#acd3f5"/>
  <path d="m124.5 216.18c-14.581-8.1099-99.583-57.896-103-60.328-5.3208-3.7867-10.01-10.88-13.179-19.937-5.0027-14.296-3.0258-34.146 4.1115-41.284 4.1295-4.1295 13.532-9.6346 16.456-9.6346 1.1797 0 7.1122 2.4912 13.183 5.5359l11.038 5.5359 10.195-6.1513c9.5685-5.7733 11.173-7.0256 11.991-9.357 0.18063-0.51506 4.0921 1.0013 8.6921 3.3697 7.8931 4.0639 8.4382 4.2043 9.6878 2.4953 0.72827-0.99597 1.3241-2.3598 1.3241-3.0308 0-1.9242 5.7132-6.2316 9.9486-7.5005 4.9227-1.4749 10.204-0.48131 13.879 2.6111 2.2551 1.8975 3.0196 3.5536 3.4955 7.5713 0.78433 6.6225 3.9705 10.784 11.109 14.511l5.5741 2.9097 5.4968-2.9649c3.0233-1.6307 5.4968-3.1112 5.4968-3.29 0-0.17882-1.8-2.0374-4-4.1302-3.1824-3.0273-4-4.5217-4-7.3107 0-11.019-9.4669-20.324-24.608-24.187l-4.7254-1.2055 10.689-6.3264c8.6796-5.137 11.239-6.2165 13.613-5.7416 3.7589 0.75177 37.094 15.508 76.531 33.877 17.05 7.9416 31.788 14.727 32.75 15.078 2.6814 0.97874 2.0836 4.3278-1.1885 6.6577-1.6162 1.1508-3.9787 3.942-5.25 6.2026-2.672 4.7512-2.7436 4.795-57.312 35.054-48.035 26.636-46.326 25.574-48.749 30.288-4.2396 8.2472-6.0516 20.95-3.8242 26.808 1.3328 3.5056 5.0334 4.0653 10.743 1.6248 2.6567-1.1356 26.137-14.048 52.179-28.693 35.525-19.979 47.574-27.221 48.251-29.001 0.71119-1.8706 1.3783-2.2315 3.1514-1.7048 7.8769 2.3398 5.5648 10.058-5.055 16.875-6.6525 4.27-86.775 49.508-97.087 54.817-6.8206 3.5111-11.24 3.5006-17.609-0.042zm47.952-99.598c4.564-1.907 5.9377-4.5838 3.8683-7.5383-3.6452-5.2042-16.09-7.768-22.248-4.5834-5.215 2.6968-5.1022 7.4355 0.24287 10.2 6.8724 3.5538 12.743 4.176 18.137 1.9221z" fill="#a4cbf3"/>
  <path d="m124.5 216.18c-14.581-8.1099-99.583-57.896-103-60.328-5.3208-3.7867-10.01-10.88-13.179-19.937-5.0027-14.296-3.0258-34.146 4.1115-41.284 4.118-4.118 13.53-9.6346 16.437-9.6346 1.1692 0 6.0926 2.2026 10.941 4.8946 4.8482 2.692 12.46 6.7273 16.915 8.9672l8.1001 4.0727 11.045-6.713 11.045-6.713-3.2079-3.3644-3.2079-3.3644 5.2168 2.6102c2.8692 1.4356 5.8697 2.6102 6.6676 2.6102 0.79799 0 2.2754-1.6816 3.2832-3.7368 2.6286-5.3607 7.4551-8.2641 13.73-8.2595 7.0832 0.0052 11.298 2.6855 12.105 7.6986 1.1582 7.1886 1.5035 8.1523 3.9709 11.085 1.3611 1.6176 4.9627 4.2398 8.0035 5.8271l5.5287 2.8859 5.4968-2.9649c3.0233-1.6307 5.494-3.4307 5.4905-4-3e-3 -0.56929-1.3576-1.804-3.009-2.7438-3.3911-1.9297-4.9846-5.2721-4.9846-10.455 0-5.0851-2.5549-9.7505-8.0404-14.682l-4.7963-4.3123 8.734-5.1706c4.8037-2.8438 9.3117-5.1706 10.018-5.1706 1.9387 0 18.809 6.9697 35.085 14.495 26.23 12.127 61.467 28.182 63.25 28.818 2.6831 0.95744 2.0826 4.3142-1.1885 6.6434-1.6162 1.1508-3.9787 3.942-5.25 6.2026-2.672 4.7512-2.7436 4.795-57.312 35.054-48.035 26.636-46.326 25.574-48.749 30.288-4.2396 8.2472-6.0516 20.95-3.8242 26.808 1.3328 3.5056 5.0334 4.0653 10.743 1.6248 2.6567-1.1356 26.137-14.048 52.179-28.693 35.525-19.979 47.574-27.221 48.251-29.001 0.71119-1.8706 1.3783-2.2315 3.1514-1.7048 7.8769 2.3398 5.5648 10.058-5.055 16.875-6.6525 4.27-86.775 49.508-97.087 54.817-6.8206 3.5111-11.24 3.5006-17.609-0.042zm47.952-99.598c4.564-1.907 5.9377-4.5838 3.8683-7.5383-4.7893-6.8377-22.007-8.2364-25.315-2.0565-1.5842 2.9602-0.37303 5.7686 3.309 7.6727 6.8724 3.5538 12.743 4.176 18.137 1.9221z" fill="#c7c7c7"/>
  <path d="m116 209.75c-44.926-25.97-90.025-52.389-93.577-54.818-10.421-7.1242-16.389-20.76-16.411-37.497-0.014861-11.355 1.9527-18.329 6.4355-22.812 4.1051-4.1051 13.519-9.6193 16.422-9.6193 1.1692 0 6.0926 2.2026 10.941 4.8946 4.8482 2.692 12.46 6.7273 16.915 8.9672l8.1001 4.0727 11.045-6.713 11.045-6.713-3.2079-3.3644-3.2079-3.3644 5.2168 2.6102c2.8692 1.4356 5.8697 2.6102 6.6676 2.6102 0.79799 0 2.2754-1.6816 3.2832-3.7368 2.6286-5.3607 7.4551-8.2641 13.73-8.2595 7.0832 0.0052 11.298 2.6855 12.105 7.6986 1.1582 7.1886 1.5035 8.1523 3.9709 11.085 1.3611 1.6176 4.9627 4.2398 8.0035 5.8271l5.5287 2.8859 5.4968-2.9649c3.0233-1.6307 5.494-3.4307 5.4905-4-3e-3 -0.56929-1.3576-1.804-3.009-2.7438-3.3911-1.9297-4.9846-5.2721-4.9846-10.455 0-5.0851-2.5549-9.7505-8.0404-14.682l-4.7963-4.3123 8.734-5.1706c4.8037-2.8438 9.3117-5.1706 10.018-5.1706 1.9387 0 18.809 6.9697 35.085 14.495 26.23 12.127 61.467 28.182 63.25 28.818 3.0181 1.077 2.0248 4.477-2.1069 7.2112-2.1213 1.4038-4.3187 3.5659-4.8831 4.8047-1.1002 2.4148-28.306 18.264-75.166 43.788-14.523 7.9108-27.848 15.798-29.61 17.527-4.4569 4.3726-6.9163 13.715-6.2684 23.812 0.73503 11.453 4.1356 13.909 13.074 9.4401 2.3156-1.1576 25.517-14.07 51.559-28.694 34.781-19.532 47.581-27.202 48.225-28.895 1.0054-2.6444 0.94994-2.6274 4.3611-1.3305 2.046 0.77789 2.5651 1.6504 2.5651 4.3114 0 4.1978-1.8519 6.1795-11.113 11.892-7.4312 4.5837-89.248 50.667-96.012 54.078-7.7644 3.9162-9.0676 3.6275-24.875-5.5103zm56.452-93.162c4.564-1.907 5.9377-4.5838 3.8683-7.5383-4.7893-6.8377-22.007-8.2364-25.315-2.0565-1.5842 2.9602-0.37303 5.7686 3.309 7.6727 6.8724 3.5538 12.743 4.176 18.137 1.9221z" fill="#b5c4db"/>
  <path d="m116 209.75c-44.926-25.97-90.025-52.389-93.577-54.818-4.7568-3.2519-8.1522-7.4595-11.644-14.429-3.8719-7.7286-5.0947-14.547-4.5497-25.368 0.53093-10.541 2.2655-15.94 6.5739-20.463 3.0914-3.2453 14.08-9.6689 16.541-9.6689 0.90834 0 5.6182 2.2026 10.466 4.8946 4.8482 2.692 12.46 6.7273 16.915 8.9672l8.1001 4.0727 11.045-6.713 11.045-6.713-3.2079-3.3644-3.2079-3.3644 5.2168 2.6102c2.8692 1.4356 5.8697 2.6102 6.6676 2.6102 0.79799 0 2.2754-1.6816 3.2832-3.7368 2.6286-5.3607 7.4551-8.2641 13.73-8.2595 7.0832 0.0052 11.298 2.6855 12.105 7.6986 1.1805 7.327 1.5489 8.2876 4.4422 11.583 1.6042 1.8271 5.2021 4.5658 7.9954 6.0861l5.0787 2.7642 5.4902-3.1412c3.0196-1.7276 5.4873-3.6706 5.4838-4.3178-3e-3 -0.64714-1.3576-1.9455-3.009-2.8853-3.3911-1.9297-4.9846-5.2721-4.9846-10.455 0-5.0851-2.5549-9.7505-8.0404-14.682l-4.7963-4.3123 8.9175-5.2793c7.2059-4.266 9.4455-5.1476 11.668-4.5934 4.1327 1.0304 25.497 10.261 45.751 19.766 9.9 4.6463 25.762 11.978 35.25 16.294 18.758 8.5317 19.95 9.6806 13.812 13.302-1.8909 1.1156-4.1101 3.3283-4.9317 4.917-1.6179 3.1288-24.504 16.571-75.536 44.369-14.523 7.9108-27.848 15.798-29.61 17.527-4.4569 4.3726-6.9163 13.715-6.2684 23.812 0.80038 12.472 3.8939 14.003 16.06 7.95 18.452-9.1809 97.044-54.052 97.481-55.655 1.0688-3.9221 6.2436-1.219 6.2436 3.2614 0 3.4473-2.2295 5.6877-11.113 11.167-7.4312 4.5837-89.248 50.667-96.012 54.078-7.7644 3.9162-9.0676 3.6275-24.875-5.5103zm14.747-48.064c-0.40839-1.2886-14.462-8.6808-16.505-8.6817-2.4426-1e-3 0.95673 3.6935 7.1792 7.8029 4.7386 3.1294 6.464 3.7934 7.8835 3.0337 0.99949-0.53491 1.6486-1.5046 1.4425-2.1548zm44.003-45.671c8.4998-5.1824-1.3494-13.787-14.678-12.823-6.6099 0.47812-10.072 2.6476-10.072 6.3116 0 6.9097 16.833 11.338 24.75 6.511z" fill="#9bc3f0"/>
  <path d="m116 209.75c-44.926-25.97-90.025-52.389-93.577-54.818-4.7568-3.2519-8.1522-7.4595-11.644-14.429-3.8719-7.7286-5.0947-14.547-4.5497-25.368 0.53093-10.541 2.2655-15.94 6.5739-20.463 2.9686-3.1163 14.043-9.6689 16.341-9.6689 0.79878 0 8.4055 3.8712 16.904 8.6028 18.583 10.346 28.47 15.397 30.14 15.397 1.3437 0 41.572-23.802 42.346-25.056 0.99822-1.6152-0.83879-3.8541-4.3623-5.3168-3.1932-1.3256-3.3461-1.5282-1.1721-1.5537 4.3715-0.05122 7.1606 3.0526 8.1036 9.0179 0.46895 2.9666 1.3125 5.547 1.8745 5.7344 0.56205 0.18735 1.0358 0.86563 1.0528 1.5073 0.0353 1.3332 6.8697 6.6177 11.763 9.0955 3.2357 1.6385 3.39 1.6128 8.75-1.4538 4.7957-2.7438 7.2334-5.9749 4.5077-5.9749-0.52166 0-2.0213-1.0125-3.3326-2.25-1.8099-1.7081-2.6519-4.0565-3.496-9.75-0.61151-4.125-1.3805-8.4-1.7088-9.5-0.50177-1.681 0.95723-2.9305 9.148-7.8343 7.377-4.4166 10.383-5.7066 12.373-5.3087 3.447 0.68941 18.907 7.2142 36.965 15.601 7.975 3.7037 22.262 10.263 31.75 14.576 18.758 8.5269 19.951 9.6757 13.812 13.298-1.8909 1.1156-4.1101 3.3283-4.9317 4.917-1.6179 3.1288-24.504 16.571-75.536 44.369-14.523 7.9108-27.848 15.798-29.61 17.527-4.4569 4.3726-6.9163 13.715-6.2684 23.812 0.80038 12.472 3.8939 14.003 16.06 7.95 18.452-9.1809 97.044-54.052 97.481-55.655 1.0688-3.9221 6.2436-1.219 6.2436 3.2614 0 3.4473-2.2295 5.6877-11.113 11.167-7.4312 4.5837-89.248 50.667-96.012 54.078-7.7644 3.9162-9.0676 3.6275-24.875-5.5103zm14.747-48.064c-0.40839-1.2886-14.462-8.6808-16.505-8.6817-2.4426-1e-3 0.95673 3.6935 7.1792 7.8029 4.7386 3.1294 6.464 3.7934 7.8835 3.0337 0.99949-0.53491 1.6486-1.5046 1.4425-2.1548zm44.003-45.671c8.4998-5.1824-1.3494-13.787-14.678-12.823-6.6099 0.47812-10.072 2.6476-10.072 6.3116 0 6.9097 16.833 11.338 24.75 6.511z" fill="#a4bbe7"/>
  <path d="m116 209.75c-44.926-25.97-90.025-52.389-93.577-54.818-4.7568-3.2519-8.1522-7.4595-11.644-14.429-3.8719-7.7286-5.0947-14.547-4.5497-25.368 0.53093-10.541 2.2655-15.94 6.5739-20.463 2.863-3.0054 14.012-9.6689 16.178-9.6689 0.7086 0 10.36 4.954 21.447 11.009 11.087 6.0548 21.559 11.537 23.271 12.184 2.9937 1.13 3.9006 0.70386 23.738-11.155 11.344-6.7813 20.838-12.673 21.097-13.093 0.99822-1.6152-0.83879-3.8541-4.3623-5.3168-3.3397-1.3864-3.4364-1.529-1.0682-1.5759 3.7516-0.07424 7.896 4.1246 7.896 7.9996 0 6.692 5.3669 13.295 14.249 17.53 3.4846 1.6617 3.8798 1.6638 7.4653 0.0395 2.0823-0.94326 4.9109-2.582 6.2859-3.6415l2.5-1.9265-4.1689-3.7765c-3.8016-3.4438-4.26-4.3933-5.203-10.777-0.56875-3.85-1.2989-7.9-1.6225-9-0.49342-1.6772 0.96188-2.9281 9.0163-7.75 5.2826-3.1625 10.239-5.75 11.015-5.75 2.3168 0 15.963 5.6883 32.463 13.532 8.525 4.0525 24.275 11.365 35 16.25 11.662 5.3114 19.62 9.5009 19.799 10.423 0.17264 0.89058-1.1732 2.4097-3.188 3.5984-1.9177 1.1315-4.1589 3.357-4.9804 4.9458-1.6179 3.1288-24.504 16.571-75.536 44.369-14.523 7.9108-27.848 15.798-29.61 17.527-4.4569 4.3726-6.9163 13.715-6.2684 23.812 0.53419 8.3238 2.3364 11.545 6.4595 11.545 1.3008 0 6.3135-1.9831 11.139-4.4068 15.333-7.7008 94.621-52.593 96.224-54.481 2.296-2.7044 5.961-1.0647 5.961 2.6668 0 3.6849-2.1026 5.8416-11.113 11.399-7.4312 4.5837-89.248 50.667-96.012 54.078-7.7644 3.9162-9.0676 3.6275-24.875-5.5103zm14.747-48.064c-0.40839-1.2886-14.462-8.6808-16.505-8.6817-2.4426-1e-3 0.95673 3.6935 7.1792 7.8029 4.7386 3.1294 6.464 3.7934 7.8835 3.0337 0.99949-0.53491 1.6486-1.5046 1.4425-2.1548zm42.097-44.237c4.4172-1.7674 6.2956-4.8365 5.039-8.2333-1.1273-3.0472-10.138-7.1901-15.665-7.2027-11.384-0.026-16.884 7.5317-9.3722 12.88 5.6459 4.0202 13.75 5.0558 19.998 2.5556z" fill="#94baed"/>
  <path d="m116 209.75c-44.926-25.97-90.025-52.389-93.577-54.818-4.7568-3.2519-8.1522-7.4595-11.644-14.429-3.8719-7.7286-5.0947-14.547-4.5497-25.368 0.53093-10.541 2.2655-15.94 6.5739-20.463 2.7765-2.9147 13.987-9.6689 16.048-9.6689 0.63737 0 6.6691 3.0877 13.404 6.8616 19.117 10.712 40.023 21.824 42.474 22.576 1.7274 0.52981 6.0553-1.6087 19.25-9.5119 10.496-6.2869 17.022-10.799 17.022-11.769 0-1.042 1.4354-0.20402 4.25 2.481 5.14 4.9033 10.749 8.3621 13.561 8.3621 2.1221 0 8.2719-3.1407 11.477-5.8615 1.6854-1.4305 1.5563-1.7228-2.243-5.0782-3.0736-2.7145-4.1614-4.5105-4.5789-7.5603l-0.5476-4 14.074-8.3164c16.156-9.5465 13.936-9.4071 30.002-1.8843 4.6779 2.1904 20.205 9.2891 34.505 15.775 14.455 6.5561 26.133 12.431 26.299 13.232 0.16432 0.79167-1.2703 2.3651-3.188 3.4966-1.9177 1.1315-4.1589 3.357-4.9804 4.9458-1.6179 3.1288-24.504 16.571-75.536 44.369-14.523 7.9108-27.848 15.798-29.61 17.527-4.4569 4.3726-6.9163 13.715-6.2684 23.812 0.53419 8.3238 2.3364 11.545 6.4595 11.545 1.3008 0 6.3135-1.9831 11.139-4.4068 15.333-7.7008 94.621-52.593 96.224-54.481 2.296-2.7044 5.961-1.0647 5.961 2.6668 0 3.6849-2.1026 5.8416-11.113 11.399-7.4312 4.5837-89.248 50.667-96.012 54.078-7.7644 3.9162-9.0676 3.6275-24.875-5.5103zm14.747-48.064c-0.40839-1.2886-14.462-8.6808-16.505-8.6817-2.4426-1e-3 0.95673 3.6935 7.1792 7.8029 4.7386 3.1294 6.464 3.7934 7.8835 3.0337 0.99949-0.53491 1.6486-1.5046 1.4425-2.1548zm42.907-44.612c4.9331-2.2399 6.2022-5.1155 3.8452-8.7127-4.2646-6.5086-20.403-8.6142-25.966-3.3878-3.1246 2.9354-3.1988 5.1629-0.28231 8.4708 4.6312 5.2528 15.095 6.9481 22.403 3.6298z" fill="#a8b9d4"/>
  <path d="m116 209.75c-44.926-25.97-90.025-52.389-93.577-54.818-6.9563-4.7555-12.975-14.447-15.423-24.836-2.8106-11.925 0.48958-30.606 6.3314-35.839 2.8464-2.5497 14.115-9.2537 15.555-9.2537 0.61828 0 6.6344 3.0877 13.369 6.8616 19.117 10.712 40.023 21.824 42.474 22.576 1.7274 0.52981 6.0553-1.6087 19.25-9.5119 10.496-6.2869 17.022-10.799 17.022-11.769 0-1.042 1.4354-0.20402 4.25 2.481 5.14 4.9033 10.749 8.3621 13.561 8.3621 2.1221 0 8.2719-3.1407 11.477-5.8615 1.6854-1.4305 1.5563-1.7228-2.243-5.0782-3.0736-2.7145-4.1614-4.5105-4.5789-7.5603l-0.5476-4 14.074-8.3164c16.575-9.7943 12.748-9.9766 38.007 1.8107 9.075 4.2349 24.375 11.217 34 15.515 9.625 4.2984 17.95 8.2243 18.5 8.7242 0.64059 0.58219-0.36284 2.0084-2.7918 3.9682-2.0855 1.6826-4.4173 4.2688-5.1817 5.747-1.4994 2.8996-25.922 17.2-75.433 44.168-14.523 7.9108-27.848 15.798-29.61 17.527-4.4569 4.3726-6.9163 13.715-6.2684 23.812 0.804 12.528 4.4871 14.236 17.06 7.9091 15.595-7.8476 94.345-52.651 96.29-54.783 2.8253-3.0962 6.4351-1.8635 6.4351 2.1974 0 3.6849-2.1026 5.8416-11.113 11.399-7.4312 4.5837-89.248 50.667-96.012 54.078-7.7644 3.9162-9.0676 3.6275-24.875-5.5103zm15.969-48.402c0.03398-1.2501-27.054-15.344-29.49-15.344-4.251 0-0.19624 3.7348 13.93 12.831 10.634 6.847 10.966 6.9816 13.219 5.3466 1.2706-0.92249 2.3244-2.1974 2.3417-2.8332zm41.685-44.274c4.9331-2.2399 6.2022-5.1155 3.8452-8.7127-4.2646-6.5086-20.403-8.6142-25.966-3.3878-3.1246 2.9354-3.1988 5.1629-0.28231 8.4708 4.6312 5.2528 15.095 6.9481 22.403 3.6298z" fill="#8bb3eb"/>
  <path d="m116 209.75c-44.926-25.97-90.025-52.389-93.577-54.818-4.7568-3.2519-8.1522-7.4595-11.644-14.429-3.9181-7.8208-5.1255-14.614-4.4902-25.262 0.91358-15.313 4.3857-20.685 18.271-28.27l4.2214-2.306 26.36 14.553c14.498 8.004 30.056 16.402 34.575 18.663l8.215 4.11 3.7024-2.5125c2.0363-1.3819 8.802-5.4738 15.035-9.0932 10.534-6.1172 12.846-8.328 10.333-9.8814-0.55-0.33992-1-1.033-1-1.5401s2.9227 0.68445 6.4949 2.648l6.4948 3.57 6.5052-3.6379c3.5778-2.0008 6.5051-4.2211 6.5051-4.934s-0.90317-2.1134-2.007-3.1124c-1.9721-1.7847-1.7016-1.999 15.523-12.298l17.53-10.481 3.7269 1.5288c2.0498 0.84085 13.627 5.9181 25.727 11.283s24.915 11.01 28.477 12.545c3.5624 1.5351 6.6156 3.2066 6.7849 3.7144 0.16927 0.50779-1.2834 2.1369-3.2282 3.6203-1.9448 1.4834-4.1797 3.9419-4.9666 5.4635-1.5459 2.9895-25.349 16.944-75.473 44.247-14.523 7.9108-27.848 15.798-29.61 17.527-4.4569 4.3726-6.9163 13.715-6.2684 23.812 0.804 12.528 4.4871 14.236 17.06 7.9091 12.501-6.2907 94.121-52.502 96.386-54.571 3.0278-2.7668 5.7686-1.9952 6.1348 1.7272 0.37734 3.8344-1.5305 5.8734-10.909 11.658-7.4312 4.5837-89.248 50.667-96.012 54.078-7.7644 3.9162-9.0676 3.6275-24.875-5.5103zm15.969-48.402c0.03398-1.2501-27.054-15.344-29.49-15.344-4.251 0-0.19624 3.7348 13.93 12.831 10.634 6.847 10.966 6.9816 13.219 5.3466 1.2706-0.92249 2.3244-2.1974 2.3417-2.8332zm43.416-44.86c1.4514-0.95098 2.9264-2.8744 3.2777-4.2743 1.376-5.4825-11.422-12.422-19.939-10.813-1.7726 0.33502-4.6855 1.5012-6.473 2.5915-6.0622 3.6977-3.4317 10.323 5.4052 13.614 4.8444 1.804 14.167 1.2159 17.729-1.1186z" fill="#b8b8b8"/>
  <path d="m120.42 211.25c-64.976-37.191-98.282-57.172-102.47-61.473-8.758-8.9915-12.587-20.527-11.645-35.077 0.95912-14.804 4.5361-20.239 18.253-27.732l4.2214-2.306 26.36 14.553c14.498 8.004 30.056 16.402 34.575 18.663l8.215 4.11 3.7024-2.5125c2.0363-1.3819 8.802-5.4738 15.035-9.0932 10.534-6.1172 12.846-8.328 10.333-9.8814-0.55-0.33992-1-1.033-1-1.5401s2.9227 0.68445 6.4949 2.648l6.4948 3.57 6.5052-3.6379c3.5778-2.0008 6.5051-4.2211 6.5051-4.934s-0.90317-2.1134-2.007-3.1124c-1.9721-1.7847-1.7016-1.999 15.523-12.298l17.53-10.481 3.7269 1.5288c2.0498 0.84085 13.627 5.9181 25.727 11.283s24.925 11.014 28.5 12.555 6.5 3.2199 6.5 3.7322c0 3.0009-13.277 11.652-45.5 29.649-58.981 32.941-66.997 37.665-69.483 40.953-3.3676 4.4534-4.8459 10.822-4.9126 21.163-0.0993 15.386 3.7995 17.766 17.671 10.786 12.176-6.1271 94.092-52.475 96.289-54.48 4.2562-3.8841 7.7043-1.3612 5.4797 4.0094-1.406 3.3944-9.2242 8.1353-64.523 39.126-40.176 22.516-46.802 25.955-50.037 25.971-1.1087 5e-3 -6.5363-2.5777-12.061-5.7402zm11.546-49.906c0.03398-1.2501-27.054-15.344-29.49-15.344-4.251 0-0.19624 3.7348 13.93 12.831 10.634 6.847 10.966 6.9816 13.219 5.3466 1.2706-0.92249 2.3244-2.1974 2.3417-2.8332zm43.416-44.86c1.4514-0.95098 2.9264-2.8744 3.2777-4.2743 1.376-5.4825-11.422-12.422-19.939-10.813-1.7726 0.33502-4.6855 1.5012-6.473 2.5915-6.0622 3.6977-3.4317 10.323 5.4052 13.614 4.8444 1.804 14.167 1.2159 17.729-1.1186z" fill="#83aae8"/>
  <path d="m120.42 211.25c-64.976-37.191-98.282-57.172-102.47-61.473-8.758-8.9915-12.587-20.527-11.645-35.077 0.95781-14.784 4.5427-20.242 18.191-27.698l4.1599-2.2724 27.421 15.303c35.754 19.953 52.053 28.355 52.809 27.223 0.33662-0.50411 7.3072-4.9118 15.49-9.7948 14.606-8.716 14.836-8.9064 12.554-10.419-1.2781-0.84757-3.2482-2.3243-4.3781-3.2816-1.957-1.6582-1.8366-1.6624 2.5448-0.0902l4.599 1.6503 5.5227-3.1598c3.0375-1.7379 6.5929-3.1602 7.901-3.1607 1.308-5.61e-4 10.703-5.0115 20.878-11.135l18.5-11.134 6.5 2.2202c8.0338 2.7441 41.15 16.896 42.45 18.141 0.5225 0.50018 1.9584 0.90943 3.191 0.90943s2.545 0.49196 2.9166 1.0932c1.5884 2.5702-10.554 10.655-45.058 30.003-60.847 34.12-67.517 38.057-69.983 41.319-3.3676 4.4534-4.8459 10.822-4.9126 21.163-0.0993 15.386 3.7995 17.766 17.671 10.786 12.176-6.1271 94.092-52.475 96.289-54.48 4.2562-3.8841 7.7043-1.3612 5.4797 4.0094-1.406 3.3944-9.2242 8.1353-64.523 39.126-40.176 22.516-46.802 25.955-50.037 25.971-1.1087 5e-3 -6.5363-2.5777-12.061-5.7402zm11.546-49.906c0.03398-1.2501-27.054-15.344-29.49-15.344-4.251 0-0.19624 3.7348 13.93 12.831 10.634 6.847 10.966 6.9816 13.219 5.3466 1.2706-0.92249 2.3244-2.1974 2.3417-2.8332zm43.372-44.794c2.513-1.6935 3.1597-2.8277 3.1597-5.5419 0-2.8902-0.66372-3.8791-4.3361-6.4602-3.9925-2.806-4.9965-3.0476-12.669-3.0476-7.4432 0-8.6089 0.25895-10.914 2.4243-6.9642 6.5425 1.909 15.207 15.26 14.9 4.6372-0.10644 7.1891-0.71751 9.5-2.2748z" fill="#91a9ce"/>
  <path d="m120.42 211.25c-64.976-37.191-98.282-57.172-102.47-61.473-8.5914-8.8205-12.623-20.664-11.635-34.184 0.72569-9.9382 2.9697-16.725 6.795-20.55 3.7033-3.7033 12.994-9.0428 15.734-9.0428 1.1561 0 13.476 6.3569 27.378 14.126 34.091 19.053 51.923 28.24 52.662 27.132 0.33781-0.50603 7.3093-4.9152 15.492-9.7982 14.606-8.716 14.836-8.9064 12.554-10.419-1.2781-0.84757-3.2482-2.3243-4.3781-3.2816-1.957-1.6582-1.8366-1.6624 2.5448-0.0902l4.599 1.6503 5.5227-3.1598c3.0375-1.7379 6.5929-3.1602 7.901-3.1607 1.308-5.61e-4 10.703-5.0115 20.878-11.135l18.5-11.134 6.5 2.2309c6.457 2.2161 27.013 10.78 38.5 16.039 3.3 1.5109 6.7875 3.0151 7.75 3.3426 2.447 0.83264 2.1815 3.3624-0.5 4.7638-1.2375 0.64674-3.375 2.4116-4.75 3.922-1.375 1.5104-18.475 11.637-38 22.504-57.825 32.183-66.974 37.566-69.483 40.884-3.3676 4.4534-4.8459 10.822-4.9126 21.163-0.0977 15.132 3.529 17.53 16.99 11.231 10.176-4.7618 96.731-53.625 98.016-55.334 2.677-3.5579 6.2655-4e-3 4.4418 4.3989-1.4152 3.4165-9.1427 8.1041-64.531 39.145-40.176 22.516-46.802 25.955-50.037 25.971-1.1087 5e-3 -6.5363-2.5777-12.061-5.7402zm10.59-47.763c1.4265-1.5185 1.9903-2.8541 1.4243-3.3744-1.6946-1.5578-29.007-15.906-35.397-18.596-10.025-4.2194-9.6134-1.0043 0.80759 6.3119 8.4722 5.948 28.414 18.122 29.729 18.149 0.59162 0.0122 2.1382-1.1088 3.4368-2.4911zm44.09-46.777c2.7527-1.8551 3.3979-2.9378 3.3979-5.7024 0-2.8902-0.66372-3.8791-4.3361-6.4602-3.9925-2.806-4.9965-3.0476-12.669-3.0476-7.4432 0-8.6089 0.25895-10.914 2.4243-6.8485 6.4339 1.66 14.951 15.022 15.037 4.7473 0.0305 6.8565-0.46926 9.5-2.2507z" fill="#7ca3e6"/>
  <path d="m120.42 211.25c-64.976-37.191-98.282-57.172-102.47-61.473-8.5914-8.8205-12.623-20.664-11.635-34.184 0.72569-9.9382 2.9697-16.725 6.795-20.55 3.6977-3.6977 12.993-9.0428 15.725-9.0428 1.1509 0 12.01 5.6069 24.132 12.46 37.907 21.43 61.149 33.764 63.891 33.905 2.9992 0.15397 31.12-16.121 31.133-18.018 4e-3 -0.66621 2.2264 0.0249 5.2577 1.6353 2.8875 1.534 6.9058 3.0802 8.9296 3.4359 4.8851 0.85868 12.145-1.0621 15.393-4.0727 3.4062-3.1568 2.6827-6.6992-2.2373-10.954l-3.5953-3.1088 15.188-9.1412c8.3534-5.0276 16.233-9.1412 17.511-9.1412 2.6355 0 10.865 2.9801 27.561 9.9806 6.325 2.652 12.288 5.0772 13.25 5.3893 2.4491 0.79408 2.1808 3.3347-0.5 4.7357-1.2375 0.64674-3.375 2.4116-4.75 3.922-1.375 1.5104-18.475 11.637-38 22.504-57.825 32.183-66.974 37.566-69.483 40.884-3.3676 4.4534-4.8459 10.822-4.9126 21.163-0.0977 15.132 3.529 17.53 16.99 11.231 10.176-4.7618 96.731-53.625 98.016-55.334 2.677-3.5579 6.2655-4e-3 4.4418 4.3989-1.4152 3.4165-9.1427 8.1041-64.531 39.145-40.176 22.516-46.802 25.955-50.037 25.971-1.1087 5e-3 -6.5363-2.5777-12.061-5.7402zm10.59-47.763c1.4265-1.5185 1.9903-2.8541 1.4243-3.3744-1.6946-1.5578-29.007-15.906-35.397-18.596-10.025-4.2194-9.6134-1.0043 0.80759 6.3119 8.4722 5.948 28.414 18.122 29.729 18.149 0.59162 0.0122 2.1382-1.1088 3.4368-2.4911z" fill="#a7a7a8"/>
  <path d="m127 214.25c-1.925-1.0307-22.4-12.914-45.5-26.408s-45.825-26.728-50.5-29.409c-18.388-10.548-26.069-23.878-24.684-42.843 0.72569-9.9382 2.9697-16.725 6.795-20.55 3.6977-3.6977 12.993-9.0428 15.725-9.0428 1.1509 0 12.01 5.6069 24.132 12.46 37.907 21.43 61.149 33.764 63.891 33.905 2.9992 0.15397 31.12-16.121 31.133-18.018 4e-3 -0.66621 2.2264 0.0249 5.2577 1.6353 2.8875 1.534 6.9058 3.0802 8.9296 3.4359 4.8851 0.85868 12.145-1.0621 15.393-4.0727 3.4062-3.1568 2.6827-6.6992-2.2373-10.954l-3.5953-3.1088 15.188-9.1412c8.3534-5.0276 16.233-9.1412 17.511-9.1412 2.6355 0 10.865 2.9801 27.561 9.9806 6.325 2.652 12.288 5.0772 13.25 5.3893 2.4484 0.79387 2.181 3.3324-0.5 4.7471-1.2375 0.65301-3.1508 2.1465-4.2518 3.3189-1.101 1.1724-6.051 4.3338-11 7.0253-15.487 8.4228-65.325 36.335-80.745 45.222-8.1106 4.6744-15.586 9.6955-16.611 11.158-3.3564 4.7866-4.6001 10.358-4.6215 20.703-0.0336 16.248 3.357 18.684 17.073 12.265 10.622-4.9704 96.76-53.663 98.108-55.459 1.3333-1.776 4.0352-1.1987 4.8967 1.0464 1.6094 4.1942-1.2238 5.9946-70.901 45.055-24.976 14.002-40.12 21.917-42.5 22.213-2.4459 0.30487-4.8832-0.1736-7.1981-1.413zm4.0124-50.765c1.4265-1.5185 1.9903-2.8541 1.4243-3.3744-1.6946-1.5578-29.007-15.906-35.397-18.596-10.025-4.2194-9.6134-1.0043 0.80759 6.3119 8.4722 5.948 28.414 18.122 29.729 18.149 0.59162 0.0122 2.1382-1.1088 3.4368-2.4911z" fill="#749be3"/>
  <path d="m127 214.25c-1.925-1.0307-22.4-12.914-45.5-26.408s-45.825-26.728-50.5-29.409c-18.388-10.548-26.069-23.878-24.684-42.843 0.72569-9.9382 2.9697-16.725 6.795-20.55 3.761-3.761 13.01-9.0428 15.835-9.0428 1.2112 0 9.4814 4.21 18.378 9.3556 46.206 26.724 81.516 45.513 82.521 43.912 0.36036-0.5739 6.5052-4.542 13.655-8.818s13.207-7.9464 13.461-8.1564-0.87149-1.5231-2.5-2.9178c-2.1452-1.8373-2.4099-2.3524-0.96092-1.8699 5.3564 1.7838 12.384 2.7387 15.649 2.1262 5.3048-0.99518 10.131-4.6267 11.227-8.4471 0.82669-2.8825 2.9694-4.4943 17.721-13.33 16.775-10.048 16.781-10.05 20.592-8.8302 8.419 2.696 19.902 7.3163 21.39 8.6065 0.86831 0.75283 2.7808 1.3688 4.25 1.3688 3.3195 0 3.5707 2.455 0.42126 4.1169-1.2375 0.65301-3.1508 2.1465-4.2518 3.3189-1.101 1.1724-6.051 4.3338-11 7.0253-15.487 8.4228-65.325 36.335-80.745 45.222-8.1106 4.6744-15.586 9.6955-16.611 11.158-3.3564 4.7866-4.6001 10.358-4.6215 20.703-0.035 16.948 3.4203 18.949 19.242 11.148 11.363-5.6032 90.728-50.221 95.08-53.453 3.0918-2.2959 3.4652-2.3597 4.9751-0.84991 3.0414 3.0414-0.51739 6.4305-16.503 15.716-42.348 24.599-92.702 52.134-96.116 52.56-2.4459 0.30487-4.8832-0.1736-7.1981-1.413zm4.0124-50.765c1.4265-1.5185 1.9903-2.8541 1.4243-3.3744-1.6946-1.5578-29.007-15.906-35.397-18.596-10.025-4.2194-9.6134-1.0043 0.80759 6.3119 8.4722 5.948 28.414 18.122 29.729 18.149 0.59162 0.0122 2.1382-1.1088 3.4368-2.4911z" fill="#9ba2ae"/>
  <path d="m126 213.68c-8.2948-4.5579-95.43-55.467-101.18-59.112-7.0267-4.458-14.213-13.761-16.549-21.423-2.3126-7.5863-2.2441-22.778 0.13473-29.904 0.96486-2.8903 3.0711-6.5719 4.6805-8.1813 3.7785-3.7785 13.024-9.0635 15.855-9.0635 1.2112 0 9.4814 4.21 18.378 9.3556 46.206 26.724 81.516 45.513 82.521 43.912 0.36036-0.5739 6.5052-4.542 13.655-8.818s13.207-7.9464 13.461-8.1564-0.87149-1.5231-2.5-2.9178c-2.1452-1.8373-2.4099-2.3524-0.96092-1.8699 5.3564 1.7838 12.384 2.7387 15.649 2.1262 5.3048-0.99518 10.131-4.6267 11.227-8.4471 0.82669-2.8825 2.9694-4.4943 17.721-13.33 16.775-10.048 16.781-10.05 20.592-8.8302 8.419 2.696 19.902 7.3163 21.39 8.6065 0.86831 0.75283 2.7808 1.3688 4.25 1.3688 1.5585 0 2.6713 0.55506 2.6713 1.3325 0 2.3792-7.5695 6.9313-63.5 38.188-35.555 19.87-46.171 26.08-49.386 28.893-4.103 3.5893-6.3742 10.215-6.8807 20.074-0.60325 11.741 0.73113 16.841 4.8532 18.549 2.8023 1.1608 3.706 0.97395 10.243-2.1174 9.2661-4.3817 95.125-52.422 99.513-55.68 2.8251-2.0977 3.5503-2.2696 4.6831-1.1104 1.1046 1.1303 1.1136 1.8993 0.051 4.3716-1.4632 3.4045-6.3369 6.3304-69.879 41.952-24.711 13.853-40.145 21.925-42.5 22.229-2.7043 0.34836-4.9075-0.18815-8.1981-1.9963zm5.0124-50.198c1.4265-1.5185 1.9903-2.8541 1.4243-3.3744-1.6946-1.5578-29.007-15.906-35.397-18.596-10.025-4.2194-9.6134-1.0043 0.80759 6.3119 8.4722 5.948 28.414 18.122 29.729 18.149 0.59162 0.0122 2.1382-1.1088 3.4368-2.4911z" fill="#839cc8"/>
  <path d="m127 214.25c-1.925-1.0307-22.4-12.914-45.5-26.408s-45.825-26.728-50.5-29.409c-9.7786-5.6091-16.943-12.554-20.476-19.848-6.608-13.644-5.238-34.572 2.8427-43.425 2.3752-2.6022 13.583-9.1631 15.653-9.1631 0.73035 0 7.4371 3.4438 14.904 7.653 63.786 35.957 84.935 47.185 85.921 45.615 0.36036-0.5739 6.5052-4.542 13.655-8.818s13.207-7.9464 13.461-8.1564-0.87149-1.5231-2.5-2.9178c-2.1452-1.8373-2.4099-2.3524-0.96092-1.8699 5.3564 1.7838 12.384 2.7387 15.649 2.1262 5.3048-0.99518 10.131-4.6267 11.227-8.4471 0.82669-2.8825 2.9694-4.4943 17.721-13.33 16.775-10.048 16.781-10.05 20.592-8.8302 8.419 2.696 19.902 7.3163 21.39 8.6065 0.86831 0.75283 2.7808 1.3688 4.25 1.3688 3.6729 0 3.3664 0.99553-1.5787 5.1282-4.3698 3.6518-8.0571 5.7924-59.25 34.395-35.533 19.853-46.168 26.075-49.386 28.889-4.103 3.5893-6.3742 10.215-6.8807 20.074-0.60036 11.685 0.73606 16.843 4.8002 18.527 2.7691 1.147 3.7876 0.89631 12.243-3.014 11.105-5.1355 91.766-50.146 96.723-53.974 1.925-1.4865 4.0625-2.5128 4.75-2.2808 1.8625 0.62857 1.5102 4.995-0.57095 7.0761-4.5699 4.5699-106.3 61.261-110.98 61.844-2.4459 0.30487-4.8832-0.1736-7.1981-1.413zm4-50.217c2.3188-1.9288 3.1625-3.2434 2.5-3.8954-2.965-2.9181-47.393-25.976-53.25-27.636-3.3978-0.9632-2.8529 1.7604 1.0352 5.1742 4.25 3.7316 43.792 29 45.715 29.214 0.275 0.0305 2.075-1.2547 4-2.8558z" fill="#6b93e1"/>
  <path d="m127 214.25c-1.925-1.0307-22.4-12.914-45.5-26.408s-45.825-26.728-50.5-29.409c-9.7786-5.6091-16.943-12.554-20.476-19.848-6.608-13.644-5.238-34.572 2.8427-43.425 2.3611-2.5868 13.578-9.1631 15.629-9.1631 0.7171 0 16.874 8.723 35.904 19.384 38.379 21.502 65.655 36.488 71.328 39.19 3.3727 1.6062 3.8971 1.6281 5.5 0.22936 3.7573-3.2787 84.503-50.803 86.316-50.803 2.0213 0 9.8867 2.8016 11.27 4.0143 0.44766 0.39246-11.027 7.3604-25.5 15.484-28.656 16.085-42.814 24.382-42.814 25.089 0 0.75185 7.044-3.0518 40.241-21.729 28.64-16.114 35.759-19.512 35.759-17.07 0 0.43353-1.9125 2.3865-4.25 4.34-4.3698 3.6518-8.0571 5.7924-59.25 34.395-35.533 19.853-46.168 26.075-49.386 28.889-4.103 3.5893-6.3742 10.215-6.8807 20.074-0.60036 11.685 0.73606 16.843 4.8002 18.527 2.7691 1.147 3.7876 0.89631 12.243-3.014 11.105-5.1355 91.766-50.146 96.723-53.974 1.925-1.4865 4.0625-2.5128 4.75-2.2808 1.8625 0.62857 1.5102 4.995-0.57095 7.0761-4.5699 4.5699-106.3 61.261-110.98 61.844-2.4459 0.30487-4.8832-0.1736-7.1981-1.413zm4-50.217c2.3188-1.9288 3.1625-3.2434 2.5-3.8954-2.965-2.9181-47.393-25.976-53.25-27.636-3.3978-0.9632-2.8529 1.7604 1.0352 5.1742 4.25 3.7316 43.792 29 45.715 29.214 0.275 0.0305 2.075-1.2547 4-2.8558zm29.5-42.981c-1.497-0.68346-0.55887-0.9308 3.7298-0.9834 3.1514-0.0387 7.5575-0.80162 9.7915-1.6955 4.8531-1.9418 6.2318-1.242 2.4434 1.2403-3.0351 1.9887-12.827 2.871-15.965 1.4386z" fill="#658de0"/>
  <path d="m127 214.25c-1.925-1.0307-22.4-12.914-45.5-26.408s-45.825-26.728-50.5-29.409c-9.7786-5.6091-16.943-12.554-20.476-19.848-6.608-13.644-5.238-34.572 2.8427-43.425 2.3611-2.5868 13.578-9.1631 15.629-9.1631 0.7171 0 16.874 8.7252 35.904 19.389 19.03 10.664 44.05 24.552 55.6 30.862s22.594 12.424 24.543 13.587l3.5427 2.114 9.9573-5.5879c5.4765-3.0733 15.807-8.8391 22.957-12.813 7.15-3.9737 23.907-13.374 37.238-20.889 21.884-12.337 28.262-15.243 28.262-12.875 0 0.43353-1.9125 2.3865-4.25 4.34-4.3698 3.6518-8.0571 5.7924-59.25 34.395-35.533 19.853-46.168 26.075-49.386 28.889-4.103 3.5893-6.3742 10.215-6.8807 20.074-0.60036 11.685 0.73606 16.843 4.8002 18.527 2.7691 1.147 3.7876 0.89631 12.243-3.014 11.105-5.1355 91.766-50.146 96.723-53.974 1.925-1.4865 4.0625-2.5128 4.75-2.2808 1.8625 0.62857 1.5102 4.995-0.57095 7.0761-4.5699 4.5699-106.3 61.261-110.98 61.844-2.4459 0.30487-4.8832-0.1736-7.1981-1.413zm4-50.217c2.3188-1.9288 3.1625-3.2434 2.5-3.8954-2.965-2.9181-47.393-25.976-53.25-27.636-3.3978-0.9632-2.8529 1.7604 1.0352 5.1742 4.25 3.7316 43.792 29 45.715 29.214 0.275 0.0305 2.075-1.2547 4-2.8558zm32.812-43.718c0.72187-0.28887 1.5844-0.25335 1.9167 0.0789 0.33229 0.3323-0.25834 0.56864-1.3125 0.52522-1.165-0.048-1.4019-0.28494-0.60417-0.60416z" fill="#8c97ab"/>
  <path d="m127 214.25c-1.925-1.0307-22.4-12.914-45.5-26.408s-45.825-26.731-50.5-29.416c-10.468-6.0125-16.393-11.948-20.392-20.429-2.6911-5.707-3.1112-7.7966-3.443-17.128-0.43347-12.189 1.2381-19.821 5.4337-24.807 2.5962-3.0854 13.967-10.065 16.397-10.065 0.7171 0 16.874 8.7252 35.904 19.389 19.03 10.664 44.05 24.552 55.6 30.862s22.594 12.424 24.543 13.587l3.5427 2.114 9.9573-5.5879c5.4765-3.0733 15.807-8.8391 22.957-12.813 7.15-3.9737 23.907-13.374 37.238-20.889 22.006-12.405 28.262-15.246 28.262-12.831 0 1.7183-7.9948 7.0408-23.5 15.645-72.66 40.32-88.874 49.826-91.975 53.928-3.3366 4.4123-4.8017 10.754-4.8735 21.095-0.0771 11.095 1.3418 14.622 6.3858 15.872 3.093 0.76674 4.5998 0.32798 12.49-3.6369 13.76-6.9146 94.706-52.61 96.988-54.752 2.9884-2.8046 5.1034-1.1326 3.8954 3.0794-0.81089 2.8274-2.8187 4.3336-15.919 11.942-42.624 24.754-92.875 52.234-96.293 52.661-2.4459 0.30487-4.8832-0.1736-7.1981-1.413zm4-50.217c2.3188-1.9288 3.1625-3.2434 2.5-3.8954-2.965-2.9181-47.393-25.976-53.25-27.636-3.3978-0.9632-2.8529 1.7604 1.0352 5.1742 4.25 3.7316 43.792 29 45.715 29.214 0.275 0.0305 2.075-1.2547 4-2.8558zm32.812-43.718c0.72187-0.28887 1.5844-0.25335 1.9167 0.0789 0.33229 0.3323-0.25834 0.56864-1.3125 0.52522-1.165-0.048-1.4019-0.28494-0.60417-0.60416z" fill="#688ed8"/>
  <path d="m127 214.25c-1.925-1.0307-22.4-12.914-45.5-26.408s-45.825-26.731-50.5-29.416c-10.468-6.0125-16.393-11.948-20.392-20.429-2.6911-5.707-3.1112-7.7966-3.443-17.128-0.43347-12.189 1.2381-19.821 5.4337-24.807 2.4571-2.9201 13.918-10.065 16.145-10.065 0.57845 0 14.485 7.5798 30.904 16.844 29.955 16.902 74.579 41.67 83.766 46.493l4.9134 2.5794 13.587-7.1079c7.4726-3.9094 29.134-15.816 48.137-26.458 19.003-10.643 35.09-19.35 35.75-19.35 4.7897 0-3.0637 5.8028-22.3 16.477-72.66 40.32-88.874 49.826-91.975 53.928-3.3366 4.4123-4.8017 10.754-4.8735 21.095-0.0771 11.095 1.3418 14.622 6.3858 15.872 3.0929 0.76671 4.6001 0.32794 12.49-3.6362 7.4985-3.7674 92.085-50.978 98.381-54.91 2.6987-1.6853 3.5788-0.51337 2.4832 3.3066-1.0501 3.6614-5.1652 6.1605-69.693 42.325-24.97 13.994-40.12 21.911-42.5 22.208-2.4459 0.30487-4.8832-0.1736-7.1981-1.413zm4-50.217c2.3188-1.9288 3.1625-3.2434 2.5-3.8954-2.965-2.9181-47.393-25.976-53.25-27.636-3.3978-0.9632-2.8529 1.7604 1.0352 5.1742 4.25 3.7316 43.792 29 45.715 29.214 0.275 0.0305 2.075-1.2547 4-2.8558z" fill="#979797"/>
  <path d="m76.482 184.14c-29.14-16.975-55.101-32.746-57.692-35.047-2.9318-2.6038-5.9491-6.6998-7.9914-10.848-2.9657-6.0243-3.3162-7.6902-3.6462-17.331-0.41859-12.23 1.255-19.864 5.4465-24.846 2.4571-2.9201 13.918-10.065 16.145-10.065 0.57845 0 14.485 7.5798 30.904 16.844 29.955 16.902 74.579 41.67 83.766 46.493l4.9134 2.5794 13.587-7.1079c7.4726-3.9094 29.134-15.816 48.137-26.458 19.003-10.643 35.09-19.35 35.75-19.35 4.7897 0-3.0637 5.8028-22.3 16.477-72.66 40.32-88.874 49.826-91.975 53.928-6.1157 8.0872-7.0267 31.19-1.4134 35.845 3.1965 2.6509 6.1127 2.1599 15.659-2.6362 7.3272-3.6814 91.958-50.929 98.138-54.788 2.6277-1.641 3.6936-0.4345 2.5284 2.862-1.1687 3.3061-3.6532 4.8316-53.936 33.118-54.765 30.807-55.436 31.159-59.518 31.178-2.8195 0.0134-14.041-6.1128-56.5-30.846zm54.518-20.102c2.3188-1.9288 3.1625-3.2434 2.5-3.8954-2.965-2.9181-47.393-25.976-53.25-27.636-3.3978-0.9632-2.8529 1.7604 1.0352 5.1742 4.25 3.7316 43.792 29 45.715 29.214 0.275 0.0305 2.075-1.2547 4-2.8558z" fill="#6d88b5"/>
  <path d="m76.482 184.14c-29.14-16.975-55.101-32.746-57.692-35.047-2.9272-2.5997-5.9487-6.699-7.9818-10.829-2.9122-5.9156-3.313-7.7637-3.6484-16.824-0.40921-11.055 1.2936-19.456 4.9976-24.658 1.9074-2.6787 14.344-10.779 16.549-10.779 0.59931 0 14.523 7.5798 30.942 16.844 29.955 16.902 74.579 41.67 83.766 46.493l4.9134 2.5794 13.587-7.1079c7.4726-3.9094 29.134-15.816 48.137-26.458 19.003-10.643 35.09-19.35 35.75-19.35 2.5384 0 0.99239 2.0281-4.0504 5.3135-2.8875 1.8812-23.7 13.674-46.25 26.206-53.724 29.857-62.968 35.733-65.883 41.875-4.4006 9.2735-4.1068 29.057 0.4879 32.855 3.0531 2.5241 5.6515 2.1944 14.338-1.8192 8.0147-3.703 92.886-51.044 97.904-54.611 3.4346-2.4411 5.1814-1.3415 3.7692 2.3728-1.1107 2.9215-8.5406 7.3861-64.117 38.529-45.304 25.386-45.095 25.279-49.228 25.279-2.5282 0-15.798-7.2759-56.29-30.863zm55.409-20.524 3.2831-3.3873-8.8369-4.9705c-33.038-18.583-54.19-28.909-57.005-27.829-2.6502 1.017 0.4526 4.3768 9.9517 10.776 13.722 9.2439 45.987 28.647 47.77 28.728 0.85461 0.0385 3.0312-1.4543 4.8369-3.3173z" fill="#5a84cc"/>
  <path d="m76.482 184.14c-29.14-16.975-55.101-32.746-57.692-35.047-2.9222-2.5953-5.9483-6.6981-7.9715-10.808-2.8708-5.8315-3.3091-7.8138-3.6602-16.557-0.73555-18.313 3.1505-26.364 16.005-33.157l5.5473-2.9318 35.395 20.047c59.23 33.547 82.45 46.317 84.221 46.317 2.0622 0 20.104-9.6548 61.673-33.003 38.699-21.736 35.758-20.198 36.458-19.066 0.8896 1.4394-6.6247 5.95-50.958 30.588-53.724 29.857-62.968 35.733-65.883 41.875-4.4006 9.2735-4.1068 29.057 0.4879 32.855 3.0531 2.5241 5.6515 2.1944 14.338-1.8192 8.0147-3.703 92.886-51.044 97.904-54.611 3.4346-2.4411 5.1814-1.3415 3.7692 2.3728-1.1107 2.9215-8.5406 7.3861-64.117 38.529-45.304 25.386-45.095 25.279-49.228 25.279-2.5282 0-15.798-7.2759-56.29-30.863zm55.409-20.524 3.2831-3.3873-8.8369-4.9705c-33.038-18.583-54.19-28.909-57.005-27.829-2.6502 1.017 0.4526 4.3768 9.9517 10.776 13.722 9.2439 45.987 28.647 47.77 28.728 0.85461 0.0385 3.0312-1.4543 4.8369-3.3173z" fill="#5c81b9"/>
  <path d="m76.482 184.14c-29.14-16.975-55.101-32.746-57.692-35.047-2.9272-2.5997-5.9487-6.699-7.9818-10.829-2.9122-5.9156-3.313-7.7637-3.6484-16.824-0.64866-17.523 3.1638-25.395 15.575-32.157l5.9089-3.2196 3.5408 1.8978c1.9474 1.0438 17.89 9.9653 35.428 19.826 63.351 35.617 79.052 44.216 80.738 44.216 1.9699 0 27.58-13.766 68.61-36.879 26.483-14.919 33.876-18.412 26.539-12.541-1.65 1.3204-19.875 11.802-40.5 23.293-67.789 37.767-72.549 41.02-75.068 51.293-1.7845 7.2791-1.7148 21.533 0.12383 25.311 0.7968 1.6372 2.7013 3.4173 4.2323 3.9557 2.9043 1.0214 3.0177 0.99178 13.712-3.5808 6.3066-2.6965 94.617-52.195 97.05-54.397 2.4291-2.1983 3.1083-1.7758 2.7632 1.719-0.38604 3.9098 0.37385 3.4304-53.313 33.631-54.765 30.807-55.436 31.159-59.518 31.178-2.8195 0.0134-14.041-6.1128-56.5-30.846zm54.577-19.304c2.1678-1.7421 3.9414-3.6688 3.9414-4.2816 0-2.1584-66.027-37.573-72.25-38.752-2.1847-0.4141-2.75-0.14662-2.75 1.3011 0 2.3457 2.7362 4.9036 12 11.218 6.5234 4.4464 53.974 33.584 54.809 33.656 0.16975 0.0146 2.0822-1.3988 4.25-3.1408z" fill="#878788"/>
  <path d="m127 212.74c-2.475-1.3098-27-15.541-54.5-31.625-53.415-31.241-57.34-34.02-62.278-44.1-2.2553-4.6028-2.7493-7.121-3.0639-15.62-0.64681-17.473 3.1765-25.355 15.576-32.112l5.9089-3.2196 3.5408 1.8978c1.9474 1.0438 17.89 9.9653 35.428 19.826 63.351 35.617 79.052 44.216 80.738 44.216 1.9699 0 27.58-13.766 68.61-36.879 26.454-14.902 34.266-18.581 26.262-12.367-1.8022 1.3992-17.552 10.49-35 20.201-64.184 35.725-75.303 42.681-78.445 49.077-2.7861 5.6714-4.1918 17.822-2.912 25.173 1.7259 9.9136 5.8652 11.974 14.917 7.4248 2.5942-1.3038 5.7475-2.6899 7.0073-3.0803 2.9105-0.90186 92.101-51.141 94.26-53.095 2.3616-2.1372 3.1217-1.7897 2.7663 1.2646-0.21778 1.8715-1.5634 3.552-4.3164 5.3906-8.7308 5.8306-104.35 58.91-107.08 59.441-2.0007 0.3895-4.3313-0.18033-7.4174-1.8136zm4.0586-47.905c2.1678-1.7421 3.9414-3.6688 3.9414-4.2816 0-2.1584-66.027-37.573-72.25-38.752-2.1847-0.4141-2.75-0.14662-2.75 1.3011 0 2.3457 2.7362 4.9036 12 11.218 6.5234 4.4464 53.974 33.584 54.809 33.656 0.16975 0.0146 2.0822-1.3988 4.25-3.1408z" fill="#5079c6"/>
  <path d="m127 212.74c-2.475-1.3098-27-15.541-54.5-31.625-53.415-31.241-57.34-34.02-62.278-44.1-2.2553-4.6028-2.7493-7.121-3.0639-15.62-0.6465-17.465 3.1778-25.356 15.557-32.101 5.2367-2.8532 6.1609-3.0668 8.3374-1.9269 1.3463 0.70512 27.355 15.368 57.797 32.583 30.442 17.216 56.542 31.75 58 32.3 2.9793 1.122 1.8705 1.6978 64.457-33.472 18.593-10.448 34.018-18.785 34.277-18.525 1.0051 1.0051-7.262 6.0194-39.039 23.679-62.532 34.75-73.618 41.697-76.765 48.103-2.7861 5.6714-4.1918 17.822-2.912 25.173 1.7259 9.9136 5.8652 11.974 14.917 7.4248 2.5942-1.3038 5.7503-2.6908 7.0134-3.0822s23.086-12.431 48.495-26.755c25.409-14.324 46.803-26.275 47.541-26.559 0.93841-0.3601 1.241 0.19478 1.0048 1.8427-0.20311 1.4169-1.9343 3.4248-4.338 5.0313-8.7038 5.8171-104.35 58.911-107.08 59.443-2.0007 0.3895-4.3313-0.18033-7.4174-1.8136zm4.0586-47.905c2.1678-1.7421 3.9414-3.6688 3.9414-4.2816 0-2.1584-66.027-37.573-72.25-38.752-2.1847-0.4141-2.75-0.14662-2.75 1.3011 0 2.3457 2.7362 4.9036 12 11.218 6.5234 4.4464 53.974 33.584 54.809 33.656 0.16975 0.0146 2.0822-1.3988 4.25-3.1408z" fill="#70798b"/>
  <path d="m128 213.21c-1.925-1.0089-26.45-15.228-54.5-31.599-31.226-18.224-52.61-31.329-55.152-33.8-8.3935-8.1584-11.925-18.558-11.116-32.738 0.79029-13.86 4.2127-19.479 15.798-25.934 4.9292-2.7466 5.7973-2.9405 8-1.787 1.3589 0.71167 27.378 15.379 57.82 32.595 30.442 17.216 56.542 31.75 58 32.3 2.9793 1.122 1.8705 1.6978 64.457-33.472 18.593-10.448 34.018-18.785 34.277-18.525 1.0051 1.0051-7.262 6.0194-39.039 23.679-50.534 28.083-70.281 39.597-74.268 43.304-4.0437 3.7599-5.7752 10.286-5.7752 21.767 0 5.775 0.35318 11.766 0.78485 13.313 0.95409 3.4195 5.8356 5.8026 9.6356 4.7039 5.1353-1.4848 19.496-9.17 63.457-33.959 24.623-13.885 45.058-24.956 45.411-24.604 1.1733 1.1732-1.3713 4.0038-7.023 7.8122-4.5381 3.0581-31.584 18.432-97.265 55.291-5.9877 3.3602-9.4364 3.7823-13.5 1.6525zm3.0586-48.378c2.1678-1.7421 3.9414-3.6688 3.9414-4.2816 0-2.1584-66.027-37.573-72.25-38.752-2.1847-0.4141-2.75-0.14662-2.75 1.3011 0 2.3457 2.7362 4.9036 12 11.218 6.5234 4.4464 53.974 33.584 54.809 33.656 0.16975 0.0146 2.0822-1.3988 4.25-3.1408z" fill="#4973b7"/>
  <path d="m128 213.21c-1.925-1.0089-26.45-15.228-54.5-31.599-31.226-18.224-52.61-31.329-55.152-33.8-8.391-8.156-11.93-18.572-11.109-32.693 0.53051-9.117 2.4343-15.071 6.0587-18.947 2.6006-2.7813 13.199-9.172 15.21-9.172 0.77045 0 10.759 5.3304 22.196 11.845 48.486 27.618 90.526 51.292 94.514 53.225l4.2819 2.0748 20.5-11.43c11.275-6.2864 30.85-17.272 43.5-24.413 29.485-16.644 28.34-16.042 26.69-14.04-0.72076 0.87397-6.7958 4.6129-13.5 8.3088-31.828 17.546-71.74 39.991-76.69 43.128-18.461 11.699-18.442 11.684-20.974 16.797-2.1731 4.3872-2.4775 6.3352-2.5 16-0.0141 6.0525 0.32755 12.27 0.75922 13.818 0.96255 3.4498 5.8482 5.8162 9.6356 4.667 6.2324-1.8912 20.483-9.442 63.018-33.39 24.978-14.063 45.657-25.328 45.953-25.032 1.0726 1.0726-1.6523 4.0201-7.1263 7.7088-4.5381 3.0581-31.584 18.432-97.265 55.291-5.9877 3.3602-9.4364 3.7823-13.5 1.6525zm3.4035-48.626c2.3226-1.988 3.6839-3.9135 3.3613-4.7543-1.0477-2.7303-69.686-39.575-77.125-41.4-2.6616-0.65305-2.8099-0.53589-2.1317 1.6843 1.086 3.5553 2.8959 5.2573 12.89 12.122 8.7096 5.9824 57.564 35.752 58.602 35.71 0.275-0.0112 2.2566-1.5239 4.4035-3.3616z" fill="#456aa9"/>
  <path d="m128 213.21c-1.925-1.0089-26.45-15.228-54.5-31.599-31.226-18.224-52.61-31.329-55.152-33.8-8.3849-8.1501-11.925-18.561-11.118-32.701 0.68786-12.064 3.6523-17.785 12.017-23.192 3.3901-2.1911 7.0888-4.216 8.2194-4.4998 1.4406-0.36157 18.507 8.8067 57.045 30.645 30.244 17.139 57.309 32.309 60.145 33.711 3.219 1.5916 4.9683 3.0395 4.6558 3.8537-0.27527 0.71732-3.3582 2.9024-6.851 4.8556-13.813 7.7245-15.961 11.697-15.961 29.515 0 12.669 0.80288 15.213 5.2956 16.779 2.9945 1.0439 4.3994 0.68098 15.214-3.9298 5.5364-2.3604 90.046-49.462 95.298-53.115 3.0923-2.1506 4.7044-1.5947 3.0844 1.0636-2.1243 3.4858-9.074 7.5503-103.89 60.76-5.9877 3.3602-9.4364 3.7823-13.5 1.6525zm7.0038-51.715c0.77547-0.93438 0.9405-1.9249 0.40381-2.4236-1.8375-1.7075-52.379-29.34-66.908-36.581-15.96-7.9539-21.5-9.8221-21.5-7.2504 0 4.5541 9.5316 11.311 51.955 36.829l27.545 16.569 3.5962-2.781c1.9779-1.5295 4.1863-3.492 4.9076-4.3612zm99.996-54.944c0-0.275 1.35-1.1981 3-2.0514s3-1.3264 3-1.0514-1.35 1.1981-3 2.0514-3 1.3264-3 1.0514z" fill="#6e7075"/>
  <path d="m123.89 210.24c-38.27-21.658-102.52-60.285-106.3-63.908-8.1094-7.7707-11.173-17-10.362-31.22 0.68786-12.064 3.6523-17.785 12.017-23.192 3.3901-2.1911 7.0888-4.216 8.2194-4.4998 1.4406-0.36157 18.507 8.8067 57.045 30.645 30.244 17.139 57.309 32.309 60.145 33.711 3.219 1.5916 4.9683 3.0395 4.6558 3.8537-0.27527 0.71732-3.3582 2.9024-6.851 4.8556-13.813 7.7245-15.961 11.697-15.961 29.515 0 12.669 0.80288 15.213 5.2956 16.779 2.9945 1.0439 4.3994 0.68098 15.214-3.9298 5.5364-2.3604 90.046-49.462 95.298-53.115 2.9762-2.0699 4.315-1.7993 3.3637 0.67976-0.8152 2.1244-4.037 4.0492-52.671 31.467-54.96 30.984-56.98 32.064-60 32.081-1.375 8e-3 -5.4725-1.6677-9.1056-3.7237zm11.109-48.743c0.77547-0.93438 0.9405-1.9249 0.40381-2.4236-1.8375-1.7075-52.379-29.34-66.908-36.581-15.96-7.9539-21.5-9.8221-21.5-7.2504 0 4.5541 9.5316 11.311 51.955 36.829l27.545 16.569 3.5962-2.781c1.9779-1.5295 4.1863-3.492 4.9076-4.3612zm99.996-54.944c0-0.275 1.35-1.1981 3-2.0514s3-1.3264 3-1.0514-1.35 1.1981-3 2.0514-3 1.3264-3 1.0514z" fill="#3865ab"/>
  <path d="m123.89 210.24c-3.6331-2.056-28.007-16.289-54.163-31.628-48.308-28.33-54.768-32.783-58.59-40.39-5.1136-10.177-5.5198-27.592-0.85808-36.791 2.9648-5.8507 3.0956-5.9702 11.787-10.771l6.5695-3.6285 59.93 34.007c32.962 18.704 60.064 34.397 60.227 34.873s-2.6248 2.4999-6.1947 4.4963c-13.969 7.8118-16.101 11.731-16.101 29.594 0 12.669 0.80288 15.213 5.2956 16.779 5.4191 1.8891 16.361-3.3369 68.581-32.754 24.62-13.869 45.022-24.96 45.336-24.645 1.7366 1.7366-1.6742 3.8216-59.213 36.196-48.248 27.146-50.553 28.37-53.5 28.387-1.375 8e-3 -5.4725-1.6677-9.1056-3.7237zm11.44-49.05c1.7878-1.9806 1.7751-2.0691-0.5-3.5004-6.7675-4.2573-58.519-32.567-72.334-39.569-18.862-9.5602-22.242-10.359-17.25-4.0755 1.2375 1.5576 3.0428 3.9642 4.0117 5.348 2.3888 3.4117 16.866 12.932 49.693 32.678l27.545 16.569 3.5-2.7086c1.925-1.4897 4.3254-3.623 5.3342-4.7405z" fill="#4f6790"/>
  <path d="m123.89 210.24c-3.6331-2.056-28.042-16.31-54.243-31.675-52.101-30.554-55.823-33.254-59.765-43.344-1.7887-4.5793-2.2306-7.714-2.2162-15.72 0.030523-16.937 2.6998-22.422 13.907-28.575l7.0774-3.886 59.787 33.928c32.883 18.661 59.987 34.129 60.232 34.373s-2.1691 1.9112-5.3642 3.703c-12.897 7.2329-15.554 10.794-17.422 23.359-0.83492 5.6136-0.8175 9.1757 0.0698 14.271 1.3671 7.8504 1.9889 8.8241 6.6089 10.349 3.1195 1.0295 4.2681 0.72883 13.67-3.5788 5.6454-2.5865 29.815-15.717 53.71-29.179 23.895-13.462 44.077-24.719 44.849-25.015 1.1916-0.45727 1.1999-0.2079 0.0548 1.6498-1.5558 2.524-7.8143 6.2434-58.349 34.677-48.248 27.146-50.553 28.37-53.5 28.387-1.375 8e-3 -5.4725-1.6677-9.1056-3.7237zm9.4399-46.772c3.1431-3.0549 3.5938-3.9477 2.5-4.9528-2.1045-1.9339-55.716-31.463-73.369-40.412-18.827-9.5437-22.206-10.34-17.216-4.0592 1.2375 1.5576 3.0428 3.9642 4.0117 5.348 2.3834 3.404 16.81 12.895 49.693 32.693 18.481 11.127 28.039 16.341 29.045 15.847 0.825-0.40546 3.2254-2.4142 5.3343-4.4639z" fill="#3c619d"/>
  <path d="m123.89 210.24c-3.6331-2.056-28.042-16.31-54.243-31.675-34.225-20.071-49.03-29.3-52.584-32.78-6.9661-6.8213-9.3882-13.447-9.4256-25.784-0.051002-16.834 3.1584-23.054 15.419-29.881l5.5609-3.0965 59.64 33.739c32.802 18.556 59.519 34.189 59.371 34.739-0.29718 1.1029-10.499 7.5-11.961 7.5-0.50417 0-0.33774-0.69758 0.36986-1.5502 1.0545-1.2706 1.0315-1.7857-0.12755-2.8561-0.77776-0.71827-14.014-8.2911-29.414-16.829-49.406-27.39-67.493-35.831-68.903-32.157-1.5563 4.0557 13.439 14.749 55.903 39.868 13.75 8.1332 26.678 15.853 28.729 17.156 4.6644 2.9625 4.8969 2.9538 8.9447-0.33388 3.098-2.5162 3.1801-2.5334 1.1937-0.25-5.7459 6.6052-8.3918 19.246-6.4103 30.625 1.3667 7.848 1.9896 8.8243 6.6004 10.346 3.0937 1.021 4.2701 0.72615 13.17-3.3012 7.6098-3.4435 62.44-33.688 95.273-52.553 2.5906-1.4885 3.9733-1.9269 3.2587-1.0331-0.68273 0.85385-0.99901 1.7948-0.70284 2.0909 0.659 0.659-9.4054 6.5423-57.056 33.353-48.248 27.146-50.553 28.37-53.5 28.387-1.375 8e-3 -5.4725-1.6677-9.1056-3.7237z" fill="#5a6272"/>
  <path d="m130.54 213.26c-1.0792-0.26769-12.779-6.884-26-14.703-13.221-7.8189-36.976-21.774-52.79-31.012s-30.798-18.596-33.297-20.796c-10.452-9.2006-13.813-25.069-8.9498-42.262 1.6494-5.8313 5.435-9.842 13.56-14.366l5.5609-3.0965 59.64 33.739c32.802 18.556 59.519 34.189 59.371 34.739-0.29718 1.1029-10.499 7.5-11.961 7.5-0.50417 0-0.33774-0.69758 0.36986-1.5502 1.0545-1.2706 1.0315-1.7857-0.12755-2.8561-0.77776-0.71827-14.014-8.2911-29.414-16.829-49.406-27.39-67.493-35.831-68.903-32.157-1.5563 4.0557 13.439 14.749 55.903 39.868 13.75 8.1332 26.678 15.853 28.729 17.156 4.6644 2.9625 4.8969 2.9538 8.9447-0.33388 3.098-2.5162 3.1801-2.5334 1.1937-0.25-3.5672 4.1007-5.3107 8.4917-6.4721 16.3-2.125 14.288 1.5838 25.652 8.3719 25.652 4.0568 0 22.254-9.2784 61.733-31.477 22.275-12.525 42.507-23.939 44.959-25.365 4.458-2.592 4.4587-2.5921 2.8252-0.25997-2.0712 2.9571-0.48338 2.0061-50.784 30.415-59.131 33.396-58.31 32.976-62.462 31.946z" fill="#2658a3"/>
  <path d="m130.54 213.26c-1.0792-0.26769-12.779-6.884-26-14.703-13.221-7.8189-36.976-21.774-52.79-31.012s-30.798-18.596-33.297-20.796c-10.456-9.2036-13.813-25.069-8.946-42.275 1.6705-5.9054 4.678-8.9865 13.055-13.374l6.0596-3.1738 56.44 32.171c31.042 17.694 57.921 32.8 59.731 33.568 1.8097 0.76859 3.0148 1.8432 2.6781 2.388-0.69757 1.1287-10.543 6.9253-11.787 6.9395-0.44996 0.00516 0.14319-1.3406 1.3181-2.9906 1.7624-2.475 1.8628-3 0.57386-3-0.85928 0-11.802-5.7847-24.318-12.855-48.24-27.251-72.386-39.91-79.078-41.458-2.217-0.5129-2.2512-0.4386-0.75254 1.638 0.86341 1.1964 2.4445 3.7929 3.5135 5.77 3.7993 7.0267 14.353 14.372 56.561 39.365 13.75 8.142 26.678 15.869 28.729 17.172 4.6644 2.9625 4.8969 2.9538 8.9447-0.33388 3.098-2.5162 3.1801-2.5334 1.1937-0.25-3.5672 4.1007-5.3107 8.4917-6.4721 16.3-1.5243 10.249 0.18111 20.78 3.83 23.65 3.3435 2.63 5.6484 2.5144 12.275-0.61576 3.025-1.4289 6.7045-2.9586 8.1766-3.3994 1.4721-0.44077 22.847-12.157 47.5-26.036 24.653-13.879 45.156-25.418 45.562-25.643 0.4062-0.22432 0.47414 0.28116 0.15099 1.1233-0.65352 1.7031-7.2294 5.5822-57.89 34.15-50.89 28.697-50.882 28.693-54.962 27.681z" fill="#4d596e"/>
  <path d="m86.493 187.72c-23.654-13.87-47.729-27.979-53.5-31.354-19.723-11.535-25.203-19.515-25.314-36.863-0.069286-10.898 2.0833-18.975 6.0343-22.642 1.5327-1.4224 5.5135-4.0145 8.8463-5.7601l6.0596-3.1738 56.44 32.171c31.042 17.694 57.921 32.8 59.731 33.568 1.8097 0.76859 3.0148 1.8432 2.6781 2.388-0.69757 1.1287-10.543 6.9253-11.787 6.9395-0.44996 0.00516 0.14319-1.3406 1.3181-2.9906 1.7624-2.475 1.8628-3 0.57386-3-0.85928 0-11.802-5.7847-24.318-12.855-48.24-27.251-72.386-39.91-79.078-41.458-2.217-0.5129-2.2512-0.4386-0.75254 1.638 0.86341 1.1964 2.4445 3.7929 3.5135 5.77 3.7993 7.0267 14.353 14.372 56.561 39.365 13.75 8.142 26.678 15.869 28.729 17.172 4.6644 2.9625 4.8969 2.9538 8.9447-0.33388 3.098-2.5162 3.1801-2.5334 1.1937-0.25-3.6386 4.1827-5.3725 8.6458-6.5249 16.795-2.0016 14.154 1.5396 25.172 8.0823 25.148 1.4166-5e-3 5.0507-1.1788 8.0757-2.6077s6.7045-2.9586 8.1766-3.3994c1.4721-0.44077 22.847-12.157 47.5-26.036 24.653-13.879 45.156-25.418 45.562-25.643 0.4062-0.22432 0.51062 0.17803 0.23205 0.89409-0.27858 0.71607-2.1859 2.2288-4.2386 3.3617-7.6979 4.2486-88.035 49.858-95.223 54.061-5.0781 2.969-8.6212 4.3693-11 4.3474-2.7513-0.0253-12.797-5.4782-46.516-25.25z" fill="#285398"/>
  <path d="m126 210.86c-1.925-1.1736-25.659-15.092-52.741-30.929-27.083-15.838-51.498-30.698-54.255-33.023-9.0732-7.6507-13.25-20.864-11.059-34.985 1.8306-11.799 4.3174-15.193 15.595-21.286l5.0389-2.7226 58.961 33.563c32.429 18.46 58.961 34.063 58.961 34.674 0 0.61105-2.475 2.5052-5.5 4.2093l-5.5 3.0983 1.75-2.6936c2.1389-3.2922 2.1683-3.7639 0.23473-3.7639-0.83339 0-9.7209-4.6545-19.75-10.343-62.117-35.235-80.85-44.63-91.994-46.14-3.5038-0.47458-2.8571 0.82348 3.8579 7.7435 7.2298 7.4506 34.482 24.927 83.652 53.645 5.9125 3.4532 10.75 6.9122 10.75 7.6866 0 2.1901 1.2825 1.7064 6.07-2.2891 2.4365-2.0335 3.4701-2.596 2.297-1.25-3.6363 4.1719-5.3722 8.6386-6.5249 16.79-2.0013 14.151 1.5351 25.159 8.0823 25.157 1.4166-4.3e-4 5.372-1.3237 8.7898-2.9406 3.4178-1.6169 7.0377-2.8777 8.0444-2.8019 1.0066 0.0758 4.5103-1.4647 7.7859-3.4233 11.701-6.9966 80.994-45.741 82.956-46.384 2.5367-0.83123-12.043 7.6391-55.5 32.244-18.975 10.743-37.871 21.507-41.991 23.92-8.5626 5.014-12.635 5.5217-18.009 2.2452z" fill="#1e52a0"/>
  <path d="m126 210.86c-1.925-1.1736-25.659-15.092-52.741-30.929-27.083-15.838-51.498-30.698-54.255-33.023-6.0352-5.0889-9.6966-12.083-11.124-21.249-1.7983-11.551 1.8645-26.844 7.1002-29.646 2.4675-1.3206 4.8046 0.0021 7.8456 4.4402 7.7616 11.327 27.096 24.467 90.424 61.455 5.9125 3.4532 10.75 6.9122 10.75 7.6866 0 2.1901 1.2825 1.7064 6.07-2.2891 2.4365-2.0335 3.4701-2.596 2.297-1.25-3.6363 4.1719-5.3722 8.6386-6.5249 16.79-2.0013 14.151 1.5351 25.159 8.0823 25.157 1.4166-4.3e-4 5.372-1.3237 8.7898-2.9406 3.4178-1.6169 7.0377-2.8777 8.0444-2.8019 1.0066 0.0758 4.5103-1.4647 7.7859-3.4233 11.701-6.9966 80.994-45.741 82.956-46.384 2.5367-0.83123-12.043 7.6391-55.5 32.244-18.975 10.743-37.871 21.507-41.991 23.92-8.5626 5.014-12.635 5.5217-18.009 2.2452zm10.863-49.602c1.1834-2.2111 7.0597-6.2562 9.0885-6.2562 2.4884 0 0.27721 2.4143-4.8794 5.3276-4.7313 2.673-5.1977 2.7759-4.2091 0.92864z" fill="#254b8a"/>
  <path d="m86.493 187.72c-23.654-13.87-47.729-27.979-53.5-31.354-19.944-11.664-25.267-19.53-25.285-37.363-0.0082343-8.0004 0.3842-10.372 2.4861-15.023 2.4287-5.3746 5.1339-8.9767 6.7415-8.9767 1.3709 0 6.2922 5.3825 7.4878 8.1894 2.0321 4.7707 7.2625 9.5213 18.793 17.07 11.685 7.6492 38.333 23.716 61.784 37.252 19.68 11.36 19.027 10.808 17.855 15.053-0.53857 1.9505-0.81705 4.534-0.61885 5.7411 0.30879 1.8805 0.59534 1.6611 2.0019-1.5329 1.7895-4.0636 2.1604-4.5941 6.8319-9.7725 2.845-3.1536 2.9056-3.1789 0.61303-0.2554-1.3994 1.7845-2.8308 4.147-3.1809 5.25-0.35007 1.103-0.97939 2.0054-1.3985 2.0054s-0.72965 0.7875-0.69009 1.75c0.0396 0.9625-0.29983 4.9324-0.7542 8.8219-1.5419 13.199 2.0674 23.429 8.2654 23.427 1.4166-4.3e-4 5.282-1.2811 8.5896-2.8459 3.8442-1.8186 6.7227-2.5965 7.9785-2.156 1.7295 0.6067 1.4886 0.98939-2.0139 3.1993-7.3381 4.6298-12.375 6.8036-15.689 6.7711-2.4628-0.0242-14.101-6.3718-46.297-25.25zm68.507 13.853c0-0.275 0.9-0.98167 2-1.5704s2-0.84537 2-0.57037-0.9 0.98167-2 1.5704-2 0.84537-2 0.57037zm9-5c0-0.275 0.9-0.98167 2-1.5704s2-0.84537 2-0.57037-0.9 0.98167-2 1.5704-2 0.84537-2 0.57037zm7-4c0-0.275 0.9-0.98167 2-1.5704s2-0.84537 2-0.57037-0.9 0.98167-2 1.5704-2 0.84537-2 0.57037zm9-5c0-0.275 0.9-0.98167 2-1.5704s2-0.84537 2-0.57037-0.9 0.98167-2 1.5704-2 0.84537-2 0.57037zm7-4c0-0.275 0.9-0.98167 2-1.5704s2-0.84537 2-0.57037-0.9 0.98167-2 1.5704-2 0.84537-2 0.57037zm7-4.019c0-0.275 1.35-1.1981 3-2.0514s3-1.3264 3-1.0514-1.35 1.1981-3 2.0514-3 1.3264-3 1.0514zm9-4.981c0-0.275 0.9-0.98167 2-1.5704s2-0.84537 2-0.57037-0.9 0.98167-2 1.5704-2 0.84537-2 0.57037zm7-4.019c0-0.275 1.35-1.1981 3-2.0514s3-1.3264 3-1.0514-1.35 1.1981-3 2.0514-3 1.3264-3 1.0514zm9-4.981c0-0.275 0.9-0.98167 2-1.5704s2-0.84537 2-0.57037-0.9 0.98167-2 1.5704-2 0.84537-2 0.57037zm7-4c0-0.275 0.9-0.98167 2-1.5704s2-0.84537 2-0.57037-0.9 0.98167-2 1.5704-2 0.84537-2 0.57037zm-86.839-1.4494c-0.99855-0.63293-0.46059-1.391 2.118-2.9847 4.0335-2.4929 5.8878-2.736 5.0942-0.66789-0.30991 0.80761-0.85829 1.4293-1.2186 1.3816-1.9601-0.2597-3.1989 0.27015-2.6622 1.1386 0.3629 0.58718-0.0857 0.72119-1.105 0.33006-1.1642-0.44676-1.4835-0.28231-0.99292 0.51145 0.8524 1.3792 0.58354 1.4426-1.2335 0.2909z" fill="#334c78"/>
  <path d="m126 210.86c-1.925-1.1736-25.641-15.082-52.702-30.907-27.061-15.825-51.274-30.501-53.805-32.612-2.9735-2.4803-5.7343-6.1348-7.7978-10.322-3.0367-6.1621-3.1938-7.0515-3.1796-18 0.012397-9.522 0.37495-12.301 2.0925-16.039 2.0712-4.5073 4.8243-7.9789 6.3276-7.9789 1.3709 0 6.2922 5.3825 7.4878 8.1894 2.0321 4.7707 7.2625 9.5213 18.793 17.07 11.685 7.6492 38.333 23.716 61.784 37.252 19.68 11.36 19.027 10.808 17.855 15.053-0.53857 1.9505-0.82329 4.534-0.63271 5.7411 0.28722 1.8191 0.7278 1.4247 2.575-2.3054 1.2257-2.475 1.9327-3.6 1.5711-2.5-1.0588 3.221-1.6656 20.03-0.90592 25.096 1.3825 9.219 7.9036 11.786 17.538 6.9041 5.5669-2.821 7-3.0688 7-1.2104 0 1.9843-13.226 8.711-17.12 8.7067-1.8592-2e-3 -4.9554-0.96395-6.8804-2.1376zm12-51.277c0-0.98268 7.1147-4.7092 8.2519-4.3221 0.68648 0.23367-0.64643 1.3959-2.962 2.5827-4.2263 2.1661-5.2898 2.5158-5.2898 1.7394z" fill="#474e5b"/>
  <path d="m126.5 210.71c-2.2-1.301-26.05-15.317-53-31.147s-51.164-30.421-53.81-32.423c-3.4424-2.606-5.7167-5.4841-8-10.124-3.0312-6.1593-3.1895-7.0566-3.1752-18 0.012397-9.522 0.37495-12.301 2.0925-16.039 2.0712-4.5073 4.8243-7.9789 6.3276-7.9789 1.3709 0 6.2922 5.3825 7.4878 8.1894 2.0321 4.7707 7.2625 9.5213 18.793 17.07 11.685 7.6492 38.333 23.716 61.784 37.252 19.68 11.36 19.027 10.808 17.855 15.053-0.53857 1.9505-0.82329 4.534-0.63271 5.7411 0.28722 1.8191 0.7278 1.4247 2.575-2.3054 1.2257-2.475 1.9327-3.6 1.5711-2.5-1.0588 3.221-1.6656 20.03-0.90592 25.096 1.3825 9.219 7.9036 11.786 17.538 6.9041 5.2896-2.6804 7-3.0589 7-1.5489 0 1.4508-12.443 8.0911-16.192 8.6409-2.3362 0.34263-4.4839-0.20992-7.3084-1.8802zm11.5-51.13c0-0.98268 7.1147-4.7092 8.2519-4.3221 0.68648 0.23367-0.64643 1.3959-2.962 2.5827-4.2263 2.1661-5.2898 2.5158-5.2898 1.7394z" fill="#1b478d"/>
  <path d="m126.5 210.71c-2.2-1.301-26.05-15.317-53-31.147s-51.164-30.421-53.81-32.423c-6.9902-5.2919-10.92-13.681-11.489-24.527-0.45258-8.6228 0.98556-18.12 3.2031-21.153 1.2205-1.6691 2.0496-1.2498 11.286 5.7082 11.173 8.4167 30.767 20.732 71.309 44.82 15.125 8.9866 27.769 16.743 28.097 17.236 0.3285 0.49347 0.38318 3.2319 0.12153 6.0853-0.51996 5.6704 0.14651 5.656 2.9665-0.064 1.0162-2.0613 1.5502-2.8479 1.1865-1.7479-1.0615 3.211-1.6708 20.02-0.90966 25.096 1.3825 9.219 7.9036 11.786 17.538 6.9041 5.2896-2.6804 7-3.0589 7-1.5489 0 1.4508-12.443 8.0911-16.192 8.6409-2.3362 0.34263-4.4839-0.20992-7.3084-1.8802z" fill="#394357"/>
  <path d="m125.5 209.66c-22.277-12.908-100.92-59.547-104-61.679-5.6347-3.8976-8.0706-6.7608-10.628-12.492-3.8613-8.6544-3.5519-28.441 0.53203-34.026 1.2205-1.6691 2.0496-1.2498 11.286 5.7082 11.173 8.4167 30.767 20.732 71.309 44.82 15.125 8.9866 27.769 16.743 28.097 17.236 0.3285 0.49347 0.38318 3.2319 0.12153 6.0853-0.51996 5.6704 0.14651 5.656 2.9665-0.064 1.0162-2.0613 1.5502-2.8479 1.1865-1.7479-1.0615 3.211-1.6708 20.02-0.90966 25.096 1.3825 9.219 7.9036 11.786 17.538 6.9041 5.961-3.0207 8.4193-3.1982 5.0095-0.36173-4.1378 3.4421-11.741 6.8625-15.226 6.8497-1.8058-7e-3 -5.0832-1.055-7.2832-2.3297z" fill="#143d81"/>
  <path d="m125.5 209.66c-22.277-12.908-100.92-59.547-104-61.679-8.8756-6.1394-12.586-13.206-13.304-25.338-0.44635-7.5405 1.0608-18.064 2.7354-19.099 0.43739-0.27033 4.7943 2.1406 9.6821 5.3577 4.8878 3.217 21.262 13.48 36.387 22.806s35.656 22.089 45.624 28.362l18.124 11.405 0.94302 5.5135c0.88327 5.1642 1.0139 5.3551 2.0628 3.0135 0.92253-2.0597 1.1319-0.73874 1.1887 7.5 0.0379 5.5 0.53394 11.674 1.1022 13.721 1.9657 7.0778 8.2856 8.6729 16.956 4.2795 5.961-3.0207 8.4193-3.1982 5.0095-0.36173-4.1378 3.4421-11.741 6.8625-15.226 6.8497-1.8058-7e-3 -5.0832-1.055-7.2832-2.3297z" fill="#12387a"/>
  <path d="m98.462 193.72c-17.029-10.052-40.539-23.89-52.245-30.75-30.779-18.038-33.55-20.432-36.872-31.859-2.2458-7.7252-1.0915-25.115 1.6671-25.115 1.4378 0 106.44 66.197 108.24 68.235 1.3574 1.541 1.75 3.7937 1.75 10.043 0 8.252 0.63183 9.3576 2.0136 3.5233l0.78172-3.3008 0.10236 4.2008c0.17347 7.1189 2.2059 14.494 4.6748 16.963 3.0699 3.0699 7.7308 3.0307 14.536-0.12218 9.3507-4.3322 7.406-0.95465-2.3253 4.0386-8.2465 4.2314-8.3685 4.1857-42.321-15.857z" fill="#0e3373"/>
  <path d="m98.462 193.72c-17.029-10.052-40.539-23.89-52.245-30.75-11.706-6.8602-23.395-14.059-25.976-15.997-9.2116-6.917-12.915-16.066-11.89-29.369 0.33815-4.385 0.96006-8.2764 1.382-8.6475 0.42196-0.37113 25.292 14.774 55.267 33.655l54.5 34.33 0.29439 8.2719c0.29952 8.416 1.4625 11.574 3.2319 8.7748 0.82408-1.3035 0.94498-1.2938 0.95836 0.0769 8e-3 0.86267 0.68566 3.8258 1.505 6.5848 1.0705 3.6047 2.2093 5.3442 4.047 6.1815 3.8146 1.7381 9.0573 1.413 13.463-0.83478 4.6676-2.3812 7.3769-2.6151 4.5-0.38843-4.0859 3.1624-11.537 6.3884-14.755 6.3884-2.5112 0-10.873-4.4579-34.283-18.277z" fill="#293753"/>
  <path d="m125.5 208.98c-1.65-1.104-25.658-15.389-53.352-31.743-27.694-16.355-52.122-31.247-54.284-33.094-5.0286-4.2935-7.5627-9.3192-8.9962-17.842-1.2137-7.2159-0.1989-18.042 1.6422-17.52 0.54483 0.15449 25.403 15.624 55.241 34.376l54.25 34.095v8.3148c0 7.8892 1.196 11.352 2.9442 8.5231 0.40014-0.64745 1.2868 1.3639 1.9937 4.5228 1.4788 6.6082 4.6749 10.391 8.7666 10.377 1.5375-5e-3 5.2234-1.14 8.1908-2.5213 7.4725-3.4785 7.4466-2.4948-0.036 1.3643-7.1311 3.6778-12.06 4.0232-16.359 1.1463z" fill="#08306c"/>
  <path d="m125.5 208.98c-1.65-1.104-25.658-15.389-53.352-31.743-27.694-16.355-52.122-31.247-54.284-33.094-4.748-4.0538-7.2284-8.6876-8.8462-16.526-1.238-5.9981-0.61453-16.617 0.97563-16.617 0.46689 0 21.697 13.107 47.178 29.127 68.282 42.928 61.829 38.505 61.829 42.387v3.3211l-7.4951-2.6223c-6.0784-2.1267-7.7323-2.3805-8.75-1.3428-1.0107 1.0306-0.67115 1.7559 1.7451 3.7273 1.65 1.3462 5.025 3.6223 7.5 5.0579s5.7588 3.7801 7.2973 5.2101c2.264 2.1042 2.9628 2.3322 3.6652 1.1957 0.62587-1.0127 1.1897-0.2089 2.0222 2.8825 1.4407 5.3502 5.0163 9.06 8.7199 9.0471 1.5375-5e-3 5.2234-1.14 8.1908-2.5213 7.4725-3.4785 7.4466-2.4948-0.036 1.3643-7.1311 3.6778-12.06 4.0232-16.359 1.1463z" fill="#072a65"/>
  <path d="m125.5 208.98c-1.65-1.104-25.667-15.389-53.372-31.743-27.705-16.355-52.315-31.438-54.69-33.519-5.3793-4.7117-8.5545-12.553-8.6896-21.458-0.052095-3.4353 0.1833-6.5241 0.5231-6.8639 0.62439-0.62438 30.683 17.967 53.774 33.26 13.349 8.8409 19.712 14.345 16.583 14.345-0.96036 0-1.468 0.45-1.1281 1s-0.28197 1-1.382 1c-8.5516 0 3.0076 9.8407 32.757 27.887 7.3561 4.4623 13.738 8.1132 14.183 8.1132 0.44438 0 1.0899 0.88826 1.4345 1.9739 0.9315 2.9349 5.3816 6.0261 8.6753 6.0261 1.5935 0 4.4578-0.65204 6.3651-1.449 4.9562-2.0709 4.299-0.83048-0.78212 1.4759-5.4819 2.4883-10.485 2.4717-14.25-0.0474z" fill="#052359"/>
  <path d="m127 208.67c-1.375-0.72706-8.35-4.8355-15.5-9.1298s-29.2-17.258-49-28.808c-45.968-26.815-46.643-27.276-50.007-34.152-3.1014-6.339-4.8056-18.473-2.3959-17.059 16.759 9.8348 39.903 27.874 39.903 31.102 0 0.64245 0.675 1.4271 1.5 1.7437 0.825 0.31658 1.5 1.6797 1.5 3.0291 0 1.648 1.3953 3.6501 4.25 6.0985 8.2443 7.0708 34.812 24.321 58.5 37.982 5.6375 3.2514 10.25 6.2971 10.25 6.7683 0 0.47119 1.4625 1.4924 3.25 2.2693s2.575 1.4274 1.75 1.4456c-0.825 0.0181-2.625-0.56189-4-1.289z" fill="#001d52"/>
  <path d="m30.984 151.95c-5.7662-3.3289-11.917-7.4382-13.668-9.1317-3.4589-3.3455-6.7253-10.068-7.8632-16.182l-0.71949-3.8662 5.0859 3.4251c2.7973 1.8838 7.5917 5.7572 10.654 8.6076 4.492 4.1808 5.4568 5.6269 4.9914 7.4811-0.45604 1.817 0.42994 3.2734 4.2288 6.9515 2.6431 2.5591 5.9307 5.5636 7.3057 6.6767 4.6321 3.7498 0.53491 2.129-10.016-3.9622z" fill="#00194d"/>
 </g>
</svg>
