<?xml version="1.0" encoding="UTF-8"?>
<svg width="256" height="256" version="1.1" viewBox="0 0 256 256" xmlns="http://www.w3.org/2000/svg">
 <g transform="translate(.16949 1.2542)">
  <path d="m118 253.89c0-0.78107 2.5041-2.9179 5.5647-4.7485 6.6893-4.0011 17.115-13.572 21.932-20.134 10.46-14.249 17.169-35.263 19.042-59.637l0.70143-9.1319-16.87-0.46451c-9.2784-0.25548-17.596-0.7834-18.484-1.1732-2.2012-0.96614-4.0856-5.3926-3.3211-7.8014 0.57155-1.8008 31.426-41.907 52.341-68.035 11.5-14.366 14.276-14.992 22.199-5.0023 17.148 21.621 50.916 65.365 51.812 67.118 0.5963 1.1667 1.5342 3.0151 2.0842 4.1076 1.3038 2.5899 1.2612 4.0612-0.20739 7.1733-1.1575 2.4528-1.6636 2.5847-12.25 3.1948-6.0734 0.35001-14.015 0.63842-17.649 0.64092l-6.6062 5e-3 -0.6627 7.9464c-2.1596 25.896-14.861 51.483-33.38 67.242-7.34 6.2464-20.332 13.509-29.879 16.703-8.114 2.7138-36.366 4.2645-36.366 1.9956zm-56.257-68.581c-3.119-0.80915-58.497-72.615-60.55-78.512-1.1003-3.1605-1.0584-4.1534 0.28432-6.75l1.5743-3.0444h34.581l1.1441-9.751c4.0927-34.883 22.485-63.177 50.224-77.26 10.867-5.5176 20.485-7.8754 35.067-8.5972 10.017-0.4958 13.933-0.37527 13.933 0.42885 0 0.61516-3.2625 3.3259-7.25 6.0238-18.566 12.562-29.941 29.887-35.748 54.448-2.0522 8.6801-3.9799 23.371-3.9936 30.434l-0.008205 4.2269 17.643 0.27308 17.643 0.27307 2.0458 2.7418c1.92 2.5732 1.9497 2.9421 0.48373 6-2.5537 5.3268-60.2 78.758-61.828 78.758-0.45352 0-1.4239 0.17151-2.1564 0.38114-0.73248 0.20962-2.1224 0.17603-3.0887-0.0747z" fill="#e9f3f9"/>
  <path d="m118.55 253.91c0.33083-0.77294 3.7696-3.4304 7.6417-5.9054 18.149-11.601 30.891-32.192 36.199-58.5 1.7127-8.4884 3.6905-28.489 2.9418-29.75-0.24498-0.4125-8.0689-0.75-17.386-0.75-15.608 0-17.098-0.15741-18.941-2-2.8832-2.8832-2.4864-5.5832 1.6728-11.381 5.2788-7.3579 52.655-67.501 56.22-71.369 4.9946-5.4204 6.9711-4.5062 16.756 7.75 20.731 25.966 49.057 63.101 50.664 66.419 1.7673 3.6508 1.7884 4.1463 0.30834 7.25l-1.5886 3.3314h-34.685l-1.7107 12.25c-5.585 39.993-27.855 68.438-62.751 80.152-6.0644 2.0357-10.498 2.6937-21.778 3.2322-11.964 0.57113-14.07 0.45788-13.562-0.72922zm-57.294-69.567c-2.3571-0.95117-57.167-71.998-59.795-77.508-1.5913-3.337-1.5889-3.6976 0.042099-6.1868l1.7319-2.6432 16.635-0.015313c9.1492-0.0084 17.132-0.34592 17.739-0.75s1.4155-4.2475 1.7968-8.5409c1.5262-17.187 8.6517-37.031 17.967-50.037 5.0951-7.1136 15.976-17.809 22.958-22.568 6.6414-4.5262 17.862-9.5789 26.742-12.042 8.1845-2.2705 29.933-3.9963 29.933-2.3753 0 0.53674-3.2606 3.1928-7.2459 5.9024-24.315 16.532-37.559 44.205-38.97 81.427l-0.28428 7.5 17.148 0.5c15.034 0.43836 17.407 0.73487 19.25 2.405 4.3301 3.9245 4.1025 4.3471-16.7 31.014-26.617 34.121-42.238 53.382-43.768 53.97-1.8106 0.6948-3.369 0.6795-5.1788-0.0508z" fill="#d7e9f4"/>
  <path d="m119 254.23c0-0.59264 3.1072-3.1432 6.9048-5.6678 18.351-12.2 29.742-29.493 35.611-54.063 2.2412-9.3827 4.4837-25.617 4.4837-32.461v-3.0394h-14.875c-8.1812 0-16.312-0.28735-18.068-0.63855-4.154-0.8308-6.7347-4.5793-5.3081-7.7103 1.0542-2.3137 30.389-40.304 49.921-64.651 9.3472-11.651 11.264-13.542 13.996-13.807 2.7878-0.27041 3.7435 0.3871 8 5.5039 10.855 13.049 53.191 68.041 54.781 71.156 1.4222 2.7875 1.5083 3.8411 0.51047 6.25-0.66005 1.5935-1.258 2.9731-1.3288 3.0657-0.0708 0.0926-8.2287 0.43014-18.129 0.75l-18 0.58157-0.75623 8.5c-2.0032 22.516-10.96 43.419-25.148 58.689-11.119 11.966-25.037 20.683-40.258 25.212-8.2463 2.454-32.337 4.1898-32.337 2.3299zm-58.7-71.632c-4.1412-3.4846-58.255-73.433-59.677-77.14-0.52445-1.3667 0.5713-4.7481 2.093-6.4589 0.2446-0.275 8.3772-0.725 18.072-1l17.628-0.5 1.669-11c0.91794-6.05 2.424-13.925 3.3469-17.5 2.343-9.0763 10.434-25.185 16.827-33.5 15.138-19.691 40.224-32.57 66.584-34.182 11.944-0.73079 12.149-0.41036 3.4439 5.3681-21.941 14.564-34.581 37.081-38.799 69.116-1.9734 14.99-1.9481 20.808 0.094026 21.592 0.86998 0.33384 8.9596 0.60699 17.977 0.60699h16.395l1.6787 2.562c1.5377 2.3468 1.5471 2.8298 0.11229 5.75-2.6216 5.3356-56.257 73.373-60.428 76.654-3.2584 2.5631-3.5532 2.5477-7.0167-0.36674z" fill="#c9e2f2"/>
  <path d="m119 254.29c0-0.56179 1.9125-2.264 4.25-3.7826 19.327-12.556 30.604-27.978 37.198-50.869 2.6135-9.0725 5.552-28.225 5.552-36.187v-4.4488h-10.349c-5.692 0-13.827-0.29397-18.077-0.65328-6.6587-0.56287-7.9448-0.98371-9.2927-3.041-1.1911-1.8178-1.3143-2.9149-0.51618-4.5967 1.0823-2.2808 29.805-39.369 49.921-64.459 14.172-17.678 14.354-17.733 23.081-7 13.554 16.669 52.325 67.026 53.797 69.872 1.2868 2.4884 1.372 3.6199 0.4415 5.8662l-1.1528 2.7831-18.176 0.86419-18.176 0.86419-0.28315 4c-3.0541 43.145-27.547 76.228-65.107 87.94-9.1308 2.8471-33.11 4.9094-33.11 2.8475zm-71.763-87.686c-20.024-25.361-43.738-56.736-45.592-60.32-1.492-2.8852-1.4818-3.2621 0.14348-5.2691 1.6381-2.023 2.8721-2.1974 19.231-2.7185 9.6142-0.30628 17.568-0.62257 17.675-0.70286 0.10683-0.0803 0.69231-4.1836 1.3011-9.1184 3.2993-26.746 12.67-46.313 30.14-62.938 7.6382-7.2688 10.722-9.4083 20.19-14.01 13.112-6.3725 24.518-9.4846 37.657-10.275 10.87-0.65406 10.873-0.58834 0.30007 6.5713-16.439 11.132-27.964 28.358-33.652 50.296-2.9223 11.272-4.9042 26.34-4.4566 33.884l0.32636 5.5 17.833 0.5c16.172 0.45343 17.965 0.6808 19.25 2.4411 0.77935 1.0676 1.417 2.5241 1.417 3.2366 0 1.758-39.591 53.307-57.095 74.341-7.9716 9.5788-8.1572 9.4929-24.667-11.417z" fill="#c4ddef"/>
  <path d="m119.4 254.16c0.39672-0.6419 3.5059-3.0555 6.9093-5.3635 17.566-11.912 29.11-28.997 35.055-51.88 2.7828-10.71 4.9419-27.144 4.4558-33.914l-0.32308-4.5-17.789-0.5c-24.897-0.6998-24.994-1.0038-7.5254-23.681 20.865-27.086 47.893-60.78 49.461-61.66 3.7401-2.0977 6.3397 0.63579 32.406 34.076 37.337 47.898 35.2 44.702 32.569 48.719l-1.6678 2.5453-16.727 0.0153c-9.1998 8e-3 -17.23 0.34592-17.846 0.75s-1.4491 4.3347-1.8525 8.7347c-1.7432 19.012-9.9368 40.149-21.088 54.4-10.624 13.578-28.324 25.278-45.449 30.043-8.8396 2.4595-31.767 4.119-30.59 2.214zm-59.186-71.907c-6.1709-5.3877-59.217-75.859-59.217-78.669 0-4.1358 1.6296-4.5747 17.45-4.699 8.2775-0.06507 16.4-0.40627 18.05-0.75821 2.9361-0.62626 3.0148-0.80345 3.6969-8.3159 3.5527-39.132 26.263-70.216 60.148-82.328 11.299-4.0385 24.693-6.7009 31.611-6.2834l5.0306 0.30355-6.6527 4.4692c-18.698 12.561-30.412 29.767-36.242 53.231-3.0957 12.461-4.5785 25.444-4.1742 36.549 0.08167 2.2437 0.13042 2.25 17.427 2.25 15.534 0 17.518 0.19099 19 1.8287 0.91025 1.0058 1.6381 2.9183 1.6175 4.25-0.0374 2.4189-13.092 19.75-45.961 61.017-15.949 20.024-17.289 21.079-21.785 17.154z" fill="#afd3eb"/>
  <path d="m119 254.54c0-0.25451 2.8125-2.3382 6.25-4.6305 8.1241-5.4175 17.891-14.896 22.963-22.285 10.546-15.363 17.038-37.6 17.99-61.622l0.29704-7.5-17.6-0.5c-18.639-0.52952-20.9-1.1132-20.9-5.3963 0-3.0596 58.013-77.47 62.106-79.661 3.8273-2.0483 3.5282-2.3854 43.54 49.057 21.134 27.172 22.961 29.997 21.349 33.009-0.58605 1.095-1.1622 2.0771-1.2804 2.1823-0.11815 0.10524-8.3145 0.44274-18.214 0.75l-17.999 0.55864-1.7394 12c-0.95666 6.6-2.6887 15.15-3.8489 19-11.816 39.208-46.232 65.363-86.163 65.48-3.7125 0.0109-6.75-0.18842-6.75-0.44293zm-59.666-73.787c-9.657-10.263-58.334-75.035-58.334-77.622 0-1.0528 0.7875-2.2942 1.75-2.7588s9.594-1.0752 19.181-1.357l17.431-0.51237 1.7358-12.071c3.9654-27.577 15.055-48.613 33.761-64.043 11.297-9.318 24.877-15.289 44.07-19.378 8.8462-1.8843 20.39-2.6883 17.063-1.1883-3.8514 1.7362-14.988 10.071-19.545 14.627-16.326 16.326-25.886 41.788-26.677 71.052l-0.27045 10 17.599 0.5c18.776 0.53346 20.901 1.0986 20.901 5.5588 0 2.2002-11.426 17.451-43.41 57.941-13.844 17.527-18.397 22.5-20.597 22.5-0.88049 0-2.977-1.4625-4.6589-3.25z" fill="#97c7e7"/>
  <path d="m123 251.94c12.059-8.8103 15.484-11.693 19.455-16.374 9.7776-11.526 15.611-23.368 19.911-40.418 2.5502-10.113 5.2881-33.003 4.2661-35.666-0.47024-1.2254-3.3454-1.4833-16.536-1.4833-17.018 0-20.533-0.64976-21.594-3.9917-0.97294-3.0655-0.96022-3.0829 40.265-55.258 18.197-23.03 20.651-25.75 23.235-25.75 3.0221 0 8.7656 6.8789 47.842 57.299 15.451 19.936 16.371 21.42 14.949 24.123-0.60121 1.1432-1.5882 2.4091-2.1934 2.8132-0.60517 0.40408-8.8424 0.74158-18.305 0.75l-17.205 0.01531-0.4833 3.25c-0.26582 1.7875-0.9857 7.2418-1.5998 12.121-3.9862 31.672-22.413 58.368-49.508 71.726-12.324 6.0758-22.818 8.8262-36.5 9.5661l-10.5 0.56787zm-61.202-68.996c-2.0984-1.2236-24.412-29.656-44.299-56.447-8.1654-11-15.218-20.15-15.673-20.333-1.4669-0.59165-0.87707-4.9333 0.75532-5.5597 0.86998-0.33385 4.85-0.60699 8.8444-0.60699 3.9945 0 12.04-0.29232 17.879-0.64959l10.617-0.64959 0.59056-4.6004c2.5772-20.076 5.4883-30.418 12.136-43.117 8.9174-17.033 21.443-29.289 38.851-38.016 9.6739-4.8496 26.398-9.9682 32.569-9.9682 1.547 0 3.0909-0.45 3.4308-1s2.504-0.93872 4.809-0.86382c2.305 0.0749 3.1785 0.3312 1.941 0.56955s-2.25 0.78836-2.25 1.2222c0 0.43388-2.3625 2.364-5.25 4.2891-22.037 14.692-35.414 42.955-37.406 79.033l-0.64897 11.75h6.4957c3.5726 0 12.009 0.29642 18.746 0.65872 11.356 0.61061 12.324 0.82046 13.26 2.8735 0.71757 1.5749 0.64535 2.9014-0.24997 4.5913-2.9424 5.5537-58.419 75.524-60.957 76.882-2.2138 1.1848-2.0555 1.187-4.192-0.0587z" fill="#8ac2e6"/>
  <path d="m123 251.94c12.346-9.0199 15.708-11.886 20.018-17.063 9.6939-11.643 15.982-24.785 19.799-41.38 2.0428-8.8813 4.1831-25.177 4.1831-31.849v-3.4279l-18.091-0.3757c-16.462-0.34187-18.218-0.54922-19.5-2.3026-0.77495-1.0598-1.409-2.4808-1.409-3.1578 0-1.4179 12.811-18.215 41.291-54.137 20.569-25.944 21.901-27.178 25.9-24 2.63 2.0901 55.39 69.367 58.812 74.995 1.9179 3.1538 1.3972 6.1204-1.4025 7.9897-0.60517 0.40408-8.8542 0.74158-18.331 0.75-17.072 0.0152-17.235 0.0361-17.653 2.2653-0.23198 1.2375-0.90882 6.593-1.5041 11.901-3.6086 32.177-22.117 59.39-49.612 72.945-12.324 6.0758-22.818 8.8262-36.5 9.5661l-10.5 0.56787zm-60.77-68.612c-1.6562-0.66648-21.591-26.124-42.154-53.831-8.9799-12.1-16.946-22.5-17.702-23.11-1.8693-1.5097-1.7272-3.4017 0.37532-4.9977 1.2848-0.97531 6.1361-1.341 18.25-1.3756 9.075-0.02591 17.124-0.44222 17.886-0.92513 0.87284-0.55277 1.8923-4.7903 2.7521-11.44 2.813-21.755 10.737-39.583 23.688-53.296 4.3045-4.5577 9.4795-9.2909 11.5-10.518 2.0205-1.2274 3.8987-2.5101 4.1737-2.8504 1.4308-1.7707 10.773-7.4204 16.724-10.114 8.2362-3.728 24.025-7.8918 29.654-7.8202l4.1218 0.052452-2.4747 1.6975c-21.142 14.503-34.067 36.825-38.462 66.428-2.1142 14.238-2.1058 26.347 0.01882 27.162 0.86998 0.33384 8.9002 0.60699 17.845 0.60699 15.004 0 16.404 0.15514 18.077 2.0041 2.4952 2.7572 2.0102 3.6136-13.031 23.008-34.341 44.281-48.027 60.743-49.805 59.909-0.09252-0.0434-0.73956-0.30887-1.4379-0.58989zm69.02-182.02c0.9625-0.25153 2.5375-0.25153 3.5 0 0.9625 0.25153 0.175 0.45732-1.75 0.45732s-2.7125-0.2058-1.75-0.45732z" fill="#83bce5"/>
  <path d="m123 251.94c12.346-9.0199 15.708-11.886 20.018-17.063 9.6939-11.643 15.982-24.785 19.799-41.38 2.0385-8.8627 4.1831-25.174 4.1831-31.816v-3.3945l-17.25-0.54704c-17.991-0.57054-20.223-0.92742-21.166-3.3835-0.9149-2.3842 1.2672-5.6404 19.067-28.452 42.234-54.127 42.618-54.556 46.683-52.247 2.1854 1.2412 55.624 68.935 59.668 75.585 1.9179 3.1538 1.3972 6.1204-1.4025 7.9897-0.60517 0.40408-8.8542 0.74158-18.331 0.75-17.072 0.0152-17.235 0.0361-17.653 2.2653-0.23198 1.2375-0.90882 6.593-1.5041 11.901-3.6086 32.177-22.117 59.39-49.612 72.945-12.324 6.0758-22.818 8.8262-36.5 9.5661l-10.5 0.56787zm-75.628-86.693c-14.417-18.37-15.398-19.666-33.991-44.936-6.1457-8.3526-11.445-14.915-11.777-14.583-0.33173 0.33173-0.60314-0.44686-0.60314-1.7302s0.27857-2.0548 0.61905-1.7143c0.34048 0.34048 1.2726-0.0345 2.0714-0.83333 1.1541-1.1541 4.8882-1.4524 18.181-1.4524 18.28 0 19.129-0.24802 19.129-5.5895 0-9.1982 5.0627-28.425 10.246-38.91 3.9534-7.9979 6.1313-10.14 17.926-17.634 5.5105-3.5012 11.847-7.7158 14.082-9.3658 5.0988-3.7649 7.2421-5.1906 13.909-9.2516 2.9359-1.7884 7.8129-5.0691 10.838-7.2906 3.025-2.2215 6.435-4.6967 7.5777-5.5005 2.017-1.4188 13.227-3.9863 14.005-3.2078 0.21285 0.21285-2.5867 2.5704-6.2212 5.2391-20.727 15.219-35.326 50.04-34.173 81.511l0.31131 8.5 17.448 0.27446c14.462 0.22749 17.757 0.55355 19.25 1.905 0.99094 0.89679 1.8017 2.1887 1.8017 2.871 0 1.503-13.475 19.268-40.73 53.7-17.931 22.651-20.719 25.75-23.175 25.75-2.428 0-4.6085-2.3144-16.723-17.75zm85.441-163.93c0.72187-0.28887 1.5844-0.25334 1.9167 0.078947 0.33229 0.33229-0.25834 0.56864-1.3125 0.52522-1.165-0.047984-1.4019-0.28494-0.60417-0.60417z" fill="#89b7db"/>
  <path d="m126.07 249.92c25.185-17.229 38.061-43.022 40.529-81.185l0.67469-10.436-17.388-0.55118c-18.128-0.57464-20.36-0.92961-21.303-3.3877-0.9149-2.3842 1.2672-5.6404 19.067-28.452 42.361-54.29 42.593-54.548 46.77-52.211 1.4497 0.81127 31.497 38.748 51.829 65.438 12.804 16.807 12.392 17.833-7.2 17.94-7.4525 0.0408-15.575 0.37827-18.05 0.75l-4.5 0.67588-0.78217 8c-4.5531 46.569-33.503 79.523-76.437 87.01-4.6987 0.81938-11.264 1.4898-14.59 1.4898h-6.0471zm-78.7-84.669c-14.417-18.37-15.398-19.666-33.991-44.936-6.1457-8.3526-11.445-14.915-11.777-14.583-0.33173 0.33173-0.60314-0.44686-0.60314-1.7302s0.27857-2.0548 0.61905-1.7143c0.34048 0.34048 1.2726-0.0345 2.0714-0.83333 1.1541-1.1541 4.8882-1.4524 18.181-1.4524 18.28 0 19.129-0.24802 19.129-5.5895 0-9.1982 5.0627-28.425 10.246-38.91 3.9534-7.9979 6.1313-10.14 17.926-17.634 5.5105-3.5012 11.847-7.7158 14.082-9.3658 5.0988-3.7649 7.2421-5.1906 13.909-9.2516 2.9359-1.7884 7.8129-5.0691 10.838-7.2906 3.025-2.2215 6.435-4.6967 7.5777-5.5005 2.017-1.4188 13.227-3.9863 14.005-3.2078 0.21285 0.21285-2.5867 2.5704-6.2212 5.2391-20.727 15.219-35.326 50.04-34.173 81.511l0.31131 8.5 17.448 0.27446c14.462 0.22749 17.757 0.55355 19.25 1.905 0.99094 0.89679 1.8017 2.1887 1.8017 2.871 0 1.503-13.475 19.268-40.73 53.7-17.931 22.651-20.719 25.75-23.175 25.75-2.428 0-4.6085-2.3144-16.723-17.75zm85.441-163.93c0.72187-0.28887 1.5844-0.25334 1.9167 0.078947 0.33229 0.33229-0.25834 0.56864-1.3125 0.52522-1.165-0.047984-1.4019-0.28494-0.60417-0.60417z" fill="#7cb9e4"/>
  <path d="m126.07 249.92c21.189-14.495 32.796-33.541 38.38-62.98 1.539-8.1132 3.2736-28.738 2.4499-29.13-0.22109-0.10524-8.4483-0.44274-18.283-0.75-16.652-0.52025-17.975-0.70105-19.254-2.6311-1.8197-2.746-1.1952-3.6554 28.107-40.928 28.473-36.218 32.117-40.5 34.469-40.5 2.4128 0 5.2952 3.3035 26.612 30.5 37.769 48.186 38.41 49.137 35.247 52.3-0.80727 0.80727-5.6346 1.2243-14.75 1.2741-7.4525 0.0408-15.575 0.37827-18.05 0.75l-4.5 0.67588-0.78217 8c-4.5531 46.569-33.503 79.523-76.437 87.01-4.6987 0.81938-11.264 1.4898-14.59 1.4898h-6.0471zm-65.269-68.169c-2.9805-2.359-33.93-43-54.6-71.697-3.3518-4.6535-4.0673-7.796-1.9531-8.5783 0.6875-0.25441 8.8523-0.80278 18.144-1.2186 13.462-0.60247 17.051-1.0608 17.667-2.2561 0.42485-0.825 1.4638-6 2.3087-11.5 2.9512-19.21 7.1836-28.162 15.089-31.913 1.8952-0.89934 4.705-2.643 6.2439-3.8747 2.6774-2.143 13.901-9.6599 21.298-14.264 1.925-1.1982 7.325-4.6488 12-7.668s9.0748-5.814 9.7774-6.2108-0.96303 3.4754-3.7014 8.6047c-8.3691 15.676-12.882 32.852-14.587 55.522-0.96339 12.804-1.7355 12.304 18.99 12.304 16.589 0 17.478 0.09945 18.889 2.1148 0.81469 1.1631 1.2176 2.8506 0.89529 3.75-0.72252 2.0162-17.68 24.113-42.122 54.885-18.956 23.867-20.368 25.143-24.339 22zm-59.645-77.75c0-1.375 0.22697-1.9375 0.50439-1.25s0.27741 1.8125 0 2.5-0.50439 0.125-0.50439-1.25z" fill="#73b4e2"/>
  <path d="m126.53 249.73c12.517-8.5276 21.551-18.901 28.01-32.161 7.9055-16.23 13.238-40.142 12.28-55.069l-0.32071-5-17.427-0.27437c-18.11-0.28513-20.073-0.73546-20.073-4.6052 0-2.3816 3.0099-6.4713 30.631-41.62 26.334-33.511 30.137-38 32.195-38 2.5132 0 5.3308 3.2405 27.824 32 31.278 39.993 35.351 45.477 35.351 47.605 0 4.0011-1.6806 4.3947-18.766 4.3947-9.0012 0-17.17 0.43033-18.153 0.95629-1.3869 0.74223-1.936 2.7448-2.4532 8.9464-1.9611 23.515-12.359 46.731-27.768 61.997-15.469 15.326-36.435 24.413-59.36 25.728l-10 0.57372zm-67.212-69.981c-7.0481-7.4511-42.54-54.509-52.786-69.987-5.2415-7.9182-4.4424-8.7221 8.8408-8.8935 5.5702-0.07189 13.503-0.40939 17.628-0.75l7.5-0.6193 1.236-7.5c2.7769-16.851 3.0497-17.608 7.5695-20.997 2.307-1.7302 7.1195-5.0395 10.695-7.354s9.5355-6.3322 13.245-8.9283c3.71-2.5961 7.0425-4.7202 7.4056-4.7202 0.36308 0 2.1351-1.125 3.9378-2.5s3.5591-2.5 3.903-2.5c0.34395 0 2.3988-1.4252 4.5663-3.1671 2.1675-1.7419 4.1484-2.9596 4.4019-2.7061 0.25351 0.25351-0.8272 4.4912-2.4016 9.4171-4.8653 15.222-8.4963 43.901-6.1204 48.341 1.0827 2.0231 1.8547 2.1155 17.663 2.1155 9.4826 0 17.355 0.44136 18.465 1.0352 4.7651 2.5502 3.4478 4.5756-33.409 51.369-27.971 35.512-26.653 34.357-32.339 28.346z" fill="#6ab1e1"/>
  <path d="m126.53 249.73c12.517-8.5276 21.551-18.901 28.01-32.161 7.9055-16.23 13.238-40.142 12.28-55.069l-0.32071-5-17.427-0.27437c-18.11-0.28513-20.073-0.73546-20.073-4.6052 0-2.3816 3.0099-6.4713 30.631-41.62 26.334-33.511 30.137-38 32.195-38 2.5132 0 5.3308 3.2405 27.824 32 31.278 39.993 35.351 45.477 35.351 47.605 0 4.0011-1.6806 4.3947-18.766 4.3947-9.0012 0-17.17 0.43033-18.153 0.95629-1.3869 0.74223-1.936 2.7448-2.4532 8.9464-1.9611 23.515-12.359 46.731-27.768 61.997-15.469 15.326-36.435 24.413-59.36 25.728l-10 0.57372zm-67.165-69.981c-8.2813-8.8908-47.266-61.09-51.416-68.845-1.0244-1.914-0.86256-2.4744 1.1819-4.0932 5.6651-4.4858 8.2746-5.2747 19.207-5.8062 12.012-0.58399 13.656-1.4801 13.667-7.447 0.01-5.4792 1.8973-10.394 4.2755-11.135 1.2204-0.38006 3.8586-1.9809 5.8628-3.5575 2.0041-1.5766 4.1041-2.8665 4.6667-2.8665s1.1728-0.3375 1.3561-0.75c0.45269-1.0186 6.6938-5.4652 10.113-7.2049 1.5285-0.77785 5.4523-3.5683 8.7194-6.201s8.2694-6.4238 11.116-8.4247l5.1759-3.6381-0.64984 3.8593c-0.35741 2.1226-1.3159 7.5899-2.13 12.15-2.2577 12.645-3.0902 29.807-1.5368 31.678 1.0469 1.2615 4.1684 1.5313 17.714 1.5313 9.4224 0 17.269 0.442 18.378 1.0352 4.769 2.5523 2.4714 6.0077-37.877 56.965-17.685 22.334-20.954 26-23.189 26-0.88422 0-2.9699-1.4625-4.6348-3.25z" fill="#64aee0"/>
  <path d="m126.53 249.73c12.517-8.5276 21.551-18.901 28.01-32.161 7.9055-16.23 13.238-40.142 12.28-55.069l-0.32071-5-17.427-0.27437c-10.783-0.16977-17.931-0.69302-18.75-1.3724-2.5041-2.0782-1.3002-5.3734 4.9306-13.496 15.221-19.844 20.128-26.123 36.457-46.647 9.5348-11.985 18.062-22.069 18.948-22.409 0.88685-0.34032 2.3388-0.16963 3.2265 0.3793 4.0468 2.5023 61.114 76.121 61.114 78.839 0 4.0967-1.6094 4.481-18.766 4.481-9.0012 0-17.17 0.43033-18.153 0.95629-1.3869 0.74223-1.936 2.7448-2.4532 8.9464-1.9611 23.515-12.359 46.731-27.768 61.997-15.469 15.326-36.435 24.413-59.36 25.728l-10 0.57372zm-67.138-69.942c-8.9141-9.5307-49.392-64.319-49.392-66.854 0-0.37963 3.7248-3.2203 8.2773-6.3125 7.6981-5.2288 8.6824-5.6223 14.066-5.6223 7.6802 0 9.6569-1.1428 9.6569-5.5829 0-4.0594 2.4906-6.7939 10.425-11.446 2.7914-1.6367 6.8753-4.3171 9.0753-5.9563s5.125-3.5506 6.5-4.2476c1.375-0.69694 3.5466-2.1672 4.8257-3.2672 2.5283-2.1742 17.43-11.589 17.765-11.224 0.11309 0.12331-0.40822 5.3992-1.1585 11.724-1.4567 12.281-1.8175 23.832-0.8251 26.418 0.52048 1.3563 3.0241 1.5818 17.566 1.5818 9.7778 0 17.778 0.43834 18.893 1.0352 3.6097 1.9319 2.1663 5.3484-7.6286 18.057-15.28 19.826-15.541 20.162-24.09 31.037-18.385 23.387-26.961 33.383-28.878 33.66-1.2261 0.17698-3.1933-0.98528-5.0776-3z" fill="#6aaeda"/>
  <path d="m120.02 254.18c2.1937-0.97991 10.772-6.9715 15.756-11.005 13.353-10.806 24.504-32.014 28.752-54.686 2.2493-12.004 3.4778-28.68 2.2276-30.239-0.73213-0.91257-5.6399-1.25-18.18-1.25-18.001 0-19.578-0.36016-19.578-4.4725 0-2.7625 59.806-79.528 61.958-79.528 2.7011 0 5.5858 3.096 20.381 21.874 32.59 41.362 43.661 56.081 43.661 58.048 0 3.4623-3.1674 4.0784-20.966 4.0784-12.817 0-17.188 0.31289-17.46 1.25-0.19959 0.6875-1.0593 6.5371-1.9105 12.999-3.0795 23.379-11.679 41.702-26.664 56.813-12.967 13.076-25.909 19.98-45.996 24.537-9.3713 2.126-25.857 3.3116-21.983 1.5809zm-62.245-76.376c-14.605-17.332-47.777-62.371-47.777-64.869 0-0.37963 3.7248-3.2203 8.2773-6.3125 7.6981-5.2288 8.6824-5.6223 14.066-5.6223 7.6802 0 9.6569-1.1428 9.6569-5.5829 0-4.0594 2.4906-6.7939 10.425-11.446 2.7914-1.6367 6.8753-4.3171 9.0753-5.9563s5.125-3.5506 6.5-4.2476c1.375-0.69694 3.5466-2.1672 4.8257-3.2672 2.5283-2.1742 17.43-11.589 17.765-11.224 0.11309 0.12331-0.40822 5.3992-1.1585 11.724-1.4567 12.281-1.8175 23.832-0.8251 26.418 0.52048 1.3563 3.0241 1.5818 17.566 1.5818 9.7778 0 17.778 0.43834 18.893 1.0352 4.0654 2.1758 2.2712 5.351-17.022 30.124-31.255 40.132-41.36 52.314-43.674 52.644-1.5313 0.21876-3.3711-1.1765-6.5931-5z" fill="#5dade0"/>
  <path d="m120.02 254.18c2.1937-0.97991 10.772-6.9715 15.756-11.005 13.353-10.806 24.504-32.014 28.752-54.686 2.2493-12.004 3.4778-28.68 2.2276-30.239-0.729-0.90866-5.493-1.25-17.446-1.25-9.4224 0-17.269-0.442-18.378-1.0352-4.5014-2.4091-3.3919-4.0614 37.458-55.784 10.998-13.925 20.777-25.736 21.73-26.246 0.95314-0.5101 2.4602-0.64838 3.3491-0.30729 1.5537 0.59623 18.853 22.148 47.824 59.579 7.5375 9.7387 13.705 18.61 13.705 19.715 0 3.4623-3.1674 4.0784-20.966 4.0784-12.817 0-17.188 0.31289-17.46 1.25-0.19959 0.6875-1.0593 6.5371-1.9105 12.999-3.0795 23.379-11.679 41.702-26.664 56.813-12.967 13.076-25.909 19.98-45.996 24.537-9.3713 2.126-25.857 3.3116-21.983 1.5809zm-60.133-73.89c-4.644-5.0571-23.883-30.062-32.978-42.861-11.083-15.597-13.892-20.497-12.124-21.147 0.70782-0.26039 2.5728-1.5554 4.1444-2.8778s3.3294-2.4044 3.9063-2.4044 1.637-0.80695 2.3556-1.7932c1.8611-2.554 11.446-8.2068 13.915-8.2068 1.2435 0 2.2905-0.81042 2.6061-2.0171 0.29011-1.1094 4.3506-4.5969 9.0233-7.75 17.674-11.926 24.342-16.233 25.134-16.233 0.44969 0 1.6749-0.95238 2.7226-2.1164 2.1566-2.3959 10.385-8.2587 10.85-7.73 0.16722 0.19052-0.05655 2.8214-0.49727 5.8464-0.96374 6.6148-1.1903 24.203-0.34033 26.418 0.5192 1.353 2.9685 1.5818 16.935 1.5818 17.914 0 21.458 0.69809 21.458 4.2269 0 3.9821-58.998 79.058-62.525 79.563-1.2029 0.17232-3.0644-0.84226-4.5867-2.5z" fill="#57a9dd"/>
  <path d="m120 254.34c2.5358-1.1401 11.242-7.4016 16.681-11.997 13.028-11.007 23.183-30.225 27.734-52.485 1.8572-9.0827 3.7526-29.274 2.9456-31.377-0.47273-1.2319-3.4876-1.4836-17.771-1.4836-18.91 0-21.415-0.63009-20.252-5.0944 0.92708-3.559 58.668-77.308 61.326-78.328 3.1111-1.1938 2.4096-2.0127 44.666 52.136 10.822 13.868 19.676 26.103 19.676 27.191s-0.5625 2.3414-1.25 2.7864-9.35 1.034-19.25 1.309l-18 0.5-1.1417 9.2144c-2.5424 20.519-7.3882 34.596-16.755 48.674-12.144 18.252-29.821 30.448-52.591 36.286-8.4835 2.1751-29.777 4.3582-26.016 2.6673zm-59.342-73.592c-6.3663-5.8252-40.78-52.396-41.024-55.516-0.080359-1.0267 3.4199-4.0141 9.3717-7.9988 10.981-7.3515 13.278-8.961 16.876-11.823 2.798-2.2258 36.943-24.64 41.026-26.931 1.1712-0.65722 1.2945 0.43107 0.7497 6.6162-0.35864 4.0716-0.28321 8.7528 0.16762 10.403l0.8197 3 17.527 0.5c18.312 0.52239 21.28 1.2549 20.632 5.0933-0.6216 3.6853-59.941 78.907-62.225 78.907-0.8037 0-2.5678-1.0125-3.9203-2.25z" fill="#47a4da"/>
  <path d="m120 254.34c2.5358-1.1401 11.242-7.4016 16.681-11.997 13.028-11.007 23.183-30.225 27.734-52.485 1.8313-8.9564 3.7569-29.262 2.9695-31.315-0.43704-1.1389-4.1143-1.4835-18.501-1.7336-18.416-0.32022-19.814-0.63823-19.863-4.5193-0.0291-2.2937 59.059-77 61.706-78.016 0.85303-0.32734 2.2773-0.15044 3.165 0.39311 4.0952 2.5074 61.114 75.51 61.114 78.245 0 1.0816-0.5625 2.3306-1.25 2.7756s-9.35 1.034-19.25 1.309l-18 0.5-1.1417 9.2144c-2.5424 20.519-7.3882 34.596-16.755 48.674-12.144 18.252-29.821 30.448-52.591 36.286-8.4835 2.1751-29.777 4.3582-26.016 2.6673zm-58.181-72.592c-4.1176-3.2811-32.87-41.386-36.883-48.881-0.9459-1.7664-1.6056-1.2577 25.331-19.533 7.5687-5.135 13.976-9.3365 14.239-9.3365s1.27-0.67745 2.2388-1.5054c0.96879-0.82799 5.8114-4.1321 10.761-7.3425l9-5.8371 0.58633 3.9863c0.93038 6.3254 2.0958 6.6988 20.905 6.6988 16.508 0 19.009 0.47087 19.009 3.579 0 1.442-11.028 16.014-37.022 48.921-25.829 32.698-24.964 31.8-28.165 29.25z" fill="#39a1d9"/>
  <path d="m120 254.34c2.5358-1.1401 11.242-7.4016 16.681-11.997 13.028-11.007 23.183-30.225 27.734-52.485 1.8313-8.9564 3.7569-29.262 2.9695-31.315-0.43704-1.1389-4.1143-1.4835-18.501-1.7336-18.397-0.31988-19.814-0.64072-19.863-4.4977-0.0295-2.2864 59.068-77.025 61.706-78.038 0.85303-0.32734 2.2773-0.15044 3.165 0.39311 4.0952 2.5074 61.114 75.51 61.114 78.245 0 1.0816-0.5625 2.3306-1.25 2.7756s-9.35 1.034-19.25 1.309l-18 0.5-1.1417 9.2144c-2.5424 20.519-7.3882 34.596-16.755 48.674-12.144 18.252-29.821 30.448-52.591 36.286-8.4835 2.1751-29.777 4.3582-26.016 2.6673zm-58.287-73.358c-5.7168-4.4968-33.708-42.192-33.708-45.394 0-0.52031 7.4399-5.1271 13.558-8.3948 1.3433-0.71751 2.4423-1.73 2.4423-2.25 0-0.51998 0.50309-0.94543 1.118-0.94543 0.9655 0 3.9349-2.2081 9.882-7.3483 0.825-0.71307 3.3-2.3572 5.5-3.6537s6.7-4.4502 10-7.0084c10.316-7.9968 15.848-11.446 16.28-10.151 1.2708 3.8123 2.9968 4.1611 20.592 4.1611 17.203 0 19.629 0.44867 19.629 3.6306 0 2.0542-58.597 76.999-61.459 78.604-0.7501 0.42083-2.3887-0.11357-3.8339-1.2504z" fill="#4b95ca"/>
  <path d="m120.5 254.2c4.4987-1.5738 14.572-9.4976 21.68-17.053 15.417-16.389 24.855-42.59 25.198-69.954l0.12158-9.6926-17.75-0.53532c-15.007-0.4526-18.016-0.80194-19.475-2.2608-2.278-2.278-2.8463-1.4114 20.989-32.008 30.04-38.562 38.029-48.162 40.353-48.496 2.7127-0.39007 3.152 0.12655 34.489 40.561 14.382 18.557 26.766 34.239 27.521 34.849 2.2166 1.7931 1.6892 5.2868-0.87749 5.8124-1.2375 0.25341-9.846 0.6676-19.13 0.92042-18.532 0.50465-18.578 0.52147-18.605 6.7759-0.0235 5.5601-2.8261 20.639-5.182 27.881-8.8043 27.065-28.262 47.727-53.681 57.004-4.528 1.6525-11.927 3.7323-16.443 4.6218-8.3982 1.6543-22.816 2.8358-19.21 1.5742zm-58.792-73.215c-5.7168-4.4968-33.708-42.192-33.708-45.394 0-0.52031 7.4399-5.1271 13.558-8.3948 1.3433-0.71751 2.4423-1.73 2.4423-2.25 0-0.51998 0.50309-0.94543 1.118-0.94543 0.9655 0 3.9349-2.2081 9.882-7.3483 0.825-0.71307 3.3-2.3572 5.5-3.6537s6.7-4.4502 10-7.0084c10.316-7.9968 15.848-11.446 16.28-10.151 1.2708 3.8123 2.9968 4.1611 20.592 4.1611 17.203 0 19.629 0.44867 19.629 3.6306 0 2.0542-58.597 76.999-61.459 78.604-0.7501 0.42083-2.3887-0.11357-3.8339-1.2504z" fill="#349dd6"/>
  <path d="m120.5 254.2c4.4987-1.5738 14.572-9.4976 21.68-17.053 15.069-16.018 23.685-39.293 25.495-68.864 0.51581-8.4304 0.36638-10.644-0.76708-11.361-0.77423-0.49014-9.1544-0.89806-18.623-0.90648-15.95-0.0142-17.29-0.1565-18.244-1.9375-1.2183-2.2764 0.95922-5.3511 29.513-41.674 28.055-35.688 30.353-38.404 32.506-38.404 2.0378 0 9.286 8.8078 42.381 51.5 9.8062 12.65 18.444 23.5 19.194 24.11 2.2094 1.7973 1.6778 5.2876-0.88519 5.8124-1.2375 0.25341-9.846 0.6676-19.13 0.92042-18.532 0.50465-18.578 0.52147-18.605 6.7759-0.0235 5.5601-2.8261 20.639-5.182 27.881-8.8043 27.065-28.262 47.727-53.681 57.004-4.528 1.6525-11.927 3.7323-16.443 4.6218-8.3982 1.6543-22.816 2.8358-19.21 1.5742zm-60.662-74.95c-5.1657-5.6018-26.488-33.852-27.738-36.75-1.2108-2.8082-1.1177-3.1279 1.4551-5 6.1695-4.4892 19.973-15.59 31.199-25.091 6.558-5.5502 14.102-11.59 16.764-13.422l4.8407-3.3305 1.442 2.1718c1.3904 2.0941 2.0808 2.1718 19.285 2.1718 16.426 0 17.923 0.149 18.847 1.8758 1.3554 2.5327-0.10585 4.6271-27.995 40.124-28.536 36.321-31.648 40-33.829 40-0.95457 0-2.8768-1.2375-4.2715-2.75z" fill="#299ad5"/>
  <path d="m120.5 254.2c4.5354-1.5866 14.599-9.5262 21.864-17.249 12.76-13.564 20.359-31.345 24.124-56.451 1.2818-8.5464 2.0557-23.081 1.2616-23.693-0.1375-0.10599-8.575-0.44349-18.75-0.75-23.623-0.71159-23.243 0.24684-7.8206-19.757 20.593-26.711 47.926-60.779 49.444-61.629 0.90998-0.50925 2.2354-0.3151 3.3895 0.49649 1.9216 1.3513 17.836 21.227 43.906 54.833 7.8931 10.175 14.965 19 15.716 19.61 2.2096 1.7972 1.6782 5.2875-0.88497 5.8124-1.2375 0.25341-9.846 0.6676-19.13 0.92042-18.532 0.50465-18.578 0.52147-18.605 6.7759-0.0235 5.5601-2.8261 20.639-5.182 27.881-8.8043 27.065-28.262 47.727-53.681 57.004-4.528 1.6525-11.927 3.7323-16.443 4.6218-8.3982 1.6543-22.816 2.8358-19.21 1.5742zm-72.447-90.202c-7.7293-9.9011-14.053-18.667-14.053-19.48 0-2.9532 29.298-30.281 45.411-42.357 6.255-4.6878 7.0695-5.0363 8.5787-3.6705 1.3426 1.2151 4.8314 1.5091 17.905 1.5091 16.581 0 20.106 0.66603 20.106 3.799 0 1.699-15.771 22.426-45.234 59.451-9.8083 12.325-15.561 18.75-16.79 18.75-1.2362 0-6.6295-6.0978-15.923-18.002z" fill="#1687c9"/>
  <path d="m120.5 254.2c4.5354-1.5866 14.599-9.5262 21.864-17.249 12.835-13.643 20.345-31.276 24.182-56.774 0.88369-5.8723 1.6291-13.579 1.6565-17.125 0.0582-7.5401 2.6672-6.6201-21.124-7.4488-15.878-0.5531-17.927-1.1494-16.045-4.6673 1.0289-1.9225 28.304-36.978 46.826-60.185 6.9216-8.672 13.299-15.75 14.19-15.75 0.8905 0 6.2676 5.85 11.949 13s10.732 13 11.224 13 0.63492 0.41921 0.31826 0.93158 0.44428 1.646 1.691 2.5193c1.2467 0.87322 2.2667 1.9783 2.2667 2.4557 0 0.4774 0.9606 1.7062 2.1347 2.7307 1.1741 1.0245 8.5473 10.188 16.385 20.363 7.8377 10.175 14.865 19 15.615 19.61 2.2096 1.7972 1.6782 5.2875-0.88497 5.8124-1.2375 0.25341-9.846 0.6676-19.13 0.92042-18.532 0.50465-18.578 0.52147-18.605 6.7759-0.0235 5.5601-2.8261 20.639-5.182 27.881-8.8043 27.065-28.262 47.727-53.681 57.004-4.528 1.6525-11.927 3.7323-16.443 4.6218-8.3982 1.6543-22.816 2.8358-19.21 1.5742zm-71.632-90.236c-7.3525-9.3699-13.522-17.736-13.709-18.592-0.60979-2.7818 27.371-29.043 45.025-42.258 4.7569-3.5607 6.0104-4.0802 7.6843-3.1844 1.2021 0.64332 8.9663 1.0704 19.459 1.0704 14.717 0 17.551 0.23928 18.043 1.5237 0.66742 1.7393-8.4645 14.057-39.09 52.726-13.315 16.812-21.027 25.75-22.219 25.75-1.1723 0-6.6067-6.0935-15.193-17.036z" fill="#2579bc"/>
  <path d="m122.25 254.28c1.5125-0.22913 3.9875-0.22913 5.5 0 1.5125 0.22912 0.275 0.41659-2.75 0.41659s-4.2625-0.18747-2.75-0.41659zm7.5148-4.7174c23.397-16.174 37.647-46.928 38.5-83.093l0.23526-9.973-18.396-0.67643c-19.001-0.6987-21.033-1.2196-19.07-4.8882 1.0289-1.9225 28.304-36.978 46.826-60.185 6.914-8.6625 13.293-15.75 14.176-15.75s3.8565 2.8125 6.6087 6.25c10.098 12.612 42.185 53.5 48.591 61.918 3.6276 4.7672 6.8586 8.4047 7.18 8.0833s0.54878 0.50319 0.50536 1.8324c-0.0434 1.3292-0.30458 1.8582-0.58035 1.1756-0.38004-0.94065-0.86236-0.88013-1.9925 0.25-1.2075 1.2075-4.8101 1.4911-18.944 1.4911-20.291 0-18.669-1.0257-19.764 12.5-0.78565 9.707-4.4058 23.607-8.5435 32.804-13.097 29.11-41.24 48.871-73.096 51.324l-7.5 0.57756zm-80.897-85.602c-7.3525-9.3699-13.522-17.736-13.709-18.592-0.60979-2.7818 27.371-29.043 45.025-42.258 4.7569-3.5607 6.0104-4.0802 7.6843-3.1844 1.2021 0.64332 8.9663 1.0704 19.459 1.0704 14.717 0 17.551 0.23928 18.043 1.5237 0.66742 1.7393-8.4645 14.057-39.09 52.726-13.315 16.812-21.027 25.75-22.219 25.75-1.1723 0-6.6067-6.0935-15.193-17.036z" fill="#0081c9"/>
  <path d="m122.25 254.28c1.5125-0.22913 3.9875-0.22913 5.5 0 1.5125 0.22912 0.275 0.41659-2.75 0.41659s-4.2625-0.18747-2.75-0.41659zm7.5148-4.7174c23.397-16.174 37.647-46.928 38.5-83.093l0.23526-9.973-18.396-0.67643c-19.933-0.73296-21.387-1.1925-18.395-5.8139 2.1774-3.3628 29.019-37.798 45.318-58.138 7.2153-9.0044 13.89-16.503 14.833-16.663 1.0962-0.18653 3.5298 1.9762 6.7514 6 10.123 12.644 42.208 53.527 48.624 61.959 3.6276 4.7672 6.8586 8.4047 7.18 8.0833s0.54878 0.50319 0.50536 1.8324c-0.0434 1.3292-0.30458 1.8582-0.58035 1.1756-0.38004-0.94065-0.86236-0.88013-1.9925 0.25-1.2075 1.2075-4.8101 1.4911-18.944 1.4911-20.291 0-18.669-1.0257-19.764 12.5-0.78565 9.707-4.4058 23.607-8.5435 32.804-13.097 29.11-41.24 48.871-73.096 51.324l-7.5 0.57756zm-69.174-71.858c-1.4252-1.8685-2.5913-3.7259-2.5913-4.1275 0-1.0649 55.946-56.969 56.478-56.436 0.87849 0.87849-48.058 62.957-50.137 63.602-0.63731 0.19758-2.3248-1.1696-3.75-3.0381z" fill="#007bc4"/>
  <path d="m122.25 254.28c1.5125-0.22913 3.9875-0.22913 5.5 0 1.5125 0.22912 0.275 0.41659-2.75 0.41659s-4.2625-0.18747-2.75-0.41659zm7.5148-4.7174c23.144-15.998 36.147-43.578 38.816-82.326 0.57021-8.279 0.4407-10.281-0.68924-10.652-1.6946-0.55725-19.853-1.5307-29.173-1.564-8.7747-0.0313-9.2826-1.2527-3.6531-8.7858 6.3728-8.5277 29.837-37.045 34.435-41.851 2.2-2.2994 4.742-5.0148 5.6489-6.0343 0.90688-1.0194 2.7069-2.7834 4-3.9199s3.0931-2.9365 4-4 2.7069-2.8851 4-4.0481c1.2931-1.1629 3.4049-3.2942 4.6928-4.7361 1.7913-2.0056 2.7526-2.4018 4.0901-1.6859 2.8874 1.5453 55.29 66.846 56.8 70.78 0.26279 0.68484 0.88066 0.99619 1.373 0.69189 0.49237-0.3043 0.85969 0.48578 0.81627 1.7557-0.0434 1.27-0.30458 1.7505-0.58035 1.068-0.38004-0.94065-0.86236-0.88013-1.9925 0.25-1.2075 1.2075-4.8101 1.4911-18.944 1.4911-20.291 0-18.669-1.0257-19.764 12.5-0.78565 9.707-4.4058 23.607-8.5435 32.804-13.097 29.11-41.24 48.871-73.096 51.324l-7.5 0.57756z" fill="#0076c0"/>
  <path d="m122.25 254.28c1.5125-0.22913 3.9875-0.22913 5.5 0 1.5125 0.22912 0.275 0.41659-2.75 0.41659s-4.2625-0.18747-2.75-0.41659zm7.5148-4.7174c22.854-15.798 36.44-44.33 38.887-81.664 0.84881-12.952 0.89387-12.903-11.774-12.903-5.4327 0-9.8632-0.3375-9.8458-0.75 0.0506-1.1924 2.6033-4.25 3.5482-4.25 0.99075 0 6.4141-6.1268 6.4176-7.25 1e-3 -0.4125 0.79612-0.75 1.7663-0.75 0.97923 0 2.8637-1.7794 4.2361-4 1.3597-2.2 2.9148-4 3.4558-4 1.0807 0 6.538-6.0482 6.5418-7.25 1e-3 -0.4125 0.79612-0.75 1.7663-0.75 0.97923 0 2.8637-1.7794 4.2361-4 1.3597-2.2 2.9148-4 3.4558-4 1.0807 0 6.538-6.0482 6.5418-7.25 1e-3 -0.4125 0.79612-0.75 1.7663-0.75 0.97923 0 2.8637-1.7794 4.2361-4 1.3597-2.2 2.9148-4 3.4558-4 1.0807 0 6.538-6.0482 6.5418-7.25 6e-3 -1.7787 2.4849-0.47887 5.7221 3 4.1381 4.447 27.191 33.105 36.534 45.418 3.6176 4.7672 6.8404 8.4047 7.1617 8.0833s0.54878 0.50319 0.50536 1.8324c-0.0434 1.3292-0.30458 1.8582-0.58035 1.1756-0.38004-0.94065-0.86236-0.88013-1.9925 0.25-1.2075 1.2075-4.8101 1.4911-18.944 1.4911-20.291 0-18.669-1.0257-19.764 12.5-0.78565 9.707-4.4058 23.607-8.5435 32.804-13.097 29.11-41.24 48.871-73.096 51.324l-7.5 0.57756z" fill="#0072bc"/>
  <path d="m122.25 254.28c1.5125-0.22913 3.9875-0.22913 5.5 0 1.5125 0.22912 0.275 0.41659-2.75 0.41659s-4.2625-0.18747-2.75-0.41659zm6.3051-3.9393c8.1873-5.7429 11.72-9.0033 17.564-16.211 12.998-16.031 19.986-35.69 22.862-64.317l1.0733-10.684 24.603-24.618 24.603-24.618 2.479 2.3018c3.1229 2.8997 30.223 36.542 30.939 38.408 0.29183 0.76051 0.93346 1.1338 1.4258 0.82948 0.49237-0.3043 0.85969 0.48578 0.81627 1.7557-0.0434 1.27-0.30458 1.7505-0.58035 1.068-0.38004-0.94065-0.86236-0.88013-1.9925 0.25-1.2071 1.2071-4.8033 1.4911-18.884 1.4911-20.291 0-18.865-0.86322-19.823 12-0.74821 10.055-4.2822 23.829-8.5449 33.304-13.098 29.113-41.286 48.902-73.096 51.316l-7.5 0.56916z" fill="#006db8"/>
  <path d="m122.25 254.28c1.5125-0.22913 3.9875-0.22913 5.5 0 1.5125 0.22912 0.275 0.41659-2.75 0.41659s-4.2625-0.18747-2.75-0.41659zm3.75-1.6175c0-0.18358 2.503-2.0577 5.5623-4.1647 15.75-10.848 28.513-31.446 34.021-54.91l1.8566-7.9081 30.83-30.842c16.956-16.963 31.166-30.842 31.577-30.842 1.3786 0 11.833 11.94 20.33 23.218 1.9549 2.5948 3.8398 4.4323 4.1887 4.0833s0.59889 0.45308 0.55547 1.7822c-0.0434 1.3292-0.30458 1.8582-0.58035 1.1756-0.37893-0.9379-0.86995-0.87254-2.0101 0.26757-1.2781 1.2781-3.9847 1.4072-17.712 0.84454-11.088-0.45447-16.852-0.31656-18.26 0.4369-1.7687 0.94656-2.1499 2.4186-2.7175 10.493-0.7854 11.173-3.6996 23.307-8.1082 33.761-8.5491 20.271-25.641 37.385-45.66 45.719-9.6831 4.0311-33.873 8.9485-33.873 6.8858z" fill="#006ab5"/>
  <path d="m125.75 254.34c0.6875-0.27741 1.8125-0.27741 2.5 0s0.125 0.50439-1.25 0.50439-1.9375-0.22698-1.25-0.50439zm8.5824-7.2686c7.9408-6.3102 13.091-12.176 20.255-23.069 2.6487-4.0275 14.571-16.768 31.344-33.493l27.069-26.993v4.1551c0 15.636-8.7595 38.773-20.094 53.077-13.414 16.927-36.224 28.832-60.786 31.724l-5.3807 0.63351zm96.188-101.09c4.9385-4.963 9.5034-8.9006 10.144-8.75 1.9504 0.45825 12.335 13.808 12.335 15.856 0 1.8084-0.89297 1.9172-15.729 1.9172h-15.729zm23.558 6.4404c0.048-1.165 0.28494-1.4019 0.60416-0.60417 0.28887 0.72187 0.25335 1.5844-0.0789 1.9167-0.3323 0.33229-0.56864-0.25834-0.52522-1.3125z" fill="#0064b1"/>
  <path d="m158 244.03c0-0.60671 1.0125-2.0022 2.25-3.1011 2.085-1.8514 11.62-11.208 16.25-15.946 1.1-1.1256 4.7-4.7256 8-8s6.9-6.8814 8-8.0155c4.6651-4.8098 11.792-11.01 12.194-10.609 0.65677 0.65677-6.4522 14.629-9.4782 18.629-7.5999 10.046-16.519 17.83-27.236 23.771-6.6566 3.6898-9.9799 4.779-9.9799 3.2707zm91.015-89.782c0.0352-1.7254 1.8457-3.4539 2.9214-2.7891 0.87922 0.54339 0.87664 1.059-0.0106 2.1281-1.2545 1.5116-2.936 1.8934-2.9108 0.66097zm5.0636-1.8333c0.048-1.165 0.28494-1.4019 0.60416-0.60417 0.28887 0.72187 0.25335 1.5844-0.0789 1.9167-0.3323 0.33229-0.56864-0.25834-0.52522-1.3125z" fill="#0060ae"/>
 </g>
</svg>
