<?xml version="1.0" encoding="UTF-8"?>
<!-- Created with Inkscape (http://www.inkscape.org/) -->
<svg width="256" height="256" version="1.1" viewBox="0 0 256 256" xmlns="http://www.w3.org/2000/svg" xmlns:cc="http://creativecommons.org/ns#" xmlns:dc="http://purl.org/dc/elements/1.1/" xmlns:rdf="http://www.w3.org/1999/02/22-rdf-syntax-ns#">
 <metadata>
  <rdf:RDF>
   <cc:Work rdf:about="">
    <dc:format>image/svg+xml</dc:format>
    <dc:type rdf:resource="http://purl.org/dc/dcmitype/StillImage"/>
    <dc:title/>
   </cc:Work>
  </rdf:RDF>
 </metadata>
 <g transform="matrix(1 0 0 .99373 4.9699e-7 .80251)">
  <path d="m0 128v-128h256v256h-256z" fill="#fefefe"/>
  <path d="m118 254.26c0-0.57808 2.3578-2.5605 5.2396-4.4053 22.871-14.642 35.421-35.918 40.21-68.172 0.85255-5.7416 1.5501-13.194 1.5501-16.561v-6.1217h-16.777c-18.701 0-21.223-0.70187-21.223-5.9067 0-3.1651 1.3508-5.1416 18.802-27.512 28.55-36.598 42.372-53.501 44.23-54.091 1.0825-0.34357 2.8677-0.33918 3.9671 0.0098 3.1842 1.0106 58.08 71.157 60.583 77.414 1.4201 3.5492 1.418 4.1849-0.0233 6.9721l-1.5859 3.0668-17.236 0.27355-17.237 0.27352-1.2515 9.5c-4.3108 32.722-18.622 57.231-42.439 72.68-7.2568 4.7072-12.687 7.2468-22.104 10.338-7.0377 2.3104-34.705 4.0968-34.705 2.2409zm-59.172-72.01c-7.9771-8.6143-56.095-71.864-57.693-75.836-0.94736-2.3547-0.96997-3.6819-0.095411-5.6013 1.1055-2.4263 1.5734-2.5384 13.21-3.1641 6.6353-0.35678 14.641-0.64869 17.791-0.64869 6.225 0 6.9142-0.72856 6.946-7.3429 0.02528-5.2631 4.098-22.94 7.0474-30.588 4.2228-10.95 12.247-23.386 20.386-31.594 16.493-16.633 34.823-24.868 58.13-26.114 8.8884-0.47517 12.45-0.34656 12.45 0.44956 0 0.61333-2.8125 3.0197-6.25 5.3476-21.644 14.657-33.565 35.162-38.279 65.842-0.80278 5.225-1.4623 12.733-1.4655 16.686l-0.005895 7.1855 17.583 0.31446c16.047 0.28699 17.706 0.48401 19 2.2556 2.7268 3.7343 1.6454 6.6512-6.3034 17.004-13.487 17.564-40.435 51.755-47.531 60.305-7.8034 9.402-10.415 10.365-14.92 5.5z" fill="#d2e6f4"/>
  <path d="m119 254.29c0-0.55565 2.5875-2.6228 5.75-4.5936 16.495-10.28 28.12-25.855 34.576-46.327 3.6832-11.679 5.8048-24.128 6.002-35.219l0.17169-9.655-17.972-0.5c-17.813-0.49556-17.983-0.52157-19.182-2.9306-1.6962-3.4073-1.0928-4.3725 18.231-29.161 30.036-38.53 41.729-52.871 43.591-53.462 3.2185-1.0215 5.3694 0.42264 10.898 7.317 18.32 22.847 52.421 67.24 53.712 69.924 1.3959 2.9009 1.3829 3.4187-0.14464 5.75-1.6553 2.5264-1.8558 2.5621-14.406 2.5707-6.9998 5e-3 -15.089 0.29246-17.977 0.63929l-5.25 0.6306v3.6845c0 6.9078-3.217 22.518-6.5903 31.978-9.977 27.981-31.108 48.125-59.725 56.936-7.6637 2.3596-31.685 4.1924-31.685 2.4176zm-63.76-77.545c-7.8157-9.6232-30.761-39.418-43.784-56.855-13.207-17.683-13.578-20.895-2.4134-20.895 3.1036 0 11.096-0.29322 17.761-0.6516l12.118-0.6516 0.59025-4.5984c2.4407-19.014 5.38-29.91 11.222-41.598 14.751-29.515 43.272-48.032 77.265-50.162l9.5-0.59546-10.102 7.502c-11.721 8.7041-18.57 16.641-24.869 28.817-7.5951 14.682-12.952 37.868-12.321 53.319l0.29116 7.1189 17.67 0.5c9.7184 0.275 17.87 0.725 18.115 1 2.3948 2.6925 2.7671 5.2746 1.1272 7.8171-2.3602 3.659-29.744 38.843-46.645 59.933-16.886 21.071-16.62 20.967-25.526 10z" fill="#afd3eb"/>
  <path d="m119 254.53c0-0.25824 3.2625-2.6742 7.25-5.3689 8.5437-5.7737 17.461-14.513 22.398-21.951 10.227-15.408 16.639-37.761 17.558-61.21l0.29379-7.5-17.6-0.5c-18.63-0.52926-20.9-1.1142-20.9-5.3862 0-2.977 58.131-77.543 62.113-79.674 1.2802-0.68517 2.5154-0.67354 3.8415 0.03618 2.8238 1.5113 57.346 70.838 60.486 76.91 1.4368 2.7785 1.1533 5.632-0.7259 7.306-0.11815 0.10524-8.3145 0.44273-18.214 0.75l-17.999 0.55864-1.7162 11.776c-2.8689 19.685-7.0934 31.399-16.357 45.356-13.193 19.875-34.419 33.665-58.428 37.957-7.1904 1.2855-22 1.919-22 0.94111zm-59.682-73.78c-9.1975-9.7235-58.318-75.09-58.318-77.606 0-1.0615 0.7875-2.31 1.75-2.7745s9.625-1.0752 19.25-1.357l17.5-0.51237 1.2515-9.5c6.1356-46.574 31.672-75.683 74.748-85.207 4.95-1.0944 11.925-2.1932 15.5-2.4418 6.3923-0.44459 6.4503-0.42625 3.5 1.107-6.1258 3.1835-18.077 13.252-23.201 19.546-13.056 16.038-21.179 41.025-21.638 66.569l-0.16074 8.9263 17.599 0.5c18.537 0.52667 20.901 1.1244 20.901 5.2846 0 2.3066-6.4088 11.029-32.857 44.715-22.64 28.837-28.815 36-31.032 36-0.9456 0-3.1027-1.4625-4.7935-3.25z" fill="#92c5e7"/>
  <path d="m123 251.94c11.762-8.5935 15.428-11.622 19.053-15.741 9.6504-10.963 16.369-24.581 20.463-41.474 2.5361-10.466 5.1445-32.564 4.1497-35.157-0.50902-1.3265-2.8301-1.5733-14.884-1.5826-18.035-0.0139-21.636-0.57622-23.011-3.5931-1.3316-2.9225-2.0804-1.7972 20.212-30.374 37.932-48.624 40.091-51.152 43.415-50.82 2.6167 0.26151 6.3131 4.5617 30.342 35.298 33.168 42.427 33.494 42.894 32.08 45.998-1.4651 3.2156-3.0558 3.4732-21.55 3.4887-18.613 0.0157-16.641-1.2475-17.746 11.368-2.2231 25.388-14.707 49.815-33.349 65.255-8.122 6.7266-23.859 14.632-34.674 17.418-4.4 1.1336-12.725 2.3181-18.5 2.6322l-10.5 0.57116zm-60.739-68.601c-1.7458-0.70558-19.743-23.566-41.208-52.342-10.051-13.475-18.675-24.65-19.164-24.833-1.073-0.40228-1.2072-5.234-0.13911-5.0079 0.4125 0.0873 1.425-0.11033 2.25-0.43921 0.825-0.32889 9.0629-0.75235 18.306-0.94103 18.656-0.3808 18.651-0.37914 18.678-7.1214 0.02538-6.3684 3.9318-23.545 7.3029-32.111 6.0145-15.282 19.413-32.052 33.17-41.518 11.74-8.0775 34.511-16.029 45.903-16.029h5.1039l-3.9821 2.6538c-21.064 14.037-33.247 35.489-37.966 66.846-2.0609 13.697-2.0322 25.088 0.065322 25.893 0.86998 0.33384 8.9378 0.60699 17.929 0.60699 13.527 0 16.618 0.27103 17.918 1.5714 0.86429 0.86428 1.5714 2.2082 1.5714 2.9866 0 1.6261-8.3373 12.736-35.925 47.874-25.194 32.088-26.339 33.314-29.813 31.91zm68.5-182.05c1.2439-0.23919 3.0439-0.23011 4 0.020181 0.95609 0.25029-0.06166 0.446-2.2617 0.4349s-2.9822-0.21588-1.7383-0.45508z" fill="#84bbe3"/>
  <path d="m126 250.04c17.405-12.069 27.926-26.362 34.311-46.611 5.1993-16.491 8.5382-43.642 5.5959-45.505-0.77358-0.48973-8.9185-0.89732-18.1-0.90574-15.95-0.0146-16.76-0.11123-18.202-2.1699-1.1609-1.6574-1.2571-2.6381-0.41689-4.25 2.1301-4.0864 51.954-67.805 58.134-74.345 5.5653-5.8904 4.5863-6.7446 31.232 27.25 37.769 48.186 38.41 49.137 35.247 52.3-0.80089 0.80089-5.5403 1.2291-14.25 1.2876-7.1775 0.0482-15.3 0.38568-18.05 0.75-4.8547 0.64314-5.0075 0.76408-5.2575 4.1624-0.14165 1.925-0.95788 7.8932-1.8138 13.263-7.3012 45.8-40.839 76.789-85.929 79.397l-10 0.57846zm-65.192-68.288c-3.6901-2.9299-50.929-65.2-56.58-74.582-1.31-2.1754-2.1915-2.8698-2.5387-2-0.29252 0.73281-0.56737 0.29332-0.61079-0.97664s0.33262-2.0546 0.83564-1.7438c0.50302 0.31089 1.088 0.0451 1.2999-0.59057 0.26371-0.79115 5.967-1.3094 18.076-1.6425 11.286-0.31046 17.993-0.88985 18.527-1.6004 0.45983-0.61257 1.4122-5.3888 2.1164-10.614 1.3301-9.8694 4.9848-22.953 8.1004-29 1.7644-3.4242 5.2201-7 6.765-7 0.42699 0 2.3343-1.3317 4.2386-2.9594 1.9042-1.6276 3.819-2.9776 4.2551-3 0.4361-0.02235 3.1361-1.7973 6-3.9444 2.8639-2.1471 6.5876-4.7346 8.2749-5.75 2.7902-1.6792 7.8231-4.9218 18.932-12.198 2.2-1.4409 5.575-3.7991 7.5-5.2405s5.1899-3.6235 7.2552-4.8492c3.7337-2.2157 3.7183-2.1794-2.6998 6.3302-13.113 17.386-19.525 36.015-21.499 62.461-1.2888 17.269-2.5606 16.15 18.362 16.15 16.917 0 17.517 0.07006 19.025 2.2225 0.85618 1.2224 1.5567 2.5411 1.5567 2.9305 0 0.93489-19.837 26.676-42.845 55.597-18.973 23.849-20.397 25.136-24.348 22z" fill="#71b4e2"/>
  <path d="m126 250.04c18.876-13.086 30.342-29.832 36.336-53.074 2.7604-10.703 5.0195-28.23 4.5066-34.965l-0.34266-4.5-17.427-0.27437c-18.11-0.28513-20.073-0.73546-20.073-4.6052 0-2.3816 3.0099-6.4713 30.631-41.62 26.334-33.511 30.137-38 32.195-38 2.5106 0 5.3156 3.224 27.841 32 31.108 39.74 35.333 45.43 35.333 47.586 0 4.0224-1.6646 4.4139-18.766 4.4139-9.0012 0-17.17 0.43033-18.153 0.95629-1.3869 0.74223-1.936 2.7448-2.4532 8.9464-1.9473 23.35-12.324 46.633-27.585 61.894-15.285 15.285-36.474 24.484-59.544 25.85l-10 0.59208zm-66.663-70.289c-3.3696-3.5846-22.573-28.08-28.81-36.75-19.357-26.907-24.524-34.25-24.505-34.829 0.011743-0.36914 1.8921-1.9956 4.1786-3.6144 3.8571-2.7308 5.0599-3.0001 16.66-3.7313 6.8765-0.43344 12.88-1.1652 13.341-1.6261 0.46093-0.46093 1.4973-4.9143 2.3031-9.8963 1.7361-10.734 2.2593-12.303 4.1032-12.303 0.76616 0 1.393-0.41968 1.393-0.93261 0-0.51294 0.82695-1.1951 1.8377-1.5159 1.0107-0.32079 3.3418-1.9261 5.1801-3.5674 3.7888-3.3827 7.2061-4.2483 4.8719-1.2341-1.2907 1.6667-1.257 1.6667 0.7063 0 1.1338-0.9625 2.5745-1.75 3.2014-1.75s0.90197-0.61996 0.6112-1.3777c-0.50747-1.3224 6.0429-7.6223 7.9254-7.6223 0.48304 0 2.5828-1.35 4.6661-3s4.0824-3 4.4425-3 3.3906-1.8172 6.7345-4.0383c3.3439-2.2211 6.2407-3.8774 6.4373-3.6807 0.19665 0.19665-0.73693 5.2764-2.0746 11.288-4.0577 18.236-5.7269 38.844-3.3397 41.231 0.83557 0.83557 6.1702 1.2 17.566 1.2 9.369 0 17.193 0.44257 18.3 1.0352 3.8318 2.0507 2.2264 5.4461-10.234 21.645-16.837 21.889-46.936 59.664-48.248 60.554-2.1263 1.4416-4.2355 0.71836-7.2465-2.4847z" fill="#6aaeda"/>
  <path d="m120.02 254.18c2.1937-0.97991 10.772-6.9715 15.756-11.005 13.353-10.806 24.504-32.014 28.752-54.686 2.2493-12.004 3.4778-28.68 2.2276-30.239-0.73213-0.91257-5.6399-1.25-18.18-1.25-18.001 0-19.578-0.36016-19.578-4.4725 0-2.7625 59.806-79.528 61.958-79.528 2.7011 0 5.5858 3.096 20.381 21.874 32.59 41.362 43.661 56.081 43.661 58.048 0 3.4623-3.1674 4.0784-20.966 4.0784-12.817 0-17.188 0.31289-17.46 1.25-0.19959 0.6875-1.0593 6.5371-1.9105 12.999-3.0795 23.379-11.679 41.702-26.664 56.813-12.967 13.076-25.909 19.98-45.996 24.537-9.3713 2.126-25.857 3.3116-21.983 1.5809zm-62.245-76.376c-13.766-16.336-47.777-62.546-47.777-64.913 0-0.35507 3.7248-3.1756 8.2773-6.2679 7.6981-5.2288 8.6824-5.6223 14.066-5.6223 7.6802 0 9.6569-1.1428 9.6569-5.5829 0-4.0594 2.4906-6.7939 10.425-11.446 2.7914-1.6367 6.8753-4.3171 9.0753-5.9563s5.125-3.5506 6.5-4.2476c1.375-0.69694 3.5466-2.1672 4.8257-3.2672 2.5283-2.1742 17.43-11.589 17.765-11.224 0.11309 0.12331-0.40822 5.3992-1.1585 11.724-1.4567 12.281-1.8175 23.832-0.8251 26.418 0.52048 1.3563 3.0241 1.5818 17.566 1.5818 9.7778 0 17.778 0.43834 18.893 1.0352 1.0638 0.56935 1.9343 2.0326 1.9343 3.2516 0 4.0865-59.001 78.999-62.627 79.517-1.5348 0.21894-3.3714-1.1732-6.5961-5z" fill="#57a9dd"/>
  <path d="m120 254.34c2.5358-1.1401 11.242-7.4016 16.681-11.997 13.028-11.007 23.183-30.225 27.734-52.485 1.8572-9.0827 3.7526-29.274 2.9456-31.377-0.47273-1.2319-3.4876-1.4836-17.771-1.4836-18.91 0-21.415-0.63009-20.252-5.0944 0.92708-3.559 58.668-77.308 61.326-78.328 3.1111-1.1938 2.4096-2.0127 44.666 52.136 10.822 13.868 19.676 26.103 19.676 27.191s-0.5625 2.3414-1.25 2.7864-9.35 1.034-19.25 1.309l-18 0.5-1.1417 9.2144c-2.5424 20.519-7.3882 34.596-16.755 48.674-12.144 18.252-29.821 30.448-52.591 36.286-8.4835 2.1751-29.777 4.3582-26.016 2.6673zm-59.342-73.592c-6.3663-5.8252-40.78-52.396-41.024-55.516-0.080359-1.0267 3.4199-4.0141 9.3717-7.9988 10.981-7.3515 13.278-8.961 16.876-11.823 2.798-2.2258 36.943-24.64 41.026-26.931 1.1712-0.65722 1.2945 0.43107 0.7497 6.6162-0.35864 4.0716-0.28321 8.7528 0.16762 10.403l0.8197 3 17.527 0.5c18.312 0.52239 21.28 1.2549 20.632 5.0933-0.6216 3.6853-59.941 78.907-62.225 78.907-0.8037 0-2.5678-1.0125-3.9203-2.25z" fill="#47a4da"/>
  <path d="m120 254.34c2.5358-1.1401 11.242-7.4016 16.681-11.997 13.028-11.007 23.183-30.225 27.734-52.485 1.8313-8.9564 3.7569-29.262 2.9695-31.315-0.43704-1.1389-4.1143-1.4835-18.501-1.7336-18.416-0.32022-19.814-0.63823-19.863-4.5193-0.0291-2.2937 59.059-77 61.706-78.016 0.85303-0.32734 2.2773-0.15044 3.165 0.39311 4.0952 2.5074 61.114 75.51 61.114 78.245 0 1.0816-0.5625 2.3306-1.25 2.7756s-9.35 1.034-19.25 1.309l-18 0.5-1.1417 9.2144c-2.5424 20.519-7.3882 34.596-16.755 48.674-12.144 18.252-29.821 30.448-52.591 36.286-8.4835 2.1751-29.777 4.3582-26.016 2.6673zm-58.181-72.592c-4.1176-3.2811-32.87-41.386-36.883-48.881-0.9459-1.7664-1.6056-1.2577 25.331-19.533 7.5687-5.135 13.976-9.3365 14.239-9.3365s1.27-0.67745 2.2388-1.5054c0.96879-0.82799 5.8114-4.1321 10.761-7.3425l9-5.8371 0.58633 3.9863c0.93038 6.3254 2.0958 6.6988 20.905 6.6988 16.508 0 19.009 0.47087 19.009 3.579 0 1.442-11.028 16.014-37.022 48.921-25.829 32.698-24.964 31.8-28.165 29.25z" fill="#39a1d9"/>
  <path d="m120 254.34c2.5358-1.1401 11.242-7.4016 16.681-11.997 13.028-11.007 23.183-30.225 27.734-52.485 1.8572-9.0827 3.7526-29.274 2.9456-31.377-0.47042-1.2259-3.3735-1.486-16.712-1.4973-8.8786-8e-3 -17.124-0.27686-18.324-0.59855-2.5906-0.69479-3.5263-2.6564-2.5374-5.3193 1.3939-3.753 58.632-75.906 60.908-76.78 0.87011-0.33389 2.3084-0.16236 3.1961 0.38119 4.0952 2.5074 61.114 75.51 61.114 78.245 0 1.0816-0.5625 2.3306-1.25 2.7756s-9.35 1.034-19.25 1.309l-18 0.5-1.1417 9.2144c-2.5424 20.519-7.3882 34.596-16.755 48.674-12.144 18.252-29.821 30.448-52.591 36.286-8.4835 2.1751-29.777 4.3582-26.016 2.6673zm-62.264-77.592c-9.6755-11.484-23.256-29.461-25.032-33.135-1.5259-3.1582-1.6269-4.0312-0.53876-4.6587 2.9945-1.7268 10.765-7.9989 21.74-17.549 12.452-10.835 30.771-25.407 31.941-25.407 0.39282 0 1.4848 0.9 2.4267 2 1.5912 1.8584 2.9499 2 19.187 2 16.527 0 17.533 0.10989 18.559 2.0264 0.86986 1.6253 0.64033 2.6644-1.1597 5.25-5.7988 8.3294-51.681 66.699-56.182 71.474-1.6854 1.7875-3.8412 3.25-4.7908 3.25-0.94958 0-3.717-2.3625-6.1499-5.25z" fill="#4b95ca"/>
  <path d="m120.51 254.22c3.6906-1.3158 11.932-7.4307 18.333-13.603 11.131-10.733 18.736-23.929 23.629-41 2.9-10.119 5.7881-30.353 5.336-37.386l-0.30383-4.7264-17.75-0.53532c-14.411-0.43463-18.05-0.83531-19.345-2.1303-2.242-2.242-1.6235-3.2261 17.298-27.525 31.243-40.124 41.726-52.799 43.924-53.112 2.6908-0.38386 4.3361 1.552 36.378 42.803 13.885 17.875 25.638 32.65 26.12 32.833 0.48125 0.18334 0.875 1.4123 0.875 2.731 0 3.0735-0.53974 3.1729-21.49 3.9578-9.5321 0.35709-17.262 1.0759-17.609 1.6375-0.34027 0.55058-0.90313 4.7017-1.2508 9.2247-1.6953 22.055-10.831 43.093-25.531 58.791-12.578 13.432-27.551 21.623-47.62 26.049-8.6348 1.9046-25.143 3.4702-20.994 1.991zm-62.775-77.465c-9.6755-11.484-23.256-29.461-25.032-33.135-1.5259-3.1582-1.6269-4.0312-0.53876-4.6587 2.9945-1.7268 10.765-7.9989 21.74-17.549 12.452-10.835 30.771-25.407 31.941-25.407 0.39282 0 1.4848 0.9 2.4267 2 1.5912 1.8584 2.9499 2 19.187 2 16.527 0 17.533 0.10989 18.559 2.0264 0.86986 1.6253 0.64033 2.6644-1.1597 5.25-5.7988 8.3294-51.681 66.699-56.182 71.474-1.6854 1.7875-3.8412 3.25-4.7908 3.25-0.94958 0-3.717-2.3625-6.1499-5.25z" fill="#2f94cf"/>
  <path d="m122.25 254.28c1.5125-0.22913 2.75-0.77691 2.75-1.2173s1.9122-2.0661 4.2493-3.6128c17.721-11.727 30.771-33.234 36.161-59.596 2.3868-11.673 3.8624-30.824 2.5014-32.464-0.84395-1.0169-5.4303-1.4154-18.658-1.621-15.177-0.23594-17.682-0.49973-18.601-1.9592-0.82948-1.3164-0.46953-2.5234 1.6402-5.5 4.8589-6.8553 51.1-65.531 55.348-70.231l4.1412-4.5822 2.2428 2c1.8491 1.6489 29.556 36.549 54.144 68.201 3.0768 3.9608 5.8724 6.9233 6.2123 6.5833s0.61804 0.60851 0.61804 2.1076-0.41891 2.4668-0.9309 2.1504c-0.512-0.31644-1.2136-0.11799-1.559 0.44098-0.38543 0.62365-7.27 1.0222-17.819 1.0316-9.455 8e-3 -17.686 0.34592-18.291 0.75-0.60501 0.40408-1.6316 5.5194-2.2812 11.367-3.9502 35.559-21.245 61.958-49.747 75.935-8.4449 4.1413-25.104 8.9326-31.059 8.9326-2.0326 0-3.1789 0.40756-2.8128 1 0.38862 0.6288-1.5383 0.94438-5.191 0.85017-3.195-0.0824-4.5715-0.3373-3.059-0.56642zm-59.859-73.049c-2.0326-1.3471-28.391-35.449-28.391-36.732 0-1.8178 23.074-23.859 36.194-34.572 14.202-11.598 15.484-12.436 17.061-11.155 0.69296 0.56328 9.101 1.1777 18.963 1.3858 19.791 0.41754 21.424 0.91433 18.686 5.685-2.645 4.6086-53.945 70.098-58.283 74.404-1.9414 1.927-2.5819 2.0761-4.2287 0.98469z" fill="#0282c9"/>
  <path d="m122.25 254.28c1.5125-0.22913 2.75-0.77691 2.75-1.2173s1.9122-2.0661 4.2493-3.6128c22.043-14.587 35.054-40.826 38.774-78.193 1.6042-16.116 2.3019-15.261-12.444-15.261-15.769 0-24.324-0.8924-24.982-2.6059-0.2812-0.73281 4.6049-7.9838 10.858-16.113 18.294-23.783 48.944-61.658 50.205-62.038 0.63857-0.19263 2.138 0.68642 3.3322 1.9534 2.8597 3.0342 33.706 41.496 47.722 59.503 6.0787 7.8099 11.33 13.922 11.669 13.583 0.33903-0.33903 0.61641 0.61014 0.61641 2.1093s-0.41891 2.4668-0.9309 2.1504c-0.512-0.31644-1.2136-0.11799-1.559 0.44098-0.38543 0.62365-7.27 1.0222-17.819 1.0316-9.455 8e-3 -17.686 0.34592-18.291 0.75-0.60501 0.40408-1.6316 5.5194-2.2812 11.367-3.9502 35.559-21.245 61.958-49.747 75.935-8.4449 4.1413-25.104 8.9326-31.059 8.9326-2.0326 0-3.1789 0.40756-2.8128 1 0.38862 0.6288-1.5383 0.94438-5.191 0.85017-3.195-0.0824-4.5715-0.3373-3.059-0.56642zm-61.659-76.575c-1.4252-1.8685-2.5913-3.7259-2.5913-4.1275 0-1.0275 55.936-56.979 56.449-56.465 0.76234 0.76234-48.272 63.01-50.108 63.611-0.63731 0.20843-2.3248-1.1498-3.75-3.0183z" fill="#007ac3"/>
  <path d="m122.25 254.28c1.5125-0.22913 2.75-0.77691 2.75-1.2173s1.9122-2.0661 4.2493-3.6128c22.811-15.096 36.721-44.281 39.365-82.594 0.83272-12.068 1.1153-11.86-16.152-11.86h-12.669l3.1334-3.75c1.7234-2.0625 3.5444-4.1131 4.0467-4.5569 0.50233-0.44379 4.0633-3.9569 7.9133-7.8069l8-8 8-8 8-8 8-8c3.85-3.85 7.3631-7.4039 7.8069-7.8975 2.2525-2.5054 9.1813-7.9887 10.095-7.9887 0.57497 0 1.8704 1.0734 2.8788 2.3853 1.0084 1.3119 6.6006 8.1744 12.427 15.25 5.8266 7.0756 15.795 19.471 22.152 27.546 6.3572 8.0745 11.828 14.412 12.156 14.083 0.32868-0.32869 0.59761 0.60239 0.59761 2.069 0 1.4667-0.3375 2.5952-0.75 2.5079-0.4125-0.0873-1.425 0.13407-2.25 0.49196s-9.375 0.76684-19 0.90876l-17.5 0.25804-1.2083 10.5c-2.0478 17.795-5.8995 30.163-13.464 43.234-8.4848 14.661-20.949 26.229-36.456 33.833-8.4449 4.1413-25.104 8.9326-31.059 8.9326-2.0326 0-3.1789 0.40756-2.8128 1 0.38862 0.6288-1.5383 0.94438-5.191 0.85017-3.195-0.0824-4.5715-0.3373-3.059-0.56642z" fill="#0072bc"/>
  <path d="m122.25 254.28c1.5125-0.22913 3.9875-0.22913 5.5 0 1.5125 0.22912 0.275 0.41659-2.75 0.41659s-4.2625-0.18747-2.75-0.41659zm5.7247-2.9903c20.908-15.153 31.799-32.686 38.602-62.149 1.3519-5.8546 2.5803-11.095 2.7299-11.645 0.73183-2.6903 4.0827-6.4146 6.0198-6.6904 1.1957-0.17028 1.949-0.5456 1.674-0.83405-0.84824-0.88971 4.0408-6.4461 6.1378-6.9756 1.0891-0.275 1.8412-0.736 1.6712-1.0244-0.59523-1.0102 4.3678-6.4804 6.3288-6.9756 1.0891-0.275 2.0095-0.95 2.0453-1.5 0.11834-1.8192 3.9406-5.9914 5.9547-6.5 1.0891-0.275 2.0095-0.95 2.0453-1.5 0.11834-1.8192 3.9406-5.9914 5.9547-6.5 1.0891-0.275 1.8412-0.736 1.6712-1.0244-0.59523-1.0102 4.3678-6.4804 6.3288-6.9756 1.0891-0.275 2.0095-0.95 2.0453-1.5 0.12325-1.8947 3.9791-6.0012 6.1457-6.5451 1.1942-0.2998 2.2275-1.0873 2.2962-1.75 0.0687-0.66271 0.18125-1.4997 0.25-1.8599 0.0687-0.36024 1.0816 0.20226 2.2507 1.25 2.188 1.9609 21.297 25.146 24.025 29.149 0.84081 1.234 1.8259 1.9465 2.189 1.5833 0.36317-0.36317 0.62478 0.4272 0.58136 1.7564-0.0434 1.3292-0.30458 1.8582-0.58035 1.1756-0.37567-0.92984-0.89333-0.84915-2.0642 0.32173-1.3221 1.3221-4.2438 1.5164-18.969 1.2614-13.528-0.23428-17.586-0.01-18.215 1.0086-0.4453 0.72051-1.1036 5.2114-1.4628 9.9797-0.80441 10.677-3.8259 23.109-8.0454 33.103-12.556 29.741-40.454 49.805-73.084 52.562-6.9234 0.58512-6.9729 0.57196-4.5253-1.2018z" fill="#0067b4"/>
 </g>
</svg>
