<?xml version="1.0" encoding="UTF-8" standalone="no"?>
<!-- Created with Inkscape (http://www.inkscape.org/) -->

<svg
   xmlns:dc="http://purl.org/dc/elements/1.1/"
   xmlns:cc="http://creativecommons.org/ns#"
   xmlns:rdf="http://www.w3.org/1999/02/22-rdf-syntax-ns#"
   xmlns:svg="http://www.w3.org/2000/svg"
   xmlns="http://www.w3.org/2000/svg"
   xmlns:sodipodi="http://sodipodi.sourceforge.net/DTD/sodipodi-0.dtd"
   xmlns:inkscape="http://www.inkscape.org/namespaces/inkscape"
   version="1.1"
   id="svg11993"
   width="20"
   height="20"
   viewBox="0 0 20 20"
   sodipodi:docname="remove_20x20.svg"
   inkscape:version="0.92.2 5c3e80d, 2017-08-06">
  <metadata
     id="metadata11999">
    <rdf:RDF>
      <cc:Work
         rdf:about="">
        <dc:format>image/svg+xml</dc:format>
        <dc:type
           rdf:resource="http://purl.org/dc/dcmitype/StillImage" />
        <dc:title></dc:title>
      </cc:Work>
    </rdf:RDF>
  </metadata>
  <defs
     id="defs11997" />
  <sodipodi:namedview
     pagecolor="#ffffff"
     bordercolor="#666666"
     borderopacity="1"
     objecttolerance="10"
     gridtolerance="10"
     guidetolerance="10"
     inkscape:pageopacity="0"
     inkscape:pageshadow="2"
     inkscape:window-width="1440"
     inkscape:window-height="851"
     id="namedview11995"
     showgrid="false"
     inkscape:zoom="28.195883"
     inkscape:cx="14.430883"
     inkscape:cy="10.661745"
     inkscape:window-x="0"
     inkscape:window-y="1"
     inkscape:window-maximized="1"
     inkscape:current-layer="svg11993"
     inkscape:pagecheckerboard="true" />
  <g
     id="g12003"
     transform="matrix(0.15829007,0,0,0.14271811,-0.29490989,0.27445508)">
    <path
       style="fill:#fcf9f9"
       d="m 16.769578,83.704896 c -1.501733,-0.662693 -4.539233,-2.930345 -6.75,-5.039228 L 6,74.831337 6.0318034,64.165668 c 0.034379,-11.529347 0.6781485,-13.344495 5.3647916,-15.126353 3.549194,-1.349402 101.448755,-1.42881 104.982835,-0.08515 1.3803,0.524788 4.09742,2.662288 6.03805,4.75 l 3.5284,3.795839 0.0271,10.575686 c 0.0248,9.694784 -0.16035,10.751247 -2.22294,12.683388 -1.2375,1.159235 -3.51679,2.587677 -5.0651,3.174314 -4.18801,1.586794 -98.279729,1.375843 -101.915322,-0.228492 z"
       id="path12223"
       inkscape:connector-curvature="0" />
    <path
       style="fill:#fafafa"
       d="M 16.5,83.612357 C 14.85,82.892209 11.8125,80.433527 9.75,78.148618 L 6,73.994238 V 64.219625 C 6,52.936462 7.0247404,50.642685 12.779483,49.04444 17.678395,47.683882 110.225,47.630548 114.94965,48.98556 c 1.89005,0.542058 5.14958,2.658385 7.2434,4.702948 L 126,57.405896 v 10.622738 c 0,9.725002 -0.19015,10.800861 -2.25,12.73044 -1.2375,1.159235 -3.51679,2.587677 -5.0651,3.174314 C 114.26717,85.607221 20.394919,85.312306 16.5,83.612357 Z"
       id="path12221"
       inkscape:connector-curvature="0" />
    <path
       style="fill:#faf5f5"
       d="M 16.5,83.057138 C 15.4,82.593009 12.5875,80.434406 10.25,78.260244 L 6,74.30722 V 64.376116 C 6,52.923319 7.0061907,50.647837 12.779483,49.04444 c 5.054685,-1.40382 97.401477,-1.39961 102.457947,0.0047 2.61285,0.725637 4.79437,2.422178 7.25,5.638226 3.40496,4.459335 3.51257,4.8711 3.51257,13.440689 0,8.354138 -0.16048,9.020061 -2.91741,12.106197 L 120.16518,83.5 69.332588,83.700504 C 41.374664,83.810781 17.6,83.521267 16.5,83.057138 Z"
       id="path12219"
       inkscape:connector-curvature="0" />
    <path
       style="fill:#f9f1f1"
       d="M 17.129816,82.924379 C 14.005947,81.67381 8.8086577,77.29286 7.2854354,74.626257 6.6109417,73.445466 6.055114,68.809456 6.0354354,64.20034 5.9985035,55.550181 7.4670577,50.802223 10.544802,49.621181 11.435127,49.279532 35.665762,49 64.390658,49 c 40.239922,0 52.603672,0.2869 53.867862,1.25 0.90243,0.6875 3.01344,2.999377 4.69113,5.137505 2.86514,3.651461 3.05035,4.41211 3.05035,12.527493 0,6.369282 -0.42857,9.251857 -1.63069,10.968129 -3.51129,5.013061 -4.72635,5.121571 -56.587191,5.053487 -27.956915,-0.0367 -49.27989,-0.462821 -50.652303,-1.012235 z"
       id="path12217"
       inkscape:connector-curvature="0" />
    <path
       style="fill:#f1f1f1"
       d="M 16.5,82.578724 C 14.85,81.840078 11.925,79.582698 10,77.562324 L 6.5,73.888916 V 63.857875 C 6.5,54.106698 6.578281,53.759498 9.3057637,51.413416 L 12.111527,49 h 52.087094 52.087089 l 4.85715,4.857143 L 126,58.714286 v 8.920351 c 0,10.112729 -1.13518,12.688243 -6.59857,14.970996 C 114.59762,84.612792 20.989054,84.588312 16.5,82.578724 Z"
       id="path12215"
       inkscape:connector-curvature="0" />
    <path
       style="fill:#f2eaea"
       d="M 12.137878,79.014752 C 6.3326093,74.425951 5.5464114,72.033184 6.1770146,60.873066 6.5317642,54.594873 6.9040684,53.479268 9.3452648,51.379439 L 12.111527,49 H 64.2106 116.30967 l 3.91306,4.11348 c 2.15219,2.262414 4.33251,5.216709 4.84517,6.5651 1.4425,3.794063 1.10845,14.079714 -0.56219,17.310376 C 121.27775,83.231144 123.45568,83 67.867291,83 H 17.179595 Z"
       id="path12213"
       inkscape:connector-curvature="0" />
    <path
       style="fill:#e9e9e9"
       d="m 16.5,81.995331 c -1.1,-0.482842 -3.8,-2.433618 -6,-4.335056 l -4,-3.45716 V 64.014974 C 6.5,54.09166 6.572932,53.764099 9.3057637,51.413416 L 12.111527,49 h 52.07616 52.076163 l 3.5131,3.724976 c 4.55932,4.834284 6.22341,8.978251 6.2215,15.492905 -0.002,6.22066 -2.44917,11.730004 -5.99845,13.503466 -2.96924,1.483635 -100.158083,1.740912 -103.5,0.273984 z"
       id="path12211"
       inkscape:connector-curvature="0" />
    <path
       style="fill:#f3e3e3"
       d="M 16.5,81.56435 C 14.85,80.817798 11.925,78.859734 10,77.213097 L 6.5,74.219212 V 64.023022 C 6.5,54.090889 6.572662,53.764331 9.3057637,51.413416 L 12.111527,49 h 51.362449 c 28.249347,0 52.097094,0.28191 52.994994,0.626466 0.8979,0.344557 3.1847,2.659268 5.08179,5.143803 3.31958,4.347519 3.44924,4.84317 3.44924,13.184972 0,9.396402 -1.25301,12.049858 -6.66113,14.10602 C 116.91883,82.60116 95.397574,82.98337 67.6849,82.960858 29.310017,82.929685 18.889227,82.645369 16.5,81.56435 Z"
       id="path12209"
       inkscape:connector-curvature="0" />
    <path
       style="fill:#e5e5e5"
       d="M 16.5,81.607053 C 14.85,80.883989 12.0375,78.921058 10.25,77.244985 7.024467,74.220522 7,74.125934 7,64.680578 7,59.446226 7.2795316,54.435127 7.6211813,53.544802 9.3096979,49.144599 11.148312,48.998061 64.20034,49.035435 c 37.54443,0.02645 50.84915,0.343431 52.46656,1.25 1.1918,0.668011 3.5543,2.963942 5.25,5.10207 2.90838,3.6672 3.0831,4.379055 3.0831,12.561438 0,9.403258 -1.25201,12.055774 -6.66113,14.112318 C 116.91883,82.60116 95.397574,82.98337 67.6849,82.960858 30.130266,82.930352 18.838158,82.631683 16.5,81.607053 Z"
       id="path12207"
       inkscape:connector-curvature="0" />
    <path
       style="fill:#e2e2e2"
       d="M 19.038874,82.2666 C 15.898147,81.678257 8.4325522,76.569596 7.6203206,74.452955 6.8136509,72.350807 6.8143386,55.647401 7.6211813,53.544802 9.3096979,49.144599 11.148312,48.998061 64.20034,49.035435 c 38.89931,0.0274 50.82146,0.325026 52.6019,1.313143 1.26623,0.702738 3.62681,3.274292 5.24572,5.714564 2.61037,3.934749 2.94396,5.298646 2.94776,12.051999 0.005,8.945927 -1.81831,12.185963 -7.79121,13.844837 -3.64349,1.01192 -92.912101,1.290752 -98.165636,0.306622 z"
       id="path12205"
       inkscape:connector-curvature="0" />
    <path
       style="fill:#f0dada"
       d="M 13.5,79.482912 C 11.3,78.132844 8.9375,76.26088 8.25,75.322992 6.944981,73.542684 6.4552925,56.58306 7.6211813,53.544802 9.3070471,49.151507 11.183282,49 63.903287,49 c 35.378888,0 50.736353,0.334317 52.511483,1.143123 1.37989,0.628717 3.74875,2.991217 5.26414,5.25 5.15637,7.685895 4.2192,22.450306 -1.62352,25.577233 -1.24871,0.668289 -19.5823,1.018691 -52.239649,0.998434 L 17.5,81.937581 Z"
       id="path12203"
       inkscape:connector-curvature="0" />
    <path
       style="fill:#efd8d8"
       d="M 13.482135,79.312684 C 7.3707053,75.188427 7.0636067,74.455782 7.0636067,64 c 0,-10.296407 0.731445,-12.211182 5.3329883,-13.960685 3.800289,-1.444868 99.214755,-1.419363 103.365595,0.02763 1.76857,0.616525 4.24508,2.832857 5.86631,5.25 5.20632,7.762269 4.30202,22.50914 -1.57311,25.653412 C 118.80895,81.637428 100.40737,82 67.797876,82 H 17.464269 Z"
       id="path12201"
       inkscape:connector-curvature="0" />
    <path
       style="fill:#dbdbdb"
       d="M 14.972506,80.346639 C 7.4301387,75.303069 7,74.420433 7,63.987223 7,54.91958 7.1528232,54.205021 9.5799007,51.924314 L 12.159801,49.5 l 50.6701,-0.249756 c 38.986569,-0.192167 51.224039,0.03841 53.072489,1 1.32131,0.687366 3.78924,2.970281 5.48427,5.073146 2.68736,3.333944 3.12894,4.755239 3.44947,11.102683 0.39744,7.87034 -1.15922,12.606104 -4.78074,14.544283 C 118.80894,81.637436 100.40434,82 67.788248,82 22.626911,82 17.190514,81.829817 14.972506,80.346639 Z"
       id="path12199"
       inkscape:connector-curvature="0" />
    <path
       style="fill:#edd2d2"
       d="M 15.5,80.341153 C 13.85,79.472829 11.2625,77.606655 9.75,76.1941 7.1178463,73.735877 7,73.212773 7,63.987223 7,54.91958 7.1528232,54.205021 9.5799007,51.924314 L 12.159801,49.5 l 50.6701,-0.249756 c 39.160139,-0.193022 51.228619,0.03617 53.128849,1.008966 10.04782,5.143847 12.12251,25.924525 3.04125,30.462137 -1.8992,0.948968 -14.27572,1.24309 -51.5,1.223874 -42.675759,-0.02203 -49.387198,-0.229062 -52,-1.604068 z"
       id="path12197"
       inkscape:connector-curvature="0" />
    <path
       style="fill:#ebcece"
       d="M 14.840181,79.97818 C 8.2693111,76.506887 7,73.907243 7,63.920905 7,56.050227 7.2571661,54.812554 9.4134163,52.305764 L 11.826833,49.5 h 52.200941 52.200946 l 3.38417,3.914909 c 7.38207,8.539797 7.04676,23.479158 -0.61289,27.306438 -1.89955,0.949146 -14.26873,1.242095 -51.5,1.219715 C 21.022614,81.913124 18.311586,81.812071 14.840181,79.97818 Z"
       id="path12195"
       inkscape:connector-curvature="0" />
    <path
       style="fill:#f5c8c8"
       d="M 13.766884,79.067117 C 11.223312,77.454031 8.6602104,75.233614 8.0711035,74.132858 7.4819966,73.032102 7,68.256445 7,63.520287 7,55.710869 7.2285398,54.680551 9.4545455,52.454545 L 11.909091,50 h 52.177377 52.177382 l 3.32941,3.530207 c 7.39603,7.842072 7.05727,23.368416 -0.59326,27.19114 -1.89588,0.947308 -14.35395,1.252732 -51.554219,1.263911 L 18.391561,82 Z"
       id="path12193"
       inkscape:connector-curvature="0" />
    <path
       style="fill:#d6d6d6"
       d="M 13.766884,79.067117 C 11.223312,77.454031 8.6602104,75.233614 8.0711035,74.132858 7.4819966,73.032102 7,68.256445 7,63.520287 7,55.710869 7.2285398,54.680551 9.4545455,52.454545 L 11.909091,50 h 52.177377 52.177382 l 3.32941,3.530207 c 7.39603,7.842072 7.05727,23.368416 -0.59326,27.19114 -1.89588,0.947308 -14.35395,1.252732 -51.554219,1.263911 L 18.391561,82 Z"
       id="path12191"
       inkscape:connector-curvature="0" />
    <path
       style="fill:#f5c6c6"
       d="m 17.306375,80.895828 c -1.756494,-0.508087 -4.793994,-2.433137 -6.75,-4.277889 L 7,73.263846 V 64.086468 C 7,55.675919 7.205093,54.703998 9.4545455,52.454545 L 11.909091,50 h 51.822948 c 57.750371,0 54.496711,-0.392251 58.281351,7.026244 1.44637,2.835121 1.98661,5.883959 1.98661,11.211412 0,8.630725 -1.37925,11.218116 -6.77948,12.717904 -4.68715,1.301744 -95.394896,1.247517 -99.914145,-0.05973 z"
       id="path12189"
       inkscape:connector-curvature="0" />
    <path
       style="fill:#d1d1d1"
       d="m 17.306375,80.895828 c -1.756494,-0.508087 -4.793994,-2.433137 -6.75,-4.277889 L 7,73.263846 V 64.086468 C 7,55.675919 7.205093,54.703998 9.4545455,52.454545 L 11.909091,50 h 51.822948 c 57.750371,0 54.496711,-0.392251 58.281351,7.026244 1.44637,2.835121 1.98661,5.883959 1.98661,11.211412 0,8.630725 -1.37925,11.218116 -6.77948,12.717904 -4.68715,1.301744 -95.394896,1.247517 -99.914145,-0.05973 z M 115,55.75 C 115,55.3375 92.05,55 64,55 c -28.05,0 -51,0.3375 -51,0.75 0,0.4125 22.95,0.75 51,0.75 28.05,0 51,-0.3375 51,-0.75 z"
       id="path12187"
       inkscape:connector-curvature="0" />
    <path
       style="fill:#f4baba"
       d="M 13.81239,78.963922 C 7.9476605,75.866347 7,73.747464 7,63.732039 7,55.697798 7.2194184,54.689673 9.4545455,52.454545 L 11.909091,50 h 51.822948 c 57.899491,0 54.481011,-0.423032 58.382631,7.22478 1.70458,3.341243 2.01884,5.460252 1.71173,11.541909 -0.33706,6.674762 -0.66531,7.697996 -3.15705,9.841301 L 117.88847,81 67.694236,80.955804 C 19.925352,80.913744 17.321817,80.817497 13.81239,78.963922 Z M 115,55.75 C 115,55.3375 92.05,55 64,55 c -28.05,0 -51,0.3375 -51,0.75 0,0.4125 22.95,0.75 51,0.75 28.05,0 51,-0.3375 51,-0.75 z"
       id="path12185"
       inkscape:connector-curvature="0" />
    <path
       style="fill:#d2c9c9"
       d="M 13.81239,78.963922 C 7.9476605,75.866347 7,73.747464 7,63.732039 7,55.697798 7.2194184,54.689673 9.4545455,52.454545 L 11.909091,50 h 51.822948 c 57.899491,0 54.481011,-0.423032 58.382631,7.22478 1.70458,3.341243 2.01884,5.460252 1.71173,11.541909 -0.33706,6.674762 -0.66531,7.697996 -3.15705,9.841301 L 117.88847,81 67.694236,80.955804 C 19.925352,80.913744 17.321817,80.817497 13.81239,78.963922 Z M 64,56 c 36.46667,0 48.89959,0.299588 49.8,1.2 0.93333,0.933333 1.2,0.822222 1.2,-0.5 0,-1.577778 -3.66667,-1.7 -51,-1.7 -47.333333,0 -51,0.122222 -51,1.7 0,1.322222 0.266667,1.433333 1.2,0.5 C 15.100412,56.299588 27.533333,56 64,56 Z"
       id="path12183"
       inkscape:connector-curvature="0" />
    <path
       style="fill:#cacaca"
       d="M 13.81239,78.963922 C 7.9476605,75.866347 7,73.747464 7,63.732039 7,55.697798 7.2194184,54.689673 9.4545455,52.454545 L 11.909091,50 h 51.822948 c 57.991041,0 54.402091,-0.455105 58.323011,7.39578 1.80397,3.612097 2.11263,5.630966 1.77484,11.608924 -0.36211,6.408455 -0.7254,7.508665 -3.17515,9.615857 L 117.88847,81 67.694236,80.955804 C 19.925352,80.913744 17.321817,80.817497 13.81239,78.963922 Z M 64,56 c 36.46667,0 48.89959,0.299588 49.8,1.2 0.93333,0.933333 1.2,0.822222 1.2,-0.5 0,-1.577778 -3.66667,-1.7 -51,-1.7 -47.333333,0 -51,0.122222 -51,1.7 0,1.322222 0.266667,1.433333 1.2,0.5 C 15.100412,56.299588 27.533333,56 64,56 Z"
       id="path12181"
       inkscape:connector-curvature="0" />
    <path
       style="fill:#ecb9b9"
       d="M 14.3825,79.086252 C 8.0744436,76.221661 7,73.98702 7,63.732039 7,55.697798 7.2194184,54.689673 9.4545455,52.454545 L 11.909091,50 h 51.910596 c 59.212673,0 55.121553,-0.626518 58.572343,8.96982 2.75004,7.647594 1.78176,15.569668 -2.35654,19.28018 L 116.96845,81 67.734223,80.978038 C 21.804469,80.95755 18.223644,80.830578 14.3825,79.086252 Z M 64,56 c 36.46667,0 48.89959,0.299588 49.8,1.2 0.93333,0.933333 1.2,0.822222 1.2,-0.5 0,-1.577778 -3.66667,-1.7 -51,-1.7 -47.333333,0 -51,0.122222 -51,1.7 0,1.322222 0.266667,1.433333 1.2,0.5 C 15.100412,56.299588 27.533333,56 64,56 Z"
       id="path12179"
       inkscape:connector-curvature="0" />
    <path
       style="fill:#e3bcbc"
       d="M 14.3825,79.086252 C 8.0744436,76.221661 7,73.98702 7,63.732039 7,55.697798 7.2194184,54.689673 9.4545455,52.454545 L 11.909091,50 h 51.910596 c 59.212673,0 55.121553,-0.626518 58.572343,8.96982 2.75004,7.647594 1.78176,15.569668 -2.35654,19.28018 L 116.96845,81 67.734223,80.978038 C 21.804469,80.95755 18.223644,80.830578 14.3825,79.086252 Z M 14.5,57 c 0.948,-1.533896 97.74485,-1.355154 99.28333,0.183333 1.66823,1.668226 2.7707,0.189163 1.23673,-1.659167 C 113.91781,54.196041 107.3655,54 64.077555,54 14.783819,54 12,54.171057 12,57.2 c 0,1.134472 1.762389,0.99348 2.5,-0.2 z"
       id="path12177"
       inkscape:connector-curvature="0" />
    <path
       style="fill:#f3b4b4"
       d="M 14.211889,78.875853 C 8.5980917,76.097082 7,72.800722 7,64 7,56.580146 8.646452,51.733383 11.544802,50.621181 12.435127,50.279532 36.201643,50 64.359281,50 c 43.228669,0 51.519579,0.226847 53.276879,1.457707 1.14464,0.801739 3.09856,3.822715 4.34205,6.713281 1.82714,4.247299 2.15604,6.411816 1.71439,11.282424 -0.46411,5.118361 -1.0121,6.442872 -3.63532,8.786719 L 116.96845,81 67.734223,80.999211 C 19.566615,80.99844 18.407102,80.952439 14.211889,78.875853 Z M 14.5,57 c 0.948,-1.533896 97.74485,-1.355154 99.28333,0.183333 1.66823,1.668226 2.7707,0.189163 1.23673,-1.659167 C 113.91781,54.196041 107.3655,54 64.077555,54 14.783819,54 12,54.171057 12,57.2 c 0,1.134472 1.762389,0.99348 2.5,-0.2 z"
       id="path12175"
       inkscape:connector-curvature="0" />
    <path
       style="fill:#c5c5c5"
       d="M 14.211889,78.875853 C 8.5980917,76.097082 7,72.800722 7,64 7,56.580146 8.646452,51.733383 11.544802,50.621181 12.435127,50.279532 36.201643,50 64.359281,50 c 43.228669,0 51.519579,0.226847 53.276879,1.457707 1.14464,0.801739 3.09856,3.822715 4.34205,6.713281 1.82714,4.247299 2.15604,6.411816 1.71439,11.282424 -0.46411,5.118361 -1.0121,6.442872 -3.63532,8.786719 L 116.96845,81 67.734223,80.999211 C 19.566615,80.99844 18.407102,80.952439 14.211889,78.875853 Z M 64,57 c 37.24444,0 49.89892,0.298925 50.8,1.2 0.93333,0.933333 1.2,0.866667 1.2,-0.3 0,-3.829756 -0.93659,-3.9 -52,-3.9 -51.063407,0 -52,0.07024 -52,3.9 0,1.166667 0.266667,1.233333 1.2,0.3 C 14.101075,57.298925 26.755556,57 64,57 Z"
       id="path12173"
       inkscape:connector-curvature="0" />
    <path
       style="fill:#f2aaaa"
       d="M 18,80.299544 C 8.8737574,76.998511 7,74.222021 7,64 7,56.580146 8.646452,51.733383 11.544802,50.621181 14.425146,49.51589 114.96085,49.90868 117.06248,51.033436 120.63938,52.947736 123,59.305968 123,67.025903 123,81.559834 125.18986,81.018577 66.782119,80.921053 40.776953,80.877632 18.825,80.597953 18,80.299544 Z M 64,57 c 37.24444,0 49.89892,0.298925 50.8,1.2 0.93333,0.933333 1.2,0.866667 1.2,-0.3 0,-3.829756 -0.93659,-3.9 -52,-3.9 -51.063407,0 -52,0.07024 -52,3.9 0,1.166667 0.266667,1.233333 1.2,0.3 C 14.101075,57.298925 26.755556,57 64,57 Z"
       id="path12171"
       inkscape:connector-curvature="0" />
    <path
       style="fill:#e0b2b2"
       d="M 18,80.299544 C 8.8737574,76.998511 7,74.222021 7,64 7,56.580146 8.646452,51.733383 11.544802,50.621181 14.425146,49.51589 114.96085,49.90868 117.06248,51.033436 120.63938,52.947736 123,59.305968 123,67.025903 123,81.559834 125.18986,81.018577 66.782119,80.921053 40.776953,80.877632 18.825,80.597953 18,80.299544 Z M 64,57 c 43.5799,0 48.52268,0.163046 50.17126,1.654988 1.7124,1.549703 1.82874,1.530618 1.82874,-0.3 C 116,54.002583 115.96916,54 64,54 c -51.969159,0 -52,0.0026 -52,4.354988 0,1.830618 0.116338,1.849703 1.828741,0.3 C 15.477317,57.163046 20.420101,57 64,57 Z"
       id="path12169"
       inkscape:connector-curvature="0" />
    <path
       style="fill:#deb2b2"
       d="M 18,80.299544 C 9.1317223,77.091819 7,73.951922 7,64.097218 7,57.440374 8.2297105,53.307955 10.789315,51.363298 12.141063,50.336309 23.305752,50.061599 64,50.054039 c 57.13969,-0.01062 53.85634,-0.390845 57.39204,6.646301 1.86629,3.714497 2.20787,16.310192 0.52747,19.45006 -2.49323,4.658643 -4.75997,4.854768 -55.137391,4.770653 C 40.776953,80.877632 18.825,80.597953 18,80.299544 Z M 64,57 c 43.5799,0 48.52268,0.163046 50.17126,1.654988 1.7124,1.549703 1.82874,1.530618 1.82874,-0.3 C 116,54.002583 115.96916,54 64,54 c -51.969159,0 -52,0.0026 -52,4.354988 0,1.830618 0.116338,1.849703 1.828741,0.3 C 15.477317,57.163046 20.420101,57 64,57 Z"
       id="path12167"
       inkscape:connector-curvature="0" />
    <path
       style="fill:#c0c0c0"
       d="M 16.464305,79.673922 C 9.0357506,76.801254 7,73.429829 7,64 7,57.434265 8.2395898,53.30045 10.789315,51.363298 13.221932,49.51512 114.69953,49.454223 117.12342,51.299487 c 3.98075,3.030478 5.86901,8.019329 5.87284,15.516254 0.008,14.776082 2.2937,14.202321 -56.214141,14.108181 -33.635266,-0.05412 -48.1583,-0.414902 -50.317814,-1.25 z M 64,57 c 43.5799,0 48.52268,0.163046 50.17126,1.654988 1.7124,1.549703 1.82874,1.530618 1.82874,-0.3 C 116,54.002583 115.96916,54 64,54 c -51.969159,0 -52,0.0026 -52,4.354988 0,1.830618 0.116338,1.849703 1.828741,0.3 C 15.477317,57.163046 20.420101,57 64,57 Z"
       id="path12165"
       inkscape:connector-curvature="0" />
    <path
       style="fill:#deacac"
       d="M 14.966361,79.179715 C 8.9676126,76.521045 7,72.771806 7,64 7,57.434265 8.2395898,53.30045 10.789315,51.363298 12.140218,50.336951 23.34411,50.056918 64.061439,50.031803 115.39862,50.000138 115.63288,50.009315 117.92164,52.141622 121.40205,55.384115 123,60.23087 123,67.544804 c 0,5.971397 -0.28202,6.891063 -2.92308,9.532119 L 117.15385,80 66.826923,79.929715 c -27.679808,-0.03866 -51.01706,-0.376157 -51.860562,-0.75 z M 64,57 c 43.5799,0 48.52268,0.163046 50.17126,1.654988 1.7124,1.549703 1.82874,1.530618 1.82874,-0.3 C 116,54.002583 115.96916,54 64,54 c -51.969159,0 -52,0.0026 -52,4.354988 0,1.830618 0.116338,1.849703 1.828741,0.3 C 15.477317,57.163046 20.420101,57 64,57 Z"
       id="path12163"
       inkscape:connector-curvature="0" />
    <path
       style="fill:#c8b6b6"
       d="M 14.5,79.045972 C 13.4,78.590982 11.375,77.008252 10,75.528795 7.7175151,73.072911 7.5,72.055294 7.5,63.832852 7.5,55.204821 7.6177596,54.72554 10.305764,52.413416 L 13.111527,50 h 50.809378 c 50.606885,0 50.820365,0.0086 53.565415,2.1679 3.84951,3.028024 5.51368,7.669171 5.51368,15.376904 0,5.971397 -0.28202,6.891063 -2.92308,9.532119 L 117.15385,80 66.826923,79.936614 C 39.147115,79.901751 15.6,79.500963 14.5,79.045972 Z M 64,57 c 43.5799,0 48.52268,0.163046 50.17126,1.654988 1.7124,1.549703 1.82874,1.530618 1.82874,-0.3 C 116,54.002583 115.96916,54 64,54 c -51.969159,0 -52,0.0026 -52,4.354988 0,1.830618 0.116338,1.849703 1.828741,0.3 C 15.477317,57.163046 20.420101,57 64,57 Z"
       id="path12161"
       inkscape:connector-curvature="0" />
    <path
       style="fill:#e9a5a5"
       d="m 13.5,78.158321 c -5.4106005,-3.308046 -6,-4.722467 -6,-14.398599 0,-8.547901 0.1209225,-9.036903 2.805764,-11.346306 L 13.111527,50 H 63.920905 C 113.96391,50 114.7704,50.03156 117.39032,52.092389 121.1454,55.046132 123,60.205807 123,67.699047 c 0,5.800918 -0.29611,6.750911 -2.92308,9.377876 L 117.15385,80 66.826923,79.996262 C 19.777238,79.992767 16.304643,79.873082 13.5,78.158321 Z M 64,57 c 43.5799,0 48.52268,0.163046 50.17126,1.654988 1.7124,1.549703 1.82874,1.530618 1.82874,-0.3 C 116,54.002583 115.96916,54 64,54 c -51.969159,0 -52,0.0026 -52,4.354988 0,1.830618 0.116338,1.849703 1.828741,0.3 C 15.477317,57.163046 20.420101,57 64,57 Z"
       id="path12159"
       inkscape:connector-curvature="0" />
    <path
       style="fill:#f1a1a1"
       d="m 13.5,78.158321 c -5.4106005,-3.308046 -6,-4.722467 -6,-14.398599 0,-8.547901 0.1209225,-9.036903 2.805764,-11.346306 L 13.111527,50 H 63.920905 C 113.96391,50 114.7704,50.03156 117.39032,52.092389 121.1454,55.046132 123,60.205807 123,67.699047 c 0,5.800918 -0.29611,6.750911 -2.92308,9.377876 L 117.15385,80 66.826923,79.996262 C 19.777238,79.992767 16.304643,79.873082 13.5,78.158321 Z M 64,57 c 43.5799,0 48.52268,0.163046 50.17126,1.654988 1.72619,1.562183 1.82874,1.512107 1.82874,-0.893012 0,-1.401399 -0.7118,-2.821143 -1.58179,-3.154987 -2.06614,-0.792854 -98.77028,-0.792854 -100.836423,0 C 12.711804,54.940833 12,56.360577 12,57.761976 c 0,2.405119 0.102548,2.455195 1.828741,0.893012 C 15.477317,57.163046 20.420101,57 64,57 Z"
       id="path12157"
       inkscape:connector-curvature="0" />
    <path
       style="fill:#bababa"
       d="m 13.5,78.158321 c -5.4106005,-3.308046 -6,-4.722467 -6,-14.398599 0,-8.547901 0.1209225,-9.036903 2.805764,-11.346306 L 13.111527,50 H 63.920905 C 113.96391,50 114.7704,50.03156 117.39032,52.092389 121.1454,55.046132 123,60.205807 123,67.699047 c 0,5.800918 -0.29611,6.750911 -2.92308,9.377876 L 117.15385,80 66.826923,79.996262 C 19.777238,79.992767 16.304643,79.873082 13.5,78.158321 Z M 64,57 h 47.92209 l 2.03895,2.188561 L 116,61.377123 V 58.29555 c 0,-1.8875 -0.61292,-3.316773 -1.58179,-3.688561 -2.06614,-0.792854 -98.77028,-0.792854 -100.836423,0 C 12.612923,54.978777 12,56.40805 12,58.29555 v 3.081573 L 14.038955,59.188561 16.07791,57 Z"
       id="path12155"
       inkscape:connector-curvature="0" />
    <path
       style="fill:#f09c9c"
       d="m 14.5,78.597485 c -5.9326686,-2.618742 -7,-4.873716 -7,-14.789056 0,-8.60127 0.1188102,-9.083793 2.805764,-11.395013 L 13.111527,50 h 50.867511 50.867512 l 2.9545,2.486045 c 6.74259,5.673522 6.87378,22.562267 0.20205,26.012353 -2.46934,1.276946 -10.20475,1.495746 -51.70344,1.46246 C 28.046393,79.930176 16.851652,79.635529 14.5,78.597485 Z M 64,57 h 47.92209 l 2.03895,2.188561 L 116,61.377123 V 58.29555 c 0,-1.8875 -0.61292,-3.316773 -1.58179,-3.688561 -2.06614,-0.792854 -98.77028,-0.792854 -100.836423,0 C 12.612923,54.978777 12,56.40805 12,58.29555 v 3.081573 L 14.038955,59.188561 16.07791,57 Z"
       id="path12153"
       inkscape:connector-curvature="0" />
    <path
       style="fill:#dca6a6"
       d="m 14.5,78.597485 c -5.9326686,-2.618742 -7,-4.873716 -7,-14.789056 0,-8.60127 0.1188102,-9.083793 2.805764,-11.395013 L 13.111527,50 h 50.867511 50.867512 l 2.9545,2.486045 c 6.74259,5.673522 6.87378,22.562267 0.20205,26.012353 -2.46934,1.276946 -10.20475,1.495746 -51.70344,1.46246 C 28.046393,79.930176 16.851652,79.635529 14.5,78.597485 Z M 64,58 h 48.75606 l 1.56952,2.25 c 1.55211,2.225046 1.5701,2.209596 1.62197,-1.393011 0.0351,-2.43495 -0.47209,-3.844295 -1.52934,-4.25 -2.06614,-0.792854 -98.77028,-0.792854 -100.836423,0 -1.057249,0.405705 -1.564393,1.81505 -1.529335,4.25 0.05187,3.602607 0.06986,3.618057 1.621972,1.393011 L 15.243944,58 Z"
       id="path12151"
       inkscape:connector-curvature="0" />
    <path
       style="fill:#b6b5b5"
       d="m 15.000513,78.876547 c -1.374718,-0.548175 -3.512218,-1.948092 -4.75,-3.110928 C 8.2148458,73.853209 8,72.720289 8,63.898266 8,48.717156 2.8256982,50 64.058133,50 h 50.788417 l 2.9545,2.486045 c 6.74259,5.673522 6.87378,22.562267 0.20205,26.012353 -2.47133,1.277971 -10.17143,1.492162 -51.70344,1.438216 C 36.370289,79.897738 16.533476,79.487822 15.000513,78.876547 Z M 64,58 h 48.75606 l 1.61377,2.25 c 1.58349,2.207762 1.60924,2.17491 1.37198,-1.75 L 115.5,54.5 H 64 12.5 l -0.241806,4 c -0.237266,3.92491 -0.211511,3.957762 1.371972,1.75 L 15.243944,58 Z"
       id="path12149"
       inkscape:connector-curvature="0" />
    <path
       style="fill:#cea8a8"
       d="m 15.619302,78.983796 c -1.584385,-0.484405 -3.946885,-1.882367 -5.25,-3.106581 C 8.1909974,73.830805 8,72.865141 8,63.898266 8,48.716232 2.8163412,50 64.119082,50 h 50.849368 l 3.26577,2.917269 c 3.15873,2.821638 3.27704,3.209622 3.60915,11.835692 0.32062,8.327739 0.17738,9.111445 -2.16274,11.832732 L 117.17453,79.5 67.837263,79.682267 C 40.701768,79.782514 17.203686,79.468202 15.619302,78.983796 Z M 64,58 h 48.75606 l 1.61377,2.25 c 1.58349,2.207762 1.60924,2.17491 1.37198,-1.75 L 115.5,54.5 H 64 12.5 l -0.241806,4 c -0.237266,3.92491 -0.211511,3.957762 1.371972,1.75 L 15.243944,58 Z"
       id="path12147"
       inkscape:connector-curvature="0" />
    <path
       style="fill:#ee9090"
       d="m 15.619302,78.983796 c -1.584385,-0.484405 -3.946885,-1.882367 -5.25,-3.106581 C 8.1909974,73.830805 8,72.865141 8,63.898266 8,48.719374 2.8480777,50 63.912352,50 108.18501,50 114.83526,50.19631 116.78321,51.560704 120.55292,54.201116 122,58.315861 122,66.394576 c 0,6.479282 -0.32667,7.873775 -2.41274,10.29966 L 117.17453,79.5 67.837263,79.682267 C 40.701768,79.782514 17.203686,79.468202 15.619302,78.983796 Z M 64,58 h 48.75606 l 1.61377,2.25 c 1.58349,2.207762 1.60924,2.17491 1.37198,-1.75 L 115.5,54.5 H 64 12.5 l -0.241806,4 c -0.237266,3.92491 -0.211511,3.957762 1.371972,1.75 L 15.243944,58 Z"
       id="path12145"
       inkscape:connector-curvature="0" />
    <path
       style="fill:#e19595"
       d="m 15.619302,78.983796 c -1.584385,-0.484405 -3.946885,-1.882367 -5.25,-3.106581 C 8.1909974,73.830805 8,72.865141 8,63.898266 8,48.719374 2.8480777,50 63.912352,50 108.18501,50 114.83526,50.19631 116.78321,51.560704 120.55292,54.201116 122,58.315861 122,66.394576 c 0,6.479282 -0.32667,7.873775 -2.41274,10.29966 L 117.17453,79.5 67.837263,79.682267 C 40.701768,79.782514 17.203686,79.468202 15.619302,78.983796 Z M 14.767927,60 C 15.988757,58.045141 17.099955,58 64,58 c 46.90005,0 48.01124,0.04514 49.23207,2 1.91743,3.070288 2.92087,2.389207 2.5783,-1.75 L 115.5,54.5 H 64 12.5 l -0.310365,3.75 c -0.342578,4.139207 0.660865,4.820288 2.578292,1.75 z"
       id="path12143"
       inkscape:connector-curvature="0" />
    <path
       style="fill:#b2abab"
       d="m 15.619302,78.983796 c -1.584385,-0.484405 -3.946885,-1.882367 -5.25,-3.106581 C 8.1909974,73.830805 8,72.865141 8,63.898266 8,48.719374 2.8480777,50 63.912352,50 108.18501,50 114.83526,50.19631 116.78321,51.560704 120.55292,54.201116 122,58.315861 122,66.394576 c 0,6.479282 -0.32667,7.873775 -2.41274,10.29966 L 117.17453,79.5 67.837263,79.682267 C 40.701768,79.782514 17.203686,79.468202 15.619302,78.983796 Z M 14.767927,60 C 15.988757,58.045141 17.099955,58 64,58 c 46.90005,0 48.01124,0.04514 49.23207,2 0.68696,1.1 1.56045,2 1.94109,2 1.35663,0 1.9191,-3.959097 0.84706,-5.962227 C 114.94481,54.028359 114.22086,54 64,54 13.779142,54 13.05519,54.028359 11.979785,56.037773 10.907742,58.040903 11.470213,62 12.826841,62 c 0.380636,0 1.254125,-0.9 1.941086,-2 z"
       id="path12141"
       inkscape:connector-curvature="0" />
    <path
       style="fill:#cd9d9d"
       d="M 14,78.293772 C 13.175,77.992188 11.4875,76.824273 10.25,75.698405 8.2103873,73.842781 8,72.739403 8,63.898266 8,48.719374 2.8480777,50 63.912352,50 c 56.157418,0 53.822678,-0.271741 56.693278,6.598574 2.98647,7.147625 1.10618,20.146828 -3.15043,21.780245 C 115.46864,79.141133 16.094536,79.059441 14,78.293772 Z M 14.767927,60 C 15.988757,58.045141 17.099955,58 64,58 c 46.90005,0 48.01124,0.04514 49.23207,2 0.68696,1.1 1.56045,2 1.94109,2 1.35663,0 1.9191,-3.959097 0.84706,-5.962227 C 114.94481,54.028359 114.22086,54 64,54 13.779142,54 13.05519,54.028359 11.979785,56.037773 10.907742,58.040903 11.470213,62 12.826841,62 c 0.380636,0 1.254125,-0.9 1.941086,-2 z"
       id="path12139"
       inkscape:connector-curvature="0" />
    <path
       style="fill:#ed8c8c"
       d="M 11.897883,76.712931 8.5,74.425863 8.2170571,64.397732 C 7.786109,49.123959 2.282837,50.548948 62.854297,50.250244 102.08525,50.056779 114.06346,50.285299 116,51.264156 c 3.78692,1.914161 5.99665,7.26882 5.99845,14.535504 0.002,6.612234 -1.76896,11.514563 -4.54325,12.579159 C 116.56487,78.720468 93.214777,79 65.566096,79 H 15.295766 Z M 14.767927,60 C 15.988757,58.045141 17.099955,58 64,58 c 46.90005,0 48.01124,0.04514 49.23207,2 0.68696,1.1 1.56045,2 1.94109,2 1.35663,0 1.9191,-3.959097 0.84706,-5.962227 C 114.94481,54.028359 114.22086,54 64,54 13.779142,54 13.05519,54.028359 11.979785,56.037773 10.907742,58.040903 11.470213,62 12.826841,62 c 0.380636,0 1.254125,-0.9 1.941086,-2 z"
       id="path12137"
       inkscape:connector-curvature="0" />
    <path
       style="fill:#d79595"
       d="M 11.897883,76.712931 8.5,74.425863 8.2170571,64.397732 C 7.786109,49.123959 2.282837,50.548948 62.854297,50.250244 102.08525,50.056779 114.06346,50.285299 116,51.264156 c 3.78692,1.914161 5.99665,7.26882 5.99845,14.535504 0.002,6.612234 -1.76896,11.514563 -4.54325,12.579159 C 116.56487,78.720468 93.214777,79 65.566096,79 H 15.295766 Z M 64.086788,59 h 48.842842 l 1.18434,2.212951 1.18433,2.212952 0.90499,-2.446418 c 0.56866,-1.537221 0.52119,-3.288761 -0.12771,-4.712951 L 115.04288,54 H 64.056623 c -49.786624,0 -51.011181,0.04657 -52.045641,1.979481 -0.582663,1.088714 -0.751799,3.205003 -0.37586,4.702865 l 0.683526,2.723385 1.462648,-2.202865 L 15.243944,59 Z"
       id="path12135"
       inkscape:connector-curvature="0" />
    <path
       style="fill:#ada6a6"
       d="M 12.775141,77.441198 C 8.7685277,75.266888 8,73.051555 8,63.676525 8,56.843067 8.3664933,54.768815 9.9110005,52.860784 L 11.822001,50.5 61.383496,50.214281 c 27.258822,-0.157146 51.002634,0.08772 52.764034,0.544143 4.83997,1.254161 7.18819,5.150191 7.67062,12.726644 0.48917,7.682319 -0.18214,10.878919 -2.84359,13.540368 -1.9153,1.9153 -3.49775,1.973362 -52.72456,1.934526 C 23.412661,78.926167 15.075155,78.68937 12.775141,77.441198 Z M 64,59 h 48.75606 l 1.48918,2.242829 1.48918,2.242829 0.72124,-3.283789 C 117.87482,53.74047 120.06994,54 64,54 7.9300639,54 10.125177,53.74047 11.544338,60.201869 l 0.721241,3.283789 1.489182,-2.242829 L 15.243944,59 Z"
       id="path12133"
       inkscape:connector-curvature="0" />
    <path
       style="fill:#ec8383"
       d="M 12.775141,77.441198 C 8.7685277,75.266888 8,73.051555 8,63.676525 8,56.843067 8.3664933,54.768815 9.9110005,52.860784 L 11.822001,50.5 61.383496,50.214281 c 27.258822,-0.157146 51.002634,0.08772 52.764034,0.544143 5.54019,1.435607 7.35247,5.107842 7.35247,14.898366 0,8.086119 -0.14036,8.632776 -2.80576,10.927571 L 115.88847,79 65.694236,78.959962 C 23.347388,78.926184 15.073994,78.68874 12.775141,77.441198 Z M 64,59 h 48.75606 l 1.48918,2.242829 1.48918,2.242829 0.72124,-3.283789 C 117.87482,53.74047 120.06994,54 64,54 7.9300639,54 10.125177,53.74047 11.544338,60.201869 l 0.721241,3.283789 1.489182,-2.242829 L 15.243944,59 Z"
       id="path12131"
       inkscape:connector-curvature="0" />
    <path
       style="fill:#d18c8c"
       d="M 12.775141,77.441198 C 8.7685277,75.266888 8,73.051555 8,63.676525 8,56.843067 8.3664933,54.768815 9.9110005,52.860784 L 11.822001,50.5 61.383496,50.214281 c 27.258822,-0.157146 51.002634,0.08772 52.764034,0.544143 5.54019,1.435607 7.35247,5.107842 7.35247,14.898366 0,8.086119 -0.14036,8.632776 -2.80576,10.927571 L 115.88847,79 65.694236,78.959962 C 23.347388,78.926184 15.073994,78.68874 12.775141,77.441198 Z M 14.361626,61.5 C 14.862452,60.19487 21.31114,60 64,60 c 42.68886,0 49.13755,0.19487 49.63837,1.5 0.92157,2.401562 2.14948,1.742418 2.87063,-1.540959 C 117.86578,53.781643 119.78987,54 64,54 8.2101328,54 10.13422,53.781643 11.491004,59.959041 c 0.72115,3.283377 1.949057,3.942521 2.870622,1.540959 z"
       id="path12129"
       inkscape:connector-curvature="0" />
    <path
       style="fill:#d58888"
       d="M 12.775141,77.441198 C 8.7609939,75.2628 8,73.051528 8,63.565741 8,49.782493 2.5697016,51 64.045455,51 h 52.045455 l 2.37444,2.374444 c 4.71957,4.71957 4.76786,19.30788 0.0773,23.34256 L 115.88847,79 65.694236,78.959962 C 23.347388,78.926184 15.073994,78.68874 12.775141,77.441198 Z M 14.361626,61.5 C 14.862452,60.19487 21.31114,60 64,60 c 42.68886,0 49.13755,0.19487 49.63837,1.5 0.92157,2.401562 2.14948,1.742418 2.87063,-1.540959 C 117.86578,53.781643 119.78987,54 64,54 8.2101328,54 10.13422,53.781643 11.491004,59.959041 c 0.72115,3.283377 1.949057,3.942521 2.870622,1.540959 z"
       id="path12127"
       inkscape:connector-curvature="0" />
    <path
       style="fill:#b49898"
       d="M 12.775141,77.441198 C 8.7609939,75.2628 8,73.051528 8,63.565741 8,49.782493 2.5697016,51 64.045455,51 h 52.045455 l 2.37444,2.374444 c 4.71957,4.71957 4.76786,19.30788 0.0773,23.34256 L 115.88847,79 65.694236,78.959962 C 23.347388,78.926184 15.073994,78.68874 12.775141,77.441198 Z M 14.361626,61.5 c 0.500808,-1.305083 6.940506,-1.5 49.557299,-1.5 45.606405,0 49.049735,0.120591 49.969105,1.75 1.41185,2.502235 3.35896,0.280383 2.94015,-3.355006 -0.61175,-5.310129 -1.15703,-5.36551 -52.82818,-5.36551 -50.639417,0 -52.158844,0.138579 -52.829081,4.818274 -0.61136,4.268603 1.866017,7.104331 3.190707,3.652242 z"
       id="path12125"
       inkscape:connector-curvature="0" />
    <path
       style="fill:#ab9b9b"
       d="M 13.328737,77.542239 C 8.8663318,75.601123 8,73.328861 8,63.565741 8,49.782493 2.5697016,51 64.045455,51 h 52.045455 l 2.37444,2.374444 c 4.71957,4.71957 4.76786,19.30788 0.0773,23.34256 L 115.88847,79 66.194236,78.960858 C 26.216984,78.92937 15.879906,78.65198 13.328737,77.542239 Z M 14.361626,61.5 c 0.500808,-1.305083 6.940506,-1.5 49.557299,-1.5 45.606405,0 49.049735,0.120591 49.969105,1.75 1.41185,2.502235 3.35896,0.280383 2.94015,-3.355006 -0.61175,-5.310129 -1.15703,-5.36551 -52.82818,-5.36551 -50.639417,0 -52.158844,0.138579 -52.829081,4.818274 -0.61136,4.268603 1.866017,7.104331 3.190707,3.652242 z"
       id="path12123"
       inkscape:connector-curvature="0" />
    <path
       style="fill:#d48484"
       d="M 13.328737,77.556477 C 8.8642506,75.594411 8,73.325299 8,63.565741 8,49.782493 2.5697016,51 64.045455,51 h 52.045455 l 2.45454,2.454545 C 120.78522,55.694311 121,56.690901 121,64.843761 c 0,7.30598 -0.34838,9.365016 -1.91112,11.295455 L 117.17775,78.5 66.838876,78.725096 C 25.61184,78.909448 15.92597,78.697916 13.328737,77.556477 Z M 14.361626,61.5 c 0.500808,-1.305083 6.940506,-1.5 49.557299,-1.5 45.606405,0 49.049735,0.120591 49.969105,1.75 1.41185,2.502235 3.35896,0.280383 2.94015,-3.355006 -0.61175,-5.310129 -1.15703,-5.36551 -52.82818,-5.36551 -50.639417,0 -52.158844,0.138579 -52.829081,4.818274 -0.61136,4.268603 1.866017,7.104331 3.190707,3.652242 z"
       id="path12121"
       inkscape:connector-curvature="0" />
    <path
       style="fill:#ea7878"
       d="M 13.328737,77.556477 C 8.8642506,75.594411 8,73.325299 8,63.565741 8,49.782493 2.5697016,51 64.045455,51 h 52.045455 l 2.45454,2.454545 C 120.78522,55.694311 121,56.690901 121,64.843761 c 0,7.30598 -0.34838,9.365016 -1.91112,11.295455 L 117.17775,78.5 66.838876,78.725096 C 25.61184,78.909448 15.92597,78.697916 13.328737,77.556477 Z M 14.361626,61.5 c 0.500808,-1.305083 6.940506,-1.5 49.557299,-1.5 44.362745,0 49.068265,0.154689 49.899705,1.640398 1.27357,2.275736 3.18453,0.797321 3.16606,-2.449415 C 116.9506,53.200761 119.7366,53.5 64,53.5 8.374018,53.5 11.05008,53.218006 11.015313,59.083333 10.992605,62.914184 13.205652,64.51242 14.361626,61.5 Z"
       id="path12119"
       inkscape:connector-curvature="0" />
    <path
       style="fill:#ca8787"
       d="M 13.328737,77.556477 C 8.8642506,75.594411 8,73.325299 8,63.565741 8,49.782493 2.5697016,51 64.045455,51 h 52.045455 l 2.45454,2.454545 C 120.78522,55.694311 121,56.690901 121,64.843761 c 0,7.30598 -0.34838,9.365016 -1.91112,11.295455 L 117.17775,78.5 66.838876,78.725096 C 25.61184,78.909448 15.92597,78.697916 13.328737,77.556477 Z M 64,61 c 43.06369,0 48.53705,0.176052 50.12403,1.61225 1.66053,1.502759 1.82605,1.434847 2.43715,-1 0.97085,-3.868158 -0.23019,-7.290437 -2.80024,-7.979103 -2.95169,-0.79093 -96.57019,-0.79093 -99.521879,0 -2.57005,0.688666 -3.77109,4.110945 -2.800244,7.979103 0.611108,2.434847 0.776618,2.502759 2.437149,1 C 15.462946,61.176052 20.936308,61 64,61 Z"
       id="path12117"
       inkscape:connector-curvature="0" />
    <path
       style="fill:#aa9393"
       d="M 13.5,77.465381 C 8.6411835,74.952144 8,73.360084 8,63.80887 8,49.740334 2.48808,51 64.047749,51 H 116.0955 l 2.45225,2.646023 C 120.76201,56.035248 121,57.140576 121,65.035239 c 0,7.11747 -0.35536,9.182161 -1.91112,11.103977 L 117.17775,78.5 66.838876,78.75857 C 22.960617,78.983954 16.114973,78.817983 13.5,77.465381 Z M 64,61 c 43.06369,0 48.53705,0.176052 50.12403,1.61225 1.66053,1.502759 1.82605,1.434847 2.43715,-1 0.97085,-3.868158 -0.23019,-7.290437 -2.80024,-7.979103 -2.95169,-0.79093 -96.57019,-0.79093 -99.521879,0 -2.57005,0.688666 -3.77109,4.110945 -2.800244,7.979103 0.611108,2.434847 0.776618,2.502759 2.437149,1 C 15.462946,61.176052 20.936308,61 64,61 Z"
       id="path12115"
       inkscape:connector-curvature="0" />
    <path
       style="fill:#d57b7b"
       d="m 15.332665,78.318617 c -1.192035,-0.23983 -3.329535,-1.513143 -4.75,-2.829586 C 8.1724404,73.25531 8,72.491394 8,64.047749 8,49.698916 2.4110786,51 64.047749,51 H 116.0955 l 2.45225,2.646023 C 120.75916,56.032178 121,57.144481 121,64.971709 c 0,8.036825 -0.19107,8.859214 -2.57987,11.103977 L 115.84027,78.5 66.670133,78.627335 C 39.62656,78.697369 16.524699,78.558446 15.332665,78.318617 Z M 64,61 c 43.06369,0 48.53705,0.176052 50.12403,1.61225 1.66053,1.502759 1.82605,1.434847 2.43715,-1 0.97085,-3.868158 -0.23019,-7.290437 -2.80024,-7.979103 -2.95169,-0.79093 -96.57019,-0.79093 -99.521879,0 -2.57005,0.688666 -3.77109,4.110945 -2.800244,7.979103 0.611108,2.434847 0.776618,2.502759 2.437149,1 C 15.462946,61.176052 20.936308,61 64,61 Z"
       id="path12113"
       inkscape:connector-curvature="0" />
    <path
       style="fill:#bc8787"
       d="m 15.332665,78.318617 c -1.192035,-0.23983 -3.329535,-1.513143 -4.75,-2.829586 C 8.1724404,73.25531 8,72.491394 8,64.047749 8,49.698916 2.4110786,51 64.047749,51 H 116.0955 l 2.45225,2.646023 C 120.75916,56.032178 121,57.144481 121,64.971709 c 0,8.036825 -0.19107,8.859214 -2.57987,11.103977 L 115.84027,78.5 66.670133,78.627335 C 39.62656,78.697369 16.524699,78.558446 15.332665,78.318617 Z M 64.206296,61 c 41.774994,0 48.721234,0.207753 49.784564,1.48899 1.84729,2.225842 3.00914,0.869513 3.00914,-3.512823 0,-2.838094 -0.52876,-4.188782 -1.93426,-4.940983 -2.66011,-1.423647 -99.471373,-1.423647 -102.131481,0 C 11.543122,54.779697 11,56.136854 11,58.868517 c 0,4.626875 0.812197,5.611417 2.997589,3.633665 C 15.42614,61.209361 22.42378,61 64.206296,61 Z"
       id="path12111"
       inkscape:connector-curvature="0" />
    <path
       style="fill:#e96d6d"
       d="M 13.401837,77.109533 C 11.147847,76.077848 9.0103466,74.469346 8.6518365,73.535084 8.2933264,72.600821 8,68.048229 8,63.418213 8,49.815585 2.714364,51 63.418213,51 c 28.280016,0 52.146657,0.279532 53.036987,0.621181 3.00569,1.153394 4.5448,5.94696 4.5448,14.154845 0,7.172247 -0.23033,8.091785 -2.57987,10.29966 L 115.84027,78.5 66.670133,78.742662 C 20.414094,78.970942 17.25712,78.874154 13.401837,77.109533 Z M 64.206296,61 c 41.774994,0 48.721234,0.207753 49.784564,1.48899 1.84729,2.225842 3.00914,0.869513 3.00914,-3.512823 0,-2.838094 -0.52876,-4.188782 -1.93426,-4.940983 -2.66011,-1.423647 -99.471373,-1.423647 -102.131481,0 C 11.543122,54.779697 11,56.136854 11,58.868517 c 0,4.626875 0.812197,5.611417 2.997589,3.633665 C 15.42614,61.209361 22.42378,61 64.206296,61 Z"
       id="path12109"
       inkscape:connector-curvature="0" />
    <path
       style="fill:#ca7a7a"
       d="M 13.401837,77.109533 C 11.147847,76.077848 9.0103466,74.469346 8.6518365,73.535084 8.2933264,72.600821 8,68.048229 8,63.418213 8,49.815585 2.714364,51 63.418213,51 c 28.280016,0 52.146657,0.279532 53.036987,0.621181 3.00569,1.153394 4.5448,5.94696 4.5448,14.154845 0,7.172247 -0.23033,8.091785 -2.57987,10.29966 L 115.84027,78.5 66.670133,78.742662 C 20.414094,78.970942 17.25712,78.874154 13.401837,77.109533 Z M 14.5,63 c 0.909593,-1.471752 97.7384,-1.361596 99.21287,0.112868 1.83747,1.837474 3.28713,0.01315 3.28713,-4.136701 0,-2.838094 -0.52876,-4.188782 -1.93426,-4.940983 -2.66011,-1.423647 -99.471373,-1.423647 -102.131481,0 C 10.088135,55.558383 10.235022,64 13.10765,64 13.533524,64 14.160081,63.55 14.5,63 Z"
       id="path12107"
       inkscape:connector-curvature="0" />
    <path
       style="fill:#a78a8a"
       d="M 14.378302,77.577571 C 9.3104728,75.348405 8,72.540777 8,63.912352 8,57.6947 8.3864363,55.778443 10.07258,53.634859 L 12.14516,51 h 51.838527 51.838523 l 2.5889,3.076725 C 120.73841,56.842571 121,57.986944 121,65.402411 c 0,7.573854 -0.21114,8.44737 -2.57987,10.673275 L 115.84027,78.5 66.670133,78.72535 C 26.787836,78.908133 16.910337,78.691327 14.378302,77.577571 Z M 14.5,63 c 0.909593,-1.471752 97.7384,-1.361596 99.21287,0.112868 1.83747,1.837474 3.28713,0.01315 3.28713,-4.136701 0,-2.838094 -0.52876,-4.188782 -1.93426,-4.940983 -2.66011,-1.423647 -99.471373,-1.423647 -102.131481,0 C 10.088135,55.558383 10.235022,64 13.10765,64 13.533524,64 14.160081,63.55 14.5,63 Z"
       id="path12105"
       inkscape:connector-curvature="0" />
    <path
       style="fill:#db6d6d"
       d="M 10.923077,75.076923 C 8.183041,72.336887 8,71.65652 8,64.211782 8,57.691205 8.3709548,55.798125 10.07258,53.634859 L 12.14516,51 h 51.838527 51.838523 l 2.5889,3.076725 C 120.72231,56.823435 121,58.008192 121,65.12218 c 0,7.127293 -0.25918,8.22791 -2.45455,10.423275 L 116.09091,78 H 64.968531 13.846154 Z M 14.5,63 c 0.909593,-1.471752 97.7384,-1.361596 99.21287,0.112868 1.83747,1.837474 3.28713,0.01315 3.28713,-4.136701 0,-2.838094 -0.52876,-4.188782 -1.93426,-4.940983 -2.66011,-1.423647 -99.471373,-1.423647 -102.131481,0 C 10.088135,55.558383 10.235022,64 13.10765,64 13.533524,64 14.160081,63.55 14.5,63 Z"
       id="path12103"
       inkscape:connector-curvature="0" />
    <path
       style="fill:#b07d7d"
       d="M 10.923077,75.076923 C 8.183041,72.336887 8,71.65652 8,64.211782 8,57.691205 8.3709548,55.798125 10.07258,53.634859 L 12.14516,51 h 51.838527 51.838523 l 2.5889,3.076725 C 120.72231,56.823435 121,58.008192 121,65.12218 c 0,7.127293 -0.25918,8.22791 -2.45455,10.423275 L 116.09091,78 H 64.968531 13.846154 Z M 14.5,63 c 0.848678,-1.37319 98.15132,-1.37319 99,0 0.33992,0.55 1.26648,1 2.05902,1 2.37796,0 1.9494,-8.657537 -0.49328,-9.964816 -2.66011,-1.423647 -99.471373,-1.423647 -102.131481,0 C 10.491584,55.342463 10.063022,64 12.440983,64 13.233524,64 14.160081,63.55 14.5,63 Z"
       id="path12101"
       inkscape:connector-curvature="0" />
    <path
       style="fill:#e75c5c"
       d="M 10.923077,75.076923 C 8.183041,72.336887 8,71.65652 8,64.211782 8,57.691205 8.3709548,55.798125 10.07258,53.634859 L 12.14516,51 h 51.753106 51.753104 l 2.42432,2.580564 C 120.27103,55.917397 120.5,57.011901 120.5,65.168917 120.5,79.184853 125.64234,78 64.812293,78 H 13.846154 Z M 14.5,63 c 0.848678,-1.37319 98.15132,-1.37319 99,0 0.33992,0.55 1.26648,1 2.05902,1 2.37796,0 1.9494,-8.657537 -0.49328,-9.964816 -2.66011,-1.423647 -99.471373,-1.423647 -102.131481,0 C 10.491584,55.342463 10.063022,64 12.440983,64 13.233524,64 14.160081,63.55 14.5,63 Z"
       id="path12099"
       inkscape:connector-curvature="0" />
    <path
       style="fill:#c56b6b"
       d="M 10.923077,75.076923 C 8.183041,72.336887 8,71.65652 8,64.211782 8,57.691205 8.3709548,55.798125 10.07258,53.634859 L 12.14516,51 h 51.753106 51.753104 l 2.42432,2.580564 C 120.27103,55.917397 120.5,57.011901 120.5,65.168917 120.5,79.184853 125.64234,78 64.812293,78 H 13.846154 Z M 64.140983,63 C 96.75518,63 114.09824,63.349936 114.51008,64.016312 115.76202,66.041996 117,63.784655 117,59.476167 c 0,-3.332429 -0.47124,-4.657998 -1.93426,-5.440983 -2.66011,-1.423647 -99.471373,-1.423647 -102.131481,0 C 11.482491,54.812146 11,56.142518 11,59.368517 c 0,4.680798 0.796769,6.234714 2.383333,4.64815 C 14.04497,63.35503 31.770044,63 64.140983,63 Z"
       id="path12097"
       inkscape:connector-curvature="0" />
    <path
       style="fill:#d95c5c"
       d="M 11.305764,75.586584 C 8.6106467,73.268342 8.5,72.811349 8.5,63.998231 8.5,49.78782 3.3190876,51 64.05502,51 h 50.83345 l 2.80577,2.413416 C 120.38935,55.731658 120.5,56.188651 120.5,65.001769 120.5,79.21218 125.68091,78 64.94498,78 H 14.111527 Z M 64.140983,63 c 32.614197,0 49.957257,0.349936 50.369097,1.016312 0.34546,0.558971 1.04702,0.757414 1.55902,0.440983 1.35233,-0.835786 1.14218,-8.846014 -0.2691,-10.257295 -1.7298,-1.729796 -101.870204,-1.729796 -103.6,0 -1.274767,1.274767 -1.66794,8.998726 -0.516667,10.15 0.375834,0.375833 1.140834,0.225833 1.7,-0.333333 C 14.04497,63.35503 31.770044,63 64.140983,63 Z"
       id="path12095"
       inkscape:connector-curvature="0" />
    <path
       style="fill:#ba6a6a"
       d="M 11.305764,75.586584 C 8.6106467,73.268342 8.5,72.811349 8.5,63.998231 8.5,49.78782 3.3190876,51 64.05502,51 h 50.83345 l 2.80577,2.413416 C 120.38935,55.731658 120.5,56.188651 120.5,65.001769 120.5,79.21218 125.68091,78 64.94498,78 H 14.111527 Z M 13.5,64 c 0.848874,-1.373506 100.15113,-1.373506 101,0 0.33992,0.55 1.04148,1 1.55902,1 1.3764,0 1.15121,-9.389771 -0.25902,-10.8 C 114.0702,52.470204 13.929796,52.470204 12.2,54.2 10.789771,55.610229 10.564576,65 11.940983,65 12.458524,65 13.160081,64.55 13.5,64 Z"
       id="path12093"
       inkscape:connector-curvature="0" />
    <path
       style="fill:#a37474"
       d="M 11.305764,75.586584 C 8.6106467,73.268342 8.5,72.811349 8.5,63.998231 8.5,49.792836 3.3756801,51 63.676525,51 c 32.692722,0 51.132255,0.362477 52.378865,1.029644 3.65226,1.954629 5.17861,6.665337 4.77156,14.7262 C 120.21232,78.927234 124.82055,78 64.94498,78 H 14.111527 Z M 13.5,64 c 0.848874,-1.373506 100.15113,-1.373506 101,0 0.33992,0.55 1.04148,1 1.55902,1 1.3764,0 1.15121,-9.389771 -0.25902,-10.8 C 114.0702,52.470204 13.929796,52.470204 12.2,54.2 10.789771,55.610229 10.564576,65 11.940983,65 12.458524,65 13.160081,64.55 13.5,64 Z"
       id="path12091"
       inkscape:connector-curvature="0" />
    <path
       style="fill:#c86060"
       d="M 11.305764,75.586584 C 8.6106467,73.268342 8.5,72.811349 8.5,63.998231 8.5,49.792836 3.3756801,51 63.676525,51 97.906586,51 114.78071,51.347456 116.1504,52.080491 118.93595,53.571273 121,58.992792 121,64.818658 121,71.36333 119.42705,75.484392 116.40317,76.862164 114.64324,77.664044 99.17331,78 64.008711,78 H 14.111527 Z M 13.5,64 c 0.848874,-1.373506 100.15113,-1.373506 101,0 0.33992,0.55 1.04148,1 1.55902,1 1.3764,0 1.15121,-9.389771 -0.25902,-10.8 C 114.0702,52.470204 13.929796,52.470204 12.2,54.2 10.789771,55.610229 10.564576,65 11.940983,65 12.458524,65 13.160081,64.55 13.5,64 Z"
       id="path12089"
       inkscape:connector-curvature="0" />
    <path
       style="fill:#c26161"
       d="M 11.305764,75.586584 C 8.6106467,73.268342 8.5,72.811349 8.5,63.998231 8.5,49.792836 3.3756801,51 63.676525,51 97.906586,51 114.78071,51.347456 116.1504,52.080491 118.93595,53.571273 121,58.992792 121,64.818658 121,71.36333 119.42705,75.484392 116.40317,76.862164 114.64324,77.664044 99.17331,78 64.008711,78 H 14.111527 Z M 13.5,64 c 0.848874,-1.373506 100.15113,-1.373506 101,0 1.20439,1.948744 2.24601,0.95258 2.8416,-2.71759 0.40476,-2.494241 0.11116,-4.468664 -0.89221,-6 L 114.95389,53 H 64 13.046106 l -1.495492,2.28241 c -1.00337,1.531336 -1.296971,3.505759 -0.892211,6 C 11.25399,64.95258 12.29561,65.948744 13.5,64 Z"
       id="path12087"
       inkscape:connector-curvature="0" />
    <path
       style="fill:#e45050"
       d="M 11.305764,75.582672 C 8.5709601,73.226481 8.5051646,72.929314 8.704209,63.832672 8.8839104,55.620038 9.1672341,54.289978 11.064993,52.75 13.055264,51.134951 17.112404,51 63.676525,51 97.906586,51 114.78071,51.347456 116.1504,52.080491 118.93595,53.571273 121,58.992792 121,64.818658 121,71.36333 119.42705,75.484392 116.40317,76.862164 114.64324,77.664044 99.17331,78 64.008711,78 H 14.111527 Z M 13.5,64 c 0.848874,-1.373506 100.15113,-1.373506 101,0 1.20439,1.948744 2.24601,0.95258 2.8416,-2.71759 0.40476,-2.494241 0.11116,-4.468664 -0.89221,-6 L 114.95389,53 H 64 13.046106 l -1.495492,2.28241 c -1.00337,1.531336 -1.296971,3.505759 -0.892211,6 C 11.25399,64.95258 12.29561,65.948744 13.5,64 Z"
       id="path12085"
       inkscape:connector-curvature="0" />
    <path
       style="fill:#c85d5d"
       d="M 11.305764,75.582672 C 8.5709601,73.226481 8.5051646,72.929314 8.704209,63.832672 8.8839104,55.620038 9.1672341,54.289978 11.064993,52.75 13.055264,51.134951 17.112404,51 63.676525,51 97.906586,51 114.78071,51.347456 116.1504,52.080491 118.93595,53.571273 121,58.992792 121,64.818658 121,71.36333 119.42705,75.484392 116.40317,76.862164 114.64324,77.664044 99.17331,78 64.008711,78 H 14.111527 Z M 64.206296,63 c 41.774994,0 48.721234,0.207753 49.784564,1.48899 1.71488,2.066298 2.63742,1.189103 3.3468,-3.182297 0.40883,-2.51935 0.11862,-4.487569 -0.88827,-6.024283 L 114.95389,53 H 64 13.046106 l -1.568682,2.394111 c -1.010273,1.541871 -1.34472,3.41073 -0.93953,5.25 1.248374,5.66671 1.339626,5.776707 3.311696,3.992008 C 15.471196,63.168586 20.659968,63 64.206296,63 Z"
       id="path12083"
       inkscape:connector-curvature="0" />
    <path
       style="fill:#a36d6d"
       d="M 11.305764,75.582672 C 8.5709601,73.226481 8.5051646,72.929314 8.704209,63.832672 8.8839104,55.620038 9.1672341,54.289978 11.064993,52.75 13.055264,51.134951 17.112404,51 63.676525,51 97.906586,51 114.78071,51.347456 116.1504,52.080491 118.93595,53.571273 121,58.992792 121,64.818658 121,71.36333 119.42705,75.484392 116.40317,76.862164 114.64324,77.664044 99.17331,78 64.008711,78 H 14.111527 Z M 64.206296,63 c 41.774994,0 48.721234,0.207753 49.784564,1.48899 1.69253,2.039375 2.66065,1.182159 3.4566,-3.060639 0.47408,-2.527054 0.20407,-4.311239 -0.90969,-6.011045 L 114.95389,53 H 64 13.046106 l -1.611434,2.45936 c -1.132813,1.72889 -1.401748,3.436733 -0.905456,5.75 1.00397,4.679614 1.449697,5.119699 3.398802,3.355783 C 15.44732,63.190194 21.557053,63 64.206296,63 Z"
       id="path12081"
       inkscape:connector-curvature="0" />
    <path
       style="fill:#c15c5c"
       d="M 13.465282,77.048476 C 9.2532502,75.341173 8.4888173,73.180508 8.704209,63.591329 8.8831141,55.626525 9.1756436,54.283154 11.064993,52.75 13.055863,51.134465 17.135247,51 64.156239,51 h 50.934671 l 2.45454,2.454545 C 119.78678,55.69587 120,56.688543 120,64.881965 120,79.136888 124.72606,78.01277 65.115141,77.936614 37.826814,77.901751 14.584377,77.502089 13.465282,77.048476 Z M 64.206296,63 c 41.774994,0 48.721234,0.207753 49.784564,1.48899 1.69253,2.039375 2.66065,1.182159 3.4566,-3.060639 0.47408,-2.527054 0.20407,-4.311239 -0.90969,-6.011045 L 114.95389,53 H 64 13.046106 l -1.611434,2.45936 c -1.132813,1.72889 -1.401748,3.436733 -0.905456,5.75 1.00397,4.679614 1.449697,5.119699 3.398802,3.355783 C 15.44732,63.190194 21.557053,63 64.206296,63 Z"
       id="path12079"
       inkscape:connector-curvature="0" />
    <path
       style="fill:#bd5a5a"
       d="M 13.465282,77.048476 C 9.4614327,75.425558 8.9118187,73.658995 9.2125527,63.379405 9.485813,54.038913 9.6233876,53.490965 12,52.277233 13.950668,51.281031 25.670974,51.055368 65.338867,51.250244 L 116.17773,51.5 l 1.91114,2.360784 C 119.64736,55.785957 120,57.848412 120,65.038204 120,79.109698 124.66792,78.012696 65.115141,77.936614 37.826814,77.901751 14.584377,77.502089 13.465282,77.048476 Z M 64.206296,63 c 41.774994,0 48.721234,0.207753 49.784564,1.48899 1.69253,2.039375 2.66065,1.182159 3.4566,-3.060639 0.47408,-2.527054 0.20407,-4.311239 -0.90969,-6.011045 L 114.95389,53 H 64 13.046106 l -1.611434,2.45936 c -1.132813,1.72889 -1.401748,3.436733 -0.905456,5.75 1.00397,4.679614 1.449697,5.119699 3.398802,3.355783 C 15.44732,63.190194 21.557053,63 64.206296,63 Z"
       id="path12077"
       inkscape:connector-curvature="0" />
    <path
       style="fill:#c05555"
       d="M 12.25,76.01096 9,74.029397 V 64.705828 C 9,50.044751 2.938285,51.5 64.007742,51.5 h 52.168968 l 1.91164,2.360784 C 119.64749,55.786237 120,57.847363 120,65.038204 120,79.101994 124.66441,78.000748 65.115141,77.996262 17.417491,77.992668 15.374396,77.915942 12.25,76.01096 Z M 64.206296,63 c 41.774994,0 48.721234,0.207753 49.784564,1.48899 1.69253,2.039375 2.66065,1.182159 3.4566,-3.060639 0.47408,-2.527054 0.20407,-4.311239 -0.90969,-6.011045 L 114.95389,53 H 64 13.046106 l -1.611434,2.45936 c -1.132813,1.72889 -1.401748,3.436733 -0.905456,5.75 1.00397,4.679614 1.449697,5.119699 3.398802,3.355783 C 15.44732,63.190194 21.557053,63 64.206296,63 Z"
       id="path12075"
       inkscape:connector-curvature="0" />
    <path
       style="fill:#a36363"
       d="M 13.5,76.845268 C 9.6655099,74.747965 9,72.848264 9,64 9,50.165981 3.1294916,51.5 64.007742,51.5 h 52.168968 l 1.91164,2.360784 C 119.64749,55.786237 120,57.847363 120,65.038204 120,79.105439 124.66598,78.00609 65.115141,77.969591 31.138787,77.948768 14.869596,77.594379 13.5,76.845268 Z M 64.206296,63 c 43.159744,0 48.695324,0.176528 49.868644,1.5903 1.20003,1.445941 1.43808,1.428591 2.62245,-0.19113 C 118.66454,61.708928 118.30194,56.301938 116,54 c -1.94667,-1.946667 -3.33333,-2 -52,-2 -48.666667,0 -50.053333,0.05333 -52,2 -2.1957139,2.195714 -2.6276786,6.958655 -0.920415,10.148706 0.991044,1.851782 1.22304,1.887397 2.828741,0.434258 C 15.453315,63.184768 21.324241,63 64.206296,63 Z"
       id="path12073"
       inkscape:connector-curvature="0" />
    <path
       style="fill:#bd5656"
       d="M 14.50116,76.9522 C 9.8504207,75.537311 9,73.535039 9,64 9,50.165981 3.1294916,51.5 64.007742,51.5 h 52.168968 l 1.91164,2.360784 c 2.77168,3.422878 2.77212,17.854653 6.5e-4,21.278432 L 116.178,77.5 66.838999,77.682267 C 39.366576,77.783755 16.170942,77.460197 14.50116,76.9522 Z M 64.206296,63 c 43.159744,0 48.695324,0.176528 49.868644,1.5903 1.20003,1.445941 1.43808,1.428591 2.62245,-0.19113 C 118.66454,61.708928 118.30194,56.301938 116,54 c -1.94667,-1.946667 -3.33333,-2 -52,-2 -48.666667,0 -50.053333,0.05333 -52,2 -2.1957139,2.195714 -2.6276786,6.958655 -0.920415,10.148706 0.991044,1.851782 1.22304,1.887397 2.828741,0.434258 C 15.453315,63.184768 21.324241,63 64.206296,63 Z"
       id="path12071"
       inkscape:connector-curvature="0" />
    <path
       style="fill:#d54747"
       d="M 14.50116,76.9522 C 9.8379414,75.533515 9,73.542391 9,63.880299 9,57.270503 9.3826571,54.7602 10.571429,53.571429 11.435714,52.707143 12.560714,52 13.071429,52 13.582143,52 13.1,52.9 12,54 c -2.301938,2.301938 -2.6645404,7.708928 -0.697387,10.39917 1.184369,1.619721 1.42242,1.637071 2.622445,0.19113 C 15.098524,63.176359 20.651677,63 64,63 c 43.34832,0 48.90148,0.176359 50.07494,1.5903 1.20003,1.445941 1.43808,1.428591 2.62245,-0.19113 C 118.66454,61.708928 118.30194,56.301938 116,54 c -1.95379,-1.953792 -1.59178,-2.698376 0.6003,-1.234687 2.36236,1.577392 3.3997,5.409221 3.3997,12.558162 0,5.848982 -0.41167,7.963526 -1.911,9.815741 L 116.178,77.5 66.838999,77.682267 C 39.366576,77.783755 16.170942,77.460197 14.50116,76.9522 Z"
       id="path12069"
       inkscape:connector-curvature="0" />
    <path
       style="fill:#e24040"
       d="M 14.50116,76.9522 C 9.8379414,75.533515 9,73.542391 9,63.880299 9,57.270503 9.3826571,54.7602 10.571429,53.571429 11.435714,52.707143 12.560714,52 13.071429,52 13.582143,52 13.1,52.9 12,54 9.8954403,56.10456 9.6276309,58.114311 10.637613,64.223903 l 0.615602,3.723904 1.945973,-2.473904 L 15.14516,63 H 64 112.85484 l 1.94597,2.473903 1.94598,2.473904 0.6156,-3.723904 C 118.37237,58.114311 118.10456,56.10456 116,54 c -1.95379,-1.953792 -1.59178,-2.698376 0.6003,-1.234687 2.36236,1.577392 3.3997,5.409221 3.3997,12.558162 0,5.848982 -0.41167,7.963526 -1.911,9.815741 L 116.178,77.5 66.838999,77.682267 C 39.366576,77.783755 16.170942,77.460197 14.50116,76.9522 Z"
       id="path12067"
       inkscape:connector-curvature="0" />
    <path
       style="fill:#c54848"
       d="M 14.50116,76.9522 C 9.8379414,75.533515 9,73.542391 9,63.880299 9,57.270503 9.3826571,54.7602 10.571429,53.571429 11.435714,52.707143 12.560714,52 13.071429,52 c 0.510714,0 -0.02687,0.955441 -1.19463,2.123201 -1.844929,1.844929 -2.0382933,2.845642 -1.475355,7.635369 0.7788,6.626371 1.791008,8.662259 2.600936,5.231349 L 13.59017,64.5 H 64 114.40983 l 0.58779,2.489919 c 0.80993,3.43091 1.82214,1.395022 2.60094,-5.231349 0.56293,-4.789727 0.36957,-5.79044 -1.47536,-7.635369 -2.0539,-2.053898 -1.77102,-2.858999 0.4771,-1.357888 2.36236,1.577392 3.3997,5.409221 3.3997,12.558162 0,5.848982 -0.41167,7.963526 -1.911,9.815741 L 116.178,77.5 66.838999,77.682267 C 39.366576,77.783755 16.170942,77.460197 14.50116,76.9522 Z"
       id="path12065"
       inkscape:connector-curvature="0" />
    <path
       style="fill:#dd3c3c"
       d="M 14.50116,76.9522 C 9.8379414,75.533515 9,73.542391 9,63.880299 9,57.270503 9.3826571,54.7602 10.571429,53.571429 11.435714,52.707143 12.560714,52 13.071429,52 c 0.510714,0 -0.02849,0.957066 -1.198243,2.126814 -1.813138,1.813138 -2.0454158,2.915496 -1.574907,7.474291 0.675943,6.549254 1.868927,8.926668 2.704101,5.388814 L 13.59017,64.5 H 64 114.40983 l 0.58779,2.489919 c 0.83517,3.537854 2.02816,1.16044 2.7041,-5.388814 0.47051,-4.558795 0.23823,-5.661153 -1.57491,-7.474291 -2.05683,-2.056839 -1.77624,-2.863685 0.47349,-1.361501 2.36236,1.577392 3.3997,5.409221 3.3997,12.558162 0,5.848982 -0.41167,7.963526 -1.911,9.815741 L 116.178,77.5 66.838999,77.682267 C 39.366576,77.783755 16.170942,77.460197 14.50116,76.9522 Z"
       id="path12063"
       inkscape:connector-curvature="0" />
    <path
       style="fill:#a05959"
       d="M 14.50116,76.9522 C 9.8379414,75.533515 9,73.542391 9,63.880299 9,57.270503 9.3826571,54.7602 10.571429,53.571429 11.435714,52.707143 12.560714,52 13.071429,52 13.582143,52 13.1,52.9 12,54 c -1.192195,1.192195 -1.992209,3.312682 -1.98071,5.25 0.02841,4.786679 2.389665,13.078446 3.803895,13.357728 0.674748,0.13325 0.765565,0.01352 0.201815,-0.266061 -1.132649,-0.56172 -1.363555,-4.295831 -0.418011,-6.75988 C 14.149236,64.168713 19.52415,64 64,64 c 44.47585,0 49.85076,0.168713 50.39301,1.581787 0.94555,2.464049 0.71464,6.19816 -0.41801,6.75988 -0.56375,0.279583 -0.47293,0.399311 0.20182,0.266061 C 115.59104,72.328446 117.9523,64.036679 117.98071,59.25 117.99221,57.312682 117.1922,55.192195 116,54 c -1.95379,-1.953792 -1.59178,-2.698376 0.6003,-1.234687 2.36236,1.577392 3.3997,5.409221 3.3997,12.558162 0,5.848982 -0.41167,7.963526 -1.911,9.815741 L 116.178,77.5 66.838999,77.682267 C 39.366576,77.783755 16.170942,77.460197 14.50116,76.9522 Z"
       id="path12061"
       inkscape:connector-curvature="0" />
    <path
       style="fill:#ba4a4a"
       d="M 11,75 C 9.2986667,73.298667 9,71.666667 9,64.071429 c 0,-6.78355 0.3775238,-9.306096 1.571429,-10.5 C 11.435714,52.707143 12.560714,52 13.071429,52 13.582143,52 13.1,52.9 12,54 c -1.192195,1.192195 -1.992209,3.312682 -1.98071,5.25 0.02841,4.786679 2.389665,13.078446 3.803895,13.357728 0.674748,0.13325 0.765565,0.01352 0.201815,-0.266061 -1.132649,-0.56172 -1.363555,-4.295831 -0.418011,-6.75988 C 14.149236,64.168713 19.52415,64 64,64 c 44.47585,0 49.85076,0.168713 50.39301,1.581787 0.94555,2.464049 0.71464,6.19816 -0.41801,6.75988 -0.56375,0.279583 -0.47293,0.399311 0.20182,0.266061 C 115.59104,72.328446 117.9523,64.036679 117.98071,59.25 117.99221,57.312682 117.1922,55.192195 116,54 114.04621,52.046208 114.40822,51.301624 116.6003,52.765313 118.90064,54.301294 120,58.09593 120,64.5 c 0,6.40407 -1.09936,10.198706 -3.3997,11.734687 -0.60517,0.404078 -24.1628,0.741578 -52.3503,0.75 C 14.32273,76.999605 12.948381,76.948381 11,75 Z"
       id="path12059"
       inkscape:connector-curvature="0" />
    <path
       style="fill:#d83939"
       d="M 11.188561,74.961045 C 9.2387232,73.144494 9.0133012,71.971909 9.121942,64.211045 9.2425294,55.596772 9.2533614,55.5611 10.096995,61 c 1.221004,7.871799 2.334318,11.334708 3.732525,11.60984 0.671264,0.132088 0.75923,0.01141 0.19548,-0.268173 -1.132649,-0.56172 -1.363555,-4.295831 -0.418011,-6.75988 C 14.149236,64.168713 19.52415,64 64,64 c 44.47585,0 49.85076,0.168713 50.39301,1.581787 0.94555,2.464049 0.71464,6.19816 -0.41801,6.75988 -0.56375,0.279583 -0.47293,0.399311 0.20182,0.266061 1.43754,-0.283886 3.77611,-8.601273 3.80389,-13.528987 0.0106,-1.881693 -0.54321,-4.153747 -1.23071,-5.04901 -0.6875,-0.895262 -0.2375,-0.568102 1,0.727023 3.76478,3.940085 2.97335,18.724896 -1.1497,21.477933 -0.60517,0.404078 -24.077947,0.741578 -52.161739,0.75 -50.015195,0.015 -51.106281,-0.02646 -53.25,-2.023642 z M 10,54.622445 c 0,-0.207656 0.7875,-0.995156 1.75,-1.75 C 13.336056,51.628574 13.371426,51.663944 12.127555,53.25 10.821186,54.915748 10,55.445479 10,54.622445 Z"
       id="path12057"
       inkscape:connector-curvature="0" />
    <path
       style="fill:#d43a3a"
       d="M 11.188561,74.961045 C 9.2361956,73.142139 9.0146971,71.98197 9.1361821,64.211045 9.2110822,59.41997 9.4366224,56.625 9.6373825,58 10.589428,64.520533 12.320753,71.621291 13.233765,72.75 14.018158,73.719703 25.401844,74 64,74 102.61576,74 113.97409,73.720146 114.73323,72.75 116.06577,71.047056 118,62.838232 118,58.885921 c 0,-1.775642 -0.5625,-3.960927 -1.25,-4.85619 -0.6875,-0.895262 -0.2375,-0.568102 1,0.727023 3.76478,3.940085 2.97335,18.724896 -1.1497,21.477933 -0.60517,0.404078 -24.077947,0.741578 -52.161739,0.75 -50.015195,0.015 -51.106281,-0.02646 -53.25,-2.023642 z M 14.25,72.337719 C 12.928477,71.804473 12.588767,68.235232 13.606989,65.581787 14.149236,64.168713 19.52415,64 64,64 c 44.47585,0 49.85076,0.168713 50.39301,1.581787 1.10498,2.879521 0.63044,6.195236 -0.9748,6.811224 -1.88946,0.725056 -97.366232,0.671822 -99.16821,-0.05529 z M 10,54.622445 c 0,-0.207656 0.7875,-0.995156 1.75,-1.75 C 13.336056,51.628574 13.371426,51.663944 12.127555,53.25 10.821186,54.915748 10,55.445479 10,54.622445 Z"
       id="path12055"
       inkscape:connector-curvature="0" />
    <path
       style="fill:#e03232"
       d="M 11.188561,74.961045 C 9.2380318,73.14385 9.0136858,71.974661 9.1258331,64.211045 L 9.2516662,55.5 10.375833,63.119253 c 0.618292,4.190589 1.741767,8.353089 2.496612,9.25 C 14.107413,73.83665 19.225544,74 63.967457,74 110.0557,74 113.80513,73.872089 115.2648,72.25 c 2.2675,-2.519811 3.44872,-15.723802 1.61694,-18.074696 -0.75996,-0.975327 -0.36924,-0.713675 0.86826,0.58145 3.76478,3.940085 2.97335,18.724896 -1.1497,21.477933 -0.60517,0.404078 -24.077947,0.741578 -52.161739,0.75 -50.015195,0.015 -51.106281,-0.02646 -53.25,-2.023642 z M 14.25,72.337719 C 12.928477,71.804473 12.588767,68.235232 13.606989,65.581787 14.149236,64.168713 19.52415,64 64,64 c 44.47585,0 49.85076,0.168713 50.39301,1.581787 1.10498,2.879521 0.63044,6.195236 -0.9748,6.811224 -1.88946,0.725056 -97.366232,0.671822 -99.16821,-0.05529 z M 10,54.622445 c 0,-0.207656 0.7875,-0.995156 1.75,-1.75 C 13.336056,51.628574 13.371426,51.663944 12.127555,53.25 10.821186,54.915748 10,55.445479 10,54.622445 Z"
       id="path12053"
       inkscape:connector-curvature="0" />
    <path
       style="fill:#b94444"
       d="M 11.188561,74.961045 C 9.2380318,73.14385 9.0136858,71.974661 9.1258331,64.211045 L 9.2516662,55.5 10.375833,63.119253 c 0.618292,4.190589 1.741767,8.353089 2.496612,9.25 C 14.107413,73.83665 19.225544,74 63.967457,74 110.0557,74 113.80513,73.872089 115.2648,72.25 c 2.2675,-2.519811 3.44872,-15.723802 1.61694,-18.074696 -0.75996,-0.975327 -0.36924,-0.713675 0.86826,0.58145 3.76478,3.940085 2.97335,18.724896 -1.1497,21.477933 -0.60517,0.404078 -24.077947,0.741578 -52.161739,0.75 -50.015195,0.015 -51.106281,-0.02646 -53.25,-2.023642 z m 2.148595,-4.524815 c -0.330041,-0.860073 -0.100566,-2.660073 0.509946,-4 L 14.957122,64 H 64 113.04288 l 1.11002,2.43623 C 116.7815,72.205391 118.63294,72 64,72 19.514902,72 13.870374,71.825775 13.337156,70.43623 Z M 10,54.622445 c 0,-0.207656 0.7875,-0.995156 1.75,-1.75 C 13.336056,51.628574 13.371426,51.663944 12.127555,53.25 10.821186,54.915748 10,55.445479 10,54.622445 Z"
       id="path12051"
       inkscape:connector-curvature="0" />
    <path
       style="fill:#d23535"
       d="M 11.174314,74.685549 C 9.4869279,72.889409 9.0034292,71.153831 9.0153128,66.935549 9.0262385,63.057251 9.3083454,61.929741 10,63 c 0.533156,0.825 0.976265,2.892756 0.984687,4.595012 C 11.017376,74.202068 9.3393411,74 64.173753,74 c 57.942367,0 52.817937,1.145762 53.131347,-11.87954 0.16211,-6.73765 0.40518,-7.817511 1.4449,-6.419251 0.71576,0.962584 1.25,4.619199 1.25,8.555662 0,6.623728 -1.08005,10.428939 -3.3997,11.977816 -0.60517,0.404078 -24.084359,0.741578 -52.175986,0.75 L 13.348628,77 Z m 2.162842,-4.249319 c -0.330041,-0.860073 -0.100566,-2.660073 0.509946,-4 L 14.957122,64 H 64 113.04288 l 1.11002,2.43623 C 116.7815,72.205391 118.63294,72 64,72 19.514902,72 13.870374,71.825775 13.337156,70.43623 Z"
       id="path12049"
       inkscape:connector-curvature="0" />
    <path
       style="fill:#b44141"
       d="M 11.174314,74.685549 C 9.4869279,72.889409 9.0034292,71.153831 9.0153128,66.935549 9.0262385,63.057251 9.3083454,61.929741 10,63 c 0.533156,0.825 0.976265,3.0975 0.984687,5.05 0.0084,1.9525 0.555313,4.09 1.215313,4.75 1.887642,1.887642 102.12894,1.713499 103.70054,-0.180153 0.62998,-0.759084 1.24758,-5.25405 1.37244,-9.988814 0.18852,-7.148604 0.43902,-8.323737 1.47702,-6.928718 0.71587,0.962095 1.25,4.617503 1.25,8.554556 0,6.623728 -1.08005,10.428939 -3.3997,11.977816 -0.60517,0.404078 -24.084359,0.741578 -52.175986,0.75 L 13.348628,77 Z m 2.162842,-4.249319 c -0.330041,-0.860073 -0.100566,-2.660073 0.509946,-4 L 14.957122,64 H 64 113.04288 l 1.11002,2.43623 C 116.7815,72.205391 118.63294,72 64,72 19.514902,72 13.870374,71.825775 13.337156,70.43623 Z"
       id="path12047"
       inkscape:connector-curvature="0" />
    <path
       style="fill:#e02a2a"
       d="M 11.634859,74.92742 C 9.4177462,73.183439 9,72.06426 9,67.868403 9,64.798756 9.3844007,63.119539 10,63.5 c 0.55,0.339919 1,2.301476 1,4.359017 0,2.057541 0.54,4.280983 1.2,4.940983 1.774716,1.774716 102.12459,1.726274 103.57768,-0.05 0.56241,-0.6875 1.34483,-4.731717 1.73872,-8.98715 0.87648,-9.469107 2.4836,-9.234919 2.4836,0.361908 0,6.743183 -1.06992,10.55429 -3.3997,12.109929 -0.60517,0.404078 -23.877114,0.741578 -51.715441,0.75 -49.703545,0.01504 -50.662596,-0.02201 -53.25,-2.057267 z m 1.702297,-4.49119 c -0.330041,-0.860073 -0.100566,-2.660073 0.509946,-4 L 14.957122,64 H 64 113.04288 l 1.11002,2.43623 C 116.7815,72.205391 118.63294,72 64,72 19.514902,72 13.870374,71.825775 13.337156,70.43623 Z"
       id="path12045"
       inkscape:connector-curvature="0" />
    <path
       style="fill:#c53636"
       d="M 11.634859,74.92742 C 9.4177462,73.183439 9,72.06426 9,67.868403 9,64.798756 9.3844007,63.119539 10,63.5 c 0.55,0.339919 1,2.301476 1,4.359017 0,2.057541 0.54,4.280983 1.2,4.940983 1.774716,1.774716 102.12459,1.726274 103.57768,-0.05 0.56241,-0.6875 1.34483,-4.731717 1.73872,-8.98715 0.87648,-9.469107 2.4836,-9.234919 2.4836,0.361908 0,6.743183 -1.06992,10.55429 -3.3997,12.109929 -0.60517,0.404078 -23.877114,0.741578 -51.715441,0.75 -49.703545,0.01504 -50.662596,-0.02201 -53.25,-2.057267 z m 2.758297,-4.345255 c -0.303225,-0.790192 -0.403232,-2.48194 -0.222237,-3.759439 L 14.5,64.5 H 64 113.5 v 3.5 3.5 l -49.277763,0.259439 c -42.08333,0.221562 -49.358253,0.04968 -49.829081,-1.177274 z"
       id="path12043"
       inkscape:connector-curvature="0" />
    <path
       style="fill:#a34545"
       d="m 11.490931,74.745858 c -2.291412,-1.97099 -2.5783746,-2.881691 -2.2844789,-7.25 L 9.5425687,62.5 l 0.7825053,4 c 1.487733,7.604965 -3.1707531,6.971752 53.403815,7.259011 42.059741,0.21356 51.209601,0.02003 52.141501,-1.102842 0.62163,-0.749019 1.41998,-4.78953 1.77412,-8.978913 C 118.43787,54.291761 120,54.588538 120,64.124758 c 0,6.743183 -1.06992,10.55429 -3.3997,12.109929 -0.60517,0.404078 -23.912706,0.741578 -51.794536,0.75 L 14.111527,77 Z m 2.902225,-4.163693 c -0.303225,-0.790192 -0.403232,-2.48194 -0.222237,-3.759439 L 14.5,64.5 H 64 113.5 v 3.5 3.5 l -49.277763,0.259439 c -42.08333,0.221562 -49.358253,0.04968 -49.829081,-1.177274 z"
       id="path12041"
       inkscape:connector-curvature="0" />
    <path
       style="fill:#b13a3a"
       d="m 11.490931,74.745858 c -2.291412,-1.97099 -2.5783746,-2.881691 -2.2844789,-7.25 L 9.5425687,62.5 l 0.7825053,4 c 1.487733,7.604965 -3.1707531,6.971752 53.403815,7.259011 41.231981,0.209357 51.220921,0.0064 52.104911,-1.058752 0.60151,-0.72477 1.47215,-4.891325 1.93477,-9.259012 L 118.6097,55.5 l 0.78686,6.194201 c 0.43277,3.406811 0.48496,7.568752 0.11597,9.248758 C 118.14865,77.152665 119.53941,77 64.333257,77 h -50.22173 z m 2.902225,-4.163693 c -0.303225,-0.790192 -0.403232,-2.48194 -0.222237,-3.759439 L 14.5,64.5 H 64 113.5 v 3.5 3.5 l -49.277763,0.259439 c -42.08333,0.221562 -49.358253,0.04968 -49.829081,-1.177274 z"
       id="path12039"
       inkscape:connector-curvature="0" />
    <path
       style="fill:#df2121"
       d="M 11.454545,74.545455 C 9.6029469,72.693856 9.0037615,71.035752 9.0153128,67.795455 9.026513,64.653632 9.2909708,63.902856 10,65 c 0.533156,0.825 0.976265,2.6475 0.984687,4.05 0.0084,1.4025 0.555313,3.09 1.215313,3.75 1.774858,1.774858 102.13555,1.726399 103.55141,-0.05 0.54797,-0.6875 1.30564,-3.3875 1.68372,-6 0.99309,-6.862201 2.92504,-6.106685 2.34265,0.916129 C 118.95205,77.623339 122.65407,77 64.343761,77 h -50.43467 z m 2.938611,-3.96329 c -0.303225,-0.790192 -0.403232,-2.48194 -0.222237,-3.759439 L 14.5,64.5 H 64 113.5 v 3.5 3.5 l -49.277763,0.259439 c -42.08333,0.221562 -49.358253,0.04968 -49.829081,-1.177274 z"
       id="path12037"
       inkscape:connector-curvature="0" />
    <path
       style="fill:#c42c2c"
       d="M 11.454545,74.545455 C 9.6029469,72.693856 9.0037615,71.035752 9.0153128,67.795455 9.026513,64.653632 9.2909708,63.902856 10,65 c 0.533156,0.825 0.976265,2.6475 0.984687,4.05 0.0084,1.4025 0.555313,3.09 1.215313,3.75 1.774858,1.774858 102.13555,1.726399 103.55141,-0.05 0.54797,-0.6875 1.30564,-3.3875 1.68372,-6 0.99309,-6.862201 2.92504,-6.106685 2.34265,0.916129 C 118.95205,77.623339 122.65407,77 64.343761,77 H 13.909091 Z M 15.25,71.337719 C 14.5625,71.060307 14,69.520833 14,67.916667 V 65 h 50 50 v 2.893011 c 0,1.715557 -0.64379,3.140056 -1.58179,3.5 C 110.52883,72.118033 17.052,72.064842 15.25,71.337719 Z"
       id="path12035"
       inkscape:connector-curvature="0" />
    <path
       style="fill:#a23c3c"
       d="m 11.454545,74.545455 c -1.9005415,-1.900542 -2.4277325,-3.424052 -2.3357507,-6.75 L 9.2375886,63.5 10.40068,68.397242 c 0.870634,3.665837 1.761061,5.118445 3.54119,5.776958 1.307954,0.483843 24.597722,0.755084 51.755039,0.602758 55.255891,-0.309933 50.773661,0.383088 51.915721,-8.026958 0.92341,-6.799968 2.74124,-6.030799 2.16515,0.916129 C 118.95205,77.623339 122.65407,77 64.343761,77 H 13.909091 Z M 15.25,71.337719 C 14.5625,71.060307 14,69.520833 14,67.916667 V 65 h 50 50 v 2.893011 c 0,1.715557 -0.64379,3.140056 -1.58179,3.5 C 110.52883,72.118033 17.052,72.064842 15.25,71.337719 Z"
       id="path12033"
       inkscape:connector-curvature="0" />
    <path
       style="fill:#b43333"
       d="M 13.315372,76.007032 C 10.371969,74.80223 8.9757443,71.910589 9.1187943,67.315741 L 9.2375886,63.5 10.40068,68.397242 c 0.870634,3.665837 1.761061,5.118445 3.54119,5.776958 2.887426,1.068128 100.57541,0.643426 101.65989,-0.44197 0.42191,-0.422274 1.3214,-3.347274 1.99887,-6.5 l 1.23175,-5.73223 0.0838,5.55887 c 0.154,10.214278 4.57153,9.41193 -53.085094,9.641756 -27.821588,0.1109 -51.308124,-0.199295 -52.515724,-0.693594 z M 15.25,71.337719 C 14.5625,71.060307 14,69.520833 14,67.916667 V 65 h 50 50 v 2.893011 c 0,1.715557 -0.64379,3.140056 -1.58179,3.5 C 110.52883,72.118033 17.052,72.064842 15.25,71.337719 Z"
       id="path12031"
       inkscape:connector-curvature="0" />
    <path
       style="fill:#de1c1c"
       d="M 13.235455,75.977469 C 10.849141,75.004014 8.9896256,71.35007 9.0153128,67.6849 9.0277689,65.907605 9.2114674,65.779833 10,67 c 0.533156,0.825 0.976265,2.523638 0.984687,3.774751 0.0103,1.529869 0.878524,2.602943 2.651423,3.276998 2.934167,1.115568 100.74011,0.907118 101.86323,-0.217098 0.36558,-0.365941 1.26255,-2.840941 1.99326,-5.5 L 118.82117,63.5 l 0.0894,4.55887 c 0.17738,9.043238 4.0419,8.414063 -53.079484,8.641756 C 36.829244,76.81623 14.540334,76.509772 13.235455,75.977469 Z M 15.25,71.337719 C 14.5625,71.060307 14,69.520833 14,67.916667 V 65 h 50 50 v 2.893011 c 0,1.715557 -0.64379,3.140056 -1.58179,3.5 C 110.52883,72.118033 17.052,72.064842 15.25,71.337719 Z"
       id="path12029"
       inkscape:connector-curvature="0" />
    <path
       style="fill:#be2929"
       d="M 13.235455,75.977469 C 10.849141,75.004014 8.9896256,71.35007 9.0153128,67.6849 9.0277689,65.907605 9.2114674,65.779833 10,67 c 0.533156,0.825 0.976265,2.523638 0.984687,3.774751 0.0103,1.529869 0.878524,2.602943 2.651423,3.276998 2.934167,1.115568 100.74011,0.907118 101.86323,-0.217098 0.36558,-0.365941 1.26255,-2.840941 1.99326,-5.5 L 118.82117,63.5 l 0.0894,4.55887 c 0.17738,9.043238 4.0419,8.414063 -53.079484,8.641756 C 36.829244,76.81623 14.540334,76.509772 13.235455,75.977469 Z m 1.129794,-6.46803 c -0.318575,-0.830191 -0.318575,-2.188687 0,-3.018878 0.507516,-1.322566 6.679968,-1.47732 49.856988,-1.25 L 113.5,65.5 v 2.5 2.5 l -49.277763,0.259439 c -43.17702,0.22732 -49.349472,0.07257 -49.856988,-1.25 z"
       id="path12027"
       inkscape:connector-curvature="0" />
    <path
       style="fill:#b42c2c"
       d="M 13.235455,75.977469 C 10.812652,74.989129 8.9430677,71.249041 9.0901883,67.6849 9.1518695,66.190612 9.4878966,66.606294 10.153282,69 c 0.535099,1.925 1.705522,4.0625 2.600942,4.75 2.362634,1.814022 100.095116,1.814022 102.566456,0 0.93662,-0.6875 2.09832,-3.275 2.58157,-5.75 l 0.87862,-4.5 0.10956,4.55887 c 0.2173,9.041457 4.06961,8.414033 -53.059334,8.641756 C 36.829244,76.81623 14.540334,76.509772 13.235455,75.977469 Z m 1.129794,-6.46803 c -0.318575,-0.830191 -0.318575,-2.188687 0,-3.018878 0.507516,-1.322566 6.679968,-1.47732 49.856988,-1.25 L 113.5,65.5 v 2.5 2.5 l -49.277763,0.259439 c -43.17702,0.22732 -49.349472,0.07257 -49.856988,-1.25 z"
       id="path12025"
       inkscape:connector-curvature="0" />
    <path
       style="fill:#a23131"
       d="M 13.272002,75.803684 C 11.033601,74.708919 9.3052507,71.361416 10.408694,70.257973 10.733912,69.932754 11,70.400834 11,71.29815 c 0,0.897315 0.870416,2.097315 1.934259,2.666666 3.013853,1.612966 100.184211,1.409026 102.352871,-0.214816 0.91816,-0.6875 2.08396,-3.05 2.59067,-5.25 l 0.9213,-4 0.10045,4.05887 c 0.0553,2.232379 -0.53806,4.932379 -1.31845,6 -1.36863,1.872351 -3.20226,1.948099 -51.750004,2.137811 -34.665251,0.135462 -51.024573,-0.142488 -52.559094,-0.892997 z m 1.093247,-6.294245 c -0.318575,-0.830191 -0.318575,-2.188687 0,-3.018878 0.507516,-1.322566 6.679968,-1.47732 49.856988,-1.25 L 113.5,65.5 v 2.5 2.5 l -49.277763,0.259439 c -43.17702,0.22732 -49.349472,0.07257 -49.856988,-1.25 z"
       id="path12023"
       inkscape:connector-curvature="0" />
    <path
       style="fill:#dd1212"
       d="m 11.571429,74.428571 c -0.864286,-0.864285 -1.535903,-2.326785 -1.492482,-3.25 C 10.143192,69.812615 10.257735,69.779358 10.693981,71 12.107687,74.955629 12.698999,75 64,75 c 38.13719,0 50.004,-0.289225 51.28713,-1.25 0.91816,-0.6875 2.08396,-3.05 2.59067,-5.25 l 0.9213,-4 0.10045,4.095012 C 119.0905,76.379284 121.89002,76 64.242688,76 19.12163,76 12.958997,75.81614 11.571429,74.428571 Z m 2.79382,-4.919132 c -0.318575,-0.830191 -0.318575,-2.188687 0,-3.018878 0.507516,-1.322566 6.679968,-1.47732 49.856988,-1.25 L 113.5,65.5 v 2.5 2.5 l -49.277763,0.259439 c -43.17702,0.22732 -49.349472,0.07257 -49.856988,-1.25 z"
       id="path12021"
       inkscape:connector-curvature="0" />
    <path
       style="fill:#bb2222"
       d="m 11.571429,74.428571 c -0.864286,-0.864285 -1.535903,-2.326785 -1.492482,-3.25 C 10.143192,69.812615 10.257735,69.779358 10.693981,71 12.107687,74.955629 12.698999,75 64,75 c 38.13719,0 50.004,-0.289225 51.28713,-1.25 0.91816,-0.6875 2.08396,-3.05 2.59067,-5.25 l 0.9213,-4 0.10045,4.095012 C 119.0905,76.379284 121.89002,76 64.242688,76 19.12163,76 12.958997,75.81614 11.571429,74.428571 Z M 15.183578,68.25 15.5,65.5 H 64 112.5 l 0.31642,2.75 0.31642,2.75 H 64 14.867155 Z"
       id="path12019"
       inkscape:connector-curvature="0" />
    <path
       style="fill:#aa2525"
       d="m 12.344384,75.234687 c -0.635588,-0.404078 22.040803,-0.610264 50.391981,-0.45819 57.534725,0.308611 54.771375,0.6386 55.541495,-6.632578 L 118.66379,64.5 l 0.16811,4.095012 c 0.31942,7.781095 3.07418,7.406962 -54.410641,7.389675 -28.006692,-0.0084 -51.441286,-0.345922 -52.076875,-0.75 z M 15.183578,68.25 15.5,65.5 H 64 112.5 l 0.31642,2.75 0.31642,2.75 H 64 14.867155 Z"
       id="path12017"
       inkscape:connector-curvature="0" />
    <path
       style="fill:#b02121"
       d="m 12.344384,75.234687 c -0.635588,-0.404078 22.040803,-0.610264 50.391981,-0.45819 47.127125,0.252785 51.706935,0.1323 53.405615,-1.404988 C 117.17879,72.43321 118,72.184957 118,72.809829 c 0,0.615892 -0.87042,1.585636 -1.93426,2.154987 -2.2373,1.197367 -101.854771,1.45656 -103.721356,0.269871 z M 15.183578,68.25 15.5,65.5 H 64 112.5 l 0.31642,2.75 0.31642,2.75 H 64 14.867155 Z"
       id="path12015"
       inkscape:connector-curvature="0" />
    <path
       style="fill:#dc0a0a"
       d="M 115.40499,74.145509 C 117.52132,71.761969 118,71.544177 118,72.964816 c 0,0.530649 -1.0125,1.496128 -2.25,2.145509 -2.23794,1.174363 -2.23979,1.169191 -0.34501,-0.964816 z M 15.183578,68.25 15.5,65.5 H 64 112.5 l 0.31642,2.75 0.31642,2.75 H 64 14.867155 Z"
       id="path12013"
       inkscape:connector-curvature="0" />
    <path
       style="fill:#b31d1d"
       d="M 115.40499,74.145509 C 117.52132,71.761969 118,71.544177 118,72.964816 c 0,0.530649 -1.0125,1.496128 -2.25,2.145509 -2.23794,1.174363 -2.23979,1.169191 -0.34501,-0.964816 z M 15.676164,70.34283 C 15.304274,69.97094 15,68.841667 15,67.833333 15,66.080464 17.153623,66 64.069551,66 H 113.1391 L 112.81955,68.25 112.5,70.5 64.426164,70.759497 c -26.44061,0.142723 -48.37811,-0.04478 -48.75,-0.416667 z"
       id="path12011"
       inkscape:connector-curvature="0" />
    <path
       style="fill:#dc0808"
       d="M 15.676164,70.34283 C 15.304274,69.97094 15,68.841667 15,67.833333 15,66.080464 17.153623,66 64.069551,66 H 113.1391 L 112.81955,68.25 112.5,70.5 64.426164,70.759497 c -26.44061,0.142723 -48.37811,-0.04478 -48.75,-0.416667 z"
       id="path12009"
       inkscape:connector-curvature="0" />
    <path
       style="fill:#aa1e1e"
       d="m 15,68 c 0,-1.972789 0.666667,-2 49,-2 48.33333,0 49,0.02721 49,2 0,1.972789 -0.66667,2 -49,2 -48.333333,0 -49,-0.02721 -49,-2 z"
       id="path12007"
       inkscape:connector-curvature="0" />
    <path
       style="fill:#db0000"
       d="m 15,68 c 0,-1.972789 0.666667,-2 49,-2 48.33333,0 49,0.02721 49,2 0,1.972789 -0.66667,2 -49,2 -48.333333,0 -49,-0.02721 -49,-2 z"
       id="path12005"
       inkscape:connector-curvature="0" />
  </g>
</svg>
