<?xml version="1.0" encoding="UTF-8"?>
<!-- Created with Inkscape (http://www.inkscape.org/) -->
<svg width="128" height="128" version="1.1" viewBox="0 0 128 128" xmlns="http://www.w3.org/2000/svg" xmlns:cc="http://creativecommons.org/ns#" xmlns:dc="http://purl.org/dc/elements/1.1/" xmlns:rdf="http://www.w3.org/1999/02/22-rdf-syntax-ns#">
 <metadata>
  <rdf:RDF>
   <cc:Work rdf:about="">
    <dc:format>image/svg+xml</dc:format>
    <dc:type rdf:resource="http://purl.org/dc/dcmitype/StillImage"/>
    <dc:title/>
   </cc:Work>
  </rdf:RDF>
 </metadata>
 <path d="m16.77 83.705c-1.5017-0.66269-4.5392-2.9303-6.75-5.0392l-4.0196-3.8343 0.031803-10.666c0.034379-11.529 0.67815-13.344 5.3648-15.126 3.5492-1.3494 101.45-1.4288 104.98-0.08515 1.3803 0.52479 4.0974 2.6623 6.038 4.75l3.5284 3.7958 0.0271 10.576c0.0248 9.6948-0.16035 10.751-2.2229 12.683-1.2375 1.1592-3.5168 2.5877-5.0651 3.1743-4.188 1.5868-98.28 1.3758-101.92-0.22849z" fill="#fcf9f9"/>
 <path d="m16.5 83.612c-1.65-0.72015-4.6875-3.1788-6.75-5.4637l-3.75-4.1544v-9.7746c0-11.283 1.0247-13.577 6.7795-15.175 4.8989-1.3606 97.446-1.4139 102.17-0.05888 1.89 0.54206 5.1496 2.6584 7.2434 4.7029l3.807 3.7174v10.623c0 9.725-0.19015 10.801-2.25 12.73-1.2375 1.1592-3.5168 2.5877-5.0651 3.1743-4.4177 1.6738-98.29 1.3789-102.18-0.32103z" fill="#fafafa"/>
 <path d="m16.5 83.057c-1.1-0.46413-3.9125-2.6227-6.25-4.7969l-4.25-3.953v-9.9311c0-11.453 1.0062-13.728 6.7795-15.332 5.0547-1.4038 97.401-1.3996 102.46 0.0047 2.6128 0.72564 4.7944 2.4222 7.25 5.6382 3.405 4.4593 3.5126 4.8711 3.5126 13.441 0 8.3541-0.16048 9.0201-2.9174 12.106l-2.9174 3.2657-50.833 0.2005c-27.958 0.11028-51.733-0.17924-52.833-0.64337z" fill="#faf5f5"/>
 <path d="m17.13 82.924c-3.1239-1.2506-8.3212-5.6315-9.8444-8.2981-0.67449-1.1808-1.2303-5.8168-1.25-10.426-0.036932-8.6502 1.4316-13.398 4.5094-14.579 0.89032-0.34165 25.121-0.62118 53.846-0.62118 40.24 0 52.604 0.2869 53.868 1.25 0.90243 0.6875 3.0134 2.9994 4.6911 5.1375 2.8651 3.6515 3.0504 4.4121 3.0504 12.527 0 6.3693-0.42857 9.2519-1.6307 10.968-3.5113 5.0131-4.7264 5.1216-56.587 5.0535-27.957-0.0367-49.28-0.46282-50.652-1.0122z" fill="#f9f1f1"/>
 <path d="m16.5 82.579c-1.65-0.73865-4.575-2.996-6.5-5.0164l-3.5-3.6734v-10.031c0-9.7512 0.078281-10.098 2.8058-12.444l2.8058-2.4134h104.17l4.8572 4.8571 4.8571 4.8571v8.9204c0 10.113-1.1352 12.688-6.5986 14.971-4.8038 2.0072-98.412 1.9827-102.9-0.026909z" fill="#f1f1f1"/>
 <path d="m12.138 79.015c-5.8053-4.5888-6.5915-6.9816-5.9609-18.142 0.35475-6.2782 0.72705-7.3938 3.1683-9.4936l2.7663-2.3794h104.2l3.9131 4.1135c2.1522 2.2624 4.3325 5.2167 4.8452 6.5651 1.4425 3.7941 1.1084 14.08-0.56219 17.31-3.228 6.2422-1.05 6.011-56.638 6.011h-50.688z" fill="#f2eaea"/>
 <path d="m16.5 81.995c-1.1-0.48284-3.8-2.4336-6-4.3351l-4-3.4572v-10.188c0-9.9233 0.072932-10.251 2.8058-12.602l2.8058-2.4134h104.15l3.5131 3.725c4.5593 4.8343 6.2234 8.9783 6.2215 15.493-2e-3 6.2207-2.4492 11.73-5.9984 13.503-2.9692 1.4836-100.16 1.7409-103.5 0.27398z" fill="#e9e9e9"/>
 <path d="m16.5 81.564c-1.65-0.74655-4.575-2.7046-6.5-4.3513l-3.5-2.9939v-10.196c0-9.9321 0.072662-10.259 2.8058-12.61l2.8058-2.4134h51.362c28.249 0 52.097 0.28191 52.995 0.62647 0.8979 0.34456 3.1847 2.6593 5.0818 5.1438 3.3196 4.3475 3.4492 4.8432 3.4492 13.185 0 9.3964-1.253 12.05-6.6611 14.106-1.42 0.5399-22.941 0.92211-50.654 0.8996-38.375-0.031173-48.796-0.31549-51.185-1.3965z" fill="#f3e3e3"/>
 <path d="m16.5 81.607c-1.65-0.72306-4.4625-2.686-6.25-4.3621-3.2255-3.0245-3.25-3.1191-3.25-12.564 0-5.2344 0.27953-10.245 0.62118-11.136 1.6885-4.4002 3.5271-4.5467 56.579-4.5094 37.544 0.02645 50.849 0.34343 52.467 1.25 1.1918 0.66801 3.5543 2.9639 5.25 5.1021 2.9084 3.6672 3.0831 4.3791 3.0831 12.561 0 9.4033-1.252 12.056-6.6611 14.112-1.42 0.5399-22.941 0.92211-50.654 0.8996-37.555-0.030506-48.847-0.32918-51.185-1.3538z" fill="#e5e5e5"/>
 <path d="m19.039 82.267c-3.1407-0.58834-10.606-5.697-11.419-7.8136-0.80667-2.1021-0.80598-18.806 8.607e-4 -20.908 1.6885-4.4002 3.5271-4.5467 56.579-4.5094 38.899 0.0274 50.821 0.32503 52.602 1.3131 1.2662 0.70274 3.6268 3.2743 5.2457 5.7146 2.6104 3.9347 2.944 5.2986 2.9478 12.052 5e-3 8.9459-1.8183 12.186-7.7912 13.845-3.6435 1.0119-92.912 1.2908-98.166 0.30662z" fill="#e2e2e2"/>
 <path d="m13.5 79.483c-2.2-1.3501-4.5625-3.222-5.25-4.1599-1.305-1.7803-1.7947-18.74-0.62882-21.778 1.6859-4.3933 3.5621-4.5448 56.282-4.5448 35.379 0 50.736 0.33432 52.511 1.1431 1.3799 0.62872 3.7488 2.9912 5.2641 5.25 5.1564 7.6859 4.2192 22.45-1.6235 25.577-1.2487 0.66829-19.582 1.0187-52.24 0.99843l-50.316-0.031209z" fill="#f0dada"/>
 <path d="m13.482 79.313c-6.1114-4.1243-6.4185-4.8569-6.4185-15.313 0-10.296 0.73144-12.211 5.333-13.961 3.8003-1.4449 99.215-1.4194 103.37 0.02763 1.7686 0.61652 4.2451 2.8329 5.8663 5.25 5.2063 7.7623 4.302 22.509-1.5731 25.653-1.2464 0.66707-19.648 1.0296-52.258 1.0296h-50.334z" fill="#efd8d8"/>
 <path d="m14.973 80.347c-7.5424-5.0436-7.9725-5.9262-7.9725-16.359 0-9.0676 0.15282-9.7822 2.5799-12.063l2.5799-2.4243 50.67-0.24976c38.987-0.19217 51.224 0.03841 53.072 1 1.3213 0.68737 3.7892 2.9703 5.4843 5.0731 2.6874 3.3339 3.1289 4.7552 3.4495 11.103 0.39744 7.8703-1.1592 12.606-4.7807 14.544-1.2464 0.66708-19.651 1.0296-52.267 1.0296-45.161 0-50.598-0.17018-52.816-1.6534z" fill="#dbdbdb"/>
 <path d="m15.5 80.341c-1.65-0.86832-4.2375-2.7345-5.75-4.1471-2.6322-2.4582-2.75-2.9813-2.75-12.207 0-9.0676 0.15282-9.7822 2.5799-12.063l2.5799-2.4243 50.67-0.24976c39.16-0.19302 51.229 0.03617 53.129 1.009 10.048 5.1438 12.123 25.925 3.0412 30.462-1.8992 0.94897-14.276 1.2431-51.5 1.2239-42.676-0.02203-49.387-0.22906-52-1.6041z" fill="#edd2d2"/>
 <path d="m14.84 79.978c-6.5709-3.4713-7.8402-6.0709-7.8402-16.057 0-7.8707 0.25717-9.1084 2.4134-11.615l2.4134-2.8058h104.4l3.3842 3.9149c7.3821 8.5398 7.0468 23.479-0.61289 27.306-1.8996 0.94915-14.269 1.2421-51.5 1.2197-46.477-0.027938-49.188-0.12899-52.66-1.9629z" fill="#ebcece"/>
 <path d="m13.767 79.067c-2.5436-1.6131-5.1067-3.8335-5.6958-4.9343s-1.0711-5.8764-1.0711-10.613c0-7.8094 0.22854-8.8397 2.4545-11.066l2.4545-2.4545h104.35l3.3294 3.5302c7.396 7.8421 7.0573 23.368-0.59326 27.191-1.8959 0.94731-14.354 1.2527-51.554 1.2639l-49.054 0.014742z" fill="#f5c8c8"/>
 <path d="m13.767 79.067c-2.5436-1.6131-5.1067-3.8335-5.6958-4.9343s-1.0711-5.8764-1.0711-10.613c0-7.8094 0.22854-8.8397 2.4545-11.066l2.4545-2.4545h104.35l3.3294 3.5302c7.396 7.8421 7.0573 23.368-0.59326 27.191-1.8959 0.94731-14.354 1.2527-51.554 1.2639l-49.054 0.014742z" fill="#d6d6d6"/>
 <path d="m17.306 80.896c-1.7565-0.50809-4.794-2.4331-6.75-4.2779l-3.5564-3.3541v-9.1774c0-8.4105 0.20509-9.3825 2.4545-11.632l2.4545-2.4545h51.823c57.75 0 54.497-0.39225 58.281 7.0262 1.4464 2.8351 1.9866 5.884 1.9866 11.211 0 8.6307-1.3792 11.218-6.7795 12.718-4.6872 1.3017-95.395 1.2475-99.914-0.05973z" fill="#f5c6c6"/>
 <path d="m17.306 80.896c-1.7565-0.50809-4.794-2.4331-6.75-4.2779l-3.5564-3.3541v-9.1774c0-8.4105 0.20509-9.3825 2.4545-11.632l2.4545-2.4545h51.823c57.75 0 54.497-0.39225 58.281 7.0262 1.4464 2.8351 1.9866 5.884 1.9866 11.211 0 8.6307-1.3792 11.218-6.7795 12.718-4.6872 1.3017-95.395 1.2475-99.914-0.05973zm97.694-25.146c0-0.4125-22.95-0.75-51-0.75s-51 0.3375-51 0.75 22.95 0.75 51 0.75 51-0.3375 51-0.75z" fill="#d1d1d1"/>
 <path d="m13.812 78.964c-5.8647-3.0976-6.8124-5.2165-6.8124-15.232 0-8.0342 0.21942-9.0424 2.4545-11.277l2.4545-2.4545h51.823c57.899 0 54.481-0.42303 58.383 7.2248 1.7046 3.3412 2.0188 5.4603 1.7117 11.542-0.33706 6.6748-0.66531 7.698-3.157 9.8413l-2.7809 2.392-50.194-0.044196c-47.769-0.04206-50.372-0.13831-53.882-1.9919zm101.19-23.214c0-0.4125-22.95-0.75-51-0.75s-51 0.3375-51 0.75 22.95 0.75 51 0.75 51-0.3375 51-0.75z" fill="#f4baba"/>
 <path d="m13.812 78.964c-5.8647-3.0976-6.8124-5.2165-6.8124-15.232 0-8.0342 0.21942-9.0424 2.4545-11.277l2.4545-2.4545h51.823c57.899 0 54.481-0.42303 58.383 7.2248 1.7046 3.3412 2.0188 5.4603 1.7117 11.542-0.33706 6.6748-0.66531 7.698-3.157 9.8413l-2.7809 2.392-50.194-0.044196c-47.769-0.04206-50.372-0.13831-53.882-1.9919zm50.188-22.964c36.467 0 48.9 0.29959 49.8 1.2 0.93333 0.93333 1.2 0.82222 1.2-0.5 0-1.5778-3.6667-1.7-51-1.7-47.333 0-51 0.12222-51 1.7 0 1.3222 0.26667 1.4333 1.2 0.5 0.90041-0.90041 13.333-1.2 49.8-1.2z" fill="#d2c9c9"/>
 <path d="m13.812 78.964c-5.8647-3.0976-6.8124-5.2165-6.8124-15.232 0-8.0342 0.21942-9.0424 2.4545-11.277l2.4545-2.4545h51.823c57.991 0 54.402-0.4551 58.323 7.3958 1.804 3.6121 2.1126 5.631 1.7748 11.609-0.36211 6.4085-0.7254 7.5087-3.1752 9.6159l-2.7663 2.3794-50.194-0.044196c-47.769-0.04206-50.372-0.13831-53.882-1.9919zm50.188-22.964c36.467 0 48.9 0.29959 49.8 1.2 0.93333 0.93333 1.2 0.82222 1.2-0.5 0-1.5778-3.6667-1.7-51-1.7-47.333 0-51 0.12222-51 1.7 0 1.3222 0.26667 1.4333 1.2 0.5 0.90041-0.90041 13.333-1.2 49.8-1.2z" fill="#cacaca"/>
 <path d="m14.382 79.086c-6.3081-2.8646-7.3825-5.0992-7.3825-15.354 0-8.0342 0.21942-9.0424 2.4545-11.277l2.4545-2.4545h51.911c59.213 0 55.122-0.62652 58.572 8.9698 2.75 7.6476 1.7818 15.57-2.3565 19.28l-3.067 2.75-49.234-0.021962c-45.93-0.020488-49.511-0.14746-53.352-1.8918zm49.618-23.086c36.467 0 48.9 0.29959 49.8 1.2 0.93333 0.93333 1.2 0.82222 1.2-0.5 0-1.5778-3.6667-1.7-51-1.7-47.333 0-51 0.12222-51 1.7 0 1.3222 0.26667 1.4333 1.2 0.5 0.90041-0.90041 13.333-1.2 49.8-1.2z" fill="#ecb9b9"/>
 <path d="m14.382 79.086c-6.3081-2.8646-7.3825-5.0992-7.3825-15.354 0-8.0342 0.21942-9.0424 2.4545-11.277l2.4545-2.4545h51.911c59.213 0 55.122-0.62652 58.572 8.9698 2.75 7.6476 1.7818 15.57-2.3565 19.28l-3.067 2.75-49.234-0.021962c-45.93-0.020488-49.511-0.14746-53.352-1.8918zm0.1175-22.086c0.948-1.5339 97.745-1.3552 99.283 0.18333 1.6682 1.6682 2.7707 0.18916 1.2367-1.6592-1.1022-1.3281-7.6546-1.5242-50.943-1.5242-49.294 0-52.078 0.17106-52.078 3.2 0 1.1345 1.7624 0.99348 2.5-0.2z" fill="#e3bcbc"/>
 <path d="m14.212 78.876c-5.6138-2.7788-7.2119-6.0751-7.2119-14.876 0-7.4199 1.6465-12.267 4.5448-13.379 0.89032-0.34165 24.657-0.62118 52.814-0.62118 43.229 0 51.52 0.22685 53.277 1.4577 1.1446 0.80174 3.0986 3.8227 4.342 6.7133 1.8271 4.2473 2.156 6.4118 1.7144 11.282-0.46411 5.1184-1.0121 6.4429-3.6353 8.7867l-3.0888 2.7599-49.234-7.89e-4c-48.168-7.71e-4 -49.327-0.046772-53.522-2.1234zm0.28811-21.876c0.948-1.5339 97.745-1.3552 99.283 0.18333 1.6682 1.6682 2.7707 0.18916 1.2367-1.6592-1.1022-1.3281-7.6546-1.5242-50.943-1.5242-49.294 0-52.078 0.17106-52.078 3.2 0 1.1345 1.7624 0.99348 2.5-0.2z" fill="#f3b4b4"/>
 <path d="m14.212 78.876c-5.6138-2.7788-7.2119-6.0751-7.2119-14.876 0-7.4199 1.6465-12.267 4.5448-13.379 0.89032-0.34165 24.657-0.62118 52.814-0.62118 43.229 0 51.52 0.22685 53.277 1.4577 1.1446 0.80174 3.0986 3.8227 4.342 6.7133 1.8271 4.2473 2.156 6.4118 1.7144 11.282-0.46411 5.1184-1.0121 6.4429-3.6353 8.7867l-3.0888 2.7599-49.234-7.89e-4c-48.168-7.71e-4 -49.327-0.046772-53.522-2.1234zm49.788-21.876c37.244 0 49.899 0.29892 50.8 1.2 0.93333 0.93333 1.2 0.86667 1.2-0.3 0-3.8298-0.93659-3.9-52-3.9-51.063 0-52 0.07024-52 3.9 0 1.1667 0.26667 1.2333 1.2 0.3 0.90108-0.90108 13.556-1.2 50.8-1.2z" fill="#c5c5c5"/>
 <path d="m18 80.3c-9.1262-3.301-11-6.0775-11-16.3 0-7.4199 1.6465-12.267 4.5448-13.379 2.8803-1.1053 103.42-0.7125 105.52 0.41226 3.5769 1.9143 5.9375 8.2725 5.9375 15.992 0 14.534 2.1899 13.993-56.218 13.895-26.005-0.043421-47.957-0.3231-48.782-0.62151zm46-23.3c37.244 0 49.899 0.29892 50.8 1.2 0.93333 0.93333 1.2 0.86667 1.2-0.3 0-3.8298-0.93659-3.9-52-3.9-51.063 0-52 0.07024-52 3.9 0 1.1667 0.26667 1.2333 1.2 0.3 0.90108-0.90108 13.556-1.2 50.8-1.2z" fill="#f2aaaa"/>
 <path d="m18 80.3c-9.1262-3.301-11-6.0775-11-16.3 0-7.4199 1.6465-12.267 4.5448-13.379 2.8803-1.1053 103.42-0.7125 105.52 0.41226 3.5769 1.9143 5.9375 8.2725 5.9375 15.992 0 14.534 2.1899 13.993-56.218 13.895-26.005-0.043421-47.957-0.3231-48.782-0.62151zm46-23.3c43.58 0 48.523 0.16305 50.171 1.655 1.7124 1.5497 1.8287 1.5306 1.8287-0.3 0-4.3524-0.03084-4.355-52-4.355-51.969 0-52 0.0026-52 4.355 0 1.8306 0.11634 1.8497 1.8287 0.3 1.6486-1.4919 6.5914-1.655 50.171-1.655z" fill="#e0b2b2"/>
 <path d="m18 80.3c-8.8683-3.2077-11-6.3476-11-16.202 0-6.6568 1.2297-10.789 3.7893-12.734 1.3517-1.027 12.516-1.3017 53.211-1.3093 57.14-0.01062 53.856-0.39084 57.392 6.6463 1.8663 3.7145 2.2079 16.31 0.52747 19.45-2.4932 4.6586-4.76 4.8548-55.137 4.7707-26.005-0.043421-47.957-0.3231-48.782-0.62151zm46-23.3c43.58 0 48.523 0.16305 50.171 1.655 1.7124 1.5497 1.8287 1.5306 1.8287-0.3 0-4.3524-0.03084-4.355-52-4.355-51.969 0-52 0.0026-52 4.355 0 1.8306 0.11634 1.8497 1.8287 0.3 1.6486-1.4919 6.5914-1.655 50.171-1.655z" fill="#deb2b2"/>
 <path d="m16.464 79.674c-7.4286-2.8727-9.4643-6.2441-9.4643-15.674 0-6.5657 1.2396-10.7 3.7893-12.637 2.4326-1.8482 103.91-1.9091 106.33-0.063811 3.9808 3.0305 5.869 8.0193 5.8728 15.516 8e-3 14.776 2.2937 14.202-56.214 14.108-33.635-0.05412-48.158-0.4149-50.318-1.25zm47.536-22.674c43.58 0 48.523 0.16305 50.171 1.655 1.7124 1.5497 1.8287 1.5306 1.8287-0.3 0-4.3524-0.03084-4.355-52-4.355-51.969 0-52 0.0026-52 4.355 0 1.8306 0.11634 1.8497 1.8287 0.3 1.6486-1.4919 6.5914-1.655 50.171-1.655z" fill="#c0c0c0"/>
 <path d="m14.966 79.18c-5.9987-2.6587-7.9664-6.4079-7.9664-15.18 0-6.5657 1.2396-10.7 3.7893-12.637 1.3509-1.0263 12.555-1.3064 53.272-1.3315 51.337-0.031665 51.571-0.022488 53.86 2.1098 3.4804 3.2425 5.0784 8.0892 5.0784 15.403 0 5.9714-0.28202 6.8911-2.9231 9.5321l-2.9231 2.9231-50.327-0.070285c-27.68-0.03866-51.017-0.37616-51.861-0.75zm49.034-22.18c43.58 0 48.523 0.16305 50.171 1.655 1.7124 1.5497 1.8287 1.5306 1.8287-0.3 0-4.3524-0.03084-4.355-52-4.355-51.969 0-52 0.0026-52 4.355 0 1.8306 0.11634 1.8497 1.8287 0.3 1.6486-1.4919 6.5914-1.655 50.171-1.655z" fill="#deacac"/>
 <path d="m14.5 79.046c-1.1-0.45499-3.125-2.0377-4.5-3.5172-2.2825-2.4559-2.5-3.4735-2.5-11.696 0-8.628 0.11776-9.1073 2.8058-11.419l2.8058-2.4134h50.809c50.607 0 50.82 0.0086 53.565 2.1679 3.8495 3.028 5.5137 7.6692 5.5137 15.377 0 5.9714-0.28202 6.8911-2.9231 9.5321l-2.9231 2.9231-50.327-0.063386c-27.68-0.034863-51.227-0.43565-52.327-0.89064zm49.5-22.046c43.58 0 48.523 0.16305 50.171 1.655 1.7124 1.5497 1.8287 1.5306 1.8287-0.3 0-4.3524-0.03084-4.355-52-4.355-51.969 0-52 0.0026-52 4.355 0 1.8306 0.11634 1.8497 1.8287 0.3 1.6486-1.4919 6.5914-1.655 50.171-1.655z" fill="#c8b6b6"/>
 <path d="m13.5 78.158c-5.4106-3.308-6-4.7225-6-14.399 0-8.5479 0.12092-9.0369 2.8058-11.346l2.8058-2.4134h50.809c50.043 0 50.849 0.03156 53.469 2.0924 3.7551 2.9537 5.6097 8.1134 5.6097 15.607 0 5.8009-0.29611 6.7509-2.9231 9.3779l-2.9231 2.9231-50.327-0.003738c-47.05-0.003495-50.522-0.12318-53.327-1.8379zm50.5-21.158c43.58 0 48.523 0.16305 50.171 1.655 1.7124 1.5497 1.8287 1.5306 1.8287-0.3 0-4.3524-0.03084-4.355-52-4.355-51.969 0-52 0.0026-52 4.355 0 1.8306 0.11634 1.8497 1.8287 0.3 1.6486-1.4919 6.5914-1.655 50.171-1.655z" fill="#e9a5a5"/>
 <path d="m13.5 78.158c-5.4106-3.308-6-4.7225-6-14.399 0-8.5479 0.12092-9.0369 2.8058-11.346l2.8058-2.4134h50.809c50.043 0 50.849 0.03156 53.469 2.0924 3.7551 2.9537 5.6097 8.1134 5.6097 15.607 0 5.8009-0.29611 6.7509-2.9231 9.3779l-2.9231 2.9231-50.327-0.003738c-47.05-0.003495-50.522-0.12318-53.327-1.8379zm50.5-21.158c43.58 0 48.523 0.16305 50.171 1.655 1.7262 1.5622 1.8287 1.5121 1.8287-0.89301 0-1.4014-0.7118-2.8211-1.5818-3.155-2.0661-0.79285-98.77-0.79285-100.84 0-0.86998 0.33384-1.5818 1.7536-1.5818 3.155 0 2.4051 0.10255 2.4552 1.8287 0.89301 1.6486-1.4919 6.5914-1.655 50.171-1.655z" fill="#f1a1a1"/>
 <path d="m13.5 78.158c-5.4106-3.308-6-4.7225-6-14.399 0-8.5479 0.12092-9.0369 2.8058-11.346l2.8058-2.4134h50.809c50.043 0 50.849 0.03156 53.469 2.0924 3.7551 2.9537 5.6097 8.1134 5.6097 15.607 0 5.8009-0.29611 6.7509-2.9231 9.3779l-2.9231 2.9231-50.327-0.003738c-47.05-0.003495-50.522-0.12318-53.327-1.8379zm50.5-21.158h47.922l2.039 2.1886 2.039 2.1886v-3.0816c0-1.8875-0.61292-3.3168-1.5818-3.6886-2.0661-0.79285-98.77-0.79285-100.84 0-0.96886 0.37179-1.5818 1.8011-1.5818 3.6886v3.0816l2.039-2.1886 2.039-2.1886z" fill="#bababa"/>
 <path d="m14.5 78.597c-5.9327-2.6187-7-4.8737-7-14.789 0-8.6013 0.11881-9.0838 2.8058-11.395l2.8058-2.4134h101.74l2.9545 2.486c6.7426 5.6735 6.8738 22.562 0.20205 26.012-2.4693 1.2769-10.205 1.4957-51.703 1.4625-38.253-0.030682-49.448-0.32533-51.8-1.3634zm49.5-21.597h47.922l2.039 2.1886 2.039 2.1886v-3.0816c0-1.8875-0.61292-3.3168-1.5818-3.6886-2.0661-0.79285-98.77-0.79285-100.84 0-0.96886 0.37179-1.5818 1.8011-1.5818 3.6886v3.0816l2.039-2.1886 2.039-2.1886z" fill="#f09c9c"/>
 <path d="m14.5 78.597c-5.9327-2.6187-7-4.8737-7-14.789 0-8.6013 0.11881-9.0838 2.8058-11.395l2.8058-2.4134h101.74l2.9545 2.486c6.7426 5.6735 6.8738 22.562 0.20205 26.012-2.4693 1.2769-10.205 1.4957-51.703 1.4625-38.253-0.030682-49.448-0.32533-51.8-1.3634zm49.5-20.597h48.756l1.5695 2.25c1.5521 2.225 1.5701 2.2096 1.622-1.393 0.0351-2.435-0.47209-3.8443-1.5293-4.25-2.0661-0.79285-98.77-0.79285-100.84 0-1.0572 0.4057-1.5644 1.815-1.5293 4.25 0.05187 3.6026 0.06986 3.6181 1.622 1.393l1.5695-2.25z" fill="#dca6a6"/>
 <path d="m15.001 78.877c-1.3747-0.54818-3.5122-1.9481-4.75-3.1109-2.0357-1.9124-2.2505-3.0453-2.2505-11.867 0-15.181-5.1743-13.898 56.058-13.898h50.788l2.9545 2.486c6.7426 5.6735 6.8738 22.562 0.20205 26.012-2.4713 1.278-10.171 1.4922-51.703 1.4382-29.929-0.038876-49.766-0.44879-51.299-1.0601zm48.999-20.877h48.756l1.6138 2.25c1.5835 2.2078 1.6092 2.1749 1.372-1.75l-0.24181-4h-103l-0.24181 4c-0.23727 3.9249-0.21151 3.9578 1.372 1.75l1.6138-2.25z" fill="#b6b5b5"/>
 <path d="m15.619 78.984c-1.5844-0.4844-3.9469-1.8824-5.25-3.1066-2.1783-2.0464-2.3693-3.0121-2.3693-11.979 0-15.182-5.1837-13.898 56.119-13.898h50.849l3.2658 2.9173c3.1587 2.8216 3.277 3.2096 3.6092 11.836 0.32062 8.3277 0.17738 9.1114-2.1627 11.833l-2.5061 2.9143-49.337 0.18227c-27.135 0.10025-50.634-0.21406-52.218-0.69847zm48.381-20.984h48.756l1.6138 2.25c1.5835 2.2078 1.6092 2.1749 1.372-1.75l-0.24181-4h-103l-0.24181 4c-0.23727 3.9249-0.21151 3.9578 1.372 1.75l1.6138-2.25z" fill="#cea8a8"/>
 <path d="m15.619 78.984c-1.5844-0.4844-3.9469-1.8824-5.25-3.1066-2.1783-2.0464-2.3693-3.0121-2.3693-11.979 0-15.179-5.1519-13.898 55.912-13.898 44.273 0 50.923 0.19631 52.871 1.5607 3.7697 2.6404 5.2168 6.7552 5.2168 14.834 0 6.4793-0.32667 7.8738-2.4127 10.3l-2.4127 2.8058-49.337 0.18227c-27.135 0.10025-50.634-0.21406-52.218-0.69847zm48.381-20.984h48.756l1.6138 2.25c1.5835 2.2078 1.6092 2.1749 1.372-1.75l-0.24181-4h-103l-0.24181 4c-0.23727 3.9249-0.21151 3.9578 1.372 1.75l1.6138-2.25z" fill="#ee9090"/>
 <path d="m15.619 78.984c-1.5844-0.4844-3.9469-1.8824-5.25-3.1066-2.1783-2.0464-2.3693-3.0121-2.3693-11.979 0-15.179-5.1519-13.898 55.912-13.898 44.273 0 50.923 0.19631 52.871 1.5607 3.7697 2.6404 5.2168 6.7552 5.2168 14.834 0 6.4793-0.32667 7.8738-2.4127 10.3l-2.4127 2.8058-49.337 0.18227c-27.135 0.10025-50.634-0.21406-52.218-0.69847zm-0.85138-18.984c1.2208-1.9549 2.332-2 49.232-2 46.9 0 48.011 0.04514 49.232 2 1.9174 3.0703 2.9209 2.3892 2.5783-1.75l-0.31037-3.75h-103l-0.31036 3.75c-0.34258 4.1392 0.66086 4.8203 2.5783 1.75z" fill="#e19595"/>
 <path d="m15.619 78.984c-1.5844-0.4844-3.9469-1.8824-5.25-3.1066-2.1783-2.0464-2.3693-3.0121-2.3693-11.979 0-15.179-5.1519-13.898 55.912-13.898 44.273 0 50.923 0.19631 52.871 1.5607 3.7697 2.6404 5.2168 6.7552 5.2168 14.834 0 6.4793-0.32667 7.8738-2.4127 10.3l-2.4127 2.8058-49.337 0.18227c-27.135 0.10025-50.634-0.21406-52.218-0.69847zm-0.85138-18.984c1.2208-1.9549 2.332-2 49.232-2 46.9 0 48.011 0.04514 49.232 2 0.68696 1.1 1.5604 2 1.9411 2 1.3566 0 1.9191-3.9591 0.84706-5.9622-1.0754-2.0094-1.7994-2.0378-52.02-2.0378-50.221 0-50.945 0.028359-52.02 2.0378-1.072 2.0031-0.50957 5.9622 0.84706 5.9622 0.38064 0 1.2541-0.9 1.9411-2z" fill="#b2abab"/>
 <path d="m14 78.294c-0.825-0.30158-2.5125-1.4695-3.75-2.5954-2.0396-1.8556-2.25-2.959-2.25-11.8 0-15.179-5.1519-13.898 55.912-13.898 56.157 0 53.823-0.27174 56.693 6.5986 2.9865 7.1476 1.1062 20.147-3.1504 21.78-1.9866 0.76231-101.36 0.68062-103.46-0.085047zm0.76793-18.294c1.2208-1.9549 2.332-2 49.232-2 46.9 0 48.011 0.04514 49.232 2 0.68696 1.1 1.5604 2 1.9411 2 1.3566 0 1.9191-3.9591 0.84706-5.9622-1.0754-2.0094-1.7994-2.0378-52.02-2.0378-50.221 0-50.945 0.028359-52.02 2.0378-1.072 2.0031-0.50957 5.9622 0.84706 5.9622 0.38064 0 1.2541-0.9 1.9411-2z" fill="#cd9d9d"/>
 <path d="m11.898 76.713-3.3979-2.2871-0.28294-10.028c-0.43095-15.274-5.9342-13.849 54.637-14.147 39.231-0.19346 51.209 0.035055 53.146 1.0139 3.7869 1.9142 5.9966 7.2688 5.9984 14.536 2e-3 6.6122-1.769 11.515-4.5432 12.579-0.89033 0.34165-24.24 0.62118-51.889 0.62118h-50.27zm2.87-16.713c1.2208-1.9549 2.332-2 49.232-2 46.9 0 48.011 0.04514 49.232 2 0.68696 1.1 1.5604 2 1.9411 2 1.3566 0 1.9191-3.9591 0.84706-5.9622-1.0754-2.0094-1.7994-2.0378-52.02-2.0378-50.221 0-50.945 0.028359-52.02 2.0378-1.072 2.0031-0.50957 5.9622 0.84706 5.9622 0.38064 0 1.2541-0.9 1.9411-2z" fill="#ed8c8c"/>
 <path d="m11.898 76.713-3.3979-2.2871-0.28294-10.028c-0.43095-15.274-5.9342-13.849 54.637-14.147 39.231-0.19346 51.209 0.035055 53.146 1.0139 3.7869 1.9142 5.9966 7.2688 5.9984 14.536 2e-3 6.6122-1.769 11.515-4.5432 12.579-0.89033 0.34165-24.24 0.62118-51.889 0.62118h-50.27zm52.189-17.713h48.843l1.1843 2.213 1.1843 2.213 0.90499-2.4464c0.56866-1.5372 0.52119-3.2888-0.12771-4.713l-1.0327-2.2665h-50.986c-49.787 0-51.011 0.04657-52.046 1.9795-0.58266 1.0887-0.7518 3.205-0.37586 4.7029l0.68353 2.7234 1.4626-2.2029 1.4626-2.2029z" fill="#d79595"/>
 <path d="m12.775 77.441c-4.0066-2.1743-4.7751-4.3896-4.7751-13.765 0-6.8335 0.36649-8.9077 1.911-10.816l1.911-2.3608 49.561-0.28572c27.259-0.15715 51.003 0.08772 52.764 0.54414 4.84 1.2542 7.1882 5.1502 7.6706 12.727 0.48917 7.6823-0.18214 10.879-2.8436 13.54-1.9153 1.9153-3.4978 1.9734-52.725 1.9345-42.837-0.033795-51.175-0.27059-53.475-1.5188zm51.225-18.441h48.756l1.4892 2.2428 1.4892 2.2428 0.72124-3.2838c1.4192-6.4614 3.6143-6.2019-52.456-6.2019-56.07 0-53.875-0.25953-52.456 6.2019l0.72124 3.2838 1.4892-2.2428 1.4892-2.2428z" fill="#ada6a6"/>
 <path d="m12.775 77.441c-4.0066-2.1743-4.7751-4.3896-4.7751-13.765 0-6.8335 0.36649-8.9077 1.911-10.816l1.911-2.3608 49.561-0.28572c27.259-0.15715 51.003 0.08772 52.764 0.54414 5.5402 1.4356 7.3525 5.1078 7.3525 14.898 0 8.0861-0.14036 8.6328-2.8058 10.928l-2.8058 2.4156-50.194-0.040038c-42.347-0.033778-50.62-0.27122-52.919-1.5188zm51.225-18.441h48.756l1.4892 2.2428 1.4892 2.2428 0.72124-3.2838c1.4192-6.4614 3.6143-6.2019-52.456-6.2019-56.07 0-53.875-0.25953-52.456 6.2019l0.72124 3.2838 1.4892-2.2428 1.4892-2.2428z" fill="#ec8383"/>
 <path d="m12.775 77.441c-4.0066-2.1743-4.7751-4.3896-4.7751-13.765 0-6.8335 0.36649-8.9077 1.911-10.816l1.911-2.3608 49.561-0.28572c27.259-0.15715 51.003 0.08772 52.764 0.54414 5.5402 1.4356 7.3525 5.1078 7.3525 14.898 0 8.0861-0.14036 8.6328-2.8058 10.928l-2.8058 2.4156-50.194-0.040038c-42.347-0.033778-50.62-0.27122-52.919-1.5188zm1.5865-15.941c0.50083-1.3051 6.9495-1.5 49.638-1.5s49.138 0.19487 49.638 1.5c0.92157 2.4016 2.1495 1.7424 2.8706-1.541 1.3568-6.1774 3.2809-5.959-52.509-5.959-55.79 0-53.866-0.21836-52.509 5.959 0.72115 3.2834 1.9491 3.9425 2.8706 1.541z" fill="#d18c8c"/>
 <path d="m12.775 77.441c-4.0141-2.1784-4.7751-4.3897-4.7751-13.875 0-13.783-5.4303-12.566 56.045-12.566h52.045l2.3744 2.3744c4.7196 4.7196 4.7679 19.308 0.0773 23.343l-2.6542 2.283-50.194-0.040038c-42.347-0.033778-50.62-0.27122-52.919-1.5188zm1.5865-15.941c0.50083-1.3051 6.9495-1.5 49.638-1.5s49.138 0.19487 49.638 1.5c0.92157 2.4016 2.1495 1.7424 2.8706-1.541 1.3568-6.1774 3.2809-5.959-52.509-5.959-55.79 0-53.866-0.21836-52.509 5.959 0.72115 3.2834 1.9491 3.9425 2.8706 1.541z" fill="#d58888"/>
 <path d="m12.775 77.441c-4.0141-2.1784-4.7751-4.3897-4.7751-13.875 0-13.783-5.4303-12.566 56.045-12.566h52.045l2.3744 2.3744c4.7196 4.7196 4.7679 19.308 0.0773 23.343l-2.6542 2.283-50.194-0.040038c-42.347-0.033778-50.62-0.27122-52.919-1.5188zm1.5865-15.941c0.50081-1.3051 6.9405-1.5 49.557-1.5 45.606 0 49.05 0.12059 49.969 1.75 1.4118 2.5022 3.359 0.28038 2.9402-3.355-0.61175-5.3101-1.157-5.3655-52.828-5.3655-50.639 0-52.159 0.13858-52.829 4.8183-0.61136 4.2686 1.866 7.1043 3.1907 3.6522z" fill="#b49898"/>
 <path d="m13.329 77.542c-4.4624-1.9411-5.3287-4.2134-5.3287-13.976 0-13.783-5.4303-12.566 56.045-12.566h52.045l2.3744 2.3744c4.7196 4.7196 4.7679 19.308 0.0773 23.343l-2.6542 2.283-49.694-0.039142c-39.977-0.031488-50.314-0.30888-52.865-1.4186zm1.0329-16.042c0.50081-1.3051 6.9405-1.5 49.557-1.5 45.606 0 49.05 0.12059 49.969 1.75 1.4118 2.5022 3.359 0.28038 2.9402-3.355-0.61175-5.3101-1.157-5.3655-52.828-5.3655-50.639 0-52.159 0.13858-52.829 4.8183-0.61136 4.2686 1.866 7.1043 3.1907 3.6522z" fill="#ab9b9b"/>
 <path d="m13.329 77.556c-4.4645-1.9621-5.3287-4.2312-5.3287-13.991 0-13.783-5.4303-12.566 56.045-12.566h52.045l2.4545 2.4545c2.2398 2.2398 2.4546 3.2364 2.4546 11.389 0 7.306-0.34838 9.365-1.9111 11.295l-1.9111 2.3608-50.339 0.2251c-41.227 0.18435-50.913-0.02718-53.51-1.1686zm1.0329-16.056c0.50081-1.3051 6.9405-1.5 49.557-1.5 45.606 0 49.05 0.12059 49.969 1.75 1.4118 2.5022 3.359 0.28038 2.9402-3.355-0.61175-5.3101-1.157-5.3655-52.828-5.3655-50.639 0-52.159 0.13858-52.829 4.8183-0.61136 4.2686 1.866 7.1043 3.1907 3.6522z" fill="#d48484"/>
 <path d="m13.329 77.556c-4.4645-1.9621-5.3287-4.2312-5.3287-13.991 0-13.783-5.4303-12.566 56.045-12.566h52.045l2.4545 2.4545c2.2398 2.2398 2.4546 3.2364 2.4546 11.389 0 7.306-0.34838 9.365-1.9111 11.295l-1.9111 2.3608-50.339 0.2251c-41.227 0.18435-50.913-0.02718-53.51-1.1686zm1.0329-16.056c0.50081-1.3051 6.9405-1.5 49.557-1.5 44.363 0 49.068 0.15469 49.9 1.6404 1.2736 2.2757 3.1845 0.79732 3.1661-2.4494-0.03409-5.9902 2.7519-5.691-52.985-5.691-55.626 0-52.95-0.28199-52.985 5.5833-0.022708 3.8309 2.1903 5.4291 3.3463 2.4167z" fill="#ea7878"/>
 <path d="m13.329 77.556c-4.4645-1.9621-5.3287-4.2312-5.3287-13.991 0-13.783-5.4303-12.566 56.045-12.566h52.045l2.4545 2.4545c2.2398 2.2398 2.4546 3.2364 2.4546 11.389 0 7.306-0.34838 9.365-1.9111 11.295l-1.9111 2.3608-50.339 0.2251c-41.227 0.18435-50.913-0.02718-53.51-1.1686zm50.671-16.556c43.064 0 48.537 0.17605 50.124 1.6122 1.6605 1.5028 1.826 1.4348 2.4372-1 0.97085-3.8682-0.23019-7.2904-2.8002-7.9791-2.9517-0.79093-96.57-0.79093-99.522 0-2.57 0.68867-3.7711 4.1109-2.8002 7.9791 0.61111 2.4348 0.77662 2.5028 2.4371 1 1.587-1.4362 7.0603-1.6122 50.124-1.6122z" fill="#ca8787"/>
 <path d="m13.5 77.465c-4.8588-2.5132-5.5-4.1053-5.5-13.657 0-14.069-5.5119-12.809 56.048-12.809h52.048l2.4522 2.646c2.2143 2.3892 2.4522 3.4946 2.4522 11.389 0 7.1175-0.35536 9.1822-1.9111 11.104l-1.9111 2.3608-50.339 0.25857c-43.878 0.22538-50.724 0.059413-53.339-1.2932zm50.5-16.465c43.064 0 48.537 0.17605 50.124 1.6122 1.6605 1.5028 1.826 1.4348 2.4372-1 0.97085-3.8682-0.23019-7.2904-2.8002-7.9791-2.9517-0.79093-96.57-0.79093-99.522 0-2.57 0.68867-3.7711 4.1109-2.8002 7.9791 0.61111 2.4348 0.77662 2.5028 2.4371 1 1.587-1.4362 7.0603-1.6122 50.124-1.6122z" fill="#aa9393"/>
 <path d="m15.333 78.319c-1.192-0.23983-3.3295-1.5131-4.75-2.8296-2.4102-2.2337-2.5827-2.9976-2.5827-11.441 0-14.349-5.5889-13.048 56.048-13.048h52.048l2.4522 2.646c2.2114 2.3862 2.4522 3.4985 2.4522 11.326 0 8.0368-0.19107 8.8592-2.5799 11.104l-2.5799 2.4243-49.17 0.12734c-27.044 0.070034-50.145-0.068889-51.337-0.30872zm48.667-17.319c43.064 0 48.537 0.17605 50.124 1.6122 1.6605 1.5028 1.826 1.4348 2.4372-1 0.97085-3.8682-0.23019-7.2904-2.8002-7.9791-2.9517-0.79093-96.57-0.79093-99.522 0-2.57 0.68867-3.7711 4.1109-2.8002 7.9791 0.61111 2.4348 0.77662 2.5028 2.4371 1 1.587-1.4362 7.0603-1.6122 50.124-1.6122z" fill="#d57b7b"/>
 <path d="m15.333 78.319c-1.192-0.23983-3.3295-1.5131-4.75-2.8296-2.4102-2.2337-2.5827-2.9976-2.5827-11.441 0-14.349-5.5889-13.048 56.048-13.048h52.048l2.4522 2.646c2.2114 2.3862 2.4522 3.4985 2.4522 11.326 0 8.0368-0.19107 8.8592-2.5799 11.104l-2.5799 2.4243-49.17 0.12734c-27.044 0.070034-50.145-0.068889-51.337-0.30872zm48.874-17.319c41.775 0 48.721 0.20775 49.785 1.489 1.8473 2.2258 3.0091 0.86951 3.0091-3.5128 0-2.8381-0.52876-4.1888-1.9343-4.941-2.6601-1.4236-99.471-1.4236-102.13 0-1.3911 0.74451-1.9343 2.1017-1.9343 4.8333 0 4.6269 0.8122 5.6114 2.9976 3.6337 1.4286-1.2928 8.4262-1.5022 50.209-1.5022z" fill="#bc8787"/>
 <path d="m13.402 77.11c-2.254-1.0317-4.3915-2.6402-4.75-3.5744-0.35851-0.93426-0.65184-5.4869-0.65184-10.117 0-13.603-5.2856-12.418 55.418-12.418 28.28 0 52.147 0.27953 53.037 0.62118 3.0057 1.1534 4.5448 5.947 4.5448 14.155 0 7.1722-0.23033 8.0918-2.5799 10.3l-2.5799 2.4243-49.17 0.24266c-46.256 0.22828-49.413 0.13149-53.268-1.6331zm50.804-16.11c41.775 0 48.721 0.20775 49.785 1.489 1.8473 2.2258 3.0091 0.86951 3.0091-3.5128 0-2.8381-0.52876-4.1888-1.9343-4.941-2.6601-1.4236-99.471-1.4236-102.13 0-1.3911 0.74451-1.9343 2.1017-1.9343 4.8333 0 4.6269 0.8122 5.6114 2.9976 3.6337 1.4286-1.2928 8.4262-1.5022 50.209-1.5022z" fill="#e96d6d"/>
 <path d="m13.402 77.11c-2.254-1.0317-4.3915-2.6402-4.75-3.5744-0.35851-0.93426-0.65184-5.4869-0.65184-10.117 0-13.603-5.2856-12.418 55.418-12.418 28.28 0 52.147 0.27953 53.037 0.62118 3.0057 1.1534 4.5448 5.947 4.5448 14.155 0 7.1722-0.23033 8.0918-2.5799 10.3l-2.5799 2.4243-49.17 0.24266c-46.256 0.22828-49.413 0.13149-53.268-1.6331zm1.0982-14.11c0.90959-1.4718 97.738-1.3616 99.213 0.11287 1.8375 1.8375 3.2871 0.01315 3.2871-4.1367 0-2.8381-0.52876-4.1888-1.9343-4.941-2.6601-1.4236-99.471-1.4236-102.13 0-2.8461 1.5232-2.6992 9.9648 0.17339 9.9648 0.42587 0 1.0524-0.45 1.3924-1z" fill="#ca7a7a"/>
 <path d="m14.378 77.578c-5.0678-2.2292-6.3783-5.0368-6.3783-13.665 0-6.2177 0.38644-8.1339 2.0726-10.277l2.0726-2.6349h103.68l2.5889 3.0767c2.3273 2.7658 2.5889 3.9102 2.5889 11.326 0 7.5739-0.21114 8.4474-2.5799 10.673l-2.5799 2.4243-49.17 0.22535c-39.882 0.18278-49.76-0.034023-52.292-1.1478zm0.1217-14.578c0.90959-1.4718 97.738-1.3616 99.213 0.11287 1.8375 1.8375 3.2871 0.01315 3.2871-4.1367 0-2.8381-0.52876-4.1888-1.9343-4.941-2.6601-1.4236-99.471-1.4236-102.13 0-2.8461 1.5232-2.6992 9.9648 0.17339 9.9648 0.42587 0 1.0524-0.45 1.3924-1z" fill="#a78a8a"/>
 <path d="m10.923 75.077c-2.74-2.74-2.9231-3.4204-2.9231-10.865 0-6.5206 0.37095-8.4137 2.0726-10.577l2.0726-2.6349h103.68l2.5889 3.0767c2.3112 2.7467 2.5889 3.9315 2.5889 11.045 0 7.1273-0.25918 8.2279-2.4546 10.423l-2.4545 2.4545h-102.24zm3.5769-12.077c0.90959-1.4718 97.738-1.3616 99.213 0.11287 1.8375 1.8375 3.2871 0.01315 3.2871-4.1367 0-2.8381-0.52876-4.1888-1.9343-4.941-2.6601-1.4236-99.471-1.4236-102.13 0-2.8461 1.5232-2.6992 9.9648 0.17339 9.9648 0.42587 0 1.0524-0.45 1.3924-1z" fill="#db6d6d"/>
 <path d="m10.923 75.077c-2.74-2.74-2.9231-3.4204-2.9231-10.865 0-6.5206 0.37095-8.4137 2.0726-10.577l2.0726-2.6349h103.68l2.5889 3.0767c2.3112 2.7467 2.5889 3.9315 2.5889 11.045 0 7.1273-0.25918 8.2279-2.4546 10.423l-2.4545 2.4545h-102.24zm3.5769-12.077c0.84868-1.3732 98.151-1.3732 99 0 0.33992 0.55 1.2665 1 2.059 1 2.378 0 1.9494-8.6575-0.49328-9.9648-2.6601-1.4236-99.471-1.4236-102.13 0-2.4427 1.3073-2.8712 9.9648-0.49328 9.9648 0.79254 0 1.7191-0.45 2.059-1z" fill="#b07d7d"/>
 <path d="m10.923 75.077c-2.74-2.74-2.9231-3.4204-2.9231-10.865 0-6.5206 0.37095-8.4137 2.0726-10.577l2.0726-2.6349h103.51l2.4243 2.5806c2.1953 2.3368 2.4243 3.4313 2.4243 11.588 0 14.016 5.1423 12.831-55.688 12.831h-50.966zm3.5769-12.077c0.84868-1.3732 98.151-1.3732 99 0 0.33992 0.55 1.2665 1 2.059 1 2.378 0 1.9494-8.6575-0.49328-9.9648-2.6601-1.4236-99.471-1.4236-102.13 0-2.4427 1.3073-2.8712 9.9648-0.49328 9.9648 0.79254 0 1.7191-0.45 2.059-1z" fill="#e75c5c"/>
 <path d="m10.923 75.077c-2.74-2.74-2.9231-3.4204-2.9231-10.865 0-6.5206 0.37095-8.4137 2.0726-10.577l2.0726-2.6349h103.51l2.4243 2.5806c2.1953 2.3368 2.4243 3.4313 2.4243 11.588 0 14.016 5.1423 12.831-55.688 12.831h-50.966zm53.218-12.077c32.614 0 49.957 0.34994 50.369 1.0163 1.2519 2.0257 2.4899-0.23166 2.4899-4.5401 0-3.3324-0.47124-4.658-1.9343-5.441-2.6601-1.4236-99.471-1.4236-102.13 0-1.4518 0.77696-1.9343 2.1073-1.9343 5.3333 0 4.6808 0.79677 6.2347 2.3833 4.6482 0.66164-0.66164 18.387-1.0167 50.758-1.0167z" fill="#c56b6b"/>
 <path d="m11.306 75.587c-2.6951-2.3182-2.8058-2.7752-2.8058-11.588 0-14.21-5.1809-12.998 55.555-12.998h50.833l2.8058 2.4134c2.6951 2.3182 2.8058 2.7752 2.8058 11.588 0 14.21 5.1809 12.998-55.555 12.998h-50.833zm52.835-12.587c32.614 0 49.957 0.34994 50.369 1.0163 0.34546 0.55897 1.047 0.75741 1.559 0.44098 1.3523-0.83579 1.1422-8.846-0.2691-10.257-1.7298-1.7298-101.87-1.7298-103.6 0-1.2748 1.2748-1.6679 8.9987-0.51667 10.15 0.37583 0.37583 1.1408 0.22583 1.7-0.33333 0.66164-0.66164 18.387-1.0167 50.758-1.0167z" fill="#d95c5c"/>
 <path d="m11.306 75.587c-2.6951-2.3182-2.8058-2.7752-2.8058-11.588 0-14.21-5.1809-12.998 55.555-12.998h50.833l2.8058 2.4134c2.6951 2.3182 2.8058 2.7752 2.8058 11.588 0 14.21 5.1809 12.998-55.555 12.998h-50.833zm2.1942-11.587c0.84887-1.3735 100.15-1.3735 101 0 0.33992 0.55 1.0415 1 1.559 1 1.3764 0 1.1512-9.3898-0.25902-10.8-1.7298-1.7298-101.87-1.7298-103.6 0-1.4102 1.4102-1.6354 10.8-0.25902 10.8 0.51754 0 1.2191-0.45 1.559-1z" fill="#ba6a6a"/>
 <path d="m11.306 75.587c-2.6951-2.3182-2.8058-2.7752-2.8058-11.588 0-14.205-5.1243-12.998 55.177-12.998 32.693 0 51.132 0.36248 52.379 1.0296 3.6523 1.9546 5.1786 6.6653 4.7716 14.726-0.61463 12.171 3.9936 11.244-55.882 11.244h-50.833zm2.1942-11.587c0.84887-1.3735 100.15-1.3735 101 0 0.33992 0.55 1.0415 1 1.559 1 1.3764 0 1.1512-9.3898-0.25902-10.8-1.7298-1.7298-101.87-1.7298-103.6 0-1.4102 1.4102-1.6354 10.8-0.25902 10.8 0.51754 0 1.2191-0.45 1.559-1z" fill="#a37474"/>
 <path d="m11.306 75.587c-2.6951-2.3182-2.8058-2.7752-2.8058-11.588 0-14.205-5.1243-12.998 55.177-12.998 34.23 0 51.104 0.34746 52.474 1.0805 2.7856 1.4908 4.8496 6.9123 4.8496 12.738 0 6.5447-1.573 10.666-4.5968 12.044-1.7599 0.80188-17.23 1.1378-52.394 1.1378h-49.897zm2.1942-11.587c0.84887-1.3735 100.15-1.3735 101 0 0.33992 0.55 1.0415 1 1.559 1 1.3764 0 1.1512-9.3898-0.25902-10.8-1.7298-1.7298-101.87-1.7298-103.6 0-1.4102 1.4102-1.6354 10.8-0.25902 10.8 0.51754 0 1.2191-0.45 1.559-1z" fill="#c86060"/>
 <path d="m11.306 75.587c-2.6951-2.3182-2.8058-2.7752-2.8058-11.588 0-14.205-5.1243-12.998 55.177-12.998 34.23 0 51.104 0.34746 52.474 1.0805 2.7856 1.4908 4.8496 6.9123 4.8496 12.738 0 6.5447-1.573 10.666-4.5968 12.044-1.7599 0.80188-17.23 1.1378-52.394 1.1378h-49.897zm2.1942-11.587c0.84887-1.3735 100.15-1.3735 101 0 1.2044 1.9487 2.246 0.95258 2.8416-2.7176 0.40476-2.4942 0.11116-4.4687-0.89221-6l-1.4955-2.2824h-101.91l-1.4955 2.2824c-1.0034 1.5313-1.297 3.5058-0.89221 6 0.59559 3.6702 1.6372 4.6663 2.8416 2.7176z" fill="#c26161"/>
 <path d="m11.306 75.583c-2.7348-2.3562-2.8006-2.6534-2.6016-11.75 0.1797-8.2126 0.46303-9.5427 2.3608-11.083 1.9903-1.615 6.0474-1.75 52.612-1.75 34.23 0 51.104 0.34746 52.474 1.0805 2.7856 1.4908 4.8496 6.9123 4.8496 12.738 0 6.5447-1.573 10.666-4.5968 12.044-1.7599 0.80188-17.23 1.1378-52.394 1.1378h-49.897zm2.1942-11.583c0.84887-1.3735 100.15-1.3735 101 0 1.2044 1.9487 2.246 0.95258 2.8416-2.7176 0.40476-2.4942 0.11116-4.4687-0.89221-6l-1.4955-2.2824h-101.91l-1.4955 2.2824c-1.0034 1.5313-1.297 3.5058-0.89221 6 0.59559 3.6702 1.6372 4.6663 2.8416 2.7176z" fill="#e45050"/>
 <path d="m11.306 75.583c-2.7348-2.3562-2.8006-2.6534-2.6016-11.75 0.1797-8.2126 0.46303-9.5427 2.3608-11.083 1.9903-1.615 6.0474-1.75 52.612-1.75 34.23 0 51.104 0.34746 52.474 1.0805 2.7856 1.4908 4.8496 6.9123 4.8496 12.738 0 6.5447-1.573 10.666-4.5968 12.044-1.7599 0.80188-17.23 1.1378-52.394 1.1378h-49.897zm52.901-12.583c41.775 0 48.721 0.20775 49.785 1.489 1.7149 2.0663 2.6374 1.1891 3.3468-3.1823 0.40883-2.5194 0.11862-4.4876-0.88827-6.0243l-1.4955-2.2824h-101.91l-1.5687 2.3941c-1.0103 1.5419-1.3447 3.4107-0.93953 5.25 1.2484 5.6667 1.3396 5.7767 3.3117 3.992 1.6216-1.4675 6.8104-1.6361 50.357-1.6361z" fill="#c85d5d"/>
 <path d="m11.306 75.583c-2.7348-2.3562-2.8006-2.6534-2.6016-11.75 0.1797-8.2126 0.46303-9.5427 2.3608-11.083 1.9903-1.615 6.0474-1.75 52.612-1.75 34.23 0 51.104 0.34746 52.474 1.0805 2.7856 1.4908 4.8496 6.9123 4.8496 12.738 0 6.5447-1.573 10.666-4.5968 12.044-1.7599 0.80188-17.23 1.1378-52.394 1.1378h-49.897zm52.901-12.583c41.775 0 48.721 0.20775 49.785 1.489 1.6925 2.0394 2.6606 1.1822 3.4566-3.0606 0.47408-2.5271 0.20407-4.3112-0.90969-6.011l-1.5839-2.4173h-101.91l-1.6114 2.4594c-1.1328 1.7289-1.4017 3.4367-0.90546 5.75 1.004 4.6796 1.4497 5.1197 3.3988 3.3558 1.5193-1.3749 7.629-1.5651 50.278-1.5651z" fill="#a36d6d"/>
 <path d="m13.465 77.048c-4.212-1.7073-4.9765-3.868-4.7611-13.457 0.17891-7.9648 0.47143-9.3082 2.3608-10.841 1.9909-1.6155 6.0703-1.75 53.091-1.75h50.935l2.4545 2.4545c2.2413 2.2413 2.4546 3.234 2.4546 11.427 0 14.255 4.7261 13.131-54.885 13.055-27.288-0.034863-50.531-0.43452-51.65-0.88814zm50.741-14.048c41.775 0 48.721 0.20775 49.785 1.489 1.6925 2.0394 2.6606 1.1822 3.4566-3.0606 0.47408-2.5271 0.20407-4.3112-0.90969-6.011l-1.5839-2.4173h-101.91l-1.6114 2.4594c-1.1328 1.7289-1.4017 3.4367-0.90546 5.75 1.004 4.6796 1.4497 5.1197 3.3988 3.3558 1.5193-1.3749 7.629-1.5651 50.278-1.5651z" fill="#c15c5c"/>
 <path d="m13.465 77.048c-4.0038-1.6229-4.5535-3.3895-4.2527-13.669 0.27326-9.3405 0.41083-9.8884 2.7874-11.102 1.9507-0.9962 13.671-1.2219 53.339-1.027l50.839 0.24976 1.9111 2.3608c1.5585 1.9252 1.9111 3.9876 1.9111 11.177 0 14.071 4.6679 12.974-54.885 12.898-27.288-0.034863-50.531-0.43452-51.65-0.88814zm50.741-14.048c41.775 0 48.721 0.20775 49.785 1.489 1.6925 2.0394 2.6606 1.1822 3.4566-3.0606 0.47408-2.5271 0.20407-4.3112-0.90969-6.011l-1.5839-2.4173h-101.91l-1.6114 2.4594c-1.1328 1.7289-1.4017 3.4367-0.90546 5.75 1.004 4.6796 1.4497 5.1197 3.3988 3.3558 1.5193-1.3749 7.629-1.5651 50.278-1.5651z" fill="#bd5a5a"/>
 <path d="m12.25 76.011-3.25-1.9816v-9.3236c0-14.661-6.0617-13.206 55.008-13.206h52.169l1.9116 2.3608c1.5591 1.9255 1.9116 3.9866 1.9116 11.177 0 14.064 4.6644 12.963-54.885 12.958-47.698-0.003594-49.741-0.08032-52.865-1.9853zm51.956-13.011c41.775 0 48.721 0.20775 49.785 1.489 1.6925 2.0394 2.6606 1.1822 3.4566-3.0606 0.47408-2.5271 0.20407-4.3112-0.90969-6.011l-1.5839-2.4173h-101.91l-1.6114 2.4594c-1.1328 1.7289-1.4017 3.4367-0.90546 5.75 1.004 4.6796 1.4497 5.1197 3.3988 3.3558 1.5193-1.3749 7.629-1.5651 50.278-1.5651z" fill="#c05555"/>
 <path d="m13.5 76.845c-3.8345-2.0973-4.5-3.997-4.5-12.845 0-13.834-5.8705-12.5 55.008-12.5h52.169l1.9116 2.3608c1.5591 1.9255 1.9116 3.9866 1.9116 11.177 0 14.067 4.666 12.968-54.885 12.931-33.976-0.020823-50.246-0.37521-51.615-1.1243zm50.706-13.845c43.16 0 48.695 0.17653 49.869 1.5903 1.2 1.4459 1.4381 1.4286 2.6224-0.19113 1.9672-2.6902 1.6046-8.0972-0.69739-10.399-1.9467-1.9467-3.3333-2-52-2-48.667 0-50.053 0.05333-52 2-2.1957 2.1957-2.6277 6.9587-0.92042 10.149 0.99104 1.8518 1.223 1.8874 2.8287 0.43426 1.545-1.3982 7.4159-1.583 50.298-1.583z" fill="#a36363"/>
 <path d="m14.501 76.952c-4.6507-1.4149-5.5012-3.4172-5.5012-12.952 0-13.834-5.8705-12.5 55.008-12.5h52.169l1.9116 2.3608c2.7717 3.4229 2.7721 17.855 6.5e-4 21.278l-1.911 2.3608-49.339 0.18227c-27.472 0.10149-50.668-0.22207-52.338-0.73007zm49.705-13.952c43.16 0 48.695 0.17653 49.869 1.5903 1.2 1.4459 1.4381 1.4286 2.6224-0.19113 1.9672-2.6902 1.6046-8.0972-0.69739-10.399-1.9467-1.9467-3.3333-2-52-2-48.667 0-50.053 0.05333-52 2-2.1957 2.1957-2.6277 6.9587-0.92042 10.149 0.99104 1.8518 1.223 1.8874 2.8287 0.43426 1.545-1.3982 7.4159-1.583 50.298-1.583z" fill="#bd5656"/>
 <path d="m14.501 76.952c-4.6632-1.4187-5.5012-3.4098-5.5012-13.072 0-6.6098 0.38266-9.1201 1.5714-10.309 0.86428-0.86429 1.9893-1.5714 2.5-1.5714 0.51071 0 0.028571 0.9-1.0714 2-2.3019 2.3019-2.6645 7.7089-0.69739 10.399 1.1844 1.6197 1.4224 1.6371 2.6224 0.19113 1.1735-1.4139 6.7266-1.5903 50.075-1.5903 43.348 0 48.901 0.17636 50.075 1.5903 1.2 1.4459 1.4381 1.4286 2.6224-0.19113 1.9672-2.6902 1.6046-8.0972-0.69739-10.399-1.9538-1.9538-1.5918-2.6984 0.6003-1.2347 2.3624 1.5774 3.3997 5.4092 3.3997 12.558 0 5.849-0.41167 7.9635-1.911 9.8157l-1.911 2.3608-49.339 0.18227c-27.472 0.10149-50.668-0.22207-52.338-0.73007z" fill="#d54747"/>
 <path d="m14.501 76.952c-4.6632-1.4187-5.5012-3.4098-5.5012-13.072 0-6.6098 0.38266-9.1201 1.5714-10.309 0.86428-0.86429 1.9893-1.5714 2.5-1.5714 0.51071 0 0.028571 0.9-1.0714 2-2.1046 2.1046-2.3724 4.1143-1.3624 10.224l0.6156 3.7239 1.946-2.4739 1.946-2.4739h97.71l1.946 2.4739 1.946 2.4739 0.6156-3.7239c1.01-6.1096 0.74217-8.1193-1.3624-10.224-1.9538-1.9538-1.5918-2.6984 0.6003-1.2347 2.3624 1.5774 3.3997 5.4092 3.3997 12.558 0 5.849-0.41167 7.9635-1.911 9.8157l-1.911 2.3608-49.339 0.18227c-27.472 0.10149-50.668-0.22207-52.338-0.73007z" fill="#e24040"/>
 <path d="m14.501 76.952c-4.6632-1.4187-5.5012-3.4098-5.5012-13.072 0-6.6098 0.38266-9.1201 1.5714-10.309 0.86428-0.86429 1.9893-1.5714 2.5-1.5714 0.51071 0-0.02687 0.95544-1.1946 2.1232-1.8449 1.8449-2.0383 2.8456-1.4754 7.6354 0.7788 6.6264 1.791 8.6623 2.6009 5.2313l0.58779-2.4899h100.82l0.58779 2.4899c0.80993 3.4309 1.8221 1.395 2.6009-5.2313 0.56293-4.7897 0.36957-5.7904-1.4754-7.6354-2.0539-2.0539-1.771-2.859 0.4771-1.3579 2.3624 1.5774 3.3997 5.4092 3.3997 12.558 0 5.849-0.41167 7.9635-1.911 9.8157l-1.911 2.3608-49.339 0.18227c-27.472 0.10149-50.668-0.22207-52.338-0.73007z" fill="#c54848"/>
 <path d="m14.501 76.952c-4.6632-1.4187-5.5012-3.4098-5.5012-13.072 0-6.6098 0.38266-9.1201 1.5714-10.309 0.86428-0.86429 1.9893-1.5714 2.5-1.5714 0.51071 0-0.02849 0.95707-1.1982 2.1268-1.8131 1.8131-2.0454 2.9155-1.5749 7.4743 0.67594 6.5493 1.8689 8.9267 2.7041 5.3888l0.58779-2.4899h100.82l0.58779 2.4899c0.83517 3.5379 2.0282 1.1604 2.7041-5.3888 0.47051-4.5588 0.23823-5.6612-1.5749-7.4743-2.0568-2.0568-1.7762-2.8637 0.47349-1.3615 2.3624 1.5774 3.3997 5.4092 3.3997 12.558 0 5.849-0.41167 7.9635-1.911 9.8157l-1.911 2.3608-49.339 0.18227c-27.472 0.10149-50.668-0.22207-52.338-0.73007z" fill="#dd3c3c"/>
 <path d="m14.501 76.952c-4.6632-1.4187-5.5012-3.4098-5.5012-13.072 0-6.6098 0.38266-9.1201 1.5714-10.309 0.86428-0.86429 1.9893-1.5714 2.5-1.5714 0.51071 0 0.028571 0.9-1.0714 2-1.1922 1.1922-1.9922 3.3127-1.9807 5.25 0.02841 4.7867 2.3897 13.078 3.8039 13.358 0.67475 0.13325 0.76556 0.01352 0.20182-0.26606-1.1326-0.56172-1.3636-4.2958-0.41801-6.7599 0.54225-1.4131 5.9172-1.5818 50.393-1.5818s49.851 0.16871 50.393 1.5818c0.94555 2.464 0.71464 6.1982-0.41801 6.7599-0.56375 0.27958-0.47293 0.39931 0.20182 0.26606 1.4142-0.27928 3.7755-8.571 3.8039-13.358 0.0115-1.9373-0.78851-4.0578-1.9807-5.25-1.9538-1.9538-1.5918-2.6984 0.6003-1.2347 2.3624 1.5774 3.3997 5.4092 3.3997 12.558 0 5.849-0.41167 7.9635-1.911 9.8157l-1.911 2.3608-49.339 0.18227c-27.472 0.10149-50.668-0.22207-52.338-0.73007z" fill="#a05959"/>
 <path d="m11 75c-1.7013-1.7013-2-3.3333-2-10.929 0-6.7836 0.37752-9.3061 1.5714-10.5 0.86428-0.86429 1.9893-1.5714 2.5-1.5714 0.51071 0 0.028571 0.9-1.0714 2-1.1922 1.1922-1.9922 3.3127-1.9807 5.25 0.02841 4.7867 2.3897 13.078 3.8039 13.358 0.67475 0.13325 0.76556 0.01352 0.20182-0.26606-1.1326-0.56172-1.3636-4.2958-0.41801-6.7599 0.54225-1.4131 5.9172-1.5818 50.393-1.5818s49.851 0.16871 50.393 1.5818c0.94555 2.464 0.71464 6.1982-0.41801 6.7599-0.56375 0.27958-0.47293 0.39931 0.20182 0.26606 1.4142-0.27928 3.7755-8.571 3.8039-13.358 0.0115-1.9373-0.78851-4.0578-1.9807-5.25-1.9538-1.9538-1.5918-2.6984 0.6003-1.2347 2.3003 1.536 3.3997 5.3306 3.3997 11.735s-1.0994 10.199-3.3997 11.735c-0.60517 0.40408-24.163 0.74158-52.35 0.75-49.927 0.014918-51.302-0.036306-53.25-1.9847z" fill="#ba4a4a"/>
 <path d="m11.189 74.961c-1.9498-1.8166-2.1753-2.9891-2.0666-10.75 0.12059-8.6143 0.13142-8.6499 0.97505-3.211 1.221 7.8718 2.3343 11.335 3.7325 11.61 0.67126 0.13209 0.75923 0.01141 0.19548-0.26817-1.1326-0.56172-1.3636-4.2958-0.41801-6.7599 0.54225-1.4131 5.9172-1.5818 50.393-1.5818s49.851 0.16871 50.393 1.5818c0.94555 2.464 0.71464 6.1982-0.41801 6.7599-0.56375 0.27958-0.47293 0.39931 0.20182 0.26606 1.4375-0.28389 3.7761-8.6013 3.8039-13.529 0.0106-1.8817-0.54321-4.1537-1.2307-5.049-0.6875-0.89526-0.2375-0.5681 1 0.72702 3.7648 3.9401 2.9734 18.725-1.1497 21.478-0.60517 0.40408-24.078 0.74158-52.162 0.75-50.015 0.015-51.106-0.02646-53.25-2.0236zm-1.1886-20.339c0-0.20766 0.7875-0.99516 1.75-1.75 1.5861-1.2439 1.6214-1.2085 0.37756 0.37756-1.3064 1.6657-2.1276 2.1955-2.1276 1.3724z" fill="#d83939"/>
 <path d="m11.189 74.961c-1.9524-1.8189-2.1739-2.9791-2.0524-10.75 0.0749-4.7911 0.30044-7.586 0.5012-6.211 0.95205 6.5205 2.6834 13.621 3.5964 14.75 0.78439 0.9697 12.168 1.25 50.766 1.25 38.616 0 49.974-0.27985 50.733-1.25 1.3325-1.7029 3.2668-9.9118 3.2668-13.864 0-1.7756-0.5625-3.9609-1.25-4.8562-0.6875-0.89526-0.2375-0.5681 1 0.72702 3.7648 3.9401 2.9734 18.725-1.1497 21.478-0.60517 0.40408-24.078 0.74158-52.162 0.75-50.015 0.015-51.106-0.02646-53.25-2.0236zm3.0614-2.6233c-1.3215-0.53325-1.6612-4.1025-0.64301-6.7559 0.54225-1.4131 5.9172-1.5818 50.393-1.5818s49.851 0.16871 50.393 1.5818c1.105 2.8795 0.63044 6.1952-0.9748 6.8112-1.8895 0.72506-97.366 0.67182-99.168-0.05529zm-4.25-17.715c0-0.20766 0.7875-0.99516 1.75-1.75 1.5861-1.2439 1.6214-1.2085 0.37756 0.37756-1.3064 1.6657-2.1276 2.1955-2.1276 1.3724z" fill="#d43a3a"/>
 <path d="m11.189 74.961c-1.9505-1.8172-2.1749-2.9864-2.0627-10.75l0.12583-8.711 1.1242 7.6193c0.61829 4.1906 1.7418 8.3531 2.4966 9.25 1.235 1.4674 6.3531 1.6307 51.095 1.6307 46.088 0 49.838-0.12791 51.297-1.75 2.2675-2.5198 3.4487-15.724 1.6169-18.075-0.75996-0.97533-0.36924-0.71368 0.86826 0.58145 3.7648 3.9401 2.9734 18.725-1.1497 21.478-0.60517 0.40408-24.078 0.74158-52.162 0.75-50.015 0.015-51.106-0.02646-53.25-2.0236zm3.0614-2.6233c-1.3215-0.53325-1.6612-4.1025-0.64301-6.7559 0.54225-1.4131 5.9172-1.5818 50.393-1.5818s49.851 0.16871 50.393 1.5818c1.105 2.8795 0.63044 6.1952-0.9748 6.8112-1.8895 0.72506-97.366 0.67182-99.168-0.05529zm-4.25-17.715c0-0.20766 0.7875-0.99516 1.75-1.75 1.5861-1.2439 1.6214-1.2085 0.37756 0.37756-1.3064 1.6657-2.1276 2.1955-2.1276 1.3724z" fill="#e03232"/>
 <path d="m11.189 74.961c-1.9505-1.8172-2.1749-2.9864-2.0627-10.75l0.12583-8.711 1.1242 7.6193c0.61829 4.1906 1.7418 8.3531 2.4966 9.25 1.235 1.4674 6.3531 1.6307 51.095 1.6307 46.088 0 49.838-0.12791 51.297-1.75 2.2675-2.5198 3.4487-15.724 1.6169-18.075-0.75996-0.97533-0.36924-0.71368 0.86826 0.58145 3.7648 3.9401 2.9734 18.725-1.1497 21.478-0.60517 0.40408-24.078 0.74158-52.162 0.75-50.015 0.015-51.106-0.02646-53.25-2.0236zm2.1486-4.5248c-0.33004-0.86007-0.10057-2.6601 0.50995-4l1.11-2.4362h98.086l1.11 2.4362c2.6286 5.7692 4.48 5.5638-50.153 5.5638-44.485 0-50.13-0.17422-50.663-1.5638zm-3.3372-15.814c0-0.20766 0.7875-0.99516 1.75-1.75 1.5861-1.2439 1.6214-1.2085 0.37756 0.37756-1.3064 1.6657-2.1276 2.1955-2.1276 1.3724z" fill="#b94444"/>
 <path d="m11.174 74.686c-1.6874-1.7961-2.1709-3.5317-2.159-7.75 0.010926-3.8783 0.29303-5.0058 0.98469-3.9355 0.53316 0.825 0.97626 2.8928 0.98469 4.595 0.032689 6.6071-1.6453 6.405 53.189 6.405 57.942 0 52.818 1.1458 53.131-11.88 0.16211-6.7376 0.40518-7.8175 1.4449-6.4193 0.71576 0.96258 1.25 4.6192 1.25 8.5557 0 6.6237-1.08 10.429-3.3997 11.978-0.60517 0.40408-24.084 0.74158-52.176 0.75l-51.076 0.015313zm2.1628-4.2493c-0.33004-0.86007-0.10057-2.6601 0.50995-4l1.11-2.4362h98.086l1.11 2.4362c2.6286 5.7692 4.48 5.5638-50.153 5.5638-44.485 0-50.13-0.17422-50.663-1.5638z" fill="#d23535"/>
 <path d="m11.174 74.686c-1.6874-1.7961-2.1709-3.5317-2.159-7.75 0.010926-3.8783 0.29303-5.0058 0.98469-3.9355 0.53316 0.825 0.97626 3.0975 0.98469 5.05 0.0084 1.9525 0.55531 4.09 1.2153 4.75 1.8876 1.8876 102.13 1.7135 103.7-0.18015 0.62998-0.75908 1.2476-5.254 1.3724-9.9888 0.18852-7.1486 0.43902-8.3237 1.477-6.9287 0.71587 0.9621 1.25 4.6175 1.25 8.5546 0 6.6237-1.08 10.429-3.3997 11.978-0.60517 0.40408-24.084 0.74158-52.176 0.75l-51.076 0.015313zm2.1628-4.2493c-0.33004-0.86007-0.10057-2.6601 0.50995-4l1.11-2.4362h98.086l1.11 2.4362c2.6286 5.7692 4.48 5.5638-50.153 5.5638-44.485 0-50.13-0.17422-50.663-1.5638z" fill="#b44141"/>
 <path d="m11.635 74.927c-2.2171-1.744-2.6349-2.8632-2.6349-7.059 0-3.0696 0.3844-4.7489 1-4.3684 0.55 0.33992 1 2.3015 1 4.359s0.54 4.281 1.2 4.941c1.7747 1.7747 102.12 1.7263 103.58-0.05 0.56241-0.6875 1.3448-4.7317 1.7387-8.9872 0.87648-9.4691 2.4836-9.2349 2.4836 0.36191 0 6.7432-1.0699 10.554-3.3997 12.11-0.60517 0.40408-23.877 0.74158-51.715 0.75-49.704 0.01504-50.663-0.02201-53.25-2.0573zm1.7023-4.4912c-0.33004-0.86007-0.10057-2.6601 0.50995-4l1.11-2.4362h98.086l1.11 2.4362c2.6286 5.7692 4.48 5.5638-50.153 5.5638-44.485 0-50.13-0.17422-50.663-1.5638z" fill="#e02a2a"/>
 <path d="m11.635 74.927c-2.2171-1.744-2.6349-2.8632-2.6349-7.059 0-3.0696 0.3844-4.7489 1-4.3684 0.55 0.33992 1 2.3015 1 4.359s0.54 4.281 1.2 4.941c1.7747 1.7747 102.12 1.7263 103.58-0.05 0.56241-0.6875 1.3448-4.7317 1.7387-8.9872 0.87648-9.4691 2.4836-9.2349 2.4836 0.36191 0 6.7432-1.0699 10.554-3.3997 12.11-0.60517 0.40408-23.877 0.74158-51.715 0.75-49.704 0.01504-50.663-0.02201-53.25-2.0573zm2.7583-4.3453c-0.30322-0.79019-0.40323-2.4819-0.22224-3.7594l0.32908-2.3227h99v7l-49.278 0.25944c-42.083 0.22156-49.358 0.04968-49.829-1.1773z" fill="#c53636"/>
 <path d="m11.491 74.746c-2.2914-1.971-2.5784-2.8817-2.2845-7.25l0.33612-4.9959 0.78251 4c1.4877 7.605-3.1708 6.9718 53.404 7.259 42.06 0.21356 51.21 0.02003 52.142-1.1028 0.62163-0.74902 1.42-4.7895 1.7741-8.9789 0.79336-9.3855 2.3555-9.0887 2.3555 0.4475 0 6.7432-1.0699 10.554-3.3997 12.11-0.60517 0.40408-23.913 0.74158-51.795 0.75l-50.694 0.015313zm2.9022-4.1637c-0.30322-0.79019-0.40323-2.4819-0.22224-3.7594l0.32908-2.3227h99v7l-49.278 0.25944c-42.083 0.22156-49.358 0.04968-49.829-1.1773z" fill="#a34545"/>
 <path d="m11.491 74.746c-2.2914-1.971-2.5784-2.8817-2.2845-7.25l0.33612-4.9959 0.78251 4c1.4877 7.605-3.1708 6.9718 53.404 7.259 41.232 0.20936 51.221 0.0064 52.105-1.0588 0.60151-0.72477 1.4722-4.8913 1.9348-9.259l0.84113-7.9412 0.78686 6.1942c0.43277 3.4068 0.48496 7.5688 0.11597 9.2488-1.3639 6.2097 0.02688 6.057-55.179 6.057h-50.222zm2.9022-4.1637c-0.30322-0.79019-0.40323-2.4819-0.22224-3.7594l0.32908-2.3227h99v7l-49.278 0.25944c-42.083 0.22156-49.358 0.04968-49.829-1.1773z" fill="#b13a3a"/>
 <path d="m11.455 74.545c-1.8516-1.8516-2.4508-3.5097-2.4392-6.75 0.0112-3.1418 0.27566-3.8926 0.98469-2.7955 0.53316 0.825 0.97626 2.6475 0.98469 4.05 0.0084 1.4025 0.55531 3.09 1.2153 3.75 1.7749 1.7749 102.14 1.7264 103.55-0.05 0.54797-0.6875 1.3056-3.3875 1.6837-6 0.99309-6.8622 2.925-6.1067 2.3426 0.91613-0.82573 9.9572 2.8763 9.3339-55.434 9.3339h-50.435zm2.9386-3.9633c-0.30322-0.79019-0.40323-2.4819-0.22224-3.7594l0.32908-2.3227h99v7l-49.278 0.25944c-42.083 0.22156-49.358 0.04968-49.829-1.1773z" fill="#df2121"/>
 <path d="m11.455 74.545c-1.8516-1.8516-2.4508-3.5097-2.4392-6.75 0.0112-3.1418 0.27566-3.8926 0.98469-2.7955 0.53316 0.825 0.97626 2.6475 0.98469 4.05 0.0084 1.4025 0.55531 3.09 1.2153 3.75 1.7749 1.7749 102.14 1.7264 103.55-0.05 0.54797-0.6875 1.3056-3.3875 1.6837-6 0.99309-6.8622 2.925-6.1067 2.3426 0.91613-0.82573 9.9572 2.8763 9.3339-55.434 9.3339h-50.435zm3.7955-3.2077c-0.6875-0.27741-1.25-1.8169-1.25-3.4211v-2.9167h100v2.893c0 1.7156-0.64379 3.1401-1.5818 3.5-1.8894 0.72502-95.366 0.67183-97.168-0.055292z" fill="#c42c2c"/>
 <path d="m11.455 74.545c-1.9005-1.9005-2.4277-3.4241-2.3358-6.75l0.11879-4.2955 1.1631 4.8972c0.87063 3.6658 1.7611 5.1184 3.5412 5.777 1.308 0.48384 24.598 0.75508 51.755 0.60276 55.256-0.30993 50.774 0.38309 51.916-8.027 0.92341-6.8 2.7412-6.0308 2.1652 0.91613-0.82573 9.9572 2.8763 9.3339-55.434 9.3339h-50.435zm3.7955-3.2077c-0.6875-0.27741-1.25-1.8169-1.25-3.4211v-2.9167h100v2.893c0 1.7156-0.64379 3.1401-1.5818 3.5-1.8894 0.72502-95.366 0.67183-97.168-0.055292z" fill="#a23c3c"/>
 <path d="m13.315 76.007c-2.9434-1.2048-4.3396-4.0964-4.1966-8.6913l0.11879-3.8157 1.1631 4.8972c0.87063 3.6658 1.7611 5.1184 3.5412 5.777 2.8874 1.0681 100.58 0.64343 101.66-0.44197 0.42191-0.42227 1.3214-3.3473 1.9989-6.5l1.2318-5.7322 0.0838 5.5589c0.154 10.214 4.5715 9.4119-53.085 9.6418-27.822 0.1109-51.308-0.1993-52.516-0.69359zm1.9346-4.6693c-0.6875-0.27741-1.25-1.8169-1.25-3.4211v-2.9167h100v2.893c0 1.7156-0.64379 3.1401-1.5818 3.5-1.8894 0.72502-95.366 0.67183-97.168-0.055292z" fill="#b43333"/>
 <path d="m13.235 75.977c-2.3863-0.97346-4.2458-4.6274-4.2201-8.2926 0.012456-1.7773 0.19615-1.9051 0.98469-0.6849 0.53316 0.825 0.97626 2.5236 0.98469 3.7748 0.0103 1.5299 0.87852 2.6029 2.6514 3.277 2.9342 1.1156 100.74 0.90712 101.86-0.2171 0.36558-0.36594 1.2626-2.8409 1.9933-5.5l1.3286-4.8347 0.0894 4.5589c0.17738 9.0432 4.0419 8.4141-53.079 8.6418-29.002 0.1156-51.291-0.19085-52.596-0.72316zm2.0145-4.6398c-0.6875-0.27741-1.25-1.8169-1.25-3.4211v-2.9167h100v2.893c0 1.7156-0.64379 3.1401-1.5818 3.5-1.8894 0.72502-95.366 0.67183-97.168-0.055292z" fill="#de1c1c"/>
 <path d="m13.235 75.977c-2.3863-0.97346-4.2458-4.6274-4.2201-8.2926 0.012456-1.7773 0.19615-1.9051 0.98469-0.6849 0.53316 0.825 0.97626 2.5236 0.98469 3.7748 0.0103 1.5299 0.87852 2.6029 2.6514 3.277 2.9342 1.1156 100.74 0.90712 101.86-0.2171 0.36558-0.36594 1.2626-2.8409 1.9933-5.5l1.3286-4.8347 0.0894 4.5589c0.17738 9.0432 4.0419 8.4141-53.079 8.6418-29.002 0.1156-51.291-0.19085-52.596-0.72316zm1.1298-6.468c-0.31858-0.83019-0.31858-2.1887 0-3.0189 0.50752-1.3226 6.68-1.4773 49.857-1.25l49.278 0.25944v5l-49.278 0.25944c-43.177 0.22732-49.349 0.07257-49.857-1.25z" fill="#be2929"/>
 <path d="m13.235 75.977c-2.4228-0.98834-4.2924-4.7284-4.1453-8.2926 0.061681-1.4943 0.39771-1.0786 1.0631 1.3151 0.5351 1.925 1.7055 4.0625 2.6009 4.75 2.3626 1.814 100.1 1.814 102.57 0 0.93662-0.6875 2.0983-3.275 2.5816-5.75l0.87862-4.5 0.10956 4.5589c0.2173 9.0415 4.0696 8.414-53.059 8.6418-29.002 0.1156-51.291-0.19085-52.596-0.72316zm1.1298-6.468c-0.31858-0.83019-0.31858-2.1887 0-3.0189 0.50752-1.3226 6.68-1.4773 49.857-1.25l49.278 0.25944v5l-49.278 0.25944c-43.177 0.22732-49.349 0.07257-49.857-1.25z" fill="#b42c2c"/>
 <path d="m13.272 75.804c-2.2384-1.0948-3.9668-4.4423-2.8633-5.5457 0.32522-0.32522 0.59131 0.14286 0.59131 1.0402 0 0.89732 0.87042 2.0973 1.9343 2.6667 3.0139 1.613 100.18 1.409 102.35-0.21482 0.91816-0.6875 2.084-3.05 2.5907-5.25l0.9213-4 0.10045 4.0589c0.0553 2.2324-0.53806 4.9324-1.3184 6-1.3686 1.8724-3.2023 1.9481-51.75 2.1378-34.665 0.13546-51.025-0.14249-52.559-0.893zm1.0932-6.2942c-0.31858-0.83019-0.31858-2.1887 0-3.0189 0.50752-1.3226 6.68-1.4773 49.857-1.25l49.278 0.25944v5l-49.278 0.25944c-43.177 0.22732-49.349 0.07257-49.857-1.25z" fill="#a23131"/>
 <path d="m11.571 74.429c-0.86429-0.86428-1.5359-2.3268-1.4925-3.25 0.064245-1.366 0.17879-1.3992 0.61503-0.17857 1.4137 3.9556 2.005 4 53.306 4 38.137 0 50.004-0.28922 51.287-1.25 0.91816-0.6875 2.084-3.05 2.5907-5.25l0.9213-4 0.10045 4.095c0.19095 7.7843 2.9905 7.405-54.657 7.405-45.121 0-51.284-0.18386-52.671-1.5714zm2.7938-4.9191c-0.31858-0.83019-0.31858-2.1887 0-3.0189 0.50752-1.3226 6.68-1.4773 49.857-1.25l49.278 0.25944v5l-49.278 0.25944c-43.177 0.22732-49.349 0.07257-49.857-1.25z" fill="#dd1212"/>
 <path d="m11.571 74.429c-0.86429-0.86428-1.5359-2.3268-1.4925-3.25 0.064245-1.366 0.17879-1.3992 0.61503-0.17857 1.4137 3.9556 2.005 4 53.306 4 38.137 0 50.004-0.28922 51.287-1.25 0.91816-0.6875 2.084-3.05 2.5907-5.25l0.9213-4 0.10045 4.095c0.19095 7.7843 2.9905 7.405-54.657 7.405-45.121 0-51.284-0.18386-52.671-1.5714zm3.6121-6.1786 0.31642-2.75h97l0.31642 2.75 0.31642 2.75h-98.266z" fill="#b22"/>
 <path d="m12.344 75.235c-0.63559-0.40408 22.041-0.61026 50.392-0.45819 57.535 0.30861 54.771 0.6386 55.541-6.6326l0.38593-3.6439 0.16811 4.095c0.31942 7.7811 3.0742 7.407-54.411 7.3897-28.007-0.0084-51.441-0.34592-52.077-0.75zm2.8392-6.9847 0.31642-2.75h97l0.31642 2.75 0.31642 2.75h-98.266z" fill="#aa2525"/>
 <path d="m12.344 75.235c-0.63559-0.40408 22.041-0.61026 50.392-0.45819 47.127 0.25278 51.707 0.1323 53.406-1.405 1.0368-0.9383 1.858-1.1866 1.858-0.56168 0 0.61589-0.87042 1.5856-1.9343 2.155-2.2373 1.1974-101.85 1.4566-103.72 0.26987zm2.8392-6.9847 0.31642-2.75h97l0.31642 2.75 0.31642 2.75h-98.266z" fill="#b02121"/>
 <path d="m115.4 74.146c2.1163-2.3835 2.595-2.6013 2.595-1.1807 0 0.53065-1.0125 1.4961-2.25 2.1455-2.2379 1.1744-2.2398 1.1692-0.34501-0.96482zm-100.22-5.8955 0.31642-2.75h97l0.31642 2.75 0.31642 2.75h-98.266z" fill="#dc0a0a"/>
 <path d="m115.4 74.146c2.1163-2.3835 2.595-2.6013 2.595-1.1807 0 0.53065-1.0125 1.4961-2.25 2.1455-2.2379 1.1744-2.2398 1.1692-0.34501-0.96482zm-99.729-3.8027c-0.37189-0.37189-0.67616-1.5012-0.67616-2.5095 0-1.7529 2.1536-1.8333 49.07-1.8333h49.07l-0.31955 2.25-0.31955 2.25-48.074 0.2595c-26.441 0.14272-48.378-0.04478-48.75-0.41667z" fill="#b31d1d"/>
 <path d="m15.676 70.343c-0.37189-0.37189-0.67616-1.5012-0.67616-2.5095 0-1.7529 2.1536-1.8333 49.07-1.8333h49.07l-0.31955 2.25-0.31955 2.25-48.074 0.2595c-26.441 0.14272-48.378-0.04478-48.75-0.41667z" fill="#dc0808"/>
 <path d="m15 68c0-1.9728 0.66667-2 49-2 48.333 0 49 0.02721 49 2 0 1.9728-0.66667 2-49 2-48.333 0-49-0.02721-49-2z" fill="#aa1e1e"/>
 <path d="m15 68c0-1.9728 0.66667-2 49-2 48.333 0 49 0.02721 49 2 0 1.9728-0.66667 2-49 2-48.333 0-49-0.02721-49-2z" fill="#db0000"/>
</svg>
