<?xml version="1.0" encoding="UTF-8" standalone="no"?>
<!-- Created with Inkscape (http://www.inkscape.org/) -->

<svg
   xmlns:dc="http://purl.org/dc/elements/1.1/"
   xmlns:cc="http://creativecommons.org/ns#"
   xmlns:rdf="http://www.w3.org/1999/02/22-rdf-syntax-ns#"
   xmlns:svg="http://www.w3.org/2000/svg"
   xmlns="http://www.w3.org/2000/svg"
   xmlns:sodipodi="http://sodipodi.sourceforge.net/DTD/sodipodi-0.dtd"
   xmlns:inkscape="http://www.inkscape.org/namespaces/inkscape"
   width="20"
   height="20"
   version="1.1"
   viewBox="-0.4 0 20 20"
   id="svg4578"
   sodipodi:docname="stopjob_20x20.svg"
   inkscape:version="0.92.2 5c3e80d, 2017-08-06">
  <defs
     id="defs4582" />
  <sodipodi:namedview
     pagecolor="#ffffff"
     bordercolor="#666666"
     borderopacity="1"
     objecttolerance="10"
     gridtolerance="10"
     guidetolerance="10"
     inkscape:pageopacity="0"
     inkscape:pageshadow="2"
     inkscape:window-width="1321"
     inkscape:window-height="852"
     id="namedview4580"
     showgrid="false"
     viewbox-x="-0.4"
     inkscape:pagecheckerboard="true"
     inkscape:zoom="28.195883"
     inkscape:cx="9.8439327"
     inkscape:cy="10.985627"
     inkscape:window-x="0"
     inkscape:window-y="0"
     inkscape:window-maximized="0"
     inkscape:current-layer="svg4578"
     borderlayer="false"
     inkscape:showpageshadow="true"
     showborder="true" />
  <metadata
     id="metadata4560">
    <rdf:RDF>
      <cc:Work
         rdf:about="">
        <dc:format>image/svg+xml</dc:format>
        <dc:type
           rdf:resource="http://purl.org/dc/dcmitype/StillImage" />
        <dc:title />
      </cc:Work>
    </rdf:RDF>
  </metadata>
  <g
     id="g4518"
     transform="matrix(0.08231284,0,0,0.07670938,-0.75898488,18.371722)">
    <path
       style="fill:#feeaea"
       inkscape:connector-curvature="0"
       id="path4564"
       d="m 54,-28.75 c -7.2812,-3.6374 -6.9969,-0.41686 -6.9969,-79.248 0,-65.118 0.13348,-70.767 1.7484,-74 3.6374,-7.2812 0.41685,-6.9969 79.248,-6.9969 78.832,0 75.611,-0.28434 79.248,6.9969 1.615,3.2328 1.7484,8.8822 1.7484,74 0,78.832 0.28434,75.611 -6.9969,79.248 -3.2328,1.615 -8.8822,1.7484 -74,1.7484 -65.118,0 -70.767,-0.13348 -74,-1.7484 z" />
    <path
       style="fill:#fecece"
       inkscape:connector-curvature="0"
       id="path4566"
       d="m 54.5,-28.94 c -1.1,-0.45575 -2.9,-1.829 -4,-3.0517 -1.9619,-2.1806 -2,-3.6307 -2,-76.095 v -73.872 l 2.7727,-2.7727 2.7727,-2.7727 h 147.91 l 2.7727,2.7727 2.7727,2.7727 v 147.91 l -2.7724,2.7727 -2.7724,2.7727 -72.728,0.19667 c -40,0.10816 -73.628,-0.17622 -74.728,-0.63197 z" />
    <path
       style="fill:#feb3b3"
       inkscape:connector-curvature="0"
       id="path4568"
       d="m 55,-29.75 c -7.2741,-3.6338 -6.9969,-0.53358 -6.9969,-78.248 0,-64.166 0.1342,-69.769 1.7484,-73 3.6338,-7.2741 0.53358,-6.9969 78.248,-6.9969 77.715,0 74.615,-0.27722 78.248,6.9969 1.6142,3.2314 1.7484,8.8342 1.7484,73 0,77.715 0.27722,74.615 -6.9969,78.248 -3.2314,1.6142 -8.8342,1.7484 -73,1.7484 -64.166,0 -69.769,-0.13419 -73,-1.7484 z" />
    <path
       style="fill:#fe6a6a"
       inkscape:connector-curvature="0"
       id="path4570"
       d="M 52.4,-32.4 49,-35.8 v -144.4 l 3.4,-3.4 3.4,-3.4 h 144.4 l 3.4,3.4 3.4,3.4 v 144.4 l -3.4,3.4 -3.4,3.4 H 55.8 Z" />
    <path
       style="fill:#fe5454"
       inkscape:connector-curvature="0"
       id="path4572"
       d="m 52.636,-32.64 -2.6364,-2.6364 v -145.45 l 2.6364,-2.6364 2.6364,-2.6364 h 145.45 l 2.6364,2.6364 2.6364,2.6364 v 145.45 l -2.6364,2.6364 -2.6364,2.6364 h -145.45 z" />
    <path
       style="fill:#fe2929"
       inkscape:connector-curvature="0"
       id="path4574"
       d="m 55.02,-31.27 c -5.1226,-2.6139 -5.0291,-1.0841 -4.7656,-77.949 l 0.24588,-71.723 2.2778,-2.2774 2.2778,-2.2774 h 145.89 l 2.2778,2.2778 2.2778,2.2778 v 145.89 l -2.2774,2.2778 -2.2774,2.2778 -71.723,0.24588 c -56.27,0.19291 -72.257,-0.0268 -74.203,-1.0197 z" />
    <path
       style="fill:#fe0000"
       inkscape:connector-curvature="0"
       id="path4576"
       d="m 53.455,-33.45 -2.4545,-2.4545 v -144.18 l 2.4545,-2.4545 2.4545,-2.4545 h 144.18 l 2.4545,2.4545 2.4546,2.4545 v 144.18 l -2.4546,2.4545 -2.4545,2.4546 h -144.18 z" />
  </g>
</svg>
