<?xml version="1.0" encoding="UTF-8"?>
<!-- Created with Inkscape (http://www.inkscape.org/) -->
<svg width="245.33" height="245.33" version="1.1" viewBox="0 0 245.33333 245.33333" xmlns="http://www.w3.org/2000/svg" xmlns:cc="http://creativecommons.org/ns#" xmlns:dc="http://purl.org/dc/elements/1.1/" xmlns:rdf="http://www.w3.org/1999/02/22-rdf-syntax-ns#">
 <metadata>
  <rdf:RDF>
   <cc:Work rdf:about="">
    <dc:format>image/svg+xml</dc:format>
    <dc:type rdf:resource="http://purl.org/dc/dcmitype/StillImage"/>
    <dc:title/>
   </cc:Work>
  </rdf:RDF>
 </metadata>
 <g stroke-width="1.3333">
  <path d="m57.349 242.03c-1.4619-2.7315-1.5087-19.121-0.2701-94.511l1.4985-91.206 4.0716-12.711c5.1533-16.088 12.573-27.386 23.052-35.099 6.0083-4.423 9.2617-5.8966 13.446-6.0901 3.036-0.14037-0.18001-0.61187-7.1467-1.0478-6.9667-0.43591 11.633-0.78267 41.333-0.77058 37.765 0.015366 46.183 0.24328 28 0.75809l-26 0.73611 25.333 0.56546 25.333 0.56546-18.344 0.72423-18.344 0.72423 6.3444 4.6901c8.8042 6.5085 14.58 16.602 15.75 27.521 1.7886 16.702-3.2759 29.309-16.07 40.004l-5.912 4.9418 6.9553 3.9017c17.944 10.066 27.507 25.043 28.634 44.845 1.5462 27.163-9.8276 49.125-30.766 59.409-20.366 10.002-41.832 9.1982-55.913-2.0942l-5-4.01v28.825c0 23.204-0.37144 29.196-1.9048 30.729-1.4281 1.4281-5.7096 1.9048-17.108 1.9048-14.817 0-15.248-0.084-16.972-3.3046zm77.77-70.019c6.3853-5.6063 10.023-14.942 10.994-28.216 1.9592-26.776-10.138-50.863-24.432-48.643-15.489 2.4052-20.118 2.4927-24.199 0.457l-4.1485-2.0695v66.301l4.9459 0.41382c4.0115 0.33564 5.5902 1.3653 8.3558 5.4499 4.8668 7.1879 10.168 10.278 17.652 10.288 5.088 7e-3 7.1536-0.75217 10.832-3.9815zm-28.537-102.68c2.9592 0 8.0726 0.72004 11.363 1.6001 5.5591 1.4868 6.2135 1.3831 9.2453-1.465 5.3114-4.9898 6.4382-9.5102 5.938-23.822-0.39975-11.437-0.9028-13.832-3.7942-18.064-5.8719-8.5948-19.034-11.214-25.809-5.1365-6.6037 5.9241-9.6449 19.932-10.115 46.588l-0.07695 4.3676 3.9338-2.0342c2.1636-1.1188 6.355-2.0342 9.3142-2.0342z" fill="#f9f9f9"/>
  <path d="m58.143 243.22c-1.1498-2.9962-0.82581-117.56 0.44269-156.56 0.97549-29.989 1.3491-33.55 4.5577-43.438 7.3455-22.637 23.654-40.223 37.791-40.751l5.0662-0.18921-5.3333-0.90352c-2.9333-0.49693 15.367-0.87924 40.667-0.84957 37.613 0.044113 41.26 0.19052 20 0.80303-14.3 0.412-23.693 0.87945-20.872 1.0388 8.6368 0.48796 21.85 11.389 27.019 22.29 2.5876 5.4575 3.1633 8.8272 3.174 18.579 0.0164 15-2.3708 20.356-13.866 31.109l-8.3809 7.8399 7.3622 3.8546c9.3892 4.9159 20.185 15.493 24.077 23.588 10.815 22.499 4.3574 54.678-14.47 72.109-10.352 9.5839-19.378 13.122-35.571 13.942-14.741 0.74664-23.607-1.71-31.32-8.6776l-5.1518-4.6544v29.584c0 23.861-0.36843 29.952-1.9048 31.488-2.9177 2.9176-32.157 2.7382-33.286-0.20429zm76.409-69.589c1.8968-1.4082 5.2488-6.0597 7.4488-10.337 3.8199-7.4262 4-8.531 4-24.537 0-19.512-2.037-27.209-9.512-35.942-7.5601-8.8323-10.82-9.9912-20.818-7.4004-9.2394 2.3942-16.052 1.8554-19.835-1.5686-2.44-2.2081-2.5013-1.4291-2.5013 31.773v34.036l5.3126 0.84952c4.4643 0.71388 5.7323 1.6722 7.9412 6.002 5.0721 9.9421 19.29 13.564 27.964 7.1243zm-29.25-104.3c2.7179 0 7.8324 0.87001 11.366 1.9334 7.6525 2.3031 9.8466 1.4412 14.214-5.5832 2.699-4.3412 3.1192-6.7229 3.1192-17.684 0-10.25-0.53088-13.684-2.7826-18-3.6243-6.9464-10.133-11.333-16.814-11.333-8.2554 0-12.85 3.1972-16.709 11.628-2.9821 6.5137-3.4888 9.7637-4.0783 26.156l-0.67314 18.718 3.7086-2.9172c2.2996-1.8089 5.5861-2.9172 8.6503-2.9172z" fill="#fbf3f2"/>
  <path d="m58.143 243.22c-1.1624-3.0292-0.81629-105.07 0.50844-149.89 1.2144-41.089 2.1094-46.945 9.4761-62 7.665-15.665 22.361-28.416 33.206-28.812l4.6667-0.17027-4-0.96124c-2.2-0.52868 16.1-0.92656 40.667-0.88417 37.814 0.065245 40.678 0.19247 18.667 0.8293-14.3 0.41373-23.852 0.8826-21.228 1.0419 5.9987 0.36414 17.514 8.2205 23.443 15.995 5.4857 7.1922 7.101 13.031 7.1103 25.7 9e-3 13.141-3.9034 21.345-14.722 30.869l-7.7776 6.8461 8.0801 4.7736c10.911 6.4459 21.445 18.051 25.169 27.727 2.3112 6.0056 2.9726 10.517 2.9878 20.379 0.0292 18.848-4.322 31.03-15.539 43.506-11.049 12.289-27.697 18.64-45.986 17.543-10.811-0.6486-21.031-4.653-26.049-10.207-1.3813-1.5286-3.0313-2.4581-3.6667-2.0654-0.63532 0.39266-1.1551 13.529-1.1551 29.193 0 15.663-0.36419 29.428-0.80932 30.588-1.2043 3.1383-31.844 3.1383-33.048 0zm73.95-67.939c5.6218-2.9071 11.497-11.638 13.323-19.8 0.89262-3.9886 1.3465-13.31 1.0582-21.733-0.46964-13.721-0.82895-15.384-5.1561-23.861-3.2649-6.3964-6.3234-10.286-10.261-13.048l-5.6097-3.9353-9.9643 2.3466c-10.878 2.5617-18.18 1.4967-20.716-3.0214-2.419-4.3083-2.8189 1.4078-2.4573 35.124l0.3573 33.309 5.1199 0.66667c4.0975 0.53353 5.8282 1.7038 8.6667 5.8601 6.2832 9.2002 16.972 12.574 25.639 8.0921zm-33.372-103.98c4.9389-2.554 9.4029-2.4895 18.132 0.26203 6.8146 2.1481 7.1979 2.1353 9.9722-0.33333 5.0273-4.4735 7.7815-12.437 7.8052-22.567 0.0297-12.683-1.9821-18.999-7.9528-24.97-4.6449-4.6449-5.6139-5.0301-12.654-5.0301-6.8454 0-8.0722 0.4487-12.019 4.3959-2.4177 2.4177-5.1447 6.7677-6.0599 9.6667-1.6017 5.0735-3.3213 45.701-1.788 42.243 0.41325-0.9321 2.4674-2.5821 4.5647-3.6667z" fill="#faf0ee"/>
  <path d="m58.143 243.22c-1.1435-2.98-0.85812-91.547 0.46369-143.89 1.0082-39.925 1.3851-44.864 4.0693-53.333 3.614-11.403 6.8641-17.993 13.082-26.528 5.9954-8.2297 18.857-16.77 25.449-16.899 3.7043-0.072423 4.1929-0.32824 2.1504-1.126-1.4536-0.56777 16.846-0.99999 40.667-0.96049 37.775 0.062651 39.987 0.16954 17.31 0.83634-14.3 0.42048-24.002 0.89487-21.559 1.0542 6.048 0.39454 18.22 8.7325 23.634 16.19 5.9447 8.1878 7.7288 15.275 6.9883 27.761-0.76269 12.86-2.9725 17.275-13.99 27.949l-8.5426 8.2765 6.9577 3.5257c9.41 4.7684 20.449 15.49 24.479 23.775 8.9459 18.391 6.0012 46.598-6.661 63.805-16.704 22.7-52.615 29.399-73.232 13.662-3.3537-2.56-6.3925-4.6545-6.7528-4.6545s-0.65513 13.151-0.65513 29.224c0 16.073-0.36419 30.173-0.80932 31.333-1.2043 3.1383-31.844 3.1383-33.048 0zm78.603-71.3c7.2446-7.0217 10.256-16.692 10.357-33.257 0.11173-18.328-3.4356-29.737-11.869-38.17-7.1649-7.1649-10.287-7.9578-20.878-5.3016-9.7845 2.4539-16.251 1.3126-20.001-3.5297-2.222-2.8695-2.3086-1.4454-2.0049 33.001l0.31737 36 5.1199 0.66667c4.1414 0.53925 5.8045 1.686 8.7019 6 7.4657 11.116 21.351 13.222 30.257 4.5904zm-40.102-98.564c3.5554-3.9287 9.8991-4.5731 19.234-1.9539l8.2161 2.3053 3.4587-3.1887c5.3401-4.9233 7.115-10.632 7.115-22.884 0-9.3002-0.56656-12.251-3.471-18.08-4.0347-8.0965-8.7609-11.114-17.409-11.114-10.123 0-16.545 6.6017-18.99 19.522-1.8384 9.7129-3.1222 38.034-1.7242 38.034 0.64958 0 2.2564-1.1883 3.5708-2.6406z" fill="#f9ecea"/>
  <path d="m58.143 243.22c-1.1415-2.9748-0.86469-78.738 0.50145-137.22 1.2677-54.272 2.1338-60.413 10.818-76.706 7.3068-13.709 22.575-26.539 31.799-26.721 3.6779-0.072731 4.1472-0.32486 2.0961-1.126-1.4536-0.56777 16.846-0.99999 40.667-0.96049 37.775 0.062651 39.987 0.16954 17.31 0.83634-14.3 0.42048-24.118 0.89487-21.819 1.0542 6.0747 0.42086 19.581 9.9709 24.408 17.258 5.5623 8.3976 7.1474 15.112 6.4474 27.313-0.52179 9.0938-1.1512 11.126-5.4512 17.603-2.6737 4.0269-7.5509 9.3005-10.838 11.719-3.2873 2.4186-6.0003 4.7901-6.0289 5.2701-0.0287 0.48 3.2969 2.7627 7.3901 5.0728 10.622 5.9946 18.185 13.467 23.253 22.976 3.888 7.2947 4.4752 9.7697 5.0246 21.179 0.7188 14.927-0.93431 23.598-6.6934 35.107-14.75 29.477-57.018 39.775-80.094 19.514l-4.9323-4.3306v30.029c0 16.516-0.36419 30.978-0.80932 32.138-1.2043 3.1383-31.844 3.1383-33.048 0zm75.803-68.524c18.11-11.193 18.095-60.015-0.0237-75.923-5.8032-5.0953-10.105-6.2105-16.531-4.2853-2.7686 0.82951-7.9315 1.5082-11.473 1.5082-5.1806 0-7.1742-0.70437-10.201-3.6041l-3.7619-3.6041 0.35562 35.937 0.35562 35.937 5.0354 0.41594c4.2194 0.34852 5.5775 1.2747 8.3806 5.715 6.4174 10.166 18.607 13.623 27.863 7.9026zm-31.517-104.67c1.7221-0.52106 7.1394 0.05433 12.209 1.2968 10.971 2.6885 13.245 1.8451 17.232-6.3914 3.993-8.2485 3.9811-26.979-0.0225-35.25-4.4678-9.2293-13.39-13.475-22.922-10.909-11.071 2.9812-14.889 12.619-16.331 41.223l-0.90713 18 3.8231-3.5169c2.1027-1.9343 5.2162-3.9384 6.9187-4.4535z" fill="#f8e8e6"/>
  <path d="m58.143 243.22c-1.1237-2.9283-0.88729-65.23 0.49792-131.22 1.2635-60.194 1.7134-63.796 10.118-80.973 6.9011-14.105 23.213-28.251 32.813-28.454 3.5268-0.074619 3.8907-0.30405 1.7864-1.126-1.4536-0.56777 16.846-0.99999 40.667-0.96049 37.775 0.062651 39.987 0.16954 17.31 0.83634-14.3 0.42048-24.167 0.89487-21.928 1.0542 8.0152 0.57018 22.559 12.597 28.067 23.21 2.8523 5.4956 3.9747 21.285 2.0253 28.492-2.0847 7.7071-8.2834 16.413-16.028 22.511l-6.676 5.2565 7.304 4.0768c12.041 6.7207 19.936 14.465 24.782 24.308 3.8441 7.8085 4.441 10.478 4.9006 21.923 0.42241 10.517-0.0197 14.82-2.2912 22.298-6.2804 20.677-20.255 34.134-41.081 39.558-15.25 3.9722-29.943 1.3392-41.55-7.4458l-6.8585-5.191v29.87c0 16.429-0.36419 30.82-0.80932 31.98-1.2043 3.1383-31.844 3.1383-33.048 0zm76.276-68.595c3.0676-1.8702 5.7102-5.4356 8.6434-11.662 4.0336-8.5618 4.2212-9.6923 4.142-24.968-0.10533-20.316-2.9424-28.801-12.869-38.489-6.5008-6.3444-6.7866-6.4691-12.825-5.5929-19.653 2.8517-21.16 2.7381-25.514-1.9234l-4.0386-4.3233 0.35506 36.498 0.35506 36.498 5.3333 0.66667c4.4832 0.5604 5.752 1.4486 7.96 5.5722 5.2023 9.7159 19.034 13.47 28.458 7.724zm-32.385-103.97c3.7065-1.2233 6.0778-1.0918 12.151 0.67369 9.8407 2.8608 12.97 1.9227 17.101-5.1265 2.98-5.0851 3.3783-7.2614 3.3525-18.32-0.0217-9.3216-0.66457-13.948-2.4992-17.988-4.4766-9.8564-13.519-14.088-24.047-11.253-10.66 2.8705-14.215 12.316-15.427 40.991l-0.83268 19.7 2.798-3.5789c1.5389-1.9684 4.8704-4.2628 7.4033-5.0987z" fill="#f9e5e2"/>
  <path d="m57.831 241.8c-1.1072-4.4112 0.6193-140.85 2.1435-169.4 1.2653-23.698 4.0853-34.447 12.402-47.271 7.9411-12.244 21.091-22.38 29.263-22.555 3.4928-0.075077 3.8342-0.29901 1.717-1.126-1.4536-0.56777 16.846-0.99999 40.667-0.96049 37.775 0.062651 39.987 0.16954 17.31 0.83634-14.3 0.42048-24.321 0.89487-22.269 1.0542 4.8346 0.37541 16.419 7.8201 21.911 14.081 7.6412 8.711 8.8754 12.331 8.9535 26.259 0.0687 12.234-0.10587 13.01-4.5953 20.425-2.657 4.3887-7.6996 10.049-11.709 13.145l-7.0427 5.4364 7.0427 3.9812c12.399 7.0093 20.53 14.927 25.319 24.655 4.2408 8.6142 4.388 9.4618 4.3344 24.945-0.0463 13.346-0.55099 17.275-3.0169 23.484-9.0254 22.723-28.212 36.085-52.261 36.397-13.078 0.16968-20.777-2.2156-30.085-9.3201l-5.9153-4.5152v29.882c0 16.435-0.36419 30.831-0.80932 31.991-0.67512 1.7593-3.4346 2.109-16.641 2.109h-15.832zm76.587-67.173c3.0676-1.8702 5.7102-5.4356 8.6434-11.662 4.0336-8.5618 4.2212-9.6923 4.142-24.968-0.10533-20.315-2.9425-28.801-12.868-38.488-7.3438-7.1672-5.3161-6.8509-25.349-3.9543-7.351 1.0629-11.408-0.42344-14.357-5.2602l-2.6203-4.2976-5e-3 37.667-5e-3 37.667h4.6147c4.6672 0 9.2668 3.4256 10.712 7.9776 0.37954 1.1958 2.9364 3.4762 5.6819 5.0677 6.4675 3.7488 15.499 3.8547 21.41 0.25091zm-28.082-103.96c3.6297 0 8.4996 0.66239 10.822 1.472 6.3843 2.2256 10.311 0.57571 14.127-5.9357 2.98-5.0851 3.3783-7.2614 3.3525-18.32-0.0217-9.3216-0.66457-13.948-2.4992-17.988-4.4766-9.8564-13.519-14.088-24.047-11.253-10.619 2.8593-14.156 12.19-15.542 40.991l-0.94746 19.7 4.0672-4.3333c3.5266-3.7574 4.9443-4.3333 10.667-4.3333z" fill="#f6e5e2"/>
  <path d="m57.841 241.84c-1.0826-4.3133 0.66638-141.49 2.1655-169.84 1.2268-23.205 4.0648-34.003 12.32-46.872 7.7988-12.158 21.318-22.338 29.954-22.555 3.1778-0.080059 3.3347-0.24413 1.0769-1.126-1.4536-0.56777 16.846-0.99999 40.667-0.96049 37.775 0.062651 39.987 0.16954 17.31 0.83634-14.3 0.42048-24.321 0.89487-22.269 1.0542 4.9005 0.38052 16.444 7.8486 22.103 14.299 7.0005 7.9804 8.6957 13.134 8.7686 26.657 0.0579 10.738-0.31887 12.652-3.5821 18.203-2.0057 3.4119-7.2706 9.4828-11.7 13.491l-8.053 7.2875 7.4676 3.7782c10.331 5.2269 21.241 16.074 25.48 25.335 4.1923 9.1573 5.6392 26.443 3.1972 38.198-4.8242 23.221-22.85 40.844-46.22 45.187-14.397 2.6755-30.77-1.3846-38.618-9.5767-2.0568-2.1468-4.2273-3.9032-4.8234-3.9032-0.59613 0-1.0839 13.451-1.0839 29.891s-0.36419 30.84-0.80932 32c-0.67512 1.7593-3.4346 2.109-16.641 2.109h-15.832zm76.882-67.509c17.775-11.979 17.609-58.153-0.27139-75.26-6.3245-6.0512-9.9333-7.0874-17.119-4.9156-7.1498 2.1609-15.198 2.3652-18.729 0.4754-1.4047-0.75177-3.4412-3.0018-4.5256-5-1.7801-3.2802-1.9768 0.02553-2.025 34.034l-0.05338 37.667 4.3333 0.0204c5.3406 0.0252 6.3813 0.72903 10.079 6.8171 5.5442 9.1289 19.426 12.151 28.312 6.1625zm-26.378-103.19c4.5764 0.43378 10.497 1.1603 13.156 1.6145 4.3834 0.74864 5.1674 0.39078 8.3849-3.8276 6.5339-8.5663 7.3401-29.536 1.565-40.704-4.442-8.59-14.024-12.545-23.509-9.7034-10.532 3.1554-14.223 13.022-15.491 41.407l-0.86666 19.4 4.22-4.4879c4.1288-4.3909 4.3998-4.4708 12.541-3.6992z" fill="#e9e9e9"/>
  <path d="m58.812 243.14c-1.5624-1.7642-1.7012-13.799-0.87973-76.283 1.2592-95.782 2.1298-112.55 6.4947-125.06 7.3668-21.119 21.229-35.686 37.573-39.485 2.9333-0.68172 23.033-1.3648 44.667-1.518 31.995-0.22657 34.483-0.13195 13.333 0.5072-14.3 0.43216-24.021 0.91652-21.603 1.0764 5.4527 0.36037 16.784 7.4768 22.769 14.3 7.0005 7.9804 8.6957 13.134 8.7686 26.657 0.0579 10.738-0.31887 12.652-3.5821 18.203-2.0057 3.4119-7.2706 9.4828-11.7 13.491l-8.053 7.2875 7.4676 3.7782c10.331 5.2269 21.241 16.074 25.48 25.335 4.1923 9.1573 5.6392 26.443 3.1972 38.198-4.8242 23.221-22.85 40.844-46.22 45.187-14.397 2.6755-30.77-1.3846-38.618-9.5767-2.0568-2.1468-4.2273-3.9032-4.8234-3.9032-0.59613 0-1.0839 13.451-1.0839 29.891s-0.36419 30.84-0.80932 32c-1.1851 3.0883-29.635 3.0119-32.379-0.0871zm75.912-68.804c17.775-11.979 17.609-58.153-0.27139-75.26-6.3245-6.0512-9.9333-7.0874-17.119-4.9156-7.1498 2.1609-15.198 2.3652-18.729 0.4754-1.4047-0.75177-3.4412-3.0018-4.5256-5-1.7801-3.2802-1.9768 0.02553-2.025 34.034l-0.05338 37.667 4.3333 0.0204c5.3406 0.0252 6.3813 0.72903 10.079 6.8171 5.5442 9.1289 19.426 12.151 28.312 6.1625zm-26.378-103.19c4.5764 0.43378 10.497 1.1603 13.156 1.6145 4.3834 0.74864 5.1674 0.39078 8.3849-3.8276 6.5339-8.5663 7.3401-29.536 1.565-40.704-4.442-8.59-14.024-12.545-23.509-9.7034-10.532 3.1554-14.223 13.022-15.491 41.407l-0.86666 19.4 4.22-4.4879c4.1288-4.3909 4.3998-4.4708 12.541-3.6992z" fill="#f7e1dd"/>
  <path d="m58.646 241.28c-1.3429-3.2421-1.3749-21.943-0.1602-93.699 1.4082-83.188 1.712-90.35 4.2164-99.388 6.8054-24.558 21.56-41.868 39.095-45.863 3.0453-0.69395 23.237-1.3871 44.87-1.5403 31.995-0.22657 34.483-0.13195 13.333 0.5072-14.3 0.43216-24.326 0.91652-22.28 1.0764 9.3294 0.7289 23.043 11.362 28.637 22.206 2.9826 5.7807 3.4904 8.481 3.5328 18.784 0.0441 10.73-0.34212 12.701-3.567 18.203-1.989 3.394-7.2822 9.4883-11.763 13.543l-8.1461 7.3718 5.7928 2.917c20.718 10.433 31.793 27.423 31.793 48.776 0 31.678-18.857 55.469-48 60.557-14.777 2.58-30.208-1.2672-38.093-9.497-2.0568-2.1468-4.2273-3.9032-4.8234-3.9032-0.59613 0-1.0839 13.451-1.0839 29.891s-0.36419 30.84-0.80932 32c-0.67176 1.7506-3.3638 2.109-15.838 2.109h-15.029zm74.688-65.791c5.3714-2.4428 11.514-12.939 13.184-22.528 4.5572-26.169-2.9155-51.068-17.436-58.097-5.4262-2.6268-6.1768-2.6775-12.308-0.83223-12.12 3.6475-19.056 2.3021-22.694-4.4017-1.7802-3.2804-1.9768 0.01607-2.025 33.953l-0.05338 37.586 4.9592 0.41381c4.1475 0.34609 5.5805 1.3414 8.7551 6.0809 6.7156 10.026 16.613 12.83 27.619 7.8249zm-34.729-103.46c3.5888-1.9207 11.868-1.6991 19.223 0.51436 6.0235 1.8128 6.3916 1.7627 10.123-1.377 5.3523-4.5036 7.3144-11.207 7.2142-24.645-0.0712-9.5365-0.62709-12.444-3.2915-17.215-4.1493-7.43-8.8333-10.794-16.054-11.53-7.7618-0.7907-14.283 2.6585-18.062 9.5541-3.4927 6.3725-5.7791 22.66-5.7036 40.63 0.05032 11.973 0.16655 12.493 2.025 9.0685 1.0844-1.9982 3.1209-4.2482 4.5256-5z" fill="#f5ddd9"/>
  <path d="m59.436 242.33c-0.33839-1.65-0.96251-5.1727-1.3869-7.8283-0.42443-2.6555-0.14757-43.156 0.61524-90 1.2841-78.855 1.5896-85.962 4.1201-95.824 3.5504-13.838 9.5362-25.015 17.949-33.517 7.4344-7.5127 13.15-10.967 21.267-12.854 2.9333-0.68172 23.033-1.3648 44.667-1.518 31.995-0.22657 34.483-0.13195 13.333 0.5072-14.3 0.43216-24.326 0.91652-22.28 1.0764 8.9476 0.69908 22.332 10.931 28.056 21.448 3.2386 5.9504 3.6975 8.2526 3.7476 18.803 0.0731 15.374-2.545 21.14-14.495 31.926l-8.7324 7.8813 7.0294 3.5621c8.1299 4.1197 18.966 13.789 23.54 21.005 6.8386 10.789 8.9763 29.371 5.0938 44.277-6.2587 24.029-23.313 39.759-47.108 43.451-14.858 2.3052-30.269-1.9832-38.058-10.591-1.3961-1.5427-3.0454-2.8048-3.665-2.8048-0.61967 0-1.1267 13.451-1.1267 29.891s-0.36419 30.84-0.80932 32c-0.67235 1.7521-3.3758 2.109-15.975 2.109-14.656 0-15.186-0.1008-15.781-3zm69.974-64.999c5.9643-1.6569 10.915-6.7748 14.833-15.334 2.6981-5.8945 3.043-8.6744 2.9774-24-0.0557-13.028-0.64327-18.824-2.3652-23.333-3.5859-9.3909-8.2828-15.553-14.739-19.337-5.8616-3.4351-6.0428-3.4548-12.939-1.407-13.103 3.8911-20.716 1.9556-23.434-5.9579-1.3052-3.7988-1.6049 2.3831-1.6667 34.368l-0.07526 39h4.6044c3.4362 0 5.2122 0.8702 7 3.4299 5.428 7.7716 7.9891 10.105 13.062 11.9 6.4999 2.2996 6.8212 2.3165 12.742 0.67159zm-31.097-105c2.9994-2.2751 12.137-2.0953 19.144 0.37671 5.4106 1.909 6.0136 1.8779 9.1676-0.47271 5.2415-3.9063 7.8211-9.4658 8.7928-18.95 2.1817-21.295-6.7147-35.954-21.82-35.954-6.7051 0-13.542 4.5692-16.643 11.122-3.0919 6.5348-4.8635 20.577-4.9046 38.878-0.03152 14.03 0.05599 14.493 2.0164 10.667 1.1272-2.2 3.0381-4.75 4.2466-5.6667z" fill="#f3d9d5"/>
  <path d="m59.412 242.33c-1.5452-7.2533-1.6147-21.06-0.49816-99 1.2427-86.752 1.4427-89.495 7.7553-106.37 6.0689-16.22 21.583-31.57 34.978-34.607 3.1278-0.70904 23.387-1.4145 45.02-1.5677 31.995-0.22657 34.483-0.13195 13.333 0.5072-14.3 0.43216-24.143 0.91652-21.873 1.0764 5.2646 0.37077 19.137 9.2959 23.655 15.219 5.8816 7.7111 7.5522 13.424 7.5522 25.828 0 7.8827-0.68575 12.953-2.1768 16.095-2.7358 5.7653-12.402 16.605-17.004 19.068-1.9171 1.026-3.4856 2.354-3.4856 2.951 0 0.59706 3.1176 2.6654 6.9281 4.5963 10.169 5.1529 21.419 16.481 25.583 25.76 6.511 14.508 6.0289 34.74-1.2043 50.54-9.3179 20.353-27.435 32.164-49.974 32.577-12.713 0.23334-21.849-2.7805-29.894-9.8617l-6.106-5.3747v30.671c0 16.869-0.36419 31.62-0.80932 32.78-0.67235 1.7521-3.3758 2.109-15.975 2.109-14.649 0-15.187-0.10213-15.804-3zm71.631-65.495c5.6381-2.4024 9.4773-6.7182 13.215-14.855 2.6635-5.799 3.0557-8.783 3.0651-23.317 8e-3 -12.656-0.56881-18.328-2.3978-23.57-3.308-9.4821-9.1831-17.16-15.658-20.463-5.1807-2.643-5.7694-2.6759-12.556-0.70288-12.854 3.7368-19.305 2.0853-22.572-5.7787-1.8456-4.4431-2.0066-1.7839-2.07 34.182l-0.0687 39h4.0476c4.0039 0 5.8711 1.4686 12.36 9.7213 2.8054 3.5681 10.971 7.4304 15.969 7.5535 1.3069 0.0321 4.3069-0.76414 6.6667-1.7696zm-32.689-104.33c3.1325-2.3787 12.056-2.2843 19.103 0.20209 5.4106 1.909 6.0136 1.8779 9.1676-0.47271 5.2747-3.9311 8.0469-9.8737 8.9081-19.096 1.2046-12.9-1.382-23.036-7.5717-29.671-4.9634-5.321-5.3384-5.4699-13.777-5.4699-7.7957 0-9.0922 0.39991-12.794 3.9462-6.3451 6.079-8.2017 14.302-8.8923 39.387-0.56985 20.7-0.48308 21.732 1.4687 17.466 1.1409-2.4939 3.1153-5.3249 4.3875-6.2909z" fill="#f3d6d1"/>
  <path d="m59.099 242.33c-2.0651-5.732 0.098-173.35 2.4115-186.87 3.2269-18.852 12.607-35.943 24.763-45.122 11.561-8.729 15.624-9.3759 60.393-9.6173 33.295-0.17954 35.342-0.091476 13.333 0.57364-14.3 0.43216-24.143 0.91652-21.873 1.0764 5.7524 0.40513 19.623 9.715 24.496 16.441 5.6966 7.8639 7.0653 13.592 6.5191 27.284-0.4363 10.937-0.8338 12.417-4.917 18.298-2.4433 3.5193-7.3591 8.6193-10.924 11.333-3.5649 2.7141-6.5159 5.3274-6.5576 5.8074-0.0417 0.48 3.3027 2.7795 7.4321 5.11 22.769 12.85 32.651 32.898 28.714 58.252-3.2047 20.636-13.53 35.692-29.976 43.71-20.809 10.145-41.444 8.6676-55.432-3.9698l-5.4806-4.9514v30.713c0 16.892-0.36419 31.662-0.80932 32.822-0.67207 1.7514-3.3702 2.109-15.91 2.109-14.451 0-15.147-0.12907-16.182-3zm75.452-67.358c8.9602-6.6344 13.456-18.98 13.433-36.884-0.0255-19.503-5.3853-33.939-15.451-41.617-5.3587-4.0873-9.4983-4.4438-20.684-1.7814-11.61 2.7634-18.515-1.4728-18.515-11.359 0-11.219 8.7273-15.079 23.904-10.572 6.9292 2.0577 7.1139 2.0399 10.369-1 6.2603-5.847 7.6617-10.181 7.6955-23.797 0.02728-10.971-0.4227-13.585-3.3017-19.176-4.4018-8.5489-10.185-11.805-19.696-11.092-8.5159 0.63906-13.678 4.8996-17.158 14.162-2.0352 5.416-2.3695 13.424-2.831 67.808l-0.52336 61.667h3.5255c5.0514 0 7.9854 1.9299 11.189 7.3601 5.4506 9.238 19.732 12.437 28.045 6.2816z" fill="#efd7d3"/>
  <path d="m59.476 243.22c-1.1368-2.9625-0.81835-114.29 0.44404-155.22 0.97091-31.479 1.3071-34.791 4.5344-44.667 6.6715-20.415 20.534-35.997 35.95-40.411 5.3406-1.5291 15.947-2.0325 46.262-2.196 33.295-0.17954 35.342-0.091476 13.333 0.57364-14.3 0.43216-24.143 0.91652-21.873 1.0764 5.7524 0.40513 19.623 9.715 24.496 16.441 5.6966 7.8639 7.0653 13.592 6.5191 27.284-0.4363 10.937-0.8338 12.417-4.917 18.298-2.4433 3.5193-7.3591 8.6193-10.924 11.333-3.5649 2.7141-6.5159 5.3274-6.5576 5.8074-0.0417 0.48 3.3027 2.7795 7.4321 5.11 22.769 12.85 32.651 32.898 28.714 58.252-3.2354 20.833-13.465 35.614-30.462 44.014-8.9637 4.4301-11.421 5.0341-22.442 5.5161-15.25 0.66697-23.208-1.6505-31.879-9.2833l-6.106-5.3747v30.671c0 16.869-0.36419 31.62-0.80932 32.78-0.67184 1.7508-3.3655 2.109-15.857 2.109s-15.186-0.35827-15.857-2.109zm75.075-68.249c8.9602-6.6344 13.456-18.98 13.433-36.884-0.0255-19.503-5.3853-33.939-15.451-41.617-5.3587-4.0873-9.4983-4.4438-20.684-1.7814-11.61 2.7634-18.515-1.4728-18.515-11.359 0-11.26 8.7216-15.08 24.041-10.531l7.1921 2.1358 4.303-4.6954c5.5268-6.0308 7.5795-13.822 6.8143-25.865-1.1718-18.444-9.3146-27.737-23.38-26.681-8.5071 0.6384-13.66 4.8848-17.184 14.162-2.0713 5.4528-2.3864 13.054-2.8106 67.808l-0.47781 61.667h3.505c5.0309 0 7.9684 1.9358 11.169 7.3601 5.4506 9.238 19.732 12.437 28.045 6.2816z" fill="#f4d1cc"/>
  <path d="m59.476 243.22c-1.1471-2.9892-0.83009-107.37 0.46127-151.89 1.0273-35.42 1.2653-37.876 4.6451-47.93 4.0288-11.984 13.01-26.301 19.881-31.693 4.9459-3.8811 13.312-7.9155 20.87-10.065 2.6446-0.75198 21.132-1.2834 42.667-1.2264 37.215 0.098422 37.463 0.11666 12 0.88305-14.3 0.4304-24.63 0.91333-22.956 1.0732 5.0095 0.47823 16.037 6.7056 21.437 12.106 8.1871 8.1871 10.857 15.161 10.822 28.273-0.042 16.113-4.7267 24.679-19.746 36.105l-4.4424 3.3795 7.7757 3.866c11.008 5.4731 23.297 17.989 26.758 27.252 11.076 29.644-1.6442 63.589-28.615 76.364-8.465 4.0097-9.957 4.279-23.7 4.279-16.124 0-20.861-1.569-30.63-10.146l-4.7037-4.1299v30.696c0 16.883-0.36419 31.645-0.80932 32.805-0.67184 1.7508-3.3655 2.109-15.857 2.109s-15.186-0.35827-15.857-2.109zm73.699-67.295c10.25-5.7609 14.825-17.402 14.825-37.72 0-21.625-5.0713-34.348-17.045-42.763l-5.6304-3.9572-9.2081 2.3883c-10.806 2.8026-16.278 2.0334-20.1-2.8255-6.456-8.2074-0.30532-20.447 10.215-20.326 2.8064 0.03219 7.5026 0.92315 10.436 1.9799 7.2817 2.6233 7.7893 2.5353 12.365-2.1448 5.406-5.5294 7.4463-13.557 6.7042-26.377-1.0272-17.743-8.4201-26.85-21.797-26.85-11.114 0-17.403 6.4755-20.459 21.066-0.95281 4.5491-1.4799 27.639-1.4799 64.83v57.764l5.3049 0.8483c3.9672 0.63437 5.7844 1.77 7.2067 4.5037 5.796 11.141 18.397 15.354 28.663 9.5844z" fill="#fdcac1"/>
  <path d="m59.476 243.22c-1.1471-2.9892-0.83009-107.37 0.46127-151.89 1.0273-35.42 1.2653-37.876 4.6451-47.93 4.0288-11.984 13.01-26.301 19.881-31.693 4.9459-3.8811 13.312-7.9155 20.87-10.065 2.6446-0.75198 21.132-1.2834 42.667-1.2264 37.215 0.098422 37.463 0.11666 12 0.88305-14.3 0.4304-24.63 0.91333-22.956 1.0732 5.0095 0.47823 16.037 6.7056 21.437 12.106 8.1871 8.1871 10.857 15.161 10.822 28.273-0.042 16.113-4.7267 24.679-19.746 36.105l-4.4424 3.3795 7.7757 3.866c11.008 5.4731 23.297 17.989 26.758 27.252 11.076 29.644-1.6442 63.589-28.615 76.364-8.465 4.0097-9.957 4.279-23.7 4.279-16.054 0-20.872-1.5794-30.438-9.9778-2.4815-2.1788-4.8982-3.5751-5.3704-3.1029s-0.85854 15.159-0.85854 32.636v31.778h-15.191c-12.622 0-15.328-0.35664-16-2.109zm73.699-67.295c10.101-5.6773 15.023-17.772 15.162-37.262 0.14992-20.973-5.4152-34.81-17.382-43.221l-5.6304-3.9572-9.2081 2.3883c-10.806 2.8026-16.278 2.0334-20.1-2.8255-6.456-8.2074-0.30532-20.447 10.215-20.326 2.8064 0.03219 7.5026 0.92315 10.436 1.9799 7.2817 2.6233 7.7893 2.5353 12.365-2.1448 5.406-5.5294 7.4463-13.557 6.7042-26.377-1.0272-17.743-8.4201-26.85-21.797-26.85-10.976 0-16.677 5.6094-20.27 19.945-2.6378 10.526-4.1424 120.41-1.6892 123.36 0.92399 1.1133 3.6911 2.0243 6.1492 2.0243 3.5241 0 4.8725 0.77535 6.3767 3.6667 5.8018 11.152 18.398 15.368 28.669 9.5956z" fill="#f4cac4"/>
  <path d="m59.476 243.22c-1.1354-2.9587-0.8281-107.12 0.4461-151.22 0.94072-32.56 1.3947-37.712 4.0538-46 7.8686-24.525 21.115-38.74 41.357-44.38 2.5744-0.71735 21.704-1.2553 42.667-1.1999 37.215 0.098422 37.463 0.11666 12 0.88305-14.3 0.4304-24.626 0.91333-22.947 1.0732 9.0678 0.86317 24.246 13.17 29.136 23.624 2.441 5.2188 3.1211 8.9643 3.1313 17.246 0.0187 15.133-4.5122 23.353-19.264 34.947l-5.2774 4.1478 7.2774 3.6539c21.772 10.931 32.594 29.108 31.191 52.388-1.5684 26.038-16.547 46.715-38.827 53.597-16.834 5.1996-33.697 2.7582-45.525-6.5909-3.6368-2.8747-6.976-4.8631-7.4204-4.4186-0.44446 0.44445-0.8081 15.108-0.8081 32.586v31.778h-15.191c-12.622 0-15.328-0.35664-16-2.109zm76.271-68.378c5.591-3.9811 10.591-14.881 12.248-26.698 2.5122-17.921-1.8003-37.098-10.588-47.081-7.7789-8.8373-11.595-10.052-22.611-7.1943-13.685 3.5494-19.668 0.79441-21.076-9.7052-0.63023-4.6987-0.21088-5.8822 3.3438-9.4368 4.7057-4.7057 7.9856-5.0302 19.158-1.8954 7.0455 1.9769 8.0141 1.983 10.935 0.06912 1.7626-1.1549 4.531-4.8395 6.152-8.1878 2.5301-5.2264 2.8818-7.8307 2.4857-18.402-0.7386-19.713-7.5798-28.981-21.391-28.981-11.721 0-16.749 4.4833-20.522 18.298-2.8714 10.515-4.5679 121.8-1.9057 125.01 0.92643 1.1163 3.6726 2.0296 6.1025 2.0296 3.7625 0 4.8608 0.7877 7.4017 5.3086 5.8032 10.325 20.675 13.702 30.268 6.8713z" fill="#d5d5d5"/>
  <path d="m59.476 243.22c-1.1354-2.9587-0.8281-107.12 0.4461-151.22 0.94072-32.56 1.3947-37.712 4.0538-46 4.2597-13.277 8.6671-21.376 15.757-28.956 12.969-13.865 28.183-18.643 49.895-15.67 12.534 1.7161 18.875 4.5859 27.374 12.388 8.8384 8.1139 12.303 16.406 12.319 29.484 0.0187 15.133-4.5122 23.353-19.264 34.947l-5.2774 4.1478 7.2774 3.6539c21.772 10.931 32.594 29.108 31.191 52.388-1.5684 26.038-16.547 46.715-38.827 53.597-16.834 5.1996-33.697 2.7582-45.525-6.5909-3.6368-2.8747-6.976-4.8631-7.4204-4.4186-0.44446 0.44445-0.8081 15.108-0.8081 32.586v31.778h-15.191c-12.622 0-15.328-0.35664-16-2.109zm76.271-68.378c5.591-3.9811 10.591-14.881 12.248-26.698 2.5122-17.921-1.8003-37.098-10.588-47.081-7.7789-8.8373-11.595-10.052-22.611-7.1943-13.685 3.5494-19.668 0.79441-21.076-9.7052-0.63023-4.6987-0.21088-5.8822 3.3438-9.4368 4.7057-4.7057 7.9856-5.0302 19.158-1.8954 7.0455 1.9769 8.0141 1.983 10.935 0.06912 1.7626-1.1549 4.531-4.8395 6.152-8.1878 2.5301-5.2264 2.8818-7.8307 2.4857-18.402-0.7386-19.713-7.5798-28.981-21.391-28.981-11.721 0-16.749 4.4833-20.522 18.298-2.8714 10.515-4.5679 121.8-1.9057 125.01 0.92643 1.1163 3.6726 2.0296 6.1025 2.0296 3.7625 0 4.8608 0.7877 7.4017 5.3086 5.8032 10.325 20.675 13.702 30.268 6.8713zm8.586-174.5c4.95-0.25654 13.05-0.25654 18 0s0.9 0.46644-9 0.46644-13.95-0.2099-9-0.46644z" fill="#eccac5"/>
  <path d="m59.476 243.22c-1.119-2.9161-0.84858-87.744 0.45447-142.56 0.98717-41.526 1.3281-46.117 4.0588-54.667 4.233-13.253 8.6443-21.366 15.744-28.956 12.969-13.865 28.183-18.643 49.895-15.67 12.534 1.7161 18.875 4.5859 27.374 12.388 8.8384 8.1139 12.303 16.406 12.319 29.484 0.0187 15.134-4.5119 23.352-19.267 34.949l-5.2803 4.1502 8.4947 4.2881c10.025 5.0606 21.046 15.626 25.07 24.033 8.7115 18.201 5.5188 46.289-7.1116 62.563-10.284 13.251-27.005 21.437-43.79 21.437-11.287 0-20.654-3.0452-28.54-9.2783-3.6368-2.8747-6.976-4.8631-7.4204-4.4186-0.44446 0.44445-0.8081 15.108-0.8081 32.586v31.778h-15.191c-12.622 0-15.328-0.35664-16-2.109zm76.271-68.378c5.591-3.9811 10.591-14.881 12.248-26.698 2.5122-17.921-1.8003-37.098-10.588-47.081-7.7789-8.8373-11.595-10.052-22.611-7.1943-13.685 3.5494-19.668 0.79441-21.076-9.7052-0.63023-4.6987-0.21088-5.8822 3.3438-9.4368 4.7057-4.7057 7.9856-5.0302 19.158-1.8954 7.0455 1.9769 8.0141 1.983 10.935 0.06912 1.7626-1.1549 4.531-4.8395 6.152-8.1878 2.5301-5.2264 2.8818-7.8307 2.4857-18.402-0.7386-19.713-7.5798-28.981-21.391-28.981-11.721 0-16.749 4.4833-20.522 18.298-2.8714 10.515-4.5679 121.8-1.9057 125.01 0.92643 1.1163 3.6726 2.0296 6.1025 2.0296 3.7625 0 4.8608 0.7877 7.4017 5.3086 5.8032 10.325 20.675 13.702 30.268 6.8713zm8.586-174.5c4.95-0.25654 13.05-0.25654 18 0s0.9 0.46644-9 0.46644-13.95-0.2099-9-0.46644z" fill="#f6c3bb"/>
  <path d="m59.476 243.22c-1.1382-2.9661-0.86055-88.487 0.4628-142.56 1.0666-43.579 1.2434-45.75 4.5711-56.105 5.4616-16.994 16.934-32.414 28.608-38.451 12.718-6.577 40.201-6.8502 52.682-0.52375 14.781 7.4923 23.504 21.001 23.514 36.412 9e-3 15.034-1.5983 18.673-13.382 30.297l-10.439 10.297 8.1457 4.3416c16.285 8.6797 26.665 22.59 28.866 38.682 4.2772 31.276-13.051 59.842-40.663 67.034-16.621 4.3292-32.774 1.5102-42.45-7.4081-3.129-2.8842-6.3721-5.2441-7.2067-5.2441-1.0932 0-1.5176 9.134-1.5176 32.667v32.667h-15.191c-12.622 0-15.328-0.35664-16-2.109zm75.327-67.595c13.964-9.3626 18.629-42.742 9.0765-64.947-3.1169-7.2454-12.452-16.772-17.734-18.098-1.8402-0.46186-7.2458 0.13832-12.012 1.3338-7.7421 1.9416-9.1724 1.9622-13.408 0.1924-5.4564-2.2798-7.9651-7.2994-6.7869-13.58 1.6262-8.6685 9.1761-11.373 21.835-7.8206 7.7103 2.1634 8.3783 2.1647 11.648 0.02207 5.6124-3.6774 8.5171-11.861 8.5421-24.065 0.0275-13.405-1.498-18.923-6.9652-25.198-5.0325-5.7758-12.188-7.972-20.133-6.1799-7.4618 1.6829-11.225 5.9901-14.55 16.653-2.8295 9.0739-2.9295 11.401-2.9549 68.725l-0.026263 59.333 5.2772 0.66666c4.293 0.54234 5.9335 1.6353 8.7961 5.8603 6.761 9.9787 20.246 13.237 29.396 7.1021zm9.5305-175.28c4.95-0.25654 13.05-0.25654 18 0s0.9 0.46644-9 0.46644-13.95-0.2099-9-0.46644z" fill="#f5bcb3"/>
  <path d="m59.476 243.22c-1.181-3.0775-0.87616-88.656 0.50299-141.22 1.0391-39.607 1.5358-46.509 3.9321-54.64 7.449-25.276 22.38-41.387 42.089-45.418 5.5818-1.1416 22.475-1.0398 29.333 0.17673 10.483 1.8595 23.712 11.515 29.676 21.66 3.2942 5.6038 3.6573 7.4787 3.6573 18.888 0 11.388-0.3666 13.29-3.6324 18.846-3.4932 5.9422-16.055 18.488-18.512 18.488-0.65402 0-1.1568 0.75-1.1174 1.6667 0.0395 0.91667 3.5945 3.3887 7.9002 5.4933 10.154 4.9633 20.915 15.573 25.196 24.84 4.5206 9.7874 5.5624 29.153 2.1958 40.817-6.3343 21.947-21.643 36.349-43.129 40.576-15.809 3.1103-29.363-0.1296-39.454-9.4309-3.1383-2.8928-6.0978-4.8678-6.5767-4.389-0.47886 0.47886-0.87066 15.471-0.87066 33.315v32.444h-15.191c-12.622 0-15.328-0.35664-16-2.109zm73.855-66.556c8.6858-4.4916 14.125-15.92 15.437-32.438 1.6194-20.377-4.8366-40.079-15.81-48.248-5.9996-4.4662-4.7292-4.3652-22.879-1.8175-8.8856 1.2473-12.604-0.16499-14.9-5.6596-2.7896-6.6764-0.52123-13.242 5.5805-16.151 4.1468-1.9775 5.1239-1.9709 12.515 0.08412 4.4096 1.226 9.1219 2.229 10.472 2.229 2.9053 0 7.0618-4.2623 10.192-10.451 3.0845-6.099 3.095-25.576 0.018-33.267-4.3826-10.953-14.945-16.58-25.691-13.687-15.478 4.1677-17.938 17.817-17.318 96.072l0.38545 48.667 4.991 0.41328c4.1724 0.3455 5.636 1.3508 8.9242 6.1301 2.1633 3.1442 5.9174 6.6946 8.3424 7.8897 5.5466 2.7335 14.698 2.8424 19.74 0.235zm11.003-176.32c4.95-0.25654 13.05-0.25654 18 0s0.9 0.46644-9 0.46644-13.95-0.2099-9-0.46644z" fill="#ecbcb4"/>
  <path d="m59.476 243.22c-1.1135-2.9016-0.87081-67.591 0.49722-132.56 1.0277-48.804 1.4038-54.895 3.9089-63.307 7.5518-25.356 22.435-41.404 42.118-45.414 7.9106-1.6115 25.73-0.80115 33.333 1.5159 13.038 3.9735 25.681 16.145 28.818 27.744 2.4091 8.9067 0.85763 23.505-3.2415 30.499-3.3914 5.7871-15.963 18.295-18.388 18.295-0.65402 0-1.1568 0.75-1.1174 1.6667 0.0395 0.91667 3.5945 3.3887 7.9002 5.4933 10.154 4.9633 20.915 15.573 25.196 24.84 4.5206 9.7874 5.5624 29.153 2.1958 40.817-6.3343 21.947-21.643 36.349-43.129 40.576-15.809 3.1103-29.363-0.1296-39.454-9.4309-3.1383-2.8928-6.0978-4.8678-6.5767-4.389-0.47886 0.47886-0.87066 15.471-0.87066 33.315v32.444h-15.191c-12.622 0-15.328-0.35664-16-2.109zm73.855-66.556c8.6858-4.4916 14.125-15.92 15.437-32.438 1.6194-20.377-4.8366-40.079-15.81-48.248-5.9996-4.4662-4.7292-4.3652-22.879-1.8175-8.8856 1.2473-12.604-0.16499-14.9-5.6596-2.7896-6.6764-0.52123-13.242 5.5805-16.151 4.1468-1.9775 5.1239-1.9709 12.515 0.08412 4.4096 1.226 9.1219 2.229 10.472 2.229 2.9053 0 7.0618-4.2623 10.192-10.451 3.0845-6.099 3.095-25.576 0.018-33.267-4.3826-10.953-14.945-16.58-25.691-13.687-15.478 4.1677-17.938 17.817-17.318 96.072l0.38545 48.667 4.991 0.41328c4.1724 0.3455 5.636 1.3508 8.9242 6.1301 2.1633 3.1442 5.9174 6.6946 8.3424 7.8897 5.5466 2.7335 14.698 2.8424 19.74 0.235zm11.003-176.32c4.95-0.25654 13.05-0.25654 18 0s0.9 0.46644-9 0.46644-13.95-0.2099-9-0.46644z" fill="#c7c7c7"/>
  <path d="m59.476 243.22c-1.1135-2.9016-0.87081-67.591 0.49722-132.56 1.2402-58.897 1.6857-62.367 10.268-79.973 6.7603-13.868 21.824-25.964 35.758-28.713 5.9757-1.1787 19.91-1.0911 28 0.17617 11.886 1.8619 24.608 10.733 31.009 21.622 3.2942 5.6038 3.6573 7.4787 3.6573 18.888 0 11.388-0.3666 13.29-3.6324 18.846-3.4932 5.9422-16.055 18.488-18.512 18.488-0.65402 0-1.1568 0.75-1.1174 1.6667 0.0395 0.91667 3.5945 3.3887 7.9002 5.4933 10.154 4.9633 20.915 15.573 25.196 24.84 4.5206 9.7874 5.5624 29.153 2.1958 40.817-6.3343 21.947-21.643 36.349-43.129 40.576-15.809 3.1103-29.363-0.1296-39.454-9.4309-3.1383-2.8928-6.0978-4.8678-6.5767-4.389-0.47886 0.47886-0.87066 15.471-0.87066 33.315v32.444h-15.191c-12.622 0-15.328-0.35664-16-2.109zm73.855-66.556c8.6858-4.4916 14.125-15.92 15.437-32.438 1.6194-20.377-4.8366-40.079-15.81-48.248-5.9996-4.4662-4.7292-4.3652-22.879-1.8175-8.8856 1.2473-12.604-0.16499-14.9-5.6596-2.7896-6.6764-0.52123-13.242 5.5805-16.151 4.1468-1.9775 5.1239-1.9709 12.515 0.08412 4.4096 1.226 9.1219 2.229 10.472 2.229 2.9053 0 7.0618-4.2623 10.192-10.451 3.0845-6.099 3.095-25.576 0.018-33.267-4.3826-10.953-14.945-16.58-25.691-13.687-15.478 4.1677-17.938 17.817-17.318 96.072l0.38545 48.667 4.991 0.41328c4.1724 0.3455 5.636 1.3508 8.9242 6.1301 2.1633 3.1442 5.9174 6.6946 8.3424 7.8897 5.5466 2.7335 14.698 2.8424 19.74 0.235zm10.36-176.3c2.3965-0.29675 5.9965-0.29063 8 0.013607 2.0035 0.30423 0.0428 0.54703-4.3572 0.53954-4.4-0.007484-6.0392-0.2564-3.6428-0.55315z" fill="#f5b4a9"/>
  <path d="m59.167 241.81c-1.1826-4.712 0.69067-155.7 2.1731-175.15 2.209-28.982 13.365-50.047 31.565-59.603 9.2253-4.8437 15.429-6.2035 27.095-5.9392 12.592 0.28531 18.53 1.4591 25.715 5.0833 14.487 7.3072 22.219 18.479 23.293 33.656 1.09 15.401-3.828 25.8-16.917 35.771-3.633 2.7675-6.6396 5.6401-6.6813 6.3837-0.0417 0.74354 3.0371 2.8299 6.842 4.6363 9.7808 4.6436 21.562 16.007 26.031 25.108 3.457 7.0396 3.7128 8.6914 3.6514 23.57-0.0769 18.615-2.5318 26.79-11.421 38.036-11.09 14.03-24.383 20.327-43.179 20.455-13.995 0.0952-22.71-2.9692-30.086-10.579-2.4405-2.5179-4.9195-4.578-5.509-4.578-0.58948 0-1.0718 15-1.0718 33.333v33.333h-30.616zm78.827-68.473c13.342-12.932 15.046-49.764 3.1585-68.288-6.0266-9.3916-12.741-13.575-20.103-12.526-15.338 2.1868-20.428 2.3167-22.721 0.57949-3.4947-2.648-4.8982-9.0925-3.1541-14.483 2.1276-6.5758 8.5276-8.5814 18.825-5.8992 10.193 2.655 11.642 2.4957 15.666-1.7226 5.1238-5.371 6.5233-10.319 6.524-23.068 8.4e-4 -13.539-2.4536-20.798-8.9659-26.516-8.3129-7.2988-21.017-6.6754-27.781 1.3633-7.5802 9.0086-8.0422 13.54-8.0775 79.221l-0.03223 60 5.0354 0.41593c4.2194 0.34852 5.5775 1.2747 8.3806 5.715 5.1682 8.1869 10.292 10.772 20.241 10.212 7.3518-0.41363 8.8703-0.99792 13.003-5.0038zm5.6968-172.97c2.3965-0.29675 5.9965-0.29063 8 0.013607 2.0035 0.30423 0.0428 0.54703-4.3572 0.53954-4.4-0.007484-6.0392-0.2564-3.6428-0.55315z" fill="#efb2a9"/>
  <path d="m59.126 241.67c-0.50855-2.0167-0.27433-44.167 0.52049-93.667 1.5865-98.803 1.4125-96.837 10.211-115.33 5.733-12.052 13.345-20.508 23.048-25.603 9.2253-4.8437 15.429-6.2035 27.095-5.9392 17.336 0.39282 27.06 3.7525 37.092 12.816 8.5328 7.7089 11.575 15.434 11.575 29.393 0 10.63-0.4101 12.698-3.5929 18.112-3.5034 5.9593-9.7336 12.33-17.66 18.059l-3.92 2.8329 7.8574 3.8318c10.746 5.2407 22.353 16.271 26.932 25.595 3.457 7.0396 3.7128 8.6914 3.6514 23.57-0.0769 18.615-2.5318 26.79-11.421 38.036-11.09 14.03-24.383 20.327-43.179 20.455-13.995 0.0952-22.71-2.9692-30.086-10.579-2.4405-2.5179-4.9195-4.578-5.509-4.578-0.58948 0-1.0718 15-1.0718 33.333v33.333h-30.616zm78.868-68.327c7.6451-7.4099 10.469-16.68 10.563-34.673 0.0944-18.115-2.1912-27.185-9.1464-36.294-2.6195-3.4307-7.1966-7.3222-10.484-8.9134-5.4823-2.6539-6.1792-2.7027-11.548-0.80845-6.9379 2.4478-16.057 2.6143-19.129 0.34927-3.4166-2.5199-4.8079-9.0242-3.0756-14.378 2.1276-6.5758 8.5276-8.5814 18.825-5.8992 10.529 2.7426 11.885 2.5208 16.463-2.6941 4.7301-5.3873 6.2425-11.222 6.1054-23.554-0.2334-21.005-12.912-33.989-28.599-29.289-6.5735 1.9695-11.35 7.7303-14.292 17.237-2.0905 6.7562-2.3448 14.085-2.3448 67.578v60l5.0354 0.41593c4.2194 0.34852 5.5775 1.2747 8.3806 5.715 5.1682 8.1869 10.292 10.772 20.241 10.212 7.3518-0.41363 8.8703-0.99792 13.003-5.0038zm5.6968-172.97c2.3965-0.29675 5.9965-0.29063 8 0.013607 2.0035 0.30423 0.0428 0.54703-4.3572 0.53954-4.4-0.007484-6.0392-0.2564-3.6428-0.55315z" fill="#f5ada1"/>
  <path d="m59.126 241.67c-0.50877-2.0167-0.23014-44.167 0.61916-93.667 1.4396-83.904 1.7292-90.664 4.2754-99.803 10.097-36.24 33.774-51.824 69.98-46.06 11.796 1.8779 24.66 11.117 30.692 22.044 3.5494 6.4292 3.9499 8.3656 3.9614 19.152 0.012 10.643-0.39343 12.691-3.5801 18.112-3.4986 5.9511-9.7338 12.33-17.628 18.035l-3.8876 2.8093 9.5723 5.0301c19.691 10.348 29.556 26.328 29.52 47.821-0.0489 29.467-16.841 51.679-43.564 57.624-16.746 3.7257-30.402 0.6652-41.411-9.2809-2.9324-2.6493-5.709-4.8169-6.1701-4.8169-0.46112 0-0.8384 15-0.8384 33.333v33.333h-30.616zm77.573-67.207c9.3292-8.1911 13.599-22.711 12.218-41.551-1.4796-20.194-7.271-32.153-18.86-38.945-5.9644-3.4954-6.1478-3.5166-12.294-1.4225-14.15 4.8214-23.097 1.3271-23.097-9.0206 0-10.701 8.3032-14.11 23.342-9.5842l6.4328 1.936 4.9521-4.9521c12.774-12.774 8.984-45.604-6.0542-52.436-8.6588-3.9336-16.615-2.8081-23.123 3.2712-8.3842 7.8321-9.7393 20.543-9.2648 86.911l0.38126 53.333 5.0354 0.41593c4.2194 0.34852 5.5775 1.2747 8.3806 5.715 4.7589 7.5386 10.299 10.525 19.538 10.531 6.6527 4e-3 8.2287-0.5292 12.412-4.2021zm6.9917-174.09c2.3965-0.29675 5.9965-0.29063 8 0.013607 2.0035 0.30423 0.0428 0.54703-4.3572 0.53954-4.4-0.007484-6.0392-0.2564-3.6428-0.55315z" fill="#f4a99d"/>
  <path d="m59.254 239.27c-0.50028-3.3361-0.22432-45.272 0.61324-93.19 1.4046-80.361 1.7328-87.926 4.2276-97.451 6.4548-24.644 19.708-39.986 39.523-45.754 10.784-3.1391 31.865-1.8691 40.402 2.4339 9.4254 4.7512 16.402 11.129 20.59 18.823 3.4418 6.3236 3.8728 8.4373 3.937 19.305 0.0704 11.902-0.05 12.388-4.8732 19.652-2.72 4.0966-8.259 9.9501-12.309 13.008-4.05 3.0577-7.3635 5.7788-7.3635 6.0468s3.6966 2.3533 8.2147 4.6341c18.229 9.202 28.639 24.162 30.081 43.23 2.4402 32.265-16.241 57.879-46.171 63.305-15.032 2.7254-28.313-0.66911-38.45-9.8273-2.9324-2.6493-5.709-4.8169-6.1701-4.8169-0.46112 0-0.8384 15-0.8384 33.333v33.333h-30.503zm70.185-60.601c4.0646 0 12.63-8.7305 16.035-16.344 2.7684-6.1902 3.1214-8.9695 3.0887-24.322-0.0311-14.61-0.49285-18.485-2.9391-24.667-3.6619-9.253-9.7194-16.648-16.449-20.081-4.9397-2.5201-5.6225-2.5555-12.113-0.62797-14.365 4.2658-22.394 1.0502-22.394-8.9682 0-10.797 8.2272-14.269 23.16-9.7746 6.0535 1.8218 6.3773 1.7747 10.26-1.4922 6.8621-5.7741 8.4484-10.334 8.4842-24.389 0.0551-21.639-7.0082-31.333-22.83-31.333-7.6266 0-8.6266 0.35598-13.054 4.6472-9.0435 8.7653-9.3534 11.417-9.3534 80.019v60.667l5.0354 0.41593c4.2042 0.34727 5.5791 1.2771 8.3288 5.6329 1.8114 2.8694 4.8104 6.211 6.6646 7.426 3.8613 2.53 11.131 4.4969 13.747 3.7195 0.97664-0.2902 2.9249-0.52764 4.3295-0.52764zm14.252-178.3c2.3965-0.29675 5.9965-0.29063 8 0.013607 2.0035 0.30423 0.0428 0.54703-4.3572 0.53954-4.4-0.007484-6.0392-0.2564-3.6428-0.55315z" fill="#bebcbc"/>
  <path d="m59.254 239.27c-0.50028-3.3361-0.22432-45.272 0.61324-93.19 1.4118-80.77 1.7228-87.889 4.2641-97.601 5.3424-20.418 16.162-35.173 31.202-42.552 7.6233-3.7401 8.8161-3.9234 25.333-3.8925 15.556 0.029039 17.948 0.3531 23.333 3.1608 9.5958 5.0033 16.456 11.307 20.609 18.937 3.4418 6.3236 3.8728 8.4373 3.937 19.305 0.0704 11.902-0.05 12.388-4.8732 19.652-2.72 4.0966-8.259 9.9501-12.309 13.008-4.05 3.0577-7.3635 5.7788-7.3635 6.0468s3.6966 2.3533 8.2147 4.6341c18.229 9.202 28.639 24.162 30.081 43.23 2.4402 32.265-16.241 57.879-46.171 63.305-15.032 2.7254-28.313-0.66911-38.45-9.8273-2.9324-2.6493-5.709-4.8169-6.1701-4.8169-0.46112 0-0.8384 15-0.8384 33.333v33.333h-30.503zm70.185-60.601c4.0646 0 12.63-8.7305 16.035-16.344 2.7684-6.1902 3.1214-8.9695 3.0887-24.322-0.0311-14.61-0.49285-18.485-2.9391-24.667-3.6619-9.253-9.7194-16.648-16.449-20.081-4.9397-2.5201-5.6225-2.5555-12.113-0.62797-14.365 4.2658-22.394 1.0502-22.394-8.9682 0-10.797 8.2272-14.269 23.16-9.7746 6.0535 1.8218 6.3773 1.7747 10.26-1.4922 6.8621-5.7741 8.4484-10.334 8.4842-24.389 0.0551-21.639-7.0082-31.333-22.83-31.333-7.6266 0-8.6266 0.35598-13.054 4.6472-9.0435 8.7653-9.3534 11.417-9.3534 80.019v60.667l5.0354 0.41593c4.2042 0.34727 5.5791 1.2771 8.3288 5.6329 1.8114 2.8694 4.8104 6.211 6.6646 7.426 3.8613 2.53 11.131 4.4969 13.747 3.7195 0.97664-0.2902 2.9249-0.52764 4.3295-0.52764z" fill="#f2a599"/>
  <path d="m59.47 236.33c-0.48127-4.95-0.24634-46.8 0.52208-93 1.2909-77.616 1.6047-84.81 4.1279-94.652 5.1945-20.263 16.352-35.455 31.503-42.895 7.2217-3.5462 8.7669-3.7862 24.377-3.7862 15.438 0 17.207 0.2667 24 3.6189 10.264 5.0651 16.15 10.319 20.486 18.286 3.273 6.0136 3.7344 8.2959 3.7672 18.633 0.052 16.444-4.5346 24.691-20.182 36.288l-4.595 3.4057 8.415 4.4851c12.329 6.5712 20.628 14.636 25.734 25.009 4.1602 8.4506 4.3709 9.6036 4.3088 23.58-0.0531 11.938-0.62029 16.097-3.0236 22.168-9.1051 23.002-27.196 35.907-50.911 36.317-12.597 0.21767-21.765-2.8199-29.765-9.8623-3.2875-2.8938-6.3352-5.2614-6.7726-5.2614-0.43747 0-0.7954 15-0.7954 33.333v33.333h-30.322zm76.154-60.559c2.8448-1.7273 5.7646-5.5999 8.6667-11.495 4.2836-8.7013 4.375-9.2581 4.3057-26.251-0.0594-14.586-0.5346-18.534-2.9729-24.695-3.6619-9.253-9.7194-16.648-16.449-20.081-4.9397-2.5201-5.6225-2.5555-12.113-0.62797-10.027 2.9778-15.25 2.6418-19.122-1.2301-4.2887-4.2887-4.4644-11.954-0.37364-16.308 3.4981-3.7236 11.154-4.1249 19.891-1.0426 5.4041 1.9067 6.0174 1.8762 9.1676-0.45593 6.0213-4.4575 9.1192-10.505 10.107-19.728 1.7744-16.569-3.5902-31.116-13.147-35.651-10.535-4.9994-22.149-1.3269-27.246 8.6156-4.8921 9.5443-5.8006 23.226-5.3889 81.158 0.37532 52.81 0.44153 53.991 3.0503 54.385 7.0127 1.0604 8.5826 1.9367 11.093 6.1923 6.3186 10.709 19.604 13.849 30.53 7.2145z" fill="#f2a295"/>
  <path d="m59.481 236.67c-0.48817-4.7648-0.2297-46.53 0.57439-92.812 1.3177-75.846 1.7168-85.154 4.0446-94.337 5.3717-21.19 16.211-36.226 31.527-43.734 7.2131-3.536 8.7748-3.778 24.374-3.778 15.52 0 17.186 0.25467 24.214 3.7027 9.2606 4.543 17.845 12.666 21.204 20.064 3.4103 7.5109 3.5845 27.042 0.30288 33.957-2.4556 5.1749-10.256 13.613-17.649 19.093l-4.595 3.4057 8.415 4.4851c18.951 10.101 28.979 24.231 30.345 42.758 1.933 26.218-9.9932 48.936-30.801 58.674-20.153 9.4309-40.035 7.5804-54.063-5.032l-6.7063-6.0296v68.247h-30.298zm73.287-59.385c9.8777-4.7817 14.938-15.231 16.159-33.365 1.4343-21.304-3.7334-37.933-14.707-47.327-6.5585-5.6138-10.8-6.5441-18.099-3.9691-12.667 4.4691-21.454 0.66364-21.454-9.2907 0-10.026 9.528-13.969 22.606-9.3546 7.2598 2.5614 11.446 0.59914 16.033-7.5147 2.8317-5.0096 3.2827-7.5186 3.319-18.464 0.0352-10.634-0.45784-13.682-3.0725-18.991-4.0505-8.2247-9.4748-12.021-18.097-12.666-13.3-0.99434-20.789 7.2138-23.41 25.657-0.72942 5.1333-1.3381 34.383-1.3526 65l-0.02641 55.667h4.6667c2.7895 0 5.4755 0.93859 6.6776 2.3333 1.106 1.2833 3.656 4.3085 5.6667 6.7225 3.5119 4.2165 11.49 8.0962 16.901 8.219 1.4185 0.0321 5.1033-1.1634 8.1884-2.657z" fill="#eda296"/>
  <path d="m59.671 235c-0.34103-5.6833-0.09343-47.233 0.55023-92.333 1.0683-74.854 1.4003-82.929 3.8098-92.667 5.327-21.528 16.115-36.625 31.595-44.213 7.2131-3.536 8.7748-3.778 24.374-3.778 15.52 0 17.186 0.25467 24.214 3.7027 9.2606 4.543 17.845 12.666 21.204 20.064 3.4103 7.5109 3.5845 27.042 0.30288 33.957-2.4556 5.1749-10.256 13.613-17.649 19.093l-4.595 3.4057 8.415 4.4851c18.951 10.101 28.979 24.231 30.345 42.758 2.4591 33.354-17.251 59.566-48.072 63.931-14.879 2.1071-27.299-1.48-37.418-10.807l-6.0805-5.6048v68.34h-30.375zm73.096-57.715c10.583-5.123 16.584-19.352 16.545-39.231-0.0374-19.243-5.3152-33.465-15.55-41.902-6.3282-5.2163-10.494-6.0493-17.642-3.5276-12.667 4.4691-21.454 0.66364-21.454-9.2907 0-10.026 9.528-13.969 22.606-9.3546 7.2524 2.5588 11.425 0.60795 16.073-7.5147 2.8944-5.058 3.3177-7.4129 3.319-18.464 1e-3 -10.582-0.51112-13.708-3.113-18.991-4.0505-8.2247-9.4748-12.021-18.097-12.666-13.089-0.97858-20.572 7.0111-23.404 24.99-0.77165 4.8989-1.3695 33.157-1.3752 65l-0.01007 56.333h4.6667c2.7895 0 5.4755 0.93859 6.6776 2.3333 1.106 1.2833 3.656 4.3085 5.6667 6.7225 3.5119 4.2165 11.49 8.0962 16.901 8.219 1.4185 0.0321 5.1033-1.1634 8.1884-2.657z" fill="#f29e90"/>
  <path d="m59.671 235c-0.34103-5.6833-0.09343-47.233 0.55023-92.333 1.0706-75.013 1.3962-82.909 3.8215-92.667 1.4582-5.8667 4.2031-13.845 6.0998-17.73 4.9046-10.046 16.524-22.085 25.62-26.547 7.0782-3.472 8.6546-3.7104 24.237-3.6652 19.625 0.056928 25.119 1.9132 36.207 12.234 9.4831 8.8262 11.727 14.314 11.763 28.762 0.0232 9.3079-0.54588 12.847-2.7655 17.198-3.0315 5.9422-14.681 17.858-18.71 19.136-4.1177 1.3069-2.9091 2.9023 5.6576 7.4683 24.804 13.22 34.811 35.076 28.669 62.614-5.3724 24.088-22.212 40.015-46.317 43.805-14.892 2.3416-26.646-1.0342-37.806-10.858l-6.0328-5.3103v68.227h-30.375zm73-57.484c10.394-4.7221 16.662-19.416 16.662-39.064 0-19.34-4.8747-33.095-14.714-41.517-7.0419-6.0276-10.478-6.8101-18.909-4.3062-9.7098 2.8835-13.946 2.589-17.771-1.2353-7.0595-7.0595-2.1254-19.394 7.758-19.394 2.4669 0 7.5843 0.92031 11.372 2.0451 6.1734 1.8333 7.2081 1.8345 9.9898 0.01187 1.7067-1.1183 4.5659-4.5886 6.3538-7.7118 2.8201-4.9264 3.2509-7.3611 3.2522-18.381 1e-3 -10.943-0.46131-13.602-3.3401-19.196-4.8572-9.4383-9.0589-12.102-19.09-12.102-10.889 0-15.622 3.2772-19.782 13.697-2.9973 7.5071-3.0566 8.6875-3.5113 69.969l-0.4625 62.333h4.7078c2.5893 0 5.3013 0.75 6.0267 1.6667 12.111 15.304 19.746 18.503 31.458 13.183z" fill="#eb9e92"/>
  <path d="m60.099 183c0.05423-34.283 0.57223-77.333 1.1511-95.667 0.96022-30.41 1.3482-34.239 4.4239-43.659 4.0847-12.51 9.5855-21.37 18.369-29.586 10.825-10.126 16.399-11.983 35.957-11.983 14.292 0 17.571 0.41393 23.012 2.9049 8.1907 3.7498 19.373 14.187 22.487 20.989 3.6308 7.9296 3.4681 26.876-0.29419 34.251-3.0315 5.9422-14.681 17.858-18.71 19.136-4.1177 1.3069-2.9091 2.9023 5.6576 7.4683 23.691 12.627 33.739 32.963 29.302 59.307-3.2284 19.17-14.483 34.669-30.785 42.395-8.0507 3.8154-9.7188 4.1091-23.337 4.1091-16.621 0-20.442-1.2784-30.634-10.25l-6.0328-5.3103v68.227h-30.667l0.0986-62.333zm72.573-5.4837c10.394-4.7221 16.662-19.416 16.662-39.064 0-19.34-4.8747-33.095-14.714-41.517-7.0419-6.0276-10.478-6.8101-18.909-4.3062-9.7098 2.8835-13.946 2.589-17.771-1.2353-7.0595-7.0595-2.1254-19.394 7.758-19.394 2.4669 0 7.5843 0.92031 11.372 2.0451 6.1734 1.8333 7.2081 1.8345 9.9898 0.01187 1.7067-1.1183 4.5666-4.5886 6.3553-7.7118 2.8224-4.9281 3.2522-7.3572 3.2522-18.381 0-10.941-0.46326-13.602-3.3416-19.196-4.8572-9.4383-9.0589-12.102-19.09-12.102-10.882 0-15.617 3.2764-19.795 13.697-3.0155 7.5212-3.0681 8.5719-3.5009 69.969l-0.43948 62.333h4.6974c2.5836 0 5.291 0.75 6.0164 1.6667 12.111 15.304 19.746 18.503 31.458 13.183z" fill="#f29a8c"/>
  <path d="m60.102 183.67c0.056294-33.917 0.56094-76.967 1.1214-95.667 0.95782-31.956 1.2337-34.627 4.5897-44.437 6.3889-18.675 16.568-31.155 30.853-37.827 7.3801-3.4468 9.2398-3.7346 24-3.7136 15.317 0.021804 16.344 0.20158 24.049 4.2089 8.8516 4.6037 18.435 14.077 21.386 21.139 3.0036 7.1887 2.5261 26.171-0.82352 32.737-2.9608 5.8036-11.472 14.674-17.491 18.229-2.0832 1.2306-3.7798 2.858-3.7701 3.6166 9e-3 0.75855 3.7088 3.1522 8.2204 5.3192 9.4963 4.5613 20.84 15.052 24.917 23.043 4.5974 9.0116 6.3004 22.328 4.423 34.585-3.0555 19.948-14.109 35.542-30.911 43.606-8.0839 3.88-9.6528 4.1597-23.333 4.1597-13.79 0-15.097-0.23817-21.862-3.9849-3.9574-2.1917-8.4203-5.6417-9.9174-7.6667-1.4971-2.025-3.2092-3.6818-3.8046-3.6818-0.59542 0-1.0826 15.3-1.0826 34v34h-30.667l0.10235-61.667zm72.881-6.2899c11.775-5.3452 17.145-20.129 15.988-44.018-0.82788-17.09-3.3208-24.568-11.059-33.174-8.177-9.0948-11.929-10.425-21.686-7.6873-10.624 2.981-14.432 2.7513-18.286-1.1027-7.0595-7.0595-2.1254-19.394 7.758-19.394 2.4669 0 7.6842 0.94997 11.594 2.111 6.7293 1.9984 7.2888 1.9766 10.484-0.40892 6.6107-4.9356 8.8916-11.701 8.8906-26.369-8.5e-4 -11.745-0.39804-14.042-3.3333-19.282-4.63-8.2647-10.666-12.053-19.196-12.047-12.654 0.0093-19.339 7.3287-22.071 24.167-0.7936 4.8909-1.3826 32.675-1.3884 65.494l-0.01007 57 4.3333 0.0204c5.312 0.0251 6.3796 0.73494 9.9946 6.6463 5.9731 9.7672 17.129 12.973 27.989 8.0434z" fill="#ec9588"/>
  <path d="m60.09 191c0.04956-29.883 0.56254-72.933 1.14-95.667 1.0126-39.867 1.1759-41.704 4.602-51.77 6.3459-18.646 16.538-31.149 30.835-37.827 7.3067-3.4125 9.3288-3.7363 23.333-3.7363 14.081 0 16.012 0.31355 23.646 3.8394 9.1447 4.2238 19.278 13.926 22.434 21.479 2.9396 7.0356 2.5629 26.194-0.63844 32.469-2.8895 5.6639-11.934 15.171-17.64 18.541-2.0905 1.2349-3.793 2.8659-3.7834 3.6244 9e-3 0.75855 3.7088 3.1522 8.2204 5.3192 9.5029 4.5645 20.841 15.053 24.924 23.058 6.7136 13.16 6.4867 36.759-0.50058 52.044-4.6138 10.093-16.286 21.803-26.38 26.466-7.53 3.4783-9.6141 3.8258-22.949 3.8258-16.526 0-21.861-1.8706-30.393-10.655-2.4987-2.5728-4.9325-4.6778-5.4084-4.6778s-0.86531 15.3-0.86531 34v34h-30.667l0.090107-54.333zm72.893-13.623c11.775-5.3452 17.145-20.129 15.988-44.018-0.82788-17.09-3.3208-24.568-11.059-33.174-8.2652-9.1929-11.892-10.435-22.102-7.5708-13.674 3.8368-21.144 0.43224-21.144-9.6371 0-5.9844 5.0165-10.976 11.031-10.976 2.4669 0 7.6842 0.94997 11.594 2.111 6.7293 1.9984 7.2888 1.9766 10.484-0.40892 6.6102-4.9352 8.8915-11.701 8.8915-26.369 0-11.747-0.39656-14.041-3.3333-19.282-4.6316-8.2651-10.668-12.053-19.197-12.047-12.417 0.0091-18.999 6.9705-22.015 23.282-0.90722 4.9076-1.4547 29.606-1.4547 65.624v57.755l4.3333 0.0204c5.3121 0.0251 6.3796 0.73494 9.9947 6.6463 5.9731 9.7672 17.129 12.973 27.989 8.0434z" fill="#f29283"/>
  <path d="m60.094 191c0.13918-80.735 1.8267-133.85 4.5616-143.58 5.4485-19.387 16.398-33.82 31.177-41.096 8.3594-4.1153 9.5122-4.3217 24.14-4.3217 13.811 0 16.118 0.35462 22.855 3.5136 9.9966 4.6873 18.239 12.35 22.036 20.486 4.2053 9.0115 4.4105 25.194 0.42378 33.43-2.615 5.4019-13.12 16.336-19.888 20.701l-3.2685 2.1079 9.816 5.1582c17.584 9.2403 26.892 21.333 29.547 38.391 4.0557 26.05-8.4551 51.625-30.585 62.522-8.3706 4.1216-9.642 4.3569-23.545 4.3569-16.583 0-21.481-1.725-29.958-10.55-2.5272-2.6309-5.0772-4.7835-5.6667-4.7835-0.58948 0-1.0718 15.3-1.0718 34v34h-30.667l0.093667-54.333zm76.413-15.454c2.5407-1.9378 6.316-6.9784 8.3896-11.201 3.3574-6.8373 3.8219-9.3893 4.243-23.313 0.61551-20.353-2.2496-30.862-11.096-40.702-8.4037-9.3469-11.714-10.47-22.727-7.7076-4.9592 1.2437-10.549 1.8395-12.741 1.3581-12.24-2.6883-9.4958-21.98 3.1265-21.98 2.4694 0 7.3468 0.97348 10.839 2.1633 7.9539 2.7102 11.258 1.432 16.405-6.346 3.4831-5.2633 3.7208-6.5233 3.7208-19.72 0-12.562-0.36302-14.745-3.3333-20.046-4.6316-8.2651-10.668-12.053-19.197-12.047-9.5789 7e-3 -14.772 3.5263-19.226 13.03l-3.5769 7.6317-0.40527 63-0.40527 63h3.4929c5.0187 0 7.9584 1.9393 11.157 7.3601 5.9061 10.01 21.78 12.806 31.334 5.5188z" fill="#fd8d7b"/>
  <path d="m60.094 191c0.13918-80.735 1.8267-133.85 4.5616-143.58 5.4485-19.387 16.398-33.82 31.177-41.096 8.3594-4.1153 9.5122-4.3217 24.14-4.3217 13.811 0 16.118 0.35462 22.855 3.5136 9.9966 4.6873 18.239 12.35 22.036 20.486 4.2053 9.0115 4.4105 25.194 0.42378 33.43-2.615 5.4019-13.12 16.336-19.888 20.701l-3.2685 2.1079 9.816 5.1582c17.584 9.2403 26.892 21.333 29.547 38.391 4.0557 26.05-8.4551 51.625-30.585 62.522-8.3706 4.1216-9.642 4.3569-23.545 4.3569-16.66 0-20.15-1.2158-29.572-10.301-3.0483-2.9391-6.1983-4.9385-7-4.443-0.99167 0.61289-1.4577 11.533-1.4577 34.156v33.255h-29.333l0.093667-54.333zm76.413-15.454c17.382-13.258 18.255-56.621 1.5141-75.24-8.3809-9.3216-11.697-10.444-22.705-7.6832-4.9592 1.2437-10.549 1.8395-12.741 1.3581-12.24-2.6883-9.4958-21.98 3.1265-21.98 2.4694 0 7.3468 0.97348 10.839 2.1633 7.924 2.7 11.259 1.4302 16.316-6.2115 3.0199-4.5634 3.7275-7.3244 4.1997-16.387 0.88027-16.893-3.3245-27.791-12.875-33.369-5.6272-3.2865-14.723-3.2731-20.518 0.03028-7.6223 4.3445-11.463 14.345-12.974 33.781-1.9441 25.011-1.7594 108.39 0.24455 110.39 0.88 0.88 3.5725 1.6 5.9833 1.6 3.6774 0 4.9357 0.87516 7.814 5.4346 6.7396 10.676 21.955 13.602 31.776 6.1109z" fill="#f38c7b"/>
  <path d="m60.087 191c0.04778-29.883 0.57529-72.633 1.1723-95 1.031-38.63 1.2597-41.206 4.5655-51.438 6.175-19.112 16.675-32.165 31.448-39.094 6.6219-3.1059 8.9957-3.468 22.728-3.467 13.778 1e-3 16.094 0.35751 22.827 3.5136 17.191 8.0584 25.138 19.976 25.16 37.731 0.0191 15.52-5.3318 24.325-21.998 36.197l-3.8972 2.7763 9.4742 4.9786c23.351 12.27 33.353 31.454 29.74 57.035-4.1326 29.255-25.947 49.101-53.973 49.101-12.694 0-21.271-3.1598-29.37-10.819-5.5912-5.2879-7.1424-6.172-7.804-4.4478-0.45418 1.1836-0.82579 16.803-0.82579 34.71v32.558h-29.333l0.086867-54.333zm72.352-12.819c5.8515-2.4449 10.742-8.5422 14.3-17.827 3.8128-9.9514 4.2432-31.812 0.85044-43.196-3.0723-10.308-9.7509-19.544-17.099-23.647l-6.0784-3.3935-9.9389 2.4749c-8.7554 2.1802-10.407 2.251-13.872 0.59453-7.9817-3.8158-7.2239-17.497 1.132-20.436 2.759-0.97029 6.1707-0.68049 13.148 1.1168 9.2095 2.3724 9.501 2.3694 12.938-0.13211 6.3051-4.5894 9.516-12.979 9.516-24.864 0-13.072-1.8259-19.41-7.5028-26.042-5.3488-6.2488-12.423-8.4938-20.831-6.6109-12.042 2.6968-16.492 11.523-18.376 36.447-1.8802 24.876-1.6467 107.78 0.309 109.73 0.88 0.88 3.5725 1.6 5.9833 1.6 3.6774 0 4.9357 0.87516 7.814 5.4346 5.7094 9.0442 17.835 12.872 27.708 8.7466z" fill="#f48473"/>
  <path d="m60.087 191c0.04778-29.883 0.57529-72.633 1.1723-95 1.031-38.63 1.2597-41.206 4.5655-51.438 8.7807-27.177 25.838-41.712 50.414-42.959 21.871-1.1097 39.708 7.6926 48.169 23.771 3.5716 6.787 3.801 8.1242 3.31 19.292-0.44126 10.037-1.0848 12.874-3.9335 17.341-3.358 5.2657-10.219 11.973-17.871 17.471l-3.9133 2.8117 8.548 4.3159c10.523 5.313 22.018 15.969 26.263 24.345 7.2056 14.22 6.6029 36.165-1.4427 52.527-8.5712 17.431-24.7 28.134-44.435 29.487-14.691 1.0069-23.269-1.6984-32.691-10.31-5.7753-5.2783-7.4557-6.2222-8.0978-4.5488-0.44566 1.1614-0.81029 16.762-0.81029 34.669v32.558h-29.333l0.086867-54.333zm72.979-12.873c22.186-11.543 23.004-66.469 1.2246-82.246-7.4584-5.4029-10.09-5.8216-20.374-3.2424-7.0221 1.7611-9.6529 1.9086-12.56 0.70446-8.7366-3.6188-8.5398-16.482 0.30834-20.147 3.3226-1.3763 5.6244-1.2429 13.835 0.80166l9.8491 2.4526 3.5014-3.2251c5.9394-5.4706 8.422-12.689 8.4463-24.558 0.0283-13.828-1.7376-19.815-7.7392-26.239-11.698-12.522-31.304-7.5862-36.198 9.1136-2.8861 9.8487-3.9313 30.828-3.9785 79.859-0.03533 36.699 0.3638 49.811 1.5524 51 0.88 0.88 3.5725 1.6 5.9833 1.6 3.6591 0 4.936 0.8755 7.7283 5.2989 5.8643 9.2897 19.433 13.504 28.421 8.8278z" fill="#e98777"/>
  <path d="m60.084 199.67c0.046414-25.117 0.57739-67.867 1.1799-95 1.0659-47.998 1.1895-49.625 4.568-60.105 8.7399-27.11 25.628-41.515 50.323-42.923 21.777-1.2417 39.764 7.6059 48.252 23.735 3.5716 6.787 3.801 8.1242 3.31 19.292-0.44126 10.037-1.0848 12.874-3.9335 17.341-3.358 5.2657-10.219 11.973-17.871 17.471l-3.9133 2.8117 8.548 4.3159c10.523 5.313 22.018 15.969 26.263 24.345 7.2056 14.22 6.6029 36.165-1.4427 52.527-8.5712 17.431-24.7 28.134-44.435 29.487-14.691 1.0069-23.269-1.6984-32.691-10.31-5.7753-5.2783-7.4557-6.2222-8.0978-4.5488-0.44566 1.1614-0.81029 16.762-0.81029 34.669v32.558h-29.333zm72.982-21.54c22.186-11.543 23.004-66.469 1.2246-82.246-7.4159-5.3721-10.099-5.8194-20.005-3.335-6.4723 1.6232-9.481 1.7978-12.549 0.72821-9.08-3.1653-9.127-16.327-0.0717-20.078 3.3226-1.3763 5.6244-1.2429 13.835 0.80166l9.8491 2.4526 3.5014-3.2251c5.9394-5.4706 8.422-12.689 8.4463-24.558 0.0283-13.828-1.7376-19.815-7.7392-26.239-11.698-12.522-31.304-7.5862-36.198 9.1136-2.8861 9.8487-3.9313 30.828-3.9785 79.859-0.03533 36.699 0.3638 49.811 1.5524 51 0.88 0.88 3.5725 1.6 5.9833 1.6 3.6591 0 4.936 0.8755 7.7283 5.2989 5.8643 9.2897 19.433 13.504 28.421 8.8278z" fill="#f5806e"/>
  <path d="m60.514 158.65c0.51712-47.676 1.4777-91.326 2.1346-97 2.51-21.681 11.544-39.923 24.766-50.005 23.001-17.54 61.451-11.725 75.787 11.463 3.3525 5.4226 4.0416 8.0966 4.5416 17.623 0.53223 10.14 0.24251 11.939-2.9849 18.536-3.4845 7.122-12.979 16.946-19.126 19.79-1.669 0.77209-2.8345 2.0038-2.5901 2.737 0.24443 0.73328 4.31 3.3423 9.0345 5.7978 11.534 5.9948 22.753 17.793 26.538 27.909 3.3518 8.9585 3.936 25.108 1.2964 35.833-5.8659 23.834-24.826 39.976-48.891 41.626-14.539 0.9965-23.548-1.8677-32.975-10.483-3.8537-3.522-7.3904-6.02-7.8593-5.551-0.46897 0.46898-0.85268 16.053-0.85268 34.63v33.778h-29.76zm74.24 18.33c7.4938-5.0501 11.787-12.564 14.213-24.879 4.446-22.567-2.215-47.003-15.588-57.183-6.3313-4.8198-7.6396-4.9309-22.045-1.8724-12.301 2.6119-19.786-4.7407-15.16-14.893 2.521-5.5331 7.9927-6.9147 17.222-4.3486 10.606 2.9486 12.204 2.8035 16.203-1.4709 6.361-6.7987 7.9255-11.65 7.9255-24.576 0-10.248-0.51169-13.053-3.4929-19.146-4.5175-9.2334-10.593-13.182-20.283-13.182-10.797 0-18.515 7.1869-21.791 20.292-2.3272 9.3086-3.4705 123.65-1.263 126.31 0.89822 1.0823 3.6443 1.9678 6.1023 1.9678 3.5241 0 4.8725 0.77534 6.3767 3.6667 2.4 4.6133 7.1723 9.1117 11.495 10.835 6.1072 2.4353 15.241 1.7433 20.086-1.5218z" fill="#f47966"/>
  <path d="m60.061 200.33c0.03356-24.75 0.58453-67.2 1.2244-94.333 1.0655-45.182 1.4098-50.119 4.092-58.667 6.7265-21.437 16.239-33.782 31.656-41.086 8.3077-3.9355 9.9948-4.2475 22.966-4.2475 12.94 0 14.672 0.31817 22.868 4.2017 9.9583 4.7181 17.938 11.967 21.843 19.843 2.0217 4.0774 2.6224 8.0382 2.6224 17.289 0 10.682-0.40155 12.683-3.6573 18.221-3.7194 6.3271-12.573 14.913-18.009 17.465-4.7636 2.236-3.58 4.1294 5.1826 8.291 10.965 5.2074 21.486 15.049 26.041 24.361 3.0102 6.1525 3.7745 9.7802 4.2234 20.044 0.67789 15.5-1.985 26.426-9.1373 37.492-9.987 15.452-24.805 23.201-44.644 23.348-14.749 0.10934-23.451-3.2513-31.192-12.045-2.8002-3.1812-5.4775-5.3975-5.9498-4.9253s-0.85858 16.359-0.85858 35.303v34.444h-29.333l0.061-45zm78.639-26.366c6.4929-6.3402 10.198-15.725 11.387-28.84 1.7641-19.468-3.9019-39.258-13.703-47.864-7.6635-6.7287-11.78-7.9868-18.98-5.8013-13.928 4.2279-21.937 1.2605-21.937-8.1286 0-9.0298 7.3838-12.766 18.541-9.3821 9.8584 2.9902 11.833 2.62 17.096-3.205 5.4846-6.0708 6.893-11.421 6.6478-25.255-0.24001-13.539-5.1487-23.504-13.707-27.825-7.3785-3.7253-12.247-3.7849-19.57-0.23968-7.8613 3.8056-12.163 12.728-13.845 28.714-1.9246 18.297-1.6727 114.28 0.3051 116.26 0.88 0.88 3.5646 1.6 5.9658 1.6 3.4113 0 4.7828 0.8016 6.2733 3.6667 4.5894 8.8216 11.519 12.484 22.519 11.901 6.8866-0.36504 8.2478-0.95101 13.009-5.5998z" fill="#eb7968"/>
  <path d="m60.075 207c0.04148-21.083 0.58309-63.533 1.2036-94.333 1.0541-52.324 1.3218-56.613 4.0776-65.333 6.7924-21.494 16.271-33.788 31.677-41.086 8.3077-3.9355 9.9948-4.2475 22.966-4.2475 12.94 0 14.672 0.31817 22.868 4.2017 9.9583 4.7181 17.938 11.967 21.843 19.843 2.0217 4.0774 2.6224 8.0382 2.6224 17.289 0 10.682-0.40155 12.683-3.6573 18.221-3.7194 6.3271-12.573 14.913-18.009 17.465-4.7636 2.236-3.58 4.1294 5.1826 8.291 10.965 5.2074 21.486 15.049 26.041 24.361 3.0102 6.1525 3.7745 9.7802 4.2234 20.044 0.67789 15.5-1.985 26.426-9.1373 37.492-9.987 15.452-24.805 23.201-44.644 23.348-14.749 0.10934-23.451-3.2513-31.192-12.045-2.8002-3.1812-5.4775-5.3975-5.9498-4.9253s-0.85858 16.359-0.85858 35.303v34.444h-29.333zm78.625-33.033c6.4929-6.3402 10.198-15.725 11.387-28.84 1.7641-19.468-3.9019-39.258-13.703-47.864-7.6635-6.7287-11.78-7.9868-18.98-5.8013-13.928 4.2279-21.937 1.2605-21.937-8.1286 0-9.0298 7.3838-12.766 18.541-9.3821 9.8584 2.9902 11.833 2.62 17.096-3.205 5.4846-6.0708 6.893-11.421 6.6478-25.255-0.24001-13.539-5.1487-23.504-13.707-27.825-7.3785-3.7253-12.247-3.7849-19.57-0.23968-7.8613 3.8056-12.163 12.728-13.845 28.714-1.9246 18.297-1.6727 114.28 0.3051 116.26 0.88 0.88 3.5646 1.6 5.9658 1.6 3.4113 0 4.7828 0.8016 6.2733 3.6667 4.5894 8.8216 11.519 12.484 22.519 11.901 6.8866-0.36504 8.2478-0.95101 13.009-5.5998z" fill="#f4715d"/>
  <path d="m60.072 211c0.03944-18.883 0.59486-61.033 1.2343-93.667 1.0626-54.235 1.4034-60.174 3.9657-69.118 6.8159-23.792 18.718-37.698 37.773-44.133 26.197-8.847 57.434 5.0906 63.78 28.458 0.83659 3.0806 1.152 9.4645 0.72378 14.651-0.95604 11.58-6.6964 20.917-17.453 28.386-4.0304 2.7988-7.3483 5.6888-7.373 6.4221-0.0247 0.73333 4.4476 3.6396 9.9383 6.4584 11.112 5.7045 19.758 14.242 24.816 24.502 2.7699 5.6194 3.1422 8.2663 3.1474 22.373 5e-3 13.996-0.3966 16.919-3.2067 23.333-4.7288 10.795-11.16 19.042-19.073 24.46-10.433 7.143-17.276 9.2145-31.011 9.3883-10.651 0.13478-12.865-0.27284-19.693-3.6258-4.3594-2.1407-9.4978-6.0235-11.858-8.9604-2.2908-2.8505-4.6789-4.8652-5.307-4.477-0.62809 0.38817-1.142 16.27-1.142 35.294v34.588h-29.333l0.07172-34.333zm75.991-34.181c12.067-8.1995 17.594-32.493 12.675-55.704-3.0351-14.32-9.6506-24.139-19.726-29.28-4.9495-2.525-5.583-2.5578-11.364-0.58811-13.692 4.6654-21.914 1.7131-21.914-7.869 0-9.6092 5.794-12.366 19.194-9.1315 11.612 2.8028 14.646 1.5346 19.665-8.222 2.9468-5.7274 3.3941-8.2504 3.3078-18.657-0.15106-18.214-5.6358-27.851-17.952-31.541-10.08-3.0201-20.507 1.6472-24.991 11.186-4.801 10.214-5.7446 24.764-5.3383 82.32l0.38117 54 5.5883 0.66667c4.5325 0.54072 6.1759 1.5423 8.6984 5.3016 5.0121 7.4694 10.928 10.698 19.601 10.698 5.7002 0 8.6135-0.76122 12.175-3.1811z" fill="#f56a54"/>
  <path d="m60.151 229.67c-0.14164-8.6167 0.3779-50.467 1.1545-93 1.5636-85.63 1.9533-89.398 11.002-106.38 5.3901-10.113 17.417-21.19 27.313-25.157 10.924-4.3789 29.79-4.3981 40.648-0.04138 9.0752 3.6414 20.105 13.166 24.038 20.757 3.8454 7.4225 4.1269 25.756 0.50893 33.142-3.0167 6.1585-10.943 14.459-18.153 19.01-2.9855 1.8847-5.1284 3.9119-4.7619 4.5049 0.36649 0.59299 4.4939 2.9624 9.1719 5.2655 18.681 9.1964 28.761 23.411 29.971 42.261 2.1081 32.849-16.378 57.482-46.641 62.149-8.2135 1.2667-11.092 1.1528-18.403-0.7279-9.5081-2.446-17.353-7.1969-21.5-13.021-1.475-2.0714-3.2409-3.7662-3.9243-3.7662-0.73657 0-1.2425 14.388-1.2425 35.333v35.333h-28.925zm75.16-52.224c5.0164-2.8151 10.649-10.994 12.93-18.776 1.0584-3.6103 1.719-12.372 1.6587-22-0.0839-13.392-0.60213-17.286-3.18-23.892-3.4876-8.9368-11.276-18.136-18.092-21.371-4.194-1.9902-5.21-2.0014-11.522-0.12681-9.4628 2.8101-15.208 2.6198-18.439-0.61082-3.3044-3.3044-3.5567-11.473-0.46002-14.895 2.7422-3.0301 11.203-3.234 19.066-0.45959 4.962 1.7507 6.0509 1.7498 9.4491-0.0075 12.838-6.6387 15.822-36.537 5.1209-51.31-9.9539-13.741-30.599-11.841-37.358 3.4389-4.4057 9.9599-5.2676 24.341-4.8684 81.233l0.38356 54.667 5.6419 0.75301c6.4439 0.86007 5.9869 0.53962 8.8778 6.2244 4.8252 9.4886 20.232 13.057 30.791 7.1315z" fill="#f3624c"/>
  <path d="m60.807 204.33c0.88503-107.88 1.9864-144.4 4.6727-154.95 3.2879-12.911 7.8164-22.119 14.756-30.003 17.333-19.692 46.473-23.627 69.154-9.3398 5.9714 3.7615 13.066 11.793 15.444 17.485 2.8542 6.8309 2.4209 26.109-0.72344 32.193-2.6923 5.2094-11.144 13.837-18.459 18.842-2.3919 1.6367-4.0186 3.5104-3.6148 4.1638 0.40384 0.65342 4.5942 3.0302 9.3119 5.2818 17.591 8.3955 27.938 22.948 29.466 41.443 2.6973 32.647-16.511 58.353-46.81 62.644-15.679 2.2204-27.788-1.755-37.186-12.209-3.1921-3.5504-6.1819-6.0772-6.6439-5.6151-0.46208 0.46208-0.84014 16.64-0.84014 35.951v35.111h-28.863zm72.559-26c11.139-5.634 17.3-19.837 17.3-39.881 0-23.579-7.8712-40.325-22.135-47.094-4.68-2.2208-5.4173-2.233-11.878-0.1965-13.543 4.2692-20.654 1.5741-20.654-7.8287 0-9.399 8.3501-12.445 21.673-7.9052 7.1804 2.4466 9.7574 1.5556 14.864-5.1395 8.8547-11.609 7.802-37.069-1.9941-48.226-4.8656-5.5416-11.508-7.9345-19.52-7.0315-7.643 0.86148-12.26 4.2432-15.979 11.705-5.055 10.141-5.7978 21.208-5.4096 80.597l0.36605 56 5.0358 0.41595c4.1631 0.34388 5.6303 1.3144 8.467 5.6009 3.8717 5.8505 8.5504 9.3247 14.469 10.744 6.7996 1.6307 9.2404 1.3515 15.394-1.761z" fill="#f45c44"/>
  <path d="m60.808 205c0.51992-62.296 1.9674-141.15 2.6861-146.33 2.8433-20.497 14.466-40.9 27.725-48.67 14.599-8.5556 29.868-10.689 43.6-6.0923 15.096 5.0535 23.392 11.318 28.601 21.598 2.7129 5.3537 3.2477 8.3494 3.2477 18.192 0 10.653-0.36221 12.352-3.7761 17.711-4.1671 6.5415-13.23 15.228-18.296 17.536-1.794 0.81738-3.2592 2.1398-3.256 2.9388 3e-3 0.79896 4.4212 3.7193 9.8179 6.4897 17.515 8.9914 26.263 20.303 29.143 37.683 4.0992 24.738-8.1424 50.541-28.72 60.538-20.906 10.156-42.444 7.3487-55.252-7.2022-2.9318-3.3307-5.7048-6.0558-6.1624-6.0558-0.45755 0-0.8319 16.2-0.8319 36v36h-28.862zm71.568-25.502c5.7644-2.4664 10.838-8.1018 14.552-16.164 2.7493-5.9673 3.0681-8.6248 3.0393-25.333-0.0272-15.794-0.45996-19.72-2.8121-25.509-3.8038-9.3629-9.119-15.966-16.185-20.107l-5.9455-3.4843-9.0585 2.3495c-14.187 3.6798-19.967 1.2212-19.967-8.4944 0-8.6112 8.6648-11.706 20.667-7.3825 2.9333 1.0568 6.0373 1.9304 6.8977 1.9415 2.5022 0.03211 9.674-6.5954 11.996-11.085 2.7123-5.2451 3.8662-23.849 1.9242-31.027-3.4483-12.744-12.358-20.535-23.484-20.535-12.223 0-20.245 8.3163-23.149 24-0.81678 4.4114-1.2569 30.709-1.1046 66l0.25315 58.667 5.0354 0.41593c4.1486 0.34268 5.5843 1.2854 8.152 5.3529 3.9182 6.2068 6.1841 8.0836 12.467 10.325 6.5064 2.3218 11.411 2.3423 16.722 0.07z" fill="#ee5d47"/>
  <path d="m61.011 193.67c0.57658-86.499 2.3459-138.45 5.0061-147 7.1993-23.129 18.666-35.791 38.631-42.66 21.483-7.3912 49.285 2.778 58.77 21.496 2.7129 5.3537 3.2477 8.3494 3.2477 18.192 0 10.653-0.36221 12.352-3.7761 17.711-4.1671 6.5415-13.23 15.228-18.296 17.536-1.794 0.81738-3.2592 2.1398-3.256 2.9388 3e-3 0.79896 4.4212 3.7193 9.8179 6.4897 17.515 8.9914 26.263 20.303 29.143 37.683 4.1542 25.07-8.0678 50.424-29.359 60.906-8.412 4.1412-9.6675 4.3741-23.58 4.3741-17.206 0-22.218-1.9291-31.034-11.944-2.9318-3.3307-5.7048-6.0558-6.1624-6.0558-0.45755 0-0.8319 16.2-0.8319 36v36l-14.333 6.5e-4 -14.333 6.6e-4zm71.365-14.17c5.7644-2.4664 10.838-8.1018 14.552-16.164 2.7493-5.9673 3.0681-8.6248 3.0393-25.333-0.0272-15.794-0.45996-19.72-2.8121-25.509-3.8038-9.3629-9.119-15.966-16.185-20.107l-5.9455-3.4843-9.0585 2.3495c-14.187 3.6798-19.967 1.2212-19.967-8.4944 0-8.7033 8.1526-11.601 20.676-7.349 7.41 2.5157 9.9675 1.8246 15.169-4.0993 4.9368-5.6227 6.8066-12.025 6.8066-23.306 0-20.542-9.4601-33.333-24.652-33.333-12.636 0-20.529 8.5686-23.302 25.299-0.92209 5.5622-1.3081 29.383-1.07 66.034l0.37239 57.333 5.0354 0.41593c4.1486 0.34268 5.5843 1.2854 8.152 5.3529 3.9182 6.2068 6.1841 8.0836 12.467 10.325 6.5064 2.3218 11.411 2.3423 16.722 0.07z" fill="#fd5136"/>
  <path d="m61.011 193.67c0.57658-86.499 2.3459-138.45 5.0061-147 7.1993-23.129 18.666-35.791 38.631-42.66 21.483-7.3912 49.285 2.778 58.77 21.496 2.7129 5.3537 3.2477 8.3494 3.2477 18.192 0 10.653-0.36221 12.352-3.7761 17.711-4.1671 6.5415-13.23 15.228-18.296 17.536-1.794 0.81738-3.2618 2.1986-3.2618 3.0694 0 0.87077 4.3684 3.7422 9.7076 6.381 22.959 11.347 33.148 30.978 29.214 56.285-3.0609 19.689-13.238 34.368-29.314 42.282-8.412 4.1412-9.6675 4.3741-23.58 4.3741-12.545 0-15.488-0.42483-20.119-2.9034-5.3354-2.8559-14.262-11.604-15.552-15.241-2.1449-6.0466-3.0233 4.4873-3.0233 36.256v35.889l-14 6.5e-4 -14 6.6e-4zm71.365-14.17c13.605-5.8213 21.98-29.47 18.287-51.642-3.1096-18.673-8.9366-29.169-19.693-35.472l-5.9455-3.4843-9.0585 2.3495c-14.187 3.6798-19.967 1.2212-19.967-8.4944 0-8.7033 8.1526-11.601 20.676-7.349 3.3566 1.1396 7.2406 1.7109 8.6312 1.2695 4.0924-1.2989 10.46-9.5283 12.115-15.657 2.2897-8.4788 0.97117-25.855-2.4675-32.516-9.2581-17.936-30.354-19.239-39.856-2.4614-5.3536 9.4523-6.1346 18.486-6.7509 78.079-0.54606 52.806-0.42337 56.949 1.7507 59.123 1.6097 1.6096 3.517 2.102 6.1235 1.5808 3.2807-0.65615 4.2055-0.092 6.9337 4.2299 3.9505 6.2579 6.2055 8.13 12.498 10.375 6.5064 2.3218 11.411 2.3423 16.722 0.07z" fill="#f5533a"/>
  <path d="m61.014 193.67c0.19112-28.417 0.86208-71.167 1.491-95.001 1.0955-41.513 1.2903-43.786 4.6382-54.105 8.4802-26.137 25.943-41.152 49.928-42.927 18.35-1.3579 38.821 9.267 46.135 23.945 2.839 5.6972 3.4597 8.8171 3.4597 17.39 0 5.9489-0.80541 12.375-1.8704 14.924-2.5638 6.1359-10.729 14.895-17.685 18.972-3.178 1.8624-5.7782 4.1727-5.7782 5.1339s3.9051 3.5751 8.678 5.8086c11.454 5.3601 22.04 15.473 26.406 25.227 8.5294 19.055 4.2655 46.129-9.7852 62.132-17.403 19.821-53.233 22.773-68.985 5.6841-2.8975-3.1434-5.5713-6.5712-5.9419-7.6174-2.1606-6.1-3.0388 4.3642-3.0388 36.209v35.889l-14 6.5e-4 -14 6.6e-4zm71.362-14.17c16.619-7.1109 23.719-36.518 15.663-64.877-2.2514-7.9256-8.9756-17.093-15.687-21.387-6.8177-4.3617-9.0292-4.4827-20.762-1.1354-5.5611 1.5866-6.8834 1.5633-9.9824-0.17615-6.8594-3.8501-7.3554-14.576-0.81192-17.557 3.2947-1.5012 5.1158-1.2843 21.304 2.5365 3.7545 0.88616 10.962-5.3569 14.061-12.18 3.1431-6.9195 3.3655-24.392 0.42049-33.035-7.7741-22.816-36.519-23.286-44.014-0.71939-3.4343 10.34-4.4682 28.934-4.5191 81.27-0.05266 54.145-0.22058 53.095 8.4909 53.095 3.5625 0 4.9304 0.90336 7.5714 5 5.882 9.124 18.67 13.27 28.266 9.1642z" fill="#ed533b"/>
  <path d="m61.012 201c0.18978-24.384 0.8686-67.134 1.5085-95.001 1.1337-49.37 1.2524-50.942 4.6407-61.438 4.1123-12.738 11.721-25.079 18.965-30.759 20.974-16.446 47.453-16.307 68.082 0.35897 8.4871 6.8569 12.46 16.042 12.46 28.809 0 5.9489-0.80541 12.375-1.8704 14.924-2.5638 6.1359-10.729 14.895-17.685 18.972-3.178 1.8624-5.7782 4.1727-5.7782 5.1339s3.884 3.5652 8.6311 5.7866c10.586 4.9539 21.191 14.635 25.633 23.4 9.296 18.345 5.2445 47.798-8.771 63.76-17.597 20.042-53.336 23.093-69.179 5.9051-2.8975-3.1434-5.5713-6.5712-5.9419-7.6174-2.1606-6.1-3.0388 4.3642-3.0388 36.209v35.889l-14 8.1e-4 -14 8.3e-4zm71.364-21.503c16.619-7.1109 23.719-36.518 15.663-64.877-2.25-7.9206-8.9723-17.093-15.615-21.305-7.3542-4.6639-7.721-4.697-19.268-1.738-8.3285 2.1342-9.0468 2.1339-12.312-0.0057-6.2876-4.1198-6.316-14.35-0.0479-17.206 3.2947-1.5012 5.1158-1.2843 21.304 2.5365 3.7545 0.88616 10.962-5.3569 14.061-12.18 3.1431-6.9195 3.3655-24.392 0.42049-33.035-7.7741-22.816-36.519-23.286-44.014-0.71932-3.4343 10.34-4.4682 28.934-4.5191 81.27-0.05266 54.145-0.22058 53.095 8.4909 53.095 3.5625 0 4.9304 0.90336 7.5714 5 5.882 9.124 18.67 13.27 28.266 9.1642z" fill="#f74d32"/>
  <path d="m61.012 201c0.18978-24.384 0.8686-67.134 1.5085-95.001 1.1327-49.329 1.2548-50.948 4.6251-61.333 4.3083-13.276 12.646-26.183 20.704-32.053 11.97-8.7189 34.95-14.136 42.502-10.019 1.2734 0.69421 5.3152 2.1965 8.9819 3.3384 9.689 3.0175 19.167 10.738 23.6 19.224 3.0163 5.7739 3.7336 8.8786 3.7336 16.161 0 4.9579-0.3584 10.806-0.79644 12.997-1.2016 6.0078-9.6037 16.177-18.208 22.036-4.2188 2.8731-7.3455 5.7498-6.9481 6.3928 0.39739 0.643 4.5335 2.9879 9.1914 5.2109 23.11 11.029 33.267 30.072 29.984 56.214-3.3736 26.867-22.766 45.667-48.958 47.462-14.327 0.98198-23.749-1.8312-31.288-9.3421-3.1045-3.0926-6.3634-6.823-7.2421-8.2896-3.6616-6.1117-4.437 0.78686-4.0836 36.334l0.34792 35.001-14-2.9e-4 -14-2.8e-4zm73.934-22.676c6.2888-3.8073 11.3-10.592 13.637-18.461 6.9764-23.492 1.5164-51.761-12.356-63.972-7.793-6.8597-10.561-7.4201-22.259-4.507-9.1468 2.2777-9.9188 2.2875-13.155 0.16715-6.5383-4.284-5.8401-13.927 1.242-17.153 2.7529-1.2543 5.3412-1.0856 13.14 0.85648 9.2153 2.2948 9.8916 2.3008 13.224 0.11715 1.9317-1.2657 5.0671-5.4793 6.9674-9.3635 2.9352-5.9992 3.4487-8.8236 3.4118-18.764-0.0365-9.8362-0.59519-12.83-3.5038-18.775-3.9546-8.083-8.164-11.883-15.289-13.801-10.718-2.8862-20.824 1.9527-25.947 12.424-4.8964 10.008-5.9847 25.147-6.0249 83.812-0.03821 55.806-0.25998 54.429 8.7605 54.429 3.5406 0 4.8739 0.69316 5.7706 3 1.4793 3.8057 7.7644 9.7814 12.101 11.506 5.9769 2.3763 14.962 1.7056 20.279-1.5138z" fill="#ed4c33"/>
  <path d="m61.015 209c0.19178-19.984 0.87575-62.734 1.5199-95.001 1.1563-57.916 1.2154-58.803 4.6214-69.333 6.4713-20.007 18.58-33.992 33.51-38.705 3.6667-1.1573 7.7085-2.6722 8.9819-3.3664 2.9993-1.6351 17.704-1.6351 20.703 0 1.2734 0.69421 5.3152 2.1965 8.9819 3.3384 9.689 3.0175 19.167 10.738 23.6 19.224 3.0163 5.7739 3.7336 8.8786 3.7336 16.161 0 4.9579-0.3584 10.806-0.79644 12.997-1.2016 6.0078-9.6037 16.177-18.208 22.036-4.2188 2.8731-7.3455 5.7498-6.9481 6.3928 0.39739 0.643 4.5335 2.9879 9.1914 5.2109 23.11 11.029 33.267 30.072 29.984 56.214-3.3736 26.867-22.766 45.667-48.958 47.462-14.327 0.98198-23.749-1.8312-31.288-9.3421-3.1045-3.0926-6.3634-6.823-7.2421-8.2896-3.6616-6.1117-4.437 0.78686-4.0836 36.334l0.34792 35.001-14-2e-5 -14-3e-5zm73.931-30.676c6.2888-3.8073 11.3-10.592 13.637-18.461 6.9764-23.492 1.5164-51.761-12.356-63.972-7.7191-6.7946-10.539-7.4028-21.764-4.6936-7.7255 1.8646-9.8228 1.9485-12.819 0.51238-7.2846-3.4914-7.037-13.918 0.41108-17.312 2.7529-1.2543 5.3412-1.0856 13.14 0.85648 9.2153 2.2948 9.8916 2.3008 13.224 0.11715 1.9317-1.2657 5.0671-5.4793 6.9674-9.3635 2.9352-5.9992 3.4487-8.8236 3.4118-18.764-0.0365-9.8362-0.59519-12.83-3.5038-18.775-3.9546-8.083-8.164-11.883-15.289-13.801-10.718-2.8862-20.824 1.9527-25.947 12.424-4.8964 10.008-5.9847 25.147-6.0249 83.812-0.03821 55.806-0.25998 54.429 8.7605 54.429 3.5406 0 4.8739 0.69316 5.7706 3 1.4793 3.8057 7.7644 9.7814 12.101 11.506 5.9769 2.3763 14.962 1.7056 20.279-1.5138z" fill="#f94529"/>
  <path d="m61.015 209c0.19178-19.984 0.88096-62.734 1.5315-95.001 1.1093-55.021 1.3661-59.245 4.1331-67.974 6.6586-21.006 20.221-36.559 35.456-40.661 3.5918-0.96712 7.1006-2.2699 7.7972-2.8952 1.6674-1.4964 19.4-1.4761 19.4 0.022111 0 0.63738 1.9874 1.4814 4.4165 1.8756 12.649 2.0526 27.032 13.504 30.781 24.506 2.1665 6.3585 2.7894 18.191 1.3393 25.442-1.2016 6.0078-9.6037 16.177-18.208 22.036-4.2188 2.8731-7.3236 5.7852-6.8995 6.4715 0.42415 0.68627 4.716 3.1712 9.5375 5.522 11.634 5.6725 20.72 14.055 25.232 23.277 4.41 9.0138 5.845 26.753 3.146 38.892-5.8914 26.497-28.886 43.364-56.016 41.09-13.916-1.1666-23.667-6.8937-30.192-17.732-1.1212-1.8624-1.9376-2.1491-3.0633-1.0758-1.1024 1.051-1.423 11.475-1.1381 37.001l0.39661 35.538-14-2e-5 -14-3e-5zm76.69-32.2c17.557-13.391 18.859-58.333 2.2364-77.217-2.8833-3.2757-7.6379-7.1409-10.566-8.5894-5.2574-2.6011-5.4367-2.6026-14.51-0.11461-10.738 2.9444-15.452 1.9272-17.631-3.8041-1.8598-4.8916-0.57414-9.2408 3.5256-11.927 3.1659-2.0744 4.0636-2.0634 13.843 0.17032 10.429 2.3819 10.469 2.3806 14.479-0.47461 2.2115-1.5747 5.3703-5.6506 7.0196-9.0575 6.1222-12.647 2.9346-37.297-5.8957-45.592-4.8654-4.5708-12.717-7.1878-18.819-6.2727-13.332 1.9993-19.93 11.658-22.109 32.367-1.9141 18.192-1.6487 115.48 0.32042 117.44 0.88 0.88 3.73 1.6046 6.3333 1.6103 4.0942 9e-3 5.1308 0.70648 7.6769 5.1661 6.3206 11.071 23.639 14.266 34.096 6.291z" fill="#f54529"/>
  <path d="m60.572 242.33c0.34234-1.65 0.99402-40.2 1.4482-85.667 0.45415-45.467 1.3503-87.767 1.9915-94 1.9915-19.36 8.9519-35.45 20.113-46.495 5.0599-5.0074 18.913-12.169 23.542-12.17 1.65-5.785e-4 3-0.60105 3-1.3344 0-0.7619 4-1.3333 9.3333-1.3333s9.3333 0.57143 9.3333 1.3333c0 0.73333 1.35 1.3338 3 1.3344 10.365 0.00364 29.457 15.366 32.748 26.351 2.4137 8.0561 1.9379 21.408-0.99286 27.863-2.8991 6.3851-10.903 14.828-18.759 19.787-2.9853 1.8846-5.0605 4.0209-4.6115 4.7474 0.449 0.7265 4.7612 3.2443 9.5827 5.5952 11.667 5.6885 20.719 14.051 25.263 23.34 3.0762 6.2875 3.7852 9.7226 4.2149 20.421 0.57673 14.359-1.568 24.385-7.3494 34.357-17.586 30.332-63.418 34.563-79.958 7.382-1.121-1.8421-1.9378-2.1218-3.0633-1.0487-1.1024 1.051-1.423 11.475-1.1381 37.001l0.39661 35.538-14.359-1e-3c-14.186-1e-3 -14.351-0.0372-13.736-3.0011zm77.195-65.398c17.463-13.32 18.735-58.539 2.176-77.351-2.8833-3.2757-7.6045-7.1244-10.492-8.5528-5.0711-2.509-5.5547-2.5201-14.262-0.32835-10.627 2.6751-15.183 1.8434-17.642-3.2208-2.3129-4.7626-1.0515-9.5383 3.2667-12.368 3.2378-2.1215 4.0116-2.1097 13.299 0.20307 11.735 2.9223 14.72 2.0636 19.868-5.716 8.5367-12.9 6.205-40.456-4.221-49.884-4.6262-4.1835-12.518-6.6732-18.372-5.7954-13.332 1.9993-19.93 11.658-22.109 32.367-1.9141 18.192-1.6487 115.48 0.32042 117.44 0.88 0.88 3.73 1.6046 6.3333 1.6103 4.0942 9e-3 5.1308 0.70648 7.6769 5.1661 6.2676 10.978 23.851 14.286 34.156 6.4258z" fill="#f94125"/>
  <path d="m61.013 215.67c0.19028-16.317 0.88536-58.768 1.5446-94.335 1.133-61.125 1.3597-65.178 4.1392-74 4.1344-13.123 8.5702-21.33 15.576-28.82 6.284-6.7181 19.859-14.514 25.274-14.514 1.7162 0 3.1204-0.6 3.1204-1.3333 0-0.76297 4.0262-1.3333 9.412-1.3333 5.1766 0 9.0875 0.52506 8.6909 1.1668s1.723 1.5576 4.7103 2.0353c12.226 1.955 25.63 12.394 30.524 23.77 2.4706 5.7432 2.8728 8.6436 2.3796 17.163-0.50124 8.6585-1.2494 11.274-4.8131 16.828-3.7713 5.8771-17.403 17.704-20.405 17.704-0.64112 0-1.1657 0.78408-1.1657 1.7424 0 0.95832 4.311 3.8083 9.5801 6.3333 11.417 5.471 21.953 15.266 26.452 24.591 4.679 9.698 5.3592 28.941 1.4752 41.728-4.7374 15.597-16.091 27.989-31.103 33.947-10.076 3.999-28.695 4.0981-37.071 0.19728-6.304-2.9358-12.545-8.2728-16.223-13.872-4.6022-7.0071-5.2574-2.2516-4.8402 35.131l0.39661 35.538-14 2.8e-4 -14 2.7e-4zm76.847-38.804c11.856-9.0427 17.067-32.837 12.211-55.749-1.0357-4.8868-2.8593-10.773-4.0523-13.08-3.3203-6.4208-11.258-14.6-17.022-17.541-4.9367-2.5185-5.498-2.5421-11.678-0.48954-3.5704 1.1859-9.0731 1.9699-12.228 1.7423-4.7646-0.34376-6.037-1.0433-7.5087-4.1278-2.3535-4.9326-0.5043-10.407 4.307-12.751 3.1761-1.5474 4.9687-1.4672 12.841 0.57476 10.953 2.8409 14.14 1.8822 19.21-5.7798 8.0739-12.201 7.2902-34.89-1.6169-46.808-3.7704-5.0452-12.325-9.463-18.323-9.463-5.7598 0-14.491 4.3465-17.65 8.7861-1.4955 2.1021-3.7943 7.122-5.1084 11.155-2.1169 6.4974-2.45 14.219-2.9223 67.735-0.40376 45.753-0.1442 60.87 1.0702 62.333 0.88179 1.0625 3.7798 1.9334 6.44 1.9354 4.2145 3e-3 5.1798 0.64199 7.5034 4.9661 4.0573 7.5504 11.472 11.239 21.507 10.698 6.4584-0.34799 9.1901-1.2159 13.019-4.1367z" fill="#f83e21"/>
  <path d="m61.023 219.67c1.8982-136.9 2.7035-161.43 5.6358-171.66 4.0166-14.012 9.9424-24.406 18.236-31.986 6.8164-6.2298 18.617-12.024 24.489-12.024 1.4392 0 2.6166-0.6 2.6166-1.3333 0-0.75337 3.804-1.3333 8.7454-1.3333 5.4907 0 8.4387 0.49621 7.9213 1.3333-0.45322 0.73333 0.38886 1.3333 1.8713 1.3333 9.9807 0 27.146 11.57 32.384 21.829 3.4006 6.6596 4.6417 20.619 2.5278 28.432-1.8263 6.7496-12.918 19.4-20.321 23.177-2.821 1.4392-5.1291 3.4132-5.1291 4.3868 0 0.97357 4.4566 3.9727 9.9035 6.6647 11.747 5.8056 20.501 13.889 25.669 23.703 3.5223 6.6885 3.7606 8.1595 3.7606 23.212 0 15.891-0.0561 16.185-5.0122 26.211-9.853 19.932-25.041 29.496-46.988 29.588-15.077 0.0632-21.778-2.688-30.109-12.362-3.2398-3.762-6.6676-6.8403-7.6175-6.8407-1.3814-5.2e-4 -1.6482 7.3361-1.3333 36.667l0.39363 36.668-14 5.4e-4 -14 5.5e-4zm73.377-40.208c12.738-6.6276 19.69-28.125 16.756-51.81-2.2768-18.377-9.6491-30.773-22.071-37.11-5.0328-2.5675-5.5716-2.592-11.766-0.53459-3.5704 1.1859-9.0731 1.9699-12.228 1.7423-4.7646-0.34376-6.037-1.0433-7.5087-4.1278-2.3236-4.87-0.52071-10.399 4.1307-12.667 2.9427-1.4349 5.068-1.3391 13.053 0.58832 8.4691 2.0441 9.9291 2.083 13.023 0.3463 8.94-5.0179 13.492-19.532 11.203-35.723-1.4945-10.572-5.5774-18.05-12.76-23.372-5.3101-3.934-19.177-3.9218-24.5 0.02156-5.2317 3.8761-9.2621 10.223-11.159 17.574-2.3324 9.0365-3.3981 126.34-1.1721 129.03 0.87623 1.0558 3.6121 1.9196 6.0798 1.9196 3.7796 0 5.0139 0.83511 7.8317 5.2989 1.8398 2.9144 5.5973 6.4879 8.3501 7.9411 5.9759 3.1547 17.514 3.6046 22.738 0.88669z" fill="#fa391c"/>
  <path d="m60.997 225c2.5128-154.59 2.8637-165.37 5.7419-176.34 3.6569-13.937 8.2583-22.319 17.265-31.45 7.1796-7.2784 18.583-13.217 25.379-13.217 1.4392 0 2.6166-0.6 2.6166-1.3333 0-0.76646 3.8264-1.2935 9-1.2396 5.6328 0.058652 8.0238 0.47553 6.3906 1.1143-1.9835 0.77579-1.0751 1.2308 3.7875 1.8973 13.149 1.8022 24.52 9.3628 31.2 20.744 3.1589 5.3822 3.6098 7.5662 3.6092 17.484-4.8e-4 9.061-0.57827 12.415-2.8818 16.727-3.234 6.0537-12.672 15.279-18.953 18.528-2.2839 1.181-4.1525 2.9901-4.1525 4.0201s4.35 3.9767 9.6667 6.5482c18.997 9.1883 28.967 23.315 30.085 42.629 1.8242 31.511-15.735 54.791-45.128 59.831-16.333 2.8008-31.457-2.9393-39.715-15.074-5.9459-8.7366-6.2416-7.1989-6.2416 32.458v37.001l-14 1e-3 -14 1e-3zm74.515-46.227c5.4213-3.3058 10.563-10.124 13.223-17.533 2.8273-7.877 3.9318-27.966 2.0842-37.908-2.0849-11.22-8.5069-23.667-14.77-28.627-7.8975-6.2549-12.013-7.277-19.317-4.7972-12.266 4.1643-19.399 1.9241-19.399-6.0918 0-6.9293 2.0744-9.1504 8.5459-9.1504 3.182 0 8.2769 0.87905 11.322 1.9534 6.309 2.226 9.9451 1.342 14.309-3.4786 6.0752-6.7105 7.7218-11.895 7.7734-24.475 0.0565-13.785-1.7823-20.197-7.7378-26.98-9.6537-10.995-25.548-11.2-34.597-0.44633-7.8873 9.3735-8.2825 13.259-8.2825 81.426v62l5.7869 0.66667c4.8933 0.56373 6.3345 1.4686 9.3333 5.8601 1.9506 2.8564 5.6371 6.3064 8.1923 7.6667 6.2804 3.3434 17.98 3.3013 23.533-0.0848z" fill="#fa3618"/>
  <path d="m60 244c0-0.73334 0.45-1.3349 1-1.3368 0.55-1e-3 1.1998-28.952 1.4441-64.333 0.24423-35.381 0.92535-78.13 1.5136-94.997 0.97276-27.891 1.3772-31.539 4.4679-40.308 7.7912-22.104 22.474-36.13 40.394-38.586 3.9875-0.54655 5.4415-1.2082 4.2772-1.9464-1.037-0.65747 2.0825-1.0618 7.5694-0.98102 6.5671 0.096632 8.1478 0.4057 5.3333 1.0428-3.4922 0.7905-3.0499 1.0098 3.4836 1.727 13.724 1.5067 27.932 10.872 33.292 21.945 4.4983 9.2923 4.2413 25.999-0.52513 34.133-3.6969 6.3082-10.688 13.082-17.882 17.327-2.403 1.4178-4.3691 3.4005-4.3691 4.406 0 1.0055 4.4723 4.009 9.9385 6.6744 11.463 5.5894 21.918 15.693 26.455 25.566 4.2506 9.2488 4.1322 32.321-0.22226 43.337-3.8727 9.7973-12.039 20.126-19.807 25.053-22.461 14.245-52.824 10.17-62.518-8.3887-1.0534-2.0167-2.8265-3.6667-3.9404-3.6667-1.7725 0-1.9762 4.6586-1.6324 37.334l0.39274 37.334-14.333-1e-3c-8.666-6.4e-4 -14.333-0.52825-14.333-1.3344zm70-62.796c13.96-3.7885 22-19.627 22-43.34 0-21.798-7.2453-38.241-20.446-46.402-6.2245-3.8483-6.5942-3.9114-12.65-2.1585-10.301 2.9817-16.852 3.2248-19.359 0.71845-2.7994-2.7994-2.8676-10.51-0.11735-13.26 2.6576-2.6576 10.548-2.691 17.959-0.07595 7.1058 2.5071 9.2017 1.8649 15.053-4.612 11.98-13.26 8.8141-46.136-5.2812-54.848-9.8864-6.1102-22.586-4.603-29.725 3.5277-8.3886 9.5541-8.7688 13.106-8.7688 81.913v62l5.5883 0.66667c4.4977 0.53657 6.189 1.5534 8.6667 5.2107 4.1134 6.072 9.1602 9.6389 15.325 10.832 2.7975 0.54128 5.3864 1.0498 5.753 1.13 0.36666 0.0803 3.0667-0.5054 6-1.3014z" fill="#f93214"/>
  <path d="m60 244c0-0.73334 0.65329-1.3333 1.4518-1.3333 0.95224 0 1.2572-2.8673 0.88639-8.3333-0.31095-4.5833-0.03044-45.233 0.62336-90.333 1.3073-90.18 1.5832-93.348 9.5997-110.23 5.5682-11.725 14.202-20.719 24.51-25.53 6.0787-2.8375 10.037-3.64 19.824-4.0187 21.013-0.81316 35.785 5.7919 44.097 19.718 4.049 6.7838 4.3418 8.0924 4.3418 19.406 0 11.062-0.33667 12.662-3.821 18.156-3.6312 5.7258-11.093 12.573-19.221 17.637-2.04 1.271-3.3655 2.8669-2.9455 3.5464 0.42 0.67959 5.5408 3.721 11.38 6.7587 12.612 6.5614 22.573 16.644 25.858 26.175 7.2045 20.899 1.8927 46.032-12.843 60.767-20.545 20.545-58.675 19.425-69.894-2.0534-1.0534-2.0167-2.8265-3.6667-3.9404-3.6667-1.7725 0-1.9762 4.6586-1.6324 37.334l0.39274 37.334-14.333-1e-3c-8.666-6.4e-4 -14.333-0.52825-14.333-1.3344zm77.512-65.96c3.4132-2.2588 6.3038-6.0471 9.3776-12.29 4.4019-8.9402 4.4432-9.1992 4.4127-27.721-0.0265-16.13-0.43458-19.703-2.9729-26.029-3.7491-9.3445-9.5661-16.383-17.273-20.899l-6.0803-3.5633-8.3737 2.2313c-4.6055 1.2272-9.728 2.2313-11.383 2.2313-4.4869 0-7.8861-3.7837-7.8861-8.7781 0-8.4751 6.256-10.513 19.865-6.4719 6.5061 1.9321 7.2721 1.9152 10.55-0.23243 8.9949-5.8937 12.987-16.784 11.895-32.451-1.0367-14.875-5.4792-23.561-14.369-28.097-11.666-5.9515-25.835-1.7428-31.524 9.3635-5.0084 9.7786-5.8796 23.058-5.4669 83.333l0.38339 56 5.6722 0.41027c4.5937 0.33225 6.0274 1.0928 7.54 4 6.603 12.69 23.557 16.955 35.633 8.9629zm-21.875-176.34c2.367-0.29455 6.567-0.29939 9.3333-0.01076 2.7664 0.28864 0.82974 0.52963-4.3036 0.53555-5.1333 0.00592-7.3967-0.23024-5.0297-0.52479z" fill="#f73213"/>
  <path d="m60 244c0-0.73334 0.6-1.3333 1.3333-1.3333 0.86694 0 1.3649-20.171 1.4237-57.667 0.12846-81.988 1.6889-129.06 4.5859-138.33 5.9062-18.912 16.071-32.05 29.728-38.425 6.0787-2.8375 10.037-3.64 19.824-4.0187 21.013-0.81316 35.785 5.7919 44.097 19.718 4.049 6.7838 4.3418 8.0924 4.3418 19.406 0 11.062-0.33667 12.662-3.821 18.156-3.6312 5.7258-11.093 12.573-19.221 17.637-2.04 1.271-3.3655 2.8669-2.9455 3.5464 0.42 0.67959 5.5408 3.721 11.38 6.7587 23.074 12.005 32.486 31.02 28.027 56.626-3.2156 18.465-13.931 33.296-29.104 40.282-10.192 4.6922-29.274 5.8378-38.506 2.3117-7.0707-2.7004-14.434-8.7618-17.244-14.195-1.0814-2.0911-2.8775-3.8021-3.9913-3.8021-1.7725 0-1.9762 4.6586-1.6324 37.334l0.39274 37.334-14.333-1e-3c-8.666-6.4e-4 -14.333-0.52825-14.333-1.3344zm77.512-65.96c3.4137-2.2591 6.3034-6.0466 9.3776-12.291 4.4037-8.9452 4.4431-9.1931 4.4038-27.721-0.0341-16.091-0.44816-19.716-2.9729-26.028-3.7352-9.3382-9.5519-16.38-17.264-20.899l-6.0803-3.5633-8.3737 2.2313c-4.6055 1.2272-9.728 2.2313-11.383 2.2313-4.4869 0-7.8861-3.7837-7.8861-8.7781 0-8.4751 6.256-10.513 19.865-6.4719 6.5061 1.9321 7.2721 1.9152 10.55-0.23243 8.9949-5.8937 12.987-16.784 11.895-32.451-1.0367-14.875-5.4792-23.561-14.369-28.097-11.674-5.9555-25.86-1.7382-31.498 9.3635-5.1381 10.118-5.8649 21.002-5.4756 82l0.36589 57.333 5.6722 0.41027c4.5937 0.33225 6.0274 1.0928 7.54 4 6.603 12.69 23.557 16.955 35.633 8.9629zm-21.875-176.34c2.367-0.29455 6.567-0.29939 9.3333-0.01076 2.7664 0.28864 0.82974 0.52963-4.3036 0.53555-5.1333 0.00592-7.3967-0.23024-5.0297-0.52479z" fill="#f92f10"/>
  <path d="m60 244c0-0.73334 0.6-1.3333 1.3333-1.3333 0.86359 0 1.3683-17.733 1.4327-50.333 0.15711-79.618 1.9179-135.47 4.5716-145 4.973-17.868 15.858-32.123 29.73-38.935 6.984-3.4296 8.8392-3.7315 22.932-3.7315 14.164 0 15.924 0.29019 23.084 3.806 4.2631 2.0933 10.107 6.2582 12.987 9.2553 7.5132 7.819 9.6444 14.37 9.0695 27.879-0.43632 10.254-0.84947 11.671-5.1411 17.642-2.5667 3.5704-7.6667 8.4988-11.333 10.952-12.449 8.3287-12.432 8.5719 1.0242 15.013 12.38 5.9262 19.972 13.086 25.257 23.821 3.999 8.1232 4.273 9.5807 4.1665 22.163-0.0876 10.349-0.77572 15.199-2.9709 20.942-4.125 10.791-10.057 19.08-17.637 24.644-20.831 15.292-54.982 12.289-63.505-5.5835-1.3141-2.7557-3.1346-4.5342-4.6413-4.5342-2.3669 0-2.4614 1.6895-2.0864 37.334l0.39274 37.334-14.333-1e-3c-8.666-6.4e-4 -14.333-0.52825-14.333-1.3344zm74.317-63.957c11.269-5.1155 17.693-20.369 17.668-41.952-0.0228-19.334-3.6658-31.181-12.467-40.542-5.5648-5.9187-13.64-9.9857-18.04-9.0854-1.9126 0.39136-6.6152 1.424-10.45 2.2948-9.0556 2.0563-13.694-0.39948-13.694-7.25 0-8.8265 6.1075-10.591 21.4-6.1813 5.4169 1.5618 6.4585 1.4927 9.7213-0.64517 6.5845-4.3143 10.601-13.127 11.273-24.732 0.73712-12.733-1.3815-22.152-6.6044-29.362-5.0634-6.9898-11.437-9.6979-21.168-8.994-9.1915 0.66485-14.688 4.279-18.508 12.168-4.9836 10.295-5.489 18.139-5.1288 79.614l0.34741 59.289 5.9305 0.79135c3.2617 0.43525 6.1691 1.5074 6.4609 2.3826 1.2295 3.6884 7.8785 10.045 12.887 12.32 6.9107 3.1391 13.279 3.1025 20.372-0.11707zm-18.65-178.34c2.3833-0.29577 6.2833-0.29577 8.6667 0s0.43333 0.53776-4.3333 0.53776c-4.7667 0-6.7167-0.24199-4.3333-0.53776z" fill="#fc2c0b"/>
  <path d="m60 244c0-0.73334 0.6-1.3333 1.3333-1.3333 0.85706 0 1.3645-14.169 1.4205-39.667 0.04796-21.817 0.57989-63.667 1.1821-93 1.0215-49.76 1.2938-53.959 4.0646-62.667 4.0082-12.597 7.984-20.119 14.597-27.618 21.081-23.903 66.969-19.517 79.6 7.608 4.1468 8.905 4.3269 22.706 0.40208 30.813-3.1355 6.477-12.408 15.528-19.254 18.792-7.6001 3.6242-6.391 7.0656 4.0858 11.63 10.68 4.6526 22.24 14.9 26.669 23.642 9.1898 18.135 4.9345 46.385-9.3724 62.221-16.593 18.367-47.89 21.677-64.057 6.7747-3.1574-2.9104-6.1217-6.8092-6.5872-8.664-0.636-2.534-1.5804-3.2679-3.7993-2.9524l-2.9529 0.4199-0.35476 36.333c-0.23384 23.949 0.107 36.333 1 36.333 0.74512 0 1.3548 0.6 1.3548 1.3333 0 0.80808-5.7778 1.3333-14.667 1.3333-8.8889 0-14.667-0.52525-14.667-1.3333zm74.4-63.214c13.842-7.2313 21.149-29.189 17.87-53.697-2.5197-18.832-9.7057-31.06-21.878-37.228-6.3499-3.2177-6.8246-3.2674-12.826-1.3423-11.671 3.7437-17.187 3.3181-19.006-1.4665-1.8804-4.9459-0.47504-9.5107 3.4833-11.314 2.5821-1.1765 5.0427-1.0211 11.276 0.71201 11.18 3.1084 13.56 2.834 18.351-2.1165 10.477-10.825 12.282-31.905 4.1674-48.668-5.0489-10.43-16.998-15.554-28.656-12.29-8.3098 2.3266-13.213 7.7046-16.741 18.362-2.844 8.5908-2.9755 11.243-3.4708 69.998-0.38973 46.231-0.12549 61.538 1.0875 63 0.88129 1.0619 3.8284 1.9307 6.549 1.9307 4.2437 0 5.4047 0.70543 8.1701 4.9642 4.5145 6.9526 12.19 10.987 20.956 11.014 3.8864 0.012 8.6864-0.82451 10.667-1.859zm-18.733-179.08c2.3833-0.29577 6.2833-0.29577 8.6667 0s0.43333 0.53776-4.3333 0.53776c-4.7667 0-6.7167-0.24199-4.3333-0.53776z" fill="#fd2200"/>
 </g>
</svg>
