<?xml version="1.0" encoding="UTF-8" standalone="no"?>
<!-- Created with Inkscape (http://www.inkscape.org/) -->

<svg
   xmlns:dc="http://purl.org/dc/elements/1.1/"
   xmlns:cc="http://creativecommons.org/ns#"
   xmlns:rdf="http://www.w3.org/1999/02/22-rdf-syntax-ns#"
   xmlns:svg="http://www.w3.org/2000/svg"
   xmlns="http://www.w3.org/2000/svg"
   xmlns:sodipodi="http://sodipodi.sourceforge.net/DTD/sodipodi-0.dtd"
   xmlns:inkscape="http://www.inkscape.org/namespaces/inkscape"
   width="98.88"
   height="98.88"
   version="1.1"
   viewBox="0 0 98.879997 98.879997"
   id="svg20657"
   sodipodi:docname="task_shelxemr.svg"
   inkscape:version="0.92.2 5c3e80d, 2017-08-06">
  <defs
     id="defs20661" />
  <sodipodi:namedview
     pagecolor="#ffffff"
     bordercolor="#666666"
     borderopacity="1"
     objecttolerance="10"
     gridtolerance="10"
     guidetolerance="10"
     inkscape:pageopacity="0"
     inkscape:pageshadow="2"
     inkscape:window-width="640"
     inkscape:window-height="480"
     id="namedview20659"
     showgrid="false"
     inkscape:pagecheckerboard="true"
     inkscape:zoom="2.3867315"
     inkscape:cx="49.439999"
     inkscape:cy="49.439999"
     inkscape:window-x="0"
     inkscape:window-y="0"
     inkscape:window-maximized="0"
     inkscape:current-layer="svg20657" />
  <metadata
     id="metadata20639">
    <rdf:RDF>
      <cc:Work
         rdf:about="">
        <dc:format>image/svg+xml</dc:format>
        <dc:type
           rdf:resource="http://purl.org/dc/dcmitype/StillImage" />
        <dc:title></dc:title>
      </cc:Work>
    </rdf:RDF>
  </metadata>
  <g
     id="g20655"
     transform="matrix(1,0,0,0.83582272,0,9.570442)"
     style="stroke-width:0.31999999">
    <path
       d="M 7.68,78.24 C 7.4609,77.976 7.11152,77.76 6.90359,77.76 c -0.53478,0 -2.2485,-1.8749 -2.9077,-3.1813 -1.0211,-2.0236 -2.047,-5.4704 -2.4039,-8.0768 -0.49356,-3.6048 -0.56081,-9.4163 -0.11416,-9.8657 0.19684,-0.19804 1.1328,-0.48608 2.08,-0.6401 0.94716,-0.15402 2.0978,-0.37306 2.5569,-0.48677 1.0543,-0.2611 1.152,-0.01709 1.5872,3.9623 0.40341,3.6886 1.0753,5.3283 2.1834,5.3283 1.4236,0 2.1151,-1.4498 2.1101,-4.4235 -0.005,-2.9559 -0.29228,-3.6798 -2.4746,-6.2365 -1.744,-2.0432 -3.9474,-5.8733 -4.9197,-8.5521 -1.0647,-2.9333 -1.5171,-7.2319 -1.2784,-12.148 0.38239,-7.8759 2.0587,-12.82 5.1787,-15.274 0.74268,-0.58414 1.3078,-0.72153 2.8925,-0.70318 1.7089,0.01978 2.1382,0.15639 3.2441,1.0323 2.4891,1.9714 4.5892,7.4264 5.2257,13.574 0.18123,1.7504 0.17395,3.091 -0.01956,3.6 -0.27369,0.71986 -0.48947,0.81098 -1.9206,0.81098 -0.88674,0 -1.8842,0.16982 -2.2165,0.37737 -0.48155,0.30074 -0.7636,0.27297 -1.3889,-0.13671 -0.61958,-0.40596 -0.8287,-0.88931 -0.99427,-2.2981 -0.56481,-4.8056 -2.9273,-6.3102 -3.3299,-2.1207 -0.21318,2.2186 0.49477,3.9296 3.0005,7.252 2.1301,2.8242 3.0654,4.4384 3.8559,6.655 0.78619,2.2044 1.7228,7.2342 1.9127,10.271 0.33922,5.4269 -0.7543,13.107 -2.3847,16.749 -0.89152,1.9913 -2.7163,4.5294 -3.2585,4.5324 -0.264,0.0013 -0.89246,0.2177 -1.3966,0.48062 -1.1973,0.62444 -3.5245,0.6233 -4.0434,-0.002 z m 41.691,-0.4684 c -8.661,-0.20004 -8.5961,-0.17731 -8.4801,-2.9726 0.06218,-1.498 0.39576,-6.3723 2.1625,-31.599 0.265,-3.784 0.69163,-9.976 0.94804,-13.76 0.66492,-9.8123 0.75864,-10.516 1.45,-10.886 0.33271,-0.17806 3.6277,-0.31408 7.6087,-0.31408 6.1422,0 7.0769,0.06631 7.461,0.52934 0.46814,0.56423 0.47873,5.4779 0.02368,10.991 l -0.22452,2.72 -4.6727,-0.09681 -4.6727,-0.09681 -0.20734,1.9838 c -0.11402,1.0911 -0.20733,2.5938 -0.20733,3.3395 0,1.6688 0.19207,1.74 4.7087,1.746 4.2266,0.0057 4.0938,-0.21744 3.804,6.3884 -0.12006,2.7368 -0.30295,5.516 -0.40641,6.176 l -0.18811,1.2 h -4.4175 c -3.934,0 -4.4347,0.0613 -4.5746,0.56 -0.08638,0.308 -0.25303,2.2318 -0.37033,4.2752 -0.25415,4.4272 -0.63683,4.1139 5.033,4.1205 3.5296,0.0041 3.7707,0.04542 4.1245,0.70651 0.44938,0.83969 0.4421,4.9561 -0.01882,10.632 -0.34673,4.27 -0.44927,4.7092 -1.0733,4.5972 -0.20961,-0.03762 -3.7243,-0.14562 -7.8104,-0.24 z m 12.833,-0.01638 c -2.6316,-0.26498 -2.7919,-0.53552 -2.5499,-4.3045 0.11337,-1.7659 0.34813,-4.5067 0.52169,-6.0907 0.30123,-2.7491 0.80586,-9.7737 2.2298,-31.04 0.92073,-13.751 1.2382,-17.17 1.639,-17.653 0.53499,-0.64462 5.1929,-0.58417 5.8531,0.07596 0.70742,0.70742 0.66555,2.1133 -0.59972,20.137 -1.7035,24.266 -1.6251,22.516 -1.0181,22.749 0.2892,0.11098 2.2146,0.29392 4.2786,0.40655 l 3.7528,0.20477 0.22394,1.28 c 0.12317,0.704 0.1569,2.504 0.07494,4 l -0.149,2.72 0.97919,-2.4 c 0.53856,-1.32 1.5293,-4.272 2.2017,-6.56 0.67236,-2.288 1.9799,-6.7443 2.9057,-9.903 l 1.6832,-5.743 -1.022,-5.457 c -0.56212,-3.0014 -1.3622,-7.329 -1.7779,-9.617 -0.4157,-2.288 -1.0605,-5.7905 -1.4329,-7.7834 -0.52684,-2.8194 -0.59298,-3.7247 -0.29812,-4.08 0.42734,-0.51491 5.2547,-0.65329 6.0136,-0.17238 0.43235,0.27396 1.0732,3.0399 2.14,9.2358 0.3106,1.804 0.6827,3.28 0.8269,3.28 0.1442,0 0.47787,-0.756 0.7415,-1.68 0.26363,-0.924 1.0481,-3.6804 1.7434,-6.1253 0.69522,-2.4449 1.4555,-4.5667 1.6896,-4.7151 0.48904,-0.31002 4.7617,-0.3761 5.5194,-0.08536 0.4174,0.16017 0.50617,0.78758 0.50617,3.5773 0,1.8607 -0.1336,3.8253 -0.29689,4.3658 -0.16329,0.5405 -1.0233,3.4307 -1.9112,6.4227 -0.88786,2.992 -2.3159,7.7576 -3.1734,10.59 l -1.5591,5.1502 0.41575,3.1698 c 0.22866,1.7434 1.2218,7.8342 2.2069,13.535 0.98515,5.701 1.7477,10.885 1.6946,11.52 l -0.09661,1.1546 -2.1366,0.09409 c -1.3477,0.05935 -2.5482,-0.07792 -3.2514,-0.37174 -0.99551,-0.41595 -1.15,-0.64874 -1.4425,-2.1741 -0.1802,-0.93954 -0.64768,-3.2923 -1.0388,-5.2283 -0.39115,-1.936 -0.7769,-3.916 -0.85723,-4.4 -0.19708,-1.1875 -0.61561,-1.1108 -0.87407,0.16 -0.11633,0.572 -0.68734,2.696 -1.2689,4.72 -0.58157,2.024 -1.2322,4.436 -1.4458,5.36 -0.26366,1.1404 -0.55806,1.6984 -0.91651,1.7373 -1.2894,0.1398 -19.254,0.08602 -20.725,-0.06204 z M 19.841,77.12 c -0.50606,-0.50606 -0.63806,-1.0586 -0.63074,-2.64 0.0087,-1.8906 0.53876,-9.3516 1.2446,-17.52 0.17489,-2.024 0.54062,-6.992 0.81273,-11.04 0.27211,-4.048 0.70033,-10.168 0.9516,-13.6 0.25127,-3.432 0.5549,-7.7693 0.67474,-9.6384 0.11984,-1.8691 0.33876,-3.5939 0.48649,-3.833 0.34414,-0.55682 4.7608,-0.81304 5.6658,-0.32868 0.9564,0.51185 1.0068,2.0438 0.3696,11.238 -0.31095,4.4869 -0.52155,8.2019 -0.46799,8.2554 0.05356,0.05356 1.119,0.18303 2.3677,0.28772 1.7838,0.14955 2.3007,0.0948 2.4118,-0.25544 0.07781,-0.24518 0.43447,-4.6188 0.79257,-9.7191 0.55903,-7.962 0.72974,-9.3309 1.2072,-9.68 0.83464,-0.6103 5.0558,-0.53894 5.6909,0.09622 0.77395,0.77394 0.77929,0.64804 -1.2633,29.737 -0.43254,6.16 -1.0033,14.368 -1.2682,18.24 -0.26498,3.872 -0.57142,7.94 -0.68098,9.04 l -0.19919,2 h -2.7931 c -4.3311,0 -4.0977,0.76446 -3.3983,-11.134 0.31771,-5.4046 0.52553,-10.402 0.46183,-11.106 l -0.11582,-1.28 -1.9999,-0.09527 c -1.8315,-0.08724 -2.0246,-0.03333 -2.2928,0.64 -0.16109,0.4044 -0.61005,5.5556 -0.99769,11.447 -0.38764,5.8915 -0.7753,10.895 -0.86144,11.12 -0.10977,0.28606 -0.96025,0.40819 -2.8424,0.40819 -2.2591,0 -2.7874,-0.10167 -3.3258,-0.64 z"
       id="path20641"
       inkscape:connector-curvature="0"
       style="fill:#a5a5d5" />
    <path
       d="M 6.9754,76.859 C 6.14786,76.3867 5.1731,75.614 4.8092,75.1419 3.0456,72.8537 1.6878,66.9074 1.5567,60.8979 1.488962,57.7923 1.522898,57.6044 2.26276,56.9885 c 0.50539,-0.42071 1.3088,-0.66749 2.2972,-0.70563 0.836,-0.03226 1.7,-0.07305 1.92,-0.09065 0.27903,-0.02234 0.47213,0.88734 0.6385,3.008 0.39956,5.0929 2.038,7.5294 3.892,5.7877 0.97204,-0.91318 1.4711,-2.6825 1.4625,-5.1849 -0.0088,-2.5495 -0.68695,-4.109 -2.803,-6.4456 -3.5103,-3.8762 -5.4044,-8.4766 -5.892,-14.311 -0.75424,-9.0243 0.99184,-16.845 4.416,-19.78 1.8104,-1.5516 3.2203,-1.7436 5.4312,-0.73947 1.5574,0.70732 2.4079,1.7243 3.6213,4.3301 1.4685,3.1536 2.8406,11.635 1.9694,12.173 -0.20456,0.12643 -1.1918,0.36503 -2.1939,0.53023 -3.335,0.54981 -3.0785,0.66482 -3.3016,-1.4805 -0.34201,-3.2886 -1.2992,-5.28 -2.5379,-5.28 -0.67429,0 -0.9854,0.24431 -1.3859,1.0884 -0.695,1.4646 -0.64799,4.202 0.09946,5.7916 0.59392,1.2631 0.82068,1.595 3.4249,5.013 0.72643,0.95344 1.6785,2.4476 2.1158,3.3203 3.813,7.6107 3.7715,21.539 -0.08708,29.267 -1.366,2.7358 -1.8194,3.2016 -3.8402,3.9458 -1.9428,0.71547 -2.752,0.64996 -4.5339,-0.36703 z m 83.697,0.2634 c -0.37799,-0.15251 -0.77552,-0.42011 -0.8834,-0.59467 -0.15342,-0.24823 -2.4293,-12.455 -2.4293,-13.029 0,-0.07609 -0.12502,-0.13835 -0.27783,-0.13835 -0.15281,0 -0.52443,0.9 -0.82581,2 -1.7747,6.4772 -2.8126,10.105 -3.113,10.88 l -0.341,0.88 h -11.122 c -9.3976,0 -11.183,-0.07297 -11.513,-0.47065 -0.30532,-0.36789 -0.31063,-1.5381 -0.02429,-5.36 0.20147,-2.6891 0.56982,-7.7694 0.81857,-11.289 0.24874,-3.52 0.60248,-8.488 0.78608,-11.04 0.60845,-8.4573 1.6093,-22.832 1.8159,-26.08 0.2834,-4.4558 0.20605,-4.3638 3.5737,-4.2522 l 2.7822,0.0922 0.11063,1.28 c 0.06085,0.704 -0.04746,3.44 -0.24067,6.08 -0.19321,2.64 -0.63576,8.976 -0.98342,14.08 -1.1033,16.198 -1.2958,18.845 -1.4833,20.4 l -0.18326,1.52 h 4.1289 c 2.9213,0 4.2983,0.12393 4.7083,0.42373 0.54464,0.39825 0.55698,0.71792 0.20517,5.3173 -0.20587,2.6915 -0.31007,4.9579 -0.23156,5.0364 0.16555,0.16555 2.5849,-7.0871 4.0754,-12.217 0.56249,-1.936 1.7709,-6.0903 2.6854,-9.2317 1.4382,-4.9406 1.6285,-5.9127 1.4094,-7.2 -0.4829,-2.8368 -1.534,-8.5621 -2.858,-15.568 -0.73177,-3.872 -1.3513,-7.688 -1.3767,-8.48 l -0.04626,-1.44 2.9214,-0.0915 c 2.5581,-0.08012 2.9493,-0.02043 3.1459,0.48 0.20398,0.51908 2.3919,12.297 2.4245,13.051 0.03925,0.90842 1.0682,-1.8732 2.2039,-5.9576 0.7038,-2.5313 1.4712,-5.2504 1.7054,-6.0424 l 0.42572,-1.44 3.1066,-0.09159 3.1066,-0.09159 v 2.3638 c 0,1.3001 -0.12868,2.7813 -0.28597,3.2916 -0.15729,0.5103 -0.60064,2.0798 -0.98524,3.4878 -0.3846,1.408 -1.0371,3.64 -1.4501,4.96 -0.91484,2.9245 -3.4019,11.288 -4.1395,13.92 -0.60773,2.1689 -0.85968,0.13344 2.365,19.106 1.777,10.455 1.8573,11.293 1.1095,11.58 -0.73886,0.28354 -4.0205,0.19939 -4.8211,-0.12362 z m -58.243,-0.22403 c -0.72975,-0.14252 -1.1413,-1.1369 -0.90551,-2.1878 0.14636,-0.65217 1.0206,-14.476 1.1832,-18.71 l 0.09219,-2.4 -2.5296,-0.09436 c -1.3913,-0.05189 -2.64,0.0201 -2.7749,0.16 -0.21778,0.22586 -0.6448,5.3247 -1.5394,18.381 -0.1525,2.2257 -0.3755,4.2057 -0.49556,4.4 -0.35212,0.56974 -5.5974,0.46573 -5.8204,-0.11541 -0.0989,-0.25773 0.20089,-5.7657 0.6662,-12.24 0.46531,-6.4743 0.97938,-13.643 1.1424,-15.931 0.94915,-13.323 1.3158,-18.497 1.6629,-23.466 0.45033,-6.4459 0.30181,-6.2121 3.8534,-6.068 l 2.315,0.09392 0.10674,1.28 c 0.1076,1.2903 -0.76782,14.992 -1.0974,17.176 -0.22854,1.5144 0.37143,1.8641 3.1984,1.8641 2.569,0 2.5965,-0.0414 2.8671,-4.32 0.47422,-7.4985 1.1504,-15.557 1.3296,-15.847 0.10636,-0.17209 1.3193,-0.3129 2.6953,-0.3129 3.2089,0 3.3507,0.1575 3.0908,3.4336 -0.10846,1.3675 -0.6995,9.8304 -1.3134,18.806 -2.4014,35.111 -2.3977,35.062 -2.7649,35.76 -0.23672,0.44974 -0.68631,0.55142 -2.2835,0.51642 -1.0938,-0.02397 -2.2992,-0.10421 -2.6786,-0.17831 z m 9.0148,-0.2989 c -0.40228,-0.40228 -0.47888,-0.89381 -0.33664,-2.16 0.10128,-0.90157 0.61211,-7.8312 1.1352,-15.399 0.52307,-7.568 1.1643,-16.712 1.425,-20.32 0.2607,-3.608 0.64556,-9.296 0.85524,-12.64 0.20968,-3.344 0.49806,-6.404 0.64083,-6.8 0.25896,-0.71826 0.27737,-0.72 7.6163,-0.72 6.6822,0 7.3833,0.05134 7.6476,0.56 0.21909,0.4217 -0.2887,11.898 -0.55218,12.48 -0.01994,0.044 -2.0346,0.08 -4.4771,0.08 -3.1708,0 -4.5312,0.11439 -4.7568,0.4 -0.46446,0.58801 -0.76858,7.2137 -0.34319,7.4766 0.18837,0.11642 2.1601,0.29981 4.3816,0.40754 l 4.0391,0.19586 0.0771,2.24 c 0.04241,1.232 -0.10159,3.968 -0.32,6.08 l -0.3971,3.84 -4.48,0.16 -4.48,0.16 -0.20736,1.92 c -0.11405,1.056 -0.25805,3.2149 -0.32,4.7975 l -0.11264,2.8775 1.44,0.21882 c 0.792,0.12035 2.9088,0.22949 4.7041,0.24254 3.8098,0.02768 3.9338,0.12328 3.7387,2.8805 -0.0694,0.98076 -0.26426,3.738 -0.43303,6.1271 -0.16876,2.3892 -0.39942,4.5852 -0.51256,4.88 -0.18446,0.48068 -0.99347,0.53608 -7.8286,0.53608 -6.6146,0 -7.6918,-0.06889 -8.1437,-0.52079 z"
       id="path20643"
       inkscape:connector-curvature="0"
       style="fill:#9797ab" />
    <path
       d="M 7.68,77.167 C 5.6194,76.1236 5.1517,75.7112 4.3728,74.2512 2.5537,70.8411 1.6,66.1897 1.6,60.7272 c 0,-3.2714 0.010195,-3.3157 0.88015,-3.8296 0.91654,-0.54142 3.537,-0.85247 4.1242,-0.48956 0.18603,0.11498 0.43081,1.5131 0.54395,3.107 0.25624,3.6099 1.1959,5.8717 2.5021,6.0228 1.74,0.20134 2.8301,-2.0008 2.8208,-5.6984 -0.0064,-2.5344 -0.62457,-4.0046 -2.6911,-6.4 -2.0534,-2.3802 -4.2177,-6.1151 -5.0067,-8.64 -0.99964,-3.1988 -1.4094,-8.9471 -0.95869,-13.448 0.6379,-6.3698 1.6879,-9.3756 4.105,-11.752 1.4884,-1.4633 1.8744,-1.68 2.9921,-1.68 1.6864,0 3.9127,1.0386 4.7516,2.2168 1.9142,2.6883 3.2207,6.9972 3.671,12.108 0.22194,2.5186 -0.34898,3.2756 -2.4705,3.2756 -0.7568,0 -1.5427,0.1667 -1.7464,0.37044 -0.61542,0.61542 -1.3576,-0.28626 -1.3576,-1.6494 0,-1.177 -0.59908,-3.2935 -1.3363,-4.721 -0.60165,-1.165 -1.9921,-0.97004 -2.6272,0.36836 -1.1502,2.4238 -0.32191,6.2067 1.9382,8.8526 3.1624,3.7021 4.617,6.5281 5.5422,10.767 2.0153,9.2338 0.40951,21.629 -3.4015,26.257 -0.57646,0.70003 -3.6062,2.0083 -4.5908,1.9824 -0.26648,-0.007 -0.98852,-0.26797 -1.6045,-0.5799 z m 12.181,-0.96894 c -0.32933,-0.61537 -0.19249,-3.3627 0.78292,-15.718 0.25704,-3.256 0.6828,-9.088 0.94613,-12.96 0.26333,-3.872 0.69972,-10.136 0.96975,-13.92 0.27003,-3.784 0.5804,-8.392 0.6897,-10.24 0.1093,-1.848 0.32804,-3.612 0.48609,-3.92 0.23743,-0.46269 0.73202,-0.56 2.8461,-0.56 1.8777,0 2.6038,0.11729 2.7279,0.44064 0.093,0.24235 -0.12714,4.5936 -0.4892,9.6694 -0.52536,7.3652 -0.57769,9.3048 -0.25913,9.6051 0.21954,0.20697 1.3515,0.47309 2.5155,0.59138 3.3109,0.33648 3.0156,1.2732 3.9707,-12.594 0.27153,-3.942 0.56952,-7.29 0.66219,-7.44 0.09268,-0.14995 1.384,-0.27264 2.8696,-0.27264 h 2.7011 v 1.8924 c 0,1.0408 -0.35791,7.0528 -0.79536,13.36 -2.9324,42.281 -2.9004,41.855 -3.1902,42.324 -0.3492,0.56501 -4.8188,0.43652 -5.3077,-0.15259 -0.33613,-0.40501 -0.31496,-1.8872 0.11541,-8.08 0.28987,-4.1712 0.62,-9.204 0.73362,-11.184 l 0.20658,-3.6 h -5.8133 l -0.15793,1.04 c -0.08686,0.572 -0.45998,5.5618 -0.82914,11.088 -0.36917,5.5266 -0.81369,10.315 -0.98783,10.64 -0.26436,0.49397 -0.70896,0.5916 -2.6941,0.5916 -1.9994,0 -2.4287,-0.09567 -2.6994,-0.60159 z m 21.745,0.12788 c -0.40232,-0.48477 -0.37175,-1.096 1.1127,-22.246 0.25322,-3.608 0.68621,-9.8 0.9622,-13.76 0.27599,-3.96 0.71769,-10.282 0.98158,-14.048 0.26389,-3.7664 0.55547,-6.9704 0.64795,-7.12 0.09248,-0.14964 3.4762,-0.27208 7.5193,-0.27208 6.0778,0 7.3816,0.07923 7.5267,0.4574 0.27825,0.72511 -0.53674,11.499 -0.90341,11.943 -0.23423,0.28343 -1.5726,0.4 -4.5925,0.4 -2.379,0 -4.3458,0.13578 -4.4519,0.30733 -0.40167,0.64992 -0.59056,7.5914 -0.21292,7.8248 0.20224,0.12499 2.1671,0.31228 4.3664,0.4162 l 3.9987,0.18894 -0.01798,2.4314 c -0.03458,4.6755 -0.48582,9.029 -0.96743,9.3338 -0.25002,0.15825 -2.275,0.28993 -4.4999,0.29262 -4.7683,0.0058 -4.2786,-0.59367 -4.6094,5.6421 -0.164,3.091 -0.12302,4.2588 0.15546,4.4309 0.20798,0.12854 2.3983,0.31368 4.8674,0.41143 3.2215,0.12753 4.5337,0.29356 4.6467,0.58794 0.20892,0.54445 -0.70323,12.428 -0.9895,12.892 -0.1553,0.25127 -2.4908,0.36098 -7.685,0.36098 -6.1984,0 -7.5285,-0.08021 -7.8551,-0.47371 z m 18.66,-0.03366 c -0.21374,-0.557 -0.07039,-3.3736 0.66637,-13.093 0.49508,-6.5309 1.3869,-19.332 2.2851,-32.8 0.27584,-4.136 0.60092,-8.384 0.72241,-9.44 l 0.22089,-1.92 2.8,-0.09246 2.8,-0.09246 -0.007,2.1725 c -0.0039,1.1949 -0.2137,5.0525 -0.46631,8.5725 -1.5363,21.407 -2.1778,31.781 -1.995,32.257 0.18094,0.47154 0.75182,0.54259 4.3594,0.54259 2.5627,0 4.2309,0.129 4.3595,0.33711 0.11459,0.18541 0.03297,2.9273 -0.18138,6.0931 -0.21434,3.1658 -0.30299,5.8427 -0.19699,5.9487 0.106,0.106 0.25268,-0.0079 0.32595,-0.25307 0.07327,-0.24519 1.0032,-3.2538 2.0664,-6.6858 2.5835,-8.339 5.3393,-17.591 6.0195,-20.209 0.51658,-1.9882 0.51893,-2.3161 0.03557,-4.96 -0.28468,-1.5571 -1.3191,-7.1676 -2.2986,-12.468 -0.97958,-5.3002 -1.7811,-10.016 -1.7811,-10.48 V 18.8787 h 5.707 l 0.3274,1.5266 c 0.18007,0.83964 0.71614,3.8996 1.1913,6.8 0.47516,2.9004 0.98238,5.4048 1.1272,5.5655 0.33313,0.36948 0.67612,-0.53926 2.0963,-5.554 0.62586,-2.21 1.4169,-4.9902 1.758,-6.1782 l 0.62004,-2.16 h 6.0529 v 1.8181 c 0,1.8355 -0.24005,2.7373 -4.1585,15.622 -1.017,3.344 -2.2281,7.448 -2.6915,9.12 l -0.84242,3.04 0.75814,4.48 c 0.41698,2.464 1.4549,8.5896 2.3064,13.612 0.85154,5.0228 1.4537,9.3788 1.3381,9.68 -0.17401,0.45346 -0.64879,0.54762 -2.7613,0.54762 -1.5453,0 -2.6389,-0.14201 -2.7738,-0.36017 -0.12243,-0.19809 -0.77202,-3.4552 -1.4435,-7.238 -0.67152,-3.7828 -1.2958,-6.9527 -1.3873,-7.0442 -0.20226,-0.20226 -0.72643,1.1292 -1.2922,3.2824 -1.2721,4.8414 -2.8465,10.008 -3.2366,10.622 -0.44439,0.69892 -0.48644,0.70159 -11.341,0.72065 -9.673,0.01699 -10.916,-0.0379 -11.09,-0.48955 z"
       id="path20645"
       inkscape:connector-curvature="0"
       style="fill:#5e5ea1" />
    <path
       d="M 7.2424,76.332 C 5.2443,75.2618 4.7003,74.5786 3.6655,71.8397 2.5705,68.9416 1.9227,64.9445 1.9212,61.0767 1.92007,58.2112 1.971991,57.9594 2.65654,57.5109 c 0.40511,-0.26544 1.4491,-0.534 2.32,-0.5968 l 1.5834,-0.11419 0.25589,2.8576 c 0.4264,4.7618 1.9921,7.2857 3.8896,6.2701 1.1985,-0.6414 1.8959,-2.4179 2.0359,-5.1861 0.16532,-3.2679 -0.45536,-5.0737 -2.5929,-7.5441 -2.4493,-2.8307 -4.6149,-6.671 -5.3979,-9.5719 -0.88095,-3.2642 -0.99326,-12.411 -0.19578,-15.946 0.90051,-3.9913 1.7991,-5.9532 3.4771,-7.5914 1.8423,-1.7987 2.7774,-2.1069 4.2588,-1.4039 0.59726,0.28342 1.3034,0.5153 1.5691,0.5153 0.71416,0 2.1268,1.8177 3.1085,4 1.0513,2.3369 1.9116,6.4987 1.9116,9.2477 0,1.9233 -0.04817,2.0534 -0.88,2.3771 -0.484,0.18836 -1.5263,0.38583 -2.3162,0.43882 l -1.4362,0.09635 -0.23125,-1.8314 c -0.62249,-4.93 -3.2178,-7.0707 -4.5465,-3.75 -0.69331,1.7328 -0.64857,4.4142 0.10203,6.1149 0.60721,1.3758 0.81954,1.6922 3.4965,5.2111 2.7142,3.5679 3.964,7.1611 4.5595,13.109 0.92039,9.1926 -1.6466,20.16 -5.135,21.94 -2.1177,1.0804 -3.4807,1.1268 -5.2505,0.17886 z m 12.843,-0.57226 c -0.07867,-0.22 0.32915,-7.096 0.90628,-15.28 1.6572,-23.5 2.037,-28.943 2.3888,-34.24 0.18123,-2.728 0.40238,-5.4339 0.49144,-6.0132 l 0.16194,-1.0532 2.463,0.09315 2.463,0.09315 -0.06557,1.92 c -0.03606,1.056 -0.30781,5.4231 -0.60388,9.7047 -0.45888,6.636 -0.47282,7.8469 -0.09443,8.2062 0.24413,0.23182 1.5492,0.52 2.9001,0.64038 3.6115,0.32183 3.2646,1.5221 4.4245,-15.309 0.18032,-2.6166 0.40644,-4.8846 0.50248,-5.04 0.09604,-0.15539 1.2461,-0.28254 2.5557,-0.28254 h 2.3811 v 1.7426 c 0,0.95841 -0.14094,3.5144 -0.31321,5.68 -0.17226,2.1656 -0.52944,7.1054 -0.79372,10.977 -2.3701,34.724 -2.6193,37.934 -2.9727,38.288 -0.16707,0.16707 -1.2975,0.26069 -2.512,0.20804 l -2.2083,-0.09572 0.0067,-1.92 c 0.0036,-1.056 0.28106,-6.1438 0.61646,-11.306 0.52644,-8.1029 0.54741,-9.4257 0.15336,-9.6751 -0.58723,-0.37164 -5.1172,-0.37708 -5.7019,-0.0068 -0.47716,0.30215 -0.55907,1.1026 -1.4929,14.588 -0.29251,4.224 -0.67768,7.86 -0.85594,8.08 -0.20151,0.2487 -1.1436,0.4 -2.4907,0.4 -1.4436,0 -2.2143,-0.13347 -2.3096,-0.4 z m 21.676,0.08299 c -0.10776,-0.17436 0.02749,-3.5224 0.30058,-7.44 0.27308,-3.9176 0.70779,-10.219 0.96602,-14.003 0.25823,-3.784 0.69219,-10.048 0.96434,-13.92 0.27215,-3.872 0.71023,-10.116 0.97351,-13.875 0.26328,-3.759 0.55806,-6.963 0.65508,-7.12 0.09702,-0.15698 3.4277,-0.28542 7.4015,-0.28542 h 7.2251 l -0.19901,2.64 c -0.10946,1.452 -0.29384,4.116 -0.40975,5.92 l -0.21074,3.28 h -4.3951 c -3.1344,0 -4.4906,0.11516 -4.7283,0.40149 -0.43874,0.52865 -1.0156,7.5666 -0.69087,8.4293 0.21574,0.57322 0.61245,0.70122 2.7274,0.88 1.3612,0.11506 3.2661,0.20921 4.2332,0.20921 h 1.7583 l -0.2178,4.4 c -0.11979,2.42 -0.30076,4.868 -0.40216,5.44 l -0.18435,1.04 -4.0444,0.0049 c -2.2244,0.0026 -4.246,0.13258 -4.4925,0.28864 -0.5327,0.33728 -1.3748,9.3786 -0.97406,10.458 0.20796,0.55996 0.6118,0.70549 2.4357,0.87772 1.2025,0.11356 3.393,0.20749 4.8678,0.20874 l 2.6813,0.0022 -0.19578,1.84 c -0.10768,1.012 -0.28958,3.568 -0.40423,5.68 -0.11465,2.112 -0.33821,4.092 -0.49681,4.4 -0.26191,0.50864 -0.96058,0.56 -7.6182,0.56 -4.4954,0 -7.4056,-0.12259 -7.5258,-0.31701 z m 18.833,-3.123 c 0.11671,-1.892 0.35293,-5.312 0.52493,-7.6 0.34765,-4.6245 1.0595,-14.667 1.7807,-25.12 0.26106,-3.784 0.68524,-9.904 0.94262,-13.6 0.25738,-3.696 0.47007,-6.828 0.47265,-6.96 0.0026,-0.132 1.1567,-0.24 2.5647,-0.24 h 2.56 v 1.9026 c 0,1.0464 -0.14045,3.6744 -0.31211,5.84 -0.17166,2.1656 -0.61418,8.4014 -0.98339,13.857 -0.36921,5.456 -0.85826,12.44 -1.0868,15.52 -0.27649,3.7263 -0.30908,5.7338 -0.09743,6 0.22601,0.28422 1.5572,0.4 4.5989,0.4 4.2149,0 4.2808,0.01098 4.2808,0.71373 0,1.4082 -0.67903,11.301 -0.82406,12.006 l -0.14813,0.72 h -14.486 z m 15.688,2.1654 c 0.11209,-0.701 1.0508,-3.977 2.0859,-7.28 2.0292,-6.4748 4.8188,-15.768 5.869,-19.553 l 0.65145,-2.3476 -0.66588,-3.7324 c -0.68594,-3.8448 -2.1486,-11.744 -3.2686,-17.652 -0.35032,-1.848 -0.63626,-3.7618 -0.63544,-4.2529 l 0.0016,-0.89294 2.6385,0.09294 2.6385,0.09294 1.0326,6.08 c 1.2577,7.4054 1.4428,8.2431 1.8504,8.3747 0.31421,0.10141 0.88506,-1.6695 3.2153,-9.9747 0.64197,-2.288 1.2611,-4.2548 1.3759,-4.3706 0.1148,-0.11583 1.4687,-0.25983 3.0088,-0.32 l 2.7999,-0.10941 -4.8e-5,1.4029 c -2.3e-5,0.7716 -0.5683,3.2196 -1.2628,5.44 -2.23,7.1291 -5.3314,17.401 -6.0497,20.037 l -0.69763,2.56 0.81224,4.64 c 1.8674,10.667 3.6752,21.649 3.6765,22.333 0.0013,0.7123 -0.07298,0.73032 -2.6386,0.64 l -2.64,-0.09294 -0.40746,-2.24 c -0.22411,-1.232 -0.80011,-4.5392 -1.28,-7.3493 -0.4799,-2.8101 -1.0129,-5.0889 -1.1845,-5.064 -0.32175,0.04668 -1.1703,2.5076 -2.4044,6.9733 -0.3891,1.408 -1.0618,3.748 -1.4949,5.2 l -0.78746,2.64 h -6.4431 z"
       id="path20647"
       inkscape:connector-curvature="0"
       style="fill:#0202d7" />
    <path
       d="M 7.2424,76.332 C 5.5406,75.42049 4.6712,74.5354 4.2035,73.2382 3.93985,72.50693 4.0811,72.57767 5.2816,73.77822 c 2.2683,2.2683 4.7447,2.5287 7.2286,0.75994 3.369,-2.3989 5.6258,-14.178 4.3315,-22.609 -0.54435,-3.5458 -1.9146,-7.5018 -3.1226,-9.015 -1.6874,-2.1138 -3.4792,-4.7861 -3.4792,-5.1887 0,-0.23523 0.324,0.01811 0.72,0.563 0.396,0.54489 1.3448,1.812 2.1084,2.8158 2.7142,3.5679 3.964,7.1611 4.5595,13.109 0.92039,9.1926 -1.6466,20.16 -5.135,21.94 -2.1177,1.0804 -3.4807,1.1268 -5.2505,0.17886 z m 12.843,-0.57226 c -0.07867,-0.22 0.32915,-7.096 0.90628,-15.28 1.6572,-23.5 2.037,-28.943 2.3888,-34.24 0.18123,-2.728 0.40238,-5.4339 0.49144,-6.0132 l 0.16194,-1.0532 2.463,0.09315 2.463,0.09315 -0.06557,1.92 c -0.03606,1.056 -0.30781,5.4231 -0.60388,9.7047 -0.45888,6.636 -0.47282,7.8469 -0.09443,8.2062 0.24413,0.23182 1.5492,0.52 2.9001,0.64038 3.6115,0.32183 3.2646,1.5221 4.4245,-15.309 0.18032,-2.6166 0.40644,-4.8846 0.50248,-5.04 0.09604,-0.15539 1.2461,-0.28254 2.5557,-0.28254 h 2.3811 v 1.7426 c 0,0.95841 -0.14094,3.5144 -0.31321,5.68 -0.17226,2.1656 -0.52944,7.1054 -0.79372,10.977 -2.3701,34.724 -2.6193,37.934 -2.9727,38.288 -0.16707,0.16707 -1.2975,0.26069 -2.512,0.20804 l -2.2083,-0.09572 0.0067,-1.92 c 0.0036,-1.056 0.28106,-6.1438 0.61646,-11.306 0.52644,-8.1029 0.54741,-9.4257 0.15336,-9.6751 -0.58723,-0.37164 -5.1172,-0.37708 -5.7019,-0.0068 -0.47716,0.30215 -0.55907,1.1026 -1.4929,14.588 -0.29251,4.224 -0.67768,7.86 -0.85594,8.08 -0.20151,0.2487 -1.1436,0.4 -2.4907,0.4 -1.4436,0 -2.2143,-0.13347 -2.3096,-0.4 z m 3.5863,-21.2 c 0.94268,-4.7161 1.3692,-6.2026 1.8302,-6.3795 0.27901,-0.10706 0.40402,-0.39538 0.29482,-0.67996 -0.10428,-0.27174 0.0061,-0.81052 0.24535,-1.1973 0.39047,-0.63132 0.49789,-3.3736 0.16544,-4.2232 -0.06887,-0.176 0.04805,-0.896 0.25982,-1.6 0.21177,-0.704 0.53486,-3.512 0.71798,-6.24 0.18312,-2.728 0.49099,-6.5951 0.68416,-8.5936 0.19317,-1.9985 0.22955,-3.7506 0.08083,-3.8937 -0.14872,-0.14304 -0.9416,-0.35834 -1.762,-0.47846 -1.9434,-0.28456 -2.0467,-0.06972 -2.31,4.8057 -0.23332,4.3204 -1.0082,18.014 -1.4305,25.28 -0.24184,4.1611 -0.25389,6.035 -0.04731,7.36 0.07664,0.49158 0.842,-2.0132 1.2711,-4.16 z m 18.09,21.283 c -0.10776,-0.17436 0.02749,-3.5224 0.30058,-7.44 0.27308,-3.9176 0.70779,-10.219 0.96602,-14.003 0.25823,-3.784 0.69219,-10.048 0.96434,-13.92 0.27215,-3.872 0.71023,-10.116 0.97351,-13.875 0.26328,-3.759 0.55806,-6.963 0.65508,-7.12 0.09702,-0.15698 3.4277,-0.28542 7.4015,-0.28542 h 7.2251 l -0.19901,2.64 c -0.10946,1.452 -0.29384,4.116 -0.40975,5.92 l -0.21074,3.28 h -4.3951 c -3.1344,0 -4.4906,0.11516 -4.7283,0.40149 -0.43874,0.52865 -1.0156,7.5666 -0.69087,8.4293 0.21574,0.57322 0.61245,0.70122 2.7274,0.88 1.3612,0.11506 3.2661,0.20921 4.2332,0.20921 h 1.7583 l -0.2178,4.4 c -0.11979,2.42 -0.30076,4.868 -0.40216,5.44 l -0.18435,1.04 -4.0444,0.0049 c -2.2244,0.0026 -4.246,0.13258 -4.4925,0.28864 -0.5327,0.33728 -1.3748,9.3786 -0.97406,10.458 0.20796,0.55996 0.6118,0.70549 2.4357,0.87772 1.2025,0.11356 3.393,0.20749 4.8678,0.20874 l 2.6813,0.0022 -0.19578,1.84 c -0.10768,1.012 -0.28958,3.568 -0.40423,5.68 -0.11465,2.112 -0.33821,4.092 -0.49681,4.4 -0.26191,0.50864 -0.96058,0.56 -7.6182,0.56 -4.4954,0 -7.4056,-0.12259 -7.5258,-0.31701 z m 18.833,-3.123 c 0.11671,-1.892 0.35293,-5.312 0.52493,-7.6 0.34765,-4.6245 1.0595,-14.667 1.7807,-25.12 0.26106,-3.784 0.68524,-9.904 0.94262,-13.6 0.25738,-3.696 0.47007,-6.828 0.47265,-6.96 0.0026,-0.132 1.1567,-0.24 2.5647,-0.24 h 2.56 v 1.9026 c 0,1.0464 -0.14045,3.6744 -0.31211,5.84 -0.17166,2.1656 -0.61418,8.4014 -0.98339,13.857 -0.36921,5.456 -0.85826,12.44 -1.0868,15.52 -0.27649,3.7263 -0.30908,5.7338 -0.09743,6 0.22601,0.28422 1.5572,0.4 4.5989,0.4 4.2149,0 4.2808,0.01098 4.2808,0.71373 0,1.4082 -0.67903,11.301 -0.82406,12.006 l -0.14813,0.72 h -14.486 z m 15.688,2.1654 c 0.11209,-0.701 1.0508,-3.977 2.0859,-7.28 2.0292,-6.4748 4.8188,-15.768 5.869,-19.553 l 0.65145,-2.3476 -0.66588,-3.7324 c -0.68594,-3.8448 -2.1486,-11.744 -3.2686,-17.652 -0.35032,-1.848 -0.63626,-3.7618 -0.63544,-4.2529 l 0.0016,-0.89294 2.6385,0.09294 2.6385,0.09294 1.0326,6.08 c 1.2577,7.4054 1.4428,8.2431 1.8504,8.3747 0.31421,0.10141 0.88506,-1.6695 3.2153,-9.9747 0.64197,-2.288 1.2611,-4.2548 1.3759,-4.3706 0.1148,-0.11583 1.4687,-0.25983 3.0088,-0.32 l 2.7999,-0.10941 -4.8e-5,1.4029 c -2.3e-5,0.7716 -0.5683,3.2196 -1.2628,5.44 -2.23,7.1291 -5.3314,17.401 -6.0497,20.037 l -0.69763,2.56 0.81224,4.64 c 1.8674,10.667 3.6752,21.649 3.6765,22.333 0.0013,0.7123 -0.07298,0.73032 -2.6386,0.64 l -2.64,-0.09294 -0.40746,-2.24 c -0.22411,-1.232 -0.80011,-4.5392 -1.28,-7.3493 -0.4799,-2.8101 -1.0129,-5.0889 -1.1845,-5.064 -0.32175,0.04668 -1.1703,2.5076 -2.4044,6.9733 -0.3891,1.408 -1.0618,3.748 -1.4949,5.2 l -0.78746,2.64 h -6.4431 z m -67.249,-7.8996 c -0.45542,-0.18324 -1.1629,-1.4537 -1.4844,-2.6658 -0.18659,-0.70335 -0.14667,-0.68402 0.3304,0.16 0.64066,1.1334 1.3591,1.7357 2.0872,1.7498 0.70461,0.01363 1.9142,-1.2832 2.4262,-2.6011 l 0.41516,-1.0688 -0.14857,1.2297 c -0.27871,2.3069 -2.0203,3.8421 -3.6259,3.1961 z m 3.8626,-6.5058 c 0,-0.968 0.05999,-1.364 0.13331,-0.88 0.07332,0.484 0.07332,1.276 0,1.76 -0.07332,0.484 -0.13331,0.088 -0.13331,-0.88 z m -10.976,-2.2022 c 0,-0.176 0.144,-0.409 0.32,-0.51777 0.176,-0.10877 0.32,-0.05377 0.32,0.12223 0,0.176 -0.144,0.409 -0.32,0.51777 -0.176,0.10878 -0.32,0.05377 -0.32,-0.12223 z M 6.28,57.98401 C 6.14504,57.76565 5.33233,57.59977 4.3974,57.59977 c -2.0102,0 -1.663,-0.49619 0.50697,-0.72442 1.5601,-0.16408 2.0604,0.15083 1.7447,1.0981 C 6.54745,58.27829 6.46337,58.2807 6.28,57.98401 Z m 5.749,-2.1249 c -0.25294,-0.60537 -1.0227,-1.7214 -1.7105,-2.48 -1.3449,-1.4834 -2.9515,-3.7665 -3.5601,-5.0593 l -0.3766,-0.8 0.56924,0.8 c 0.31308,0.44 1.4897,1.8614 2.6147,3.1586 1.1322,1.3056 2.3103,3.0557 2.6387,3.92 0.6721,1.7688 0.5286,2.1456 -0.17543,0.46068 z m -6.3892,-9.3117 c -0.30879,-0.8047 -0.2177,-1.0123 0.15953,-0.36363 0.18678,0.3212 0.27219,0.65141 0.1898,0.7338 C 5.90674,46.99997 5.74954,46.83339 5.6398,46.54741 Z m 8.6206,-11.274 c -0.0991,-0.0991 -0.18018,-0.53381 -0.18018,-0.96602 0,-0.66446 0.07461,-0.72392 0.48306,-0.38494 0.55642,0.46178 2.9112,0.25122 3.4729,-0.31055 0.19718,-0.19718 0.44658,-1.1806 0.55421,-2.1853 l 0.19569,-1.8267 0.04705,2.4412 c 0.046,2.3867 0.02742,2.4486 -0.83295,2.7744 -1.079,0.40851 -3.4936,0.7042 -3.7398,0.45797 z m 3.8376,-7.2913 c -0.12048,-0.64219 -0.15505,-1.2316 -0.07682,-1.3098 0.07822,-0.07822 0.24079,0.38321 0.36127,1.0254 0.12048,0.64219 0.15505,1.2316 0.07682,1.3098 -0.07822,0.07822 -0.24079,-0.38321 -0.36127,-1.0254 z m -7.7521,0.01778 c 0.16437,-0.50754 1.7119,-0.56829 1.9014,-0.07464 0.12373,0.32243 -0.12157,0.43393 -0.91808,0.41731 -0.5978,-0.01247 -1.0403,-0.16667 -0.98328,-0.34267 z m 6.8614,-3.2557 c -0.80736,-2.255 -1.6561,-3.4819 -3.1645,-4.5746 -1.2499,-0.90539 -1.2843,-0.96968 -0.51904,-0.96968 0.53063,0 1.1301,0.36665 1.7003,1.04 1.0393,1.2271 2.7731,4.898 2.6335,5.5757 -0.05358,0.26009 -0.34623,-0.22203 -0.65033,-1.0714 z m -8.7271,-5.2243 c 0.10877,-0.176 0.26127,-0.32 0.33889,-0.32 0.077613,0 0.14111,0.144 0.14111,0.32 0,0.176 -0.1525,0.32 -0.33889,0.32 -0.18639,0 -0.24989,-0.144 -0.14111,-0.32 z m 1.76,-0.96 c 0,-0.176 0.3515,-0.32 0.78111,-0.32 0.42961,0 0.87011,0.144 0.97889,0.32 0.11538,0.1867 -0.21001,0.32 -0.78112,0.32 -0.53839,0 -0.97888,-0.144 -0.97888,-0.32 z"
       id="path20649"
       inkscape:connector-curvature="0"
       style="fill:#06069f" />
    <path
       d="M 34.32,75.906 C 32.2883,75.82366 32,75.73654 32,75.20489 c 0,-0.3339 0.144,-0.69609 0.32,-0.80487 0.176,-0.10878 0.32,-0.02742 0.32,0.18074 0,0.50079 3.5992,0.22172 3.7705,-0.29236 0.06754,-0.2026 0.25479,-0.36837 0.41612,-0.36837 0.34981,0 0.39931,1.8386 0.05333,1.9811 -0.132,0.05439 -1.284,0.05658 -2.56,0.0049 z m 7.4246,-0.15069 c -0.08541,-0.22259 0.15005,-4.0746 0.52325,-8.56 0.3732,-4.4854 0.69961,-9.1153 0.72534,-10.289 0.02573,-1.1733 0.16588,-2.2524 0.31142,-2.398 0.14555,-0.14557 0.17081,2.5424 0.05614,5.9733 -0.14797,4.4271 -0.1101,6.0986 0.13047,5.758 0.18643,-0.264 0.34117,-0.73396 0.34386,-1.0443 0.0026,-0.31039 0.14218,-0.81439 0.30996,-1.12 0.16778,-0.30561 0.52711,-1.6357 0.7985,-2.9557 0.27139,-1.32 0.77869,-3.624 1.1273,-5.12 0.34861,-1.496 0.63731,-3.2646 0.6415,-3.9303 0.0042,-0.66565 0.24553,-1.7457 0.53632,-2.4 0.67988,-1.5299 1.0053,-3.8847 1.3585,-9.8297 0.43804,-7.3728 0.64973,-8.7235 1.5313,-9.7713 0.42323,-0.50298 1.0356,-0.99898 1.3609,-1.1022 0.60912,-0.19333 0.89722,-0.78789 1.3212,-2.7265 0.1347,-0.616 0.40911,-1.7641 0.60978,-2.5514 0.464,-1.8203 0.2121,-2.0265 -3.1095,-2.5452 -1.3645,-0.21308 -2.7615,-0.44349 -3.1043,-0.51204 -0.34284,-0.06855 -0.80914,0.02956 -1.0362,0.21802 -0.49105,0.40754 -0.92101,-0.39731 -0.62472,-1.1694 0.15623,-0.40713 1.2854,-0.48 7.4382,-0.48 h 7.2541 l -0.19901,2.64 c -0.10946,1.452 -0.29384,4.116 -0.40975,5.92 l -0.21074,3.28 h -4.4114 c -5.0559,0 -5.4013,0.14871 -5.4417,2.3429 -0.03085,1.6747 -0.12919,2.8245 -0.41542,4.8571 -0.12392,0.88 -0.10906,1.7704 0.03304,1.9786 0.16408,0.24045 1.878,0.46262 4.6967,0.60882 l 4.4383,0.23021 -0.21527,4.3512 c -0.1184,2.3931 -0.29823,4.8192 -0.39962,5.3912 l -0.18435,1.04 h -4.0632 c -2.7584,0 -4.2311,0.12846 -4.5861,0.4 -0.41445,0.31706 -0.59796,1.4534 -0.885,5.4802 -0.21678,3.0411 -0.24558,5.1967 -0.07177,5.3705 0.1597,0.1597 2.4904,0.38067 5.1794,0.49105 l 4.889,0.20069 -0.18999,1.7888 c -0.10449,0.98383 -0.28379,3.5168 -0.39844,5.6288 -0.11465,2.112 -0.33821,4.092 -0.49681,4.4 -0.26196,0.50874 -0.96196,0.56 -7.6471,0.56 -5.6375,0 -7.3951,-0.09467 -7.5141,-0.40471 z m 18.85,-3.0353 c 0.11671,-1.892 0.35293,-5.312 0.52493,-7.6 0.34765,-4.6245 1.0595,-14.667 1.7807,-25.12 0.26106,-3.784 0.68524,-9.904 0.94262,-13.6 0.25738,-3.696 0.47007,-6.828 0.47265,-6.96 0.0026,-0.132 1.1567,-0.24 2.5647,-0.24 h 2.56 v 1.9026 c 0,1.0464 -0.14045,3.6744 -0.31211,5.84 -0.17166,2.1656 -0.61418,8.4014 -0.98339,13.857 -0.36921,5.456 -0.85826,12.44 -1.0868,15.52 -0.27649,3.7263 -0.30908,5.7338 -0.09743,6 0.22601,0.28422 1.5572,0.4 4.5989,0.4 4.2149,0 4.2808,0.01098 4.2808,0.71373 0,1.4082 -0.67903,11.301 -0.82406,12.006 l -0.14813,0.72 h -14.486 z m 15.688,2.1654 c 0.11209,-0.701 1.0508,-3.977 2.0859,-7.28 2.0292,-6.4748 4.8188,-15.768 5.869,-19.553 l 0.65145,-2.3476 -0.66588,-3.7324 c -0.68594,-3.8448 -2.1486,-11.744 -3.2686,-17.652 -0.35032,-1.848 -0.63626,-3.7618 -0.63544,-4.2529 l 0.0016,-0.89294 2.6385,0.09294 2.6385,0.09294 1.0326,6.08 c 1.2577,7.4054 1.4428,8.2431 1.8504,8.3747 0.31421,0.10141 0.88506,-1.6695 3.2153,-9.9747 0.64197,-2.288 1.2611,-4.2548 1.3759,-4.3706 0.1148,-0.11583 1.4687,-0.25983 3.0088,-0.32 l 2.7999,-0.10941 -4.8e-5,1.4029 c -2.3e-5,0.7716 -0.5683,3.2196 -1.2628,5.44 -2.23,7.1291 -5.3314,17.401 -6.0497,20.037 l -0.69763,2.56 0.81224,4.64 c 1.8674,10.667 3.6752,21.649 3.6765,22.333 0.0013,0.7123 -0.07298,0.73032 -2.6386,0.64 l -2.64,-0.09294 -0.40746,-2.24 c -0.22411,-1.232 -0.80011,-4.5392 -1.28,-7.3493 -0.4799,-2.8101 -1.0129,-5.0889 -1.1845,-5.064 -0.32175,0.04668 -1.1703,2.5076 -2.4044,6.9733 -0.3891,1.408 -1.0618,3.748 -1.4949,5.2 l -0.78746,2.64 h -6.4431 z m -47.002,-22.405 c 1.427,-0.3631 2.9756,-0.3631 3.2,0 0.12525,0.20267 -0.60115,0.30612 -1.9811,0.28214 -1.6781,-0.02916 -1.9582,-0.09401 -1.2189,-0.28214 z m 14.332,-1.12 c 0.0026,-0.88 0.06455,-1.202 0.1381,-0.7156 0.07356,0.48642 0.07159,1.2064 -0.0044,1.6 -0.07596,0.39358 -0.13613,-0.0044 -0.13373,-0.8844 z m 0.30917,-4.8 c 0.0036,-0.704 0.06909,-0.95432 0.14563,-0.55627 0.07654,0.39805 0.07364,0.97405 -0.0065,1.28 -0.08009,0.30595 -0.14272,-0.01974 -0.13917,-0.72373 z m -3.7607,-26.4 c -0.10878,-0.176 -0.72927,-0.33012 -1.3789,-0.34249 -0.95189,-0.01813 -1.0569,-0.07586 -0.54111,-0.29751 0.352,-0.15126 1.108,-0.28514 1.68,-0.29751 0.83416,-0.01804 1.04,0.10418 1.04,0.61751 0,0.67491 -0.46556,0.86113 -0.8,0.32 z m -4,-0.65888 c 0,-0.18639 0.144,-0.24989 0.32,-0.14112 0.176,0.10877 0.32,0.26127 0.32,0.33889 0,0.07761 -0.144,0.14111 -0.32,0.14111 -0.176,0 -0.32,-0.1525 -0.32,-0.33888 z"
       id="path20651"
       inkscape:connector-curvature="0"
       style="fill:#060662" />
    <path
       d="m 76.27,75.758 c -0.08266,-0.13303 9.6e-4,-0.70903 0.18602,-1.28 0.97855,-3.0205 2.6665,-8.5413 3.6899,-12.068 0.63678,-2.1947 1.8001,-6.1547 2.5851,-8.8 0.78503,-2.6453 1.6262,-5.4805 1.8693,-6.3004 0.24306,-0.8199 0.38749,-1.8279 0.32093,-2.24 -0.06655,-0.4121 -0.48767,-2.7653 -0.93582,-5.2293 -0.44815,-2.464 -1.2497,-6.9995 -1.7812,-10.079 -0.53151,-3.0793 -1.1736,-6.584 -1.4269,-7.7881 -0.2533,-1.2041 -0.40097,-2.2847 -0.32816,-2.4012 0.07281,-0.11654 1.1829,-0.21189 2.4669,-0.21189 2.7614,0 2.3374,-0.85826 3.794,7.68 0.54047,3.168 1.0545,6.084 1.1423,6.48 0.22257,1.0039 1.0553,0.90062 1.2896,-0.16 0.10689,-0.484 0.4637,-1.744 0.79291,-2.8 0.32921,-1.056 0.87669,-3 1.2166,-4.32 0.33993,-1.32 0.93588,-3.444 1.3244,-4.72 l 0.70631,-2.32 h 5.6977 v 1.3129 c 0,0.72209 -0.57437,3.0621 -1.2764,5.2 -0.70203,2.1379 -2.2922,7.2711 -3.5338,11.407 -1.2416,4.136 -2.4983,8.2988 -2.7928,9.2506 l -0.53541,1.7306 1.7307,10.109 c 0.95188,5.5602 1.983,11.549 2.2914,13.309 0.87749,5.0076 1.0313,4.64 -1.9422,4.64 -2.1393,0 -2.5652,-0.08805 -2.7089,-0.56 -0.09374,-0.308 -0.6854,-3.6434 -1.3148,-7.412 -0.6294,-3.7686 -1.2232,-6.9796 -1.3196,-7.1355 -0.23061,-0.37314 -1.0783,0.34081 -1.0783,0.90818 0,0.48361 -1.8175,7.0013 -3.1565,11.319 l -0.84346,2.72 h -2.9897 c -1.6444,0 -3.0574,-0.10884 -3.14,-0.24187 z M 63.12,75.60226 c -1.8106,-0.08619 -2.32,-0.21689 -2.32,-0.5953 0,-0.26668 0.15368,-0.38989 0.3415,-0.2738 0.43207,0.26704 4.4768,-0.46504 5.0396,-0.91214 1.0808,-0.85862 1.9804,-4.067 2.0708,-7.3851 0.02698,-0.99054 -0.14194,-1.3842 -0.829,-1.932 -0.47458,-0.37842 -0.86287,-0.93462 -0.86287,-1.236 0,-0.4911 0.46305,-0.54798 4.4611,-0.54798 2.4536,0 4.5259,0.108 4.605,0.24 0.07915,0.132 0.02378,1.68 -0.12305,3.44 -0.14682,1.76 -0.36052,4.604 -0.47488,6.32 l -0.20793,3.12 -4.6901,-0.06358 c -2.5796,-0.03497 -5.7341,-0.11328 -7.0101,-0.17402 z m -7.92,-24.079 -1.28,-0.23233 1.52,-0.04541 c 0.836,-0.02496 1.592,-0.04541 1.68,-0.04541 0.088,0 0.16761,0.108 0.1769,0.24 0.02336,0.33161 -0.59329,0.35606 -2.0969,0.08315 z"
       id="path20653"
       inkscape:connector-curvature="0"
       style="fill:#030321" />
  </g>
</svg>
