<?xml version="1.0" encoding="UTF-8" standalone="no"?>
<!-- Created with Inkscape (http://www.inkscape.org/) -->

<svg
   xmlns:dc="http://purl.org/dc/elements/1.1/"
   xmlns:cc="http://creativecommons.org/ns#"
   xmlns:rdf="http://www.w3.org/1999/02/22-rdf-syntax-ns#"
   xmlns:svg="http://www.w3.org/2000/svg"
   xmlns="http://www.w3.org/2000/svg"
   xmlns:sodipodi="http://sodipodi.sourceforge.net/DTD/sodipodi-0.dtd"
   xmlns:inkscape="http://www.inkscape.org/namespaces/inkscape"
   version="1.1"
   id="svg7768"
   width="20"
   height="20"
   viewBox="0 0 20 20"
   sodipodi:docname="task_shelxemr_20x20.svg"
   inkscape:version="0.92.2 5c3e80d, 2017-08-06">
  <metadata
     id="metadata7774">
    <rdf:RDF>
      <cc:Work
         rdf:about="">
        <dc:format>image/svg+xml</dc:format>
        <dc:type
           rdf:resource="http://purl.org/dc/dcmitype/StillImage" />
        <dc:title></dc:title>
      </cc:Work>
    </rdf:RDF>
  </metadata>
  <defs
     id="defs7772" />
  <sodipodi:namedview
     pagecolor="#ffffff"
     bordercolor="#666666"
     borderopacity="1"
     objecttolerance="10"
     gridtolerance="10"
     guidetolerance="10"
     inkscape:pageopacity="0"
     inkscape:pageshadow="2"
     inkscape:window-width="1184"
     inkscape:window-height="812"
     id="namedview7770"
     showgrid="false"
     inkscape:pagecheckerboard="true"
     inkscape:zoom="6.4522656"
     inkscape:cx="49.439999"
     inkscape:cy="24.642507"
     inkscape:window-x="0"
     inkscape:window-y="0"
     inkscape:window-maximized="0"
     inkscape:current-layer="svg7768" />
  <g
     id="g7778"
     transform="matrix(0.20367086,0,0,0.18520383,-0.30090751,1.2156871)">
    <path
       style="fill:#a5a5d5;stroke-width:0.31999999"
       d="m 7.6799998,78.239998 c -0.2191005,-0.264 -0.5684845,-0.48 -0.776409,-0.48 -0.534783,0 -2.2484553,-1.874925 -2.9076706,-3.181277 C 2.9747741,72.55514 1.9489203,69.108369 1.5920515,66.501947 1.0984903,62.897179 1.03124,57.085662 1.4778871,56.636293 1.6747249,56.438254 2.6107249,56.150209 3.5578869,55.99619 c 0.9471622,-0.154016 2.0977577,-0.373065 2.5568796,-0.486771 1.0542851,-0.261101 1.1520387,-0.01709 1.5872489,3.962304 0.4034052,3.688569 1.0753328,5.328275 2.1834496,5.328275 1.423566,0 2.115145,-1.449802 2.110065,-4.423465 -0.005,-2.955949 -0.292276,-3.679808 -2.4746464,-6.236522 C 7.7768753,52.096853 5.5735272,48.266699 4.6011928,45.587951 3.5364639,42.654655 3.0840841,38.356031 3.3227628,33.439999 3.7051487,25.564053 5.381445,20.62002 8.5014865,18.165982 c 0.7426767,-0.584145 1.3077906,-0.721528 2.8924915,-0.703181 1.708856,0.01978 2.138153,0.15639 3.244061,1.032285 2.489103,1.971405 4.589178,7.426436 5.22569,13.573937 0.181234,1.750384 0.173951,3.091037 -0.01956,3.6 -0.273691,0.719862 -0.489473,0.810976 -1.920595,0.810976 -0.886744,0 -1.884183,0.169817 -2.216529,0.377369 -0.481554,0.300736 -0.763602,0.272973 -1.388864,-0.136713 -0.619575,-0.405962 -0.828696,-0.889309 -0.994271,-2.298096 -0.564807,-4.80563 -2.927298,-6.310222 -3.3298601,-2.120678 -0.2131796,2.218601 0.4947711,3.929644 3.0005391,7.25198 2.130081,2.824221 3.065358,4.438445 3.855902,6.655021 0.786186,2.204355 1.722821,7.234169 1.912653,10.271116 0.339225,5.426941 -0.7543,13.107433 -2.38467,16.748979 -0.891516,1.991267 -2.716301,4.529449 -3.258478,4.532374 -0.264,0.0013 -0.89246,0.217703 -1.396578,0.480618 -1.197302,0.624438 -3.524489,0.623302 -4.0434202,-0.002 z M 49.370712,77.771594 c -8.661004,-0.200044 -8.596144,-0.177308 -8.480108,-2.972572 0.06218,-1.497968 0.395756,-6.372342 2.16246,-31.599023 0.265005,-3.784 0.691626,-9.976 0.948045,-13.76 0.664915,-9.812284 0.75864,-10.515941 1.449958,-10.885924 0.332714,-0.178062 3.627732,-0.314076 7.608711,-0.314076 6.142182,0 7.076876,0.06631 7.461039,0.529335 0.468138,0.564234 0.47873,5.477883 0.02368,10.990665 l -0.224515,2.72 -4.672656,-0.09681 -4.672659,-0.09681 -0.207341,1.983753 c -0.114022,1.091063 -0.207328,2.593834 -0.207328,3.339488 0,1.668752 0.192071,1.739974 4.708743,1.746013 4.226608,0.0057 4.093772,-0.217437 3.803977,6.388361 C 58.952654,48.480797 58.769771,51.26 58.666312,51.92 l -0.188112,1.2 h -4.417536 c -3.934013,0 -4.43473,0.0613 -4.574595,0.56 -0.08638,0.308 -0.25303,2.231821 -0.37033,4.275155 -0.254147,4.427165 -0.636828,4.113866 5.033002,4.120477 3.529587,0.0041 3.770707,0.04542 4.124515,0.706512 0.449385,0.839686 0.442099,4.956067 -0.01882,10.632288 -0.34673,4.269955 -0.449274,4.709168 -1.073319,4.597164 -0.209612,-0.03762 -3.724294,-0.145619 -7.810399,-0.24 z m 12.832694,-0.01638 c -2.631603,-0.264982 -2.791869,-0.535523 -2.549904,-4.304524 0.11337,-1.765879 0.348131,-4.506685 0.521693,-6.090685 0.301232,-2.749123 0.805862,-9.773724 2.22984,-31.039999 0.920726,-13.750548 1.238227,-17.170158 1.63903,-17.653098 0.534986,-0.644619 5.192947,-0.584172 5.853075,0.07596 0.707421,0.707421 0.665552,2.113296 -0.599718,20.137142 -1.703485,24.266204 -1.625146,22.515724 -1.01807,22.748681 0.2892,0.110976 2.214579,0.293923 4.278623,0.406547 l 3.75281,0.204771 0.223945,1.28 c 0.123172,0.704 0.156896,2.504 0.07494,4 l -0.149004,2.72 0.97919,-2.4 c 0.538557,-1.32 1.529302,-4.272 2.201658,-6.56 0.672358,-2.288 1.979916,-6.744332 2.905686,-9.902963 l 1.683219,-5.742966 -1.022045,-5.457033 c -0.562125,-3.001373 -1.362185,-7.32904 -1.777913,-9.61704 -0.415728,-2.288 -1.060547,-5.790528 -1.432935,-7.783395 -0.526835,-2.819433 -0.592982,-3.724707 -0.298115,-4.08 0.427338,-0.514912 5.254723,-0.653291 6.013648,-0.172383 0.432346,0.273965 1.073238,3.039934 2.139984,9.235778 0.310598,1.804 0.682701,3.28 0.826896,3.28 0.144198,0 0.477872,-0.756 0.741497,-1.68 0.263629,-0.924 1.048141,-3.680388 1.743364,-6.125307 0.695222,-2.444919 1.455548,-4.566714 1.689616,-4.7151 0.489036,-0.310023 4.76174,-0.376099 5.519404,-0.08536 0.417395,0.16017 0.506173,0.787584 0.506173,3.57728 0,1.860675 -0.133603,3.825268 -0.296893,4.365764 -0.163293,0.540496 -1.023328,3.430719 -1.911187,6.422719 -0.887862,2.992 -2.315897,7.757606 -3.173417,10.590236 l -1.559124,5.150237 0.415748,3.169763 c 0.228659,1.74337 1.221776,7.834176 2.206921,13.535129 0.985149,5.700951 1.747702,10.88495 1.694563,11.52 l -0.09661,1.154634 -2.136563,0.09409 c -1.347661,0.05935 -2.548224,-0.07792 -3.251446,-0.371741 -0.995508,-0.415949 -1.149965,-0.648739 -1.442528,-2.174086 -0.180205,-0.939542 -0.647677,-3.292259 -1.038823,-5.228259 -0.391148,-1.936 -0.776902,-3.916 -0.857228,-4.4 -0.197079,-1.187453 -0.615613,-1.110842 -0.874074,0.16 -0.11633,0.572 -0.687341,2.696 -1.268912,4.72 -0.581568,2.024 -1.232192,4.436 -1.44583,5.36 -0.263664,1.140374 -0.558055,1.69839 -0.916512,1.737254 -1.289431,0.139802 -19.254198,0.08602 -20.724675,-0.06204 z M 19.839999,77.119998 c -0.506061,-0.506061 -0.638063,-1.05856 -0.630744,-2.64 0.0087,-1.890586 0.538759,-9.351632 1.244566,-17.52 0.174888,-2.024 0.540615,-6.992 0.812726,-11.039999 0.27211,-4.048 0.700329,-10.168 0.951598,-13.6 0.251269,-3.432 0.554902,-7.769267 0.67474,-9.638372 0.119839,-1.869104 0.338757,-3.593942 0.486486,-3.832972 0.344136,-0.556824 4.760813,-0.813037 5.665845,-0.328678 0.956403,0.511851 1.006786,2.043802 0.369605,11.238082 -0.310953,4.486932 -0.521547,8.201882 -0.467987,8.255441 0.05356,0.05356 1.119047,0.183033 2.367749,0.287721 1.783781,0.149546 2.300686,0.0948 2.411835,-0.25544 0.07781,-0.245181 0.434467,-4.618793 0.79257,-9.719139 0.559027,-7.961983 0.729741,-9.330861 1.207216,-9.68 0.834643,-0.610305 5.055782,-0.53894 5.690937,0.09622 0.773946,0.773944 0.779293,0.648037 -1.263299,29.737142 -0.432544,6.159999 -1.003251,14.367999 -1.268237,18.239999 -0.264982,3.872 -0.571424,7.94 -0.680976,9.04 l -0.199187,2 h -2.793126 c -4.331087,0 -4.097748,0.76446 -3.398321,-11.133517 0.31771,-5.404566 0.52553,-10.402483 0.461828,-11.106483 l -0.115824,-1.28 -1.999904,-0.09527 c -1.831453,-0.08724 -2.024574,-0.03333 -2.292792,0.64 -0.161088,0.404397 -0.61005,5.555581 -0.997694,11.447075 -0.387644,5.891497 -0.775295,10.895497 -0.861445,11.12 -0.10977,0.286057 -0.960246,0.408192 -2.842401,0.408192 -2.259097,0 -2.787436,-0.101671 -3.325764,-0.64 z"
       id="path7792"
       inkscape:connector-curvature="0" />
    <path
       style="fill:#9797ab;stroke-width:0.31999999"
       d="M 6.9753729,76.858734 C 6.1478283,76.38643 5.173044,75.613745 4.8091858,75.141659 3.04556,72.853447 1.6877966,66.907185 1.5567179,60.897627 1.4889802,57.792056 1.5229163,57.604158 2.26278,56.988273 c 0.5053947,-0.420707 1.3088253,-0.667494 2.2972199,-0.705628 0.8359999,-0.03226 1.6999999,-0.07305 1.9199999,-0.09065 0.2790346,-0.02234 0.4721261,0.887338 0.6385014,3.008 0.3995578,5.09287 2.0380291,7.529427 3.8919798,5.787731 0.972039,-0.913184 1.471099,-2.682464 1.462491,-5.184857 C 12.464201,57.253371 11.786021,55.69388 9.669936,53.357224 6.1596225,49.481013 4.2655858,44.880584 3.7779532,39.046175 3.0237162,30.021904 4.7697973,22.20102 8.1939847,19.266296 c 1.8104263,-1.551639 3.2202983,-1.743597 5.4311663,-0.739471 1.557365,0.70732 2.407897,1.724323 3.621289,4.330067 1.468511,3.153611 2.840579,11.634899 1.969353,12.173347 -0.204565,0.126429 -1.191804,0.365034 -2.193865,0.530234 -3.334982,0.549811 -3.078498,0.664822 -3.301607,-1.480474 -0.342014,-3.288618 -1.29921,-5.28 -2.537933,-5.28 -0.674294,0 -0.985398,0.244308 -1.3859272,1.088361 -0.6950032,1.464611 -0.6479936,4.202013 0.09946,5.791639 0.5939212,1.263104 0.8206812,1.595014 3.4248652,5.012989 0.726434,0.953436 1.678522,2.447558 2.115751,3.320268 3.812976,7.610685 3.771534,21.53896 -0.08708,29.266742 -1.366026,2.735788 -1.81937,3.2016 -3.840159,3.945769 -1.9428442,0.715466 -2.7520025,0.649962 -4.5339276,-0.367033 z M 90.672743,77.122138 C 90.294752,76.96963 89.89722,76.702026 89.789338,76.52747 89.63592,76.279239 87.359997,64.072916 87.359997,63.498347 c 0,-0.07609 -0.125024,-0.138349 -0.27783,-0.138349 -0.15281,0 -0.524426,0.9 -0.825814,2 -1.774692,6.477222 -2.812637,10.104861 -3.113002,10.88 l -0.340998,0.88 H 71.680356 c -9.397593,0 -11.182553,-0.07297 -11.512595,-0.470647 -0.305324,-0.367894 -0.31063,-1.538096 -0.02429,-5.36 0.201469,-2.689145 0.569824,-7.769353 0.818567,-11.289353 0.248745,-3.52 0.60248,-8.488 0.786083,-11.039999 0.608454,-8.457277 1.609344,-22.831738 1.815942,-26.08 0.283402,-4.455839 0.206048,-4.3638 3.573731,-4.252199 L 69.919996,18.72 70.030623,20 c 0.06085,0.704 -0.04746,3.44 -0.240669,6.08 -0.193213,2.64 -0.635756,8.976 -0.983424,14.08 -1.103337,16.197631 -1.295801,18.844562 -1.483331,20.399999 l -0.183261,1.52 h 4.128867 c 2.921316,0 4.298346,0.123927 4.708349,0.423728 0.544643,0.398253 0.556979,0.717917 0.205168,5.317338 -0.205872,2.691487 -0.310074,4.957855 -0.231555,5.036374 0.165549,0.165549 2.584867,-7.08712 4.075443,-12.21744 0.562493,-1.936 1.770941,-6.090275 2.685443,-9.231724 1.438246,-4.940586 1.628528,-5.912653 1.409389,-7.2 C 83.638146,41.371497 82.58708,35.646154 81.262997,28.64 80.531231,24.768 79.911698,20.952 79.886255,20.16 l -0.04626,-1.44 2.92135,-0.0915 c 2.558073,-0.08012 2.94928,-0.02043 3.145929,0.48 0.203978,0.519084 2.391927,12.297086 2.424519,13.051497 0.03925,0.908422 1.068236,-1.873206 2.203856,-5.9576 0.703804,-2.53132 1.471219,-5.2504 1.70536,-6.0424 l 0.425715,-1.44 3.106633,-0.09159 3.106637,-0.09159 v 2.363836 c 0,1.30011 -0.128685,2.781325 -0.285968,3.291588 -0.157283,0.510263 -0.600643,2.079751 -0.985245,3.487751 -0.384601,1.408 -1.037129,3.64 -1.450061,4.96 -0.914844,2.924451 -3.401945,11.287971 -4.139459,13.92 -0.607728,2.168864 -0.85968,0.13344 2.365021,19.106085 1.776973,10.454877 1.857258,11.292752 1.109539,11.579677 C 94.75496,77.52929 91.47329,77.44514 90.672743,77.122138 Z M 32.430092,76.898106 c -0.729749,-0.142515 -1.141335,-1.136927 -0.905508,-2.187756 0.146358,-0.652167 1.020557,-14.475939 1.18322,-18.710352 l 0.09219,-2.4 -2.529646,-0.09436 c -1.391305,-0.05189 -2.640009,0.0201 -2.774898,0.16 -0.217781,0.225863 -0.644796,5.324678 -1.539386,18.381164 -0.152501,2.225748 -0.375502,4.205747 -0.495558,4.4 -0.352118,0.569741 -5.597412,0.465731 -5.820418,-0.115411 -0.0989,-0.257731 0.200891,-5.765731 0.666203,-12.24 0.465312,-6.474268 0.979383,-13.643398 1.142379,-15.931397 0.949152,-13.323366 1.315815,-18.497429 1.662927,-23.465951 0.450326,-6.445914 0.301814,-6.212051 3.853367,-6.067967 l 2.31503,0.09392 0.106742,1.28 c 0.107601,1.290292 -0.767819,14.99191 -1.097395,17.175869 -0.228541,1.514441 0.371432,1.864131 3.198357,1.864131 2.569019,0 2.596498,-0.0414 2.86709,-4.32 0.474224,-7.498459 1.150355,-15.557085 1.329596,-15.847101 0.106359,-0.172094 1.319251,-0.312899 2.695312,-0.312899 3.208893,0 3.350675,0.157505 3.090839,3.433602 -0.108461,1.367519 -0.699504,9.830398 -1.313428,18.806398 -2.401449,35.110789 -2.397708,35.062408 -2.76488,35.759999 -0.23672,0.449744 -0.68631,0.55142 -2.283491,0.516422 -1.093808,-0.02397 -2.2992,-0.104208 -2.678649,-0.178314 z m 9.014835,-0.298896 c -0.402275,-0.402275 -0.478883,-0.893807 -0.33664,-2.159999 0.10128,-0.901568 0.612112,-7.831213 1.135181,-15.399213 0.523068,-7.568 1.164332,-16.711999 1.425033,-20.319999 0.260701,-3.608 0.645558,-9.296 0.855238,-12.64 0.209684,-3.344 0.498055,-6.404 0.640829,-6.8 0.258963,-0.718259 0.27737,-0.72 7.616253,-0.72 6.682176,0 7.383334,0.05134 7.6476,0.56 0.219088,0.421702 -0.288701,11.898389 -0.552183,12.48 -0.01994,0.044 -2.034608,0.08 -4.477059,0.08 -3.170809,0 -4.531174,0.114394 -4.756768,0.4 -0.464457,0.588006 -0.768585,7.213693 -0.34319,7.476601 0.188371,0.11642 2.160105,0.299812 4.381635,0.407536 l 4.039142,0.195863 0.0771,2.24 c 0.04241,1.232 -0.101594,3.968 -0.32,6.08 l -0.397101,3.839999 -4.48,0.16 -4.479999,0.16 -0.20736,1.92 c -0.114048,1.056 -0.258048,3.214858 -0.32,4.797459 l -0.11264,2.877463 1.439999,0.218819 c 0.792,0.120352 2.908845,0.229494 4.7041,0.242541 3.80975,0.02768 3.933833,0.123283 3.738729,2.880515 -0.0694,0.980761 -0.264262,3.737964 -0.433027,6.12712 -0.168765,2.389155 -0.399418,4.585155 -0.51256,4.879999 -0.184455,0.480685 -0.993469,0.536084 -7.828621,0.536084 -6.614588,0 -7.691791,-0.06889 -8.143691,-0.520788 z"
       id="path7790"
       inkscape:connector-curvature="0" />
    <path
       style="fill:#5e5ea1;stroke-width:0.31999999"
       d="M 7.6799998,77.167345 C 5.6194392,76.123911 5.1516882,75.711505 4.3728405,74.251502 2.5536933,70.841383 1.6,66.189995 1.6,60.727694 1.6,57.456325 1.610195,57.411966 2.4801451,56.898072 3.3966885,56.356657 6.0171249,56.045598 6.60433,56.40851 c 0.186033,0.114976 0.4308093,1.513149 0.5439475,3.10705 0.2562388,3.609907 1.1958698,5.871692 2.5021158,6.022835 1.7400457,0.201341 2.8301147,-2.000752 2.8207937,-5.698397 -0.0064,-2.534365 -0.624573,-4.00456 -2.6910644,-6.4 C 7.7267425,51.059755 5.5624584,47.324888 4.7734085,44.799999 3.7737676,41.601237 3.3639794,35.852946 3.8147205,31.35203 4.45262,24.982225 5.5025768,21.976385 7.9197703,19.599999 c 1.4884153,-1.463287 1.8743824,-1.68 2.9920957,-1.68 1.686406,0 3.912677,1.038622 4.751581,2.216755 1.91424,2.688302 3.220684,6.997173 3.671033,12.107687 0.221943,2.518588 -0.348977,3.275558 -2.470481,3.275558 -0.756799,0 -1.542696,0.166698 -1.746437,0.370438 C 14.502145,36.505855 13.76,35.604175 13.76,34.241049 c 0,-1.177047 -0.599078,-3.29353 -1.336309,-4.72105 -0.601651,-1.164993 -1.992119,-0.970037 -2.6272302,0.368361 -1.1501548,2.42377 -0.3219065,6.206727 1.9381992,8.852567 3.162388,3.702112 4.617035,6.528073 5.542152,10.766806 2.015297,9.233763 0.409509,21.629183 -3.401525,26.25709 -0.576465,0.700029 -3.606161,2.008336 -4.5907698,1.982423 -0.2664845,-0.007 -0.9885175,-0.267968 -1.6045174,-0.579901 z M 19.860556,76.198407 c -0.329334,-0.615366 -0.192493,-3.362668 0.782924,-15.718409 0.257043,-3.256 0.682803,-9.088 0.946133,-12.959999 0.26333,-3.872 0.699718,-10.136 0.969751,-13.92 0.270034,-3.784 0.580398,-8.392 0.689699,-10.24 0.1093,-1.848 0.328041,-3.612 0.486091,-3.92 0.237426,-0.462686 0.732015,-0.56 2.846147,-0.56 1.877687,0 2.603792,0.117289 2.727873,0.440638 0.093,0.24235 -0.127142,4.593586 -0.489201,9.669414 -0.525359,7.365199 -0.577686,9.304764 -0.259131,9.605074 0.219536,0.206967 1.351514,0.473088 2.515505,0.591383 3.31089,0.33648 3.015566,1.273155 3.97073,-12.59387 0.27153,-3.942048 0.569517,-7.290048 0.662192,-7.44 0.09268,-0.149951 1.384003,-0.272639 2.869616,-0.272639 h 2.701114 v 1.892373 c 0,1.040805 -0.357911,7.052805 -0.795357,13.359998 -2.932442,42.280543 -2.900394,41.85534 -3.190179,42.324226 -0.349197,0.565008 -4.818819,0.436515 -5.307734,-0.152589 -0.336127,-0.405008 -0.314957,-1.887155 0.115408,-8.079999 0.289872,-4.171207 0.620003,-9.20401 0.733619,-11.18401 l 0.206582,-3.6 h -2.90667 -2.906669 l -0.157932,1.04 c -0.08686,0.572 -0.459978,5.561779 -0.829145,11.0884 -0.369166,5.526621 -0.813689,10.31462 -0.987826,10.64 -0.264365,0.493971 -0.708957,0.5916 -2.694097,0.5916 -1.999377,0 -2.428685,-0.09567 -2.699443,-0.601591 z m 21.744665,0.127882 c -0.402323,-0.484771 -0.371753,-1.095984 1.112669,-22.246291 0.253225,-3.608 0.686214,-9.799999 0.962195,-13.759999 0.275981,-3.96 0.717693,-10.281566 0.981581,-14.047925 0.263891,-3.766358 0.555469,-6.970358 0.647952,-7.119999 0.09248,-0.149642 3.476173,-0.272076 7.519308,-0.272076 6.077767,0 7.381562,0.07923 7.526682,0.457405 0.278249,0.725112 -0.536739,11.498914 -0.903408,11.942595 -0.234231,0.283431 -1.572589,0.4 -4.592499,0.4 -2.378995,0 -4.34585,0.135781 -4.451872,0.307333 -0.401674,0.649918 -0.59056,7.591406 -0.212925,7.824798 0.202243,0.124992 2.167123,0.312282 4.366403,0.416195 l 3.998691,0.188938 -0.01798,2.431369 c -0.03458,4.675491 -0.485817,9.029018 -0.967433,9.333846 -0.25002,0.158247 -2.274973,0.289927 -4.499891,0.292621 -4.768282,0.0058 -4.278557,-0.593667 -4.609402,5.642096 -0.163997,3.091005 -0.123024,4.258794 0.155463,4.430906 0.20798,0.12854 2.39831,0.313683 4.867398,0.411427 3.221497,0.127529 4.533708,0.293561 4.646672,0.587945 0.208924,0.544451 -0.703229,12.428355 -0.989495,12.891545 -0.155296,0.251274 -2.490848,0.36098 -7.68503,0.36098 -6.19839,0 -7.528505,-0.08021 -7.855075,-0.473709 z m 18.659996,-0.03366 c -0.21374,-0.557001 -0.07039,-3.373609 0.666368,-13.092633 0.495082,-6.530934 1.386896,-19.331894 2.285107,-32.799999 0.275837,-4.136 0.600922,-8.384 0.722413,-9.44 l 0.220893,-1.92 2.8,-0.09246 2.8,-0.09246 -0.007,2.172459 c -0.0039,1.194852 -0.213696,5.052458 -0.466311,8.572458 -1.536281,21.407161 -2.177849,31.780854 -1.994979,32.257407 0.180944,0.471539 0.751818,0.542592 4.35937,0.542592 2.562694,0 4.23088,0.128995 4.3595,0.337107 0.114589,0.185408 0.03297,2.92729 -0.181376,6.093072 -0.214345,3.165779 -0.302991,5.842691 -0.196991,5.948694 0.106003,0.106 0.252681,-0.0079 0.325951,-0.253072 0.07327,-0.24519 1.003165,-3.253801 2.066426,-6.685801 2.583507,-8.339046 5.339286,-17.5908 6.019549,-20.208937 0.516576,-1.98816 0.518928,-2.316134 0.03557,-4.96 -0.284676,-1.557085 -1.319063,-7.167584 -2.298643,-12.467775 -0.979581,-5.300192 -1.781056,-10.016192 -1.781056,-10.48 v -0.843287 h 2.853484 2.853482 l 0.327401,1.526615 c 0.180071,0.839638 0.716138,3.899638 1.191261,6.8 0.475123,2.900362 0.982375,5.404835 1.127223,5.565494 0.333129,0.369485 0.676121,-0.539264 2.096255,-5.553957 0.625856,-2.209983 1.416935,-4.990152 1.757956,-6.178152 l 0.620038,-2.16 h 3.026451 3.026448 v 1.81807 c 0,1.835492 -0.240051,2.737267 -4.158525,15.62193 -1.016976,3.344 -2.228134,7.448 -2.691465,9.12 l -0.842423,3.04 0.758144,4.479999 c 0.41698,2.464 1.454855,8.589571 2.306391,13.612381 0.851536,5.022809 1.453683,9.378809 1.338105,9.679999 -0.174009,0.45346 -0.648793,0.54762 -2.761299,0.54762 -1.545261,0 -2.638925,-0.14201 -2.77375,-0.360167 -0.122429,-0.198089 -0.772023,-3.455187 -1.443546,-7.23799 -0.67152,-3.782803 -1.295824,-6.9527 -1.387337,-7.044214 -0.202259,-0.202259 -0.726429,1.129209 -1.292195,3.282371 -1.272138,4.841446 -2.84648,10.007949 -3.236602,10.621526 -0.444387,0.698922 -0.486441,0.701594 -11.34056,0.720653 -9.673049,0.01699 -10.916406,-0.0379 -11.089718,-0.489546 z"
       id="path7788"
       inkscape:connector-curvature="0" />
    <path
       style="fill:#0202d7;stroke-width:0.31999999"
       d="M 7.2423915,76.332263 C 5.2443026,75.262091 4.7003231,74.5789 3.6655,71.839998 2.5705164,68.941867 1.9227458,64.94476 1.9212179,61.076801 1.9200851,58.21131 1.9720091,57.959528 2.6565609,57.51099 3.0616694,57.245553 4.1056693,56.976993 4.9765608,56.914187 l 1.583439,-0.114189 0.2558867,2.857607 c 0.4263994,4.761804 1.9920704,7.285686 3.8896345,6.27014 1.198466,-0.641398 1.895875,-2.41792 2.035914,-5.186118 0.165318,-3.267856 -0.45536,-5.073741 -2.592891,-7.544115 C 7.6992686,50.366853 5.5335995,46.526511 4.7506879,43.625592 3.8697333,40.361397 3.7574303,31.214662 4.5549087,27.679999 c 0.9005119,-3.99134 1.7990757,-5.95316 3.4770546,-7.591396 1.8422873,-1.798654 2.7773827,-2.106904 4.2588387,-1.403907 0.597256,0.283417 1.303357,0.515303 1.569113,0.515303 0.714156,0 2.126773,1.817744 3.108505,4 1.051304,2.336902 1.911579,6.498671 1.911579,9.247677 0,1.923293 -0.04817,2.053427 -0.88,2.377149 -0.484,0.188358 -1.526278,0.385827 -2.316175,0.438822 l -1.436175,0.09635 -0.231248,-1.831443 c -0.622486,-4.929979 -3.217826,-7.070657 -4.5464848,-3.750012 -0.6933129,1.732759 -0.6485705,4.414239 0.1020317,6.114924 0.6072121,1.375801 0.8195391,1.692249 3.4964751,5.211075 2.714244,3.567868 3.964018,7.161062 4.559547,13.109046 0.920387,9.192582 -1.64658,20.160134 -5.135037,21.93981 -2.117678,1.080359 -3.4806917,1.126791 -5.2505415,0.178864 z M 20.085426,75.759998 c -0.07867,-0.22 0.329151,-7.096 0.906282,-15.28 1.65722,-23.500223 2.036971,-28.943314 2.388841,-34.239999 0.181228,-2.728 0.402378,-5.433919 0.491445,-6.013155 l 0.161942,-1.053155 2.463031,0.09315 2.463032,0.09315 -0.06557,1.92 c -0.03606,1.056 -0.307809,5.423111 -0.603881,9.704691 -0.458884,6.636042 -0.472818,7.846883 -0.09443,8.206195 0.244134,0.231824 1.549168,0.519997 2.900076,0.640381 3.611474,0.321827 3.264578,1.522086 4.424479,-15.308731 0.180323,-2.616605 0.406439,-4.884605 0.50248,-5.04 0.09604,-0.155394 1.246118,-0.282536 2.555731,-0.282536 h 2.381114 v 1.742571 c 0,0.958413 -0.140944,3.514413 -0.31321,5.679999 -0.172265,2.165587 -0.52944,7.10543 -0.793721,10.97743 -2.370061,34.723922 -2.619319,37.934248 -2.972746,38.287675 -0.167072,0.167072 -1.297491,0.260692 -2.512045,0.208045 l -2.208278,-0.09572 0.0067,-1.92 c 0.0036,-1.056 0.281059,-6.143798 0.616464,-11.306218 0.526445,-8.10293 0.547411,-9.425714 0.153357,-9.6751 -0.587229,-0.371638 -5.117189,-0.377075 -5.701854,-0.0068 -0.477155,0.302154 -0.559069,1.10257 -1.492944,14.588163 -0.292512,4.224 -0.677682,7.86 -0.855935,8.08 -0.201508,0.2487 -1.143596,0.399999 -2.490677,0.399999 -1.44364,0 -2.214312,-0.133472 -2.309627,-0.399999 z m 21.676416,0.08299 c -0.10776,-0.174361 0.02749,-3.522361 0.300579,-7.439999 0.273075,-3.917642 0.707786,-10.218986 0.966022,-14.002986 0.258234,-3.784 0.692189,-10.047999 0.96434,-13.919999 0.272153,-3.872 0.71023,-10.115563 0.973507,-13.874584 0.263277,-3.759022 0.558064,-6.963022 0.655081,-7.12 0.09702,-0.156978 3.427703,-0.285416 7.40152,-0.285416 h 7.22512 l -0.199014,2.64 c -0.109456,1.452 -0.293844,4.116 -0.409751,5.92 l -0.210739,3.28 h -4.395072 c -3.134384,0 -4.490649,0.115165 -4.728281,0.401492 -0.43874,0.528647 -1.015575,7.566575 -0.690874,8.429301 0.215741,0.573223 0.612448,0.701223 2.72737,0.88 1.3612,0.115063 3.266128,0.209207 4.233171,0.209207 h 1.758262 l -0.217802,4.4 c -0.119792,2.42 -0.300761,4.867999 -0.402156,5.439999 l -0.184352,1.04 -4.044387,0.0049 c -2.224413,0.0026 -4.246048,0.132583 -4.492525,0.288637 -0.532701,0.337277 -1.374829,9.378582 -0.974058,10.457722 0.207959,0.559961 0.611805,0.705487 2.435744,0.877724 1.202547,0.113559 3.39305,0.207491 4.867786,0.208743 l 2.681331,0.0022 -0.195779,1.84 c -0.10768,1.012 -0.289584,3.568 -0.404231,5.679999 -0.114646,2.112 -0.338214,4.092 -0.496813,4.4 -0.261913,0.508643 -0.960585,0.56 -7.618217,0.56 -4.495392,0 -7.405619,-0.122592 -7.525782,-0.317014 z m 18.832572,-3.122985 c 0.116711,-1.892 0.352931,-5.312 0.524931,-7.6 0.347648,-4.624467 1.059504,-14.666521 1.780695,-25.119999 0.261062,-3.784 0.685241,-9.904 0.94262,-13.6 0.257383,-3.696 0.470074,-6.828 0.472653,-6.96 0.0026,-0.132 1.156685,-0.24 2.564685,-0.24 h 2.56 v 1.902571 c 0,1.046413 -0.140448,3.674413 -0.312106,5.839999 -0.17166,2.165587 -0.614185,8.40143 -0.983392,13.85743 -0.369206,5.456 -0.858265,12.439999 -1.086796,15.519999 -0.276487,3.726279 -0.309085,5.733837 -0.09743,6 0.226013,0.284215 1.557229,0.4 4.598903,0.4 4.214892,0 4.280819,0.01098 4.280819,0.713731 0,1.408163 -0.679027,11.301318 -0.824061,12.006269 l -0.148131,0.72 h -7.242797 -7.242796 z m 15.687596,2.165446 c 0.112093,-0.701005 1.050772,-3.977005 2.085946,-7.28 C 80.397198,61.13064 83.186708,51.8372 84.23698,48.052423 l 0.651453,-2.347581 -0.665882,-3.732419 c -0.685936,-3.844838 -2.14856,-11.743846 -3.268617,-17.652419 -0.350317,-1.848 -0.636263,-3.761823 -0.635437,-4.252941 l 0.0016,-0.892942 2.638508,0.09294 2.638509,0.09294 1.032618,6.08 c 1.257721,7.405405 1.442819,8.243136 1.850365,8.374675 0.314211,0.101411 0.885055,-1.669475 3.215334,-9.974675 0.641968,-2.288 1.261142,-4.254766 1.375939,-4.370592 0.1148,-0.115826 1.468749,-0.259826 3.008771,-0.32 l 2.799949,-0.109408 -4.8e-5,1.402905 c -2.3e-5,0.771598 -0.568304,3.219598 -1.262839,5.44 -2.22998,7.129143 -5.331379,17.401287 -6.049663,20.037095 l -0.697626,2.56 0.81224,4.639999 c 1.86735,10.66745 3.675184,21.649251 3.676467,22.332941 0.0013,0.7123 -0.07298,0.730323 -2.638624,0.639999 L 90.079997,76 89.672532,73.76 c -0.224106,-1.232 -0.800106,-4.539171 -1.28,-7.349267 -0.479895,-2.810099 -1.012935,-5.088899 -1.184535,-5.064 -0.321753,0.04668 -1.170272,2.507613 -2.404355,6.973267 -0.389101,1.408 -1.061811,3.748 -1.494915,5.2 l -0.787459,2.64 h -3.221533 -3.221536 z"
       id="path7786"
       inkscape:connector-curvature="0" />
    <path
       style="fill:#06069f;stroke-width:0.31999999"
       d="M 7.2423915,76.332263 C 5.5405435,75.420756 4.6712069,74.535713 4.2035151,73.238481 3.9398684,72.507207 4.0811112,72.57795 5.2816578,73.778497 7.5499889,76.04683 10.026331,76.307166 12.510282,74.538436 15.879289,72.139489 18.136053,60.359998 16.841791,51.929515 16.297439,48.383749 14.927175,44.427755 13.71919,42.914475 12.031817,40.800652 10.24,38.128408 10.24,37.725756 c 0,-0.235232 0.324,0.01811 0.72,0.563004 0.396,0.544887 1.34479,1.811988 2.108423,2.815783 2.714244,3.567868 3.964018,7.161062 4.559547,13.109046 0.920387,9.192582 -1.64658,20.160134 -5.135037,21.93981 -2.117678,1.080359 -3.4806917,1.126791 -5.2505415,0.178864 z M 20.085426,75.759998 c -0.07867,-0.22 0.329151,-7.096 0.906282,-15.28 1.65722,-23.500223 2.036971,-28.943314 2.388841,-34.239999 0.181228,-2.728 0.402378,-5.433919 0.491445,-6.013155 l 0.161942,-1.053155 2.463031,0.09315 2.463032,0.09315 -0.06557,1.92 c -0.03606,1.056 -0.307809,5.423111 -0.603881,9.704691 -0.458884,6.636042 -0.472818,7.846883 -0.09443,8.206195 0.244134,0.231824 1.549168,0.519997 2.900076,0.640381 3.611474,0.321827 3.264578,1.522086 4.424479,-15.308731 0.180323,-2.616605 0.406439,-4.884605 0.50248,-5.04 0.09604,-0.155394 1.246118,-0.282536 2.555731,-0.282536 h 2.381114 v 1.742571 c 0,0.958413 -0.140944,3.514413 -0.31321,5.679999 -0.172265,2.165587 -0.52944,7.10543 -0.793721,10.97743 -2.370061,34.723922 -2.619319,37.934248 -2.972746,38.287675 -0.167072,0.167072 -1.297491,0.260692 -2.512045,0.208045 l -2.208278,-0.09572 0.0067,-1.92 c 0.0036,-1.056 0.281059,-6.143798 0.616464,-11.306218 0.526445,-8.10293 0.547411,-9.425714 0.153357,-9.6751 -0.587229,-0.371638 -5.117189,-0.377075 -5.701854,-0.0068 -0.477155,0.302154 -0.559069,1.10257 -1.492944,14.588163 -0.292512,4.224 -0.677682,7.86 -0.855935,8.08 -0.201508,0.2487 -1.143596,0.399999 -2.490677,0.399999 -1.44364,0 -2.214312,-0.133472 -2.309627,-0.399999 z m 3.586323,-21.2 c 0.942685,-4.716051 1.369159,-6.202575 1.830239,-6.379507 0.279011,-0.107065 0.404022,-0.395385 0.294822,-0.679958 -0.104276,-0.271738 0.0061,-0.810522 0.245354,-1.197302 0.390466,-0.631316 0.497891,-3.373645 0.165436,-4.223232 -0.06887,-0.176 0.04805,-0.896 0.259821,-1.6 0.211772,-0.704 0.534863,-3.512 0.717978,-6.24 0.183116,-2.728 0.490988,-6.595124 0.68416,-8.593609 0.193172,-1.998484 0.229546,-3.750638 0.08083,-3.893674 -0.148715,-0.143036 -0.9416,-0.358345 -1.761968,-0.478463 -1.943439,-0.284559 -2.046708,-0.06972 -2.310007,4.805746 -0.233323,4.320421 -1.008158,18.01367 -1.430473,25.279999 -0.241842,4.161104 -0.253887,6.035043 -0.04731,7.36 0.07664,0.491575 0.841995,-2.013206 1.271115,-4.16 z m 18.090093,21.282985 c -0.10776,-0.174361 0.02749,-3.522361 0.300579,-7.439999 0.273075,-3.917642 0.707786,-10.218986 0.966022,-14.002986 0.258234,-3.784 0.692189,-10.047999 0.96434,-13.919999 0.272153,-3.872 0.71023,-10.115563 0.973507,-13.874584 0.263277,-3.759022 0.558064,-6.963022 0.655081,-7.12 0.09702,-0.156978 3.427703,-0.285416 7.40152,-0.285416 h 7.22512 l -0.199014,2.64 c -0.109456,1.452 -0.293844,4.116 -0.409751,5.92 l -0.210739,3.28 h -4.395072 c -3.134384,0 -4.490649,0.115165 -4.728281,0.401492 -0.43874,0.528647 -1.015575,7.566575 -0.690874,8.429301 0.215741,0.573223 0.612448,0.701223 2.72737,0.88 1.3612,0.115063 3.266128,0.209207 4.233171,0.209207 h 1.758262 l -0.217802,4.4 c -0.119792,2.42 -0.300761,4.867999 -0.402156,5.439999 l -0.184352,1.04 -4.044387,0.0049 c -2.224413,0.0026 -4.246048,0.132583 -4.492525,0.288637 -0.532701,0.337277 -1.374829,9.378582 -0.974058,10.457722 0.207959,0.559961 0.611805,0.705487 2.435744,0.877724 1.202547,0.113559 3.39305,0.207491 4.867786,0.208743 l 2.681331,0.0022 -0.195779,1.84 c -0.10768,1.012 -0.289584,3.568 -0.404231,5.679999 -0.114646,2.112 -0.338214,4.092 -0.496813,4.4 -0.261913,0.508643 -0.960585,0.56 -7.618217,0.56 -4.495392,0 -7.405619,-0.122592 -7.525782,-0.317014 z m 18.832572,-3.122985 c 0.116711,-1.892 0.352931,-5.312 0.524931,-7.6 0.347648,-4.624467 1.059504,-14.666521 1.780695,-25.119999 0.261062,-3.784 0.685241,-9.904 0.94262,-13.6 0.257383,-3.696 0.470074,-6.828 0.472653,-6.96 0.0026,-0.132 1.156685,-0.24 2.564685,-0.24 h 2.56 v 1.902571 c 0,1.046413 -0.140448,3.674413 -0.312106,5.839999 -0.17166,2.165587 -0.614185,8.40143 -0.983392,13.85743 -0.369206,5.456 -0.858265,12.439999 -1.086796,15.519999 -0.276487,3.726279 -0.309085,5.733837 -0.09743,6 0.226013,0.284215 1.557229,0.4 4.598903,0.4 4.214892,0 4.280819,0.01098 4.280819,0.713731 0,1.408163 -0.679027,11.301318 -0.824061,12.006269 l -0.148131,0.72 h -7.242797 -7.242796 z m 15.687596,2.165446 c 0.112093,-0.701005 1.050772,-3.977005 2.085946,-7.28 2.029242,-6.474809 4.818752,-15.768249 5.869024,-19.553026 l 0.651453,-2.347581 -0.665882,-3.732419 c -0.685936,-3.844838 -2.14856,-11.743846 -3.268617,-17.652419 -0.350317,-1.848 -0.636263,-3.761823 -0.635437,-4.252941 l 0.0016,-0.892942 2.638508,0.09294 2.638509,0.09294 1.032618,6.08 c 1.257721,7.405405 1.442819,8.243136 1.850365,8.374675 0.314211,0.101411 0.885055,-1.669475 3.215334,-9.974675 0.641968,-2.288 1.261142,-4.254766 1.375939,-4.370592 0.1148,-0.115826 1.468749,-0.259826 3.008771,-0.32 l 2.799949,-0.109408 -4.8e-5,1.402905 c -2.3e-5,0.771598 -0.568304,3.219598 -1.262839,5.44 -2.22998,7.129143 -5.331379,17.401287 -6.049663,20.037095 l -0.697626,2.56 0.81224,4.639999 c 1.86735,10.66745 3.675184,21.649251 3.676467,22.332941 0.0013,0.7123 -0.07298,0.730323 -2.638624,0.639999 l -2.64,-0.09294 -0.407465,-2.24 c -0.224106,-1.232 -0.800106,-4.539171 -1.28,-7.349267 -0.479895,-2.810099 -1.012935,-5.088899 -1.184535,-5.064 -0.321753,0.04668 -1.170272,2.507613 -2.404355,6.973267 -0.389101,1.408 -1.061811,3.748 -1.494915,5.2 l -0.787459,2.64 H 79.299735 76.078199 Z M 9.0332669,66.985825 C 8.57785,66.802587 7.8704065,65.53211 7.5488484,64.319998 c -0.1865901,-0.70335 -0.1466733,-0.684019 0.3304003,0.16 0.6406576,1.133427 1.3590979,1.735747 2.0871638,1.749824 0.7046085,0.01363 1.9142285,-1.283203 2.4261505,-2.601059 l 0.415162,-1.068765 -0.148571,1.229747 c -0.278712,2.306938 -2.020302,3.84208 -3.6258871,3.19608 z m 3.8626251,-6.505827 c 0,-0.968 0.05999,-1.364 0.133309,-0.88 0.07332,0.484 0.07332,1.276 0,1.76 -0.07332,0.484 -0.133309,0.088 -0.133309,-0.88 z M 1.9199999,58.277768 c 0,-0.176 0.144,-0.408995 0.32,-0.51777 0.176,-0.108774 0.32,-0.05377 0.32,0.122231 0,0.176 -0.144,0.408995 -0.32,0.517769 -0.176,0.108775 -0.32,0.05377 -0.32,-0.12223 z m 4.3597017,-0.29353 c -0.1349562,-0.218365 -0.9476666,-0.38424 -1.8825872,-0.38424 -2.0102337,0 -1.6629823,-0.496192 0.5069706,-0.724416 1.5601036,-0.164083 2.0604437,0.150829 1.7446873,1.098099 -0.1016151,0.304845 -0.1857034,0.307252 -0.3690707,0.01056 z M 12.028697,55.859323 C 11.775756,55.25395 11.006042,54.13795 10.318222,53.379323 8.9732807,51.895928 7.3667006,49.612789 6.7581153,48.319999 l -0.3766022,-0.8 0.5692435,0.8 c 0.3130838,0.44 1.4896863,1.861391 2.6146725,3.158649 1.1322419,1.305626 2.3102939,3.055718 2.6386959,3.92 0.672096,1.768813 0.528596,2.145641 -0.175428,0.460675 z M 5.6395323,46.547627 C 5.330739,45.742927 5.4218328,45.535291 5.7990632,46.183999 5.985844,46.505199 6.0712545,46.83541 5.9888645,46.9178 5.9064745,47.00019 5.749275,46.83361 5.6395323,46.547627 Z M 14.260177,35.273509 C 14.161079,35.174412 14.08,34.739701 14.08,34.307484 c 0,-0.664464 0.07461,-0.723923 0.483061,-0.384944 0.556415,0.461782 2.911177,0.251219 3.472949,-0.310551 0.197184,-0.197184 0.446577,-1.18055 0.554206,-2.185254 l 0.19569,-1.826736 0.04705,2.441178 c 0.046,2.386739 0.02742,2.448608 -0.832954,2.774358 -1.07897,0.408512 -3.493593,0.704205 -3.739822,0.457974 z m 3.8376,-7.291288 c -0.120475,-0.64219 -0.155047,-1.23162 -0.07682,-1.309842 0.07822,-0.07822 0.240793,0.383207 0.361269,1.025398 0.120475,0.642191 0.155047,1.23162 0.07682,1.309842 -0.07822,0.07822 -0.240793,-0.383207 -0.361269,-1.025398 z m -7.752053,0.01778 c 0.164366,-0.507538 1.711924,-0.568288 1.901355,-0.07464 0.123727,0.322428 -0.121567,0.433926 -0.918075,0.417311 -0.597801,-0.01247 -1.040278,-0.166673 -0.98328,-0.342673 z m 6.861368,-3.255711 c -0.807363,-2.254992 -1.656097,-3.481917 -3.164516,-4.574611 -1.249856,-0.905391 -1.284267,-0.969678 -0.519035,-0.969678 0.530633,0 1.130081,0.366647 1.700347,1.04 1.03927,1.22714 2.773126,4.898039 2.63353,5.575679 -0.05358,0.260094 -0.346227,-0.222031 -0.650326,-1.07139 z M 8.4799997,19.519999 c 0.1087741,-0.176 0.2612724,-0.32 0.3388855,-0.32 0.077613,0 0.1411145,0.144 0.1411145,0.32 0,0.176 -0.1524985,0.32 -0.3388854,0.32 -0.1863869,0 -0.2498886,-0.144 -0.1411146,-0.32 z m 1.7600003,-0.96 c 0,-0.176 0.351501,-0.32 0.781114,-0.32 0.429613,0 0.870112,0.144 0.978886,0.32 0.115384,0.186696 -0.210011,0.32 -0.781115,0.32 -0.538387,0 -0.978885,-0.144 -0.978885,-0.32 z"
       id="path7784"
       inkscape:connector-curvature="0" />
    <path
       style="fill:#060662;stroke-width:0.31999999"
       d="m 34.319999,75.905978 c -2.031715,-0.08234 -2.32,-0.169455 -2.32,-0.701113 0,-0.333904 0.144,-0.696093 0.32,-0.804867 0.176,-0.108775 0.32,-0.02742 0.32,0.180739 0,0.500794 3.599181,0.221718 3.770541,-0.292365 0.06754,-0.202605 0.254793,-0.368374 0.416124,-0.368374 0.349812,0 0.399306,1.838566 0.05333,1.981113 -0.132,0.05439 -1.284,0.05658 -2.56,0.0049 z m 7.424611,-0.150691 c -0.08541,-0.222588 0.150048,-4.074588 0.523254,-8.559999 0.373204,-4.485408 0.69961,-9.115271 0.725344,-10.288579 0.02573,-1.173309 0.165875,-2.252394 0.311421,-2.397965 0.145549,-0.145571 0.17081,2.542409 0.05614,5.973289 -0.147968,4.427133 -0.110096,6.098624 0.130467,5.757965 0.186429,-0.264 0.341168,-0.733955 0.343862,-1.044342 0.0026,-0.310388 0.142176,-0.814388 0.309962,-1.12 0.167782,-0.305613 0.527107,-1.635658 0.798499,-2.955658 0.271392,-1.32 0.778688,-3.624 1.127325,-5.12 0.348637,-1.496 0.637309,-3.264624 0.641498,-3.930278 0.0042,-0.665651 0.245532,-1.745651 0.536323,-2.4 0.679885,-1.52991 1.005328,-3.884662 1.358544,-9.829721 0.438038,-7.372787 0.649728,-8.723536 1.531347,-9.771283 0.423232,-0.502981 1.035638,-0.998976 1.360905,-1.102212 0.60912,-0.193327 0.89722,-0.787887 1.321152,-2.726505 0.134704,-0.616 0.409108,-1.764124 0.609783,-2.551386 0.464,-1.8203 0.212096,-2.026487 -3.109466,-2.545158 -1.364534,-0.213076 -2.761478,-0.443494 -3.10432,-0.512041 -0.342841,-0.06855 -0.809139,0.02956 -1.036214,0.218017 -0.491053,0.407538 -0.921008,-0.397311 -0.624717,-1.169432 0.156231,-0.407133 1.285395,-0.48 7.43824,-0.48 h 7.254051 l -0.199014,2.64 c -0.109456,1.452 -0.293844,4.116 -0.409751,5.92 l -0.210739,3.28 h -4.411398 c -5.055917,0 -5.401325,0.14871 -5.441741,2.342858 -0.03085,1.674726 -0.129187,2.824534 -0.415417,4.857142 -0.123924,0.88 -0.109056,1.770377 0.03304,1.978621 0.164077,0.240454 1.877987,0.462624 4.696691,0.608822 l 4.438339,0.230208 -0.21527,4.351174 c -0.118397,2.393146 -0.298227,4.819174 -0.399622,5.391174 l -0.184352,1.04 H 53.46555 c -2.758381,0 -4.231139,0.128455 -4.586099,0.4 -0.414454,0.31706 -0.597965,1.453399 -0.885005,5.480157 -0.216777,3.041062 -0.245584,5.196704 -0.07177,5.370518 0.159699,0.159699 2.490422,0.380672 5.179382,0.491053 l 4.889021,0.200688 -0.189988,1.788794 c -0.104492,0.983833 -0.283788,3.51679 -0.398435,5.62879 -0.114646,2.112 -0.338214,4.092 -0.496813,4.4 -0.261964,0.508739 -0.961964,0.56 -7.647145,0.56 -5.637497,0 -7.39511,-0.09467 -7.514086,-0.404711 z m 18.849804,-3.035289 c 0.116711,-1.892 0.352931,-5.312 0.524931,-7.6 0.347648,-4.624467 1.059504,-14.666521 1.780695,-25.119999 0.261062,-3.784 0.685241,-9.904 0.94262,-13.6 0.257383,-3.696 0.470074,-6.828 0.472653,-6.96 0.0026,-0.132 1.156685,-0.24 2.564685,-0.24 h 2.56 v 1.902571 c 0,1.046413 -0.140448,3.674413 -0.312106,5.839999 -0.17166,2.165587 -0.614185,8.40143 -0.983392,13.85743 -0.369206,5.456 -0.858265,12.439999 -1.086796,15.519999 -0.276487,3.726279 -0.309085,5.733837 -0.09743,6 0.226013,0.284215 1.557229,0.4 4.598903,0.4 4.214892,0 4.280819,0.01098 4.280819,0.713731 0,1.408163 -0.679027,11.301318 -0.824061,12.006269 l -0.148131,0.72 h -7.242797 -7.242796 z m 15.687596,2.165446 c 0.112093,-0.701005 1.050772,-3.977005 2.085946,-7.28 2.029242,-6.474809 4.818752,-15.768249 5.869024,-19.553026 l 0.651453,-2.347581 -0.665882,-3.732419 c -0.685936,-3.844838 -2.14856,-11.743846 -3.268617,-17.652419 -0.350317,-1.848 -0.636263,-3.761823 -0.635437,-4.252941 l 0.0016,-0.892942 2.638508,0.09294 2.638509,0.09294 1.032618,6.08 c 1.257721,7.405405 1.442819,8.243136 1.850365,8.374675 0.314211,0.101411 0.885055,-1.669475 3.215334,-9.974675 0.641968,-2.288 1.261142,-4.254766 1.375939,-4.370592 0.1148,-0.115826 1.468749,-0.259826 3.008771,-0.32 l 2.799949,-0.109408 -4.8e-5,1.402905 c -2.3e-5,0.771598 -0.568304,3.219598 -1.262839,5.44 -2.22998,7.129143 -5.331379,17.401287 -6.049663,20.037095 l -0.697626,2.56 0.81224,4.639999 c 1.86735,10.66745 3.675184,21.649251 3.676467,22.332941 0.0013,0.7123 -0.07298,0.730323 -2.638624,0.639999 l -2.64,-0.09294 -0.407465,-2.24 c -0.224106,-1.232 -0.800106,-4.539171 -1.28,-7.349267 -0.479895,-2.810099 -1.012935,-5.088899 -1.184535,-5.064 -0.321753,0.04668 -1.170272,2.507613 -2.404355,6.973267 -0.389101,1.408 -1.061811,3.748 -1.494915,5.2 l -0.787459,2.64 H 79.299735 76.078199 Z M 29.279999,52.479998 c 1.426955,-0.363097 2.975594,-0.363097 3.2,0 0.125254,0.202669 -0.601149,0.306119 -1.981114,0.282141 -1.6781,-0.02916 -1.958244,-0.09401 -1.218886,-0.282141 z m 14.331523,-1.12 c 0.0026,-0.88 0.06455,-1.202019 0.138102,-0.7156 0.07356,0.48642 0.07159,1.20642 -0.0044,1.6 -0.07596,0.393581 -0.136134,-0.0044 -0.133734,-0.8844 z m 0.309174,-4.799999 c 0.0036,-0.704 0.06909,-0.95432 0.145626,-0.556269 0.07654,0.398051 0.07364,0.974051 -0.0065,1.28 -0.08009,0.305949 -0.14272,-0.01974 -0.139168,-0.723731 z m -3.760697,-26.4 c -0.108775,-0.176 -0.729274,-0.330121 -1.378887,-0.342491 -0.951894,-0.01813 -1.056908,-0.07586 -0.541113,-0.297509 0.352,-0.151259 1.108,-0.285138 1.68,-0.297508 0.834163,-0.01804 1.04,0.104177 1.04,0.617508 0,0.674908 -0.465562,0.861132 -0.8,0.32 z m -4,-0.658885 c 0,-0.186387 0.144,-0.249889 0.32,-0.141115 0.176,0.108774 0.32,0.261273 0.32,0.338886 0,0.07761 -0.144,0.141114 -0.32,0.141114 -0.176,0 -0.32,-0.152498 -0.32,-0.338885 z"
       id="path7782"
       inkscape:connector-curvature="0" />
    <path
       style="fill:#030321;stroke-width:0.31999999"
       d="m 76.270215,75.758132 c -0.08266,-0.133027 9.6e-4,-0.709027 0.186023,-1.28 0.978547,-3.020544 2.666489,-8.54128 3.689884,-12.068463 0.636775,-2.194682 1.800071,-6.154682 2.585101,-8.8 0.785034,-2.645319 1.626205,-5.480499 1.869274,-6.3004 0.243065,-0.819904 0.387488,-1.827904 0.320934,-2.24 -0.06655,-0.412099 -0.487674,-2.76527 -0.935824,-5.22927 -0.44815,-2.464 -1.249686,-6.999462 -1.78119,-10.078803 -0.531507,-3.079342 -1.173616,-6.583991 -1.426909,-7.78811 -0.253296,-1.204119 -0.400966,-2.284657 -0.32816,-2.401197 0.07281,-0.116539 1.182902,-0.21189 2.46688,-0.21189 2.761376,0 2.337382,-0.858262 3.794038,7.68 0.540471,3.168 1.054506,6.084 1.142301,6.48 0.222573,1.003942 1.055347,0.900618 1.289581,-0.16 0.106889,-0.484 0.463699,-1.744 0.792908,-2.8 0.329213,-1.056 0.876688,-3 1.216612,-4.32 0.339926,-1.32 0.935884,-3.444 1.324355,-4.72 l 0.70631,-2.32 h 2.848832 2.848832 v 1.312892 c 0,0.722089 -0.574374,3.062089 -1.276387,5.199999 -0.702013,2.13791 -2.292205,7.271109 -3.533757,11.407109 -1.241555,4.136 -2.498307,8.298761 -2.792784,9.250585 l -0.535411,1.730583 1.730685,10.109417 c 0.951878,5.560176 1.983021,11.549414 2.291433,13.309414 0.877491,5.007555 1.031341,4.64 -1.942214,4.64 -2.139296,0 -2.565235,-0.08805 -2.708877,-0.56 -0.09374,-0.308 -0.685398,-3.643386 -1.314793,-7.411968 -0.629399,-3.768579 -1.223223,-6.979574 -1.319616,-7.135536 -0.230608,-0.373136 -1.078279,0.34081 -1.078279,0.908176 0,0.48361 -1.817532,7.001258 -3.15654,11.319328 l -0.84346,2.72 h -2.989743 c -1.644359,0 -3.057376,-0.108839 -3.140039,-0.241866 z M 63.119998,75.602395 c -1.810646,-0.08619 -2.32,-0.216887 -2.32,-0.595303 0,-0.266675 0.153677,-0.389888 0.341504,-0.273805 0.432074,0.267037 4.476797,-0.465043 5.039597,-0.912144 1.080803,-0.858617 1.980438,-4.067043 2.070774,-7.385135 0.02698,-0.990535 -0.141939,-1.384173 -0.829005,-1.932023 -0.474579,-0.378416 -0.86287,-0.934621 -0.86287,-1.236006 0,-0.491104 0.463046,-0.547981 4.461113,-0.547981 2.453613,0 4.525872,0.108 4.605018,0.24 0.07915,0.132 0.02378,1.68 -0.12305,3.44 -0.146825,1.76 -0.360521,4.604 -0.47488,6.32 l -0.207929,3.12 -4.690135,-0.06358 c -2.579577,-0.03497 -5.734137,-0.113277 -7.010137,-0.174019 z m -7.92,-24.079251 -1.28,-0.232326 1.52,-0.04541 c 0.836,-0.02496 1.592,-0.04541 1.68,-0.04541 0.088,0 0.167607,0.108 0.176903,0.24 0.02336,0.33161 -0.59329,0.356061 -2.096903,0.08315 z"
       id="path7780"
       inkscape:connector-curvature="0" />
  </g>
</svg>
