<?xml version="1.0" encoding="UTF-8" standalone="no"?>
<!-- Created with Inkscape (http://www.inkscape.org/) -->

<svg
   xmlns:dc="http://purl.org/dc/elements/1.1/"
   xmlns:cc="http://creativecommons.org/ns#"
   xmlns:rdf="http://www.w3.org/1999/02/22-rdf-syntax-ns#"
   xmlns:svg="http://www.w3.org/2000/svg"
   xmlns="http://www.w3.org/2000/svg"
   xmlns:sodipodi="http://sodipodi.sourceforge.net/DTD/sodipodi-0.dtd"
   xmlns:inkscape="http://www.inkscape.org/namespaces/inkscape"
   version="1.1"
   id="svg19443"
   width="20"
   height="20"
   viewBox="0 0 20 20"
   sodipodi:docname="task_refmac_20x20.svg"
   inkscape:version="0.92.2 5c3e80d, 2017-08-06">
  <metadata
     id="metadata19449">
    <rdf:RDF>
      <cc:Work
         rdf:about="">
        <dc:format>image/svg+xml</dc:format>
        <dc:type
           rdf:resource="http://purl.org/dc/dcmitype/StillImage" />
        <dc:title></dc:title>
      </cc:Work>
    </rdf:RDF>
  </metadata>
  <defs
     id="defs19447" />
  <sodipodi:namedview
     pagecolor="#ffffff"
     bordercolor="#666666"
     borderopacity="1"
     objecttolerance="10"
     gridtolerance="10"
     guidetolerance="10"
     inkscape:pageopacity="0"
     inkscape:pageshadow="2"
     inkscape:window-width="1440"
     inkscape:window-height="851"
     id="namedview19445"
     showgrid="false"
     inkscape:pagecheckerboard="true"
     inkscape:zoom="24.42689"
     inkscape:cx="18.09843"
     inkscape:cy="10.119144"
     inkscape:window-x="0"
     inkscape:window-y="1"
     inkscape:window-maximized="1"
     inkscape:current-layer="svg19443" />
  <g
     id="g19453"
     transform="matrix(0.03159781,0,0,0.03355554,0.09357243,0.06073297)">
    <path
       style="fill:#e3f3fd"
       d="M 131.43338,589.76418 C 125.44684,587.66643 122.14314,579.4424 111.04078,539 89.662448,461.12555 7.1484199,125.69024 1.4539576,93.508618 -1.3117909,77.878299 0.47799998,59.932443 5.8655986,49.274024 12.083447,36.973101 24.411939,22.734413 39.366072,10.582933 51.212725,0.95654112 55.256515,-0.48144137 68,0.40063281 73.225,0.76229507 85.15,1.4707073 94.5,1.9748823 108.50905,2.7302847 269.32735,20.028258 275.31497,21.423741 276.3132,21.656391 328.2477,48.993724 390.72496,82.17337 L 504.31999,142.5 l 54.03837,72 c 29.7211,39.6 57.72071,77.04144 62.22135,83.20319 l 8.18299,11.20319 1.26154,9.89919 c 1.28439,10.07845 0.85971,31.67069 -0.89157,45.33019 -1.37762,10.7451 -7.55871,22.27629 -16.83119,31.39957 -16.97062,16.69756 -16.92817,16.67303 -59.30148,34.26596 -82.48806,34.24811 -178.49474,73.40519 -256,104.4116 -93.08954,37.24099 -135.75965,53.39589 -145,54.89699 -9.36655,1.5216 -17.36531,1.77607 -20.56662,0.6543 z M 287.02002,112.48965 c 3.73912,-1.93358 5.3367,-4.95605 4.59083,-8.68541 -0.51914,-2.59571 0.0293,-3.52114 4.55063,-7.678506 4.78396,-4.398868 5.17273,-5.110692 5.59908,-10.251889 0.35113,-4.234274 -0.0132,-6.441527 -1.55962,-9.449325 C 291.68326,59.857851 261.59289,52.114919 242.33851,61.53521 228.66731,68.223904 227.2378,81.754595 239.07273,92.446741 243.17726,96.154943 254.43068,102 257.4655,102 c 0.83018,0 2.6051,1.73568 3.94427,3.85706 3.27994,5.19577 9.38973,8.14113 16.88989,8.14215 3.21859,4.4e-4 7.09948,-0.67137 8.72036,-1.50956 z"
       id="path19483"
       inkscape:connector-curvature="0" />
    <path
       style="fill:#dbf1fd"
       d="M 132.029,589.59447 C 126.30222,587.52653 123.98434,582.4028 115.47433,553 100.96857,502.88135 61.224771,343.77767 15.804882,154 -0.148319,87.342827 0.52683717,90.678052 0.52126831,78.5 0.51291975,60.243257 3.4156449,51.666772 14.749611,36.460477 24.692303,23.120795 44.948082,5.005183 53.94708,1.4044975 57.386784,0.02820084 59.953655,-0.15912883 67.833397,0.39107699 73.150029,0.7623127 83.8,1.4730677 91.5,1.9705326 106.06622,2.9115952 121.79829,4.5847988 218.44924,15.472373 l 57.94925,6.527888 111.10729,59.043113 c 61.10902,32.473716 112.53921,59.913906 114.28932,60.978216 2.01939,1.22806 24.61654,30.53346 61.84678,80.20675 32.26561,43.04941 60.14302,80.52166 61.94979,83.27166 2.53584,3.85968 3.52716,6.78399 4.34668,12.82236 2.33693,17.21876 0.43809,44.35962 -3.91181,55.91318 -1.18768,3.15455 -3.97785,8.45866 -6.20038,11.78693 -4.62639,6.92807 -23.66216,24.31669 -30.36739,27.73972 C 573.28059,422.02117 283.541,539.83465 209.5,568.26045 c -57.10322,21.92306 -67.73318,24.85034 -77.471,21.33402 z m 17.54286,-16.22738 c 6.28,-2.08085 6.87947,-2.67153 5.29167,-5.214 -1.15072,-1.84261 -0.35047,-4.4182 6.94171,-22.34171 4.53331,-11.14245 7.80889,-19.82079 7.27907,-19.28519 -0.52982,0.5356 -6.2958,10.64881 -12.81328,22.47381 -9.13812,16.57975 -12.2955,21.5 -13.79681,21.5 -2.2325,0 -2.11969,0.50697 -3.11516,-14 -0.71187,-10.3741 -0.79483,-10.68705 -1.45804,-5.5 -1.11988,8.75868 -0.99976,18.68919 0.2595,21.45295 1.39299,3.0573 4.25205,3.28633 11.41134,0.91414 z M 523.36133,196.25 c -7.01211,-9.78908 -7.49564,-10.17764 -3.4221,-2.75 2.5811,4.70635 7.17228,10.18615 8.76717,10.46404 0.11353,0.0198 -2.29176,-3.45154 -5.34507,-7.71404 z m -21.94905,-5.86592 C 499.98266,182.76359 491.0384,154.64166 489.80022,153.87427 489.0851,153.43105 440.74486,127.60422 382.37746,96.481304 L 276.25492,39.894182 235.87746,46.523667 c -22.2076,3.646216 -41.90428,6.942657 -43.77038,7.325423 l -3.39293,0.695939 15.89293,14.483006 c 28.25752,25.750703 44.72668,40.400845 52.49765,46.699305 l 7.60473,6.16373 118.39527,36.00092 c 65.1174,19.80051 118.52816,36.02502 118.69058,36.05447 0.16243,0.0294 -0.01,-1.57362 -0.38303,-3.56238 z M 213.99905,103.25 C 208.70435,97.220194 175.05199,65 174.04887,65 c -0.7218,0 -10.05234,19.277587 -11.42275,23.600246 -0.61899,1.952474 0.44372,2.436422 15.10402,6.878224 8.67342,2.627888 21.16986,6.47721 27.76986,8.55405 6.6,2.07684 12.15074,3.81914 12.33499,3.87178 0.18424,0.0526 -1.54193,-2.0418 -3.83594,-4.6543 z M 114,53.520398 C 245.35896,36.147786 249.59109,35.543397 245.5,34.740991 241.38848,33.934578 122.85844,20.870523 83.408793,16.875744 l -22.091206,-2.237016 -6.408794,4.915347 c -8.252205,6.329186 -20.608939,18.56222 -25.179882,24.927812 l -3.577346,4.981888 16.674218,5.223785 C 62.769384,60.935594 57.246986,61.026153 114,53.520398 Z"
       id="path19481"
       inkscape:connector-curvature="0" />
    <path
       style="fill:#d3eefd"
       d="M 132.05552,589.51739 C 127.19906,587.76345 124.05553,581.61378 118.50063,563 103.19021,511.69671 62.157412,347.46293 9.4437884,126.5 -1.024908,82.617723 -1.4466936,79.53427 1.1078316,65.560195 4.3364139,47.89881 17.987022,28.758282 40.236499,10.694996 52.551501,0.69703352 55.612953,-0.46896177 67.334837,0.37422859 72.375676,0.73683139 83.025,1.46191 91,1.9855144 c 7.975,0.5236045 52.91069,5.2551741 99.8571,10.5145996 l 85.35709,9.562591 113.64291,60.322517 113.6429,60.322518 47.71863,63.39613 c 26.24525,34.86787 54.34767,72.34925 62.44982,83.29196 l 14.73119,19.89583 1.24719,7.60417 c 1.67127,10.18978 1.64829,28.24368 -0.0523,41.12106 -2.47684,18.75489 -8.36497,29.13354 -24.74825,43.62229 -5.5107,4.87345 -11.2705,9.65454 -12.79956,10.62463 -3.07361,1.95002 -16.17474,7.48965 -79.04668,33.42378 -112.82984,46.54133 -250.87035,102.2168 -304.5,122.81307 -57.20335,21.96874 -66.6314,24.56077 -76.44448,21.01673 z M 149,573.79874 c 4.63009,-1.35151 7.68083,-3.33385 9.04051,-5.87443 1.00935,-1.886 0.92673,-1.97714 -0.90413,-0.9973 -1.10825,0.59312 -2.25008,0.69803 -2.53741,0.23313 -0.28732,-0.46489 3.52787,-10.87362 8.47819,-23.13049 4.95033,-12.25688 8.80405,-22.48177 8.56383,-22.72199 -0.24022,-0.24022 -5.95496,9.60479 -12.69944,21.87779 -14.28054,25.98647 -15.79562,28.36048 -17.20197,26.95413 -0.55799,-0.55799 -1.41926,-7.65926 -1.91394,-15.7806 -0.82985,-13.62406 -1.73738,-19.76217 -1.88889,-12.77565 -0.0348,1.60417 -0.41246,7.86667 -0.83927,13.91667 -0.75192,10.65848 -0.10744,16.50503 2.12091,19.24033 1.01462,1.24545 2.91619,1.0624 9.78161,-0.94159 z M 601.35087,300.75 C 599.25615,297.33692 584.17743,276.57437 564.857,250.5 525.29514,197.10827 513.9698,182 513.50861,182 c -0.88855,0 34.06063,72.72461 45.17346,94 3.30376,6.325 6.18933,12.04606 6.41238,12.71348 0.22305,0.66741 8.05555,3.52552 17.40555,6.35137 9.35,2.82584 17.4275,5.54227 17.95,6.03652 1.35567,1.28237 1.79773,1.10995 0.90087,-0.35137 z M 511.9963,270.50394 c 1.2897,-1.37283 2.15565,-2.64487 1.92431,-2.82676 C 513.68927,267.49528 499.325,262.48993 482,256.55416 464.675,250.6184 426.26844,237.26544 396.6521,226.88093 367.03575,216.49642 342.37172,208 341.84314,208 c -0.86981,0 4.82586,7.02659 12.65686,15.61442 2.83292,3.10671 7.20491,4.56871 78.5,26.25056 41.525,12.62834 75.75906,22.99986 76.07569,23.04782 0.31662,0.048 1.6309,-1.03603 2.92061,-2.40886 z M 520.5152,248.75 c -0.23212,-0.6875 -6.57258,-21.5 -14.0899,-46.25 -7.51733,-24.75 -14.06064,-45.75296 -14.54069,-46.67323 -1.16152,-2.22671 2.8429,-0.041 -113.07597,-61.718974 C 322.87839,64.348508 276.01767,40 274.67371,40 c -2.27136,0 -79.38421,12.350246 -84.46461,13.52769 -1.25999,0.292019 -2.0208,0.967971 -1.69068,1.502114 0.33012,0.534144 30.38602,28.039227 66.7909,61.122406 36.40487,33.08318 67.99122,61.86678 70.19188,63.96355 3.7619,3.5843 9.68288,5.7841 99,36.78109 52.24934,18.13284 95.32218,32.99902 95.71742,33.03597 0.39523,0.037 0.5287,-0.49532 0.29658,-1.18282 z M 304.4881,186.13915 C 301.74464,183.46568 275.65,158.84957 246.5,131.43669 217.35,104.02381 189.32047,77.63619 184.21215,72.797542 179.10384,67.958894 174.46951,64 173.91365,64 c -0.55586,0 -9.11475,16.5375 -19.01975,36.75 -26.03351,53.12486 -27.3948,56.14205 -25.60906,56.76002 0.66834,0.23129 13.81516,4.23564 29.21516,8.89856 l 28,8.47803 36,4.68734 c 19.8,2.57803 46.8,6.14592 60,7.92863 13.2,1.78272 24.66964,3.29893 25.4881,3.36937 0.81845,0.0704 -0.75655,-2.05933 -3.5,-4.7328 z M 30.540162,65.509584 C 36.568073,64.689855 88.525,57.702552 146,49.982243 203.475,42.261933 250.94898,35.807961 251.49773,35.640081 253.16062,35.131353 246.51366,34.306265 194.5,28.564943 103.95823,18.570849 69.743934,14.999918 64.587737,15.006059 59.672635,15.011913 59.155713,15.2996 49.353502,23.484486 34.788514,35.646312 25.000762,47.356834 19.467962,59.24094 16.701023,65.18415 16.425383,67 18.290162,67 c 0.709589,0 6.222089,-0.670687 12.25,-1.490416 z"
       id="path19479"
       inkscape:connector-curvature="0" />
    <path
       style="fill:#a7d9f5"
       d="M 132,589.20197 C 125.49812,586.04026 122.01724,576.26941 105.92168,516 90.510532,458.29334 55.524716,317.23911 26.055713,194 18.888074,164.025 10.261009,128.25 6.8844555,114.5 -0.126763,85.948916 -1.0769363,77.500048 1.3847173,65.596752 3.331575,56.182745 5.4018138,51.320755 11.433871,41.996148 19.560969,29.43294 42.742796,7.232835 53.425248,1.7830547 57.78378,-0.4405023 56.044313,-0.44937417 88.132679,1.9600744 99.993428,2.8506734 236.22474,17.748949 265.85862,21.396208 l 10.69834,1.316724 112.47152,59.755616 c 61.85934,32.865592 113.33127,60.492682 114.38208,61.393532 2.1173,1.81515 116.96017,154.68172 122.18244,162.63621 3.87464,5.90181 5.42524,14.79356 5.37529,30.82407 -0.0634,20.34506 -3.79749,36.31751 -11.17759,47.81165 -3.96151,6.16985 -24.03842,24.90887 -29.91334,27.91996 -18.66845,9.56821 -334.73445,137.6104 -400.37736,162.19775 -42.49948,15.91869 -49.80643,17.69145 -57.5,13.95025 z m 17.57186,-14.84012 c 2.71048,-0.90098 5.78455,-2.36348 6.83128,-3.25 2.2762,-1.92781 9.69016,-13.35188 9.06851,-13.97354 -0.23973,-0.23972 -2.19905,1.54359 -4.35406,3.96292 -2.15501,2.41932 -4.20925,4.11508 -4.56498,3.76834 -0.35574,-0.34673 4.35728,-12.87635 10.47336,-27.8436 6.11609,-14.96724 10.89477,-27.43857 10.61928,-27.71405 -0.73232,-0.73233 -3.83102,4.51275 -18.12998,30.68808 -7.06062,12.925 -13.75348,24.81873 -14.87302,26.43052 l -2.03552,2.93052 -0.667,-2.494 c -0.36685,-1.37169 -0.98803,-9.89043 -1.38042,-18.93051 -0.39238,-9.04009 -0.98936,-17.56153 -1.32663,-18.93653 -0.57785,-2.3558 -0.65706,-2.29812 -1.37323,1 -0.418,1.925 -1.07291,11.60813 -1.45535,21.51806 -0.96366,24.97075 0.27975,27.12785 13.16776,22.84379 z M 610.68355,371.93203 c 5.60449,-11.32332 7.56446,-28.06466 5.65413,-48.29558 l -0.6481,-6.86354 -34.49172,-46.13646 c -18.97045,-25.37505 -42.84488,-57.32861 -53.0543,-71.00792 -10.20942,-13.67931 -18.70722,-24.43756 -18.884,-23.90722 -0.17678,0.53035 12.66396,28.14751 28.53497,61.37148 15.87102,33.22396 37.58507,78.74883 48.25345,101.16637 10.66838,22.41754 19.85942,40.61196 20.42454,40.43204 0.56511,-0.17992 2.46008,-3.22155 4.21103,-6.75917 z M 483.60189,306 c 24.94741,-27.89534 34.07429,-38.73577 33.13498,-39.35597 -2.73342,-1.80477 -179.25353,-62.28891 -179.55768,-61.52496 -0.54067,1.35802 109.2298,139.847 110.65606,139.60628 C 448.56964,344.60141 464.66463,327.175 483.60189,306 Z M 523,251.74099 c 0,-1.47621 -29.98114,-97.10089 -30.6276,-97.68657 -1.61744,-1.46537 -212.84024,-113.450716 -216.1019,-114.572129 -2.71498,-0.933457 -10.113,0.02415 -46.43566,6.010671 -23.76339,3.916565 -43.36679,7.602893 -43.56311,8.19184 -0.19631,0.588947 22.02392,21.488299 49.37831,46.443008 27.35438,24.9547 58.98605,53.85903 70.2926,64.23184 11.30655,10.37281 21.68236,19.53658 23.05736,20.36393 2.56817,1.5453 190.5026,67.06845 192.75,67.20209 0.6875,0.0409 1.25,-0.0422 1.25,-0.18468 z M 311.77125,191.75 C 311.428,190.6649 201.00615,86.249226 181.292,68.367914 c -3.9644,-3.595827 -7.69489,-6.23695 -8.28998,-5.869163 -1.41649,0.875442 -53.26823,104.568369 -52.61577,105.220839 0.34463,0.34462 173.68855,23.2078 190.94708,25.18494 0.45834,0.0525 0.6554,-0.46703 0.43792,-1.15453 z M 81,60.042508 C 206.95784,43.101651 253.23728,37 255.77142,37 c 1.91167,0 2.32857,-0.300006 1.5286,-1.099982 C 256.34288,34.942878 131.36568,20.536864 79.348868,15.38774 L 61.197736,13.590967 56.933847,16.545484 C 44.485951,25.17083 28.311785,41.641601 22.272471,51.842489 c -3.404659,5.750744 -7.268949,15.354192 -6.608384,16.42301 0.289473,0.468376 1.720973,0.61038 3.181113,0.315564 C 20.30534,68.286247 48.275,64.443898 81,60.042508 Z"
       id="path19477"
       inkscape:connector-curvature="0" />
    <path
       style="fill:#91d0f5"
       d="m 134.02056,589.94147 c -3.56416,-1.50472 -5.96395,-3.91357 -8.13327,-8.16398 C 118.26304,566.83906 75.26874,398.11556 18.484374,160.29375 10.577927,127.18031 3.3674737,97.930311 2.4611448,95.293749 -1.2638361,84.45757 -0.38358034,68.099158 4.5936191,55.664479 8.1838184,46.694982 17.517916,33.468916 26.957934,23.975085 37.83141,13.039624 53.079384,1.2633348 57.419388,0.449145 59.242574,0.10711328 69.006561,0.56276274 79.117136,1.4616994 100.81464,3.3908363 266.45997,21.685204 273,22.874705 c 2.99279,0.544328 42.3475,20.950525 117.49922,60.925665 l 112.99922,60.1072 58.75034,78.29622 c 32.31269,43.06291 60.36933,80.64271 62.34808,83.51066 4.48123,6.49498 5.27117,9.73647 6.0609,24.87091 1.10245,21.12718 -2.53416,39.86485 -10.17963,52.45065 -4.53317,7.46239 -23.48206,25.7656 -30.47813,29.43957 -8.49453,4.46089 -192.63481,79.91316 -294,120.46775 -101.54913,40.62819 -144.51253,56.62658 -154.64461,57.58542 -2.67047,0.25272 -5.97114,-0.0116 -7.33483,-0.58728 z m 15.38401,-14.98471 c 4.42957,-1.36815 7.68577,-3.13684 9.85534,-5.35317 4.29619,-4.3888 14.05322,-20.18601 13.47512,-21.81703 -0.27729,-0.78234 -2.85389,1.26086 -6.57446,5.21344 -3.36516,3.575 -6.12794,6.16228 -6.13952,5.74951 -0.0116,-0.41276 5.15395,-13.40819 11.47895,-28.87873 6.325,-15.47054 11.48578,-29.08282 11.4684,-30.24952 -0.0302,-2.03009 -0.12956,-2.01013 -2.31067,0.46439 -1.25348,1.4221 -9.85141,16.39646 -19.10651,33.27634 -9.25509,16.87988 -17.21529,30.9304 -17.68933,31.22337 -0.47404,0.29297 -0.87791,-0.0564 -0.89748,-0.77634 -0.0196,-0.71996 -0.63912,-11.80607 -1.37677,-24.63579 -1.21545,-21.13992 -2.20374,-27.22144 -3.9615,-24.37733 -1.18078,1.91054 -3.4349,45.67683 -2.61144,50.7041 1.37322,8.38364 2.9998,11.5 6.00241,11.5 0.97472,0 4.74908,-0.91946 8.38746,-2.04324 z M 567,395.36204 c -13.42863,-2.96903 -44.21523,-8.35896 -47.29708,-8.28047 l -3.20292,0.0816 3,1.31708 c 2.60824,1.14509 23.32706,4.8121 42,7.43356 9.5006,1.33377 12.61493,1.02135 5.5,-0.55175 z m 42.4541,-19.11331 c 6.20382,-9.37461 9.19337,-25.79819 8.1455,-44.74873 -0.46088,-8.33513 -1.19852,-13.06892 -2.41528,-15.5 -1.83158,-3.65951 -104.22371,-140.77981 -108.13884,-144.81612 -1.23562,-1.27386 -2.42645,-2.13625 -2.64628,-1.91641 -0.21983,0.21983 7.96952,17.68708 18.19856,38.81611 16.65888,34.41046 61.33029,127.67962 76.47247,159.66642 3.18946,6.7375 6.27205,12.25 6.8502,12.25 0.57816,0 2.16831,-1.68807 3.53367,-3.75127 z m -148.32594,-43.5913 c 6.39548,-7.23659 22.048,-24.81237 34.78338,-39.0573 12.73537,-14.24492 23.00884,-26.339 22.82993,-26.87573 -0.26618,-0.79852 -174.05199,-61.47704 -181.49147,-63.36901 -1.38214,-0.3515 -2.25,-0.11864 -2.25,0.60372 0,0.99003 23.07422,30.44862 101.23449,129.24491 6.36929,8.05093 11.34154,13.47854 12.05355,13.15743 0.66658,-0.30063 6.44463,-6.46743 12.84012,-13.70402 z M 206,255.63289 c 0,-0.20192 -1.9125,-1.61829 -4.25,-3.14749 C 195.08215,248.12325 167.76523,227.60939 154,216.62716 127.42076,195.42159 93.856482,166.71295 43.624458,122.21927 31.031475,111.06487 20.560195,102.10647 20.354949,102.31172 c -0.205247,0.20524 1.046636,6.26949 2.78196,13.47611 l 3.155136,13.10293 14.603977,13.40391 c 15.682246,14.39358 29.660306,26.74709 34.775263,30.73365 1.744207,1.35943 8.269207,6.97199 14.5,12.47236 18.398815,16.24197 42.772885,36.04138 56.328715,45.75664 4.4,3.15341 9.8,7.07773 12,8.72071 2.84437,2.1242 10.06707,4.85275 25,9.44435 21.17773,6.51176 22.5,6.87674 22.5,6.21051 z m 318,-3.41565 c 0,-0.43052 -4.89179,-16.96802 -10.87065,-36.75 C 507.15049,195.68526 500.82494,174.55 499.07258,168.5 497.32021,162.45 495.12451,156.51848 494.19323,155.31885 492.91569,153.67318 341.09828,72.131079 283.17391,41.979024 277.58323,39.068842 272.64957,37.442897 265,35.989594 255.35562,34.157309 130.59428,19.868586 81.647285,14.990493 L 60.794569,12.912296 53.191823,18.634582 C 36.96479,30.848028 21.994465,48.32894 17.076003,60.807178 15.068574,65.900067 14.396276,70 15.568583,70 15.881304,70 34.725383,67.531011 57.444315,64.513359 112.94005,57.142112 160.82651,51.139245 169.98923,50.405152 177.96008,49.766548 183,50.918167 183,53.37811 c 0,0.785186 9.5625,9.947626 21.25,20.360977 21.56617,19.215068 44.53782,39.970373 95.95029,86.692823 l 28.53496,25.93191 95.88238,33.26007 c 52.7353,18.29304 96.66987,33.28618 97.63237,33.31809 0.9625,0.0319 1.75,-0.29422 1.75,-0.72474 z m -209.58593,-59.0782 c 0.29266,-0.47353 -4.95155,-5.98603 -11.6538,-12.25 C 271.39865,151.57824 215.43814,98.7015 196.26823,80.265384 183.50115,67.986997 174.40916,59.976632 173.463,60.173165 c -1.64671,0.342049 -55.25669,107.366475 -54.27371,108.349455 0.48207,0.48208 187.30503,25.09896 192.50169,25.36515 1.20504,0.0617 2.43043,-0.2752 2.72309,-0.74873 z"
       id="path19475"
       inkscape:connector-curvature="0" />
    <path
       style="fill:#77cafa"
       d="M 133,589.20635 C 127.08336,585.96986 124.03287,578.62294 114.64523,545 98.534594,487.29787 55.507561,314.31557 17.51358,154.5 10.583564,125.35 3.9982507,98.810293 2.8795514,95.522874 -2.8746009,78.613674 0.47500094,60.112735 12.600137,41.832925 20.809309,29.456808 37.379533,13.331244 52,3.4903533 l 5.5,-3.70199505 9,0.69308696 C 76.770154,1.2723463 138.92163,7.9737608 220,17.032413 l 55.5,6.200856 113,59.990163 c 62.15,32.994588 113.6372,60.504608 114.41599,61.133368 2.1107,1.70407 120.53657,159.85293 123.54134,164.98017 6.81979,11.63711 5.52343,47.56377 -2.38113,65.98924 -3.74575,8.7313 -9.18241,15.63095 -19.95359,25.32306 C 591.65556,411.86736 592.54495,411.41095 544,431.50293 369.33266,503.79497 201.6206,570.86469 160.5,584.86839 c -18.38339,6.2605 -22.73151,6.94639 -27.5,4.33796 z m 17.24444,-14.11843 c 3.05665,-1.05164 6.6146,-2.59576 7.90655,-3.43139 1.29196,-0.83562 13.14901,-5.55447 26.34901,-10.48632 22.45401,-8.38938 70.92322,-27.30998 87.23207,-34.05219 7.01727,-2.901 79.21098,-45.72806 139.32711,-82.65222 C 443.66301,424.44008 452.04957,419 450.31788,419 447.59203,419 367.22719,451.73933 256.59894,497.91795 227.50336,510.06308 202.86586,520 201.84894,520 c -4.02671,0 -2.73293,-1.6175 20.88447,-26.10992 C 227.83003,488.60462 232,484.06949 232,483.812 c 0,-0.46685 23.58842,-115.24664 26.31805,-128.062 0.79076,-3.7125 1.11001,-6.75 0.70946,-6.75 -0.40055,0 -11.22043,10.9125 -24.0442,24.25 -12.82376,13.3375 -34.25198,35.54028 -47.61828,49.33951 l -24.30235,25.08951 -4.6156,21.90956 c -4.74025,22.50123 -5.79716,25.58169 -7.96393,23.21161 C 149.8294,492.08508 146.72408,478.9 143.58244,463.5 128.63965,390.25176 101.77515,263.14282 95.975818,238.25 94.790572,233.1625 93.384031,229 92.850172,229 c -0.972333,0 -0.915342,2.05724 1.218925,44 1.648655,32.39949 9.585063,163.99115 10.494083,174 0.58945,6.49008 14.07821,60.32314 23.33991,93.14855 2.69265,9.5433 5.60974,20.85685 6.48242,25.14123 0.87269,4.28438 2.05879,8.67188 2.63578,9.75 1.36321,2.54719 5.91143,2.56375 13.22315,0.0481 z M 591.49168,393.53603 c 3.29543,-2.9623 5.68578,-5.6919 5.3119,-6.06578 -0.37387,-0.37388 -11.17013,-2.43678 -23.99168,-4.58424 C 478.28327,367.05362 394.75297,345.67504 334.14344,321.80167 302.25866,309.24264 243.76493,277.2116 202.5,249.71403 161.94357,222.68857 121.26508,189.4155 35.469282,113.09087 24.508758,103.3403 19.397501,99.378717 19.173205,100.46026 c -0.179737,0.86668 1.137454,7.68597 2.927091,15.15398 l 3.253887,13.57819 20.072908,18.25433 c 38.672992,35.16927 55.381519,49.783 79.072909,69.15933 45.77511,37.43781 91.44834,68.83542 123.5,84.89886 60.05562,30.09828 154.73712,62.33007 235,79.99949 9.075,1.9978 22.125,4.91293 29,6.47805 6.875,1.56513 15.10789,3.37048 18.29532,4.0119 11.29858,2.27367 44.28541,6.84292 49.70468,6.88497 5.26737,0.0409 5.75343,-0.18514 11.49168,-5.34333 z M 609.81796,376.25 c 1.66455,-2.6125 4.06786,-7.675 5.3407,-11.25 2.12292,-5.96259 2.31537,-8.15358 2.3278,-26.5 0.0103,-15.14815 -0.31992,-20.58636 -1.36105,-22.41705 -0.75602,-1.32938 -24.78135,-33.72938 -53.38962,-72 C 516.01398,181.58098 504.53968,166.67638 494.5,155.44771 492.3101,152.99846 464.22648,137.60254 390.5,98.433145 261.97669,30.151288 276.56136,37.372814 262.36583,34.988155 251.11179,33.097625 102.65299,16.451382 73.825075,13.847641 L 60.269791,12.623326 51.884896,19.183608 C 40.465118,28.11836 27.394636,41.947503 21.813937,51 c -5.520709,8.955187 -8.753825,17.460112 -7.220343,18.993594 0.726444,0.726444 8.489553,0.126779 25.475619,-1.967876 13.436933,-1.656989 25.890002,-3.015636 27.673488,-3.019213 2.435453,-0.0049 85.523609,24.350093 87.044519,25.514678 0.55142,0.422224 -7.6852,18.199857 -22.09153,47.681627 -10.49419,21.47579 -14.19323,29.9628 -13.35501,30.64146 1.02374,0.82888 182.1647,24.79901 192.05037,25.41376 2.14008,0.13308 4.05868,-0.22635 4.26357,-0.79873 0.20488,-0.57239 -13.92109,-14.60592 -31.39105,-31.18563 C 246.54303,126.47535 236.05922,116 237.95251,116 c 0.77308,0 4.54361,1.01066 8.37896,2.24592 8.07065,2.59933 12.70862,6.34624 54.3368,43.8975 13.84255,12.48686 26.21755,23.37863 27.5,24.20393 3.87228,2.49196 193.97986,67.80978 195.57684,67.19697 0.84247,-0.32329 1.26399,-1.31843 0.97699,-2.30647 -8.40542,-28.93639 -13.65051,-47.39935 -14.17983,-49.91363 l -0.66858,-3.17578 3.65693,1.12234 c 3.58547,1.10041 3.98317,1.77797 20.35318,34.67578 14.55966,29.25966 25.53558,51.96873 62.97923,130.30344 4.40354,9.2125 8.43889,16.75 8.96746,16.75 0.52856,0 2.32292,-2.1375 3.98747,-4.75 z m -149.18417,-42.5 c 6.50801,-7.2875 21.9299,-24.5 34.27088,-38.25 27.91821,-31.10575 25.63772,-28.35761 24.48701,-29.50832 -1.69069,-1.69069 -183.62284,-64.11695 -185.15072,-63.53065 -1.25218,0.48051 -1.26762,0.84917 -0.10477,2.50189 6.43269,9.14258 112.63317,142.01787 113.51434,142.0262 0.63279,0.006 6.47525,-5.95162 12.98326,-13.23912 z M 72.992891,205.25 C 72.988981,197.1375 72.69551,187.575 72.340734,184 l -0.645047,-6.5 -20.43857,-15.82594 c -11.241213,-8.70427 -20.64349,-15.62102 -20.893949,-15.37056 -0.41945,0.41945 13.420324,56.23233 15.697392,63.30426 0.939949,2.91922 1.711671,3.32496 12.720049,6.68778 6.445665,1.96901 12.281891,3.60802 12.969391,3.64224 0.946619,0.0471 1.248275,-3.51767 1.242891,-14.68778 z"
       id="path19473"
       inkscape:connector-curvature="0" />
    <path
       style="fill:#68c6fc"
       d="M 135.39749,590.31359 C 131.88207,589.62131 127.23118,583.85885 124.65208,577 114.34835,549.59836 64.351947,351.40549 12.017372,130.5 8.1083679,114 3.9539411,98.025 2.7853126,95 -0.12793102,87.459056 -0.3270356,70.971066 2.3988891,63 8.6825976,44.62537 21.3684,27.884056 40.915819,12.169629 56.982692,-0.74674036 56.203696,-0.43571166 69.319561,0.82889802 86.902708,2.5242356 160.26256,10.584371 221,17.494211 l 55.5,6.313999 113.29204,60.271775 113.29203,60.271775 59.26713,79.07412 c 32.59693,43.49077 60.67325,81.09912 62.39182,83.57412 4.76511,6.86245 5.65213,11.56474 5.65902,30 0.006,14.86257 -0.26296,17.47936 -2.70583,26.36879 -4.97936,18.11957 -11.7546,27.63818 -30.69621,43.12548 -6.97624,5.704 -9.63265,6.89417 -81.5,36.51479 -187.20477,77.15772 -324.36754,131.70961 -361.70742,143.85698 -12.34565,4.01627 -13.9655,4.31986 -18.39509,3.44755 z M 150.5,575.27894 c 2.75,-0.84897 5.48732,-1.92674 6.08293,-2.39504 0.59561,-0.46831 11.17061,-4.6345 23.5,-9.25819 24.30858,-9.11606 53.31759,-20.38366 80.91707,-31.4296 16.03032,-6.41569 21.06922,-9.14116 60,-32.45307 81.54665,-48.83049 129.72468,-78.50144 132.08588,-81.34652 1.26479,-1.52397 1.16026,-1.61157 -1.09372,-0.91655 -11.36664,3.5049 -157.49281,63.38902 -238.9618,97.92918 -9.22401,3.91068 -11.34795,4.33714 -10.85368,2.17931 0.17782,-0.77634 7.1208,-8.57172 15.42883,-17.32305 12.64418,-13.31885 15.2224,-16.55138 15.82282,-19.83846 1.44015,-7.88422 26.61827,-129.9789 27.15416,-131.67695 0.30376,-0.9625 0.14343,-1.75 -0.35628,-1.75 -0.86443,0 -96.00788,98.08652 -97.38379,100.39616 -0.36167,0.60711 -2.49865,9.87884 -4.74884,20.60384 -2.25019,10.725 -4.32535,20.5125 -4.61147,21.75 -0.99168,4.28914 -3.2899,2.50057 -4.49731,-3.5 C 145.81218,470.48284 125.88359,374.57997 116.51609,330 102.77099,264.58701 95.127207,230.24032 93.4824,226.5 c -2.828534,-6.43213 -1.83167,22.87135 4.014198,118 0.811169,13.2 2.638542,42.9 4.060822,66 l 2.58598,42 6.50469,25.5 c 3.57757,14.025 9.22981,35.4 12.56053,47.5 5.67772,20.62636 10.67983,39.41758 12.18513,45.77544 0.36142,1.52649 1.55253,3.67084 2.64692,4.76523 2.14131,2.14131 3.28145,2.07161 12.45933,-0.76173 z M 384,479.92267 c 54.7711,-21.58969 181.8474,-72.3177 184,-73.45158 3.15394,-1.66133 2.94869,-1.73035 -13.33173,-4.48314 -7.05745,-1.19331 -18.98245,-3.69797 -26.5,-5.56591 -7.51755,-1.86794 -14.28688,-3.40205 -15.04297,-3.40914 -0.75608,-0.007 -13.13108,7.50057 -27.5,16.68369 -14.36891,9.18313 -39.8503,25.34218 -56.6253,35.90899 -16.775,10.56682 -32.85107,20.89084 -35.7246,22.94226 -2.87353,2.05143 -10.97353,7.31709 -18,11.70147 -7.02647,4.38438 -12.1004,7.74527 -11.2754,7.46864 0.825,-0.27662 9.825,-3.7845 20,-7.79528 z M 151.56774,425.34333 c 0.78159,-3.76383 4.99299,-23.93643 9.35866,-44.828 4.36568,-20.89156 7.79178,-38.13048 7.61356,-38.3087 -0.73907,-0.73907 -22.54002,67.88268 -22.54074,70.95032 -9.1e-4,3.92601 3.0857,20.09147 3.7159,19.46126 0.23735,-0.23735 1.07103,-3.51104 1.85262,-7.27488 z M 591.25869,394.28798 C 597.2891,388.76896 599.25042,386 597.12925,386 594.0736,386 543.68738,377.11498 520.02747,372.40401 432.18836,354.91417 361.9211,334.4001 313.27317,312.04342 293.86836,303.12574 247.9829,277.70905 221.5,261.2088 190.0638,241.62239 159.5491,218.87483 120.01188,185.55324 84.847974,155.91743 21,98.722162 21,96.858001 c 0,-0.546027 0.7875,-0.762 1.75,-0.479941 3.09612,0.907314 91.40333,27.6415 101.59061,30.75561 11.79772,3.6064 11.70053,1.54491 1.11376,23.62564 -4.0999,8.55112 -7.45437,16.35807 -7.45437,17.34878 0,2.2748 -6.36374,1.26906 75.5,11.93225 37.95,4.94319 80.66908,10.57317 94.9313,12.51106 14.26221,1.93789 26.52471,3.29572 27.25,3.0174 2.22909,-0.85538 1.46914,-4.05049 -1.6813,-7.0688 -3.7299,-3.57347 -3.80385,-4.72585 -0.25,-3.89582 4.75417,1.11039 54.03234,17.71965 132.09947,44.5243 C 487.29168,243.35781 522.25066,255 523.53611,255 c 1.83265,0 2.40482,-0.61831 2.65053,-2.86429 l 0.31336,-2.86429 7.38308,2.18605 c 4.08099,1.20834 8.03289,3.04846 8.83596,4.11429 2.12909,2.82571 21.24686,41.33019 42.78814,86.17824 10.36884,21.5875 19.37678,39.25 20.01764,39.25 1.69654,0 3.89306,-2.79333 6.8735,-8.74107 4.38201,-8.74472 5.9323,-17.25173 5.96989,-32.75893 0.0575,-23.73114 5.98793,-13.59172 -56.89646,-97.27766 -61.75388,-82.18147 -66.09621,-87.76966 -70.13441,-90.2566 C 486.79747,149.16983 280.91821,39.864249 276.48845,37.897993 270.52679,35.251764 259.81346,33.83508 175.5,24.543722 70.163488,12.93562 70.781797,13 64.632992,13 59.747602,13 58.623421,13.435947 53.839798,17.185504 36.378721,30.872052 24.680567,43.968718 17.952297,57.363347 l -3.949847,7.863348 0.397988,10.264592 c 0.292053,7.532412 0.947922,11.507811 2.464051,14.935272 1.221291,2.760931 1.853416,5.775221 1.54599,7.37206 -0.28604,1.48576 1.043624,9.142121 2.954809,17.014141 l 3.474881,14.31275 8.329916,7.77575 c 11.898558,11.10698 30.882738,28.19049 41.079915,36.96706 4.8125,4.14205 8.75,7.85538 8.75,8.25184 0,1.92063 53.33251,45.55624 81,66.27261 49.71746,37.22657 85.08062,56.98214 143.12821,79.95837 58.6157,23.20109 136.1455,46.40217 190.87179,57.11908 7.425,1.45402 15.75,3.28041 18.5,4.05865 9.41912,2.66556 56.24506,10.11031 65.25869,10.37532 2.63557,0.0775 4.45212,-0.99642 9.5,-5.61621 z M 463.05021,331.7946 C 470.9976,322.88163 487.2875,304.82433 499.25,291.66727 511.2125,278.5102 521,267.17577 521,266.47965 c 0,-0.69612 -0.7875,-1.5864 -1.75,-1.9784 C 509.81254,260.65764 336.09203,201 334.33704,201 332.93025,201 332,201.59483 332,202.49437 c 0,0.82191 10.04427,13.98441 22.32059,29.25 12.27633,15.2656 37.09018,46.43063 55.14189,69.25563 32.53648,41.13986 37.3399,47 38.52482,47 0.33722,0 7.11553,-7.29243 15.06291,-16.2054 z M 77.526554,298.94454 C 76.746824,275.05004 75.611908,238.85 75.004519,218.5 74.39713,198.15 73.70403,180.54714 73.464298,179.38253 c -0.255025,-1.2389 -4.487232,-5.15107 -10.200088,-9.42878 -5.370316,-4.02121 -15.091273,-11.54128 -21.602129,-16.71127 -6.510855,-5.16999 -12.058068,-9.17983 -12.32714,-8.91075 -0.620422,0.62042 10.109437,44.75245 31.708876,130.41895 C 70.369718,311.73855 78,342.30105 78,342.66734 c 0,0.3663 0.212455,0.45354 0.472123,0.19387 0.259668,-0.25967 -0.165838,-20.02217 -0.945569,-43.91667 z"
       id="path19471"
       inkscape:connector-curvature="0" />
    <path
       style="fill:#59c1fd"
       d="m 135.5,590.28417 c -4.98058,-1.20488 -8.65947,-6.83571 -12.93799,-19.80268 C 110.93095,535.23116 61.69387,339.14408 13.35802,135.57577 8.6536645,115.76319 3.8564323,97.065993 2.6975044,94.026447 -0.51142811,85.610308 -0.23912309,70.991081 3.3102669,61.12909 10.408885,41.405559 24.338334,24.56954 48.716579,6.2481323 L 56.364974,0.5 63.932487,0.67804321 C 68.094619,0.77596698 75.775,1.3726882 81,2.0040904 86.225,2.6354926 132.16942,7.7703698 183.09872,13.414929 L 275.69744,23.677763 389.41152,84.088881 503.1256,144.5 l 61.42966,81.97423 c 33.78632,45.08583 62.13129,83.4528 62.98884,85.25994 3.50681,7.39005 4.27338,33.56539 1.35068,46.12007 -2.36822,10.17285 -6.20701,20.31863 -9.77618,25.83804 -3.73968,5.78311 -19.13778,20.97001 -26.28008,25.91963 -4.20969,2.91731 -16.41224,8.12168 -92.33852,39.38224 C 286.54862,537.08274 148.17028,591.44573 139.32634,590.884 138.32185,590.8202 136.6,590.55027 135.5,590.28417 Z m 18,-15.95345 c 3.3,-1.36052 12.3,-4.86618 20,-7.79034 34.77647,-13.20677 44.79281,-17.0775 72.13529,-27.87607 16.02441,-6.32864 30.93241,-12.42345 33.1289,-13.54401 C 289.84554,519.46702 430.35974,434.41792 448,422.68686 c 8.97579,-5.96905 8.46222,-5.55798 7.7872,-6.23299 -1.30814,-1.30815 -54.5003,20.04427 -175.93143,70.62246 C 237.70144,504.63435 202.93894,519 202.60577,519 c -2.03873,0 0.72279,-3.55657 11.14423,-14.35269 6.4625,-6.69484 13.40819,-13.96678 15.43487,-16.15987 L 232.86975,484.5 245.98418,421 c 7.21294,-34.925 13.60652,-65.87322 14.20797,-68.77383 0.60144,-2.9006 0.77148,-5.59587 0.37788,-5.98948 -0.39361,-0.3936 -3.02811,1.75462 -5.85446,4.77383 -2.82634,3.01922 -22.25946,23.26448 -43.18471,44.98948 -20.92526,21.725 -40.64916,42.26074 -43.83091,45.63499 l -5.78498,6.13498 -4.47633,21.30053 c -2.46198,11.71528 -4.66291,21.4871 -4.89095,21.71514 -0.89217,0.89217 -2.42124,-0.94188 -2.95728,-3.54711 C 118.23026,334.82166 96.268492,231.46659 93.941004,225.34483 93.450678,224.05517 92.518948,223 91.870494,223 c -1.923523,0 -0.71668,24.9098 8.623836,178 1.35907,22.275 2.73695,43.2 3.06196,46.5 0.64112,6.50965 10.91912,47.8466 20.63708,83 3.34498,12.1 7.40035,26.94824 9.01193,32.9961 1.61159,6.04785 3.66622,11.80944 4.56586,12.80353 2.03776,2.25169 6.99753,1.63084 15.72884,-1.96891 z M 436.84298,460.38588 c 81.60666,-32.9589 103.17564,-41.72293 126.90702,-51.56556 3.9875,-1.65383 7.25,-3.32232 7.25,-3.70777 0,-0.38545 -6.99732,-1.95058 -15.54961,-3.47807 -8.55228,-1.52749 -21.64585,-4.31264 -29.0968,-6.18924 -10.93021,-2.75288 -13.96315,-3.19221 -15.7004,-2.27427 -1.18425,0.62574 -17.67819,10.9163 -36.65319,22.86791 -18.975,11.95161 -52.275,32.77716 -74,46.279 -52.28288,32.49321 -55.64325,34.62385 -54.65702,34.65527 0.46364,0.0148 41.63864,-16.4495 91.5,-36.58727 z M 153.39622,420 c 1.49733,-7.425 6.10611,-29.62712 10.24173,-49.33804 4.13562,-19.71092 7.29563,-36.06172 7.02224,-36.3351 -0.27338,-0.27339 -6.22142,16.97873 -13.21785,38.33804 l -12.72079,38.8351 1.09466,6.5 c 1.94461,11.547 3.374,17.21239 4.12424,16.34645 0.40335,-0.46555 1.95844,-6.92145 3.45577,-14.34645 z m 439.1501,-26.38977 c 3.82452,-3.51437 6.66167,-6.69388 6.30477,-7.06557 -0.3569,-0.3717 -12.2819,-2.64155 -26.5,-5.04412 C 474.8007,365.0165 390.74621,343.34559 331.76288,319.47215 298.52528,306.01926 237.06361,271.89104 198,245.19675 173.63943,228.54986 146.56199,207.32818 113.99033,179.35502 96.056776,163.95334 76.651202,146.01547 77.262055,145.40461 c 0.376684,-0.37668 41.652675,12.17679 42.358635,12.88274 0.27306,0.27306 -0.20489,2.17507 -1.06211,4.22669 -1.75561,4.20176 -1.99457,7.09847 -0.65392,7.92703 0.49756,0.30751 19.06006,3.04113 41.25,6.07471 l 40.34534,5.51559 74.91011,22.79406 74.91012,22.79407 8.42346,9.94025 c 4.6329,5.46714 26.48342,32.55275 48.55671,60.19025 22.07329,27.6375 40.68305,50.25 41.35501,50.25 0.67196,0 11.71189,-11.581 24.53317,-25.73556 12.82128,-14.15456 27.41812,-30.00798 32.43743,-35.22983 l 9.126,-9.49427 20.60518,6.24743 c 11.33285,3.43608 21.70127,6.66416 23.04092,7.17349 3.1684,1.20462 7.25859,8.78873 28.60438,53.03874 9.41867,19.525 17.71563,36.10335 18.43767,36.84077 1.09463,1.11795 1.67225,0.95494 3.47572,-0.98085 3.00043,-3.22058 6.70033,-11.14245 8.80851,-18.85992 2.374,-8.69052 2.43007,-38.5958 0.0825,-44 -1.499,-3.45079 -107.62984,-145.4806 -117.97926,-157.886 L 493.5,152.72801 401.5,103.80518 C 273.61477,35.799678 274.18273,36.09114 267.32873,34.952236 261.27348,33.946058 115.10458,17.550923 81.123497,14.066399 58.764443,11.773634 60.932594,11.28761 48.359756,21.410888 33.587109,33.305389 20.73365,48.990634 16.076003,60.807178 13.201263,68.100453 13.163733,83.256248 16,91.5 c 1.1,3.197205 1.996348,6.755153 1.991884,7.90655 -0.0045,1.1514 1.396944,8.16845 3.114239,15.59345 l 3.122353,13.5 7.135762,6.88384 C 35.288907,139.16996 46.375,149.2871 56,157.86638 c 9.625,8.57928 20.879069,18.98155 25.009042,23.11616 13.20102,13.21582 59.006318,50.55817 88.894968,72.4708 50.32043,36.89204 86.53148,56.23348 152.09599,81.23918 45.98122,17.53682 129.25587,42.08322 169,49.81519 4.675,0.90949 14.125,2.93255 21,4.4957 6.875,1.56314 21.275,4.22502 32,5.91527 28.41832,4.47873 30.98862,4.8276 36.54632,4.96058 4.87072,0.11654 5.28828,-0.1016 12,-6.26903 z M 79.622213,333.25 c -3.062391,-84.29136 -4.603582,-131.50068 -4.612132,-141.27749 -0.0074,-8.44139 -0.398501,-12.08204 -1.460941,-13.59889 -0.797973,-1.13927 -8.785473,-7.70837 -17.75,-14.59801 C 46.834613,156.88598 37.1375,149.3547 34.25,147.03943 29.472051,143.20837 29,143.02616 29,145.01297 29,148.43101 79.026749,352 79.866727,352 c 0.240181,0 0.13015,-8.4375 -0.244514,-18.75 z"
       id="path19469"
       inkscape:connector-curvature="0" />
    <path
       style="fill:#4cbaf7"
       d="m 135.5,590.28417 c -4.98058,-1.20488 -8.65947,-6.83571 -12.93799,-19.80268 C 110.93095,535.23116 61.69387,339.14408 13.35802,135.57577 8.6536645,115.76319 3.8564323,97.065993 2.6975044,94.026447 -0.51142811,85.610308 -0.23912309,70.991081 3.3102669,61.12909 10.408885,41.405559 24.338334,24.56954 48.716579,6.2481323 L 56.364974,0.5 63.932487,0.67804321 C 68.094619,0.77596698 75.775,1.3726882 81,2.0040904 86.225,2.6354926 132.16942,7.7703698 183.09872,13.414929 L 275.69744,23.677763 389.41152,84.088881 503.1256,144.5 l 61.42966,81.97423 c 33.78632,45.08583 62.13129,83.4528 62.98884,85.25994 3.50681,7.39005 4.27338,33.56539 1.35068,46.12007 -2.36822,10.17285 -6.20701,20.31863 -9.77618,25.83804 -3.73968,5.78311 -19.13778,20.97001 -26.28008,25.91963 -4.20969,2.91731 -16.41224,8.12168 -92.33852,39.38224 C 286.54862,537.08274 148.17028,591.44573 139.32634,590.884 138.32185,590.8202 136.6,590.55027 135.5,590.28417 Z m 18,-15.94503 c 3.3,-1.3559 15.9,-6.20546 28,-10.77679 35.89945,-13.56269 86.41127,-33.51181 95,-37.51926 11.5303,-5.37998 148.03869,-87.39393 172.53144,-103.65652 8.59029,-5.70375 10.0374,-7.79659 4.29459,-6.21092 -8.44095,2.33066 -96.212,38.24644 -204.82603,83.8145 -49.49056,20.76333 -45.31278,19.1218 -45.96799,18.06165 -0.29633,-0.47949 6.37669,-8.04492 14.82894,-16.81207 13.801,-14.31518 15.48352,-16.43982 16.50344,-20.84001 0.62464,-2.69485 5.83116,-27.62472 11.57004,-55.39972 5.73888,-27.775 11.77939,-56.8 13.42336,-64.5 1.64396,-7.7 2.64508,-14.35591 2.22471,-14.79091 -0.66887,-0.69214 -92.49117,93.51031 -97.50077,100.02812 -1.24884,1.62481 -3.43227,9.6813 -6.25664,23.08593 -4.14786,19.68596 -5.62341,24.285 -6.76779,21.09408 C 150.27775,489.13775 141.73164,448.225 131.56594,399 121.40024,349.775 110.17141,295.775 106.613,279 94.340123,221.14352 93.944448,219.68023 91.055602,221.46564 c -1.675315,1.0354 -0.826057,18.5056 6.977465,143.53436 5.619353,90.03386 5.191173,85.69405 10.507793,106.5 6.3003,24.65542 15.80697,60.23404 20.44095,76.5 2.1153,7.425 4.57429,16.40565 5.46443,19.95699 2.16179,8.62479 3.78723,10.33893 9.00719,9.49874 2.22561,-0.35823 6.74657,-1.7607 10.04657,-3.11659 z m 232,-92.81269 C 523.36203,425.85477 572,405.91304 572,405.06084 c 0,-0.35701 -6.99732,-1.89887 -15.54961,-3.42636 -8.55228,-1.52749 -21.67555,-4.32013 -29.16281,-6.20586 C 519.80031,393.54288 513.0696,392 512.33043,392 c -0.73916,0 -16.5284,9.59139 -35.08718,21.3142 C 458.68446,425.03701 421.225,448.49367 394,465.44011 c -27.225,16.94644 -49.95,31.26626 -50.5,31.82184 -1.81753,1.83596 2.4002,0.25576 42,-15.7355 z M 271.41384,469.36918 c 9.15374,-10.70101 50.26633,-60.03447 50.93436,-61.11918 0.42341,-0.6875 0.56549,-1.25 0.31573,-1.25 C 322.06023,407 257,474.70288 257,475.3311 c 0,0.26868 2.49843,-0.0923 5.55206,-0.80212 4.38716,-1.01983 6.24648,-2.10242 8.86178,-5.1598 z m -109.44946,-88.1991 c 6.16501,-29.33145 10.99274,-53.54629 10.72828,-53.81075 -0.71154,-0.71155 -2.52214,4.49022 -15.6996,45.10437 C 150.39688,392.79374 145,411.10182 145,413.14833 c 0,3.18093 1.50243,11.95543 3.55232,20.74631 0.31012,1.32997 0.92398,1.99688 1.38066,1.5 0.45226,-0.49205 5.86638,-24.8931 12.0314,-54.22456 z m 430.2995,12.75033 C 598.27994,388.49069 600.58237,385 598.14769,385 595.31245,385 544.44605,376.13349 523,371.90102 430.0453,353.55601 358.40137,332.47475 309.5,309.07854 c -39.06303,-18.68918 -100.7535,-55.80483 -132,-79.4169 -12.56802,-9.49729 -31.80014,-25.21577 -34,-27.78834 -1.1,-1.28636 -1.30479,-1.80559 -0.4551,-1.15384 0.8497,0.65175 55.7497,17.62449 122,37.7172 l 120.4551,36.5322 5,5.29549 c 4.62653,4.89995 35.11984,42.20723 49,59.94944 3.3,4.2182 6.67245,7.94879 7.49433,8.2902 0.96767,0.40198 2.90607,-0.90242 5.5,-3.70109 2.20312,-2.37702 10.73117,-11.6436 18.95122,-20.5924 8.22005,-8.94881 15.87005,-16.50196 17,-16.78478 1.55338,-0.38881 59.80809,16.55754 88.30017,25.68661 2.99115,0.95838 4.18897,2.91636 15.27197,24.96381 C 598.63213,371.23426 604.46652,382 604.98301,382 c 3.02401,0 8.85246,-10.42444 11.74138,-21 2.374,-8.69052 2.43007,-38.5958 0.0825,-44 -1.499,-3.45079 -107.62984,-145.4806 -117.97926,-157.886 L 493.5,152.72801 401.5,103.80518 C 273.61477,35.799678 274.18273,36.09114 267.32873,34.952236 261.27348,33.946058 115.10458,17.550923 81.123497,14.066399 58.764443,11.773634 60.932594,11.28761 48.359756,21.410888 33.488199,33.385028 20.750227,48.969528 15.985168,61.020158 13.165892,68.149985 12.755839,83.109529 15.177101,90.5 c 0.900954,2.75 3.33602,12.56823 5.411258,21.81828 l 3.77316,16.81828 11.56924,10.70344 c 6.363083,5.8869 19.173906,17.44367 28.468496,25.68172 9.29459,8.23806 17.402893,16.17166 18.01845,17.63022 1.770409,4.19501 55.546245,47.71934 89.582295,72.50486 17.01227,12.38857 44.9568,30.65615 59.5,38.89565 42.62526,24.14949 117.54363,52.86174 193,73.9667 19.73714,5.52042 64.286,16.39171 69.9681,17.07436 2.76755,0.3325 9.5319,1.65823 15.0319,2.94608 18.86468,4.41725 61.32621,11.22098 71.01388,11.37875 4.7735,0.0777 5.33684,-0.20982 11.75,-5.99793 z M 80.61223,341.25 C 79.207928,310.20669 77.016855,243.78027 76.375655,212.81043 75.931026,191.33488 75.324858,179.94132 74.568017,178.83397 73.94174,177.91766 67.370233,172.55041 59.964666,166.90676 52.5591,161.26311 42.70794,153.59793 38.073201,149.87304 c -4.63474,-3.7249 -8.750053,-6.57276 -9.14514,-6.32858 -0.395087,0.24418 -0.311149,2.13406 0.186528,4.19975 C 52.101399,243.15441 80.066599,356 80.72418,356 c 0.305412,0 0.255034,-6.6375 -0.11195,-14.75 z"
       id="path19467"
       inkscape:connector-curvature="0" />
    <path
       style="fill:#39b7fd"
       d="m 136.61399,590.25929 c -3.42274,-0.83177 -8.41959,-6.35072 -10.49946,-11.59648 C 116.99351,555.65818 76.031437,394.85586 26.47144,187.5 6.4363553,103.67449 4.449866,95.739607 2.4407359,91.511172 0.20910608,86.814462 -0.24430841,70.772259 1.7439683,66.858922 2.4031509,65.561515 4.0880374,61.388695 5.4881605,57.58599 10.731724,43.34458 24.161626,26.596536 41.307865,12.91627 46.913539,8.4437375 52.462965,3.9789506 53.639922,2.9945214 57.581868,-0.30259711 57.010508,-0.30331459 84.5,3.0332736 89.45,3.634089 131.975,8.393782 179,13.610369 c 47.025,5.216587 88.2,9.865434 91.5,10.330772 5.28087,0.744662 19.54359,8.041853 119,60.88359 l 113,60.037519 61.68331,82.20076 c 33.92582,45.21042 62.10054,83.37891 62.6105,84.81888 3.24359,9.15896 3.56191,11.40963 3.58049,25.31581 0.0109,8.18468 -0.44574,15.71792 -1.03057,17 -0.57762,1.26627 -1.79224,5.4523 -2.69916,9.3023 -2.22353,9.43922 -8.54616,22.00979 -13.83168,27.5 -8.94121,9.28745 -21.25816,19.30719 -26.701,21.72104 C 577.1278,416.70541 504.19351,446.87868 444,471.51343 299.36147,530.70807 192.38069,573.05435 160,583.92937 c -6.875,2.30896 -13.4,4.58442 -14.5,5.05657 -2.91694,1.25205 -6.72701,1.79802 -8.88601,1.27335 z M 152.20451,575.661 c 23.61472,-8.77369 65.03105,-24.7179 93.04004,-35.81797 l 32.96548,-13.06436 56.14499,-33.72014 c 60.1182,-36.10641 104.6617,-63.37393 116.39498,-71.25176 7.77293,-5.21882 9.23448,-7.45367 4.21848,-6.45047 -6.22618,1.24524 -79.05037,30.74509 -185.85365,75.28619 -34.86185,14.53873 -63.83842,26.28298 -64.39238,26.09833 -0.55396,-0.18466 5.70796,-7.35242 13.91538,-15.92836 l 14.92259,-15.59262 13.37103,-64.85992 c 16.36322,-79.37438 15.55908,-75.20272 14.66807,-76.09373 -0.4041,-0.4041 -3.51681,2.18937 -6.91712,5.76327 -3.40032,3.57391 -23.74245,24.71683 -45.20474,46.98427 -21.46228,22.26745 -41.14121,42.77377 -43.73093,45.56959 l -4.7086,5.08333 -4.12635,19.91667 c -2.26949,10.95418 -4.49531,20.31142 -4.94627,20.79388 -1.10969,1.18722 -0.99657,1.68647 -15.94612,-70.3772 C 111.38127,299.23297 100.16268,245.52209 97.482898,233.5 94.725628,221.13029 93.01179,217.58821 90.836494,219.76351 88.962411,221.63759 89.398979,233.64763 94.007563,307 c 1.088495,17.325 3.553552,57.27482 5.477904,88.77738 3.330673,54.5247 3.646273,57.86478 6.566843,69.5 12.11293,48.25641 28.37345,107.03338 30.56201,110.47262 1.91667,3.01198 7.32694,2.98109 15.59019,-0.089 z M 398.5,477.27547 c 121.60823,-49.18199 174.29861,-70.74075 175.27206,-71.7142 1.33885,-1.33885 -1.91411,-2.34384 -14.34736,-4.43257 -15.78006,-2.65098 -34.74193,-7.33047 -26.9247,-6.6446 2.75,0.24129 14.22439,1.80607 25.49865,3.4773 28.27967,4.19201 26.36225,4.39826 35.08645,-3.77398 8.5534,-8.01225 8.66425,-9.57719 0.75006,-10.58977 C 582.4848,382.14543 545.45832,375.71935 523.5,371.39073 431.79545,353.31308 359.00344,331.94339 309.5,308.56635 283.04,296.07113 209.45614,252.78313 206.47417,247.9582 c -0.27295,-0.44164 2.9962,0.25961 7.26478,1.55834 4.26858,1.29873 50.96105,15.44777 103.76105,31.44232 95.48563,28.92517 96.01804,29.10097 99.36692,32.81106 1.85181,2.05155 9.18445,10.81758 16.29477,19.48008 7.11031,8.6625 13.61897,15.75 14.46368,15.75 0.84472,0 6.04708,-4.725 11.5608,-10.5 5.51372,-5.775 10.73002,-10.5 11.59177,-10.5 2.33946,0 121.50591,36.18906 123.05856,37.37103 0.73507,0.55959 3.10259,4.53003 5.26116,8.8232 3.05048,6.06711 4.39879,7.80577 6.05326,7.80577 2.53943,0 3.92418,-1.62371 7.88872,-9.24998 4.52329,-8.70113 6.22048,-17.37738 6.30853,-32.25002 0.14736,-24.89033 6.23751,-14.28127 -55.57447,-96.81098 C 502.60922,162.02383 496.33403,153.9655 491.76599,151.21981 480.2293,144.2855 274.05883,35.569119 271.12803,34.874529 264.11996,33.21364 71.941494,12 63.903249,12 59.569461,12 58.412992,12.565852 51.315512,18.159082 33.898777,31.884491 19.88136,48.711808 14.967997,61.792739 11.99068,69.719301 11.90274,82.938988 14.763726,92.5 c 1.152053,3.85 3.579877,13.525 5.395163,21.5 3.922606,17.23298 1.690491,14.27274 30.161238,40 11.260033,10.175 20.313461,18.66842 20.11873,18.87427 -0.498948,0.52742 -8.701338,-5.46582 -24.70704,-18.05272 C 30.36888,142.74012 28.339651,141.32702 27.524353,142.14231 26.954621,142.71205 41.702898,204.23467 65.939834,302.39299 73.122925,331.48413 79,355.81062 79,356.45186 c 0,0.64123 0.701826,2.03939 1.559614,3.10701 1.427781,1.77705 1.511476,0.96905 0.990138,-9.55887 -2.151497,-43.44735 -4.728601,-133.02935 -3.964473,-137.80794 l 0.616511,-3.85545 23.87835,7.24882 c 13.13309,3.98685 25.35019,8.27518 27.1491,9.52961 1.79892,1.25444 10.92076,7.95948 20.27076,14.90011 58.28487,43.2656 87.17454,60.43941 137.5,81.73852 60.04989,25.41476 151.59232,53.74754 209.64695,64.88663 7.61918,1.46191 14.1987,2.95904 14.62115,3.32696 0.87159,0.75907 -53.99773,35.6425 -124.2681,79.00403 -26.125,16.12088 -48.4,30.19427 -49.5,31.2742 -1.99646,1.96004 -1.99557,1.96221 0.5,1.22521 1.375,-0.40607 28.6,-11.29392 60.5,-24.19523 z M 75.098893,177.75 c -1.377292,-2.24201 -1.374595,-2.24323 0.759453,-0.34501 2.291288,2.03808 2.587928,2.59501 1.382201,2.59501 -0.417699,0 -1.381444,-1.0125 -2.141654,-2.25 z M 262.14416,476.07387 c 3.07605,-0.63858 6.25772,-1.70395 7.07036,-2.36747 0.81265,-0.66352 13.09825,-15.3814 27.30135,-32.7064 14.20309,-17.325 27.60437,-33.65551 29.7806,-36.29003 9.92773,-12.01834 0.22536,-2.85128 -34.6324,32.72164 -33.95718,34.65385 -40.46116,41.85571 -36.3884,40.29285 0.70162,-0.26924 3.79244,-1.012 6.86849,-1.65059 z M 156.98401,407.5 c 3.39297,-16.5 8.60959,-41.63314 11.59251,-55.85142 8.62017,-41.08865 7.76302,-39.75227 -10.65989,16.61974 l -14.30389,43.76832 2.33973,12.23168 c 2.67397,13.97903 3.02156,15.17364 4.08781,14.0489 C 150.46637,437.86775 153.59105,424 156.98401,407.5 Z"
       id="path19465"
       inkscape:connector-curvature="0" />
    <path
       style="fill:#27b1fd"
       d="M 130.85844,586.15339 C 126.52134,581.61384 122.70356,570.57578 112.64703,533.5 94.2905,465.82429 52.485051,297.22614 17.926651,151.5 6.7913661,104.54464 3.1659862,90.821418 1.6300727,89.812226 0.26757003,88.916975 0.23105061,68.11615 1.5903516,67.187774 2.1442117,66.809498 3.1823345,64.475 3.8972913,62 8.846714,44.866347 24.776279,25.194246 48,7.5356824 51.575,4.8173683 54.821118,2.1223022 55.213596,1.5466466 56.081851,0.27315801 72.138913,0.61550787 76.479864,2.000061 78.140939,2.5298636 99.075,5.0349434 123,7.566905 c 23.925,2.531962 68.25,7.428353 98.5,10.88087 l 55,6.277303 113.02998,60.138435 113.02998,60.138437 58.97002,78.61853 c 32.43351,43.24019 60.65752,81.10049 62.72002,84.134 2.0625,3.0335 3.75,6.71472 3.75,8.18049 0,1.46577 0.52941,3.19444 1.17647,3.8415 1.49786,1.49786 1.6244,31.21068 0.14676,34.45953 -0.56634,1.2452 -1.78151,5.414 -2.70038,9.264 -2.00048,8.38192 -7.1466,19.50165 -11.55844,24.97544 -1.7623,2.18649 -7.953,8.11283 -13.75711,13.16963 -12.04814,10.49688 -3.41235,6.47989 -95.8073,44.56526 -180.20243,74.27976 -331.92095,134.47171 -354.77576,140.75174 -2.62667,0.72175 -5.01573,1.70055 -5.30902,2.1751 -0.29329,0.47456 -2.8692,0.85494 -5.72424,0.84529 -4.69952,-0.0159 -5.53575,-0.37839 -8.83254,-3.82907 z M 152.5,575.52127 c 19.03944,-6.96088 54.7313,-20.62968 88,-33.7011 l 38,-14.93038 59,-35.37051 c 59.32237,-35.56378 97.95248,-59.13406 113.25,-69.09984 8.73441,-5.69016 10.9898,-9.2174 5.14652,-8.04874 -5.91426,1.18285 -85.85426,33.70186 -188.39652,76.63833 -63.4182,26.55445 -62.76929,26.2939 -62.34034,25.03101 0.18719,-0.5511 6.44113,-7.42306 13.89764,-15.27102 7.45652,-7.84796 13.88419,-14.8131 14.28373,-15.4781 0.39953,-0.66499 5.22106,-22.93999 10.71451,-49.5 5.49344,-26.56 12.05946,-57.88723 14.59114,-69.61606 5.38314,-24.93918 5.14275,-26.81309 -2.39572,-18.67486 -2.54734,2.75 -24.68339,25.8738 -49.19124,51.38621 -24.50785,25.51242 -45.05021,47.33742 -45.6497,48.5 -0.59949,1.16259 -2.79865,10.43879 -4.88703,20.61379 -2.08837,10.175 -4.16047,18.90259 -4.60466,19.39464 -1.01085,1.11978 0.0135,5.64646 -12.98771,-57.39464 -6.06842,-29.425 -15.05011,-72.93909 -19.95931,-96.69798 -9.06387,-43.86608 -15.20735,-75.469 -14.73291,-75.78811 0.14388,-0.0968 27.7116,8.21301 61.2616,18.46618 55.81552,17.05771 62.10489,19.20008 74,25.20688 57.82146,29.19871 138.9991,57.77492 224.00768,78.85534 15.40422,3.81993 31.59287,7.39989 35.97477,7.95546 4.3819,0.55558 8.77385,1.26619 9.7599,1.57915 1.87798,0.59605 1.89773,0.5826 -42.24235,28.76119 -15.02585,9.59235 -117.32719,73.61045 -131.99167,82.5977 -0.82042,0.5028 -1.18692,1.21894 -0.81444,1.59141 0.74207,0.74208 7.92478,-2.09038 102.80611,-40.54103 101.75147,-41.23478 135.39181,-55.13387 136.92754,-56.57401 1.83888,-1.72442 1.94029,-1.69335 -14.42754,-4.42088 -12.65477,-2.10879 -29.86653,-5.9581 -29.277,-6.54763 0.16124,-0.16124 11.08953,1.24302 24.28508,3.12059 13.19556,1.87757 25.75268,3.4187 27.90471,3.42475 3.60497,0.0101 4.60635,-0.69121 12.72893,-8.91494 4.84888,-4.90926 9.69116,-9.20364 10.76061,-9.54307 2.62931,-0.83451 7.49444,-8.69103 9.9691,-16.09873 3.91248,-11.71172 4.98685,-32.63197 2.43246,-47.36551 -0.4314,-2.4883 -15.45977,-23.26837 -54.60239,-75.5 -57.76247,-77.0778 -67.63443,-89.86073 -71.03398,-91.97991 C 485.49908,147.11826 275.7744,36.346357 272.5,35.299272 270.3,34.595758 250.725,32.006554 229,29.545487 153.16153,20.954298 78.427125,12.909209 68.987405,12.32028 l -9.512594,-0.593475 -7.987406,6.333012 C 27.184516,37.328965 14.890381,54.520502 12.68527,72.318892 c -0.863339,6.968378 -0.76019,9.447496 0.614833,14.777111 0.908716,3.522198 3.48621,14.053997 5.727764,23.403997 2.241555,9.35 4.717221,17.98131 5.501481,19.18069 0.78426,1.19937 11.11099,11.02444 22.948289,21.83346 C 59.314937,162.32318 69,171.37599 69,171.63151 69,172.48735 60.177937,166.03876 44.837889,153.96992 31.688377,143.62449 27,140.59351 27,142.43795 c 0,0.88574 3.428291,15.24427 16.011964,67.06205 23.714308,97.65216 36.927597,150.5715 38.025528,152.29258 1.141003,1.78861 0.973484,-9.68905 -1.082991,-74.20204 -0.541914,-17.0002 -0.700733,-32.42632 -0.352931,-34.28026 0.676052,-3.60367 1.419215,-3.69818 7.39843,-0.94093 2.281922,1.05228 2.562939,1.89335 3.221512,9.64175 0.998303,11.74546 5.159631,74.97768 8.752032,132.9889 1.651876,26.675 3.263056,50.975 3.580396,54 1.05309,10.0383 30.23371,119.99766 33.42894,125.968 2.36063,4.4109 5.66312,4.52152 16.51712,0.55327 z m 112.69102,-99.57271 c 3.4804,-0.93717 6.48892,-4.17323 28.12211,-30.249 41.01334,-49.43582 45.66524,-55.16631 45.62173,-56.19956 -0.0429,-1.01861 -44.72418,44.07179 -72.24912,72.91064 L 251.5,478.32128 l 4.89684,-0.66164 c 2.69327,-0.3639 6.65065,-1.13388 8.79418,-1.71108 z m -105.6615,-78.44371 c 4.70909,-22.51019 10.34139,-48.92996 12.51623,-58.7106 2.17484,-9.78064 3.93994,-19.02302 3.92245,-20.53862 -0.0306,-2.65087 -0.0881,-2.68112 -1.51375,-0.7957 -0.81507,1.07797 -3.53635,8.50297 -6.04729,16.5 -2.51094,7.99704 -9.264,28.80153 -15.00681,46.2322 l -10.44146,31.69213 2.57738,12.80787 c 3.10917,15.45052 3.25217,15.91943 4.48028,14.69132 0.52305,-0.52305 4.80388,-19.36842 9.51297,-41.8786 z"
       id="path19463"
       inkscape:connector-curvature="0" />
    <path
       style="fill:#17acfd"
       d="M 130.90575,586.20243 C 126.80143,581.906 124.33452,575.11231 115.58126,544 100.47038,490.2903 60.024073,327.9188 21.42248,166 6.720089,104.32914 3.2196843,90.856639 1.6269908,89.810321 0.29654691,88.936288 0.30431393,68.073091 1.6354232,67.159918 2.1644939,66.796963 3.1893719,64.475 3.9129298,62 8.7625981,45.411239 24.990401,24.977529 45.587347,9.5244428 49.939306,6.2593375 54.080884,2.8944633 54.790853,2.0469445 55.8123,0.8276022 57.962054,0.5623639 65.091349,0.77606181 70.046652,0.92459517 74.865768,1.4474393 75.800496,1.9379378 76.735223,2.4284362 91.45,4.2626196 108.5,6.0139009 125.55,7.7651823 170.325,12.694247 208,16.967378 l 68.5,7.76933 113.04492,60.170788 113.04491,60.170794 61.57216,82.21085 c 33.86469,45.21597 62.08197,83.19378 62.70508,84.39512 0.62311,1.20134 1.13293,3.24884 1.13293,4.55 0,1.30116 0.52941,2.89515 1.17647,3.54221 1.53958,1.53958 1.62294,31.25943 0.0967,34.45953 -0.5939,1.2452 -1.79547,5.414 -2.67016,9.264 -0.87469,3.85 -3.37405,10.6299 -5.55414,15.06645 -3.22088,6.55458 -5.61174,9.64861 -12.75631,16.50802 -17.56141,16.86047 -6.58126,11.60294 -130.51646,62.49407 C 307.38844,527.53427 190.3922,573.9354 156.5,584.98779 c -5.5,1.79357 -10.4275,3.65505 -10.95,4.13662 -0.5225,0.48158 -3.2225,0.8677 -6,0.85805 -4.52458,-0.0157 -5.42396,-0.409 -8.64425,-3.78003 z M 153,575.31435 c 3.575,-1.3203 11.225,-4.1315 17,-6.24711 39.23393,-14.37295 105.63627,-40.76026 113.93464,-45.27595 15.78614,-8.59026 157.29689,-93.97491 173.306,-104.56924 4.35344,-2.88097 5.09361,-6.22205 1.37842,-6.22205 -1.30952,0 -5.26599,1.08593 -8.79217,2.41318 -18.34899,6.90654 -130.98499,53.43157 -216.72262,89.51868 -14.51765,6.11051 -26.62237,10.88338 -26.89936,10.60638 -0.277,-0.27699 5.81941,-6.99277 13.54756,-14.92395 7.72816,-7.93118 14.3063,-15.25147 14.6181,-16.26731 0.3118,-1.01584 5.7684,-26.91231 12.12578,-57.54772 12.50706,-60.26994 17.44906,-81.37397 19.00708,-81.16665 4.61707,0.61439 211.16984,64.07713 210.75437,64.75367 -1.07849,1.75615 -41.73566,27.84833 -91.2578,58.56568 -27.775,17.22814 -51.3875,32.16182 -52.47222,33.18596 -1.7669,1.66823 -1.79256,1.86208 -0.24648,1.86208 2.36724,0 147.12179,-58.51051 235.4687,-95.17763 3.9875,-1.65495 7.25,-3.56085 7.25,-4.23534 0,-0.79615 -4.64791,-1.99734 -13.25,-3.42427 -14.07955,-2.33555 -27.11275,-5.13334 -26.54729,-5.69881 0.18766,-0.18766 7.98132,0.74946 17.31925,2.08249 9.33792,1.33303 20.59609,2.71453 25.01816,3.07002 l 8.04012,0.64633 7.70988,-6.80476 c 4.24043,-3.74262 7.70988,-7.1711 7.70988,-7.61885 0,-0.44775 1.6875,-1.88937 3.75,-3.20359 4.88198,-3.1108 9.59367,-11.14712 12.39178,-21.13559 1.83974,-6.56737 2.24697,-10.59663 2.27402,-22.5 0.0546,-24.02514 4.33109,-16.18045 -44.30522,-81.27236 C 518.79789,183.36213 496.44801,153.99475 494.2793,152.51665 491.47971,150.60858 281.13376,38.949308 275.52228,36.392483 271.12393,34.388406 258.6359,32.786029 175,23.494159 122.475,17.658681 75,12.634364 69.5,12.32901 l -10,-0.555188 -6.908955,5.266944 c -16.591276,12.648125 -29.660112,27.5378 -36.104541,41.134871 -3.126323,6.596215 -3.713678,8.986918 -4.176606,17 C 11.867299,82.836845 12.12769,85.5702 13.769763,90.5 c 1.099201,3.3 3.672506,13.2 5.718455,22 4.374644,18.81614 2.043245,15.64197 30.261782,41.20106 10.0375,9.09152 18.25,16.72465 18.25,16.96253 0,0.82445 -9.167654,-5.8821 -23.691102,-17.33111 C 28.646429,140.98557 27,139.93833 27,142.32277 27,144.29934 33.103835,169.9374 52.873564,251 c 22.404696,91.86686 27.788741,113.06231 29.037071,114.31064 1.407566,1.40756 1.404572,-0.85179 -0.05509,-41.56791 -0.645886,-18.0165 -0.890514,-33.0411 -0.543619,-33.38799 0.346896,-0.3469 2.658683,-0.0629 5.137304,0.63105 3.919385,1.09736 4.569272,1.6691 4.987702,4.38799 0.876913,5.69803 2.575356,28.64724 5.078944,68.62622 5.486384,87.61031 5.184624,84.47309 9.995074,103.91299 9.40203,37.99533 27.29806,102.99311 29.47984,107.0698 2.38494,4.4563 5.66726,4.52029 17.00921,0.33156 z m -2.37184,-90.89651 C 137.60333,421.54677 116.72295,318.86792 115.4147,311.25631 c -0.96836,-5.63403 -1.45965,-10.5447 -1.09175,-10.91259 0.61722,-0.61723 54.34466,15.21478 56.81589,16.74209 1.38147,0.85379 -2.7373,15.13682 -17.26918,59.8859 -5.97831,18.40944 -10.86999,34.38444 -10.87039,35.5 -4.1e-4,1.11556 1.18861,7.99079 2.64225,15.27829 1.81226,9.08535 3.06375,13.25 3.98168,13.25 0.73628,0 1.57632,-1.0125 1.86675,-2.25 0.29043,-1.2375 4.57741,-21.6 9.52662,-45.25 9.30702,-44.47395 15.71822,-72.44713 16.90309,-73.75108 0.70596,-0.7769 76.87877,21.8704 78.48421,23.33452 0.52146,0.47556 -0.16676,2.21883 -1.62669,4.12043 -3.75884,4.89599 -27.53175,30.1847 -62.94549,66.95899 l -31.45443,32.66287 -3.82997,18.83713 c -4.22851,20.79731 -4.99373,23.22192 -5.91913,18.75498 z m 111.27217,-7.12331 7.40034,-1.7311 37.45297,-44.9607 c 20.59913,-24.72839 37.95195,-45.7597 38.56181,-46.73624 0.60986,-0.97654 0.74118,-2.1335 0.29181,-2.57101 -0.44937,-0.43751 -5.10984,3.70452 -10.35661,9.20452 -5.24676,5.5 -26.23706,27.23409 -46.64511,48.29797 -20.40805,21.06388 -37.25554,38.72638 -37.43887,39.25 -0.48886,1.39622 2.41556,1.19235 10.73366,-0.75344 z"
       id="path19461"
       inkscape:connector-curvature="0" />
    <path
       style="fill:#0ba5f7"
       d="M 130.90575,586.20243 C 126.80143,581.906 124.33452,575.11231 115.58126,544 100.47038,490.2903 60.024073,327.9188 21.42248,166 6.720089,104.32914 3.2196843,90.856639 1.6269908,89.810321 0.29654691,88.936288 0.30431393,68.073091 1.6354232,67.159918 2.1644939,66.796963 3.1893719,64.475 3.9129298,62 8.7625981,45.411239 24.990401,24.977529 45.587347,9.5244428 49.939306,6.2593375 54.080884,2.8944633 54.790853,2.0469445 55.8123,0.8276022 57.962054,0.5623639 65.091349,0.77606181 70.046652,0.92459517 74.865768,1.4474393 75.800496,1.9379378 76.735223,2.4284362 91.45,4.2626196 108.5,6.0139009 125.55,7.7651823 170.325,12.694247 208,16.967378 l 68.5,7.76933 113.04492,60.170788 113.04491,60.170794 61.57216,82.21085 c 33.86469,45.21597 62.08197,83.19378 62.70508,84.39512 0.62311,1.20134 1.13293,3.24884 1.13293,4.55 0,1.30116 0.52941,2.89515 1.17647,3.54221 1.53958,1.53958 1.62294,31.25943 0.0967,34.45953 -0.5939,1.2452 -1.79547,5.414 -2.67016,9.264 -0.87469,3.85 -3.37405,10.6299 -5.55414,15.06645 -3.22088,6.55458 -5.61174,9.64861 -12.75631,16.50802 -17.56141,16.86047 -6.58126,11.60294 -130.51646,62.49407 C 307.38844,527.53427 190.3922,573.9354 156.5,584.98779 c -5.5,1.79357 -10.4275,3.65505 -10.95,4.13662 -0.5225,0.48158 -3.2225,0.8677 -6,0.85805 -4.52458,-0.0157 -5.42396,-0.409 -8.64425,-3.78003 z M 153,575.31435 c 3.575,-1.3203 11.225,-4.1315 17,-6.24711 39.14306,-14.33966 105.63076,-40.75729 113.89384,-45.25355 6.31046,-3.43377 93.21598,-54.81946 139.01778,-82.19875 C 436.03117,433.77237 439,432.25366 439,433.38487 c 0,0.68219 -22.58673,15.19593 -81,52.04881 -14.575,9.19535 -26.9275,17.13451 -27.45,17.64257 -3.16452,3.07707 8.80706,-1.23795 53.20352,-19.17661 80.46054,-32.51057 138.23919,-56.08636 183.99648,-75.07727 3.9875,-1.65495 7.25,-3.56085 7.25,-4.23534 0,-0.79615 -4.64791,-1.99734 -13.25,-3.42427 -14.07955,-2.33555 -27.11275,-5.13334 -26.54729,-5.69881 0.18766,-0.18766 7.98132,0.74946 17.31925,2.08249 9.33792,1.33303 20.59609,2.71453 25.01816,3.07002 l 8.04012,0.64633 7.70988,-6.80476 c 4.24043,-3.74262 7.70988,-7.1711 7.70988,-7.61885 0,-0.44775 1.6875,-1.88937 3.75,-3.20359 4.88198,-3.1108 9.59367,-11.14712 12.39178,-21.13559 1.83974,-6.56737 2.24697,-10.59663 2.27402,-22.5 0.0546,-24.02514 4.33109,-16.18045 -44.30522,-81.27236 C 518.79789,183.36213 496.44801,153.99475 494.2793,152.51665 491.47971,150.60858 281.13376,38.949308 275.52228,36.392483 271.12393,34.388406 258.6359,32.786029 175,23.494159 122.475,17.658681 75,12.634364 69.5,12.32901 l -10,-0.555188 -6.908955,5.266944 c -16.591276,12.648125 -29.660112,27.5378 -36.104541,41.134871 -3.126323,6.596215 -3.713678,8.986918 -4.176606,17 C 11.867299,82.836845 12.12769,85.5702 13.769763,90.5 c 1.099201,3.3 3.672506,13.2 5.718455,22 4.374644,18.81614 2.043245,15.64197 30.261782,41.20106 10.0375,9.09152 18.25,16.72465 18.25,16.96253 0,0.82445 -9.167654,-5.8821 -23.691102,-17.33111 C 28.646429,140.98557 27,139.93833 27,142.32277 27,144.29934 33.103835,169.9374 52.873564,251 c 24.076642,98.72241 27.778942,113.08491 29.613161,114.8797 1.54055,1.50743 1.606509,0.10857 0.946898,-20.08179 l -0.708998,-21.7021 5.103393,1.632 c 4.874879,1.55893 5.126072,1.81425 5.609867,5.7021 0.486723,3.91138 2.880675,36.65099 6.074165,83.07009 2.21095,32.13731 2.90634,37.29421 7.48401,55.5 10.2529,40.77669 26.9097,101.08688 28.99473,104.98279 2.38494,4.4563 5.66726,4.52029 17.00921,0.33156 z m 53,-59.99639 c 0,-0.37512 6.4221,-7.23762 14.27134,-15.25 L 234.54268,485.5 l 2.794,-13.5 c 8.46484,-40.90022 19.92872,-92.62113 20.70626,-93.41924 0.86424,-0.88711 64.50777,17.72792 66.27163,19.38372 1.16049,1.08939 -3.73635,6.539 -38.12733,42.43126 -34.94252,36.46788 -35.78727,37.41082 -34.5769,38.5963 0.80016,0.78371 13.52395,-1.74282 17.38966,-3.45302 0.825,-0.36499 10.95,-11.94762 22.5,-25.7392 C 321.70382,413.73417 332.91577,401 334.46635,401 c 1.09208,0 76.97169,22.64188 82.53365,24.6274 2.18812,0.78111 -1.10792,2.31503 -40.5,18.84792 -55.36676,23.23747 -94.17734,39.58552 -133.30742,56.15264 C 223.22351,509.08258 206.68601,516 206.44258,516 206.19916,516 206,515.69308 206,515.31796 Z m -55.26958,-30.34997 c -0.71791,-2.97367 -28.34975,-142.30387 -28.99454,-146.20144 -0.53841,-3.2545 -2.51232,-3.59749 21.26412,3.69489 l 17.5,5.36735 -0.0997,3.33561 c -0.0549,1.83458 -3.82296,15.0356 -8.37358,29.3356 -4.55063,14.3 -8.59747,27.35877 -8.99299,29.0195 -0.79725,3.34753 3.9487,29.86292 5.64956,31.56378 0.66864,0.66864 1.33216,0.57197 1.99647,-0.2909 0.54724,-0.71081 3.58617,-13.44238 6.75318,-28.29238 5.95684,-27.93139 13.36994,-60.63621 13.85394,-61.1202 0.19795,-0.19795 46.10444,13.49391 59.99612,17.89418 1.57758,0.4997 -5.03206,7.92505 -37.37872,41.99169 -18.1634,19.12922 -33.42412,36.00753 -33.91271,37.50736 -0.48859,1.49983 -2.2793,9.92697 -3.97935,18.72697 -1.70006,8.8 -3.44988,16.8856 -3.88849,17.96799 -0.74282,1.83309 -0.83832,1.79882 -1.3933,-0.5 z"
       id="path19459"
       inkscape:connector-curvature="0" />
    <path
       style="fill:#079be9"
       d="M 130.90575,586.20243 C 126.80143,581.906 124.33452,575.11231 115.58126,544 100.47038,490.2903 60.024073,327.9188 21.42248,166 6.720089,104.32914 3.2196843,90.856639 1.6269908,89.810321 0.29654691,88.936288 0.30431393,68.073091 1.6354232,67.159918 2.1644939,66.796963 3.1893719,64.475 3.9129298,62 8.7625981,45.411239 24.990401,24.977529 45.587347,9.5244428 49.939306,6.2593375 54.080884,2.8944633 54.790853,2.0469445 55.8123,0.8276022 57.962054,0.5623639 65.091349,0.77606181 70.046652,0.92459517 74.865768,1.4474393 75.800496,1.9379378 76.735223,2.4284362 91.45,4.2626196 108.5,6.0139009 125.55,7.7651823 170.325,12.694247 208,16.967378 l 68.5,7.76933 113.04492,60.170788 113.04491,60.170794 61.57216,82.21085 c 33.86469,45.21597 62.08197,83.19378 62.70508,84.39512 0.62311,1.20134 1.13293,3.24884 1.13293,4.55 0,1.30116 0.52941,2.89515 1.17647,3.54221 1.53958,1.53958 1.62294,31.25943 0.0967,34.45953 -0.5939,1.2452 -1.79547,5.414 -2.67016,9.264 -0.87469,3.85 -3.37405,10.6299 -5.55414,15.06645 -3.22088,6.55458 -5.61174,9.64861 -12.75631,16.50802 -17.56141,16.86047 -6.58126,11.60294 -130.51646,62.49407 C 307.38844,527.53427 190.3922,573.9354 156.5,584.98779 c -5.5,1.79357 -10.4275,3.65505 -10.95,4.13662 -0.5225,0.48158 -3.2225,0.8677 -6,0.85805 -4.52458,-0.0157 -5.42396,-0.409 -8.64425,-3.78003 z M 152.5,575.51236 c 33.61399,-12.33927 44.91918,-16.68026 113.67057,-43.64746 8.36772,-3.28218 19.40453,-8.91463 32.5,-16.58584 C 327.58386,498.34191 354.14529,483 354.55526,483 c 0.1962,0 2.73547,-1.40256 5.64282,-3.11679 6.81105,-4.01594 9.86508,-5.20339 9.23389,-3.59026 -0.25976,0.66388 -9.35072,7.05705 -20.20213,14.20705 -14.19595,9.35372 -19.13445,13.08495 -17.6071,13.30287 2.51624,0.35902 128.94488,-50.496 236.12726,-94.9805 3.9875,-1.65495 7.25,-3.56085 7.25,-4.23534 0,-0.79615 -4.64791,-1.99734 -13.25,-3.42427 -14.07955,-2.33555 -27.11275,-5.13334 -26.54729,-5.69881 0.18766,-0.18766 7.98132,0.74946 17.31925,2.08249 9.33792,1.33303 20.59609,2.71453 25.01816,3.07002 l 8.04012,0.64633 7.70988,-6.80476 c 4.24043,-3.74262 7.70988,-7.1711 7.70988,-7.61885 0,-0.44775 1.6875,-1.88937 3.75,-3.20359 4.88198,-3.1108 9.59367,-11.14712 12.39178,-21.13559 1.83974,-6.56737 2.24697,-10.59663 2.27402,-22.5 0.0546,-24.02514 4.33109,-16.18045 -44.30522,-81.27236 C 518.79789,183.36213 496.44801,153.99475 494.2793,152.51665 491.47971,150.60858 281.13376,38.949308 275.52228,36.392483 271.12393,34.388406 258.6359,32.786029 175,23.494159 122.475,17.658681 75,12.634364 69.5,12.32901 l -10,-0.555188 -6.908955,5.266944 c -16.591276,12.648125 -29.660112,27.5378 -36.104541,41.134871 -3.126323,6.596215 -3.713678,8.986918 -4.176606,17 C 11.867299,82.836845 12.12769,85.5702 13.769763,90.5 c 1.099201,3.3 3.672506,13.2 5.718455,22 4.374644,18.81614 2.043245,15.64197 30.261782,41.20106 10.0375,9.09152 18.25,16.72465 18.25,16.96253 0,0.82445 -9.167654,-5.8821 -23.691102,-17.33111 C 28.634338,140.97604 27,139.93727 27,142.3311 c 0,1.91162 6.603683,29.67284 25.492734,107.1689 23.329541,95.71405 27.405554,111.69495 29.841463,117 1.262712,2.75 3.586244,9.15472 5.163406,14.23271 2.646966,8.52243 3.114525,9.31421 6.077761,10.29216 3.849503,1.27045 3.58037,-0.1315 6.426226,33.47513 1.1178,13.2 2.98015,28.275 4.13856,33.5 4.39969,19.84471 28.01747,107.55592 31.0438,115.28983 2.36218,6.03661 5.74361,6.47062 17.31605,2.22253 z m 53.5,-60.1944 c 0,-0.37512 6.4125,-7.23762 14.25,-15.25 L 234.5,485.5 238.32677,468 c 2.10472,-9.625 4.70017,-20.50021 5.76766,-24.16713 l 1.9409,-6.66713 7.73234,2.41001 c 4.25278,1.3255 11.21983,3.42057 15.48233,4.65569 4.2625,1.23513 7.75,2.54793 7.75,2.91733 0,1.17215 -7.42914,10.02391 -16.86791,20.09799 -12.16256,12.9812 -12.10717,13.63823 0.89893,10.66377 7.00535,-1.6021 8.97056,-2.49622 11.37126,-5.17368 14.13646,-15.76611 17.98525,-19.72507 19.70758,-20.27172 1.16643,-0.37021 9.19469,1.54314 19.41259,4.62654 20.48805,6.18257 20.65288,4.88798 -1.90328,14.94843 C 292.82663,479.52989 207.27127,516 206.4935,516 206.22208,516 206,515.69308 206,515.31796 Z m -55.27785,-30.34997 c -3.19202,-13.04087 -15.33888,-79.68768 -14.64808,-80.37042 0.23426,-0.23153 1.61644,-0.19222 3.07151,0.0873 2.5064,0.48157 2.67194,0.88465 3.1467,7.6617 0.27561,3.93436 1.61351,11.79679 2.97311,17.47207 2.32081,9.6876 3.92596,13.32329 5.28307,11.96619 0.31998,-0.31999 2.26314,-7.13815 4.31814,-15.15148 2.05499,-8.01332 3.97987,-14.8132 4.2775,-15.11084 0.48939,-0.48938 23.82595,6.15148 24.74136,7.04062 0.73202,0.71103 -2.64556,4.97867 -13.10644,16.56026 -5.77427,6.39289 -10.75215,12.69289 -11.06195,14 -0.30981,1.30711 -1.96561,9.57656 -3.67958,18.37656 -1.71396,8.8 -3.47516,16.8856 -3.91377,17.96799 -0.74308,1.83373 -0.83869,1.79962 -1.40157,-0.5 z"
       id="path19457"
       inkscape:connector-curvature="0" />
    <path
       style="fill:#0a88c8"
       d="M 130.90575,586.20243 C 126.80143,581.906 124.33452,575.11231 115.58126,544 100.47038,490.2903 60.024073,327.9188 21.42248,166 6.720089,104.32914 3.2196843,90.856639 1.6269908,89.810321 0.29654691,88.936288 0.30431393,68.073091 1.6354232,67.159918 2.1644939,66.796963 3.1893719,64.475 3.9129298,62 8.7625981,45.411239 24.990401,24.977529 45.587347,9.5244428 49.939306,6.2593375 54.080884,2.8944633 54.790853,2.0469445 55.8123,0.8276022 57.962054,0.5623639 65.091349,0.77606181 70.046652,0.92459517 74.865768,1.4474393 75.800496,1.9379378 76.735223,2.4284362 91.45,4.2626196 108.5,6.0139009 125.55,7.7651823 170.325,12.694247 208,16.967378 l 68.5,7.76933 113.04492,60.170788 113.04491,60.170794 61.57216,82.21085 c 33.86469,45.21597 62.08197,83.19378 62.70508,84.39512 0.62311,1.20134 1.13293,3.24884 1.13293,4.55 0,1.30116 0.52941,2.89515 1.17647,3.54221 1.53958,1.53958 1.62294,31.25943 0.0967,34.45953 -0.5939,1.2452 -1.79547,5.414 -2.67016,9.264 -0.87469,3.85 -3.37405,10.6299 -5.55414,15.06645 -3.22088,6.55458 -5.61174,9.64861 -12.75631,16.50802 -17.56141,16.86047 -6.58126,11.60294 -130.51646,62.49407 C 307.38844,527.53427 190.3922,573.9354 156.5,584.98779 c -5.5,1.79357 -10.4275,3.65505 -10.95,4.13662 -0.5225,0.48158 -3.2225,0.8677 -6,0.85805 -4.52458,-0.0157 -5.42396,-0.409 -8.64425,-3.78003 z M 153,575.31435 c 3.575,-1.3203 11.225,-4.12749 17,-6.23821 31.60775,-11.55238 101.56723,-39.22303 118.5,-46.86958 6.05,-2.73208 18.425,-7.78387 27.5,-11.2262 49.82459,-18.89949 256.14508,-103.04136 258.92754,-105.59614 1.88073,-1.72684 1.87553,-1.72841 -15.92754,-4.82736 -24.8036,-4.31752 -26.80994,-6.02302 -3,-2.55018 7.425,1.08299 17.14784,2.26095 21.6063,2.61768 l 8.1063,0.6486 8.8937,-7.98769 c 13.84316,-12.43294 14.86713,-13.4934 17.65607,-18.28527 5.01728,-8.62055 7.11683,-18.89314 7.15343,-35 0.0546,-24.02514 4.33109,-16.18045 -44.30522,-81.27236 C 518.79789,183.36213 496.44801,153.99475 494.2793,152.51665 491.47971,150.60858 281.13376,38.949308 275.52228,36.392483 271.12393,34.388406 258.6359,32.786029 175,23.494159 122.475,17.658681 75,12.634364 69.5,12.32901 l -10,-0.555188 -6.908955,5.266944 C 35.936412,29.73719 22.931726,44.577106 16.419362,58.317019 13.188066,65.13447 12.65154,67.333811 12.223521,75.516734 11.796372,83.682996 12.070334,85.975533 14.336666,93.199715 15.768823,97.764872 18.351401,107.575 20.075729,115 23.771212,130.91285 21.908427,128.48341 49.75,153.70106 59.7875,162.79258 68,170.43474 68,170.68364 c 0,0.7347 -5.586102,-3.3616 -21.313246,-15.62905 -18.25885,-14.24222 -18.594781,-14.4799 -19.370098,-13.70458 -0.346293,0.34629 0.08904,3.89671 0.967396,7.88981 4.112755,18.69692 36.418399,151.26956 49.287285,202.26018 21.901034,86.77886 24.005923,95.21725 26.440863,106 4.88455,21.63047 28.16372,108.10268 31.17175,115.78983 2.39174,6.11215 5.72287,6.49069 17.81605,2.02452 z"
       id="path19455"
       inkscape:connector-curvature="0" />
  </g>
</svg>
