<?xml version="1.0" encoding="UTF-8" standalone="no"?>
<!-- Created with Inkscape (http://www.inkscape.org/) -->

<svg
   xmlns:dc="http://purl.org/dc/elements/1.1/"
   xmlns:cc="http://creativecommons.org/ns#"
   xmlns:rdf="http://www.w3.org/1999/02/22-rdf-syntax-ns#"
   xmlns:svg="http://www.w3.org/2000/svg"
   xmlns="http://www.w3.org/2000/svg"
   xmlns:xlink="http://www.w3.org/1999/xlink"
   xmlns:sodipodi="http://sodipodi.sourceforge.net/DTD/sodipodi-0.dtd"
   xmlns:inkscape="http://www.inkscape.org/namespaces/inkscape"
   version="1.1"
   width="20"
   height="20"
   id="svg2"
   inkscape:version="0.92.2 5c3e80d, 2017-08-06"
   sodipodi:docname="task_matthews_20x20.svg">
  <sodipodi:namedview
     pagecolor="#ffffff"
     bordercolor="#666666"
     borderopacity="1"
     objecttolerance="10"
     gridtolerance="10"
     guidetolerance="10"
     inkscape:pageopacity="0"
     inkscape:pageshadow="2"
     inkscape:window-width="1440"
     inkscape:window-height="851"
     id="namedview3402"
     showgrid="false"
     inkscape:zoom="24.439378"
     inkscape:cx="13.392322"
     inkscape:cy="10.39387"
     inkscape:window-x="0"
     inkscape:window-y="1"
     inkscape:window-maximized="1"
     inkscape:current-layer="svg2"
     inkscape:pagecheckerboard="true" />
  <defs
     id="defs4">
    <linearGradient
       id="linearGradient5994">
      <stop
         style="stop-color:#000057;stop-opacity:1;"
         offset="0"
         id="stop5996" />
      <stop
         style="stop-color:#3f3fff;stop-opacity:1;"
         offset="1"
         id="stop5998" />
    </linearGradient>
    <filter
       inkscape:collect="always"
       style="color-interpolation-filters:sRGB"
       id="filter5324"
       x="-0.0019837064"
       width="1.0039674"
       y="-0.0030799571"
       height="1.0061599">
      <feGaussianBlur
         inkscape:collect="always"
         stdDeviation="0.03753408"
         id="feGaussianBlur5326" />
    </filter>
    <linearGradient
       inkscape:collect="always"
       xlink:href="#linearGradient5994"
       id="linearGradient5660"
       gradientUnits="userSpaceOnUse"
       gradientTransform="matrix(1.0236522,0.00871026,0.0044805,1.0960244,-0.65665466,-4.9157222)"
       x1="54.980186"
       y1="40.552376"
       x2="65.059898"
       y2="6.4015245" />
  </defs>
  <metadata
     id="metadata7">
    <rdf:RDF>
      <cc:Work
         rdf:about="">
        <dc:format>image/svg+xml</dc:format>
        <dc:type
           rdf:resource="http://purl.org/dc/dcmitype/StillImage" />
        <dc:title></dc:title>
      </cc:Work>
    </rdf:RDF>
  </metadata>
  <path
     inkscape:connector-curvature="0"
     d="M 3.6708952,19.003058 C 3.5120459,19.249976 3.179673,19.323386 2.9289897,19.166923 2.6783078,19.01046 2.6037763,18.683079 2.7626256,18.436162 c 0.1588493,-0.246914 0.4912239,-0.320325 0.7419056,-0.163865 0.2506819,0.156464 0.3252132,0.483846 0.166364,0.730761 z"
     style="opacity:1;fill:#000000;fill-rule:evenodd;stroke:none;stroke-width:0.2446826pt;marker-start:none;marker-end:none"
     id="path3625" />
  <path
     inkscape:connector-curvature="0"
     d="m 14.49673,13.188972 c 0.187768,0.22637 0.153635,0.560193 -0.0762,0.745137 -0.229822,0.184947 -0.568735,0.151328 -0.756501,-0.07505 -0.187766,-0.226369 -0.153636,-0.560191 0.07619,-0.745137 0.229822,-0.184946 0.568735,-0.151325 0.756501,0.07505 z"
     style="opacity:0.62000002;fill:#c0c0c0;fill-opacity:1;fill-rule:evenodd;stroke:none;stroke-width:0.2446826pt;marker-start:none;marker-end:none"
     id="path3635" />
  <path
     inkscape:connector-curvature="0"
     d="m 16.629269,18.715818 0.0048,-0.04256 -0.01919,-0.04255 -2.491356,-5.201012 -0.03841,-0.07565 H 14.003497 0.80266437 0.69225744 l -0.0240014,0.108748 0.2448154,0.15603 H 13.917092 l 2.438553,5.087533 0.273618,0.0094 z"
     style="opacity:0.62000002;fill:#c0c0c0;fill-opacity:1;fill-rule:evenodd;stroke:none;stroke-width:0.34954655"
     id="path3637" />
  <path
     inkscape:connector-curvature="0"
     d="M 16.684007,0.77370605 14.117055,13.41566"
     style="opacity:0.62000002;fill:none;stroke:#c0c0c0;stroke-width:0.26679021;stroke-linecap:butt;stroke-linejoin:miter;stroke-miterlimit:4;stroke-dasharray:none;stroke-opacity:1"
     id="path3639" />
  <path
     inkscape:connector-curvature="0"
     d="M 5.7927947,6.3000448 3.2258433,18.941998"
     style="opacity:0.62000002;fill:none;stroke:#000000;stroke-width:0.26679021;stroke-linecap:butt;stroke-linejoin:miter;stroke-miterlimit:4;stroke-dasharray:none;stroke-opacity:1"
     id="path3601" />
  <path
     inkscape:connector-curvature="0"
     d="m 0.79571348,14.039205 c -0.29461115,0.03522 -0.56273683,-0.171708 -0.59849559,-0.461894 -0.0357573,-0.290188 0.174327,-0.554284 0.46893959,-0.589505 0.29461107,-0.03522 0.56273842,0.171709 0.59849562,0.461893 0.035758,0.290187 -0.174327,0.554286 -0.46893962,0.589506 z"
     style="opacity:1;fill:#000000;fill-rule:evenodd;stroke:none;stroke-width:0.2446826pt;marker-start:none;marker-end:none"
     id="path3623" />
  <path
     inkscape:connector-curvature="0"
     d="M 3.1666731,1.0010541 0.59851085,13.45519 l -0.004797,0.04241 0.0192012,0.04242 2.49135715,5.183331 0.038402,0.07539 h 0.081605 13.2008318 0.110408 l 0.02399,-0.108389 2.56816,-12.3834537 -0.264015,-0.051833 -2.548962,12.2797867 H 3.3106817 L 0.87212809,13.464613 3.4306897,1.0528872 Z"
     style="fill:#000000;fill-opacity:1;fill-rule:evenodd;stroke:none;stroke-width:0.34954655"
     id="path3599" />
  <path
     inkscape:connector-curvature="0"
     d="m 16.835331,18.396934 c 0.187768,0.22637 0.153634,0.560192 -0.07619,0.745138 -0.229822,0.184945 -0.568736,0.151333 -0.756502,-0.07505 -0.187766,-0.226371 -0.153634,-0.560191 0.07619,-0.745137 0.229821,-0.184946 0.568735,-0.151332 0.756502,0.07505 z"
     style="opacity:1;fill:#000000;fill-rule:evenodd;stroke:#000000;stroke-width:0.16388541;stroke-miterlimit:4;stroke-dasharray:none;stroke-opacity:1;marker-start:none;marker-end:none"
     id="path3627" />
  <g
     style="font-style:normal;font-weight:normal;font-size:5.88645887px;line-height:125%;font-family:Sans;letter-spacing:0px;word-spacing:0px;fill:#000000;fill-opacity:1;stroke:none;filter:url(#filter5324)"
     id="text4394"
     transform="matrix(0.49967925,0.10908958,-0.0881685,0.48724462,-1.4041458,-13.404067)">
    <g
       id="g5227"
       transform="matrix(0.44634181,0,0,0.36514035,6.3797803,25.091405)">
      <path
         style="fill:url(#linearGradient5660);fill-opacity:1"
         d="m 24.809321,83.582662 c 0.561128,-0.873762 0.504554,0.850087 0,0 z m 11.286458,0.265583 c -0.516612,-2.882377 5.154387,0.640518 2.207308,-0.212413 -0.543214,0.786493 -1.615037,-0.405313 -2.207308,0.212413 z m -10.651,-0.938317 c -2.874132,-1.936252 3.071449,-4.768478 2.306375,-1.88231 0.08077,1.120573 -1.157087,3.664366 -2.306375,1.88231 z m 1.567699,-0.724636 c -0.95568,-0.181062 -0.56847,1.491953 0,0 z m -0.482802,-0.31417 c 0.01793,-0.872441 -1.056643,0.905128 0,0 z m -0.733898,-0.598627 c -0.157563,-1.664569 -1.091731,1.221358 -10e-7,0 z m 1.306234,-0.245037 c -0.596382,-0.982125 -0.627443,0.516618 0,0 z m 4.606015,-0.06339 c -0.543751,-4.279262 5.126639,1.823427 0.431223,0.918559 -0.779785,0.333858 -0.296151,-0.518539 -0.431223,-0.918559 z m 1.383359,0.360942 c -0.425956,-0.919369 -1.155108,0.59213 0,0 z m 23.026819,-1.700491 c -2.896763,-2.013039 -4.381646,-3.093327 -5.591828,-6.374957 -0.206459,-2.665648 -0.257307,-6.58652 -0.536836,-8.047396 -1.251865,-0.969345 -0.521137,-4.416421 1.452682,-4.47319 2.287644,-0.599039 4.744372,1.075768 4.713343,0.0096 2.571865,0.327817 6.241675,3.357796 5.203446,5.624672 -1.4705,1.902952 1.249395,-0.54236 0.194797,1.586846 0.148954,3.472882 2.288753,7.193809 0.722683,10.528608 -1.181791,2.20989 -4.197785,1.917189 -6.158287,1.145802 z m 3.204807,-0.04168 c 0.344456,-1.468813 -1.715261,1.266322 0,0 z m 1.025283,-1.081816 c -1.122681,-0.110415 -0.0477,-0.121995 0,0 z m -0.690091,-0.504102 c -1.427202,-2.246285 -1.001144,0.802145 0,0 z M 57.027146,77.19869 c -0.50052,-0.835206 -0.499298,0.826003 0,0 z m 2.99937,-0.336772 c -2.74379,-1.962478 1.39558,2.256224 0,0 z m 0.483703,-0.94021 c -2.15621,-1.269097 1.488335,2.26792 0,0 z m 1.57851,-0.0244 c -1.140541,-1.838187 -0.651011,1.872315 0,0 z m -1.154178,-0.638143 c -0.561405,-0.979747 -0.352687,0.908153 0,0 z m -2.059917,-0.406218 c 0.396915,-1.215049 -2.125283,-0.963005 -0.359511,0.128068 -2.935759,-2.620314 -0.905688,0.99431 0.359511,-0.128068 z m 3.434346,-1.417008 c -0.596387,-0.982126 -0.627438,0.516617 0,0 z m -2.534499,-0.256335 c -0.785252,-0.873673 -1.008087,0.45503 0,0 z m 0.342855,-0.639959 c -1.179577,-0.965593 0.177989,0.856229 0,0 z M 56.42956,72.264489 c -0.240859,-0.527014 -0.972176,0.810795 0,0 z m 4.261564,-0.213161 c -1.077919,-1.065514 -0.434343,0.975244 0,0 z m 0.227861,-0.599998 c -0.596383,-0.982126 -0.627443,0.516619 0,0 z m -1.753078,-1.857262 c -1.302583,0.858217 -0.821976,2.063831 0,0 z m -6.315925,-0.104971 c -2.270453,-2.601179 -1.12249,2.894016 0,0 z m 7.027959,0.829134 c 0.02069,-0.939026 -1.052193,0.979491 0,0 z m -1.788638,-0.898892 c -1.153189,-0.31204 -0.08132,1.447875 0,0 z m -1.464112,-0.401686 c -1.277705,-0.269909 -0.348262,1.671866 0,0 z m 1.235838,-1.368211 c -1.441906,-0.307417 -0.717904,2.84674 0.110271,0.199907 z m 3.738337,1.21841 c -0.768114,-1.487163 -1.2899,0.943183 0,0 z M 56.30117,66.537548 c -0.779544,-2.312833 -4.014471,0.533625 -1.497468,1.985805 0.518343,-0.646761 1.068515,-1.273256 1.497468,-1.985805 z m -2.5352,1.662796 c -1.474749,-1.901088 -0.397414,0.210215 0,0 z m 6.784096,-0.07873 c -0.04917,-1.141777 -0.861255,0.807676 0,0 z m -1.001081,-0.950296 c 0.70554,-1.125258 -1.397556,1.417213 0,0 z M 59.054948,66.73849 c 0.05916,-1.770054 -1.68003,1.227812 0,0 z m 1.239671,-0.49837 c -0.0025,-1.039437 -0.655984,1.226761 0,0 z m -9.073342,-0.789633 c -0.357878,-0.800872 -0.982959,0.507339 0,0 z m 2.381951,-1.158728 c -2.331342,-1.070644 -0.305355,3.103509 0,0 z m 0.745962,0.61776 c -0.955688,-0.18106 -0.568456,1.491952 0,0 z m 6.000243,0.178325 c -1.165487,-0.336842 -1.376197,1.031756 0,2e-6 z m -8.901422,-0.513073 c -0.561407,-0.979745 -0.352688,0.90815 0,0 z m 5.985341,-0.688861 c -1.35486,-2.231133 -1.51233,2.694577 0,0 z m 1.84459,0.50889 c -0.500519,-0.83521 -0.499301,0.826001 0,0 z M 50.75408,63.843631 c -0.728901,-1.529187 -1.754458,1.062882 0,0 z m 9.158201,-0.383584 c -0.247821,-1.180841 -0.924848,1.453593 0,0 z m -3.858783,-0.208331 c 0.52659,-1.903502 -1.689254,1.379307 0,0 z m -3.690249,-0.148738 c -0.344349,-0.779708 -0.510061,0.83546 0,0 z m 2.877005,-0.468714 c 0.0076,-0.971877 -0.888482,0.896209 0,0 z m -4.464666,-0.71613 c 0.649199,-1.092671 -1.304253,1.398132 0,0 z m 5.959741,0.235659 c -0.561402,-0.979746 -0.352692,0.908149 0,0 z m -2.99519,-0.272083 c -0.344355,-0.779705 -0.51005,0.835462 0,0 z M 20.665861,76.188433 c -2.511999,-3.099162 3.556899,-0.416549 0.584765,0.459693 l -0.584758,-0.459693 z m 0.590855,-0.456646 c -1.775337,-0.990101 1.077515,1.487728 0,0 z m 11.68729,-0.489024 c 0.319111,-2.993477 1.941944,2.051551 0,0 z m -4.736758,-5.549359 c 0.886366,-2.27037 0.600547,1.507781 0,0 z m 37.245588,-1.873487 c -2.087172,-3.899149 3.28999,1.977986 0,0 z M 33.50593,67.517929 c -3.808364,1.16156 -3.861417,-7.829497 -0.219055,-4.000551 0.332156,1.218788 4.11312,5.685516 0.219055,4.000551 z m -0.244265,-0.878533 c -0.344349,-0.779708 -0.510056,0.835461 0,0 z m -0.686351,-0.858478 c -1.745325,-1.293909 0.483882,2.03609 -7e-6,0 z m 0.566149,-0.37553 c 0.0076,-0.971877 -0.888483,0.89621 0,0 z m -0.410485,-0.645672 c -0.764036,-0.278591 -0.597414,0.452854 0,0 z m -1.365182,-0.374319 c -0.775695,-1.017938 -0.729602,1.072515 0,0 z m 1.654458,-0.460621 c -0.344346,-0.779708 -0.510058,0.83546 0,0 z m -1.572262,-0.560002 c -0.931221,-0.355679 0.597838,1.073938 0,0 z m 1.209953,0.08957 c -0.440095,-1.254959 -0.867399,0.776701 0,0 z m 7.770371,2.320586 c -1.962404,-2.615831 3.937838,-5.151457 1.562665,-1.080553 -0.05789,0.49958 -1.071547,2.345824 -1.562665,1.080553 z m 1.203775,-1.920336 c 0.325493,-1.677508 -1.142128,1.375407 0,0 z M 22.219044,64.96387 c -1.738878,-3.107756 3.858674,-0.187515 0.584296,0.599478 z m 1.129713,-0.628193 c -0.564906,-0.884907 -0.501304,0.841415 0,0 z M 76.543075,62.34042 c 0.950603,-1.751702 0.949444,1.510128 0,0 z m 7.297337,0.37552 c -1.27223,-3.131073 3.285319,-1.630229 0.633413,0.0067 l -0.378859,0.07001 -0.254551,-0.07671 z m -55.6467,-2.169872 c -2.38352,-3.753301 3.026522,2.834831 0,0 z m 31.438364,-0.587709 c -2.699059,-3.078812 2.83021,-4.113688 3.033371,-0.556924 0.440723,1.686591 -2.538648,2.02045 -3.033371,0.556924 z m 2.037339,0.281683 c -0.07466,-1.32044 -0.779747,0.78611 0,0 z M 60.91103,59.176731 c -0.935724,-0.352673 0.597502,1.073194 0,0 z m 1.340992,0.325991 c -0.872623,-1.555516 -0.783613,0.9092 0,0 z m -0.80921,-0.76123 c 0.0076,-0.971877 -0.888471,0.896211 0,0 z m -1.381974,-0.707454 c -0.838601,0.804186 -0.277279,0.195679 0,0 z M 47.37154,60.326684 c -3.765683,-2.701308 3.53992,-5.735157 3.78631,-1.047549 -0.824476,1.08198 -2.404859,1.664096 -3.78631,1.047549 z m 1.969061,-0.974853 c -1.337706,-1.129878 0.209794,1.659596 0,0 z m -1.829171,0.02547 c -0.872621,-1.555516 -0.783617,0.909197 0,0 z m 2.532595,-0.209408 c -1.443288,-2.831319 -0.422808,1.125062 0,0 z m -2.20055,-1.488649 c -1.657929,0.176385 0.662152,1.719436 0,0 z m 2.134368,0.05464 c -1.563897,-0.924789 0.668606,1.380118 0,0 z m 19.434416,1.528634 c -0.05543,-3.101981 2.41749,2.441451 0,0 z M 36.36477,58.660074 c -1.968917,-3.30254 5.701108,-5.575996 3.282289,-0.769589 -0.152789,1.486686 -2.52571,1.947103 -3.282289,0.769589 z m 2.618755,-1.953207 c -1.793175,-1.374043 0.865974,1.522647 0,0 z m 0.306952,-0.496542 c -1.095442,-1.405282 0.267694,1.331169 0,0 z m 10.338106,0.149616 c 0.854114,-2.620458 -2.912539,-5.601793 -2.488445,-7.248651 -1.947525,3.013227 -2.201455,-4.966692 -0.0038,-3.918029 3.220157,1.348403 -2.244791,-1.524144 0.103422,-3.069478 1.634166,-2.831807 1.658944,-7.801707 4.847294,-9.042407 2.208372,1.063104 5.105614,-2.648798 1.666223,-2.11034 -5.035213,0.119439 4.530049,-0.883442 -0.376869,-1.354193 -1.991024,0.468805 0.707402,-2.339167 0.743959,-3.247455 1.500403,-2.783888 3.234105,-5.110672 3.818424,-8.222903 1.568254,-3.414597 3.009901,-7.189436 3.08652,-10.8618745 -3.851202,-2.7599335 -5.209619,4.4421175 -8.322766,5.0605955 -0.717946,1.946958 -3.39302,5.195873 -4.611304,7.86012 -1.237672,2.983581 -4.951377,1.577529 -6.007784,4.471677 0.63322,-3.639263 -6.859752,-4.24044 -4.985774,-9.062806 0.316236,-2.301124 2.696991,-4.446115 4.50124,-4.928121 1.97539,-2.3454175 3.730505,-6.4996132 7.15474,-6.8269316 1.97054,0.3484807 4.014138,-2.5502603 0.878355,-1.2670609 -4.047879,2.0745743 0.164014,-1.0283961 1.771057,-1.2147981 -1.786564,-2.7328742 3.365788,-1.29803381 2.209822,-2.9010803 1.871815,0.1324629 2.996002,-2.2389175 5.253882,-1.264199 1.294158,-1.4663926 0.162876,3.12436765 1.267505,0.7901253 -0.0071,-3.5105648 4.107878,1.91165167 3.708533,-0.5276297 2.510652,1.81719558 4.634885,2.17078845 6.190342,5.1159544 2.620319,1.9938682 3.228604,5.7196362 2.625574,7.5483479 -2.148728,0.742116 2.089618,0.854694 -0.9336,1.46747 2.868889,1.048144 0.0543,5.323336 -0.605258,7.519849 -1.816863,4.85272 -4.977382,9.110295 -6.654722,13.995005 -1.768896,2.807872 -3.745835,6.087959 -4.998907,9.451446 -2.107994,2.521885 -0.72687,6.183568 -0.78297,9.628905 0.495776,3.328136 -3.257509,4.912428 -5.953742,3.380985 -2.087115,-1.907819 -1.854737,0.684909 -3.100905,0.777477 z m 8.583786,-3.503884 c -1.51586,0.177271 -0.255908,2.243201 0,0 z m -5.774284,0.383682 c 0.02068,-0.939028 -1.05219,0.979498 0,0 z m 5.136092,-0.680676 c -0.173409,-0.85389 -1.100318,1.007235 -0.158902,0.258921 z m -0.530425,-0.958688 c -0.74713,0.0056 -0.674414,0.923419 0,0 z M 48.85516,50.044592 c -0.514705,-1.321853 -0.792276,0.789506 0,0 z m 0.689394,-0.378746 c -0.849253,-1.771853 -0.320726,1.105739 0,0 z m 7.138917,-0.197682 c -0.596384,-0.982122 -0.627439,0.516623 0,0 z m -2.882609,-0.902171 c -1.732975,-1.578465 0.716493,1.522948 0,0 z m 1.059048,-0.310628 c -1.188416,-0.498117 0.361323,1.192349 0,0 z m 2.739808,-0.01239 c -0.596387,-0.982125 -0.627439,0.516624 0,0 z M 47.323999,47.050163 c -0.731712,-2.603016 -1.983909,0.753914 0,0 z m 7.509394,-0.552864 c -2.936704,-1.293744 1.321413,1.849474 0,0 z m 1.105139,-0.414428 c -2.772698,-1.439785 1.918399,2.227286 0,0 z m -2.722779,0.20219 c -0.723288,-0.143527 -1.039214,1.149224 0,0 z m -2.210518,-0.332128 c -1.289875,-1.856116 -0.927462,1.293662 0.235154,0.488641 z m 1.164897,-1.16366 c -2.417123,-0.954301 0.101259,3.612468 0.858572,0.47785 -0.286191,-0.159283 -0.572381,-0.318567 -0.858572,-0.47785 z m 5.020698,0.423042 c -2.72132,-1.292736 0.192703,2.189669 0,0 z m -7.221823,-0.232632 c 0.397088,-1.443322 -1.250123,1.145395 0,0 z m 6.8925,-0.71098 c -1.882792,-0.144612 -2.417023,1.670062 -0.342465,0.197787 z m 1.070025,0.633481 c 0.0076,-0.971882 -0.888481,0.89621 0,0 z m -9.471801,-0.388842 c -1.942307,-3.308079 -0.994349,0.755342 0,0 z m 0.40051,-1.492159 c -1.99605,-2.229202 0.509675,3.065968 0.522271,0.699572 z m 6.189749,1.239989 c 0.514437,-1.158037 -1.789029,0.769922 -0.302918,0.258655 z m -4.27471,-0.42733 c -0.942327,-0.47451 -0.0011,1.096544 0,0 z m 5.596537,-1.364831 c -0.640465,-0.650617 -0.73265,1.153603 0,0 z M 54.57174,41.364499 c 1.225519,-1.026258 -1.85419,-2.501753 -1.975278,-0.481691 -0.369883,1.875069 1.189543,1.520679 1.975278,0.481691 z m -3.562966,0.273018 c -1.065153,-0.880108 -0.0016,0.836763 0,0 z m 4.606435,0.0392 c -0.306148,-0.918708 -0.970337,0.866715 0,0 z m -3.896246,-1.199352 c -0.955386,-0.210855 0.449818,1.390397 0,0 z m 6.848393,-0.256631 c 0.644194,-2.477113 -2.519583,1.926213 0,0 z m -9.336265,-0.09641 c -0.775703,-1.017936 -0.72959,1.072509 0,0 z m 3.480607,-0.299829 c 0.05549,-1.893061 -1.444796,1.17459 0,0 z m 2.781293,0.125 c -0.561404,-0.979745 -0.352691,0.908153 0,0 z m 2.276803,-0.6057 c 2.250249,-3.895922 -3.138747,2.681553 0,0 z m -6.514569,-0.213816 c -0.931608,-3.071918 -0.127443,2.540383 -7e-6,0 z m 8.913401,-0.03386 c -1.417692,-2.452125 -1.184629,2.527166 0,0 z M 49.889789,38.73518 c -0.346922,0.555415 0.178793,1.446143 0,0 z m 4.448569,0.464704 c -0.564906,-0.884907 -0.501306,0.841415 0,0 z m 2.605077,-0.804444 c 1.696548,-0.738499 -0.500683,-2.968568 -1.100761,-1.377767 -1.332549,0.94666 0.145191,3.710696 1.100761,1.377767 z m -3.52838,0.303394 c -0.50052,-0.83521 -0.499301,0.826001 0,0 z m -0.923142,-0.461466 c -1.997446,-2.167858 -0.827575,0.856246 0,0 z m 1.716476,-0.254534 c -0.276646,-1.518031 -1.425896,0.86468 0,0 z m 6.689098,0.03988 c -1.179576,-0.965592 0.177987,0.856227 0,0 z m -7.7563,-1.221868 c -2.861618,-2.720138 -1.501061,2.464437 0,0 z M 55.35969,36.50441 c 0.29115,-2.690347 -2.019673,2.696228 -2e-6,0 z m -1.156126,-0.573085 c 0.248626,-2.145376 -3.175335,0.359544 -0.277287,0.374013 l 0.277287,-0.374024 z m 2.058657,-1.254646 c -1.308542,-1.672112 -0.149122,2.322121 0,0 z m 2.785875,0.172158 c -0.747144,0.0057 -0.674397,0.923411 0,0 z m -3.971603,-0.404854 c -0.826759,-1.249449 -1.861582,1.338599 0,0 z m 2.235885,-0.150731 c -0.5614,-0.97975 -0.352692,0.908152 0,0 z m 3.99093,-2.171713 c -1.746514,0.715068 0.374619,4.172218 0,0 z m 0.95494,0.734216 c 0.0076,-0.971883 -0.88849,0.896215 0,0 z M 57.40995,32.167539 c 0.59491,-2.070488 -2.306302,0.68645 0,0 z m 1.457974,-1.131292 c -1.816298,-1.967874 -1.638515,1.537296 0,0 z m 3.955483,-0.779505 c -0.481775,-0.869923 -0.442338,1.185537 0,0 z M 58.848652,29.80593 c -1.047299,-1.206202 -0.978502,1.281478 0,0 z m -3.75854,-1.461054 c -3.755963,-1.755735 2.35048,3.014345 0,0 z m 1.226595,-0.286669 c -0.711469,-4.139658 -2.6606,0.74718 0,0 z m 0.945005,-2.199076 c -2.13061,-3.296669 -0.548181,3.971668 0,0 z m 3.129766,1.062413 c 0.0076,-0.97188 -0.888481,0.896211 0,0 z m -0.569734,-1.757501 c 0.446982,-2.218039 -1.796116,1.881851 -2e-6,0 z m -0.481523,-1.502799 c -0.48188,-4.468879 -2.138019,3.863946 -0.127819,0.326204 z m -1.986387,0.398589 c -0.641542,-1.156527 -0.295652,1.259969 0,0 z m 6.356814,-0.870649 c -1.912674,-0.849466 -0.855827,2.758098 0,0 z m -5.798689,-0.364112 c -0.523882,0.06517 -0.448186,1.539169 0,0 z m 9.662305,-0.666299 c -0.83428,0.429712 -0.722718,1.762924 0,0 z m -0.983442,-1.056715 c -1.458403,0.428841 -0.177912,2.083742 0,0 z m -22.112715,0.505544 c 0.0076,-0.97188 -0.888484,0.89621 0,0 z M 44.128593,20.61824 c -0.34435,-0.779707 -0.510057,0.835461 0,0 z m 3.811002,-1.142862 c -1.303726,-0.308219 -0.45237,1.481797 0,0 z m 12.626142,0.406828 c -0.0025,-1.039442 -0.65598,1.226767 0,0 z m -13.907638,-0.22883 c -0.561404,-0.979746 -0.352688,0.90815 0,0 z m 12.113086,-1.061027 c -1.520082,0.372083 -0.540116,2.199687 0,0 z M 43.31541,18.885143 c 0.01795,-0.872444 -1.056646,0.905124 0,0 z m -1.503202,-1.050384 c -2.420158,-1.370834 1.034429,2.344223 0,0 z m 5.479223,0.637259 c -0.247819,-1.180841 -0.924852,1.453589 0,0 z m -1.793005,-0.801283 c -0.822775,-2.316485 -0.802337,2.427993 0,0 z m 3.454203,-0.123014 c -0.6148,-0.805651 -0.376943,1.498648 0,0 z m -0.82638,-0.259817 c 0.0111,-1.808145 -1.07034,1.363571 -7e-6,3e-6 z M 43.191116,16.65016 c -2.260312,-2.486129 -1.160294,1.212868 0,0 z m 17.022849,-0.51874 c 1.568084,-2.93658 -1.966314,2.848561 0,0 z m 10.845134,0.523825 c -0.896446,-2.106844 -1.651568,2.65813 0,0 z M 48.689481,15.954291 c -1.493128,-0.312142 0.583206,1.035425 0,0 z m 21.4452,-0.07309 c -0.555093,-0.736248 -0.689697,1.152731 0,0 z m 1.612804,0.148852 c -0.459967,-1.163824 -0.441419,1.478355 0,0 z M 50.320222,15.623979 c 0.751603,-1.735741 -1.366744,1.202243 0,0 z m -8.799941,-0.406828 c -0.247818,-1.180841 -0.924853,1.453589 0,0 z m 8.348971,-0.482123 c -0.08677,-1.794489 -1.598596,2.092095 0,0 z m 12.92084,0.185325 c 0.6492,-1.092674 -1.30425,1.398135 0,0 z M 39.960508,13.999009 c -2.220774,-0.805071 1.013988,1.851095 0,0 z m 11.51217,0.270203 c -0.561404,-0.979744 -0.352693,0.90815 0,0 z M 40.693472,12.889708 c -2.604739,-1.210274 1.259827,2.387084 0,0 z m 2.476727,-0.493523 c -0.856559,-0.265555 -0.230878,1.734993 0,0 z m 1.155892,0.194784 c -0.459965,-1.163828 -0.441421,1.478357 0,0 z m 4.48207,0.193029 c -0.345437,-1.336744 -1.681121,0.675537 0,0 z m 16.708658,0.262985 c -0.596385,-0.982118 -0.627441,0.516622 0,0 z m 5.757371,-0.200719 c -2.330015,-1.012776 1.540113,1.450205 0,0 z M 42.279358,11.786667 c 0.705542,-1.12526 -1.397558,1.417212 0,0 z m 21.964476,0.128073 c -0.240863,-0.527013 -0.972172,0.810795 0,0 z m 1.667054,0.108965 c -0.764019,-0.278601 -0.59744,0.452836 0,0 z M 46.62326,11.130934 c -0.459966,-1.163828 -0.441419,1.478359 0,0 z m 7.255699,0.19959 c 0.01794,-0.872441 -1.056642,0.905125 0,0 z m 14.162327,-0.481433 c -0.596387,-0.9821153 -0.62744,0.516622 0,0 z m 1.567221,-2.220588 c 0.603837,-1.7147842 -2.391081,1.455023 -0.975033,1.570489 1.126687,1.091273 0.805219,-1.0994719 0.975033,-1.570489 z m 1.958506,0.8801409 c -1.362117,0.8369251 -0.575007,1.9565631 0,0 z M 46.042978,10.030864 c 0.0076,-0.9718791 -0.888446,0.896192 0,0 z m 19.91991,-0.5452643 c -2.393795,-2.4337532 -1.250318,1.4662753 0,0 z M 50.64639,9.3302409 c -1.209772,-0.9620069 -0.249293,1.0168061 0,0 z M 43.966051,9.0268007 c 0.02068,-0.939028 -1.052189,0.9794993 0,0 z M 68.031145,8.3684818 c 1.757594,-2.613008 -2.462933,2.6269922 0,0 z M 51.564652,8.5982641 c -1.179572,-0.9656033 0.177964,0.8562334 0,0 z M 48.914944,8.3291204 c -0.561418,-0.9797436 -0.352679,0.9081373 0,0 z M 66.063041,7.9201922 c -1.037578,-2.8869074 -0.477822,2.4991028 0,0 z M 67.05254,7.1517745 c -0.09069,-2.9242802 -1.528831,1.7384431 0,0 z M 72.390212,6.2618354 C 70.305811,3.486647 69.961993,10.01082 72.235929,6.572619 L 72.390281,6.2618355 Z M 47.989179,7.2261129 c -0.425873,-0.9193466 -1.15516,0.5920898 0,0 z m 0.918816,-0.5968451 c -1.347137,-1.6099264 -0.912463,0.9961715 0,0 z m 1.381822,-0.014621 c -0.564897,-0.8849017 -0.501315,0.8414121 0,0 z M 69.730121,6.128273 c 0.254792,-1.5180373 -0.952932,1.3162284 0,0 z M 59.544518,5.6576838 c -1.246835,-0.5359628 0.619013,1.1280245 0,0 z m 4.800357,-0.1775513 c -0.749183,-3.7238275 -1.620965,2.0508154 0,0 z m 4.90464,-1.7910481 C 67.465068,2.9791225 68.146181,8.2033693 69.359853,4.4914243 69.61132,4.2727091 69.568487,3.8178421 69.249515,3.6890844 Z M 51.305157,5.4183331 c -1.838841,-1.5714721 -2.059876,0.431231 0,0 z m 7.383339,-0.7050015 c -1.114011,-0.4210109 0.124262,1.5073734 0,0 z m 1.499736,0.6594481 c -1.474724,-1.9010501 -0.39743,0.2101894 0,0 z M 56.463396,4.3373176 c -0.487513,-1.2570024 -0.948316,1.7532463 0,0 z M 51.592404,3.7585595 c -3.497846,0.059445 0.488279,1.6024539 0,0 z m 1.218144,-0.2556737 c -0.853218,-0.8495917 -0.679051,2.0762276 0,0 z M 65.620298,2.1500465 C 62.809702,1.9588648 65.829572,5.4740058 66.327462,2.4635015 66.194005,2.339265 65.835906,2.2516286 65.620298,2.1500465 Z m 1.498525,1.2170866 c 0.705542,-1.1252613 -1.397554,1.4171912 0,0 z M 52.345575,2.4399874 c -0.561417,-0.9797428 -0.352676,0.9081386 0,0 z M 53.611337,2.204161 c -0.306147,-0.918705 -0.970335,0.8667162 0,0 z M 55.91153,1.4839426 c -0.383192,-0.90839434 -1.240091,0.9006916 0,0 z M 54.475741,1.3099734 c -1.640581,-0.2008065 -0.07654,0.3973214 0,0 z m 5.580572,-0.03736 c 0.01794,-0.87244411 -1.056651,0.9051265 0,0 z M 59.318815,0.82606613 C 60.29378,-3.1003699 55.208185,1.619406 58.949308,1.1254614 L 59.318811,0.82606613 Z M 62.65758,0.67125757 c -1.368379,-1.46478858 0.42994,1.86663783 0,0 z M 54.920999,0.18773028 C 53.994915,-1.031259 52.666455,1.58424 54.860242,0.73520751 c 0.901061,0.0746058 0.48208,-0.0316811 0.06076,-0.54747723 z m -1.893532,0.0386878 c 0.349562,-1.02180949 -1.959496,0.88135432 0,0 z m 2.953727,-0.81720388 c -0.699431,-1.1136509 -0.988665,1.6565824 0,0 z m 5.069798,-1.2480298 c -1.117958,-0.7121821 -0.0022,2.22765412 0,0 z m -5.605914,0.407251 c -0.747073,0.00558 -0.674477,0.92346832 0,0 z m 1.488663,-0.5583461 c -0.69439,-1.4607812 -0.816419,2.65290685 0,0 z m 0.781438,0.6405283 c -0.0025,-1.0394203 -0.655975,1.22674493 0,0 z m 6.705548,0.1959882 c -0.240867,-0.527002 -0.972171,0.81080085 0,0 z M 44.822467,55.505097 c -2.245042,-3.125544 4.824968,-1.873868 2.825762,0.674949 -0.959677,0.340766 -2.312545,0.420592 -2.825762,-0.674949 z m 2.104238,0.164482 c -1.071795,-0.540898 -0.927164,0.882631 0,0 z m -1.021119,-1.07674 c -0.849771,-0.124955 0.660954,1.443109 0,3e-6 z m 0.664336,-0.170048 c -0.56141,-0.979743 -0.352687,0.908151 0,0 z m -18.039347,1.12172 c -2.486372,-3.193506 3.848489,-6.318772 2.80067,-1.429857 -0.09318,0.861639 -2.055799,2.568945 -2.80067,1.429857 z m 1.229891,-0.278363 c -0.344347,-0.77971 -0.510054,0.83546 0,0 z m -0.348507,-0.742757 c 0.0076,-0.971878 -0.888476,0.896209 0,0 z m 0.340442,-1.230088 c -1.281911,-0.452903 0.785453,0.968101 0,0 z m 1.210031,-0.667845 c -0.774419,-0.457891 -0.245956,1.923933 0,-5e-6 z m -0.656111,0.02078 c -0.05465,-1.760341 -1.162571,1.394617 -7e-6,0 z m 40.216243,1.77991 c 0.235731,-4.6835 6.488377,0.462267 1.683573,0.636856 -0.507273,-0.0166 -1.891233,0.402345 -1.683573,-0.636856 z m 2.072707,-0.0285 c -0.560241,-0.962565 -0.921111,0.977744 0,0 z M 72.01745,53.89953 c 0.10571,-1.936997 -1.575804,1.019252 0,0 z m 1.497655,0.150596 c -0.596385,-0.982126 -0.627439,0.516624 0,0 z M 21.04634,50.938196 c -2.931937,-3.70925 3.589232,-1.263886 0.827577,0.537366 L 21.45733,51.297707 Z m 0.257367,-1.305253 c -0.0025,-1.039421 -0.655972,1.226749 0,0 z m 40.780598,-0.279591 c -0.805998,-3.247752 4.713065,-1.130897 1.341656,0.673737 -0.54488,0.287829 -1.162529,-0.165461 -1.341656,-0.673737 z m 1.338607,-0.475184 c -0.861823,-1.114407 -0.02082,1.533965 0,0 z m -23.555004,-0.06084 c 2.047967,-3.818988 1.498702,1.540398 0,0 z M 23.271379,45.407444 c 0.993028,-1.95908 0.722099,0.32766 0,0 z m 8.067599,-0.474288 c -0.914583,-1.879509 1.669483,-4.684084 0.852016,-1.010318 0.0476,0.412787 -0.146188,1.643836 -0.852016,1.010318 z m 33.847997,-0.189573 c -2.244136,-1.625628 3.085158,-3.658328 0.929219,-0.07876 l -0.189969,0.280806 -0.739249,-0.202051 h -10e-7 z m 0.830269,-0.874145 c 0.333138,-1.839898 -1.045418,1.219898 0,0 z m 3.73227,0.202834 c -2.830107,-1.021913 0.732128,-4.610333 0.855857,-1.076728 0.354337,0.689691 -0.044,1.413274 -0.855857,1.076728 z m 0.03149,-2.028421 c -0.344351,-0.779705 -0.510054,0.835462 0,0 z m -30.161358,0.08388 c -3.052272,-2.091414 -0.395641,-5.941791 2.08426,-2.672356 1.497241,2.464088 0.798472,4.661613 -2.08426,2.672356 z m 1.762213,-1.087611 c -2.200405,-1.08961 0.553572,2.074678 2e-6,0 z M 39.91158,39.340164 c -1.195438,0.22882 0.334067,1.59763 0,0 z m 1.762615,0.61505 c -0.497245,-1.198698 -0.492015,1.189396 0,0 z m -2.192593,-1.128343 c -0.975564,-0.87104 -0.320431,0.881143 0,0 z m -6.781381,3.149272 c -1.906126,-1.53169 3.845323,-5.04431 2.369891,-0.857218 -0.268069,1.111502 -1.460476,1.844976 -2.369891,0.857218 z m 1.465772,-0.679177 c -0.624316,-1.665775 -1.17109,0.639994 0,0 z M 34.5368,40.525527 c -0.872623,-1.555515 -0.783611,0.9092 0,0 z m -12.046376,0.930981 c -1.171739,-2.763476 4.612601,-5.39743 2.302886,-1.16111 -0.216217,0.832634 -1.49318,1.846729 -2.302886,1.16111 z m 1.712478,-0.725219 c 0.649203,-1.09268 -1.304255,1.398142 0,0 z m -0.362558,-0.334995 c -0.366856,-2.418085 -0.976488,1.093031 0,0 z M 24.722,38.789701 c 0.02201,-0.953826 -0.912169,1.226692 0,0 z m 59.633983,0.732579 c -3.249105,-0.339187 -0.735523,-5.685234 0.865485,-1.539193 0.836755,1.314652 0.996205,2.089929 -0.865485,1.539193 z M 83.89931,38.588329 c -0.65987,-1.203287 -0.04113,1.230529 0,0 z m 0.610401,-0.972518 c -1.488986,-0.873789 0.679267,1.395404 0,0 z M 68.26753,33.998959 c -1.009468,-2.522693 2.599585,1.391871 0,0 z m -0.367284,-1.3116 c 1.404278,-2.695897 0.422649,1.118441 0,0 z M 27.408348,32.016703 c -1.530528,-2.384148 1.774004,-4.729346 1.660994,-1.019557 -0.264588,0.518923 -0.946546,1.875927 -1.660994,1.019557 z m 1.102722,-0.681088 c 0.561427,-1.739523 -1.08993,1.753087 0,0 z m -0.464691,-0.994154 c -1.163673,-1.468591 -0.570144,1.963272 0,0 z m 0.222165,-0.863346 c -1.435872,-0.970875 0.820095,1.2441 0,0 z m 41.005948,1.341267 c -2.544712,-1.343606 1.653094,-6.428928 2.205593,-2.226738 -0.0089,0.494479 -2.414553,3.475875 -2.205593,2.226738 z m 1.372235,-2.3601 c -0.574851,-0.607549 -0.436985,1.321212 0,0 z m -0.692863,-0.469983 c -0.564902,-0.884909 -0.50131,0.841412 0,0 z m 3.793715,-0.2329 c 0.689706,-3.15937 1.717888,1.901764 0,0 z m -42.03811,-2.990037 c 1.086805,-4.526791 3.076266,1.600678 0,0 z M 49.21144,24.518745 c -1.623863,-1.976241 0.730791,-6.655881 2.51677,-4.080372 1.453838,1.818472 -0.754745,5.752612 -2.51677,4.080372 z m 0.686285,-1.138849 c -0.500519,-0.835209 -0.499299,0.826002 0,0 z m 1.036448,0.0088 c 0.0076,-0.971875 -0.888468,0.89621 0,0 z m 0.687942,-0.733936 c -0.306149,-0.91871 -0.970334,0.866713 0,0 z m -2.209599,-1.327989 c -0.90584,-0.145723 -0.162227,2.056299 0,0 z m 1.74089,-0.648775 c 0.01794,-0.872444 -1.056642,0.905128 0,0 z m 36.686225,2.143484 c -2.397771,-1.704702 2.883092,-3.65094 2.54417,-1.222334 0.505665,1.68496 -1.534265,1.680073 -2.54417,1.222334 z m 0.745537,-0.729845 c -1.528462,-1.590643 -0.461584,1.798757 0,0 z m 0.6235,-1.238813 c -0.764042,-0.278592 -0.597404,0.452857 0,0 z m -16.808232,0.238141 c -2.524059,-2.341896 1.833154,-0.161769 0.637212,0.465667 z m 10.217401,0.372572 c -3.054085,-0.54257 -0.370466,-4.605001 1.21953,-1.435669 1.348681,1.443784 0.243103,1.944241 -1.21953,1.435669 z m -0.02596,-0.626772 c -0.426037,-0.919391 -1.155053,0.592168 0,0 z M 81.818279,19.64429 c -0.400251,-0.06988 0.248375,1.636813 0,0 z m -53.125357,0.71464 c -0.260347,-2.405076 1.753871,-3.141498 1.931488,-0.814193 -0.561227,0.340249 -1.331637,1.752465 -1.931488,0.814193 z m 0.775846,-0.481966 c -0.09224,-1.350563 -0.666537,1.271733 0,0 z m -0.07072,-8.323247 C 28.049177,9.7281804 30.761662,6.3131581 31.186719,9.7811148 32.635457,10.968419 30.185718,13.049469 29.398048,11.553717 Z M 29.73514,10.58561 c -0.407708,-0.473997 0.152635,1.430167 0,0 z m 0.993068,-0.286447 c -1.218527,-0.8213564 -0.853621,0.430053 0,0 z M 30.492224,8.9121112 c -0.561418,-0.9797449 -0.35268,0.908139 0,0 z M 30.508884,1.93415 c -2.804802,-4.3676506 3.620579,2.6050751 0,0 z"
         id="path5241"
         inkscape:connector-curvature="0" />
      <path
         style="fill:#0c0ced"
         d="m 25.280212,79.926244 c -0.265259,-0.213811 -0.558301,-0.641077 -0.651206,-0.949482 -0.143507,-0.476386 -0.11923,-0.519498 0.161393,-0.286603 0.253194,0.210132 0.392094,0.212346 0.594954,0.0095 0.329476,-0.329476 0.34776,-1.074647 0.02637,-1.074647 -0.131053,0 -0.175702,-0.10125 -0.09922,-0.225 0.07648,-0.12375 0.51277,-0.22345 0.969529,-0.221555 0.616404,0.0026 0.743475,0.05923 0.492971,0.219863 -0.185625,0.119032 -0.539206,0.153502 -0.785736,0.0766 -0.397922,-0.124125 -0.413057,-0.09743 -0.134834,0.237805 0.257333,0.310068 0.262332,0.473049 0.02795,0.911003 -0.161553,0.301862 -0.206357,0.664764 -0.103226,0.836079 0.129161,0.214554 0.06071,0.20442 -0.235051,-0.0348 -0.348018,-0.281482 -0.399649,-0.284148 -0.311049,-0.01606 0.05843,0.176783 0.283737,0.429908 0.500686,0.5625 0.31379,0.191774 0.479468,0.137547 0.810173,-0.265176 0.228648,-0.278437 0.493077,-0.50625 0.587626,-0.50625 0.09455,0 -0.06589,0.253125 -0.356537,0.5625 -0.621383,0.66143 -0.846727,0.686115 -1.494793,0.163723 z M 36,79.874998 c 0,-0.12375 0.10125,-0.225 0.225,-0.225 0.12375,0 0.225,0.10125 0.225,0.225 0,0.12375 -0.10125,0.225 -0.225,0.225 -0.12375,0 -0.225,-0.10125 -0.225,-0.225 z m -9.324608,-1.219104 c 0.240019,-0.175507 0.484252,-0.271251 0.542739,-0.212767 0.123831,0.123831 -0.456377,0.523366 -0.767385,0.528426 -0.116465,0.0018 -0.01537,-0.140152 0.224646,-0.315659 z M 31.5,78.538278 c 0,-0.116447 0.100091,-0.273582 0.222424,-0.349187 0.127543,-0.07883 0.165262,0.0115 0.08843,0.211721 C 31.661273,78.790606 31.5,78.861924 31.5,78.538278 Z m 1.35,-0.231219 c 0,-0.119865 0.151875,-0.159658 0.3375,-0.08843 0.185625,0.07123 0.3375,0.169304 0.3375,0.21794 0,0.04863 -0.151875,0.08843 -0.3375,0.08843 -0.185625,0 -0.3375,-0.09807 -0.3375,-0.21794 z m -0.747036,-0.391588 c -0.08493,-0.137426 -0.0922,-0.412025 -0.01613,-0.61022 0.10143,-0.264326 0.04167,-0.323283 -0.224271,-0.221232 C 31.663147,77.160537 31.5,77.11106 31.5,76.974071 c 0,-0.46271 0.620613,-0.253089 1.009962,0.341129 0.212693,0.324612 0.28361,0.526482 0.157595,0.448598 -0.126018,-0.07788 -0.269859,-0.01939 -0.319647,0.129967 -0.06461,0.193829 -0.134727,0.200043 -0.244946,0.02171 z M 20.8963,72.956248 c -0.273222,-0.348383 -0.26753,-0.36157 0.0494,-0.114453 0.197011,0.153614 0.441057,0.204239 0.542323,0.1125 0.101267,-0.09174 0.111288,-0.04023 0.02227,0.114453 -0.209202,0.36353 -0.245946,0.356798 -0.613993,-0.1125 z m 11.865273,0.03785 c -0.211797,-0.551931 -0.161757,-0.994097 0.1125,-0.994097 0.136989,0 0.192037,0.148633 0.122325,0.330293 -0.06971,0.181663 -0.02992,0.390139 0.08843,0.46328 0.271505,0.167798 0.281455,0.556427 0.01424,0.556427 -0.110511,0 -0.262386,-0.160155 -0.337495,-0.355903 z M 27.9,67.724998 c 0,-0.12375 0.10125,-0.225 0.225,-0.225 0.12375,0 0.225,0.10125 0.225,0.225 0,0.12375 -0.10125,0.225 -0.225,0.225 -0.12375,0 -0.225,-0.10125 -0.225,-0.225 z m 3.0575,-2.717264 c -0.320375,-0.380743 -0.582122,-0.811055 -0.581659,-0.95625 4.5e-4,-0.145192 0.201474,0.06508 0.446693,0.467264 0.406989,0.667512 0.685147,0.841833 1.20044,0.752319 0.102011,-0.01773 0.121347,0.07154 0.04297,0.198356 -0.233314,0.377512 -0.493491,0.269143 -1.108444,-0.461689 z m 2.040456,0.118505 c 0.06285,-0.163804 0.257782,-0.242761 0.433165,-0.175461 0.422588,0.162162 0.402698,0.224817 -0.114286,0.360011 -0.295723,0.07733 -0.396903,0.01877 -0.318879,-0.18455 z M 22.275,63.661719 c 0,-0.131054 0.10125,-0.175703 0.225,-0.09922 0.12375,0.07648 0.225,0.183708 0.225,0.23828 0,0.05457 -0.10125,0.09922 -0.225,0.09922 -0.12375,0 -0.225,-0.107226 -0.225,-0.23828 z m 9.447698,-0.101995 c -0.229936,-0.277056 -0.346275,-0.287507 -0.626197,-0.05625 -0.302443,0.24986 -0.308691,0.227642 -0.05194,-0.184725 0.160518,-0.257814 0.425455,-0.468751 0.588749,-0.468751 0.163296,0 0.242012,0.08881 0.174926,0.197356 -0.06708,0.108547 4.5e-4,0.344797 0.149947,0.524999 0.149557,0.180205 0.221296,0.327645 0.159421,0.327645 -0.06188,0 -0.239582,-0.153123 -0.394906,-0.340274 z m 0.838764,-0.225031 c -0.355347,-0.48837 -0.358796,-0.534956 -0.03028,-0.408893 0.304691,0.116919 0.3411,0.046 0.204336,-0.398016 -0.09153,-0.297157 -0.08464,-0.462647 0.01532,-0.367753 0.154275,0.146466 0.393912,1.753386 0.258421,1.732898 -0.02571,-0.0039 -0.227218,-0.255096 -0.447797,-0.558236 z M 21.4875,62.774998 c -0.07648,-0.12375 0.02477,-0.225 0.225,-0.225 0.200232,0 0.301482,0.10125 0.225,0.225 -0.07648,0.12375 -0.177732,0.225 -0.225,0.225 -0.04727,0 -0.148518,-0.10125 -0.225,-0.225 z m 1.402499,-0.25292 c 0.152627,-0.153769 0.334179,-0.222901 0.403455,-0.153625 0.06928,0.06927 -0.0556,0.195086 -0.2775,0.27958 -0.32067,0.122103 -0.346513,0.09626 -0.125955,-0.125955 z M 30.375,61.987498 c 0,-0.185625 0.03979,-0.3375 0.08843,-0.3375 0.04864,0 0.146707,0.151875 0.21794,0.3375 0.07123,0.185625 0.03144,0.3375 -0.08843,0.3375 -0.119866,0 -0.217939,-0.151875 -0.21794,-0.3375 z m 52.587963,-1.288599 c 0.124639,-0.15752 0.282841,-0.438275 0.351562,-0.6239 0.08529,-0.230367 0.130588,-0.18444 0.142711,0.144677 0.0098,0.265198 -0.148432,0.545953 -0.35156,0.6239 -0.276289,0.106022 -0.312239,0.06958 -0.142713,-0.144677 z m -0.569099,-0.7364 c 0.0046,-0.37125 0.05501,-0.495887 0.112059,-0.276969 0.05705,0.218919 0.0533,0.522669 -0.0083,0.675 -0.06163,0.152332 -0.108308,-0.02678 -0.103722,-0.398031 z M 28.014748,59.402345 c -0.354443,-0.369958 -0.601198,-0.708583 -0.548345,-0.752496 0.05285,-0.04392 0.384507,0.258779 0.737007,0.672653 0.795888,0.934456 0.677934,0.984375 -0.188662,0.07984 z m 8.09475,-1.649911 c -0.47909,-0.683998 -0.415156,-0.895313 0.233373,-0.771341 0.627507,0.119957 0.97328,-0.159599 0.447131,-0.3615 -0.188838,-0.07246 -0.275065,-0.277011 -0.199636,-0.473578 0.171686,-0.447406 -0.01402,-0.440226 -0.472509,0.01827 -0.200358,0.200356 -0.415919,0.312651 -0.479025,0.249545 -0.06311,-0.06311 0.220151,-0.349454 0.629462,-0.636329 0.244149,-0.232732 0.566805,-0.269279 0.850208,-0.403918 3.454674,-0.792107 1.845755,2.969806 -1.009004,2.378851 z M 36.675,57.487494 c 0,-0.185625 -0.148698,-0.3375 -0.330439,-0.3375 -0.201283,0 -0.279817,0.131915 -0.200928,0.3375 0.07123,0.185625 0.219929,0.3375 0.33044,0.3375 0.110508,0 0.200927,-0.151875 0.200927,-0.3375 z m 0.3375,-1.230343 c -0.414223,0.171409 -0.416756,0.187472 -0.03186,0.202027 0.331592,0.01253 0.38892,0.132244 0.276964,0.578316 1.09372,1.049142 -0.172851,-0.550311 -0.245104,-0.780343 z m -8.349953,-1.127587 c -0.517011,-0.208904 -0.844263,-0.815317 -0.62844,-1.164526 0.08028,-0.129901 0.294475,-0.07554 0.52524,0.133295 0.214319,0.193956 0.432079,0.310239 0.483912,0.258408 0.05183,-0.05183 0.09424,0.150446 0.09424,0.449507 v 0.529488 c 0,-0.0079 -0.213728,-0.10062 -0.474952,-0.206172 z m -0.0463,-0.728316 C 28.454798,54.239797 28.35,54.226513 28.35,54.367498 c 0,0.300325 0.266087,0.566413 0.41625,0.41625 0.06394,-0.06394 -0.0036,-0.236061 -0.150003,-0.3825 z m 1.252759,-0.436433 c 0.0733,-0.280311 0.03612,-0.429093 -0.08806,-0.352345 -0.118214,0.07306 -0.361977,0.03777 -0.541694,-0.07841 -0.236522,-0.15291 -0.131643,-0.198248 0.379789,-0.164176 0.473827,0.03157 0.669699,0.143089 0.594677,0.338591 -0.06153,0.160337 -0.0082,0.291524 0.118456,0.291524 0.126677,0 0.281392,-0.126563 0.343809,-0.28125 0.07166,-0.177604 0.120033,-0.145017 0.131249,0.08843 0.01611,0.335374 -0.404568,0.642823 -0.879574,0.642823 -0.102042,0 -0.128437,-0.218334 -0.05865,-0.485187 z M 30.7125,52.874999 c 0.07648,-0.12375 0.183708,-0.225 0.23828,-0.225 0.05457,0 0.09922,0.10125 0.09922,0.225 0,0.12375 -0.107226,0.225 -0.23828,0.225 -0.131053,0 -0.175702,-0.10125 -0.09922,-0.225 z m -2.5875,-0.675 c 0,-0.12375 0.10125,-0.225 0.225,-0.225 0.12375,0 0.225,0.10125 0.225,0.225 0,0.12375 -0.10125,0.225 -0.225,0.225 -0.12375,0 -0.225,-0.10125 -0.225,-0.225 z m 1.925746,-0.569655 c -0.429024,-0.324498 -0.428454,-0.330345 0.03218,-0.330345 0.257913,0 0.527211,0.151875 0.598444,0.3375 0.162261,0.422847 -0.06553,0.420261 -0.630621,-0.0072 z M 21.6,50.849999 c 0,-0.12375 0.151875,-0.225 0.3375,-0.225 0.185625,0 0.3375,0.10125 0.3375,0.225 0,0.12375 -0.151875,0.225 -0.3375,0.225 -0.185625,0 -0.3375,-0.10125 -0.3375,-0.225 z m -0.717188,-0.6037 c 0.162422,-0.065 0.356485,-0.057 0.431251,0.01775 0.07476,0.07476 -0.05813,0.127944 -0.295313,0.118174 -0.262112,-0.0108 -0.315427,-0.06411 -0.135938,-0.135924 z m -0.501536,-0.666004 c -0.168745,-0.439743 -0.179551,-0.428463 0.586185,-0.611969 0.332728,-0.07974 0.667049,-0.04452 0.742936,0.07827 0.07733,0.125118 -0.0055,0.168187 -0.188452,0.09799 -0.179535,-0.06889 -0.39429,-0.01546 -0.477233,0.118748 -0.08294,0.134206 -0.270372,0.172296 -0.416509,0.08465 -0.151366,-0.09079 -0.132821,0.0045 0.0431,0.22133 0.16984,0.20938 0.205985,0.380691 0.08032,0.380691 -0.125663,0 -0.292319,-0.166367 -0.370347,-0.36971 z M 30.99287,44.943749 c -0.122271,-0.363404 0.06502,-1.090238 0.25146,-0.975839 0.07874,0.04832 0.154256,-0.211968 0.167805,-0.578414 0.01355,-0.366448 0.153502,-0.786807 0.311004,-0.934132 0.229593,-0.214758 0.258165,-0.117315 0.144115,0.49151 -0.07824,0.417656 -0.142254,1.101094 -0.142254,1.51875 0,0.754389 -0.524032,1.096614 -0.73213,0.478125 z M 31.5,44.649219 c 0,-0.192928 -0.102901,-0.287181 -0.22867,-0.209452 -0.125768,0.07773 -0.170419,0.235579 -0.09922,0.350779 C 31.364986,45.10263 31.5,45.044439 31.5,44.649219 Z m 1.017997,-2.213955 -0.607498,-0.484402 0.6385,-0.651791 c 0.351176,-0.358484 0.513097,-0.578421 0.359827,-0.488745 -0.188309,0.110175 -0.235222,0.04982 -0.144677,-0.186141 0.0737,-0.192053 0.224413,-0.349186 0.334924,-0.349186 0.416241,0 0.546666,-0.04511 0.844024,-0.29189 0.234702,-0.194785 0.379397,-0.152696 0.623716,0.181426 0.174965,0.239279 0.265257,0.572801 0.200653,0.741159 -0.06461,0.168361 -0.117466,0.449703 -0.117466,0.625208 0,0.175502 -0.177188,0.317547 -0.39375,0.315652 -0.253107,-0.0022 -0.301325,-0.06249 -0.134989,-0.16875 0.421292,-0.269134 0.488189,-1.627805 0.08015,-1.627805 -0.122974,0 -0.535305,0.430313 -0.916293,0.95625 -0.380988,0.525937 -0.735997,0.930937 -0.78891,0.9 -0.401045,-0.234482 -0.312465,0.02 0.109948,0.315875 0.433784,0.303833 0.61216,0.32162 0.971973,0.09691 0.462771,-0.289004 0.759215,-0.19829 0.535408,0.163836 -0.274633,0.444366 -1.005912,0.422548 -1.59554,-0.04761 z M 22.5,41.77486 c 0,-0.315313 0.105309,-0.638379 0.234018,-0.717925 0.154039,-0.0952 0.179732,0.07328 0.07518,0.49297 -0.140049,0.562174 -0.116869,0.603038 0.195951,0.345427 0.238428,-0.196349 0.402612,-0.214796 0.5006,-0.05625 0.08019,0.12976 0.04687,0.235926 -0.07407,0.235926 -0.120931,0 -0.380032,0.06146 -0.575777,0.136573 C 22.588753,42.314086 22.5,42.205179 22.5,41.77486 Z m 1.689768,-1.053522 c 0.07773,-0.125768 0.235579,-0.170419 0.35078,-0.09922 0.312083,0.192876 0.253892,0.32789 -0.141327,0.32789 -0.192929,0 -0.287181,-0.102902 -0.209453,-0.22867 z m -0.887803,-0.605376 c -0.122103,-0.32067 -0.09626,-0.346513 0.125955,-0.125955 0.15377,0.152627 0.222901,0.334179 0.153626,0.403455 -0.06928,0.06927 -0.195087,-0.0556 -0.279581,-0.2775 z m 1.58544,-0.609122 c 0.123341,-0.323759 0.09009,-0.384943 -0.133933,-0.246487 -0.205743,0.127156 -0.244546,0.09768 -0.125341,-0.09519 0.124333,-0.201175 0.241123,-0.210906 0.417265,-0.03477 0.176139,0.176139 0.1653,0.323327 -0.03873,0.525854 -0.227282,0.225614 -0.250875,0.196058 -0.119261,-0.149407 z m 56.983894,-0.07559 c -0.28564,-0.364221 -0.275051,-0.368995 0.141201,-0.06367 0.2475,0.181546 0.492188,0.358733 0.543751,0.39375 0.05156,0.03502 -0.01197,0.06367 -0.141201,0.06367 -0.129222,0 -0.37391,-0.177187 -0.543751,-0.39375 z m 1.884951,0.122726 C 83.787188,39.404913 83.69442,39.27835 83.5501,39.272725 83.405781,39.2671 82.975469,39.031656 82.593851,38.749513 81.907621,38.24216 81.68929,37.799999 82.125,37.799999 c 0.12375,0 0.225,0.127519 0.225,0.283376 0,0.326867 0.78806,0.878565 0.980325,0.686298 0.271994,-0.271992 -0.332023,-0.939783 -0.978453,-1.081762 -0.664846,-0.146025 -0.953257,-0.562912 -0.389437,-0.562912 0.52448,0 1.287713,0.693218 1.740578,1.580904 0.510259,1.00019 0.533844,1.119096 0.221987,1.119096 -0.12375,0 -0.199688,-0.121961 -0.16875,-0.271023 z M 27.225,33.15995 c 0,-0.29898 0.06108,-0.314354 0.3375,-0.08495 0.185625,0.154055 0.3375,0.318328 0.3375,0.365049 0,0.04672 -0.151875,0.08495 -0.3375,0.08495 -0.185625,0 -0.3375,-0.164272 -0.3375,-0.365049 z m 0.59501,-1.501317 c -0.614954,-0.492097 -0.624595,-0.52821 -0.225,-0.842632 0.371541,-0.292347 0.387794,-0.290335 0.147679,0.01827 -0.21865,0.281019 -0.184916,0.399789 0.177903,0.626373 0.246242,0.153781 0.544844,0.219571 0.663561,0.146201 0.118715,-0.07337 0.215847,0.02445 0.215847,0.217377 0,0.47765 -0.223315,0.439918 -0.97999,-0.165589 z M 32.625,26.19922 c 0,-0.326556 -0.09739,-0.515588 -0.225,-0.436721 -0.12375,0.07648 -0.225,0.03183 -0.225,-0.09922 0,-0.131054 0.151875,-0.23828 0.3375,-0.23828 0.225,0 0.3375,0.225 0.3375,0.675 0,0.37125 -0.05063,0.675 -0.1125,0.675 -0.06188,0 -0.1125,-0.259101 -0.1125,-0.575779 z m 54.39375,-1.598234 c 0.154688,-0.06242 0.407813,-0.06242 0.5625,0 0.154688,0.06242 0.02813,0.113488 -0.28125,0.113488 -0.309375,0 -0.435937,-0.05107 -0.28125,-0.113488 z m 1.29375,-0.300987 c 0.07648,-0.12375 0.183708,-0.225 0.238279,-0.225 0.05457,0 0.09922,0.10125 0.09922,0.225 0,0.12375 -0.107226,0.225 -0.238279,0.225 -0.131054,0 -0.175703,-0.10125 -0.09922,-0.225 z M 81.9,23.268671 c -0.690282,-0.28233 -0.711115,-0.311845 -0.16875,-0.239082 0.800685,0.107417 0.783632,-0.210801 -0.0542,-1.01148 -0.370122,-0.35371 -0.539646,-0.64311 -0.376719,-0.64311 0.400529,0 1.191654,0.872497 1.479116,1.63125 0.264245,0.697476 0.217987,0.711279 -0.879447,0.262422 z m 4.742764,-0.0507 c -0.01017,-0.168471 -0.138139,-0.226568 -0.299014,-0.13574 -0.223283,0.126058 -0.224055,0.09711 -0.0038,-0.140472 0.32004,-0.345132 0.613341,-0.16099 0.438701,0.275429 -0.09705,0.242536 -0.121347,0.242676 -0.135936,6.75e-4 z M 28.606469,22.783796 c -0.178428,-0.333392 -0.123539,-0.481381 0.265558,-0.715989 0.405756,-0.244653 0.441895,-0.244527 0.209223,7.2e-4 -0.436001,0.459583 -0.333018,0.7027 0.225,0.531174 0.278438,-0.08559 0.455625,-0.114385 0.39375,-0.06399 -0.802429,0.65349 -0.868538,0.668489 -1.093531,0.248085 z M 88.3125,22.949999 c -0.07648,-0.12375 -0.03183,-0.225 0.09922,-0.225 0.131053,0 0.238279,0.10125 0.238279,0.225 0,0.12375 -0.04465,0.225 -0.09922,0.225 -0.05457,0 -0.161797,-0.10125 -0.238279,-0.225 z m -7.317014,-0.567978 c -0.156537,-0.188616 -0.241038,-0.386511 -0.187782,-0.439768 0.05326,-0.05326 0.220419,0.101066 0.37147,0.342938 0.326658,0.523062 0.217717,0.580491 -0.183688,0.09683 z M 29.799999,21.499999 c -0.212274,-0.323974 -0.335331,-0.639669 -0.273456,-0.701544 0.06188,-0.06188 0.286182,0.15257 0.498456,0.476544 0.212276,0.323974 0.335333,0.639669 0.273458,0.701544 -0.06188,0.06188 -0.286182,-0.15257 -0.498458,-0.476544 z m 0.576981,-6.713408 c 0.21681,-0.175052 0.321338,-0.589629 0.289278,-1.147315 -0.05464,-0.950522 -0.03614,-0.958814 0.375712,-0.168377 0.179118,0.343769 0.189954,0.479033 0.03048,0.380471 -0.139513,-0.08622 -0.247448,7.6e-5 -0.247448,0.197848 0,0.192928 0.108481,0.350779 0.241072,0.350779 0.132588,0 0.0892,0.151875 -0.09643,0.3375 -0.185625,0.185625 -0.471296,0.334279 -0.634821,0.330344 -0.224566,-0.0054 -0.21425,-0.07423 0.04216,-0.28125 z M 29.7,13.936721 c 0,-0.131053 0.10125,-0.175703 0.225,-0.09922 0.12375,0.07648 0.225,0.183707 0.225,0.238278 0,0.05457 -0.10125,0.09922 -0.225,0.09922 -0.12375,0 -0.225,-0.107226 -0.225,-0.238278 z m -0.45,-1.0125 c 0,-0.192928 0.102901,-0.287182 0.22867,-0.209453 0.125768,0.07773 0.170419,0.23558 0.09922,0.350779 C 29.385014,13.377632 29.25,13.319439 29.25,12.924221 Z M 29.3625,12.15 c 0.07648,-0.12375 0.240307,-0.225 0.364057,-0.225 0.12375,0 0.162425,0.10125 0.08594,0.225 -0.07648,0.12375 -0.240307,0.225 -0.364057,0.225 -0.12375,0 -0.162425,-0.10125 -0.08594,-0.225 z M 30.749378,5.8878478 C 30.790969,5.7230389 30.825,5.5398761 30.825,5.480819 c 0,-0.059057 0.10125,-0.044801 0.225,0.031681 0.12375,0.076482 0.225,0.2403076 0.225,0.3640576 0,0.12375 -0.0926,0.1677688 -0.205783,0.097819 -0.113179,-0.069949 -0.248461,-0.050612 -0.300622,0.042971 -0.05216,0.093584 -0.06081,0.035309 -0.01922,-0.1294998 z M 29.925,5.2874999 c -0.193522,-0.2331817 -0.202039,-0.3375 -0.02755,-0.3375 0.138901,0 0.252549,0.1072255 0.252549,0.2382788 0,0.1310533 0.116894,0.1660345 0.259765,0.077736 0.160942,-0.099468 0.198688,-0.061721 0.09922,0.099221 C 30.30293,5.6986415 30.261659,5.6931476 29.925,5.2874999 Z"
         id="path5233"
         inkscape:connector-curvature="0"
         sodipodi:nodetypes="csscsccsssssscsssscssssssccsscssssssscccsscccssssscsccscsssssscscsscsscscsssssssccsscssccccscscccscsscsscccsccscccscsscscssscccsssssccccscscscsscsssscsccsccsssccsssscssccsscssccscssscsccssssssssssssssscscssscscssssssssccsscscscssssscsscsccsssssssssssssssssssssssscssssccssssssssscssscsscsssccscccsssscscssscsssssssssssscssccscsssscssscscscscssscccsssssss" />
    </g>
  </g>
  <path
     inkscape:connector-curvature="0"
     d="m 3.0850679,0.9679567 0.091206,0.1891275 2.5681619,5.2010109 0.038402,0.075651 h 0.081605 13.2008312 0.216015 l -0.0912,-0.1891278 -2.496158,-5.2010106 -0.0336,-0.0756511 H 16.573918 3.3010814 Z M 3.5170948,1.2327354 H 16.492314 l 2.361748,4.9362318 H 5.955649 Z"
     style="opacity:1;fill:#000000;fill-opacity:1;fill-rule:evenodd;stroke:none;stroke-width:0.34954655"
     id="path2430" />
  <path
     inkscape:connector-curvature="0"
     d="m 17.019048,1.3765618 c -0.158851,0.246916 -0.491223,0.3203274 -0.741906,0.1638646 -0.250681,-0.156463 -0.325213,-0.4838431 -0.166365,-0.7307606 0.158851,-0.24691599 0.491226,-0.32032787 0.741907,-0.1638646 0.250682,0.15646288 0.325212,0.4838446 0.166364,0.7307606 z"
     style="opacity:1;fill:#000000;fill-opacity:1;fill-rule:evenodd;stroke:none;stroke-width:0.2446826pt;marker-start:none;marker-end:none"
     id="path3609" />
  <path
     inkscape:connector-curvature="0"
     d="M 18.785592,6.738411 C 18.534909,6.5819478 18.460378,6.2545679 18.619228,6.0076505 c 0.158848,-0.246916 0.491221,-0.3203279 0.741905,-0.1638645 0.250681,0.1564628 0.325214,0.4838442 0.166363,0.73076 -0.158848,0.246916 -0.491222,0.320328 -0.741904,0.163865 z"
     style="opacity:1;fill:#000000;fill-opacity:1;fill-rule:evenodd;stroke:#000000;stroke-width:0.16388541;stroke-miterlimit:4;stroke-dasharray:none;stroke-opacity:1;marker-start:none;marker-end:none"
     id="path3611" />
  <path
     inkscape:connector-curvature="0"
     d="M 5.4194987,6.0247461 C 5.5769289,5.7769494 5.9088762,5.7016903 6.1604521,5.8567568 6.4120278,6.0118235 6.4884347,6.3387842 6.3310035,6.586581 6.1735719,6.834376 5.8416245,6.9096351 5.59005,6.75457 5.3384744,6.5995035 5.2620674,6.2725426 5.4194987,6.0247461 Z"
     style="opacity:1;fill:#000000;fill-opacity:1;fill-rule:evenodd;stroke:#000000;stroke-width:0.16388541;stroke-miterlimit:4;stroke-dasharray:none;stroke-opacity:1;marker-start:none;marker-end:none"
     id="path3613" />
  <path
     inkscape:connector-curvature="0"
     d="M 3.5786816,0.65885563 C 3.8302574,0.81392037 3.9066643,1.1408815 3.7492331,1.3886779 3.5918015,1.6364744 3.2598543,1.7117339 3.0082783,1.5566673 2.756704,1.4016007 2.6802971,1.0746399 2.8377269,0.82684462 2.9951587,0.57904818 3.3271059,0.50378904 3.5786816,0.65885563 Z"
     style="opacity:1;fill:#000000;fill-opacity:1;fill-rule:evenodd;stroke:none;stroke-width:0.2446826pt;marker-start:none;marker-end:none"
     id="path3615" />
  <path
     style="font-style:normal;font-weight:normal;font-size:5.88645887px;line-height:125%;font-family:Sans;letter-spacing:0px;word-spacing:0px;fill:#0c0ced;fill-opacity:1;stroke:none;stroke-width:0.34954655"
     d="m 14.968138,14.932913 c -0.03668,0.03899 -0.102995,0.07888 -0.14738,0.08865 -0.06856,0.01511 -0.07367,0.01049 -0.03397,-0.03064 0.03582,-0.03712 0.04021,-0.05935 0.01875,-0.09527 -0.03481,-0.05833 -0.134922,-0.07364 -0.144368,-0.0221 -0.0039,0.02104 -0.01884,0.02648 -0.0333,0.01216 -0.01448,-0.01432 -0.01511,-0.08595 -0.0014,-0.159177 0.01846,-0.09882 0.02986,-0.118256 0.04419,-0.0754 0.01061,0.03176 0.0049,0.08903 -0.01274,0.127287 -0.02846,0.06176 -0.0253,0.06463 0.02815,0.02559 0.04944,-0.03611 0.07159,-0.0342 0.123862,0.01067 0.03602,0.03092 0.08372,0.04415 0.10989,0.03045 0.03277,-0.01716 0.0294,-0.0063 -0.01161,0.03713 -0.04824,0.05113 -0.05013,0.05937 -0.01131,0.04961 0.0256,-0.0064 0.06641,-0.03837 0.09069,-0.07094 0.03513,-0.04714 0.03267,-0.0746 -0.012,-0.134347 -0.03089,-0.0413 -0.05388,-0.08749 -0.0511,-0.102663 0.0028,-0.01518 0.03224,0.01477 0.0655,0.06654 0.07107,0.110657 0.06778,0.147207 -0.02181,0.242458 z m -0.130567,-0.244886 c -0.01665,-0.04141 -0.02241,-0.08217 -0.01278,-0.09059 0.02038,-0.01779 0.05727,0.08189 0.04882,0.131862 -0.0032,0.0187 -0.01937,8.9e-5 -0.03604,-0.04128 z m 1.138985,-9.7517987 c -0.0473,0.054701 -0.05456,0.052462 -0.11765,-0.036282 -0.03698,-0.052017 -0.06459,-0.1090713 -0.06135,-0.1267848 0.0033,-0.017711 0.03277,0.00964 0.06563,0.060796 0.04955,0.077152 0.06908,0.086172 0.114599,0.052925 0.06687,-0.048851 0.06637,-0.028853 -0.0013,0.049346 z M 13.897905,15.520099 c -0.0551,0.03803 -0.0567,0.03689 -0.01402,-0.0098 0.02654,-0.02904 0.04056,-0.06734 0.03114,-0.0851 -0.0094,-0.01778 -0.0022,-0.01852 0.01612,-0.0017 0.04295,0.0396 0.04097,0.04538 -0.03324,0.09661 z M 13.39722,14.309851 c -0.01671,-0.0021 -0.02741,-0.01999 -0.02377,-0.03984 0.0037,-0.01985 0.0203,-0.03441 0.037,-0.03235 0.01671,0.0021 0.02741,0.01999 0.02377,0.03984 -0.0037,0.01985 -0.02029,0.0344 -0.037,0.03235 z m -0.714129,0.834581 c -0.0177,-0.0023 -0.02074,-0.01917 -0.0068,-0.03773 0.01395,-0.01858 0.03143,-0.03303 0.03879,-0.03211 0.0073,9.64e-4 0.01043,0.0179 0.0068,0.03773 -0.0037,0.01985 -0.02109,0.0343 -0.03879,0.03211 z m -0.142908,0.111556 c -0.01897,0.0102 -0.02966,-0.0077 -0.02377,-0.03983 0.0058,-0.0321 0.02255,-0.04667 0.037,-0.03235 0.01448,0.01432 0.02517,0.03225 0.02377,0.03983 -0.0014,0.0076 -0.01804,0.02214 -0.037,0.03235 z m 0.007,-0.229141 c -0.01628,-0.02704 -0.02027,-0.0573 -0.009,-0.06726 0.0114,-0.01 0.02471,0.01216 0.02961,0.04915 0.007,0.05346 0.0029,0.05718 -0.02072,0.01811 z m 1.519454,-9.6648805 c -0.0176,-0.022605 -0.05089,-0.05265 -0.07393,-0.066758 -0.0286,-0.017506 -0.02108,-0.02401 0.02373,-0.020485 0.03612,0.00287 0.06938,0.032889 0.07393,0.066758 0.0063,0.046075 2.17e-4,0.051233 -0.02373,0.020482 z m -0.116222,0.079029 c -0.05,-0.0069 -0.06536,-0.017069 -0.03412,-0.022579 0.03124,-0.00551 0.07216,1.362e-4 0.09092,0.012561 0.01877,0.012409 -0.0068,0.016919 -0.05682,0.010019 z m -1.673996,8.7120605 c -0.06039,0.0507 -0.113372,0.08464 -0.11775,0.07543 -0.0043,-0.0092 0.04625,-0.05736 0.112513,-0.107016 0.149601,-0.112106 0.152878,-0.09235 0.0052,0.03159 z m -0.558091,-0.174947 c -0.04341,0.07944 -0.134934,0.121843 -0.175756,0.08142 -0.01519,-0.01502 -0.0015,-0.04849 0.03345,-0.08202 0.0325,-0.03115 0.05461,-0.06414 0.04911,-0.07333 -0.0055,-0.0092 0.0231,-0.01262 0.06349,-0.0076 l 0.0715,0.0088 c -9.84e-4,-1.33e-4 -0.01986,0.03262 -0.0418,0.07274 z m -0.09973,-0.0047 c -0.02654,0.02322 -0.03143,0.0398 -0.01239,0.04214 0.04057,0.005 0.08432,-0.03326 0.06845,-0.05983 -0.0068,-0.01133 -0.03199,-0.0034 -0.05608,0.01771 z m -0.09882,-0.114329 c 12.735729,-22.715119 6.367864,-11.3575594 0,0 z m 1.597407,-9.5840831 c -0.0485,-0.00665 -0.08055,-0.043001 -0.123726,-0.1402957 -0.0321,-0.072344 -0.03068,-0.072425 0.05295,-0.00297 0.09585,0.079599 0.131415,0.151592 0.07078,0.1432633 z m -1.810287,9.7406711 c -0.01671,-0.0021 -0.02741,-0.01999 -0.02377,-0.03983 0.0037,-0.01985 0.0203,-0.03441 0.037,-0.03235 0.01671,0.0021 0.0274,0.01999 0.02377,0.03984 -0.0037,0.01985 -0.0203,0.0344 -0.037,0.03235 z m -0.374119,1.024036 c -0.01672,-0.0021 -0.02593,-0.0281 -0.02048,-0.05787 0.0055,-0.02978 0.0236,-0.05244 0.04032,-0.05039 0.01672,0.0021 0.02593,0.02811 0.02047,0.05787 -0.0055,0.02978 -0.0236,0.05244 -0.04032,0.05039 z m -0.102617,0.104984 c -0.0041,-0.02713 0.0028,-0.05812 0.01506,-0.06888 0.01229,-0.01073 0.01556,0.01146 0.0072,0.04933 -0.0092,0.04186 -0.01792,0.04952 -0.02234,0.01953 z m -0.104693,0.06937 c -0.06435,0.01974 -0.06315,0.02168 -0.06542,-0.104187 -9.44e-4,-0.0547 0.01361,-0.107724 0.03241,-0.117854 0.01917,-0.01034 0.02256,0.0037 0.0076,0.03187 -0.01457,0.02763 -0.01369,0.06298 0.0019,0.07851 0.01569,0.01555 0.01531,0.04623 -8.25e-4,0.06821 -0.01671,0.02275 -0.0033,0.02138 0.03116,-0.0033 0.03327,-0.02375 0.05746,-0.0267 0.05378,-0.0065 -0.0038,0.02016 -0.03106,0.04411 -0.06083,0.05325 z m -1.1614185,1.465244 c -0.00635,-8.15e-4 -0.025032,-0.03214 -0.041611,-0.06968 -0.027306,-0.06189 -0.026001,-0.06304 0.01397,-0.01226 0.04198,0.05337 0.052646,0.08499 0.027631,0.08191 z m 0.1694972,-1.934827 c -0.04258,-0.0052 -0.083127,-0.0275 -0.090087,-0.04947 -0.00832,-0.02628 0.015189,-0.02762 0.068796,-0.004 0.071808,0.0318 0.078012,0.02877 0.052414,-0.02568 -0.019513,-0.0415 -0.01718,-0.06814 0.00713,-0.08121 0.019883,-0.01069 0.033244,-0.0037 0.029682,0.01579 -0.00352,0.01939 -0.00283,0.06197 0.00154,0.09462 0.00601,0.04455 -0.011327,0.05697 -0.06944,0.04982 z M 9.640962,14.4559 c -0.0147,-0.01455 -0.016099,-0.04061 -0.00309,-0.05791 0.035217,-0.04685 0.051745,-0.03526 0.040134,0.02813 -0.00567,0.03093 -0.022338,0.04435 -0.037037,0.0298 z m -0.1078579,0.13232 c -0.046905,0.01426 -0.049633,0.0097 -0.013309,-0.02229 0.025135,-0.02213 0.051694,-0.03018 0.059006,-0.01792 0.0073,0.01226 -0.013242,0.03036 -0.045694,0.04023 z m -0.035672,-0.264401 c -0.040101,-0.02518 -0.049343,-0.02086 -0.037235,0.01738 0.011131,0.0351 0.00601,0.04085 -0.016535,0.01851 -0.023521,-0.02328 -0.021394,-0.04218 0.00755,-0.0675 0.028971,-0.02534 0.048527,-0.02113 0.069885,0.01495 0.023796,0.04021 0.019102,0.0435 -0.023684,0.01663 z M 11.162164,5.1833973 c -0.05759,0.039755 -0.05793,0.03798 -0.0043,-0.023703 0.03179,-0.036674 0.06292,-0.072973 0.06916,-0.080661 0.0063,-0.00769 0.0083,0.00297 0.0043,0.023707 -0.0039,0.020724 -0.03493,0.05702 -0.06916,0.080661 z m 0.07198,-0.3002695 c -0.01923,-0.00744 -0.03903,0.00535 -0.04405,0.028386 -0.005,0.023053 -0.04945,0.088152 -0.09877,0.1446647 -0.08869,0.1016212 -0.154829,0.1292848 -0.142024,0.059406 0.0037,-0.019844 0.02383,-0.033971 0.04488,-0.031376 0.04414,0.00544 0.141823,-0.1117802 0.121507,-0.1458132 -0.02875,-0.048144 -0.136687,0.037623 -0.174864,0.1389366 -0.03926,0.1042016 -0.104047,0.1435237 -0.08747,0.053098 0.01542,-0.084117 0.131477,-0.1949981 0.264679,-0.2528679 0.150086,-0.065203 0.166839,-0.067007 0.157672,-0.016989 -0.0037,0.019845 -0.02233,0.029996 -0.04157,0.022556 z m 0.132504,-1.0814597 c -0.04072,-0.00501 -0.08785,-0.038443 -0.104749,-0.074288 -0.02787,-0.059151 -0.02507,-0.060352 0.0303,-0.013015 0.03356,0.028682 0.07513,0.044555 0.09239,0.035265 0.01725,-0.00929 0.03693,6.303e-4 0.04375,0.022129 0.007,0.022356 -0.01925,0.035132 -0.06167,0.029906 z m 0.05991,-0.1033237 c -0.01671,-0.00204 -0.02725,-0.02094 -0.02338,-0.041958 0.0039,-0.02102 0.01884,-0.026495 0.0333,-0.012167 0.01448,0.014331 0.02499,0.033208 0.02338,0.041957 -0.0016,0.00875 -0.0166,0.014225 -0.0333,0.012166 z M 8.708964,13.843337 c -0.040381,-0.005 -0.040658,-0.01505 -0.00154,-0.05554 0.026266,-0.02722 0.052915,-0.04883 0.059226,-0.04806 0.00632,8.16e-4 0.00699,0.02577 0.00154,0.05554 -0.00546,0.02978 -0.032107,0.05139 -0.059226,0.04806 z M 8.5236823,13.722945 c -0.084543,0.09044 -0.089695,0.09139 -0.120421,0.02207 -0.028564,-0.06445 -0.027817,-0.06703 0.0068,-0.02339 0.031532,0.03975 0.048558,0.03632 0.08983,-0.01812 0.028009,-0.03693 0.045666,-0.08374 0.039251,-0.103993 -0.00642,-0.02026 0.00963,-0.0342 0.035698,-0.03101 0.064512,0.0079 0.052849,0.04312 -0.051173,0.154418 z m -0.9451224,3.596283 c -0.016717,-0.002 -0.048018,-0.022 -0.069561,-0.04434 -0.021546,-0.02233 -0.025494,-0.0389 -0.0088,-0.03685 0.016714,0.002 0.048018,0.022 0.069561,0.04434 0.021546,0.02234 0.025496,0.03891 0.0088,0.03685 z m 0.026456,-0.144341 c -0.016714,-0.002 -0.048018,-0.022 -0.069561,-0.04435 -0.021546,-0.02232 -0.025494,-0.03891 -0.0088,-0.03685 0.016717,0.002 0.048018,0.022 0.069561,0.04433 0.021545,0.02234 0.025496,0.0389 0.0088,0.03685 z m -0.1460127,-0.87665 c -0.1236228,-0.01105 -0.1296221,-0.02225 -0.049273,-0.09249 0.03053,-0.02669 0.052769,-0.0336 0.049428,-0.01535 -0.00332,0.01822 0.020239,0.05218 0.052397,0.07543 0.050854,0.03677 0.044005,0.04101 -0.052551,0.03242 z m 0.038765,-0.142494 c -0.045438,-0.02827 -0.076888,-0.05643 -0.06989,-0.06254 0.023075,-0.02018 0.1632617,0.05527 0.157826,0.08493 -0.00291,0.01598 -0.0425,0.0059 -0.087939,-0.02237 z M 9.3104687,4.1112307 c -0.00394,-0.025842 0.00352,-0.066442 0.016528,-0.090214 0.012975,-0.023773 0.01615,-0.0026 0.00713,0.046994 -0.0091,0.049616 -0.01972,0.069067 -0.023608,0.043221 z m -0.00258,-0.2124984 c -0.014468,-0.014316 -0.024988,-0.033212 -0.023384,-0.041957 0.00163,-0.00875 0.016595,-0.014225 0.033303,-0.012167 0.016717,0.00204 0.027246,0.020938 0.023385,0.041958 -0.00386,0.02102 -0.018835,0.026493 -0.033304,0.012166 z M 8.9801092,4.9100259 c -0.058421,0.1060144 -0.063018,0.108864 -0.03725,0.023086 C 8.9809033,4.8064827 8.9374055,4.8039269 8.8046544,4.92499 8.5510607,5.0738618 8.905538,4.8082159 8.9705168,4.7646178 9.0724853,4.7338318 9.07299,4.741491 8.9801091,4.9100286 Z M 9.1126469,4.1485336 c -0.023048,-0.00115 -0.034664,0.018392 -0.027128,0.0457 0.010466,0.037907 0.00651,0.03755 -0.019085,-0.00171 -0.03721,-0.057068 -0.00373,-0.1010447 0.05009,-0.065778 0.029905,0.019596 0.029205,0.023494 -0.00393,0.021818 z M 7.3481717,13.449233 c -0.050275,0.02307 -0.068649,0.01181 -0.088898,-0.0545 -0.021113,-0.06914 -0.020038,-0.07494 0.00625,-0.03354 0.049257,0.07757 0.085119,0.06509 0.078355,-0.02726 0.00744,-0.03799 0.00286,0.07686 0.00427,0.115295 z M 9.125534,3.8762843 c -0.018959,0.0102 -0.031322,0.00138 -0.027473,-0.019652 0.00382,-0.02102 0.020674,-0.036533 0.037393,-0.034471 0.016719,0.00204 0.029082,0.010896 0.027473,0.019652 -0.00163,0.00875 -0.018433,0.024262 -0.037393,0.034471 z M 7.1070733,13.268659 c 15.6776387,-22.3215037 7.8388197,-11.160752 0,0 z M 9.1880583,2.2063588 c -0.034682,-0.028579 -0.052907,-0.060834 -0.040505,-0.071675 0.012402,-0.010836 0.040782,0.012545 0.063056,0.051964 0.038723,0.068522 0.037727,0.069389 -0.022551,0.019711 z M 9.0650558,2.4426651 C 9.0091532,2.4410328 8.7125473,2.2297458 8.7187389,2.1959556 c 0.00795,-0.043197 0.1391767,0.033312 0.190354,0.1109554 0.031906,0.048406 0.093267,0.099136 0.1363577,0.1127351 0.045608,0.01439 0.053796,0.02401 0.019602,0.023019 z M 5.9812142,15.776844 c -0.018967,0.01014 -0.029654,-0.0077 -0.023792,-0.03984 0.00589,-0.03211 0.022551,-0.04668 0.037005,-0.03236 0.014466,0.01437 0.025167,0.03225 0.023777,0.03984 -0.00139,0.0075 -0.018041,0.02214 -0.037003,0.03234 z m -0.1834997,0.143463 c -0.017701,-0.0022 -0.020766,-0.01917 -0.00679,-0.03772 0.013979,-0.01858 0.031441,-0.03303 0.038798,-0.03211 0.00736,9.63e-4 0.010431,0.01791 0.00679,0.03774 -0.00365,0.01986 -0.021102,0.03429 -0.038794,0.03211 z M 8.2099342,2.1014853 c -0.017648,0.0095 -0.037661,-2.971e-4 -0.044459,-0.021749 -0.0068,-0.021462 0.009,-0.036397 0.035009,-0.033192 0.053375,0.00659 0.057272,0.029198 0.00948,0.054938 z M 6.0354123,13.18207 c -0.026054,-0.0033 -0.035766,-0.02127 -0.021569,-0.04016 0.014196,-0.0189 0.036827,-0.02341 0.050293,-0.01009 0.03648,0.03612 0.024652,0.05681 -0.028728,0.05024 z M 8.0400577,1.9847592 c -0.040572,0.042917 -0.071032,0.063096 -0.067691,0.044843 0.00882,-0.048326 0.1158542,-0.1660594 0.1296997,-0.1427139 0.00651,0.010911 -0.02143,0.054955 -0.062003,0.097871 z M 5.9341531,13.151154 c -0.00304,-0.0094 0.021932,-0.0066 0.032912,-0.01004 -0.00364,0.01985 -0.01845,0.02437 -0.032919,0.01006 z M 7.0434844,2.1808481 c -0.018963,0.0102 -0.0315,0.00232 -0.027865,-0.017523 0.00364,-0.019848 0.022129,-0.044436 0.041091,-0.054646 0.018963,-0.010199 0.0315,-0.00232 0.027865,0.017522 -0.00364,0.019848 -0.022129,0.044437 -0.041091,0.054646 z m 0.037458,-0.1620032 c -0.012483,-0.00182 -0.039992,-0.023405 -0.061138,-0.047907 -0.032544,-0.037706 -0.030913,-0.040464 0.010603,-0.017942 0.042028,0.022797 0.045664,0.016083 0.025408,-0.046867 -0.0164,-0.050965 -0.036697,-0.063934 -0.066254,-0.042341 -0.031038,0.022671 -0.03709,0.00774 -0.02228,-0.054968 0.017653,-0.074762 0.028133,-0.080341 0.079606,-0.042399 0.067484,0.049742 0.096068,0.2616056 0.034059,0.2524275 z M 6.763317,3.1129536 c -0.055041,0.045109 -0.079858,0.015027 -0.063089,-0.076469 0.013649,-0.074486 0.093367,-0.08116 0.1031247,-0.00865 0.0035,0.025906 -0.014541,0.0642 -0.040036,0.085102 z M 6.79277,2.0577307 C 6.776713,2.0557607 6.751682,2.0290957 6.737153,1.9984967 6.715931,1.9537957 6.720867,1.9459687 6.762266,1.9586877 6.816185,1.9752517 6.843512,2.0639788 6.792769,2.0577317 Z M 6.78635,1.7993818 c -0.030076,0.021969 -0.059454,0.03195 -0.065285,0.022185 -0.00583,-0.00976 0.021362,-0.041834 0.060423,-0.071258 0.039063,-0.029424 0.068442,-0.039408 0.065285,-0.022185 -0.00316,0.017223 -0.030347,0.049289 -0.060422,0.071258 z M 3.9580885,15.636883 c -0.017657,0.0096 -0.037662,-3.03e-4 -0.044461,-0.02173 -0.00681,-0.02145 0.00896,-0.0364 0.035024,-0.03319 0.053379,0.0064 0.057267,0.0292 0.00945,0.05493 z"
     id="path5233-0"
     inkscape:connector-curvature="0"
     sodipodi:nodetypes="ssscsccsssssscsssscsscsscscssccscsccsscssscscsscccsssscssscsssssssssssssssssscsscssccsssssscssssscssssssssssssssssccsscsssscsscsscssssscssccccsscscscssscssssssssssssssssssssssscssscssccscscssccscsssscccsccccscsssssscccsccccccccccccsssccccccccsscccscscscsssccscccccccscccccccscsccscscssccsccscsssccssccscc" />
</svg>
