<?xml version="1.0" encoding="UTF-8"?>
<!-- Created with Inkscape (http://www.inkscape.org/) -->
<svg width="418.67" height="418.67" version="1.1" viewBox="0 0 418.66666 418.66666" xmlns="http://www.w3.org/2000/svg" xmlns:cc="http://creativecommons.org/ns#" xmlns:dc="http://purl.org/dc/elements/1.1/" xmlns:rdf="http://www.w3.org/1999/02/22-rdf-syntax-ns#">
 <metadata>
  <rdf:RDF>
   <cc:Work rdf:about="">
    <dc:format>image/svg+xml</dc:format>
    <dc:type rdf:resource="http://purl.org/dc/dcmitype/StillImage"/>
    <dc:title/>
   </cc:Work>
  </rdf:RDF>
 </metadata>
 <g stroke-width="1.3333">
  <path d="m302.22 415.11c-0.48889-0.48888-0.88889-13.635-0.88889-29.215 0-32.281 1.3887-39.479 10.04-52.041 7.803-11.33 14.418-15.412 44.166-27.259 9.4202-3.7514 18.928-7.929 21.128-9.2834 3.8989-2.4004 8.6667-8.9208 8.6667-11.853 0-0.9898-6.0482-1.4609-18.754-1.4609-10.378 0-19.906-0.61647-21.333-1.3802-1.9539-1.0457-2.579-2.8118-2.579-7.2864s0.62509-6.2407 2.579-7.2864c1.4377-0.76941 11.136-1.3802 21.914-1.3802h19.335l0.41928-23.226c0.2306-12.774 0.917-23.722 1.5253-24.328 1.795-1.7894 21.587-2.2159 24.732-0.53296 2.7639 1.4792 2.829 2.2592 2.829 33.892 0 37.046-0.71605 41.066-9.695 54.43-7.6848 11.438-15.63 16.558-42.045 27.095-15.169 6.0512-23.641 10.204-26.594 13.036-2.3833 2.2859-4.3333 4.6385-4.3333 5.2279s7.8394 1.0718 17.421 1.0718c9.5816 0 18.582 0.6211 20 1.3802 1.9539 1.0457 2.579 2.8118 2.579 7.2864 0 4.4747-0.6251 6.2407-2.579 7.2864-1.4271 0.76377-10.955 1.3802-21.333 1.3802h-18.754v20.088c0 11.297-0.604 21.216-1.3802 22.667-1.2127 2.2659-2.8853 2.579-13.778 2.579-6.8186 0-12.798-0.4-13.286-0.88889zm85.271-1.1753c-0.4546-1.1846-0.82655-4.8048-0.82655-8.0449v-5.891l-21-0.0204c-11.55-0.0107-21.9-0.58934-23-1.2847-1.3019-0.82298-2-3.3926-2-7.3616s0.69811-6.5386 2-7.3616c1.1-0.69536 11.45-1.2735 23-1.2847l21-0.0204v-11.913c0-13.625-0.85492-16.597-6.6824-23.234-2.3069-2.6274-3.9971-5.741-3.756-6.9191 0.24548-1.1995 5.5748-4.531 12.112-7.5715 11.313-5.2617 11.755-5.3554 14.321-3.0332 4.2967 3.8884 9.2036 13.263 11.371 21.725 1.5601 6.0896 1.9398 14.261 1.6613 35.753l-0.36097 27.86-13.507 0.37821c-11.432 0.32011-13.634 0.0473-14.333-1.7757zm-328.27-57.068c-0.37968-0.98942-0.51085-5.9394-0.29149-11l0.39884-9.201h186.67l0.39077 8.8473c0.29812 6.7497-0.1196 9.3577-1.7619 11-1.9394 1.9394-11.195 2.1527-93.433 2.1527-75.374 0-91.4-0.31348-91.97-1.799zm11.051-26.136c-7.3806-6.4802-9.4157-12.109-8.3367-23.059 0.50284-5.103 1.2361-10.117 1.6294-11.142 1.5065-3.9259 7.0529-1.9632 17.837 6.3122l4.7409 3.6379 3.5404-4.437c2.4322-3.0482 6.4422-5.5459 12.811-7.9796 5.0988-1.9484 9.6034-4.4098 10.01-5.4698 1.2667-3.3009 4.2436-2.1299 7.5999 2.9893 1.7729 2.7041 7.8734 8.1074 13.557 12.007 10.327 7.0865 10.333 7.0886 10.333 3.5216 0-2.4786 1.7963-5.2903 5.8791-9.2023 3.2335-3.0982 6.5546-6.8954 7.3803-8.4381 0.82564-1.5427 2.2887-2.805 3.2513-2.805 0.96257 0 5.2165 3.6341 9.4532 8.0758l7.703 8.0758 2.9192-2.7425c4.0093-3.7665 5.9756-3.4418 7.6138 1.2575 1.4329 4.1103 3.0039 5.0339 4.4853 2.6368 0.46338-0.74975 4.5488-3.2298 9.0787-5.5112 4.5299-2.2814 9.6567-5.2598 11.393-6.6186 4.4174-3.4574 5.9699-1.8848 5.0152 5.0804-0.76532 5.5836 1.6912 15.079 3.9009 15.079 0.48156 0 2.6582-1.5 4.837-3.3333 6.6906-5.6297 10.424-3.6404 10.424 5.5548 0 3.1284 1.014 7.8145 2.2533 10.413 1.768 3.7075 1.9044 5.0742 0.63339 6.3452-1.271 1.271-2.1971 1.2595-4.2997-0.0536-1.7683-1.1043-3.4338-1.2516-4.8965-0.433-1.3532 0.7573-3.4702 0.764-5.4344 0.0172-5.7155-2.173-15.128-9.7082-17.277-13.831l-2.0918-4.0129-1.1379 4c-0.62586 2.2-0.76907 6.85-0.31826 10.333 0.80124 6.191 0.73896 6.3333-2.7721 6.3333-2.3336 0-5.2421-1.6503-8.3029-4.7111-2.5911-2.5911-4.7811-4.5411-4.8667-4.3333-5.3332 12.952-9.6954 11.35-24.38-8.9531-1.5902-2.1986-3.247-3.6419-3.6816-3.2073-0.43465 0.43464-1.54 4.9336-2.4564 9.9976l-1.6661 9.2073-6.8498 0.27079c-6.5878 0.26044-6.9093 0.10747-8.4054-4-4.155-11.407-6.2427-12.76-22.875-14.823-7.0617-0.87587-7.539-0.75275-8.3151 2.1449-0.45284 1.6907-0.83154 5.9429-0.84155 9.4493-0.0211 7.3969-2.0551 8.9726-7.2168 5.5905-1.8777-1.2303-5.9762-2.8125-9.1077-3.5159-3.1315-0.70344-7.028-2.5323-8.6589-4.0641-3.4091-3.202-4.0391-2.3534-4.6548 6.2699-0.48953 6.8565-3.2894 7.4725-9.4359 2.0758zm242.29-21.731c-2.0158-2.3833-5.2191-7.6333-7.1185-11.667-3.3973-7.2138-3.4603-7.8974-3.871-41.956-0.48902-40.56-1.4534-38.044 14.577-38.044 13.022 0 14.507 1.2381 14.507 12.095v7.9048h20.571c22.764 0 24.762 0.66016 24.762 8.1829 0 8.9668-0.48268 9.1504-24.047 9.1504h-21.286v14.043c0 15.78 1.4209 20.63 7.8097 26.66 5.1503 4.861 5.2714 6.9108 0.52364 8.8578-2.0167 0.827-7.484 3.2141-12.15 5.3047-4.6657 2.0906-8.9623 3.8011-9.5482 3.8011-0.58581 0-2.7143-1.95-4.7301-4.3333zm-250.35-29.711c-7.17-2.6563-17.167-10.289-21.283-16.249-8.2597-11.96-8.234-11.781-8.6872-60.33-0.38536-41.277-0.24126-44.752 1.9215-46.333 3.4202-2.5009 237.55-2.5123 240.97-0.012 2.1424 1.5666 2.2911 5.2039 1.9215 47-0.39042 44.152-0.47834 45.46-3.463 51.519-4.3882 8.908-12.221 17.263-20.464 21.828l-7.1405 3.9554-89.333 0.25824c-74.371 0.21499-90.19-0.0591-94.446-1.6359zm12.162-17.996c1.4611-2.3395 1.2116-3.3357-1.8355-7.3306-6.5772-8.6232-7.0925-12.101-7.1554-48.295l-0.058524-33.667h-9.2062l0.70451 36.333c0.76593 39.501 1.2133 42.031 9.076 51.333 4.2474 5.0251 6.127 5.3857 8.4751 1.6259zm210.38-75.388c-3.153-3.153-3.14-67.336 0.0143-70.49 1.869-1.869 8.5944-2.0698 59-1.7619l56.89 0.34757 0.36483 22.17c0.36322 22.072 0.35146 22.173-2.6667 22.982-1.6673 0.44671-21.481 0.8204-44.031 0.83042l-41 0.0182v12.62c0 15.173-0.21267 15.38-15.817 15.38-7.9123 0-11.199-0.53994-12.754-2.0952zm-282.81-18.223c-0.3715-0.96812-0.51204-13.443-0.31231-27.721l0.36315-25.961h22.667v54.667l-11.021 0.3876c-8.1829 0.28778-11.195-0.06573-11.696-1.3726zm32.104-21.819c-1.7557-1.7557-2.0705-4.7929-1.7619-17l0.37572-14.862h244l0.37998 15.317c0.32856 13.245 0.0687 15.545-1.9215 17-1.8121 1.325-27.461 1.6829-120.62 1.6829-106.78 0-118.53-0.20847-120.45-2.1376zm30.614-14.529c0-6.5185-0.08889-6.6667-4-6.6667-3.6797 0-4.0338 0.41158-4.4222 5.1402-0.59725 7.2718 0.41786 9.1138 4.7479 8.6157 3.4639-0.39842 3.6742-0.80436 3.6742-7.0893zm29.4-37.12c-3.4976-2.5575-1.8233-8.0229 4.9166-16.049l5.46-6.5021-6.3082-5.8754c-7.3253-6.8228-10.69-13.746-9.5731-19.699 0.42793-2.281 3.9002-7.8841 7.7161-12.451 5.503-6.5863 7.7172-8.3038 10.705-8.3038 7.0164 0 6.5354 7.5022-1.0172 15.862-2.5481 2.8204-4.6328 6.3354-4.6328 7.8112 0 1.4758 2.3044 4.7651 5.1208 7.3096 12.964 11.712 13.004 17.906 0.21251 32.621-5.4283 6.2442-9.1472 7.8018-12.6 5.2771zm48.933 0.37855c-1.9835-0.77554-3-2.2876-3-4.4625 0-5.4277 2.065-9.2565 9.2069-17.071 3.7362-4.088 6.7931-8.4026 6.7931-9.588 0-1.1854-1.6142-3.5012-3.5871-5.1464-14.296-11.921-17.803-17.162-17.717-26.479 0.0464-5.0325 4.6293-13.84 10.537-20.248 2.9888-3.2424 5.4342-6.5783 5.4342-7.4129 0-0.83466 1.65-1.5258 3.6667-1.5358 2.0167-0.010013 4.8667-0.31782 6.3333-0.684 8.7389-2.1819 7.0285 8.0646-3.3202 19.891-9.7259 11.114-9.3278 12.97 5.295 24.682 8.8695 7.1038 11.707 17.054 7.2957 25.584-1.1346 2.194-4.8846 7.1647-8.3333 11.046-3.4488 3.8813-6.8705 7.9884-7.6039 9.1268-1.7146 2.6618-7.1601 3.7994-11 2.298zm44.349-2.5419c-1.0135-3.1932 0.95006-7.1303 6.8431-13.721 2.4608-2.7521 4.4742-5.8936 4.4742-6.9811 0-1.0875-2.4392-3.5915-5.4206-5.5644-6.3812-4.2229-9.3895-9.3981-9.485-16.317-0.0815-5.9026 2.3278-10.687 9.3542-18.575 4.1942-4.7087 5.8584-5.6934 9.0143-5.3333 3.2445 0.37015 3.936 1.1157 4.276 4.6104 0.31906 3.2798-0.74724 5.5007-5 10.414-2.973 3.4351-5.4055 7.2483-5.4055 8.4737 0 1.2255 3.3 5.2749 7.3333 8.9988 6.8002 6.2785 7.3299 7.201 7.2861 12.691-0.0535 6.6943-1.1096 8.8739-8.5684 17.682-4.2712 5.0439-6.1044 6.238-9.5768 6.238-3.0959 0-4.5262-0.7302-5.1248-2.6163z" fill="#d2d2d2"/>
  <path d="m304.33 415.12c-1.2616-0.50906-1.6667-7.7161-1.6667-29.653 0-32.863 0.92328-37.976 9.021-49.958 7.6043-11.252 14.857-15.985 40.386-26.356 26.085-10.597 28.188-11.769 31.902-17.779 5.2468-8.4894 5.03-8.596-18.31-9.0042l-21-0.36718v-13.333l21.667-0.36636 21.667-0.36636v-23.137c0-18.229 0.39682-23.466 1.8708-24.69 1.1865-0.98468 5.9417-1.4102 13-1.1633l11.129 0.38935v72l-4.4079 8.443c-8.5178 16.315-15.991 21.585-49.54 34.931-11.854 4.716-19.663 8.6897-23 11.705-8.4419 7.6268-7.5721 8.1358 14.614 8.552l19.667 0.36898v13.333l-21 0.36719-21 0.3672v21.919c0 20.306-0.18978 22.021-2.579 23.299-2.589 1.3856-19.301 1.7562-22.421 0.4972zm85.314-0.66962c-0.90604-0.90604-1.6473-4.8273-1.6473-8.714v-7.0667h-21.733c-23.694 0-24.933-0.36453-24.933-7.3333s1.2394-7.3333 24.933-7.3333h21.733l-0.0293-12.333c-0.0315-13.255-2.2843-20.648-7.7824-25.54-5.0753-4.5153-3.6298-6.5574 8.5122-12.026 11.038-4.9711 11.444-5.0496 14.033-2.7072 1.4661 1.3268 4.6009 6.341 6.9662 11.143l4.3005 8.7302v64.067l-11.353 0.38066c-7.6884 0.2578-11.884-0.15104-13-1.2667zm-328.75-57.994c-0.4939-0.4939-0.89801-4.928-0.89801-9.8536 0-8.1602 0.26645-9.027 3-9.7596 1.65-0.44219 42.335-0.81217 90.412-0.82219 68.788-0.0143 87.907 0.3442 89.738 1.6828 1.8816 1.3758 2.2488 3.3511 1.9215 10.333l-0.40472 8.6324-91.435 0.34245c-50.289 0.18835-91.839-0.0616-92.333-0.55556zm8.2442-28.494c-6.2954-6.6178-7.0304-9.3823-5.8485-21.995 0.8611-9.1893 1.1688-9.9649 3.9533-9.9649 3.0562 0 13.342 6.5295 16.439 10.435 1.492 1.8818 2.146 1.5676 5.6928-2.7353 2.6833-3.2553 6.5315-5.7904 11.648-7.6733 4.2023-1.5465 9.2184-3.9499 11.147-5.3409l3.5066-2.529 4.0417 5.0293c4.2977 5.3479 23.511 19.137 24.829 17.819 0.43065-0.43065 0.783-2.2385 0.783-4.0175 0-2.1731 2.6692-5.9286 8.1339-11.444l8.1339-8.21 7.9644 8.4734 7.9644 8.4734 2.9876-2.8067c4.0414-3.7967 5.6341-3.5357 7.2826 1.1933 1.579 4.5294 3.0552 4.991 5.7032 1.7833 1.0064-1.2192 4.5299-3.401 7.8299-4.8485 3.3-1.4475 7.5926-3.75 9.5392-5.1166 5.5465-3.8941 6.4608-3.1899 6.4608 4.976 0 5.4208 0.7588 8.5265 2.7752 11.358l2.7752 3.8973 3.8573-4.1292c5.6856-6.0865 8.4129-4.8867 9.3847 4.1285 0.43577 4.0426 1.5414 8.7498 2.4568 10.46 2.0885 3.9025-0.0355 6.8244-3.1074 4.2749-1.4662-1.2169-2.6714-1.2613-4.7042-0.17338-2.146 1.1485-3.8108 0.91008-7.7519-1.1102-5.9337-3.0417-15.019-11.814-15.019-14.501 0-1.0389-0.75-1.6409-1.6667-1.3378-1.0752 0.3555-1.8057 3.944-2.0584 10.111-0.35571 8.6805-0.64788 9.56-3.1759 9.56-1.5313 0-4.7647-2.1-7.1854-4.6667-2.4207-2.5667-4.7335-4.6667-5.1396-4.6667s-1.6339 2.1434-2.7284 4.763c-3.1005 7.4206-6.5773 5.9045-16.046-6.9972-4.4-5.9955-8.372-10.945-8.8267-11-0.9033-0.10826-3.2401 8.3246-4.4986 16.234-0.73968 4.6489-2.017 5.8367-5.3414 4.967-0.73333-0.19184-2.6935-0.26878-4.3559-0.17096-2.4328 0.14313-3.634-1.2047-6.1559-6.9072-2.2638-5.1188-4.2002-7.4946-6.9774-8.561-3.9818-1.5288-21.904-4.7654-22.486-4.0607-2.0194 2.4446-3.3579 7.3209-3.3579 12.233 0 3.3049-0.57033 6.3614-1.2674 6.7922-0.69707 0.43082-3.5382-0.43377-6.3136-1.9213-2.7754-1.4875-6.359-2.7046-7.9636-2.7046-1.6046 0-4.7888-1.5747-7.0761-3.4992-2.2872-1.9246-4.4785-3.1794-4.8695-2.7884-0.57479 0.5748-1.2752 5.8144-1.7761 13.288-0.17772 2.6512-5.0015 0.45173-9.5915-4.3733zm244.57-18.96c-1.5136-1.65-4.4682-6.3-6.5657-10.333l-3.8138-7.3333v-72l11.129-0.38935c7.0583-0.24692 11.814 0.17859 13 1.1633 1.2476 1.0354 1.8708 4.3851 1.8708 10.056v8.5034h21.17c23.771 0 24.623 0.31742 23.916 8.907l-0.41938 5.093-22 0.66667-22 0.66667-0.37809 14.299c-0.4142 15.664 1.4638 21.843 8.668 28.52 2.8132 2.6072 3.1096 3.4951 1.7237 5.1649-0.92044 1.109-2.1984 2.0165-2.84 2.0165-0.64157 0-4.9762 1.8-9.6325 4-10.141 4.7913-10.337 4.8055-13.828 1zm-254.38-32.135c-8.1269-3.7897-18.228-13.778-22.309-22.06-2.967-6.0216-3.0248-7.0164-3.0248-52.139v-46h241.33v46.667c0 45.304-0.0843 46.822-2.8836 52-4.9424 9.1411-12.149 16.308-20.689 20.576l-8.187 4.0911-88.787-0.0133-88.787-0.0133-6.6667-3.1088zm15.931-15.398c1.745-3.3744 1.7532-4.07 0.06487-5.4712-1.0638-0.88292-3.4306-4.6933-5.2595-8.4675-3.1962-6.5958-3.3606-8.2205-4.2385-41.862l-0.91332-35h-8.9176v36.556c0 40.61 0.43834 43.109 9.34 53.248 5.1569 5.8734 7.2914 6.0878 9.924 0.99688zm210.38-76.355c-1.2167-1.2167-1.6459-10.226-1.6459-34.549 0-28.833 0.26978-33.127 2.1807-34.713 3.0789-2.5552 110.16-3.6654 113.16-1.1732 2.5952 2.1538 2.94 39.838 0.38783 42.39-1.1773 1.1773-12.794 1.6-43.975 1.6h-42.375l-0.6896 3c-0.37928 1.65-0.84071 7.8-1.0254 13.667l-0.3358 10.667-12.021 0.37922c-8.2094 0.259-12.543-0.14262-13.667-1.2667zm-283.72-17.485c-0.36005-0.93828-0.49122-13.388-0.29149-27.667l0.36315-25.961 7.9444-0.40816c4.3694-0.22449 9.3194-0.0631 11 0.35873l3.0556 0.7669v26.499c0 22.933-0.28377 26.608-2.109 27.308-4.0948 1.5713-19.277 0.8894-19.963-0.89664zm33.012-22.554c-1.0535-1.0535-1.6071-6.5183-1.6071-15.864 0-11.771 0.36782-14.398 2.109-15.067 3.2186-1.2351 236.98-0.92391 238.94 0.31808 1.2691 0.80528 1.6143 5.0284 1.3333 16.313l-0.37912 15.226-119.39 0.34041c-91.756 0.26161-119.76-0.0316-121-1.2667zm30.123-14.074l0.39696-8.3333h-9.4606v7.7778c0 8.8423 0.56428 9.8338 5.2834 9.2834 3.1693-0.3696 3.4083-0.92142 3.7802-8.7279zm29.936-37.216c-3.9812-1.6064-1.0324-9.0238 6.6667-16.77 3.7905-3.8134 2.7334-7.1997-4.3016-13.78-10.614-9.9277-10.724-16.372-0.4975-28.901 4.9389-6.0505 7.053-7.6667 10.029-7.6667 5.7691 0 5.1197 5.7495-1.5629 13.836-2.9333 3.5497-5.3333 7.5406-5.3333 8.8686 0 1.328 3.2479 5.5144 7.2176 9.3031s7.5955 8.3941 8.0573 10.234c1.0962 4.3677-3.0191 12.735-9.8816 20.091-5.0898 5.456-6.789 6.238-10.393 4.7836zm47.312-0.99562c-1.6384-1.6384-1.8502-3.0819-0.92531-6.3067 1.2752-4.4462 2.7873-6.5457 11.073-15.373 6.2177-6.6246 6.0018-10.697-0.7904-14.91-10.225-6.3411-15.721-14.775-15.609-23.952 0.0827-6.7493 2.086-10.721 10.525-20.864 6.8749-8.2635 7.5498-8.716 13-8.716 5.1128 0 5.7487 0.33984 5.7487 3.0723 0 3.4956-6.1043 13.611-10.618 17.594-7.5997 6.7073-6.4539 13.472 3.5311 20.849 8.7023 6.4287 12.408 12.066 12.415 18.884 7e-3 6.4563-2.5174 11.274-10.556 20.151-3.5395 3.9085-6.6612 7.77-6.9372 8.5812-0.89614 2.6345-8.5171 3.3295-10.857 0.99002zm47.075-0.05735c-2.2304-2.6874-0.73166-6.4511 5.3815-13.514 2.8777-3.3249 5.2321-6.6425 5.2321-7.3726 0-1.4425-8.0164-9.1771-9.5115-9.1771-0.50449 0-2.2338-2.7197-3.843-6.0438-3.9221-8.1019-2.8588-12.821 5.0256-22.305 4.756-5.7211 7.2048-7.6179 9.853-7.632 1.9795-0.01053 3.8746 0.89486 4.3239 2.0657 0.91024 2.372-1.9391 8.5581-5.1812 11.249-1.1967 0.99318-3.0545 3.5049-4.1284 5.5816-2.4248 4.6891-1.2271 7.2594 6.0796 13.046 10.592 8.3887 10.034 16.946-1.9367 29.705-6.2439 6.6554-8.6449 7.5902-11.295 4.3973z" fill="#adadad"/>
  <path d="m303.6 413.83c-1.3449-1.3449-1.1115-40.383 0.32292-54.011 1.8433-17.514 8.9866-29.691 22.444-38.26 3.4631-2.2051 16.356-8.0225 28.65-12.928 19.523-7.7888 22.942-9.6057 27-14.346 2.5553-2.9853 4.646-6.2198 4.646-7.1878s4e-3 -2.21 0.0107-2.76c5e-3 -0.55-9.0175-1.3-20.051-1.6667-21.925-0.72861-22.961-1.1308-22.306-8.6667l0.34736-4 20.573-0.36936c12.401-0.22263 21.273-0.94956 22.333-1.8299 1.3338-1.1074 1.7593-7.0753 1.7593-24.681v-23.22l12.333 0.38336 12.333 0.38337-0.0107 34-0.0107 34-4.2082 8.9062c-8.1254 17.196-16.055 23.141-47.652 35.725-9.4688 3.7712-18.888 7.7212-20.931 8.7778-4.3431 2.2459-11.328 10.891-9.9328 12.294 0.52724 0.53004 9.7609 1.2637 20.519 1.6304l19.561 0.66667v10.667l-20.198 0.36733c-14.532 0.26429-20.6 0.8518-21.632 2.0944-0.85237 1.027-1.5826 10.335-1.8017 22.966l-0.36932 21.239-11.396 0.38131c-6.268 0.20971-11.818-0.0403-12.333-0.55556zm85.73-4.3556c0-2.9131-0.58515-6.8356-1.3003-8.7167l-1.3003-3.4201h-44.066v-12h21.238c26.63 0 26.104 0.33901 25.037-16.141-0.78634-12.137-3.4703-19.579-8.7996-24.399-1.5447-1.397-2.8085-3.0621-2.8085-3.7003 0-1.4238 19.472-10.426 22.551-10.426 2.6195 0 10.285 12.089 12.306 19.407 0.77074 2.7914 1.4932 18.317 1.6055 34.501l0.2041 29.426-12.333 0.38338-12.333 0.38336zm-328.72-55.225c-0.42632-1.6986-0.58775-6.0486-0.35874-9.6667l0.41639-6.5783 91.249-0.34266c72.117-0.27082 91.472 9e-3 92.313 1.3333 0.58522 0.9218 1.0732 4.4832 1.0845 7.9141 0.0368 11.233 7.2956 10.429-94.049 10.429h-89.879zm9.0677-26.578c-6.4024-6.6376-7.3878-10.526-5.5519-21.907 0.86596-5.3681 2.1896-9.7601 2.9415-9.7601 1.9498 0 13.431 7.5323 16.28 10.681 2.3725 2.6215 2.4487 2.5925 6.9214-2.6328 3.1507-3.6809 6.924-6.1592 12.439-8.1701 4.3541-1.5876 8.5997-3.7097 9.4347-4.7157 2.3325-2.8105 4.3114-2.1876 6.7681 2.1302 1.2337 2.1684 6.3337 6.5674 11.333 9.7756 4.9996 3.2082 9.9136 6.8302 10.92 8.0491 2.6266 3.1808 4.1701 2.7348 4.1701-1.205 0-1.8815 0.69256-4.7315 1.539-6.3333 1.5488-2.9308 13.003-14.26 14.386-14.229 1.2134 0.0272 11.279 9.7219 13.728 13.222l2.266 3.2386 3.3104-3.5719c1.8207-1.9646 3.6309-3.5719 4.0228-3.5719s1.5899 2.1 2.6623 4.6667c2.0433 4.8903 3.9782 5.9412 5.1788 2.8126 0.39131-1.0197 4.2055-3.5284 8.476-5.5748 4.2705-2.0464 9.4145-4.853 11.431-6.2367 2.0167-1.3838 3.717-2.3251 3.7785-2.0918 0.0615 0.23327 0.21151 3.7241 0.33334 7.7575 0.31838 10.541 7.2529 19.253 9.5538 12.003 0.80205-2.527 6.6589-5.123 8.1635-3.6183 0.38776 0.38776 0.97872 3.3098 1.3132 6.4934 0.33452 3.1836 1.2701 7.4577 2.079 9.4978 1.724 4.3479 0.59682 6.1097-2.6225 4.0993-1.6254-1.0151-2.9621-1.0006-4.6574 0.0504-3.5117 2.1773-13.837-3.9402-19.578-11.599-5.75-7.6711-7.2827-6.5736-7.5932 5.4374-0.132 5.1064-0.85708 9.1096-1.701 9.3909-0.80903 0.26967-3.921-1.9598-6.9156-4.9543-5.2351-5.2351-7.8201-5.9632-7.8201-2.2028 0 3.0149-4.5458 7.6232-6.6783 6.7702-2.2978-0.91904-14.815-17.071-16.367-21.12-1.7764-4.6333-4.8191 0.1096-6.7391 10.505l-1.708 9.2473-5.7492-0.02c-5.566-0.0193-5.8184-0.20614-7.9202-5.8626-2.7683-7.45-6.8452-10.362-16.838-12.025-4.4-0.73257-9.3393-1.7202-10.976-2.1946-2.3892-0.69253-3.2439-0.15863-4.3333 2.7067-0.7464 1.9632-1.3663 5.7804-1.3775 8.4826-0.0112 2.7022-0.58585 5.8076-1.2769 6.9006-1.1061 1.7495-1.7022 1.728-4.9796-0.17939-2.0477-1.1916-5.8231-2.5992-8.3897-3.1279-2.5667-0.52864-6.3451-2.5374-8.3964-4.4639-3.1374-2.9464-3.9283-3.1888-4.9796-1.5261-0.6874 1.0871-1.259 4.5266-1.2702 7.6433-0.02576 7.1497-2.9787 7.5867-9.0104 1.3333zm241.78-22.667c-8.1104-13.845-8.0687-13.586-8.0986-50.333l-0.0276-34 12.147-0.3809 12.147-0.3809 0.68832 8.5751c0.37859 4.7163 1.0979 9.2377 1.5984 10.048 0.60268 0.97517 8.1136 1.4725 22.238 1.4725h21.328l-0.40639 6.3333-0.40639 6.3333-21.65 0.36628-21.65 0.36628-0.87131 3.4716c-1.3642 5.4355 0.59952 26.892 2.9061 31.753 1.1447 2.4122 3.5474 5.7632 5.3394 7.4468 1.792 1.6835 3.2582 3.7832 3.2582 4.666s-3.6128 2.9561-8.0283 4.6074c-4.4156 1.6513-8.351 3.5245-8.7453 4.1626-0.39438 0.63809-2.4563 1.1602-4.5821 1.1602-3.1376 0-4.4899-1.0666-7.1846-5.6667zm-246.56-26.882c-12.392-3.3843-25.569-16.169-28.844-27.986-0.95855-3.458-1.6135-21.379-1.7835-48.798l-0.26861-43.333h241.33v89.333l-3.694 7.522c-4.0976 8.344-12.343 16.671-21.173 21.383l-5.7992 3.0947-86.667 0.27107c-68.268 0.21353-88.033-0.10214-93.104-1.4868zm9.6735-14.964c3.3094-4.2072 3.4676-6.2426 0.66599-8.5677-1.1536-0.9574-3.3981-4.1809-4.9878-7.1632-2.7187-5.1004-2.9176-7.5384-3.3482-41.035-0.43918-34.161-0.56584-35.647-3.1084-36.454-1.4578-0.46268-4.1419-0.46695-5.9646-9e-3l-3.3141 0.83179 0.41029 36.955c0.39137 35.251 0.54906 37.234 3.4197 42.996 3.2905 6.6053 10.514 15.959 12.324 15.959 0.62672 0 2.383-1.5809 3.9029-3.5132zm210.08-103.8c-1.1407-30.422-0.59201-41.727 2.1088-43.448 1.0906-0.69494 25.6-1.0778 57.241-0.89405l55.333 0.32125v41.333l-43.333 0.66667-43.333 0.66667-0.3358 10.667c-0.5564 17.674 0.30244 16.667-14.211 16.667h-12.496zm-283.32-18.021v-26.775l11 0.38726 11 0.38725v52l-11 0.38725-11 0.38726zm32.856-1c-1.1696-7.0763-1.0155-22.018 0.24774-24.007 0.84235-1.3268 25.928-1.6032 120.98-1.3333l119.92 0.3405 0.39209 12c0.21566 6.6 0.0543 13.35-0.35873 15l-0.75083 3h-239.6zm31.811-9v-8h-10.667l-0.41308 6.4972c-0.58571 9.2125 0.14541 10.407 6.069 9.9172l5.0107-0.41445zm28.036-39.275c-1.2783-2.0684 2.6443-9.7537 7.1328-13.975 2.2903-2.1539 4.1642-4.7813 4.1642-5.8387 0-1.0574-3.3-5.0933-7.3333-8.9687-6.9669-6.6941-7.3333-7.3784-7.3333-13.697 0-6.0676 0.60267-7.3631 6.8765-14.782 6.7314-7.9598 11.109-10.126 12.601-6.2356 0.89559 2.3339-1.3302 6.7165-6.34 12.484-5.7613 6.6324-5.0671 10.263 3.5289 18.457 6.0557 5.7724 7.3251 7.7603 7.2861 11.41-0.0553 5.1701-1.4098 7.7283-8.5684 16.182-5.0836 6.0034-10.093 8.0728-12.015 4.9634zm47.944-0.09123c-1.8875-3.054 1.3204-9.8332 8.1371-17.196 9.6521-10.425 9.5935-12.928-0.48604-20.756-9.8457-7.6458-12.679-12.43-12.679-21.412 0-7.5513 2.7342-13.354 9.0911-19.293 1.9488-1.8208 4.4016-4.9606 5.4508-6.9773 1.5841-3.0449 2.7872-3.6667 7.0956-3.6667 2.939 0 5.45 0.72248 5.7925 1.6667 1.0619 2.9274-2.8272 10.361-9.0292 17.26-4.5743 5.0877-6.0198 7.7543-6.0198 11.105 0 4.5291 0.16551 4.7329 12.926 15.912 10.921 9.5678 10.885 19.101-0.11627 31.043-3.8912 4.2241-7.7862 9.0301-8.6557 10.68-1.1669 2.2144-2.77 3-6.1219 3-2.4976 0-4.9209-0.61464-5.3852-1.3659zm46.935-0.46824c-0.92752-2.4171 2.2901-8.5067 7.1662-13.563 2.1554-2.2349 3.9189-5.0566 3.9189-6.2705s-2.462-4.1853-5.4711-6.6032c-8.643-6.9448-11.521-15.532-7.647-22.817 3.1318-5.8901 12.275-15.579 14.702-15.579 5.7272 0 3.5711 9.2782-3.7555 16.161-5.1067 4.7975-4.1052 8.7465 4.1716 16.449 6.2054 5.7751 7.3261 7.5348 7.2861 11.44-0.0549 5.3683-1.3631 7.8687-8.5684 16.378-5.3133 6.2745-10.362 8.1583-11.803 4.4039z" fill="#919191"/>
  <path d="m304.55 412.85c-0.3834-0.99912-0.51458-15.249-0.2915-31.667 0.39574-29.124 0.4919-30.034 3.9528-37.417 3.8796-8.276 12.366-18.259 19.015-22.368 2.3313-1.4408 14.109-6.6057 26.172-11.478 24.217-9.7805 29.127-12.791 32.519-19.938 3.9077-8.2349 3.2542-8.5352-19.477-8.9469l-20.335-0.36836-0.86336-4.2285c-0.47486-2.3257-0.47319-4.8598 4e-3 -5.6314 0.53189-0.86063 9.0914-1.5454 22.143-1.7715l21.276-0.3686 0.66667-24 0.66666-24h22.667l0.35677 33.929 0.35679 33.929-4.565 9.6125c-8.0772 17.008-13.857 21.203-48.544 35.234-16.015 6.4779-20.538 8.9186-24.699 13.329-2.802 2.9696-4.8527 6.127-4.5572 7.0163 0.38069 1.1456 6.2159 1.7244 20.016 1.9855 18.287 0.34597 19.531 0.53544 20.344 3.0962 0.47616 1.5002 0.50395 4.1692 0.0617 5.931-0.80119 3.1922-0.87708 3.2046-21.787 3.5704l-20.983 0.36711-0.36768 21.943c-0.25985 15.508-0.84639 22.247-2 22.98-2.9659 1.8843-20.975 1.2726-21.746-0.73869zm85.466 0.20417c-0.33343-0.94652-0.77398-4.7209-0.97898-8.3876l-0.37273-6.6667-22.667-0.66666-22.667-0.66667v-10.667l22.667-0.66666 22.667-0.66667 0.41747-11.333c0.49558-13.454-1.1043-19.745-6.6189-26.026-2.2446-2.5565-3.7809-5.3965-3.4138-6.3112 0.36701-0.9147 5.3152-3.7241 10.996-6.2431l10.329-4.58 2.673 3.2467c1.4701 1.7857 4.2356 6.5467 6.1454 10.58 3.4344 7.2532 3.4724 7.6759 3.4724 38.667v31.333l-11.021 0.3876c-8.0822 0.28424-11.183-0.0713-11.627-1.3333zm-327.55-57.176c-0.70041-0.43344-1.0924-4.6334-0.87102-9.3333l0.40246-8.5453h181.33l0.3974 8.3506c0.28228 5.9315-0.104 8.5297-1.3333 8.9688-2.5929 0.92615-178.45 1.4727-179.93 0.5592zm9.9493-25.869c-1.5762-1.104-4.1984-4.1634-5.827-6.7986-2.6323-4.2591-2.8664-5.9134-2.1074-14.892 0.46959-5.5553 1.125-10.372 1.4564-10.703 1.5581-1.5581 7.6919 1.5786 13.766 7.0394l6.6938 6.0183 2.7516-4.6637c1.8235-3.0905 4.9044-5.6132 9.1337-7.4786 3.5101-1.5482 8.9485-4.0432 12.085-5.5444 5.595-2.6776 5.7398-2.6812 7.6243-0.19137 1.0565 1.3959 1.94 2.992 1.9634 3.5468 0.0233 0.5548 4.0924 3.6191 9.0424 6.8096s10.143 7.0866 11.54 8.6579c3.5888 4.0368 4.4308 3.6156 5.5071-2.755 0.74284-4.3968 2.5304-7.1818 8.2548-12.861l7.3066-7.2484 8.3663 8.875 8.3663 8.875 2.1936-3.3478c2.8866-4.4055 4.6314-4.2258 6.3319 0.65222 1.5384 4.413 3.8905 5.1043 6.5332 1.92 0.94941-1.144 6.4229-4.4236 12.163-7.288l10.437-5.2081v6.4242c0 9.5923 7.85 20.259 9.9772 13.557 0.94572-2.9797 5.3889-5.9545 7.2114-4.8281 0.62341 0.38529 1.4666 3.563 1.8736 7.0617 0.40708 3.4986 1.1725 7.7794 1.7008 9.5129 0.85153 2.7937 0.62825 3.0463-1.9652 2.2232-1.6399-0.52048-3.7321-0.25949-4.7603 0.59379-1.4043 1.1655-3.0518 0.90134-7.027-1.1266-5.2063-2.6561-15.011-12.353-15.011-14.846 0-2.1492-3.6409-1.5218-4.524 0.77956-0.44513 1.16-0.80932 5.66-0.80932 10 0 9.6678-1.5613 10.087-9.004 2.4192l-5.3108-5.4717-2.5093 5.1384c-3.8342 7.8516-6.0164 7.2612-14.417-3.9003-4.0839-5.426-7.4253-10.562-7.4253-11.413s-0.91486-1.548-2.033-1.548c-2.4176 0-4.4535 4.8634-5.543 13.241-0.95257 7.3245-2.6025 9.8317-5.429 8.2499-1.1222-0.62802-3.1478-0.85222-4.5014-0.49824-1.5966 0.4175-2.7449-0.22919-3.2689-1.841-2.4408-7.5068-3.9126-10.207-6.4803-11.89-2.3115-1.5146-21.029-5.9272-25.146-5.928-1.7397-3.8e-4 -4.932 8.8895-4.932 13.735 0 6.0831-0.83398 6.5379-6.46 3.5225-2.6586-1.425-6.252-2.5908-7.9854-2.5908-1.8234 0-4.8241-1.7905-7.1205-4.2489-5.1284-5.49-6.6059-3.7725-6.9955 8.1322-0.13163 4.0219-1.9893 4.7162-5.6874 2.126zm241.87-21.697c-1.1717-1.2948-3.9752-6.2964-6.23-11.115l-4.0996-8.7606 0.35668-33.885 0.35669-33.885h22.667l0.66666 9.3333 0.66667 9.3333 22 0.66667 22 0.66666v10.667l-19.333 0.32373c-27.686 0.4636-25.339-1.0238-25.304 16.035 0.0321 15.682 2.1753 22.869 8.925 29.932l3.4638 3.6244-6.5424 2.7174c-3.5983 1.4946-8.1349 3.6136-10.081 4.7089-4.6211 2.6004-6.9089 2.5131-9.5114-0.36264zm-254.95-32.778c-3.9533-1.841-9.517-6.2207-13.658-10.751-10.795-11.811-11.108-13.695-10.691-64.19l0.35242-42.593 119.25-0.34055c90.48-0.25839 119.48 0.0389 120.22 1.2323 0.53462 0.86504 0.65845 21.118 0.27516 45.007-0.66752 41.603-0.82578 43.724-3.7529 50.298-3.864 8.679-12.244 17.11-21.109 21.237l-6.8857 3.206h-177.33zm16.587-13.05 2.5436-4.1826-4.5823-6.6615c-2.5203-3.6638-4.9026-7.9377-5.2941-9.4976-0.3915-1.5599-1.1329-18.43-1.6475-37.489l-0.93572-34.653h-10.667l-0.35443 37.003-0.35443 37.003 3.4947 6.9973c3.824 7.6565 10.723 15.664 13.495 15.664 0.96692 0 2.9027-1.8822 4.3016-4.1826zm210.04-78.79c-0.36809-0.95924-0.50828-16.433-0.31152-34.386l0.35774-32.641 10-1.0068c5.5-0.55377 31-0.85377 56.667-0.66666l46.667 0.34018v41.333l-43.562 0.35142-43.562 0.35142-0.78005 8.3152c-0.42904 4.5734-0.92592 10.715-1.1042 13.649l-0.32413 5.3333-11.688 0.38556c-8.6814 0.28638-11.861-0.0632-12.358-1.3585zm-284.62-42.36v-26.667h9.7333c5.7926 0 10.381 0.6478 11.333 1.6 2.2508 2.2508 2.2508 47.882 0 50.133-0.95221 0.95221-5.5407 1.6-11.333 1.6h-9.7333zm33.91 2.2456c-0.3733-0.97281-0.50571-7.726-0.29424-15.007l0.38449-13.238 118.67-0.34504c98.461-0.28629 118.89-0.0381 120 1.4576 0.7901 1.0682 1.0617 7.1842 0.66666 15.012l-0.66666 13.209-119.04 0.34051c-97.903 0.28005-119.16 0.0264-119.72-1.4282zm29.826-3.3874c1.2054-0.76457 1.6128-3.7121 1.3333-9.6462l-0.40246-8.5452h-10.667l-0.40246 8.5452c-0.42269 8.9749 0.52321 10.747 5.7358 10.747 1.4667 0 3.4478-0.49544 4.4025-1.101zm30.486-47.747c-2.0519-2.0519-0.5665-5.9881 4.4444-11.778 2.9333-3.3892 5.3333-7.3133 5.3333-8.7203 0-1.407-3.3-5.7544-7.3333-9.661-6.4552-6.2523-7.3323-7.7325-7.3245-12.361 0.0089-5.3195 1.4202-8.0907 8.6579-17 2.4633-3.0323 5.1526-4.9241 7-4.9241 4.6472-6e-5 3.7648 4.6576-2.3333 12.317-2.9333 3.6841-5.3333 7.8871-5.3333 9.34 0 1.4955 3.148 5.5249 7.2555 9.2871 11.178 10.238 11.138 13.956-0.29083 27.39-5.6575 6.65-8.0723 8.1146-10.076 6.1111zm47.246-0.94893c-2.362-2.8461 0.31315-8.1826 8.5762-17.108 4.0091-4.3303 7.2892-9.0663 7.2892-10.525 0-2.7891-2.9503-6.0341-11.217-12.338-6.8074-5.1907-10.105-11.03-10.111-17.902-7e-3 -7.1196 2.5576-13.296 7.316-17.624 2.0156-1.8333 5.1004-5.5833 6.8552-8.3333 2.5327-3.969 4.0205-5 7.2157-5 7.7754 0 6.3212 7.3167-3.7098 18.667-9.3442 10.573-8.7702 15.316 2.8962 23.935 8.6136 6.3632 11.434 11.069 11.388 18.999-0.0348 5.9694-1.5348 8.4375-13.916 22.897-5.4366 6.3494-9.6925 7.8143-12.583 4.3314zm47.421 0.94893c-2.1303-2.1303-0.47945-6.1498 5.1111-12.444 3.3-3.7156 6-7.4107 6-8.2114 0-0.80062-2.9791-4.1582-6.6202-7.4612-7.1191-6.4581-10.171-12.993-8.7368-18.708 1.3962-5.563 11.543-17.483 14.945-17.556 5.8705-0.12677 4.9956 4.7365-2.2675 12.604-6.5879 7.1357-6.4468 9.4716 0.99502 16.473 8.1576 7.6746 10.187 11.35 9.1442 16.562-0.71485 3.5743-6.3898 11.705-12.284 17.599-2.1455 2.1455-4.8022 2.629-6.287 1.1442z" fill="#6d6d6d"/>
  <path d="m305.57 413.51c-1.3938-0.88378-1.6714-7.3325-1.3333-30.98 0.4192-29.325 0.49257-30.004 4.0722-37.645 8.1138-17.32 14.364-22.03 46.355-34.935 12.447-5.0212 23.644-10.411 25.786-12.413 4.4754-4.1825 7.5476-9.666 7.5476-13.472 0-2.6286-0.73362-2.7329-19.224-2.7329-10.573 0-20.173-0.36419-21.333-0.80932-1.3311-0.51079-2.109-2.4254-2.109-5.1907s0.77794-4.6799 2.109-5.1907c1.16-0.44513 11.06-0.80932 22-0.80932h19.891v-23.067c0-16.163 0.47886-23.546 1.6-24.667 1.8259-1.8259 18.107-2.1676 20.836-0.43731 1.4138 0.89632 1.6817 7.9284 1.3325 34.98l-0.43704 33.858-4.3716 8.3728c-8.6953 16.654-15.635 21.563-49.426 34.964-9.7896 3.8824-19.561 8.5414-21.715 10.353-4.2802 3.6015-8.2038 10.148-6.8774 11.474 0.45964 0.45964 8.7866 0.8357 18.504 0.8357s18.618 0.36419 19.778 0.80932c2.8544 1.0953 2.8544 9.286 0 10.381-1.16 0.44514-10.76 0.80932-21.333 0.80932h-19.224v44.066l-3.4201 1.3003c-4.1706 1.5856-16.584 1.6793-19.007 0.1434zm85.36-0.44307c-0.88-0.88-1.6-4.78-1.6-8.6667v-7.0667h-21.733c-22.804 0-24.933-0.5125-24.933-6 0-5.4875 2.1297-6 24.933-6h21.733v-13.376c0-14.685-1.725-20.768-7.6402-26.943-1.9243-2.009-3.2425-3.8857-2.9293-4.1704 0.31321-0.2847 5.2189-2.6517 10.902-5.2599l10.332-4.7423 3.2946 4.3194c1.812 2.3757 4.6595 7.2864 6.3278 10.913 2.8147 6.1182 3.0659 8.7441 3.4864 36.445 0.36166 23.821 0.0936 30.079-1.3265 30.98-2.7372 1.7351-19.017 1.3985-20.846-0.431zm-329.05-58.903c-0.38751-1.0098-0.51868-4.7598-0.29149-8.3333l0.41308-6.4972h181.33l0.41061 6.4369c0.22978 3.602-0.28254 7.2722-1.1632 8.3333-2.3178 2.7928-179.63 2.852-180.7 0.0604zm8.534-27.164c-5.8829-6.3075-6.7346-9.1525-5.7312-19.144 0.50813-5.0597 1.4843-9.5459 2.1692-9.9692 1.7157-1.0604 14.227 7.1505 16.74 10.986 2.316 3.5347 4.4092 4.092 4.4092 1.1739 0-3.8852 7.8391-10.988 14.044-12.725 3.3448-0.93649 7.6105-2.9054 9.4793-4.3754l3.3978-2.6727 4.8726 5.4192c2.68 2.9805 8.3064 7.5513 12.503 10.157 4.1968 2.606 8.3912 5.956 9.3207 7.4445 2.6631 4.2642 5.0486 3.3066 5.0486-2.0266 0-4.9412 3.2004-12.6 5.265-12.6 0.65809 0 3.1312-1.9346 5.4957-4.2992l4.2992-4.2992 8.4428 9.0885 8.4427 9.0885 1.5746-3.456c1.9726-4.3294 4.8378-4.4417 6.4307-0.25212 1.874 4.929 3.9391 5.3932 7.8243 1.7588 1.9571-1.8308 7.3083-5.1658 11.892-7.4111l8.3333-4.0824v4.815c0 5.1869 5.2972 15.572 8.5868 16.834 1.2889 0.49462 2.5985-0.508 3.7145-2.8438 0.94803-1.9842 2.9911-3.7894 4.5402-4.0114 2.4967-0.35783 2.8919 0.39931 3.4801 6.6667 0.36496 3.8887 1.1328 8.1901 1.7064 9.5588 0.9323 2.2246 0.72962 2.3208-1.9112 0.90748-2.2325-1.1948-3.4062-1.2058-4.8048-0.0449-1.0179 0.84482-3.0187 1.1654-4.4462 0.7123-5.2464-1.6652-13.791-9.0233-15.653-13.479-1.0534-2.5212-2.7842-4.584-3.846-4.584-2.3926 0-5.0121 9.158-4.522 15.809 0.45098 6.1208-1.8604 5.9663-7.6528-0.51151-2.2777-2.5472-4.7367-4.6314-5.4644-4.6314-0.72771 0-2.2659 2.4-3.4181 5.3333-1.1522 2.9333-2.6965 5.3333-3.4317 5.3333-1.7134 0-9.8882-9.4985-15.205-17.667-2.2672-3.4833-4.556-6.3333-5.0862-6.3333-1.4982 0-4.8032 9.3057-5.8467 16.462-0.84652 5.8056-1.237 6.3834-3.8412 5.6849-1.5944-0.42765-3.8674-0.78574-5.0511-0.79576-1.3162-0.0107-3.0465-2.3599-4.4545-6.0466-2.727-7.1405-5.9968-9.1397-18.06-11.042-4.7667-0.75171-9.6706-1.7649-10.898-2.2515-2.9942-1.1874-5.4668 3.4552-6.385 11.989-0.5265 4.8935-1.2492 6.596-2.7173 6.4008-5.5036-0.73149-16.656-5.5866-18.738-8.1574-1.2961-1.6006-3.0252-2.9102-3.8424-2.9102-1.9108 0-4.0866 5.7254-4.0866 10.753 0 4.9524-2.4504 5.0397-6.921 0.24653zm244.91-18.537c-1.1569-1.1569-4.0268-5.7843-6.3776-10.283l-4.2742-8.1798-0.43704-33.858c-0.34919-27.051-0.0813-34.083 1.3325-34.98 2.7292-1.7303 19.01-1.3886 20.836 0.43731 0.90448 0.90448 1.6 5.2371 1.6 9.967v8.367l21.523 0.36636c23.51 0.40018 25.121 0.96175 23.323 8.127l-0.88013 3.5068-21.65 0.36628-21.65 0.36628-0.3754 15.637c-0.40215 16.752 1.1107 22.397 7.5668 28.236 1.5447 1.397 2.8086 3.0546 2.8086 3.6835s-3.45 2.689-7.6667 4.5778c-13.175 5.9019-13.39 5.952-15.68 3.6617zm-251.48-31.618c-7.6962-2.7807-14.156-7.298-19.148-13.39-9.3214-11.376-9.3165-11.346-9.7791-59.992-0.33389-35.116-0.06784-44.091 1.3333-44.98 2.2778-1.4444 234.54-1.4542 236.82-9e-3 1.3804 0.87557 1.6525 10.192 1.3333 45.646-0.39168 43.507-0.47236 44.68-3.4588 50.273-4.5048 8.4368-11.882 16.01-19.524 20.044l-6.7513 3.5622-88 0.2939c-69.692 0.23276-89.004-0.0687-92.824-1.4489zm12.618-14.42 2.8423-4.9088-2.8288-3.0912c-7.4721-8.1652-7.7589-9.804-8.4741-48.425l-0.66667-36h-13.333l0.03805 37.333 0.03805 37.333 3.6261 6.9508c4.5484 8.7186 11.404 16.628 13.965 16.11 1.073-0.21681 3.2299-2.6032 4.7932-5.303zm210.47-78.691c-2.2726-2.2726-2.2726-63.861 0-66.133 1.1928-1.1928 15.615-1.6 56.667-1.6h55.067v19.91c0 17.832-0.24359 19.976-2.3333 20.544-1.2833 0.3487-20.439 0.6265-42.569 0.61734-22.13-9e-3 -40.88 0.38138-41.667 0.86786-0.85396 0.52778-1.4312 5.904-1.4312 13.33 0 10.119-0.3943 12.597-2.109 13.255-3.8072 1.461-19.963 0.87023-21.624-0.79068zm-285.61-42.4v-26l10.67 0.43486 10.67 0.43487v50.261l-10.67 0.43485-10.67 0.43487zm34.784 2.1343c-0.99934-1.2041-1.4118-6.2867-1.1633-14.333l0.38515-12.468 119.67-0.34046 119.67-0.34046v13.074c0 8.3907-0.57312 13.647-1.6 14.674-1.2201 1.2201-29.356 1.6-118.5 1.6-98.548 0-117.15-0.29295-118.45-1.8657zm31.28-5.2226c0.42632-1.6986 0.58775-6.0486 0.35874-9.6667l-0.41639-6.5783-5.8679-0.41983c-7.073-0.50605-8.0841 0.71795-8.1117 9.8198-0.02441 8.0505 1.5338 9.9333 8.2208 9.9333 4.1587 0 5.177-0.54065 5.8164-3.0884zm28.739-46.165c-2.5369-1.5679-0.77599-5.8381 5.3048-12.864 2.8776-3.3249 5.2321-6.8686 5.2321-7.8749 0-1.0063-2.6442-3.9964-5.8761-6.6447-8.0052-6.5596-10.924-12.856-8.9098-19.222 2.0344-6.4298 12.557-18.104 15.351-17.032 3.2816 1.2593 2.53 3.7537-3.2319 10.726-7.3958 8.95-7.1073 11.905 2 20.477 6.426 6.0488 7.3333 7.5386 7.3333 12.041 0 4.1747-1.1556 6.4981-6.1633 12.392-7.1218 8.3817-8.6415 9.483-11.04 8.0005zm46.537-3.1169c0-3.7529 2.6593-7.8274 10.301-15.783 7.9708-8.2982 7.5739-11.675-2.3013-19.58-16.374-13.106-17.324-24.224-3.4493-40.372 3.4162-3.9758 6.8135-7.9787 7.5495-8.8954 1.5572-1.9394 5.0915-2.1375 7.7792-0.43606 2.7828 1.7616-0.25678 8.1884-8.1256 17.181-8.2967 9.4811-8.6496 14.192-1.5398 20.555 11.741 10.506 15.001 14.1 15.846 17.466 1.6896 6.7318-0.54179 12.546-7.8879 20.554-3.8748 4.2241-7.43 8.7301-7.9003 10.013-0.59378 1.6203-2.2939 2.3333-5.5636 2.3333-4.0108 0-4.7085-0.44994-4.7085-3.0367zm47.48 1.9411c-1.0043-1.625 2.7827-8.3178 7.4361-13.142 5.0924-5.2791 4.4482-9.104-2.3004-13.659-5.8459-3.9457-8.6181-9.0025-8.6094-15.704 5e-3 -4.042 1.2647-6.6162 6.2295-12.733 6.2388-7.6862 11.097-9.9628 11.097-5.2 0 2.4599-6.548 12.479-9.2453 14.146-3.54 2.1879-1.3062 7.7288 5.9119 14.664 6.5251 6.2696 7.3333 7.6421 7.3333 12.453 0 4.5246-1.0339 6.614-6.3333 12.799-5.8632 6.8427-9.8629 9.0564-11.52 6.3757z" fill="#515151"/>
  <path d="m305.58 381.72 0.42107-31.724l3.7134-7.0479c4.7146-8.9482 11.876-16.891 18.842-20.899 2.9947-1.723 14.745-6.8767 26.112-11.453 11.367-4.576 22.622-9.7678 25.012-11.537 4.2854-3.1729 9.6544-11.811 9.6544-15.534 0-3.0598-3.0965-3.5291-23.287-3.5291h-19.069l-0.69947-3.6591c-0.38472-2.0125-0.41925-4.1125-0.0768-4.6667 0.34249-0.55418 9.7673-1.0076 20.944-1.0076 14.028 0 20.817-0.49553 21.921-1.6 1.1211-1.1211 1.6-8.5037 1.6-24.667v-23.067h21.333v67.409l-4.5258 9.4437c-7.7886 16.252-14.03 20.749-47.042 33.896-20.581 8.1963-24.76 10.643-28.495 16.687-4.8995 7.9276-3.8226 8.448 18.34 8.863l19.722 0.36929v8l-20.198 0.36734c-14.532 0.26429-20.6 0.8518-21.632 2.0944-0.85237 1.027-1.5826 10.335-1.8017 22.966l-0.3684 21.239-10.421 0.391-10.421 0.391zm85.088 24.542c0-3.8867-0.72-7.7867-1.6-8.6667-1.1136-1.1136-8.2074-1.6-23.333-1.6h-21.733v-9.3333h21.733c15.126 0 22.22-0.48644 23.333-1.6 2.1529-2.1529 1.9901-22.981-0.22816-29.187-0.94111-2.6328-3.3984-6.9992-5.4608-9.703-2.0623-2.7038-3.516-5.1347-3.2304-5.402 1.7812-1.6672 19.324-8.7511 20.528-8.2892 0.80748 0.30986 3.5358 4.3774 6.063 9.0389l4.5949 8.4756 0.43909 31.667 0.43909 31.667h-21.545zm-327.67-51.71c-1.7712-1.8668-2.1579-7.9211-0.82384-12.899l0.80641-3.0093 89.509 0.34267 89.509 0.34267 0.39986 7.6667 0.39988 7.6667h-61.185c-33.652 0-73.732 0.37048-89.067 0.82329-22.172 0.65468-28.223 0.46355-29.548-0.93333zm10.075-25.341c-1.2107-0.67752-3.5252-3.3741-5.1434-5.9924-2.5219-4.0805-2.8473-6.086-2.2783-14.039 0.36514-5.1034 1.0662-9.6811 1.5578-10.173 1.5075-1.5074 10.16 3.9429 14.724 9.2748 2.3763 2.7762 4.6665 5.0476 5.0893 5.0476s1.4584-2.0899 2.3014-4.6442c1.7364-5.2614 6.2213-8.8856 14.007-11.319 2.9333-0.91687 6.7727-2.5725 8.5318-3.6792 3.0448-1.9155 3.3972-1.7862 7.3333 2.6906 2.2742 2.5865 7.4348 6.7774 11.468 9.313 4.0333 2.5356 8.7879 6.1917 10.566 8.1247 1.7778 1.9329 3.6505 3.5144 4.1616 3.5144s1.3444-3.1303 1.8519-6.9561c0.80273-6.0513 1.7318-7.699 7.1427-12.667 3.421-3.1408 6.9132-5.7105 7.7605-5.7105 1.5814 0 8.342 7.144 13.318 14.073l2.8004 3.8997 2.2338-4.3197c2.2998-4.4474 4.832-5.7405 4.832-2.4675 0 1.0188 1.1776 3.2688 2.6169 5l2.6169 3.1477 3.0498-3.5543c2.3991-2.796 18.048-11.779 20.52-11.779 0.29142 0 0.52984 2.1394 0.52984 4.7543 0 5.2501 1.6014 9.0436 5.7324 13.579 3.6614 4.0198 5.3887 3.7797 7.1928-1 1.9462-5.1562 5.7415-5.3707 5.7415-0.32453 0 2.0215 0.55812 5.6215 1.2402 8 1.1475 4.001 1.0062 4.3245-1.8889 4.3245-1.721 0-3.3544 0.67582-3.6298 1.5018-1.3262 3.9788-19.722-10.391-19.722-15.406 0-0.99602-0.88359-2.15-1.9635-2.5644-3.3469-1.2843-6.0365 4.403-6.0365 12.765 0 4.2368-0.47823 7.7033-1.0627 7.7033-0.58451 0-3.4063-2.4-6.2706-5.3333-2.8643-2.9333-5.5951-5.3333-6.0684-5.3333s-1.8032 2.4-2.9555 5.3333c-1.1522 2.9333-2.9865 5.3333-4.076 5.3333-1.9884 0-15.567-17.154-15.567-19.666 0-0.73718-0.80892-2.0117-1.7976-2.8322-2.8451-2.3613-6.0505 2.3204-7.7387 11.303-2.0639 10.982-2.2547 11.483-3.9689 10.423-0.83822-0.51805-2.7925-1.0061-4.3427-1.0845-1.9147-0.0968-3.247-1.4674-4.1539-4.2733-1.5487-4.7912-4.0832-8.1309-7.5979-10.012-2.0106-1.076-21.995-5.1819-25.255-5.1889-1.4625-3e-3 -5.1448 10.512-5.1448 14.692 0 2.1852-0.31893 3.973-0.70872 3.973-3.9401 0-17.894-6.2649-20.286-9.1072-2.9249-3.477-3.0407-3.4995-5-0.97125-1.1031 1.4235-2.0057 4.8381-2.0057 7.588 0 5.613-1.0379 6.8413-4.2582 5.0392zm241.84-21.583c-0.77656-0.93571-3.2496-5.5857-5.4955-10.333l-4.0836-8.6321-1e-3 -33.667-1e-3 -33.667h21.333v8.4c0 4.7556 0.69417 9.0942 1.6 10 1.1094 1.1094 8.0592 1.6 22.667 1.6h21.067v9.3333h-20.088c-11.297 0-21.216 0.604-22.667 1.3802-2.3048 1.2335-2.5776 2.8992-2.566 15.667 0.0107 12.15 0.4778 15.283 3.1211 20.953 1.7095 3.6667 4.1036 7.4901 5.3203 8.4966 1.2167 1.0065 2.2122 2.2999 2.2122 2.8743 0 1.2097-16.806 9.2958-19.32 9.2958-0.92786 0-2.3224-0.76557-3.099-1.7013zm-255.61-33.442c-8.9441-4.165-18.678-15.088-21.293-23.895-1.6112-5.4254-2.0132-15.252-2.0132-49.211v-42.432l119 0.34051 119 0.34049-0.46071 44c-0.44371 42.375-0.57268 44.25-3.4931 50.782-3.7271 8.3358-10.692 15.483-19.38 19.885l-6.5778 3.3332-89.044-0.0133-89.044-0.0133-6.6937-3.117zm15.649-8.5236c4.8415-5.5504 5.2186-7.9202 1.8941-11.903-7.4959-8.9812-7.7121-10.205-8.6453-48.947l-0.87081-36.15h-13.333l-0.35482 37.223-0.35482 37.223 3.8137 8.1107c4.1007 8.721 10.771 16.777 13.891 16.777 1.0588 0 2.841-1.05 3.9604-2.3333zm211.71-114.89v-33.22l9.6667-0.85185c5.3167-0.46851 30.367-0.6697 55.667-0.44709l46 0.40475v38.667l-43.333 0.66667-43.333 0.66666-1.2124 13.667-1.2124 13.667h-22.242zm-285.34-9.9251-0.0023384-25.522 10.336 0.66667 10.336 0.66666v49.333l-10.333 0.18862-10.333 0.18863zm34.669-10.855v-14h118.59c65.223 0 118.88 0.47679 119.24 1.0595 0.36016 0.58275 0.30742 6.8828-0.1172 14l-0.77205 12.94h-236.94zm31.732 1.4527c0.28025-6.4697-0.11687-9.5413-1.3333-10.313-2.5934-1.6451-9.6435-1.3621-11.466 0.46023-1.7132 1.7132-2.249 17.307-0.64964 18.906 0.5227 0.52271 3.6727 0.77271 7 0.55556l6.0496-0.3948zm28.268-42.038c0-1.4221 2.4-5.3586 5.3333-8.7478 2.9333-3.3892 5.3333-7.4275 5.3333-8.974 0-1.6922-2.9202-5.5295-7.3333-9.6367-6.5979-6.1404-7.3333-7.3757-7.3333-12.318 0-4.5404 1.0536-6.7867 6.0733-12.949 5.9499-7.3041 9.9267-9.474 9.9267-5.4163 0 1.1216-2.4 5.0755-5.3333 8.7864-2.9333 3.7109-5.3333 7.941-5.3333 9.4 0 1.5063 3.5357 6.0487 8.1805 10.51 7.6408 7.3386 8.1301 8.1672 7.4172 12.56-0.48805 3.0075-3.0769 7.3413-7.1805 12.02-6.7042 7.6443-9.7506 9.1331-9.7506 4.7652zm47.37 1.3109c-1.3554-2.193 2.7662-9.8575 7.9185-14.725 6.0837-5.7478 9.1129-11.303 8.0278-14.722-0.45184-1.4236-4.3873-5.3322-8.7454-8.6857-9.2833-7.1434-11.904-11.53-11.904-19.926 0-7.1715 2.1354-11.798 8-17.333 2.3309-2.2 5.0999-5.65 6.1533-7.6667 1.4358-2.7489 2.9079-3.6667 5.881-3.6667 6.6224 0 5.1419 5.0282-5.0158 17.035-9.3894 11.099-8.3157 16.908 4.7968 25.953 11.926 8.2257 13.342 20.896 3.3985 30.392-2.6608 2.5409-6.2799 6.8699-8.0425 9.6199-3.1578 4.9269-8.5416 6.8428-10.468 3.7254zm47.297-1.3475c0-1.4422 2.7-5.6622 6-9.3778s6-7.4246 6-8.2421-3.45-4.6718-7.6667-8.5651c-7.2926-6.7332-7.6667-7.392-7.6667-13.501 0-5.6487 0.70795-7.2622 5.8754-13.39 3.2314-3.8323 6.9814-6.9679 8.3333-6.9679 1.3519 0 2.458 0.3298 2.458 0.73288 0 1.9098-4.1024 8.2662-7.2067 11.166-5.0607 4.7278-4.7314 11.09 0.83714 16.176 2.3634 2.1587 4.748 3.9248 5.2991 3.9248 2.1796 0 5.3105 8.4661 4.5455 12.291-0.89824 4.4912-12.21 18.375-14.97 18.375-1.0109 0-1.838-1.18-1.838-2.6222z" fill="#2d2d2d"/>
  <path d="m305.43 395.67c0.17071-29.967 1.6644-44.951 5.2112-52.275 4.0326-8.3276 10.846-15.919 18.107-20.174 3.0989-1.816 15.146-7.1504 26.772-11.854 23.415-9.4735 28.645-12.88 32.753-21.337 4.4893-9.2403 3.4561-10.024-13.229-10.038-7.9063-7e-3 -17.525-0.38995-21.375-0.85239-6.2302-0.74833-7-1.1869-7-3.9884v-3.1476l20.333-0.0204c11.183-0.0107 21.233-0.5883 22.333-1.2824 1.6261-1.026 2.0784-5.6339 2.4193-24.646l0.41928-23.384h20.245l-0.81655 33.292c-0.80046 32.636-0.8878 33.442-4.4365 40.944-3.9706 8.3932-11.791 17.62-18.393 21.7-2.3313 1.4408-14.109 6.6057-26.172 11.478-24.116 9.7396-28.733 12.549-32.639 19.858-2.5997 4.8653-2.6001 4.9378-0.0395 6.8233 1.949 1.4351 7.1348 1.9057 21 1.9057h18.412v6.6667h-19.905c-16.317 0-20.282 0.37761-22 2.0952-1.7294 1.7294-2.0952 5.8037-2.0952 23.333v21.238h-20l0.0931-16.333zm86.175 8.8596c-0.42424-4.1105-1.1566-7.8605-1.6274-8.3333-0.47083-0.4728-10.708-1.05-22.749-1.2827l-21.892-0.42307v-6.3077l21.892-0.42307c12.041-0.23269 22.373-0.90526 22.96-1.4946 1.8226-1.8287 2.1696-18.792 0.5446-26.619-0.85256-4.1068-3.3053-9.8761-5.4678-12.861l-3.9216-5.4137 7.9579-4.0172c4.3768-2.2094 8.725-4.0097 9.6626-4.0006 2.1142 0.0204 7.3278 7.9133 9.7362 14.74 1.1651 3.3023 2.1399 15.524 2.7527 34.512l0.94876 29.399h-20.027zm-328.37-51.633c-0.41068-1.0702-0.5567-4.2589-0.3245-7.086l0.42218-5.1402h178.67l-0.26802 5.8236c-0.1474 3.203-0.64702 6.203-1.1103 6.6667-0.46326 0.4637-40.397 1.0318-88.741 1.2625-76.081 0.36298-87.999 0.15776-88.645-1.5265zm9.1542-25.836c-5.5499-5.5499-6.9748-9.9637-5.8625-18.16 0.56432-4.1585 1.395-7.9298 1.8459-8.3807 1.1974-1.1974 9.7994 4.4356 13.014 8.5222 2.7219 3.4603 2.7243 3.5288 0.1583 4.478-3.4859 1.2895-4.2914 2.8266-5.3466 10.203l-0.89429 6.2519zm99.868-8.5418c-3.8084-5.2698-6.9244-10.327-6.9244-11.239 0-2.0649-3.0711-3.3407-5.0692-2.1058-2.0601 1.2732-5.1115 9.024-6.2322 15.83-0.84303 5.12-1.2989 5.6667-4.726 5.6667-4.505 0-6.7903-4.5438-3.5698-7.0979 1.1301-0.89624 2.2514-4.675 2.6155-8.8148 0.57783-6.5686 1.1832-7.7178 6.4762-12.294 3.2113-2.7762 6.3816-5.0654 7.0452-5.0873 1.8491-0.0609 11.486 10.521 12.851 14.112 1.6935 4.4543 4.9499 3.9619 6.9984-1.0584l1.7303-4.2404 2.8952 4.9071c3.3065 5.604 4.9256 6.0745 7.3072 2.1234 0.92288-1.531 5.728-4.8386 10.678-7.3501l9-4.5664v4.1044c0 4.8718 1.7641 8.612 6.4124 13.596 4.3592 4.6738 8.2543 4.8682 8.2543 0.41203 0-3.0201 2.103-5.7534 3.4163-4.4402 1.0854 1.0854 2.2904 13.693 1.2131 12.692-0.5938-0.5516-2.1494-0.0348-3.4569 1.1485-2.1971 1.9884-2.7314 1.9325-7.0519-0.73771-5.3302-3.2942-10.858-9.43-12.143-13.478-1.1879-3.7428-6.0829-2.9107-8.2579 1.4039-0.92421 1.8333-1.7138 6.3333-1.7547 10l-0.0744 6.6667-5.2596-5.8166c-5.9676-6.5996-8.601-6.5779-10.328 0.0852-1.8135 6.9987-4.508 6.0099-12.046-4.4206zm-77.803 3.921c-7.0721-2.3866-11.526-6.4358-7.0796-6.4358 1.0851 0 1.9582-1.2185 1.9582-2.7329 0-6.4934 7.5804-14.6 13.652-14.6 0.98136 0 4.1437-1.2029 7.0274-2.6731l5.2431-2.6731 3.0752 3.9293c1.6913 2.1611 6.2885 5.7678 10.216 8.0149 3.9274 2.247 7.9004 5.0008 8.8289 6.1195 1.4869 1.7916 1.2275 1.857-2.1771 0.54844-2.1258-0.81706-6.8652-2.0006-10.532-2.6301-3.6667-0.62948-8.5613-1.544-10.877-2.0323-3.5369-0.74577-4.4868-0.3852-5.9388 2.2543-0.95065 1.7282-2.056 5.7941-2.4563 9.0355-0.40031 3.2414-1.3278 6.0123-2.0612 6.1576-0.73333 0.14533-4.7287-0.88155-8.8785-2.282zm218.96-19.26c-7.1362-12.095-7.2209-12.611-7.7872-47.509l-0.53551-33h19.928l0.55767 8.758c0.36275 5.6969 1.2326 9.1849 2.4886 9.9796 1.0621 0.67189 11.081 1.2308 22.264 1.242l20.333 0.0204v8h-21.286c-25.877 0-24.723-0.97086-23.731 19.975 0.69169 14.593 2.3912 20.145 8.0671 26.353 1.506 1.6471 2.4858 3.2081 2.1774 3.4688-1.4828 1.2534-16.426 7.5365-17.924 7.5365-0.93895 0-2.988-2.1708-4.5534-4.8239zm-241.42-27.205c-4.7667-0.4503-10.285-1.5012-12.264-2.3353-5.4443-2.2954-14.118-10.676-18.138-17.524-3.4787-5.9264-3.614-6.9394-4.4672-33.445-0.48389-15.033-0.93637-35.283-1.0055-45l-0.12573-17.667h237.63l-0.54257 43.667-0.54257 43.667-3.4709 6.6667c-4.3832 8.419-11.72 15.765-19.603 19.628l-6.1332 3.0055-81.333 0.078c-44.733 0.0428-85.233-0.29053-90-0.74082zm4.5988-11.097c4.135-5.4213 4.3073-8.9741 0.59802-12.331-6.7764-6.1326-7.1093-8.1735-7.5927-46.543-0.49995-39.684-0.42024-39.333-8.9374-39.333-9.0275 0-8.8681-0.78376-8.4113 41.372l0.41134 37.961 3.6112 6.8463c4.2501 8.0575 11.823 16.487 14.812 16.487 1.1594 0 3.6386-2.0066 5.5092-4.4592zm211.18-109.21c-0.29308-14.85-0.21313-29.4 0.17765-32.333l0.71052-5.3333 54.333-0.34829 54.333-0.34829v37.363h-42.4c-31.2 0-42.823 0.42264-44 1.6-1.015 1.0151-1.6 6.1333-1.6 14v12.4h-21.022zm-285.89-14.333c0-14.3 0.19615-20.15 0.4359-13s0.23974 18.85 0 26-0.4359 1.3-0.4359-13zm2.1086 0v-24h17.333v48h-17.333zm32.981-10.332c-0.40029-6.4162-0.44946-12.116-0.10925-12.667 0.3402-0.55046 53.683-1.0008 118.54-1.0008h117.92v25.333l-102.33 0.00267-102.33 0.00267v-22.004l-7.6249-0.39862c-7.2297-0.37797-7.6697-0.21997-8.4901 3.0486-0.47586 1.896-0.60638 7.0254-0.29004 11.399l0.57515 7.9503h-15.128zm59.91-42.571c0.48488-1.3366 3.1828-4.9668 5.9953-8.0671 2.8126-3.1003 5.1137-6.9521 5.1137-8.5596 0-1.8266-2.7504-5.4824-7.3333-9.7476-6.585-6.1283-7.3333-7.3823-7.3333-12.287 0-4.5252 1.0553-6.7443 6.1512-12.934 3.3831-4.1095 6.7184-7.1212 7.4116-6.6928 1.3099 0.80956 0.66683 1.9097-6.0974 10.431-5.9904 7.5468-5.1911 11.785 3.7854 20.073 9.7348 8.9879 9.9185 12.434 1.1891 22.309-6.5292 7.3867-10.453 9.8054-8.8823 5.4747zm47.109 0.81548c0-2.7228 3.0773-7.2924 9.597-14.251 5.7622-6.1499 6.5129-7.608 6.1499-11.945-0.35632-4.2565-1.4773-5.7469-8.1041-10.774-8.919-6.7662-11.865-11.642-11.865-19.638 0-6.9916 1.5668-10.142 9.0752-18.248 3.1976-3.4519 5.8137-6.9019 5.8137-7.6667 0-0.76475 1.5-1.3905 3.3333-1.3905 4.9717 0 4.2741 4.3533-1.7675 11.03-7.5866 8.3838-9.5658 11.781-9.5658 16.42 0 5.0561 3.5843 9.885 11.254 15.162 12.052 8.2921 12.797 18.555 2.1688 29.9-3.514 3.7514-7.0928 8.1707-7.9529 9.8207-1.6025 3.0744-8.1365 4.3425-8.1365 1.579zm48-0.6088c0-1.1164 2.4-4.6335 5.3333-7.8158 7.2248-7.8379 6.9963-10.73-1.4374-18.192-5.878-5.2012-6.9171-6.8674-7.4983-12.024-0.63316-5.6174-0.27904-6.4566 5.7512-13.629 3.5343-4.2035 6.8966-7.6428 7.4719-7.6428 2.4939 0 0.65468 4.2899-4.2874 10-3.6545 4.2225-5.3333 7.4149-5.3333 10.142 0 3.918 0.78213 4.9376 10.462 13.638 6.3148 5.676 5.7928 10.709-2.0823 20.076-6.4888 7.7175-8.3793 8.9468-8.3793 5.4483z" fill="#020202"/>
 </g>
</svg>
