<?xml version="1.0" encoding="UTF-8" standalone="no"?>
<!-- Created with Inkscape (http://www.inkscape.org/) -->

<svg
   xmlns:dc="http://purl.org/dc/elements/1.1/"
   xmlns:cc="http://creativecommons.org/ns#"
   xmlns:rdf="http://www.w3.org/1999/02/22-rdf-syntax-ns#"
   xmlns:svg="http://www.w3.org/2000/svg"
   xmlns="http://www.w3.org/2000/svg"
   xmlns:sodipodi="http://sodipodi.sourceforge.net/DTD/sodipodi-0.dtd"
   xmlns:inkscape="http://www.inkscape.org/namespaces/inkscape"
   version="1.1"
   id="svg15632"
   width="20"
   height="20"
   viewBox="0 0 20 20"
   sodipodi:docname="task_formstructure_20x20.svg"
   inkscape:version="0.92.2 5c3e80d, 2017-08-06">
  <metadata
     id="metadata15638">
    <rdf:RDF>
      <cc:Work
         rdf:about="">
        <dc:format>image/svg+xml</dc:format>
        <dc:type
           rdf:resource="http://purl.org/dc/dcmitype/StillImage" />
        <dc:title></dc:title>
      </cc:Work>
    </rdf:RDF>
  </metadata>
  <defs
     id="defs15636" />
  <sodipodi:namedview
     pagecolor="#ffffff"
     bordercolor="#666666"
     borderopacity="1"
     objecttolerance="10"
     gridtolerance="10"
     guidetolerance="10"
     inkscape:pageopacity="0"
     inkscape:pageshadow="2"
     inkscape:window-width="1211"
     inkscape:window-height="867"
     id="namedview15634"
     showgrid="false"
     inkscape:zoom="28.988538"
     inkscape:cx="13.082041"
     inkscape:cy="8.5654396"
     inkscape:window-x="0"
     inkscape:window-y="0"
     inkscape:window-maximized="0"
     inkscape:current-layer="svg15632"
     inkscape:pagecheckerboard="true" />
  <g
     id="g15642"
     transform="matrix(0.09110313,0,0,0.08141482,-0.02209415,-0.14316678)">
    <path
       style="fill:#d0d0d0"
       d="m 99.084191,243.4571 c -2.156864,-1.9486 -4.722803,-5.4801 -5.702086,-7.84778 -1.73092,-4.18497 -2.643077,-4.80354 -32.747162,-22.2071 L 29.668296,195.5 h -7.656619 c -6.450833,0 -8.210597,-0.37951 -11.174325,-2.40982 C 0.98177914,186.33856 -0.92261756,173.88429 6.5355448,164.95746 L 10,160.81077 V 124.94018 89.069592 L 7.0354635,85.693172 C -1.8107135,75.617933 0.99864997,62.189123 13.273298,55.876208 c 2.920768,-1.502167 5.406081,-1.876865 11,-1.658417 L 31.5,54.5 61.574835,37.082321 91.64967,19.664642 93.313501,14.980019 c 4.99064,-14.05146771 21.784529,-17.6049631 31.407009,-6.6455547 1.7541,1.9978067 3.70187,5.3432707 4.32838,7.4343637 1.09757,3.663371 2.23857,4.438739 31.2951,21.266581 L 190.5,54.5 l 6.91502,-0.27309 c 9.00763,-0.355733 12.54025,0.916035 17.50468,6.301796 3.97362,4.310875 4.0803,4.611925 4.0803,11.514692 0,7.372283 -0.70722,9.545322 -4.64857,14.283327 L 212,89.153451 v 35.828659 35.82866 L 215.5,165 c 3.33195,3.98808 3.5,4.55766 3.5,11.86248 0,6.50664 -0.37453,8.22441 -2.46339,11.29846 -3.69228,5.43367 -10.26353,8.25704 -17.4658,7.50425 l -5.74826,-0.60081 -27.41127,15.7735 c -15.07621,8.67543 -29.23545,16.83262 -31.465,18.12709 -2.85674,1.65863 -4.5786,3.62265 -5.83131,6.65141 -0.97767,2.3638 -3.5423,5.89212 -5.69916,7.84072 C 119.11399,246.89181 118.75013,247 111,247 c -7.75013,0 -8.11399,-0.10819 -11.915809,-3.5429 z M 96.514012,137.42948 C 95.132658,135.61843 93.597703,133.09342 93.103,131.81833 92.491962,130.2434 82.764027,123.65806 62.765948,111.28162 46.575272,101.26151 32.579476,92.77586 31.664178,92.424627 30.132109,91.836717 30,94.477226 30,125.68725 v 33.90123 l 3.828614,4.10582 c 2.464486,2.64292 4.335052,5.95835 5.25,9.30521 L 40.5,178.1989 l 29,16.72614 29,16.72615 0.262782,-35.46445 0.262781,-35.46444 z m 77.157718,45.15235 c 7.83569,-4.56503 8.21883,-4.95715 9.31717,-9.53557 0.7416,-3.09132 2.53205,-6.30694 5.07828,-9.12049 L 192,159.58005 V 125.79002 C 192,107.20551 191.65086,92 191.22414,92 c -0.42673,0 -4.13923,2.079501 -8.25,4.621114 C 143.52303,121.01297 129,130.38362 129,131.44668 c 0,0.68928 -1.35,3.11686 -3,5.39462 l -3,4.14138 v 35.45753 35.45753 l 21.25,-12.27755 c 11.6875,-6.75265 24.92728,-14.41991 29.42173,-17.03836 z m -62.38189,-75.55987 c 2.81954,-0.0129 6.36651,0.7824 8.62279,1.93346 l 3.83294,1.95543 24.87722,-16.588196 c 29.75351,-19.839728 31.78793,-21.320743 30.7118,-22.357636 -0.45902,-0.442288 -13.86493,-8.32663 -29.79091,-17.520761 l -28.95632,-16.7166 -4.79368,1.228583 c -3.79836,0.97349 -5.79728,0.971368 -9.62724,-0.01022 l -4.83355,-1.238803 -29.384626,17.05093 c -16.161543,9.378011 -29.496201,17.431387 -29.632573,17.896391 -0.136373,0.465004 12.373732,9.244429 27.800234,19.509833 l 28.048185,18.664369 4.16794,-1.89241 c 2.29237,-1.04082 6.32338,-1.90229 8.95779,-1.91437 z"
       id="path15656"
       inkscape:connector-curvature="0" />
    <path
       style="fill:#b1b1b1"
       d="m 103.5,245.83574 c -3.859291,-2.12924 -7.746162,-6.37358 -9.478211,-10.3499 -0.961692,-2.20779 -2.372515,-4.52267 -3.13516,-5.14417 -0.762646,-0.6215 -15.063206,-9.03524 -31.779023,-18.69719 C 29.831588,194.72257 28.557935,194.09885 24.433478,194.66417 18.159109,195.52417 13.414921,194.3032 9.427536,190.80223 4.6526352,186.60981 3,183.06101 3,177 3,171.52666 4.5363529,167.63456 7.8976208,164.59265 9.9632853,162.72325 10,162.03183 10,125 10,87.968172 9.9632853,87.276749 7.8976208,85.407348 4.5363529,82.365442 3,78.473335 3,73 3,66.938989 4.6526352,63.390186 9.427536,59.197768 c 4.107989,-3.606863 8.681663,-4.706253 15.703678,-3.77475 l 5.021678,0.666149 30.8893,-17.794583 L 91.931493,20.5 93.488179,15.924425 c 1.537484,-4.519138 5.949272,-9.6268501 10.196081,-11.804431 2.81847,-1.4451901 11.81301,-1.4451901 14.63148,0 4.25534,2.1819542 8.65955,7.28869 10.18052,11.804431 l 1.54112,4.575575 30.8415,17.749281 30.8415,17.749281 6.04403,-0.631727 c 3.32422,-0.34745 7.20389,-0.340624 8.62148,0.01517 3.25687,0.817423 9.2687,6.049361 11.16519,9.716781 2.98927,5.780609 1.24548,16.155412 -3.41306,20.306204 C 212.02551,87.287247 212,87.759641 212,125 c 0,37.03183 0.0367,37.72325 2.10238,39.59265 3.37812,3.05716 4.89762,6.94146 4.89762,12.51983 0,6.76269 -3.31309,12.57114 -8.99054,15.76205 -3.52744,1.98253 -5.15683,2.27482 -10.34806,1.85628 l -6.1614,-0.49676 -32.18084,18.42986 c -29.22908,16.73939 -32.24183,18.70754 -32.84577,21.45725 -0.79031,3.59827 -5.65085,9.40213 -9.57217,11.42992 -3.286,1.69926 -12.52764,1.87007 -15.40122,0.28466 z M 96.51248,135.88182 C 94.580616,133.07339 93,130.4154 93,129.97518 93,129.21886 34.557385,92.534855 31.457178,91.345194 30.197977,90.861993 30,95.560303 30,125.92634 v 35.14033 l 3.459536,3.45953 c 2.058685,2.05869 3.889774,5.18335 4.52205,7.71667 0.584383,2.34142 1.390092,4.8374 1.790464,5.54662 C 40.172423,178.49871 53.775,186.7229 70,196.06547 l 29.5,16.98649 0.26248,-36.03195 0.26248,-36.03194 z m 62.38929,56.13232 23.40177,-13.61207 1.21064,-4.76796 c 0.77518,-3.05297 2.51904,-6.1079 4.84822,-8.4932 L 192,161.41567 v -35.31482 c 0,-30.174014 -0.20769,-35.23513 -1.42673,-34.767342 -1.16001,0.445141 -30.39685,18.446402 -56.32327,34.678502 -2.8875,1.80782 -5.25,3.62446 -5.25,4.03698 0,0.41252 -1.575,3.09047 -3.5,5.95101 l -3.5,5.20098 v 35.98557 35.98558 l 6.75,-3.77296 c 3.7125,-2.07514 17.2808,-9.8984 30.15177,-17.38503 z M 111.38349,107.7874 c 3.87424,-0.0348 6.44895,0.56395 8.87656,2.0643 l 3.41945,2.11334 28.65054,-19.232521 C 168.08783,82.154634 180.84057,73.05 180.66945,72.5 180.49833,71.95 166.93194,63.71405 150.52192,54.197889 l -29.83641,-17.302111 -4.8778,1.250143 c -3.86426,0.99038 -5.82725,0.996205 -9.44714,0.02803 -4.49592,-1.202474 -4.70024,-1.149813 -12.714958,3.277028 -18.593754,10.270059 -52.030055,30.121998 -52.333766,31.07182 -0.179874,0.562539 12.549383,9.642793 28.287238,20.178343 l 28.614283,19.155548 3.856503,-2.01013 c 2.42972,-1.26644 5.87547,-2.02826 9.31362,-2.05916 z"
       id="path15654"
       inkscape:connector-curvature="0" />
    <path
       style="fill:#909090"
       d="m 105.14516,245.98442 c -4.93401,-2.0901 -8.110284,-5.21771 -10.561986,-10.40019 L 92.044481,230.21788 61.27224,212.35894 30.5,194.5 22.729894,194.33031 C 13.849018,194.13636 9.8404141,192.37082 6.277746,187.08418 1.646712,180.21219 2.0892265,172.65644 7.5410266,165.5142 L 11,160.98269 V 124.8857 88.788712 L 8.3484619,85.644356 C 2.7691884,79.028112 1.6773807,72.509909 4.9434584,65.31614 8.4664529,57.556492 15.912042,54.498236 27.5,56.051098 31.789697,56.625945 91.652136,22.053009 93.177741,18.119593 97.349112,7.3646869 101.95354,3.584873 110.9467,3.5328976 c 7.03476,-0.040657 12.67279,3.27259 15.44638,9.0772354 1.02227,2.139427 2.36453,4.951547 2.98279,6.249155 0.75989,1.594824 11.17967,8.149556 32.15751,20.229205 30.76332,17.714407 31.06652,17.860765 34.84188,16.818337 8.50329,-2.347871 18.04154,2.380763 21.13355,10.477059 2.39557,6.272727 1.37347,12.307068 -3.07077,18.129338 L 211,89.017306 V 125 160.98269 l 3.45897,4.53151 c 5.4518,7.14224 5.89432,14.69799 1.26328,21.56998 -3.64775,5.4129 -8.05497,7.36646 -16.70471,7.40459 l -7.51754,0.0331 -30.76416,17.83091 -30.76417,17.83091 -2.58178,5.45744 c -3.19425,6.75209 -8.37207,10.50762 -15.16447,10.99896 -2.59898,0.188 -5.7851,-0.10707 -7.08026,-0.65571 z m -4.38272,-69.1405 0.26244,-35.48994 -2.551686,-3.42699 c -1.403427,-1.88485 -3.546525,-4.95168 -4.76244,-6.81519 -1.62839,-2.49567 -10.211096,-8.35273 -32.581453,-22.23442 C 44.425416,98.511959 30.362916,90.275705 29.879301,90.574596 29.395685,90.873487 29,106.67865 29,125.69719 v 34.57915 l 3.937845,4.27206 c 2.502506,2.71489 4.189489,5.67165 4.628228,8.11183 0.37971,2.11187 0.995186,4.41499 1.367725,5.11804 0.905966,1.70971 59.237633,35.33118 60.543398,34.89627 0.664804,-0.22143 1.114664,-12.76264 1.285244,-35.83062 z m 53.42136,18.41233 28.70461,-16.62264 1.14648,-4.77903 c 0.72579,-3.02544 2.58093,-6.40867 5.05579,-9.22026 L 193,160.1931 v -34.53753 c 0,-18.99565 -0.39253,-34.780136 -0.8723,-35.076647 -0.47976,-0.29651 -14.54226,7.947246 -31.25,18.319457 -30.19274,18.74374 -30.40651,18.90041 -35.10997,25.73009 l -4.73227,6.87153 -0.0177,35.08333 c -0.01,19.29584 0.29626,35.39733 0.68004,35.7811 1.05793,1.05794 1.69981,0.7199 32.48603,-17.10818 z m -52.38027,-84.83119 c 1.2367,-0.86622 4.65974,-1.8238 7.60676,-2.12796 4.33508,-0.44742 6.24051,-0.11238 9.97873,1.75458 l 4.6205,2.30759 27.24524,-18.335075 C 180.54947,74.309903 182.18948,73.115604 181.4995,71.999197 181.25017,71.595767 167.87644,63.671784 151.78011,54.390346 L 122.51406,37.515005 111.01968,37.507502 99.525312,37.5 70.012656,54.523852 c -16.231961,9.363118 -29.489309,17.463118 -29.460774,18 C 40.61244,73.663211 96.858564,112 98.469627,112 c 0.596948,0 2.097203,-0.70872 3.333903,-1.57494 z"
       id="path15652"
       inkscape:connector-curvature="0" />
    <path
       style="fill:#6d6d6d"
       d="m 102.5,244.13944 c -4.204603,-2.59716 -6.264039,-5.15047 -7.828417,-9.70575 -1.302384,-3.79239 -2.499768,-4.59975 -33.33423,-22.47638 l -31.983319,-18.54269 -6.927017,0.3792 c -5.999059,0.32841 -7.392697,0.063 -10.40322,-1.9811 C 6.4799894,188.04852 4,183.5637 4,177.30246 4,171.54653 5.4919688,167.67472 8.8976208,164.59265 10.963285,162.72325 11,162.03183 11,125 11,87.968172 10.963285,87.276749 8.8976208,85.407348 5.5724578,82.398117 3.7692308,78.035487 3.7692308,73 c 0,-5.515128 2.0034462,-9.789488 6.2719242,-13.381176 4.026801,-3.388329 6.80307,-4.024539 14.192012,-3.252242 l 6.041618,0.631474 31.308338,-18.0776 31.308338,-18.0776 1.581001,-4.759947 C 97.111406,8.1377914 102.77126,4 111,4 c 8.23415,0 13.88859,4.1377885 16.53261,12.098173 l 1.58607,4.775211 31.19723,18.004604 31.19724,18.004603 7.49342,-0.543579 c 6.7316,-0.488316 7.83991,-0.304432 10.90148,1.808704 7.12144,4.915314 9.61005,11.214266 7.58364,19.195073 -0.66327,2.61224 -2.39524,5.99088 -3.84882,7.508088 L 211,87.609438 v 37.540292 c 0,36.87967 0.037,37.57378 2.10238,39.44292 3.32516,3.00923 5.12839,7.37186 5.12839,12.40735 0,5.51513 -2.00345,9.78949 -6.27193,13.38118 -3.91098,3.29087 -6.63451,3.9763 -13.52814,3.40463 l -5.47693,-0.45419 -32.16286,18.58419 c -28.03836,16.20099 -32.28361,18.9689 -33.10449,21.58419 -1.32911,4.23452 -5.28196,9.23948 -8.68845,11.00105 -4.09238,2.11625 -12.79533,1.92549 -16.49797,-0.36161 z M 101,176.51771 v -36.36426 l -2.359306,-2.82672 c -1.297619,-1.5547 -3.080114,-4.23303 -3.9611,-5.95184 -1.219775,-2.3798 -7.156058,-6.58219 -24.890693,-17.62053 C 37.192562,93.465834 31.405237,90 30.123359,90 29.313228,90 29,99.937044 29,125.63817 v 35.63817 l 3.887754,4.21771 c 2.597854,2.81834 4.115059,5.56313 4.572852,8.27278 0.376803,2.23028 1.439814,4.70318 2.362246,5.49532 1.509016,1.29589 42.357622,25.13375 54.630926,31.88076 2.724578,1.49778 5.312078,2.5018 5.750002,2.23115 C 100.6417,213.10341 101,196.51805 101,176.51771 Z m 51.5,20.20514 c 32.52965,-18.77206 31.08783,-17.74385 31.88668,-22.73954 0.44564,-2.78687 1.90468,-5.42896 4.63194,-8.38768 L 193,161.27634 v -35.7548 c 0,-33.925745 -0.092,-35.730746 -1.79831,-35.284535 -0.98906,0.258647 -15.40199,8.908474 -32.02872,19.221835 -23.60449,14.64159 -30.58373,19.44085 -31.84239,21.89637 -0.88658,1.72963 -2.67366,4.41682 -3.97127,5.97152 L 121,140.15345 v 36.25661 c 0,19.94113 0.28417,36.54077 0.63148,36.88809 0.80298,0.80297 0.10011,1.18039 30.86852,-16.5753 z m -41.14174,-88.07691 c 3.71825,-0.0537 6.22824,0.55342 8.76243,2.11963 l 3.55151,2.19496 29.21315,-19.605265 c 17.62222,-11.826462 29.09442,-20.144148 28.9139,-20.96344 -0.16459,-0.746998 -13.98996,-9.26229 -30.72304,-18.922872 l -30.42379,-17.564695 -4.86126,1.245903 c -3.82697,0.980823 -5.82156,0.989058 -9.37482,0.03871 C 101.02068,35.745748 105.12576,33.827431 68.75,54.790477 52.9375,63.90309 40,71.950799 40,72.674276 c 0,0.723477 13.10639,10.056118 29.125311,20.739202 l 29.125311,19.423792 3.948368,-2.05801 c 2.41363,-1.25805 5.97384,-2.08728 9.15927,-2.13332 z"
       id="path15650"
       inkscape:connector-curvature="0" />
    <path
       style="fill:#505050"
       d="m 102.94044,243.6869 c -3.415951,-1.80639 -5.042075,-3.61361 -7.42331,-8.25 L 92.467952,229.5 60.983976,211.24724 29.5,192.99449 23.816909,193.61884 C 6.6438355,195.5055 -2.0653102,177.89079 9.3484619,164.35564 L 12,161.21129 V 125 88.788712 L 9.3484619,85.644356 C 7.890116,83.91496 6.090116,81.051953 5.3484619,79.282119 0.4502307,67.5933 10.353878,54.637309 22.818441,56.427821 c 2.574858,0.369874 5.447961,0.679483 6.384675,0.688019 0.936713,0.0085 15.561713,-8.003574 32.5,-17.804691 C 84.138339,26.329301 92.77151,20.827959 93.5,19.049122 97.738681,8.6990511 103.20301,4 111,4 c 7.79827,0 13.27077,4.7074881 17.5,15.053654 0.73003,1.785907 9.31477,7.256078 31.79893,20.26218 16.9394,9.798709 31.5644,17.808781 32.5,17.80016 0.93559,-0.0086 3.80777,-0.318299 6.38263,-0.688173 12.46456,-1.790512 22.36821,11.165479 17.46998,22.854298 -0.74166,1.769834 -2.54166,4.632841 -4,6.362237 L 210,88.788712 V 125 161.21129 l 2.65154,3.14435 c 8.2464,9.77909 6.5967,22.17327 -3.65566,27.46482 -3.75753,1.93938 -5.48125,2.22902 -10.49588,1.76365 l -6,-0.55681 -31.5,18.23635 c -29.09952,16.84664 -31.65241,18.54424 -33.5,22.27662 -3.10213,6.26672 -4.93776,8.38868 -9.08647,10.50382 -5.07431,2.58703 -10.12602,2.47041 -15.47309,-0.35719 z M 101.52277,211.75 c 0.30848,-1.2375 0.42956,-17.775 0.26905,-36.75 L 101.5,140.5 97.759063,135 c -2.057516,-3.025 -4.387455,-6.175 -5.177642,-7 -2.302172,-2.4036 -60.592176,-38.239641 -62.42168,-38.376154 -1.513009,-0.112897 -1.682943,3.021496 -1.922186,35.454324 l -0.262446,35.57816 3.960344,4.04016 c 2.178189,2.22208 4.248152,5.33691 4.599916,6.92183 1.708999,7.70012 0.918731,7.08078 31.989234,25.07045 C 84.968921,206.20994 98.994533,214 99.692629,214 c 0.698101,0 1.521661,-1.0125 1.830141,-2.25 z m 51.77891,-15 c 16.46117,-9.4875 30.08018,-17.7 30.26448,-18.25 0.1843,-0.55 0.80772,-2.84961 1.38538,-5.11025 0.57891,-2.26552 2.8509,-6.15585 5.06226,-8.66808 l 4.01197,-4.55784 -0.26289,-35.33192 C 193.52328,92.628673 193.35303,89.510967 191.84026,89.623846 190.01075,89.760359 131.72075,125.5964 129.41858,128 c -0.79019,0.825 -3.12013,3.975 -5.17764,7 L 120.5,140.5 120.20818,175 c -0.16051,18.975 -0.0394,35.5125 0.26905,36.75 0.30848,1.2375 1.08607,2.25 1.72797,2.25 0.6419,0 14.63532,-7.7625 31.09648,-17.25 z M 102.73882,111 c 4.905,-2.62893 11.41642,-2.5622 16.89335,0.17311 l 4.35124,2.17311 29.50829,-19.882897 C 169.72127,82.527728 183,73.104242 183,72.522244 183,71.940246 169.3875,63.597151 152.75,53.982033 130.39716,41.063917 121.71681,36.537066 119.5,36.641983 c -1.65,0.07809 -4.8,0.276789 -7,0.441554 -2.2,0.164764 -5.8,-0.0369 -8,-0.448133 C 100.63982,35.913835 99.482936,36.47514 71.402724,52.69385 41.511291,69.958693 38.730296,71.722392 39.216695,73.106141 39.562722,74.090548 97.107563,113 98.217418,113 c 0.434407,0 2.469032,-0.9 4.521402,-2 z"
       id="path15648"
       inkscape:connector-curvature="0" />
    <path
       style="fill:#2c2c2c"
       d="m 101.89788,242.75 c -2.083068,-1.37936 -4.450678,-4.42043 -6.118637,-7.85906 l -2.720757,-5.60905 -31.722802,-18.34535 -31.722801,-18.34534 -7.0711,0.26334 c -5.99897,0.22341 -7.591356,-0.0873 -10.502376,-2.049 C 3.2130062,184.85743 2.1314847,171.62091 9.8976208,164.59265 11.962856,162.72364 12,162.02814 12,125.22703 v -37.463 L 9.0420795,84.395145 C 3.4036862,77.97337 3.0150206,69.064504 8.0916874,62.610568 11.710094,58.01051 15.54783,56.677156 23.450183,57.274529 L 30.5,57.807455 61.952613,39.653728 93.405226,21.5 95.141828,16.645907 C 98.096406,8.3873682 102.74814,4.9106687 110.92804,4.8473071 c 8.15262,-0.06315 12.9659,3.5029337 15.92502,11.7985999 l 1.73148,4.854093 31.40628,18.14183 31.40628,18.14183 7.55145,-0.494321 c 6.74775,-0.441711 7.9182,-0.243585 10.99738,1.861568 8.9169,6.096236 9.99039,19.16682 2.15645,26.256441 C 210.03714,87.27636 210,87.971857 210,124.77297 v 37.463 l 2.95792,3.36889 c 5.80866,6.61569 6.02765,15.69355 0.53603,22.21996 -3.47408,4.12871 -7.45221,5.49091 -14.53853,4.97834 l -6.04923,-0.43757 -32.11834,18.56721 C 143.12276,221.14476 128.37206,230.175 128.00852,231 123.19898,241.91445 119.45037,245 111,245 c -4.24205,0 -6.57522,-0.57675 -9.10212,-2.25 z m -0.13586,-65.43046 0.26202,-37.01428 -2.762021,-3.55709 c -1.519111,-1.9564 -3.481974,-4.86886 -4.361919,-6.47213 -1.151683,-2.09839 -10.116572,-8.19947 -32,-21.77767 C 46.180045,98.123931 31.4875,89.440249 30.25,89.201299 L 28,88.766846 v 36.254744 36.25475 l 3.981379,4.31929 c 2.658244,2.88385 4.18888,5.61692 4.605758,8.22393 0.343408,2.14755 0.927182,4.39459 1.297275,4.99341 1.02668,1.66121 61.395744,36.26028 62.579548,35.86596 0.68348,-0.22766 1.1252,-12.94096 1.29806,-37.35939 z m 51.27879,20.06541 c 16.75255,-9.68828 30.7491,-18.07533 31.10343,-18.6379 0.35434,-0.56256 0.92522,-2.77994 1.26862,-4.92749 0.41688,-2.60701 1.94752,-5.34008 4.60576,-8.22393 L 194,161.27634 V 125.02159 88.766846 l -2.25,0.434453 c -1.2375,0.23895 -15.93005,8.922632 -32.6501,19.297071 -21.88343,13.5782 -30.84832,19.67928 -32,21.77767 -0.87995,1.60327 -2.8374,4.50893 -4.3499,6.45701 l -2.75,3.54196 v 36.69583 C 120,210.91863 120.21008,215 121.95747,215 c 0.34328,0 14.33078,-7.92677 31.08334,-17.61505 z m -50.53543,-85.98043 c 3.46636,-2.27125 13.4013,-2.35091 16.78384,-0.13458 1.45223,0.95153 3.44375,1.70765 4.4256,1.68026 0.98185,-0.0274 14.61018,-8.69263 30.28518,-19.256077 20.6285,-13.901634 28.5,-19.73211 28.5,-21.11016 0,-1.43697 -6.49901,-5.676448 -26.5,-17.286663 -37.16233,-21.57206 -35.00689,-20.555239 -40.47328,-19.093203 -3.55843,0.951736 -5.51162,0.947292 -9.13111,-0.02077 -5.36371,-1.434575 -3.74795,-2.212712 -43.89561,21.139739 -17.231202,10.022771 -23,13.854659 -23,15.277605 0,1.372469 7.905731,7.2224 28.5,21.088885 15.675,10.554254 29.303332,19.216754 30.285183,19.249994 0.981851,0.0333 2.880937,-0.65752 4.220197,-1.53503 z"
       id="path15646"
       inkscape:connector-curvature="0" />
    <path
       style="fill:#020202"
       d="m 106.5,244.26724 c -3.98455,-0.99766 -7.679101,-4.60487 -10.312434,-10.06865 L 93.5,228.62228 62,210.35434 30.5,192.0864 23.184259,192.0432 C 12.935282,191.98268 7.8713228,188.94956 5.9198935,181.70251 4.3892664,176.01819 5.6152017,170.80955 9.5716244,166.18736 L 13,162.18207 V 124.97305 87.76403 L 10.045109,84.398595 C 1.8308524,75.043074 4.4165693,62.679651 15.470353,58.458172 c 3.744749,-1.430132 5.161286,-1.506126 9.348866,-0.501541 l 4.935389,1.183982 31.872696,-18.386807 C 84.08653,27.797467 93.795346,21.669727 94.5,20.006133 98.073415,11.569781 99.673622,9.4124475 103.96189,7.25 c 5.61153,-2.8297292 8.46469,-2.8297292 14.07622,0 4.28862,2.1626268 5.89729,4.331944 9.46189,12.759509 0.70483,1.66638 10.3895,7.79252 32.81012,20.75437 l 31.81012,18.390129 4.85653,-1.244692 c 12.98102,-3.326936 23.68433,9.112654 18.26505,21.22799 -1.0733,2.399482 -2.91679,5.219938 -4.09664,6.267682 C 209.02368,87.288946 209,87.723532 209,124.77297 v 37.463 l 2.95489,3.36543 c 11.13538,12.6825 2.11406,28.73293 -15.0169,26.71757 -4.37874,-0.51514 -5.38305,-0.0637 -25,11.23642 -46.56422,26.8229 -43.55587,24.81028 -46.66166,31.21727 -3.85999,7.96284 -10.82582,11.48523 -18.77633,9.49458 z M 101.8,214.8 c 0.88969,-0.88969 1.2,-10.68055 1.2,-37.8625 v -36.66249 l -2.75,-3.54196 c -1.5125,-1.94808 -3.491889,-4.89195 -4.398642,-6.54194 -1.825349,-3.32152 -1.574403,-3.15195 -38.598968,-26.08259 -14.436186,-8.94085 -27.036186,-16.104333 -28,-15.918855 -1.625738,0.312861 -1.77137,2.965187 -2.014995,36.698275 l -0.262606,36.36105 3.978719,4.3164 c 2.188295,2.37402 4.25833,5.5805 4.600076,7.1255 0.341747,1.54501 0.93026,3.8539 1.307807,5.13087 0.516652,1.74746 8.345723,6.75639 31.651234,20.25 C 85.543258,207.93229 99.729994,216 100.03871,216 c 0.30871,0 1.10129,-0.54 1.76129,-1.2 z m 51.84198,-16.88202 c 30.83347,-17.81356 31.30799,-18.13649 31.95972,-21.75 0.88806,-4.92389 2.01161,-7.01533 6.02921,-11.22313 l 3.39445,-3.55515 -0.26268,-36.44485 C 194.50609,89.344874 194.45364,88.494472 192.5,88.261553 c -1.15751,-0.138003 -15.05852,7.893211 -33,19.065527 -23.20754,14.45155 -31.55572,20.1673 -33.21075,22.73845 -1.21592,1.88896 -3.35342,4.96943 -4.75,6.8455 L 119,140.32206 v 36.63897 C 119,212.18584 119.28059,216 121.8719,216 c 0.25955,0 14.55608,-8.13691 31.77008,-18.08202 z M 103.5,112 c 2.15759,-1.1 5.53259,-2 7.5,-2 1.96741,0 5.34241,0.9 7.5,2 2.15759,1.1 4.53543,2 5.28409,2 2.47299,0 60.13456,-39.408833 60.17634,-41.127555 C 184.01456,70.645862 184.22463,70.786854 160,56.791127 116.83403,31.852085 120.65068,33.79932 117.40569,35.05977 c -1.8232,0.708184 -5.6251,0.890076 -10.20531,0.488245 L 99.900764,34.907606 84.200382,43.92977 C 44.851144,66.541658 38.501334,70.489464 38.246871,72.5 c -0.202743,1.601894 5.56979,5.922369 29,21.705161 C 83.336092,105.043 97.192351,113.9305 98.038558,113.95516 98.884765,113.97982 101.34241,113.1 103.5,112 Z"
       id="path15644"
       inkscape:connector-curvature="0" />
  </g>
</svg>
