<?xml version="1.0" encoding="UTF-8" standalone="no"?>
<!-- Created with Inkscape (http://www.inkscape.org/) -->

<svg
   xmlns:dc="http://purl.org/dc/elements/1.1/"
   xmlns:cc="http://creativecommons.org/ns#"
   xmlns:rdf="http://www.w3.org/1999/02/22-rdf-syntax-ns#"
   xmlns:svg="http://www.w3.org/2000/svg"
   xmlns="http://www.w3.org/2000/svg"
   xmlns:xlink="http://www.w3.org/1999/xlink"
   xmlns:sodipodi="http://sodipodi.sourceforge.net/DTD/sodipodi-0.dtd"
   xmlns:inkscape="http://www.inkscape.org/namespaces/inkscape"
   width="20"
   height="20"
   id="svg2"
   version="1.1"
   inkscape:version="0.92.2 5c3e80d, 2017-08-06"
   sodipodi:docname="task_crank2_20x20.svg">
  <defs
     id="defs4">
    <linearGradient
       inkscape:collect="always"
       id="linearGradient5328">
      <stop
         style="stop-color:#000000;stop-opacity:1;"
         offset="0"
         id="stop5330" />
      <stop
         style="stop-color:#f2f2f2;stop-opacity:1"
         offset="1"
         id="stop5332" />
    </linearGradient>
    <linearGradient
       inkscape:collect="always"
       id="linearGradient5298">
      <stop
         style="stop-color:#8b6fe3;stop-opacity:1"
         offset="0"
         id="stop5300" />
      <stop
         style="stop-color:#f4f1fc;stop-opacity:1"
         offset="1"
         id="stop5302" />
    </linearGradient>
    <linearGradient
       inkscape:collect="always"
       xlink:href="#linearGradient5298"
       id="linearGradient5304"
       x1="274"
       y1="851.36218"
       x2="274"
       y2="765.36218"
       gradientUnits="userSpaceOnUse"
       gradientTransform="matrix(0.03810979,0,0,0.04758703,0.26099042,1004.0177)" />
    <linearGradient
       inkscape:collect="always"
       xlink:href="#linearGradient5328"
       id="linearGradient5334"
       x1="268"
       y1="823.36218"
       x2="269"
       y2="718.36218"
       gradientUnits="userSpaceOnUse" />
    <linearGradient
       inkscape:collect="always"
       xlink:href="#linearGradient5328"
       id="linearGradient13792"
       gradientUnits="userSpaceOnUse"
       x1="268"
       y1="823.36218"
       x2="269"
       y2="718.36218" />
    <linearGradient
       inkscape:collect="always"
       xlink:href="#linearGradient5328"
       id="linearGradient13794"
       gradientUnits="userSpaceOnUse"
       x1="268"
       y1="823.36218"
       x2="269"
       y2="718.36218" />
    <linearGradient
       inkscape:collect="always"
       xlink:href="#linearGradient5328"
       id="linearGradient13796"
       gradientUnits="userSpaceOnUse"
       x1="268"
       y1="823.36218"
       x2="269"
       y2="718.36218" />
    <linearGradient
       inkscape:collect="always"
       xlink:href="#linearGradient5328"
       id="linearGradient13798"
       gradientUnits="userSpaceOnUse"
       x1="268"
       y1="823.36218"
       x2="269"
       y2="718.36218" />
    <linearGradient
       inkscape:collect="always"
       xlink:href="#linearGradient5328"
       id="linearGradient13800"
       gradientUnits="userSpaceOnUse"
       x1="268"
       y1="823.36218"
       x2="269"
       y2="718.36218" />
    <linearGradient
       inkscape:collect="always"
       xlink:href="#linearGradient5328"
       id="linearGradient13802"
       gradientUnits="userSpaceOnUse"
       x1="268"
       y1="823.36218"
       x2="269"
       y2="718.36218" />
  </defs>
  <sodipodi:namedview
     id="base"
     pagecolor="#ffffff"
     bordercolor="#666666"
     borderopacity="1.0"
     inkscape:pageopacity="0.0"
     inkscape:pageshadow="2"
     inkscape:zoom="22.4"
     inkscape:cx="0.63516427"
     inkscape:cy="8.8925081"
     inkscape:document-units="px"
     inkscape:current-layer="layer1"
     showgrid="false"
     objecttolerance="20"
     inkscape:window-width="1440"
     inkscape:window-height="851"
     inkscape:window-x="0"
     inkscape:window-y="1"
     inkscape:window-maximized="1"
     gridtolerance="10"
     inkscape:pagecheckerboard="true">
    <inkscape:grid
       type="xygrid"
       id="grid2985"
       empspacing="5"
       visible="true"
       enabled="true"
       snapvisiblegridlinesonly="false" />
  </sodipodi:namedview>
  <metadata
     id="metadata7">
    <rdf:RDF>
      <cc:Work
         rdf:about="">
        <dc:format>image/svg+xml</dc:format>
        <dc:type
           rdf:resource="http://purl.org/dc/dcmitype/StillImage" />
        <dc:title />
      </cc:Work>
    </rdf:RDF>
  </metadata>
  <g
     inkscape:label="Layer 1"
     inkscape:groupmode="layer"
     id="layer1"
     transform="translate(0,-1032.3622)">
    <path
       style="fill:#000000;fill-opacity:0;fill-rule:nonzero;stroke-width:0.04288621"
       inkscape:connector-curvature="0"
       id="path4510"
       d="M 0.17847341,1032.3958 H 19.427636 v 19.8755 H 0.17847341 Z" />
    <path
       style="fill:#000000;fill-opacity:0;fill-rule:nonzero;stroke-width:0.04288621"
       inkscape:connector-curvature="0"
       id="path4512"
       d="m 0.70886304,1042.2571 v 0 c 0,-1.5971 4.46548616,-2.8928 9.97394196,-2.8938 v 0 c 5.508455,0 9.973941,1.2927 9.973941,2.8898 v 0 c 0,1.5972 -4.465486,2.8926 -9.973941,2.8937 v 0 c -5.5084565,0 -9.97394196,-1.2927 -9.97394196,-2.8897 z" />
    <path
       style="fill:none;fill-rule:nonzero;stroke:url(#linearGradient5304);stroke-width:0.8;stroke-linecap:butt;stroke-linejoin:round;stroke-opacity:1;stroke-miterlimit:4;stroke-dasharray:none"
       inkscape:connector-curvature="0"
       id="path4514"
       d="m 0.68889523,1042.7589 v 0 c 0,-1.2957 3.98697467,-2.3468 8.90515607,-2.3476 v 0 c 4.9181837,-7e-4 8.9051577,1.0487 8.9051577,2.3443 v 0 c 0,1.2957 -3.986974,2.3467 -8.9051577,2.3477 v 0 c -4.9181823,0 -8.90515607,-1.049 -8.90515607,-2.3444 z" />
    <path
       style="fill:#000000;fill-opacity:0;fill-rule:nonzero;stroke-width:0.04288621"
       inkscape:connector-curvature="0"
       id="path4516"
       d="m 4.477814,1033.1929 c 0.9793238,-0.8512 4.1523438,2.5512 7.087139,7.5996 v 0 c 2.934796,5.0482 4.520017,9.8307 3.540693,10.6819 v 0 c -0.979327,0.8511 -4.152346,-2.5516 -7.087141,-7.5997 v 0 c -2.9347948,-5.0484 -4.5200156,-9.8308 -3.540691,-10.6818 z" />
    <path
       style="fill:none;fill-rule:nonzero;stroke:#003da6;stroke-width:0.8;stroke-linecap:butt;stroke-linejoin:round;stroke-opacity:1;stroke-miterlimit:4;stroke-dasharray:none"
       inkscape:connector-curvature="0"
       id="path4518"
       d="m 4.8369224,1033.1879 c 0.9181587,-0.8514 3.8930023,2.5528 6.6445006,7.6038 v 0 c 2.751495,5.051 4.237711,9.8361 3.319551,10.6876 v 0 c -0.91816,0.8516 -3.893003,-2.5529 -6.6445005,-7.604 v 0 c -2.7514967,-5.0508 -4.2377101,-9.8358 -3.3195511,-10.6874 z" />
    <path
       style="fill:#000000;fill-opacity:0;fill-rule:nonzero;stroke-width:0.04288621"
       inkscape:connector-curvature="0"
       id="path4520"
       d="m 4.4398238,1051.4395 c -0.976145,-0.8569 0.6290525,-5.6291 3.5853096,-10.6592 v 0 c 2.9562556,-5.0297 6.1440986,-8.4124 7.1202426,-7.5554 v 0 c 0.976145,0.8568 -0.629052,5.6288 -3.585309,10.6588 v 0 c -2.9562569,5.03 -6.1440984,8.4127 -7.1202432,7.5558 z" />
    <path
       style="fill:none;fill-rule:nonzero;stroke:#6390fc;stroke-width:0.8;stroke-linecap:butt;stroke-linejoin:round;stroke-opacity:1;stroke-miterlimit:4;stroke-dasharray:none"
       inkscape:connector-curvature="0"
       id="path4522"
       d="m 4.7976351,1051.4447 c -0.9108941,-0.8577 0.5870032,-5.6323 3.3456461,-10.6651 v 0 c 2.7586428,-5.0327 5.7333918,-8.4177 6.6442828,-7.56 v 0 c 0.910896,0.8574 -0.587002,5.6323 -3.345646,10.6649 v 0 c -2.758642,5.0328 -5.7333897,8.4177 -6.6442829,7.5602 z" />
    <g
       id="g5312"
       style="fill:url(#linearGradient5334);fill-opacity:1;stroke:#000000;stroke-opacity:1"
       transform="matrix(0.03810635,0,0,0.04826562,0.26183477,1003.4998)">
      <path
         d="m 30.944594,733.44858 q 16.290842,-13.76039 36.970542,-13.76039 27.672115,0 36.598594,18.44801 4.90958,10.35808 3.19867,20.7918 H 84.801076 q -0.520711,-8.01431 -3.198658,-12.09706 -4.686408,-7.25822 -16.960329,-7.25822 -12.497085,0 -21.869897,10.28249 -9.372815,10.20688 -13.240959,28.9573 -3.942533,18.75044 1.710909,28.12565 5.653444,9.29961 17.406654,9.29961 12.050761,0 20.0846,-8.01431 4.388857,-4.30955 8.480166,-12.92871 h 22.68816 q -6.769255,18.22118 -21.423575,29.63776 -14.579932,11.41658 -33.697496,11.41658 -23.655195,0 -33.995042,-15.42373 Q 0.52014283,805.42602 6.1735861,778.4345 12.273355,749.25035 30.944594,733.44858 Z"
         style="font-style:italic;font-variant:normal;font-weight:bold;font-stretch:normal;font-size:136.55699158px;line-height:125%;font-family:Helvetica;-inkscape-font-specification:'Helvetica Bold Italic';letter-spacing:0px;word-spacing:0px;fill:url(#linearGradient13792);fill-opacity:1;stroke:#000000;stroke-width:4.66491938;stroke-linecap:butt;stroke-linejoin:round;stroke-miterlimit:4;stroke-dasharray:none;stroke-opacity:1"
         id="path5229"
         inkscape:connector-curvature="0" />
      <path
         d="m 168.20047,749.02352 -4.61203,22.07713 q -1.93407,-0.22682 -3.49621,-0.30241 -1.56215,-0.0756 -2.52918,-0.0756 -12.79463,0 -18.96878,8.46793 -3.42183,4.76322 -5.50467,14.66767 l -8.18262,39.39102 h -21.34919 l 17.1835,-82.41115 h 20.23338 l -2.97551,14.36526 q 6.62048,-8.24113 10.86056,-11.26539 7.06681,-5.06564 16.58839,-5.06564 0.59511,0 0.96704,0.0756 0.44634,0 1.78532,0.0756 z"
         style="font-style:italic;font-variant:normal;font-weight:bold;font-stretch:normal;font-size:136.55699158px;line-height:125%;font-family:Helvetica;-inkscape-font-specification:'Helvetica Bold Italic';letter-spacing:0px;word-spacing:0px;fill:url(#linearGradient13794);fill-opacity:1;stroke:#000000;stroke-width:4.66491938;stroke-linecap:butt;stroke-linejoin:round;stroke-miterlimit:4;stroke-dasharray:none;stroke-opacity:1"
         id="path5231"
         inkscape:connector-curvature="0" />
      <path
         d="m 215.52731,793.17777 q -2.23161,1.28532 -4.46326,2.11698 -2.2316,0.75605 -5.95096,1.43652 l -4.90958,0.90727 q -6.99242,1.2097 -10.26547,2.94867 -5.50467,2.94863 -6.76926,9.1484 -1.19019,5.51927 1.26459,8.01429 2.52918,2.41941 6.84365,2.41941 6.84364,0 13.46411,-4.08276 6.62048,-4.08276 9.14965,-14.89449 z m -10.78618,-10.05568 q 6.09978,-0.75607 8.85211,-1.89016 4.90957,-1.96576 5.80223,-6.12414 1.04141,-5.06564 -2.00847,-6.95579 -3.04988,-1.96578 -9.74475,-1.96578 -7.51314,0 -11.45566,3.78034 -2.75234,2.79744 -4.53763,7.56065 h -20.45655 q 2.97549,-10.81174 9.67037,-17.76754 10.71178,-10.88734 31.16831,-10.88734 13.31536,0 22.53939,5.36806 9.22404,5.36806 6.09978,20.26257 l -7.95945,37.80327 q -0.81827,3.93154 -1.7853,9.52642 -0.66948,4.23396 0,5.7461 0.74387,1.51213 2.60356,2.49503 l -0.59511,3.17546 h -23.06009 q -0.44632,-2.49502 -0.37194,-4.68762 0.0743,-2.19258 0.44632,-4.99002 -5.43027,4.83881 -11.82759,8.24112 -7.73629,4.00712 -16.36523,4.00712 -11.00934,0 -16.88593,-6.35092 -5.80223,-6.42658 -3.34745,-18.14559 3.19864,-15.19691 16.14207,-22.00149 7.0668,-3.70472 19.71267,-5.29248 z"
         style="font-style:italic;font-variant:normal;font-weight:bold;font-stretch:normal;font-size:136.55699158px;line-height:125%;font-family:Helvetica;-inkscape-font-specification:'Helvetica Bold Italic';letter-spacing:0px;word-spacing:0px;fill:url(#linearGradient13796);fill-opacity:1;stroke:#000000;stroke-width:4.66491938;stroke-linecap:butt;stroke-linejoin:round;stroke-miterlimit:4;stroke-dasharray:none;stroke-opacity:1"
         id="path5233"
         inkscape:connector-curvature="0" />
      <path
         d="m 330.86562,777.75403 -11.60443,55.49521 h -21.72112 l 10.41424,-50.12715 q 1.41335,-6.50215 0.37194,-9.98006 -1.78531,-6.35096 -10.56302,-6.35096 -10.78617,0 -16.73719,9.29962 -3.12426,4.91442 -4.68638,12.55068 l -9.29844,44.60787 h -21.12601 l 17.18348,-82.25995 h 20.45654 l -2.52919,12.02146 q 5.43031,-6.35096 9.67038,-9.14841 7.58753,-4.99001 17.62983,-4.99001 12.57147,0 19.11756,6.72897 6.62047,6.65338 3.42181,22.15273 z"
         style="font-style:italic;font-variant:normal;font-weight:bold;font-stretch:normal;font-size:136.55699158px;line-height:125%;font-family:Helvetica;-inkscape-font-specification:'Helvetica Bold Italic';letter-spacing:0px;word-spacing:0px;fill:url(#linearGradient13798);fill-opacity:1;stroke:#000000;stroke-width:4.66491938;stroke-linecap:butt;stroke-linejoin:round;stroke-miterlimit:4;stroke-dasharray:none;stroke-opacity:1"
         id="path5235"
         inkscape:connector-curvature="0" />
      <path
         d="m 359.85664,722.18319 h 20.82848 l -12.57149,60.03163 32.87925,-30.99869 h 26.25875 l -34.96209,31.52793 18.96879,50.50518 h -25.58927 l -12.05075,-35.23267 -10.78619,9.29962 -5.35588,25.93305 h -20.82849 z"
         style="font-style:italic;font-variant:normal;font-weight:bold;font-stretch:normal;font-size:136.55699158px;line-height:125%;font-family:Helvetica;-inkscape-font-specification:'Helvetica Bold Italic';letter-spacing:0px;word-spacing:0px;fill:url(#linearGradient13800);fill-opacity:1;stroke:#000000;stroke-width:4.66491938;stroke-linecap:butt;stroke-linejoin:round;stroke-miterlimit:4;stroke-dasharray:none;stroke-opacity:1"
         id="path5237"
         inkscape:connector-curvature="0" />
      <path
         d="m 427.25567,811.70137 q 6.84363,-10.96296 26.25875,-23.21121 16.88594,-10.66053 22.16745,-15.27254 8.10822,-7.1826 9.89352,-15.72615 1.48774,-6.95581 -1.33898,-11.5678 -2.82672,-4.612 -9.89352,-4.612 -9.67037,0 -14.7287,7.33384 -2.90112,4.23396 -5.13273,13.45795 h -20.60533 q 3.42185,-13.98721 9.67038,-22.60635 11.90197,-16.40663 33.54872,-16.40663 17.10909,0 25.21733,9.67764 8.10822,9.60204 4.76078,25.47942 -2.52915,12.17264 -11.60444,21.62346 -6.02536,6.27535 -18.37367,13.98722 l -9.74474,6.12414 q -9.14966,5.74609 -12.64587,8.31671 -3.49622,2.57063 -6.17416,5.97292 h 47.08723 l -3.94253,18.97725 h -73.8667 q 2.75233,-11.79463 9.44721,-21.54787 z"
         style="font-style:italic;font-variant:normal;font-weight:bold;font-stretch:normal;font-size:136.55699158px;line-height:125%;font-family:Helvetica;-inkscape-font-specification:'Helvetica Bold Italic';letter-spacing:0px;word-spacing:0px;fill:url(#linearGradient13802);fill-opacity:1;stroke:#000000;stroke-width:4.66491938;stroke-linecap:butt;stroke-linejoin:round;stroke-miterlimit:4;stroke-dasharray:none;stroke-opacity:1"
         id="path5241"
         inkscape:connector-curvature="0" />
    </g>
  </g>
</svg>
