<?xml version="1.0" encoding="UTF-8"?>
<!-- Created with Inkscape (http://www.inkscape.org/) -->
<svg width="104.96" height="133.12" version="1.1" viewBox="0 0 104.96 133.12" xmlns="http://www.w3.org/2000/svg" xmlns:cc="http://creativecommons.org/ns#" xmlns:dc="http://purl.org/dc/elements/1.1/" xmlns:rdf="http://www.w3.org/1999/02/22-rdf-syntax-ns#">
 <metadata>
  <rdf:RDF>
   <cc:Work rdf:about="">
    <dc:format>image/svg+xml</dc:format>
    <dc:type rdf:resource="http://purl.org/dc/dcmitype/StillImage"/>
    <dc:title/>
   </cc:Work>
  </rdf:RDF>
 </metadata>
 <g stroke-width=".32">
  <path d="m86.08 126.67c-4.2211-1.8766-10.799-3.1392-20.48-3.9312-12.069-0.9873-13.948-1.1867-17.048-1.8099-5.3023-1.0659-8.0358-2.0651-9.1635-3.3494-0.70406-0.80188-0.98896-1.4504-0.98896-2.2511 0-2.1336 1.1289-3.4218 5.6969-6.5004 2.9098-1.9611 3.7659-2.2554 5.6748-1.9503 0.88641 0.14166 4.0544 0.4181 7.04 0.61432 11.966 0.78642 18.345 1.739 23.629 3.5284 3.7206 1.26 5.588 2.373 6.1169 3.6456 0.54525 1.3121 2.4678 12.005 2.2282 12.392-0.27434 0.4439-1.1007 0.32531-2.7058-0.38831zm-48.777-16.835c-0.68967-3.2311-1.7805-10.059-1.7817-11.153-0.00192-1.9265 0.99996-3.1472 4.6386-5.6512 4.1118-2.8296 7.4509-4.6446 13.231-7.1921 6.3441-2.7958 13.188-6.1487 15.889-7.7842 2.404-1.4558 6.9713-4.9055 7.9696-6.0196 0.73907-0.82475 1.6857-0.88415 1.9165-0.12027 0.5109 1.6906 1.7939 9.8817 1.7939 11.453v1.8371l-2.32 2.282c-4.1554 4.0874-9.7548 7.3542-22 12.835-7.6794 3.4373-11.143 5.319-15.35 8.3404-1.5722 1.1289-3.0701 2.0526-3.3287 2.0526-0.25858 0-0.55466-0.396-0.65798-0.88zm-30.731-8.1226c-3.1113-3.0339-5.8687-5.9259-6.1276-6.4265-0.60007-1.1604-0.38245-1.3932 2.7816-2.976 1.3058-0.65322 3.9285-2.1203 5.8282-3.2602s3.654-1.9957 3.8984-1.902c0.24439 0.09378 0.49009 0.64677 0.54599 1.2289l0.10164 1.0583 3.36 0.25258c4.4208 0.33232 12.601 0.01354 19.36-0.75447 2.9918-0.33996 5.6303-0.61811 5.8635-0.61811 1.0255 0-0.0128 1.0879-2.9797 3.1221-3.4708 2.3797-5.1309 4.2227-5.4819 6.0857-0.12354 0.65572-0.04872 2.4118 0.16627 3.9024 0.34836 2.4152 0.33454 2.7514-0.12697 3.0888-0.72923 0.53323-7.4427 0.86255-14.393 0.70603l-5.8971-0.1328-0.09534 0.97125c-0.05845 0.59539-0.29874 1.0098-0.62094 1.0707-0.32511 0.0615-2.6834-2.0047-6.1825-5.4168zm94.201-0.63835c-9.4942-2.4207-20.211-2.6368-36.213-0.7302-2.9888 0.3561-2.3109-0.42535 2.4899-2.87 8.7206-4.4407 14.902-9.3438 15.678-12.436 0.37784-1.5054 0.80809-1.6325 4.7193-1.3937 6.4444 0.39342 15.868 2.1039 17.065 3.0975 0.62014 0.51466 0.66575 14.876 0.0479 15.07-0.22 0.069-1.924-0.26305-3.7866-0.73795zm-85.168-15.331c-5.9993-0.50049-14.307-2.164-15.183-3.0404-0.3247-0.3247-0.42187-2.117-0.42187-7.7814v-7.3596l0.88 0.11937c0.484 0.06565 2.0668 0.41851 3.5173 0.78412 5.3752 1.3549 8.5975 1.6902 17.47 1.8182 6.7972 0.09805 8.7799 0.2233 9.5098 0.60074 2.9267 1.5134 11.682 3.0737 20.623 3.6752 5.2128 0.35068 13.176 1.1695 14.48 1.4888 1.3055 0.31975 0.75577 1.014-1.9866 2.5088-5.8179 3.1713-6.8756 3.4844-16.653 4.9295-4.928 0.72834-10.932 1.529-13.342 1.7792-5.8527 0.60767-14.663 0.83027-18.893 0.47736zm76.138-3.3914c-0.12281-0.12281-0.22329-0.68323-0.22329-1.2454 0-0.99404-0.04611-1.0276-1.68-1.2239-0.924-0.11099-2.76-0.20525-4.08-0.20947-1.32-0.0042-2.6033-0.1364-2.8519-0.29373-0.2929-0.18541-0.88166-2.6887-1.6735-7.1151-0.67188-3.756-1.2245-7.0895-1.2281-7.4077-0.0061-0.53903 0.38276-0.5745 5.6735-0.51759l5.68 0.06109 0.16247-0.9185c0.08935-0.50518 0.39696-0.96366 0.68356-1.0189 0.52471-0.10105 10.85 9.6779 12.158 11.514 0.86987 1.2216 0.58604 1.5354-3.0324 3.3527-1.5747 0.79088-4.1207 2.2158-5.6576 3.1666-3.161 1.9553-3.6161 2.1702-3.9307 1.8556zm-24.223-7.9711c-2.7046-0.5438-10.032-1.3202-16.48-1.7463-11.637-0.76895-19.438-2.6969-20.951-5.178-1.7662-2.8969-0.3276-5.1811 5.7088-9.0646l2.3582-1.5171 2.7618 0.35814c1.519 0.19698 5.8578 0.58099 9.6418 0.85336 11.689 0.84135 16.579 1.6537 22.19 3.6859 1.9497 0.70623 3.2184 1.3948 4.08 2.2144 1.1333 1.0781 1.2504 1.3415 1.2504 2.8132 0 1.5049-0.11885 1.7538-1.6234 3.4-2.0848 2.2811-5.284 4.6862-6.1683 4.6372-0.37856-0.020992-1.6243-0.22634-2.7683-0.45635zm-57.031-8.0204c-4.679-4.3265-9.0019-8.6879-9.7302-9.8166-0.95628-1.4822-0.96122-1.4762 2.9209-3.5796 1.584-0.85823 4.2398-2.3939 5.9019-3.4125 3.2325-1.9812 3.8581-2.0264 3.8581-0.27907 0 0.76708 0.15273 0.9042 1.2 1.0773 0.66 0.10909 3.0085 0.19993 5.2188 0.20187 2.7186 0.0022 4.197 0.13377 4.5694 0.40608 0.41057 0.30022 0.87365 2.1917 1.8215 7.44 1.2011 6.6507 1.2402 7.0613 0.71063 7.4719-0.44806 0.34741-1.8588 0.39846-7.0403 0.2548l-6.48-0.17966v0.74602c0 0.41031-0.21183 0.92182-0.47074 1.1367-0.38879 0.32267-0.8205 0.06726-2.48-1.4672zm90.243-4.4463c-5.7156-1.5017-9.4248-1.8819-18.973-1.9452-8.2093-0.054377-9.1173-0.11572-10.838-0.7322-3.842-1.3768-11.558-2.4518-23.218-3.2352-2.5388-0.17056-4.7708-0.46742-4.96-0.6597-0.50748-0.51566 0.17878-0.92217 5.6736-3.3607 2.6743-1.1868 6.4358-2.9431 8.3588-3.9028 3.0134-1.5039 3.9418-1.8077 6.72-2.1994 9.6109-1.3551 21.219-1.7977 27.956-1.0661 3.8699 0.42025 10.516 1.7352 12.224 2.4184l1.2837 0.51365v14.971l-0.72-0.03442c-0.396-0.01894-1.9744-0.36398-3.5075-0.76677zm-72.06-1.3869c-0.26556-0.42968-2.1114-10.993-2.1118-12.085-4.8e-4 -1.4931 1.1839-2.9679 4.0109-4.9943 3.8178-2.7366 7.9414-4.976 14.869-8.0749 11.587-5.1833 16.799-8.13 21.54-12.177 1.375-1.1738 2.6817-2.0645 2.9038-1.9793 0.57748 0.2216 2.5656 11.697 2.2657 13.078-0.30542 1.4063-3.7765 4.769-7.4796 7.246-3.1536 2.1094-10.21 5.7569-16.51 8.5345-7.8425 3.4575-11.947 5.6958-16.121 8.7903-2.6125 1.937-3.0602 2.158-3.367 1.6616zm-14.112-14.022c-5.9206-0.70396-12.859-2.0818-13.967-2.7735-0.54986-0.34339-0.59311-0.91311-0.59311-7.8134 0-6.2162 0.074895-7.443 0.45438-7.443 0.24991 0 1.9419 0.35404 3.76 0.78674 6.3456 1.5103 10.106 1.9022 18.186 1.8952 8.3271-0.0072 12.978-0.42389 24.787-2.2208 9.2931-1.4141 10.042-1.249 5.2554 1.1577-1.4019 0.70488-4.4742 2.1333-6.8271 3.1744-11.135 4.9264-18.692 9.6175-20.204 12.543l-0.4675 0.90405-4.7118-0.047946c-2.5915-0.026371-5.1438-0.099312-5.6718-0.16209zm77.173-3.5233c-0.11733-0.11733-0.21333-0.61481-0.21333-1.1055 0-0.77468-0.15803-0.92398-1.2-1.1337-1.5649-0.31498-14.562-0.21841-17.765 0.132-1.3669 0.14951-2.6578 0.1652-2.8687 0.03487-0.25854-0.15979 0.24716-0.89444 1.5527-2.2556 1.0649-1.1103 2.1076-2.3404 2.3172-2.7337 0.55899-1.0487 0.58149-3.6851 0.06016-7.0474-0.36596-2.3603-0.37852-3.0433-0.06175-3.36 0.29744-0.29743 2.6099-0.39755 9.1816-0.39755h8.784l-3e-6 -0.86112c0-2.0569 0.95572-1.4156 7.5481 5.0644 2.3035 2.2642 4.5856 4.6529 5.0714 5.3082 1.0803 1.4571 0.97349 1.6034-2.4054 3.2937-1.3058 0.65322-3.9069 2.1073-5.7803 3.2313-3.4145 2.0486-3.8244 2.2264-4.2206 1.8303zm-33.333-18.528c-2.8801-0.53332-10.44-1.3085-16.96-1.7391-11.027-0.72813-18.658-2.664-20.096-5.0974-0.31398-0.53152-0.99461-3.31-1.5125-6.1744-1.0303-5.6984-1.1067-6.5143-0.63691-6.8047 0.17308-0.10697 1.4459 0.16287 2.8285 0.59963 5.0641 1.5997 8.5697 2.0953 23.071 3.2615 8.1066 0.65191 13.102 1.4878 17.375 2.9073 3.9086 1.2984 5.8477 2.522 6.5105 4.1082 0.91595 2.1922-0.10707 3.9034-4.4109 7.3782-2.7494 2.2198-2.6905 2.2049-6.1697 1.5607z" fill="#d0cdd2"/>
  <path d="m87.04 126.74c-0.98945-0.57011-6.3326-2.212-8.8-2.7042-3.8755-0.773-9.5054-1.4195-17.03-1.9555-9.5909-0.68326-13.547-1.3098-18.401-2.9142-2.934-0.96972-4.09-2.077-4.0867-3.9146 0.0013-0.6465 0.27382-1.5876 0.60591-2.0913 0.68875-1.0447 4.8264-4.2311 7.1037-5.4706 1.4198-0.77275 1.6731-0.81034 3.5486-0.52649 1.1108 0.16812 3.5316 0.39716 5.3796 0.50897 11.81 0.71459 18.899 1.6876 23.84 3.2719 7.0319 2.2549 7.0199 2.241 8.3803 9.7404 0.57752 3.1836 0.97172 5.9151 0.87598 6.07-0.21761 0.3521-0.79033 0.34628-1.4163-0.0144zm-49.429-16.744c-0.07071-0.22-0.56557-2.8997-1.0997-5.9548-0.85029-4.8637-0.91876-5.6799-0.55031-6.56 1.1425-2.729 8.318-7.3447 18.156-11.679 11.001-4.8468 18.047-8.8099 21.933-12.338 1.9384-1.7596 2.4707-2.0494 2.7962-1.5227 0.39317 0.63616 2.1263 11.673 1.933 12.309-0.37862 1.2477-1.7128 2.7376-4.3787 4.8901-4.3154 3.4842-8.7577 5.9209-20.078 11.013-8.1364 3.6602-13.131 6.4811-16.963 9.58-0.91763 0.74218-1.5631 0.83861-1.7487 0.26127zm-31.545-9.1395c-3.8194-3.7525-6.0714-6.1929-5.9284-6.4244 0.12688-0.2053 1.4078-0.96166 2.8465-1.6808 1.4387-0.71914 4.1632-2.2361 6.0545-3.3711 1.8913-1.1349 3.5833-1.9742 3.76-1.865 0.17669 0.1092 0.32126 0.61553 0.32126 1.1252 0 0.81479 0.14482 0.95556 1.2 1.1664 3.3943 0.67836 17.694 0.09996 26.136-1.0572 0.95937-0.1315 1.4638-0.08143 1.4638 0.14528 0 0.19026-1.2893 1.229-2.8652 2.3083-5.302 3.6314-6.158 5.1899-5.4804 9.9779 0.32129 2.27 0.32585 2.9493 0.02106 3.1377-0.72574 0.44853-6.1525 0.6936-13.246 0.59818l-7.0679-0.0951-0.1609 0.92066c-0.08849 0.50637-0.32624 0.97566-0.52832 1.0429-0.20208 0.0672-3.139-2.6008-6.5265-5.9289zm94.354 0.0765c-5.6588-1.4921-9.4278-1.8774-18.34-1.8749-5.8344 0.0016-9.6946 0.16599-12.921 0.55011-5.3365 0.6353-5.7988 0.65439-5.7988 0.2394 0-0.16961 1.8991-1.2741 4.2203-2.4543 5.5352-2.8146 9.4581-5.4675 12.464-8.429 1.7674-1.7412 2.5549-2.7778 2.8428-3.7421 0.21904-0.73363 0.63098-1.3942 0.91542-1.4679 0.86646-0.22456 8.9755 0.38056 12.037 0.89825 3.7517 0.63438 8.2136 1.7285 8.72 2.1382 0.29891 0.24187 0.4 2.1738 0.4 7.6445v7.3208l-0.88-0.045c-0.484-0.0248-2.1311-0.37488-3.6602-0.77806zm-83.3-15.391c-4.8997-0.30065-11.78-1.4193-15.44-2.5104l-1.68-0.50081v-14.768l0.88 0.16161c0.484 0.08889 2.464 0.53501 4.4 0.99139 5.5453 1.3072 11.294 1.8573 18.4 1.7608 5.7718-0.07838 6.3796-0.03187 8.1 0.62004 4.7944 1.8167 10.303 2.7972 19.26 3.4283 7.2978 0.51417 15.08 1.3188 15.547 1.6074 0.71944 0.44464-0.0071 0.94867-4.5873 3.1825l-4.88 2.38-7.68 1.128c-16.139 2.3703-24.335 3.0092-32.32 2.5192zm74.594-3.8126c-0.10683-0.27839-0.19424-0.77587-0.19424-1.1055 0-0.70297-0.59502-0.82742-5.2758-1.1034-1.7577-0.10365-3.3028-0.29547-3.4336-0.42627-0.34873-0.34873-2.8092-14.202-2.5864-14.562 0.11516-0.18633 2.3624-0.24087 5.7425-0.13938 5.5044 0.16527 5.5534 0.16074 5.5582-0.51501 0.0026-0.37497 0.13441-0.88637 0.29269-1.1365 0.24672-0.3898 0.39445-0.38375 1.0351 0.04241 1.4452 0.96132 11.118 10.528 11.579 11.451 0.55882 1.1202 0.57545 1.1032-2.66 2.7227-1.3137 0.65757-3.9184 2.1142-5.7882 3.237-1.8698 1.1228-3.5516 2.0414-3.7372 2.0414-0.18564 0-0.42492-0.22778-0.53175-0.50617zm-23.234-7.4995c-2.1606-0.50419-9.1862-1.2701-16.16-1.7617-9.1481-0.64488-14.945-1.5884-18.941-3.083-3.0932-1.157-4.3815-3.6276-3.1417-6.025 0.50691-0.98026 2.9352-2.9706 6.0546-4.9627l1.8922-1.2084 3.0678 0.35986c1.6873 0.19793 5.2998 0.50685 8.0278 0.6865 10.807 0.7117 17.311 1.7208 22.501 3.4912 4.7043 1.6048 6.0034 2.7119 6.037 5.1448 0.02304 1.6702-0.93311 2.9248-4.3317 5.684-2.514 2.0409-2.8925 2.1676-5.006 1.6744zm-60.241-10.365c-3.8076-3.5476-8.4325-8.4294-8.1957-8.6511 0.064414-0.060285 1.5569-0.86977 3.3167-1.7989 1.7598-0.92908 4.4648-2.4565 6.0113-3.3942 1.5464-0.93771 3.0135-1.7049 3.2602-1.7049 0.27167 0 0.48801 0.40856 0.54875 1.0363 0.09036 0.93383 0.22687 1.0586 1.3803 1.2616 0.704 0.12388 3.08 0.23574 5.28 0.24858 2.2 0.01283 4.1978 0.14864 4.4396 0.30178 0.68372 0.4331 3.0113 13.777 2.5088 14.382-0.32484 0.3914-1.4419 0.43506-7.0273 0.27466l-6.6411-0.19072v0.94282c0 0.62595-0.16179 0.94283-0.4814 0.94283-0.26477 0-2.2448-1.6429-4.4-3.651zm94.641-1.502c-5.6345-1.7491-12.484-2.5491-21.821-2.5489-6.9497 1.73e-4 -7.9316-0.06612-9.6-0.64806-4.2036-1.4662-11.535-2.565-21.94-3.2883-3.3006-0.22944-6.1-0.51612-6.221-0.63705-0.39508-0.39508 0.64538-1.0353 4.222-2.598 1.936-0.84588 5.7244-2.5908 8.4186-3.8777l4.8986-2.3397 5.0288-0.6428c14.112-1.8038 25.083-1.6084 34.577 0.61585 1.5166 0.35532 3.1534 0.80564 3.6374 1.0007l0.88 0.35468v7.4812c0 8.2832 0.13628 7.8162-2.08 7.1282zm-74.069-2.607c-0.39169-0.95413-1.9307-9.8343-1.9307-11.14 0-1.8914 1.2794-3.2873 5.76-6.2845 2.7857-1.8635 6.8063-3.9912 11.141-5.8958 6.6489-2.9215 15.613-7.4186 18.299-9.1802 1.32-0.86574 3.5409-2.5332 4.9353-3.7054 1.3944-1.1722 2.6572-2.0094 2.8062-1.8605 0.49935 0.49935 2.2558 11.234 2.0328 12.423-0.25894 1.3803-2.781 3.9466-6.506 6.6203-3.0111 2.1612-10.225 5.9443-17.508 9.1812-2.816 1.2516-6.6198 3.0683-8.4528 4.0373-3.3183 1.754-8.5941 5.1853-9.3229 6.0634-0.5401 0.65078-0.91173 0.57405-1.2537-0.25885zm-16.171-13.732c-2.9051-0.32708-9.2817-1.6046-11.2-2.2439l-1.28-0.42657-0.085818-7.4064-0.085818-7.4064 1.2058 0.29565c14.854 3.6419 24.861 3.6713 47.394 0.13915 5.8792-0.92158 6.2513-0.95218 5.966-0.49048-0.26653 0.43125-4.7114 2.6495-9.9144 4.9478-9.408 4.1559-15.835 8.0232-18.63 11.211l-1.5296 1.7442-4.64-0.037817c-2.552-0.0208-5.792-0.16751-7.2-0.32604zm79.019-3.7081c-0.10606-0.484-0.23975-1.0378-0.2971-1.2306-0.22704-0.76339-10.741-1.0313-17.387-0.44309-1.9936 0.17646-3.7663 0.23336-3.9393 0.12644-0.173-0.10692 0.49127-1.0392 1.4762-2.0718 2.8688-3.0076 3.1834-4.3864 2.2106-9.687-0.37304-2.0325-0.42113-2.9235-0.17128-3.1734 0.32301-0.32302 10.466-1.0067 10.905-0.73512 0.10636 0.06573 1.6961 0.15987 3.5327 0.2092l3.3393 0.08968 0.26488-1.0222c0.14911-0.57544 0.47389-1.0222 0.7431-1.0222 0.54521 0 12.627 11.816 12.625 12.347-6.4e-4 0.19108-1.6932 1.2582-3.7612 2.3714-2.068 1.1132-4.8744 2.7209-6.2365 3.5726-1.3621 0.85171-2.6193 1.5486-2.7939 1.5486-0.17457 0-0.40417-0.396-0.51023-0.88zm-32.299-18.014c-2.475-0.50309-9.6708-1.2681-16.48-1.752-7.5722-0.53811-11.103-1.0461-15.669-2.2542-5.5399-1.4659-5.8096-1.8002-7.0671-8.7608-1.1719-6.4863-1.1853-6.884-0.22409-6.6044 7.1411 2.077 11.644 2.8484 19.76 3.3854 11.472 0.75907 17.315 1.6284 22.753 3.3854 6.302 2.036 8.042 4.4377 5.5664 7.6833-1.179 1.5458-5.9529 5.2569-6.7075 5.2143-0.35869-0.02024-1.2282-0.15388-1.9322-0.29699z" fill="#daaece"/>
  <path d="m87.04 126.74c-0.98945-0.57011-6.3326-2.212-8.8-2.7042-3.8755-0.773-9.5054-1.4195-17.03-1.9555-9.5909-0.68326-13.547-1.3098-18.401-2.9142-2.934-0.96972-4.09-2.077-4.0867-3.9146 0.0013-0.6465 0.27382-1.5876 0.60591-2.0913 0.68875-1.0447 4.8264-4.2311 7.1037-5.4706 1.4198-0.77275 1.6731-0.81034 3.5486-0.52649 1.1108 0.16812 3.5316 0.39716 5.3796 0.50897 11.81 0.71459 18.899 1.6876 23.84 3.2719 7.0319 2.2549 7.0199 2.241 8.3803 9.7404 0.57752 3.1836 0.97172 5.9151 0.87598 6.07-0.21761 0.3521-0.79033 0.34628-1.4163-0.0144zm-49.429-16.744c-0.07071-0.22-0.56557-2.8997-1.0997-5.9548-0.85029-4.8637-0.91876-5.6799-0.55031-6.56 1.1425-2.729 8.318-7.3447 18.156-11.679 11.001-4.8468 18.047-8.8099 21.933-12.338 1.9384-1.7596 2.4707-2.0494 2.7962-1.5227 0.39317 0.63616 2.1263 11.673 1.933 12.309-0.37862 1.2477-1.7128 2.7376-4.3787 4.8901-4.3154 3.4842-8.7577 5.9209-20.078 11.013-8.1364 3.6602-13.131 6.4811-16.963 9.58-0.91763 0.74218-1.5631 0.83861-1.7487 0.26127zm-31.545-9.1395c-3.8194-3.7525-6.0714-6.1929-5.9284-6.4244 0.12688-0.2053 1.4078-0.96166 2.8465-1.6808 1.4387-0.71914 4.1632-2.2361 6.0545-3.3711 1.8913-1.1349 3.5833-1.9742 3.76-1.865 0.17669 0.1092 0.32126 0.61553 0.32126 1.1252 0 0.81462 0.14503 0.95571 1.2 1.1674 3.4008 0.68224 19.435 0.036 26.4-1.064 0.70004-0.11056 1.2-0.05873 1.2 0.12442 0 0.17267-1.0336 1.0012-2.2968 1.8413-3.2476 2.1595-5.2582 4.138-5.8923 5.7983-0.53399 1.3982-0.5227 2.6943 0.05573 6.4004 0.17026 1.0909 0.10435 1.3563-0.39092 1.5744-0.32764 0.14428-4.9877 0.30358-10.356 0.354l-9.76 0.0917-0.16 0.86754c-0.088 0.47714-0.32534 0.92253-0.52742 0.98974-0.20208 0.0672-3.139-2.6008-6.5265-5.9289zm94.99-0.0833c-6.1337-1.6308-9.8496-2.0427-18.496-2.0503-5.6676-5e-3 -9.2297 0.15796-12.855 0.588-2.7585 0.32718-5.199 0.53367-5.4234 0.45887-0.2244-0.0748 1.4565-1.1092 3.7354-2.2986 8.5565-4.4661 14.515-9.3279 15.309-12.491 0.10396-0.41418 0.37025-0.81961 0.59177-0.90096 1.5485-0.56862 14.893 1.1541 19.363 2.4997l1.68 0.50574v7.3359c0 4.0348-0.108 7.3196-0.24 7.2996-0.132-0.02-1.7806-0.44591-3.6636-0.94654zm-83.936-15.207c-5.4788-0.41702-11.841-1.4612-15.44-2.5341l-1.68-0.50081v-14.768l0.88 0.16161c0.484 0.08889 2.464 0.53501 4.4 0.99139 5.4632 1.2879 11.273 1.8424 18.57 1.7724 5.4106-0.0519 6.5691 0.02074 7.4298 0.46581 1.4818 0.76626 7.734 2.3179 11.611 2.8815 1.842 0.26778 5.6531 0.64581 8.4691 0.84006 5.5738 0.38448 13.176 1.1612 14.419 1.4733 0.42935 0.10776 0.78064 0.32015 0.78064 0.47199 0 0.15183-2.052 1.2987-4.56 2.5485l-4.56 2.2725-8.96 1.3898c-4.928 0.76438-11.152 1.6173-13.83 1.8955-4.92 0.51084-14.582 0.86272-17.53 0.63839zm74.933-3.8634c-0.11733-0.11733-0.21333-0.61251-0.21333-1.1004 0-1.0055-0.20617-1.0571-5.5914-1.3988-1.5792-0.1002-3.0016-0.31238-3.1607-0.47152-0.36564-0.36564-2.749-13.515-2.5202-13.904 0.09698-0.1649 2.5348-0.20681 5.7013-0.098l5.5319 0.19008 0.09952-0.83732c0.05473-0.46052 0.26395-0.89123 0.46493-0.95713 0.43659-0.14315 8.158 6.9845 10.725 9.9005l1.8106 2.0565-2.7706 1.3648c-1.5238 0.75063-4.3065 2.2882-6.1838 3.4167-3.6564 2.1981-3.5732 2.1588-3.8934 1.8386zm-23.573-7.4723c-2.1606-0.50419-9.1862-1.2701-16.16-1.7617-9.1481-0.64488-14.945-1.5884-18.941-3.083-3.0932-1.157-4.3815-3.6276-3.1417-6.025 0.50691-0.98026 2.9352-2.9706 6.0546-4.9627l1.8922-1.2084 3.0678 0.35986c1.6873 0.19793 5.2998 0.50685 8.0278 0.6865 10.807 0.7117 17.311 1.7208 22.501 3.4912 4.7043 1.6048 6.0034 2.7119 6.037 5.1448 0.02304 1.6702-0.93311 2.9248-4.3317 5.684-2.514 2.0409-2.8925 2.1676-5.006 1.6744zm-60.241-10.365c-3.8076-3.5476-8.4325-8.4294-8.1957-8.6511 0.064414-0.060285 1.5569-0.86977 3.3167-1.7989 1.7598-0.92908 4.4648-2.4565 6.0113-3.3942 1.5464-0.93771 3.0135-1.7049 3.2602-1.7049 0.27167 0 0.48801 0.40856 0.54875 1.0363 0.09036 0.93383 0.22687 1.0586 1.3803 1.2616 0.704 0.12388 3.08 0.23574 5.28 0.24858 2.2 0.01283 4.1957 0.14731 4.4348 0.29883 0.66128 0.419 2.9856 13.816 2.4988 14.403-0.30612 0.3691-1.5398 0.41434-7.0125 0.25718l-6.6411-0.19072v0.94282c0 0.62595-0.16179 0.94283-0.4814 0.94283-0.26477 0-2.2448-1.6429-4.4-3.651zm95.121-1.7048c-6.6183-1.9503-12.773-2.6779-22.24-2.6293-6.9114 0.035504-7.8882-0.026016-9.76-0.6148-4.9364-1.5527-10.148-2.3114-21.085-3.0696-3.7649-0.26098-6.9233-0.55251-7.0187-0.64784-0.34312-0.34312 0.51597-0.79959 6.504-3.4558 3.344-1.4833 7.1107-3.2163 8.3704-3.8511 2.4816-1.2504 3.6763-1.4969 11.31-2.333 6.831-0.74822 19.951-0.75768 24.78-0.01786 4.6856 0.71786 10.431 2.1128 10.609 2.5756 0.0789 0.20562 0.10462 3.545 0.0571 7.4209l-0.08627 7.047zm-74.549-2.4042c-0.39169-0.95413-1.9307-9.8343-1.9307-11.14 0-1.8914 1.2794-3.2873 5.76-6.2845 2.7857-1.8635 6.8063-3.9912 11.141-5.8958 6.6489-2.9215 15.613-7.4186 18.299-9.1802 1.32-0.86574 3.5409-2.5332 4.9353-3.7054 1.3944-1.1722 2.6572-2.0094 2.8062-1.8605 0.49935 0.49935 2.2558 11.234 2.0328 12.423-0.25894 1.3803-2.781 3.9466-6.506 6.6203-3.0111 2.1612-10.225 5.9443-17.508 9.1812-2.816 1.2516-6.6198 3.0683-8.4528 4.0373-3.3183 1.754-8.5941 5.1853-9.3229 6.0634-0.5401 0.65078-0.91173 0.57405-1.2537-0.25885zm-16.171-13.732c-2.9051-0.32708-9.2817-1.6046-11.2-2.2439l-1.28-0.42657-0.085818-7.4064-0.085818-7.4064 1.2058 0.29848c8.6027 2.1295 12.932 2.659 21.526 2.6328 7.735-0.02354 12.818-0.46592 23.52-2.0469 3.52-0.52002 6.7325-0.9463 7.1389-0.94731 1.7801-0.004397-0.20781 1.0686-10.179 5.494-7.9196 3.5149-13.35 6.8414-16.722 10.243l-2.1621 2.1811-4.5579-0.041856c-2.5069-0.023018-5.7099-0.17155-7.1179-0.33007zm79.343-4.015c-0.10786-0.4912-0.24298-1.0507-0.30028-1.2434-0.22661-0.76211-10.996-1.0266-17.394-0.42727-1.9976 0.18712-3.712 0.26023-3.8098 0.16246-0.09777-0.09777 0.57135-0.96983 1.4869-1.9379 2.733-2.8898 2.9867-4.0292 2.0804-9.3461-0.28298-1.6602-0.41982-3.1131-0.30409-3.2289 0.38358-0.38358 9.2073-0.65036 13.447-0.40656 2.2945 0.13195 4.2797 0.18072 4.4117 0.10838 0.132-0.07234 0.24-0.47453 0.24-0.89376s0.14104-0.8494 0.31343-0.95594c0.35123-0.21707 5.7204 4.6352 10.054 9.0862l2.8476 2.9247-2.5276 1.2248c-1.3902 0.67361-4.1836 2.2025-6.2076 3.3976-2.024 1.1951-3.7838 2.2305-3.9106 2.3009-0.12684 0.0704-0.31887-0.27388-0.42673-0.76508zm-32.623-17.707c-2.475-0.50309-9.6708-1.2681-16.48-1.752-7.5722-0.53811-11.103-1.0461-15.669-2.2542-5.5399-1.4659-5.8096-1.8002-7.0671-8.7608-1.1719-6.4863-1.1853-6.884-0.22409-6.6044 7.1411 2.077 11.644 2.8484 19.76 3.3854 11.472 0.75907 17.315 1.6284 22.753 3.3854 6.302 2.036 8.042 4.4377 5.5664 7.6833-1.179 1.5458-5.9529 5.2569-6.7075 5.2143-0.35869-0.02024-1.2282-0.15388-1.9322-0.29699z" fill="#b2a4c9"/>
  <path d="m83.823 125.56c-5.554-1.9116-11.571-2.828-23.983-3.6526-6.0733-0.40351-10.632-1.0557-14.618-2.0913-3.921-1.0188-5.4311-1.8026-6.0752-3.1534-1.1501-2.4118 0.16817-4.2598 5.534-7.7574l2.7564-1.7967 4.6814 0.36707c2.5748 0.2019 6.6974 0.51939 9.1614 0.70555 9.0147 0.68106 14.34 1.5738 19.195 3.2176 3.3594 1.1374 5.0879 2.1655 5.7145 3.399 0.46119 0.90791 2.1301 9.8155 2.1301 11.369 0 0.47975-0.108 0.85057-0.24 0.82403-0.132-0.0265-2.0478-0.67047-4.2573-1.431zm-46.2-16.041c-0.6396-2.9965-1.7805-10.019-1.7817-10.967-0.003616-2.983 6.5001-7.3675 19.679-13.266 10.485-4.6934 16.028-7.8429 20.586-11.698 1.2905-1.0913 2.4565-1.8592 2.5911-1.7065 0.34185 0.38776 1.9557 9.9134 1.9485 11.501-0.0079 1.7307-1.0326 3.0512-4.5508 5.8643-4.1336 3.3052-9.7089 6.3541-19.775 10.814-2.552 1.1307-6.1398 2.8478-7.9728 3.8157-3.3158 1.7509-8.5928 5.1819-9.3229 6.0616-0.59914 0.72192-1.1959 0.54354-1.4013-0.41885zm-31.58-8.9775-6.1565-6.0175 2.3853-1.1328c1.3119-0.62301 4.0987-2.1631 6.1928-3.4225 2.0942-1.2594 3.9263-2.2897 4.0715-2.2897 0.14516 0 0.26613 0.324 0.26882 0.72 0.01158 1.7018-0.11554 1.6805 9.9836 1.6736 7.1375-0.0049 10.428-0.14371 13.803-0.58226 2.4371-0.3167 4.5131-0.4938 4.6133-0.39355 0.21868 0.21868 0.46289 0.02006-2.5848 2.1022-4.9319 3.3693-5.9592 5.2964-5.3014 9.944 0.22126 1.5633 0.32759 2.917 0.23629 3.0083-0.42229 0.42229-11.901 0.83159-15.794 0.56321-4.4473-0.30652-4.96-0.1945-4.96 1.0838 0 0.41845-0.1351 0.76082-0.30023 0.76082s-3.0707-2.7079-6.4567-6.0175zm95.038 0.24098c-4.9946-1.3283-9.3324-1.9107-15.801-2.1213-5.5663-0.18123-12.782 0.16989-18.193 0.88526-1.3824 0.18276-2.5761 0.26971-2.6526 0.19321-0.07649-0.07649 1.6678-1.1122 3.8763-2.3017 8.3835-4.5151 13.791-8.9474 14.898-12.211 0.18869-0.55644 0.51611-1.0751 0.7276-1.1526 1.5344-0.56225 14.905 1.1704 19.345 2.5067l1.68 0.50574v7.3359c0 4.0348-0.108 7.3196-0.24 7.2996-0.132-0.02-1.7695-0.44307-3.6388-0.94025zm-87.001-15.668c-3.6091-0.37372-6.1422-0.81575-10.48-1.8289l-3.6-0.84078v-7.3244c0-6.8267 0.038053-7.3129 0.56-7.1553 7.312 2.2075 16.337 3.3028 24.483 2.9714 4.2845-0.1743 4.8631-0.13204 6.2335 0.4554 4.052 1.7369 10.81 2.9731 19.924 3.6442 10.964 0.80743 15.04 1.2977 15.04 1.8089 0 0.16202-2.052 1.2929-4.56 2.5131l-4.56 2.2185-8.48 1.2789c-4.664 0.70337-10.496 1.509-12.96 1.7902-5.2669 0.60116-17.713 0.87128-21.6 0.46879zm77.973-3.4086c-0.11733-0.11733-0.21333-0.61251-0.21333-1.1004 0-1.0055-0.20617-1.0571-5.5914-1.3988-1.5792-0.1002-3.0016-0.31238-3.1607-0.47152-0.36564-0.36564-2.749-13.515-2.5202-13.904 0.09698-0.1649 2.5348-0.20681 5.7013-0.098l5.5319 0.19008 0.09952-0.83732c0.05473-0.46052 0.26395-0.89123 0.46493-0.95713 0.43659-0.14315 8.158 6.9845 10.725 9.9005l1.8106 2.0565-2.7706 1.3648c-1.5238 0.75063-4.3065 2.2882-6.1838 3.4167-3.6564 2.1981-3.5732 2.1588-3.8934 1.8386zm-24.213-7.6412c-2.7027-0.5434-10.028-1.3198-16.48-1.7468-8.3406-0.55195-16.114-1.9671-19.009-3.4605-2.8499-1.4702-3.3143-4.2346-1.0962-6.5249 1.3145-1.3573 6.619-5.0549 7.2459-5.0509 0.20847 0.0013 1.243 0.1388 2.299 0.30549s4.296 0.45695 7.2 0.64503c6.6038 0.4277 13.733 1.1779 17.1 1.7996 3.2093 0.59244 8.1598 2.1795 10.205 3.2715 2.4512 1.3089 3.1368 3.517 1.7759 5.719-0.79794 1.2911-5.975 5.5543-6.6776 5.4989-0.26589-0.020992-1.4194-0.22634-2.5634-0.45635zm-61.929-12.782c-3.3138-3.2539-5.9634-5.9549-5.888-6.0021 0.075396-0.047229 1.2891-0.63958 2.6971-1.3163 1.408-0.67675 4.0927-2.1518 5.9661-3.2779 1.8734-1.1261 3.5654-2.0474 3.76-2.0474 0.19464 0 0.35389 0.34237 0.35389 0.76082 0 1.3259 0.62638 1.4986 6.2914 1.7347l5.3886 0.22453 1.0211 5.6c0.5616 3.08 1.0656 6.248 1.12 7.04l0.09891 1.44h-13.76l-0.10126 0.88c-0.05569 0.484-0.2861 0.88-0.51202 0.88s-3.122-2.6623-6.4358-5.9162zm97.449 0.88045c-6.5056-1.9171-12.611-2.6442-22.2-2.6442-7.4698 0-7.8587-0.03104-10.144-0.80937-4.2578-1.4504-12.064-2.5316-23.176-3.2102-4.4102-0.26931-4.9748-0.52117-3.0396-1.3559 3.9483-1.7031 11.162-4.9994 13.364-6.1067 2.2655-1.1391 2.9349-1.3045 7.7573-1.9168 14.83-1.8829 25.05-1.6533 35.28 0.79283 1.9158 0.45808 3.5478 1.0011 3.6267 1.2067 0.0789 0.20562 0.10462 3.545 0.0571 7.4209l-0.08627 7.047zm-74.56-2.1822c0-0.09791-0.44269-2.6463-0.98376-5.6632-0.56811-3.1676-0.90262-5.9177-0.79171-6.5089 0.48119-2.565 7.8288-7.3855 18.255-11.977 10.98-4.8351 16.397-7.8269 21.122-11.667 1.6287-1.3235 3.0997-2.4063 3.2689-2.4063 0.16913 0 0.77346 2.6419 1.343 5.8708 1.2385 7.0217 1.234 7.0433-2.0886 10.094-4.2655 3.9166-10.089 7.2161-22.366 12.672-6.1695 2.7416-11.212 5.5284-14.556 8.044-2.0201 1.5197-3.2035 2.0892-3.2035 1.5415zm-12.96-13.917c-3.9982-0.27366-8.4354-0.98385-12.735-2.0383l-2.9449-0.72221-0.085933-7.4267c-0.081174-7.0153-0.054588-7.4104 0.48-7.1323 0.81576 0.42433 7.1411 1.8682 10.326 2.357 1.7812 0.2734 5.923 0.41408 12 0.4076 9.7986-0.01045 11.899-0.18585 24.255-2.0257 3.3081-0.49258 6.0756-0.79718 6.1499-0.6769 0.14017 0.2268-4.8921 2.6979-10.725 5.2664-7.5214 3.3122-14.011 7.3597-16.702 10.418l-1.6799 1.9085-2.4088-0.047062c-1.3248-0.025885-3.9928-0.15548-5.9288-0.28799zm76.143-4.0519c-0.10786-0.4912-0.24298-1.0507-0.30028-1.2434-0.21737-0.73103-10.808-1.0128-17.439-0.464-1.846 0.15278-3.4677 0.20891-3.6039 0.12473-0.1362-0.08418 0.3879-0.78859 1.1647-1.5654 2.7405-2.7405 3.2045-4.7476 2.255-9.7531-0.35604-1.8769-0.40155-2.7378-0.15762-2.9817 0.50126-0.50126 8.3848-0.82648 13.252-0.54668 2.3133 0.13297 4.3139 0.18258 4.4459 0.11024 0.132-0.07234 0.24-0.47453 0.24-0.89376s0.14104-0.8494 0.31343-0.95594c0.35123-0.21707 5.7204 4.6352 10.054 9.0862l2.8476 2.9247-2.5276 1.2248c-1.3902 0.67361-4.1836 2.2025-6.2076 3.3976-2.024 1.1951-3.7838 2.2305-3.9106 2.3009-0.12684 0.0704-0.31887-0.27388-0.42673-0.76508zm-32.143-17.699c-2.1101-0.49241-9.1213-1.2651-16-1.7633-8.1656-0.59145-12.207-1.1474-16.32-2.2454-3.5308-0.94244-5.0217-1.6427-5.8068-2.7276-0.58658-0.81045-2.6727-11.581-2.3872-12.325 0.11428-0.29781 0.77537-0.20387 2.6531 0.37701 5.0951 1.5762 8.3541 2.0328 22.796 3.1942 7.7911 0.62654 12.882 1.4496 16.895 2.7313 5.628 1.7975 7.13 2.8861 7.13 5.1676 0 1.9642-1.2848 3.5281-5.5445 6.7489-1.638 1.2385-1.6765 1.248-3.4155 0.84217z" fill="#9f9aa5"/>
  <path d="m84.32 125.4c-5.7609-1.9689-10.641-2.7365-23.2-3.6487-9.9922-0.72579-16.815-1.9675-20.145-3.6665-1.4866-0.75842-1.9352-1.4574-1.9352-3.0156 0-1.575 1.2859-2.9317 5.363-5.658 2.6177-1.7504 3.5452-2.2116 4.1985-2.0874 1.4588 0.27727 3.8464 0.49709 10.918 1.0052 10.803 0.77621 15.389 1.5125 21.019 3.3745 4.0999 1.3561 5.3857 2.3478 5.8555 4.516 0.87159 4.0228 1.8463 10.032 1.6544 10.2-0.11468 0.10063-1.7925-0.35841-3.7285-1.0201zm-46.396-15.723c-0.30405-0.89164-1.8195-10.073-1.8234-11.047-6e-3 -1.5 0.71392-2.4085 3.6099-4.5558 3.3255-2.4657 7.7538-4.9329 12.93-7.2038 6.9181-3.0351 15.527-7.3385 18.24-9.118 1.408-0.92346 3.6687-2.5942 5.0237-3.7128s2.5488-1.8961 2.6528-1.7279c0.10399 0.16826 0.61494 2.7213 1.1354 5.6735 0.75926 4.3064 0.87876 5.5724 0.60447 6.4035-0.69554 2.1075-5.749 6.209-11.656 9.4605-3.0855 1.6983-5.7504 2.971-15.36 7.3357-5.053 2.295-9.6825 4.9328-12.803 7.2946-2.3203 1.7562-2.3572 1.7736-2.5535 1.1978zm-31.739-9.2403-6.0243-5.8797 2.5549-1.2247c1.4052-0.67359 4.09-2.1496 5.9661-3.28 1.8762-1.1304 3.5704-2.0553 3.7651-2.0553 0.19464 0 0.35389 0.42926 0.35389 0.9539 0 0.76763 0.17184 1.002 0.88 1.2 1.7748 0.49632 16.333 0.25138 21.614-0.36366 2.7798-0.32372 5.1217-0.52109 5.2041-0.4386 0.08249 0.08249-1.1404 1.1-2.7176 2.2611-1.6007 1.1784-3.2637 2.7092-3.7641 3.4649-0.78401 1.1839-0.89653 1.6581-0.89653 3.7781 0 1.3334 0.1174 3.017 0.2609 3.7415 0.2386 1.2047 0.19759 1.338-0.48 1.5603-0.40749 0.13368-5.0609 0.27805-10.341 0.32082-9.112 0.0738-9.6056 0.10838-9.7111 0.67975-0.06108 0.33108-0.23014 0.72782-0.37569 0.88165-0.14574 0.15403-2.9711-2.3618-6.2889-5.6zm94.872 0.33748c-6.1971-1.6477-9.8372-2.0474-18.656-2.0485-6.9587-9.6e-4 -13.998 0.41041-16.88 0.98633-1.3702 0.27378-1.0371-0.31135 0.64-1.1241 8.0174-3.8855 15.196-9.3737 16.782-12.83 0.40145-0.87507 0.87581-1.644 1.0541-1.7088 0.17833-0.06477 2.2682 0.0044 4.6442 0.15365 4.3476 0.27316 11.522 1.4377 14.64 2.3762l1.68 0.50574v7.3359c0 4.0348-0.108 7.3196-0.24 7.2996-0.132-0.02-1.7806-0.44591-3.6636-0.94654zm-87.296-15.873c-2.3857-0.2414-7.3218-1.1145-9.9133-1.7534-1.4923-0.36794-2.9323-0.70104-3.2-0.74024-0.41626-0.06094-0.49916-1.1206-0.57272-7.3209-0.047304-3.9873 0.031896-7.2497 0.176-7.2497s0.39881 0.12417 0.56601 0.27592c0.38606 0.3504 3.8239 1.2018 8.144 2.0169 2.6284 0.49592 5.2762 0.67036 12.16 0.80108 8.609 0.16348 8.856 0.18662 11.378 1.0657 5.1851 1.8073 10.232 2.614 21.102 3.3729 3.872 0.27033 8.1882 0.63008 9.5916 0.79945 1.4034 0.16937 2.6634 0.30794 2.8 0.30794 0.13662 0 0.24839 0.13758 0.24839 0.30574 0 0.33745-7.1811 3.8848-8.96 4.4261-2.0305 0.61786-16.375 2.7172-23.335 3.4152-4.4213 0.44339-16.855 0.61412-20.185 0.27716zm78.293-3.1976c-0.11733-0.11733-0.21333-0.61251-0.21333-1.1004 0-1.0055-0.20617-1.0571-5.5914-1.3988-1.5792-0.1002-3.0016-0.31238-3.1607-0.47152-0.36564-0.36564-2.749-13.515-2.5202-13.904 0.09698-0.1649 2.5348-0.20681 5.7013-0.098l5.5319 0.19008 0.09952-0.83732c0.05473-0.46052 0.26395-0.89123 0.46493-0.95713 0.43659-0.14315 8.158 6.9845 10.725 9.9005l1.8106 2.0565-2.7706 1.3648c-1.5238 0.75063-4.3065 2.2882-6.1838 3.4167-3.6564 2.1981-3.5732 2.1588-3.8934 1.8386zm-23.573-7.8023c-2.0306-0.48972-9.0106-1.2527-16-1.7491-8.0498-0.57161-13.736-1.448-17.78-2.7404-3.4019-1.0871-4.3027-1.8645-4.5336-3.9132-0.14575-1.2931-0.05364-1.5357 1.0445-2.7512 0.6624-0.7332 2.5111-2.2072 4.1083-3.2755 2.758-1.8448 2.9767-1.9324 4.3525-1.7437 1.5234 0.20891 5.7206 0.5679 13.449 1.1503 10.018 0.75495 16.822 2.1333 21.304 4.3157 2.3975 1.1674 3.016 1.9344 3.016 3.7401 0 1.507-1.0743 2.9331-3.9319 5.2195-2.6308 2.1049-3.006 2.2353-5.0281 1.7476zm-62.38-12.675c-3.1789-3.1081-5.7759-5.7361-5.7712-5.84 0.0047316-0.10395 0.97548-0.621 2.1572-1.149 1.1817-0.528 3.8046-1.9436 5.8287-3.1458 2.024-1.2022 3.8173-2.2102 3.985-2.24 0.16771-0.02982 0.38494 0.36864 0.48272 0.88548 0.22883 1.2095 0.79138 1.3439 6.8018 1.6251l4.7041 0.22009 0.32876 1.6475c0.73271 3.6718 1.9431 10.744 1.9431 11.354 0 0.38783-0.28228 0.74018-0.69891 0.87242-0.3844 0.122-3.4804 0.11806-6.88-0.0087l-6.1811-0.23062v0.83031c0 0.50888-0.17817 0.83031-0.46024 0.83031-0.25313 0-3.0611-2.543-6.24-5.651zm97.26 0.9352c-6.5056-1.9171-12.611-2.6442-22.2-2.6442-7.4511 0-7.8637-0.03269-10.127-0.80242-4.3754-1.4882-10.705-2.4651-20.585-3.1775-3.4937-0.25187-6.4297-0.53541-6.5244-0.63008-0.09467-0.09468 0.17184-0.30478 0.59225-0.46691 1.3914-0.5366 11.516-5.1722 14.002-6.4107 2.5259-1.2586 3.8504-1.5222 13.322-2.6514 4.8699-0.58057 18.121-0.48165 22.38 0.16707 4.6702 0.7114 10.431 2.1083 10.609 2.5726 0.0789 0.20562 0.10462 3.545 0.0571 7.4209l-0.08627 7.047zm-74.364-2.8842c-0.37719-1.2642-1.796-9.8956-1.796-10.926 0-2.6824 6.6003-7.0986 18.72-12.525 10.999-4.9251 16.433-7.9803 21.206-11.923 1.2791-1.0567 2.4065-1.8404 2.5053-1.7415 0.40767 0.40767 2.1168 11.124 1.91 11.976-0.12354 0.50897-1.1696 1.8202-2.4077 3.0181-4.1403 4.0058-9.675 7.2104-21.773 12.606-3.432 1.5308-7.176 3.297-8.32 3.9251-2.7422 1.5054-8.0913 5.0092-8.6201 5.6463-0.55285 0.66615-1.2162 0.64004-1.4238-0.05604zm-14.116-13.418c-2.8127-0.24252-7.8698-1.1066-11.28-1.9274l-3.6-0.86647v-7.1683c0-6.6991 0.036658-7.1536 0.56-6.944 1.4033 0.56198 6.6674 1.7458 10.16 2.2847 5.1848 0.80014 17.749 0.80293 24.64 0.0055 4.3274-0.50079 13.667-1.8273 16.446-2.3358 2.5522-0.46701 0.4024 0.7378-7.5507 4.2317-9.7021 4.2623-16.847 8.6751-18.932 11.692l-0.84382 1.2213-4.16-0.041648c-2.288-0.02291-4.736-0.09131-5.44-0.15202zm77.103-3.849c-0.10786-0.4912-0.24298-1.0507-0.30028-1.2434-0.21737-0.73103-10.808-1.0128-17.439-0.464-1.846 0.15278-3.4677 0.20891-3.6039 0.12473-0.1362-0.08418 0.3879-0.78859 1.1647-1.5654 2.7405-2.7405 3.2045-4.7476 2.255-9.7531-0.35604-1.8769-0.40155-2.7378-0.15762-2.9817 0.50126-0.50126 8.3848-0.82648 13.252-0.54668 2.3133 0.13297 4.3139 0.18258 4.4459 0.11024 0.132-0.07234 0.24-0.47453 0.24-0.89376s0.14104-0.8494 0.31343-0.95594c0.35123-0.21707 5.7204 4.6352 10.054 9.0862l2.8476 2.9247-2.5276 1.2248c-1.3902 0.67361-4.1836 2.2025-6.2076 3.3976-2.024 1.1951-3.7838 2.2305-3.9106 2.3009-0.12684 0.0704-0.31887-0.27388-0.42673-0.76508zm-32.783-18.05c-2.7103-0.53956-9.1196-1.2291-16-1.7215-12.529-0.89649-20.224-2.6896-21.461-5.0009-0.44463-0.8308-2.2894-11.156-2.0873-11.683 0.12448-0.32439 0.55999-0.27544 2.0135 0.2263 4.3926 1.5163 9.5933 2.2692 22.015 3.1872 9.1931 0.67939 14.982 1.6752 19.763 3.4 6.986 2.52 6.9682 5.3996-0.06599 10.685-1.7734 1.3325-1.8997 1.3599-4.1771 0.90654z" fill="#d660a1"/>
  <path d="m84.32 125.4c-5.7609-1.9689-10.641-2.7365-23.2-3.6487-9.9922-0.72579-16.815-1.9675-20.145-3.6665-1.4866-0.75842-1.9352-1.4574-1.9352-3.0156 0-1.575 1.2859-2.9317 5.363-5.658 2.6177-1.7504 3.5452-2.2116 4.1985-2.0874 1.4588 0.27727 3.8464 0.49709 10.918 1.0052 10.803 0.77621 15.389 1.5125 21.019 3.3745 4.0999 1.3561 5.3857 2.3478 5.8555 4.516 0.87159 4.0228 1.8463 10.032 1.6544 10.2-0.11468 0.10063-1.7925-0.35841-3.7285-1.0201zm-46.396-15.723c-0.30405-0.89164-1.8195-10.073-1.8234-11.047-6e-3 -1.5 0.71392-2.4085 3.6099-4.5558 3.3255-2.4657 7.7538-4.9329 12.93-7.2038 6.9181-3.0351 15.527-7.3385 18.24-9.118 1.408-0.92346 3.6687-2.5942 5.0237-3.7128s2.5488-1.8961 2.6528-1.7279c0.10399 0.16826 0.61494 2.7213 1.1354 5.6735 0.75926 4.3064 0.87876 5.5724 0.60447 6.4035-0.69554 2.1075-5.749 6.209-11.656 9.4605-3.0855 1.6983-5.7504 2.971-15.36 7.3357-5.053 2.295-9.6825 4.9328-12.803 7.2946-2.3203 1.7562-2.3572 1.7736-2.5535 1.1978zm-31.739-9.2403-6.0243-5.8797 2.5549-1.2247c1.4052-0.67359 4.09-2.1496 5.9661-3.28 1.8762-1.1304 3.5704-2.0553 3.7651-2.0553 0.19464 0 0.35389 0.42926 0.35389 0.9539 0 0.76763 0.17184 1.002 0.88 1.2 1.7748 0.49632 16.333 0.25138 21.614-0.36366 2.7798-0.32372 5.1217-0.52109 5.2041-0.4386 0.08249 0.08249-1.1404 1.1-2.7176 2.2611-1.6007 1.1784-3.2637 2.7092-3.7641 3.4649-0.78401 1.1839-0.89653 1.6581-0.89653 3.7781 0 1.3334 0.1174 3.017 0.2609 3.7415 0.2386 1.2047 0.19759 1.338-0.48 1.5603-0.40749 0.13368-5.0609 0.27805-10.341 0.32082-9.112 0.0738-9.6056 0.10838-9.7111 0.67975-0.06108 0.33108-0.23014 0.72782-0.37569 0.88165-0.14574 0.15403-2.9711-2.3618-6.2889-5.6zm98.278 1.0147c-0.58006-0.58006-8.2465-2.243-12.748-2.7651-5.4079-0.62729-16.378-0.4679-22.41 0.3256-2.0982 0.27602-3.8742 0.44262-3.9466 0.37021-0.07241-0.07241 1.5003-0.96626 3.4949-1.9863 7.2175-3.6912 12.638-7.964 14.229-11.218l0.87788-1.7943 4.1796 0.19773c4.2301 0.20012 10.399 1.0918 13.62 1.9687 0.968 0.26355 2.084 0.4809 2.48 0.48299l0.72 0.0038v7.36c0 4.048-0.0432 7.36-0.096 7.36s-0.23351-0.13751-0.40158-0.30558zm-90.702-16.55c-2.3857-0.2414-7.3218-1.1145-9.9133-1.7534-1.4923-0.36794-2.9323-0.70104-3.2-0.74024-0.41626-0.06094-0.49916-1.1206-0.57272-7.3209-0.047304-3.9873 0.031896-7.2497 0.176-7.2497s0.39881 0.12417 0.56601 0.27592c0.38606 0.3504 3.8239 1.2018 8.144 2.0169 2.6317 0.49655 5.2674 0.66966 12.16 0.79865 8.3359 0.156 8.9181 0.20664 11.04 0.96012 4.9414 1.7547 10.657 2.7382 19.2 3.3034 6.9175 0.45769 13.999 1.2456 14.356 1.5974 0.15269 0.15031-1.6351 1.2213-4 2.3961-4.6895 2.3297-3.9904 2.1596-16.436 3.9995-10.202 1.5081-15.524 1.9373-23.325 1.8808-3.8913-0.028166-7.5792-0.10221-8.1952-0.16454zm78.72-4.1042c0-0.264-0.27261-0.75261-0.6058-1.0858-0.5003-0.5003-1.3084-0.64633-4.64-0.83849-2.2188-0.12798-4.0346-0.25136-4.0352-0.2742s-0.5041-2.8495-1.119-6.2815-1.1184-6.5145-1.119-6.85c-9.6e-4 -0.58458 0.22644-0.60109 5.4526-0.39563l5.4536 0.2144 0.41079-0.97699 0.4108-0.97699 5.6556 5.4834c3.1106 3.0159 5.6556 5.6841 5.6556 5.9294s-1.332 1.1114-2.96 1.9247c-1.628 0.81327-4.132 2.1827-5.5644 3.0432-1.4324 0.86049-2.6924 1.5645-2.8 1.5645-0.10756 0-0.19556-0.216-0.19556-0.48zm11.84-5.9389c0-0.18639 0.144-0.24989 0.32-0.14111s0.32 0.26127 0.32 0.33889c0 0.07761-0.144 0.14111-0.32 0.14111s-0.32-0.1525-0.32-0.33889zm-35.84-0.95674c-2.0306-0.48972-9.0106-1.2527-16-1.7491-8.0498-0.57161-13.736-1.448-17.78-2.7404-3.4019-1.0871-4.3027-1.8645-4.5336-3.9132-0.14575-1.2931-0.05364-1.5357 1.0445-2.7512 0.6624-0.7332 2.5111-2.2072 4.1083-3.2755 2.758-1.8448 2.9767-1.9324 4.3525-1.7437 1.5234 0.20891 5.7206 0.5679 13.449 1.1503 10.018 0.75495 16.822 2.1333 21.304 4.3157 2.3975 1.1674 3.016 1.9344 3.016 3.7401 0 1.507-1.0743 2.9331-3.9319 5.2195-2.6308 2.1049-3.006 2.2353-5.0281 1.7476zm-62.38-12.675c-3.1789-3.1081-5.7759-5.7361-5.7712-5.84 0.0047316-0.10395 0.97548-0.621 2.1572-1.149 1.1817-0.528 3.8046-1.9436 5.8287-3.1458 2.024-1.2022 3.8173-2.2102 3.985-2.24 0.16771-0.02982 0.38494 0.36864 0.48272 0.88548 0.22883 1.2095 0.79138 1.3439 6.8018 1.6251l4.7041 0.22009 0.32876 1.6475c0.73271 3.6718 1.9431 10.744 1.9431 11.354 0 0.38783-0.28228 0.74018-0.69891 0.87242-0.3844 0.122-3.4804 0.11806-6.88-0.0087l-6.1811-0.23062v0.83031c0 0.50888-0.17817 0.83031-0.46024 0.83031-0.25313 0-3.0611-2.543-6.24-5.651zm97.851 0.84245c-0.88964-0.51934-6.9313-1.8546-10.991-2.4289-2.8373-0.40146-5.8872-0.53545-11.68-0.51313-7.3589 0.02835-7.9971-0.01626-10.4-0.72704-4.6247-1.368-9.7604-2.0868-20.432-2.86-3.4937-0.25311-6.4297-0.53767-6.5244-0.63234-0.09467-0.09468 0.17184-0.30478 0.59225-0.46691 1.413-0.54493 11.554-5.1901 13.802-6.3221 1.7636-0.88812 2.9331-1.2124 5.6341-1.562 15.612-2.0212 26.618-1.7726 37.889 0.85585l3.12 0.72762v7.1287c0 3.9208-0.108 7.1244-0.24 7.119-0.132-0.0053-0.47826-0.14882-0.76947-0.31882zm-74.954-2.7915c-0.37719-1.2642-1.796-9.8956-1.796-10.926 0-2.6824 6.6003-7.0986 18.72-12.525 10.999-4.9251 16.433-7.9803 21.206-11.923 1.2791-1.0567 2.4065-1.8404 2.5053-1.7415 0.40767 0.40767 2.1168 11.124 1.91 11.976-0.12354 0.50897-1.1696 1.8202-2.4077 3.0181-4.1403 4.0058-9.675 7.2104-21.773 12.606-3.432 1.5308-7.176 3.297-8.32 3.9251-2.7422 1.5054-8.0913 5.0092-8.6201 5.6463-0.55285 0.66615-1.2162 0.64004-1.4238-0.05604zm-14.116-13.418c-2.8127-0.24252-7.8698-1.1066-11.28-1.9274l-3.6-0.86647v-7.1683c0-6.6991 0.036658-7.1536 0.56-6.944 1.4033 0.56198 6.6674 1.7458 10.16 2.2847 5.1848 0.80014 17.749 0.80293 24.64 0.0055 4.3274-0.50079 13.667-1.8273 16.446-2.3358 2.5522-0.46701 0.4024 0.7378-7.5507 4.2317-9.7021 4.2623-16.847 8.6751-18.932 11.692l-0.84382 1.2213-4.16-0.041648c-2.288-0.02291-4.736-0.09131-5.44-0.15202zm77.446-4.5553c-0.11274-0.5133-0.44818-1.0374-0.74543-1.1647-0.91033-0.38988-13.453-0.5422-17.02-0.20668-1.848 0.1738-3.3963 0.28318-3.4406 0.24307-0.04434-0.04011 0.49603-0.6791 1.2008-1.42 2.6118-2.7456 2.9879-4.4809 2.0841-9.6165-0.26115-1.4839-0.39272-2.7799-0.29238-2.88 0.10034-0.10006 4.1617-0.19691 9.0252-0.21523l8.8428-0.0333 0.35287-0.86328 0.35287-0.86328 3.1772 2.9187c3.6892 3.389 8.8165 8.7018 8.6035 8.9148-0.0805 0.08048-0.14634 0.04902-0.14634-0.06992 0-0.30341-5.7059 2.6111-8.9311 4.5619-1.4801 0.89525-2.7286 1.6277-2.7746 1.6277-0.04592 0-0.17574-0.41997-0.28848-0.93327zm-33.126-17.344c-2.7103-0.53956-9.1196-1.2291-16-1.7215-12.529-0.89649-20.224-2.6896-21.461-5.0009-0.44463-0.8308-2.2894-11.156-2.0873-11.683 0.12448-0.32439 0.55999-0.27544 2.0135 0.2263 4.3926 1.5163 9.5933 2.2692 22.015 3.1872 9.1931 0.67939 14.982 1.6752 19.763 3.4 6.986 2.52 6.9682 5.3996-0.06599 10.685-1.7734 1.3325-1.8997 1.3599-4.1771 0.90654z" fill="#925397"/>
  <path d="m84.8 125.5c-5.7771-2.0197-11.072-2.881-22.88-3.7219-8.0306-0.57188-12.453-1.1784-16.784-2.3021-4.54-1.1778-6.0957-2.2762-6.0957-4.3042 0-1.669 1.9041-3.5716 6.5335-6.5279l1.8935-1.2092 4.8265 0.37859c2.6546 0.20823 6.6985 0.52019 8.9865 0.69324 9.035 0.68336 14.159 1.5224 18.69 3.0605 3.9238 1.3321 5.5563 2.284 6.0503 3.528 0.45962 1.1575 2.0508 10.221 1.9192 10.932-0.08738 0.47246-0.45737 0.41032-3.1391-0.52721zm-46.842-15.973c-0.37641-1.261-1.7975-9.8955-1.7975-10.922 0-1.6369 1.1733-2.9213 5.0159-5.4908 3.7408-2.5014 7.1169-4.2701 14.246-7.4633 10.477-4.6926 16.187-7.9106 20.485-11.544 1.3569-1.1471 2.5322-1.9804 2.6117-1.8517 0.32078 0.51904 1.8012 9.6682 1.8012 11.132 0 1.5325-0.05663 1.6248-2.3617 3.8491-1.2989 1.2534-3.4949 3.0255-4.88 3.938-2.9244 1.9267-10.626 5.8745-16.598 8.5078-7.6279 3.3636-11.937 5.7153-15.84 8.6458-2.4104 1.8096-2.4896 1.845-2.6825 1.1989zm-31.522-8.9646c-3.0216-2.948-5.4896-5.5272-5.4846-5.7315 0.00506-0.20431 1.3488-1.0872 2.986-1.962 1.6372-0.8748 4.1932-2.3251 5.68-3.2228 2.6634-1.6083 2.7047-1.621 2.8022-0.8614 0.19611 1.5272 0.61292 1.6103 8.6698 1.729 6.4845 0.09556 14.412-0.25608 17.782-0.78873l0.96946-0.15324-0.79189 0.57535c-2.2737 1.652-4.597 3.7936-5.3505 4.9322-1.0146 1.5332-1.2779 3.7607-0.76885 6.5064 0.19406 1.0468 0.24446 2.0115 0.11201 2.1438-0.47208 0.47171-11.362 0.93337-15.441 0.65463-4.2154-0.28805-5.12-0.12733-5.12 0.90964 0 0.34581-0.12395 0.62874-0.27544 0.62874s-2.7476-2.412-5.7692-5.36zm98.027 0.89442c-0.57959-0.57959-8.2449-2.2428-12.748-2.766-4.4706-0.51945-13.276-0.4969-21.955 0.056211l-3.04 0.19375 3.2024-1.8764c7.294-4.2738 11.717-7.9308 13.16-10.881l0.87788-1.7943 4.1796 0.19773c4.2301 0.20012 10.399 1.0918 13.62 1.9687 0.968 0.26355 2.084 0.4809 2.48 0.48299l0.72 0.0038v7.36c0 4.048-0.0432 7.36-0.096 7.36s-0.23351-0.13751-0.40158-0.30558zm-89.102-16.555c-2.8933-0.21841-8.5446-1.1125-11.04-1.7466-1.408-0.3578-2.92-0.68953-3.36-0.73719l-0.8-0.086637-0.086008-7.2445c-0.056531-4.7616 0.025724-7.2445 0.24-7.2445 0.1793 0 0.32601 0.12128 0.32601 0.26952 0 0.29321 4.0872 1.3403 8.16 2.0904 4.19 0.77175 11.352 1.253 16.23 1.0905 4.442-0.14796 4.6336-0.12686 6.8534 0.75481 2.8085 1.1155 7.9817 2.3935 11.716 2.8944l2.8 0.37558v7.1615l-1.84 0.34921c-9.2186 1.7496-21.726 2.6377-29.2 2.0735zm77.12-4.0995c0-0.264-0.27261-0.75261-0.6058-1.0858-0.5003-0.5003-1.3084-0.64633-4.64-0.83849-2.2188-0.12798-4.0346-0.25136-4.0352-0.2742s-0.5041-2.8495-1.119-6.2815-1.1184-6.5145-1.119-6.85c-9.6e-4 -0.58458 0.22644-0.60109 5.4526-0.39563l5.4536 0.2144 0.41079-0.97699 0.4108-0.97699 5.6556 5.4834c3.1106 3.0159 5.6556 5.6841 5.6556 5.9294s-1.332 1.1114-2.96 1.9247c-1.628 0.81327-4.132 2.1827-5.5644 3.0432-1.4324 0.86049-2.6924 1.5645-2.8 1.5645-0.10756 0-0.19556-0.216-0.19556-0.48zm-29.76-3.4853c0-0.38018 0.30942-0.51469 1.184-0.51469 1.3116 0 1.1412 0.45512-0.304 0.81205-0.68533 0.16925-0.88 0.10348-0.88-0.29736zm41.6-2.4536c0-0.18639 0.144-0.24989 0.32-0.14111s0.32 0.26127 0.32 0.33889c0 0.07761-0.144 0.14111-0.32 0.14111s-0.32-0.1525-0.32-0.33889zm-37.6-1.2793c-1.76-0.31272-6.008-0.79848-9.44-1.0795-12.586-1.0305-13.833-1.161-17.046-1.7837-6.906-1.3386-9.4917-2.5242-10.01-4.5899-0.51702-2.06 0.76892-3.7368 5.067-6.6071 2.5824-1.7246 3.0887-1.9475 4.0694-1.7915 0.616 0.09798 2.992 0.33182 5.28 0.51965 17.683 1.4516 21.084 1.9157 26.08 3.5589 3.8186 1.256 5.202 1.9478 6.0498 3.0256 0.90995 1.1568 0.87552 2.9232-0.08227 4.2214-1.0426 1.4132-5.6511 5.1942-6.2645 5.1396-0.27665-0.024634-1.943-0.30065-3.703-0.61337zm-60.373-12.302c-3.2682-3.168-5.9613-5.892-5.9847-6.0533-0.023411-0.16133 0.046475-0.20429 0.1553-0.095466 0.25866 0.25866 4.5892-1.9261 8.5114-4.2941 1.7101-1.0324 3.1861-1.8771 3.28-1.8771 0.09391 0 0.17074 0.35493 0.17074 0.78874 0 0.47183 0.26795 0.93214 0.66689 1.1456 0.36679 0.1963 2.9948 0.45336 5.84 0.57126l5.1731 0.21435 1.0169 5.6c0.55929 3.08 1.0633 6.104 1.12 6.72l0.1031 1.12h-6.6239c-3.9993 0-6.7448 0.1268-6.9289 0.32-0.16776 0.176-0.3619 0.608-0.43142 0.96-0.10194 0.51619-1.2759-0.4743-6.0685-5.12zm97.603 0.79145c-0.89021-0.51967-6.9327-1.8548-10.991-2.4284-2.8293-0.39995-5.8614-0.53372-11.52-0.50824-7.6185 0.034298-7.7031 0.027232-10.56-0.88372-1.584-0.50506-4.032-1.1822-5.44-1.5047l-2.56-0.58641-0.089667-4.2943c-0.04931-2.3619 0.02269-4.4067 0.16001-4.544 0.4562-0.4562 8.4913-1.553 14.112-1.9263 8.4551-0.56157 16.542 0.09748 24.778 2.0192l3.12 0.72803v7.1287c0 3.9208-0.108 7.1244-0.24 7.119-0.132-0.0053-0.47826-0.14882-0.76947-0.31882zm-74.945-2.7915c-0.086874-0.308-0.5548-2.9009-1.0398-5.7621-1.0372-6.1184-0.95528-6.514 1.8001-8.692 3.7475-2.9623 8.3597-5.5057 16.635-9.1733 10.368-4.5954 15.576-7.5191 20.423-11.465 1.4647-1.1924 2.7185-2.1126 2.7863-2.0448 0.36784 0.36784 2.0569 11.107 1.8774 11.937-0.28349 1.311-3.9664 4.8294-7.474 7.1402-3.2391 2.1339-9.6872 5.4072-17.43 8.8484-6.5071 2.8918-10.251 4.9357-14.102 7.6992-1.584 1.1365-2.9783 2.0677-3.0984 2.0693-0.12014 0.0016-0.28952-0.24908-0.37639-0.55708zm-13.165-13.54c-4.3372-0.3027-6.8746-0.69035-11.92-1.8211l-3.92-0.87854v-7.1545c0-6.6924 0.036174-7.1389 0.56-6.9134 1.3226 0.56953 6.1683 1.7624 9.3151 2.2931 5.2902 0.89219 22.103 0.80231 29.965-0.16017 6.921-0.84734 6.56-0.83987 6.56-0.13574 0 0.41681-1.2913 1.2016-4.808 2.9223-8.1819 4.0032-14.355 8.011-16.243 10.546-0.47612 0.63924-1.0105 1.268-1.1875 1.3973-0.38197 0.27904-3.4681 0.24386-8.3218-0.09488zm76.48-4.4605c-0.14884-0.67769-0.46239-1.0308-1.0654-1.2-0.46998-0.13183-5.13-0.2317-10.356-0.22192l-9.501 0.01779 1.0872-1.2034c2.4408-2.7016 2.8037-4.5041 1.9192-9.5303-0.26115-1.4839-0.39272-2.7799-0.29238-2.88 0.10034-0.10006 4.1617-0.19691 9.0252-0.21523l8.8428-0.0333 0.35287-0.86328 0.35287-0.86328 3.1772 2.9187c3.6892 3.389 8.8165 8.7018 8.6035 8.9148-0.0805 0.08048-0.14634 0.04902-0.14634-0.06992 0-0.30341-5.7059 2.6111-8.9311 4.5619-1.4801 0.89525-2.7286 1.6277-2.7746 1.6277-0.04592 0-0.17841-0.43213-0.29442-0.9603zm-33.76-17.472c-3.0145-0.55637-10.14-1.2895-16.8-1.7286-5.9942-0.39517-10.044-0.99146-14.196-2.0902-3.64-0.96332-4.9731-1.5694-5.6184-2.5543-0.4951-0.75562-2.5985-11.609-2.3064-11.901 0.08627-0.086268 1.8767 0.29044 3.9787 0.83712 4.8124 1.2516 8.769 1.8395 15.262 2.2675 11.373 0.74983 17.888 1.6745 22.803 3.2365 4.8881 1.5535 6.6374 2.6932 6.8223 4.4451 0.13552 1.2839-0.1097 1.9943-1.0652 3.0859-1.3117 1.4986-5.5965 4.9255-6.101 4.8794-0.20847-0.019041-1.459-0.23395-2.779-0.47758z" fill="#c72b81"/>
  <path d="m84.8 125.5c-5.7771-2.0197-11.072-2.881-22.88-3.7219-8.0306-0.57188-12.453-1.1784-16.784-2.3021-4.54-1.1778-6.0957-2.2762-6.0957-4.3042 0-1.669 1.9041-3.5716 6.5335-6.5279l1.8935-1.2092 4.8265 0.37859c2.6546 0.20823 6.6985 0.52019 8.9865 0.69324 9.035 0.68336 14.159 1.5224 18.69 3.0605 3.9238 1.3321 5.5563 2.284 6.0503 3.528 0.45962 1.1575 2.0508 10.221 1.9192 10.932-0.08738 0.47246-0.45737 0.41032-3.1391-0.52721zm-46.842-15.973c-0.37641-1.261-1.7975-9.8955-1.7975-10.922 0-1.6369 1.1733-2.9213 5.0159-5.4908 3.7408-2.5014 7.1169-4.2701 14.246-7.4633 10.477-4.6926 16.187-7.9106 20.485-11.544 1.3569-1.1471 2.5322-1.9804 2.6117-1.8517 0.32078 0.51904 1.8012 9.6682 1.8012 11.132 0 1.5325-0.05663 1.6248-2.3617 3.8491-1.2989 1.2534-3.4949 3.0255-4.88 3.938-2.9244 1.9267-10.626 5.8745-16.598 8.5078-7.6279 3.3636-11.937 5.7153-15.84 8.6458-2.4104 1.8096-2.4896 1.845-2.6825 1.1989zm-31.522-8.9646c-3.0216-2.948-5.4896-5.5272-5.4846-5.7315 0.00506-0.20431 1.3488-1.0872 2.986-1.962 1.6372-0.8748 4.1932-2.3251 5.68-3.2228 2.6634-1.6083 2.7047-1.621 2.8022-0.8614 0.19611 1.5272 0.61292 1.6103 8.6698 1.729 6.4845 0.09556 14.412-0.25608 17.782-0.78873l0.96946-0.15324-0.79189 0.57535c-2.2737 1.652-4.597 3.7936-5.3505 4.9322-1.0146 1.5332-1.2779 3.7607-0.76885 6.5064 0.19406 1.0468 0.24446 2.0115 0.11201 2.1438-0.47208 0.47171-11.362 0.93337-15.441 0.65463-4.2154-0.28805-5.12-0.12733-5.12 0.90964 0 0.34581-0.12395 0.62874-0.27544 0.62874s-2.7476-2.412-5.7692-5.36zm98.001 0.86877c-0.47944-0.47944-8.6897-2.4931-12.007-2.9449l-2.8293-0.38533v-12.979l1.68 0.0059c2.1155 0.0074 7.4161 0.75384 10.514 1.4806 1.3015 0.30535 2.5463 0.5215 2.7663 0.48033 0.31059-0.05813 0.4 1.5734 0.4 7.2992 0 4.0557-0.0432 7.374-0.096 7.374s-0.24505-0.14905-0.42723-0.33123zm-34.514-4.3662c6.5137-3.8179 11.026-7.3727 12.691-9.9986 0.92435-1.4576 1.2566-1.4763 0.42645-0.02403-0.34167 0.5977-0.46019 2.0745-0.46866 5.84-0.01126 5.001-0.0058 5.0404 0.70866 5.094 0.396 0.0297-1.368 0.15217-3.92 0.27214-2.552 0.11998-6.44 0.32508-8.64 0.4558l-4 0.23767zm-54.562-12.163c-2.8933-0.21841-8.5446-1.1125-11.04-1.7466-1.408-0.3578-2.92-0.68953-3.36-0.73719l-0.8-0.086637-0.086008-7.2445c-0.056531-4.7616 0.025724-7.2445 0.24-7.2445 0.1793 0 0.32601 0.12128 0.32601 0.26952 0 0.29321 4.0872 1.3403 8.16 2.0904 4.19 0.77175 11.352 1.253 16.23 1.0905 4.442-0.14796 4.6336-0.12686 6.8534 0.75481 2.8085 1.1155 7.9817 2.3935 11.716 2.8944l2.8 0.37558v7.1615l-1.84 0.34921c-9.2186 1.7496-21.726 2.6377-29.2 2.0735zm77.061-4.8195c-0.08606-0.74794-0.30535-0.92524-1.4613-1.1815l-1.36-0.30146v-12.96l1.36-0.0984c1.1306-0.0818 1.3773-0.21987 1.4623-0.8184 0.05624-0.396 0.18427-0.72 0.28451-0.72 0.62081 0 11.293 10.135 11.293 10.725 0 0.22817-0.972 0.86884-2.16 1.4237s-3.6969 1.8645-5.5754 2.9102c-1.8785 1.0457-3.4889 1.9013-3.5787 1.9013-0.08984 0-0.20891-0.396-0.2646-0.88zm-29.701-2.7653c0-0.38018 0.30942-0.51469 1.184-0.51469 1.3116 0 1.1412 0.45512-0.304 0.81205-0.68533 0.16925-0.88 0.10348-0.88-0.29736zm20.222-0.35469c0.0065-0.528 0.07824-0.70526 0.15937-0.39391 0.08113 0.31135 0.0758 0.74335-0.01187 0.96-0.08766 0.21665-0.15404-0.03809-0.14752-0.56609zm-1.1316-6.16c-0.47576-2.772-0.86182-5.22-0.85791-5.44 0.0048-0.26911 0.50448-0.38574 1.5271-0.35642 0.836 0.02397 1.1794 0.10816 0.76308 0.18709l-0.75692 0.14352 0.12681 5.2529c0.06974 2.8891 0.11242 5.2529 0.09483 5.2529-0.0176 0-0.42124-2.268-0.897-5.04zm22.509 4.0611c0-0.18639 0.144-0.24989 0.32-0.14111s0.32 0.26127 0.32 0.33889c0 0.07761-0.144 0.14111-0.32 0.14111s-0.32-0.1525-0.32-0.33889zm-37.6-1.2793c-1.76-0.31272-6.008-0.79848-9.44-1.0795-12.586-1.0305-13.833-1.161-17.046-1.7837-6.906-1.3386-9.4917-2.5242-10.01-4.5899-0.51702-2.06 0.76892-3.7368 5.067-6.6071 2.5824-1.7246 3.0887-1.9475 4.0694-1.7915 0.616 0.09798 2.992 0.33182 5.28 0.51965 17.683 1.4516 21.084 1.9157 26.08 3.5589 3.8186 1.256 5.202 1.9478 6.0498 3.0256 0.90995 1.1568 0.87552 2.9232-0.08227 4.2214-1.0426 1.4132-5.6511 5.1942-6.2645 5.1396-0.27665-0.024634-1.943-0.30065-3.703-0.61337zm-60.373-12.302c-3.2682-3.168-5.9613-5.892-5.9847-6.0533-0.023411-0.16133 0.046475-0.20429 0.1553-0.095466 0.25866 0.25866 4.5892-1.9261 8.5114-4.2941 1.7101-1.0324 3.1861-1.8771 3.28-1.8771 0.09391 0 0.17074 0.35493 0.17074 0.78874 0 0.47183 0.26795 0.93214 0.66689 1.1456 0.36679 0.1963 2.9948 0.45336 5.84 0.57126l5.1731 0.21435 1.0169 5.6c0.55929 3.08 1.0633 6.104 1.12 6.72l0.1031 1.12h-6.6239c-3.9993 0-6.7448 0.1268-6.9289 0.32-0.16776 0.176-0.3619 0.608-0.43142 0.96-0.10194 0.51619-1.2759-0.4743-6.0685-5.12zm95.893 0.26388c-1.9298-0.66068-7.4848-1.8759-11.44-2.5027l-1.2-0.19016v-13.109l2.16 0.1892c3.5345 0.3096 6.4446 0.751 9.92 1.5046l3.28 0.71126v7.1264c0 3.9195-0.108 7.1063-0.24 7.0818-0.132-0.02454-1.248-0.38972-2.48-0.8115zm-73.235-2.2639c-0.086874-0.308-0.5548-2.9009-1.0398-5.7621-1.0372-6.1184-0.95528-6.514 1.8001-8.692 3.7475-2.9623 8.3597-5.5057 16.635-9.1733 10.368-4.5954 15.576-7.5191 20.423-11.465 1.4647-1.1924 2.7185-2.1126 2.7863-2.0448 0.36784 0.36784 2.0569 11.107 1.8774 11.937-0.28349 1.311-3.9664 4.8294-7.474 7.1402-3.2391 2.1339-9.6872 5.4072-17.43 8.8484-6.5071 2.8918-10.251 4.9357-14.102 7.6992-1.584 1.1365-2.9783 2.0677-3.0984 2.0693-0.12014 0.0016-0.28952-0.24908-0.37639-0.55708zm41.715-1.039c-1.496-0.49965-3.872-1.1723-5.28-1.4947l-2.56-0.58628-0.089667-4.2943c-0.04931-2.3619 0.02282-4.4068 0.16029-4.5443 0.40123-0.40123 8.2609-1.5275 13.089-1.8756 4.3671-0.31487 8.6636-0.37333 7.2283-0.09835l-0.73222 0.14028 0.09222 6.6592 0.09222 6.6592-1.8869 0.19691c-4.1135 0.42927-7.2549 0.19255-10.113-0.76206zm-54.88-12.501c-4.3372-0.3027-6.8746-0.69035-11.92-1.8211l-3.92-0.87854v-7.1545c0-6.6924 0.036174-7.1389 0.56-6.9134 1.3226 0.56953 6.1683 1.7624 9.3151 2.2931 5.2902 0.89219 22.103 0.80231 29.965-0.16017 6.921-0.84734 6.56-0.83987 6.56-0.13574 0 0.41681-1.2913 1.2016-4.808 2.9223-8.1819 4.0032-14.355 8.011-16.243 10.546-0.47612 0.63924-1.0105 1.268-1.1875 1.3973-0.38197 0.27904-3.4681 0.24386-8.3218-0.09488zm76.64-4.7193c0-1.0359-0.44273-1.3409-1.9462-1.3409h-0.93383v-13.083l1.36-0.0984c1.1306-0.0818 1.3773-0.21986 1.4623-0.8184 0.05624-0.396 0.22172-0.72 0.36773-0.72 0.62287 0 11.996 10.84 11.692 11.144-0.0893 0.08934-0.16244 0.06826-0.16244-0.04685 0-0.34594-3.4038 1.268-7.4923 3.5525-2.1164 1.1826-3.9604 2.1981-4.0978 2.2568-0.13743 0.058664-0.24988-0.32193-0.24988-0.84577zm-20.094-2.2349c2.5489-2.8305 2.912-4.5653 2.0182-9.6441-0.26115-1.4839-0.39312-2.7799-0.29327-2.88 0.09985-0.10006 2.0777-0.23132 4.3953-0.2917l4.2137-0.10978-0.09222 6.7259-0.09222 6.7259 0.73222 0.14028c0.40272 0.07716-0.57738 0.15989-2.178 0.18386-1.6006 0.02397-4.4806 0.1388-6.4 0.25518l-3.4898 0.2116zm-13.826-14.978c-3.0145-0.55637-10.14-1.2895-16.8-1.7286-5.9942-0.39517-10.044-0.99146-14.196-2.0902-3.64-0.96332-4.9731-1.5694-5.6184-2.5543-0.4951-0.75562-2.5985-11.609-2.3064-11.901 0.08627-0.086268 1.8767 0.29044 3.9787 0.83712 4.8124 1.2516 8.769 1.8395 15.262 2.2675 11.373 0.74983 17.888 1.6745 22.803 3.2365 4.8881 1.5535 6.6374 2.6932 6.8223 4.4451 0.13552 1.2839-0.1097 1.9943-1.0652 3.0859-1.3117 1.4986-5.5965 4.9255-6.101 4.8794-0.20847-0.019041-1.459-0.23395-2.779-0.47758z" fill="#d71a7b"/>
  <path d="m84.8 125.5c-5.7771-2.0197-11.072-2.881-22.88-3.7219-8.0306-0.57188-12.453-1.1784-16.784-2.3021-4.54-1.1778-6.0957-2.2762-6.0957-4.3042 0-1.669 1.9041-3.5716 6.5335-6.5279l1.8935-1.2092 4.8265 0.37859c2.6546 0.20823 6.6985 0.52019 8.9865 0.69324 9.035 0.68336 14.159 1.5224 18.69 3.0605 3.9238 1.3321 5.5563 2.284 6.0503 3.528 0.45962 1.1575 2.0508 10.221 1.9192 10.932-0.08738 0.47246-0.45737 0.41032-3.1391-0.52721zm-46.842-15.973c-0.37641-1.261-1.7975-9.8955-1.7975-10.922 0-1.6369 1.1733-2.9213 5.0159-5.4908 3.7408-2.5014 7.1169-4.2701 14.246-7.4633 10.477-4.6926 16.187-7.9106 20.485-11.544 1.3569-1.1471 2.5322-1.9804 2.6117-1.8517 0.32078 0.51904 1.8012 9.6682 1.8012 11.132 0 1.5325-0.05663 1.6248-2.3617 3.8491-1.2989 1.2534-3.4949 3.0255-4.88 3.938-2.9244 1.9267-10.626 5.8745-16.598 8.5078-7.6279 3.3636-11.937 5.7153-15.84 8.6458-2.4104 1.8096-2.4896 1.845-2.6825 1.1989zm-31.522-8.9646c-3.0216-2.948-5.4896-5.5272-5.4846-5.7315 0.00506-0.20431 1.3488-1.0872 2.986-1.962 1.6372-0.8748 4.1932-2.3251 5.68-3.2228 2.6634-1.6083 2.7047-1.621 2.8022-0.8614 0.19611 1.5272 0.61292 1.6103 8.6698 1.729 6.4845 0.09556 14.412-0.25608 17.782-0.78873l0.96946-0.15324-0.79189 0.57535c-2.2737 1.652-4.597 3.7936-5.3505 4.9322-1.0146 1.5332-1.2779 3.7607-0.76885 6.5064 0.19406 1.0468 0.24446 2.0115 0.11201 2.1438-0.47208 0.47171-11.362 0.93337-15.441 0.65463-4.2154-0.28805-5.12-0.12733-5.12 0.90964 0 0.34581-0.12395 0.62874-0.27544 0.62874s-2.7476-2.412-5.7692-5.36zm97.873 0.75797c-0.25771-0.24312-1.4406-0.75886-2.6286-1.1461l-2.16-0.70406v-12.837l1.84 0.24277c1.012 0.13353 2.236 0.24634 2.72 0.2507l0.88 0.0079v7.3141c0 4.0227-0.0411 7.3141-0.0914 7.3141s-0.30229-0.19891-0.56-0.44203zm-34.386-4.2554c6.5137-3.8179 11.026-7.3727 12.691-9.9986 0.92435-1.4576 1.2566-1.4763 0.42645-0.02403-0.34167 0.5977-0.46019 2.0745-0.46866 5.84-0.01126 5.001-0.0058 5.0404 0.70866 5.094 0.396 0.0297-1.368 0.15217-3.92 0.27214-2.552 0.11998-6.44 0.32508-8.64 0.4558l-4 0.23767zm21.998 1.3911-2.32-0.32262v-13.011h1.8938c3.117 0 2.9062-0.49972 2.9062 6.8876 0 4.8999 0.09843 6.5388 0.4 6.6605 0.54821 0.22121-0.08875 0.1738-2.88-0.21434zm3.7-12.912c0.231-0.09244 0.507-0.08107 0.61333 0.02525 0.10633 0.10633-0.08267 0.18196-0.42 0.16807-0.37278-0.015362-0.44861-0.091183-0.19333-0.19333zm-80.26-0.64192c-2.8933-0.21841-8.5446-1.1125-11.04-1.7466-1.408-0.3578-2.92-0.68953-3.36-0.73719l-0.8-0.086637-0.086008-7.2445c-0.056531-4.7616 0.025724-7.2445 0.24-7.2445 0.1793 0 0.32601 0.12128 0.32601 0.26952 0 0.29321 4.0872 1.3403 8.16 2.0904 4.19 0.77175 11.352 1.253 16.23 1.0905 4.442-0.14796 4.6336-0.12686 6.8534 0.75481 2.8085 1.1155 7.9817 2.3935 11.716 2.8944l2.8 0.37558v7.1615l-1.84 0.34921c-9.2186 1.7496-21.726 2.6377-29.2 2.0735zm77.061-4.8195c-0.08606-0.74794-0.30535-0.92524-1.4613-1.1815l-1.36-0.30146v-12.96l1.36-0.0984c1.1306-0.0818 1.3773-0.21987 1.4623-0.8184 0.05624-0.396 0.20024-0.71651 0.32-0.71224 0.11976 0.0043 1.0185 0.76027 1.9973 1.68 0.97875 0.91973 1.4827 1.4417 1.12 1.1598-1.5386-1.1953-1.484-1.4271-1.4472 6.1428l0.0346 7.1219-0.74347 0.41248c-1.0525 0.58394-1.1685 0.5437-1.2822-0.44484zm-29.701-2.7653c0-0.38018 0.30942-0.51469 1.184-0.51469 1.3116 0 1.1412 0.45512-0.304 0.81205-0.68533 0.16925-0.88 0.10348-0.88-0.29736zm20.222-0.35469c0.0065-0.528 0.07824-0.70526 0.15937-0.39391 0.08113 0.31135 0.0758 0.74335-0.01187 0.96-0.08766 0.21665-0.15404-0.03809-0.14752-0.56609zm16.578-3.2c0-1.5504 0.13394-2.72 0.31148-2.72 0.17132 0 1.2153 0.85222 2.32 1.8938l2.0085 1.8938-1.76 0.82306c-2.82 1.3188-2.88 1.2794-2.88-1.8907zm-17.709-2.96c-0.47576-2.772-0.86182-5.22-0.85791-5.44 0.0048-0.26911 0.50448-0.38574 1.5271-0.35642 0.836 0.02397 1.1794 0.10816 0.76308 0.18709l-0.75692 0.14352 0.12681 5.2529c0.06974 2.8891 0.11242 5.2529 0.09483 5.2529-0.0176 0-0.42124-2.268-0.897-5.04zm-15.091 2.7818c-1.76-0.31272-6.008-0.79848-9.44-1.0795-12.586-1.0305-13.833-1.161-17.046-1.7837-6.906-1.3386-9.4917-2.5242-10.01-4.5899-0.51702-2.06 0.76892-3.7368 5.067-6.6071 2.5824-1.7246 3.0887-1.9475 4.0694-1.7915 0.616 0.09798 2.992 0.33182 5.28 0.51965 17.683 1.4516 21.084 1.9157 26.08 3.5589 3.8186 1.256 5.202 1.9478 6.0498 3.0256 0.90995 1.1568 0.87552 2.9232-0.08227 4.2214-1.0426 1.4132-5.6511 5.1942-6.2645 5.1396-0.27665-0.024634-1.943-0.30065-3.703-0.61337zm-60.373-12.302c-3.2682-3.168-5.9613-5.892-5.9847-6.0533-0.023411-0.16133 0.046475-0.20429 0.1553-0.095466 0.25866 0.25866 4.5892-1.9261 8.5114-4.2941 1.7101-1.0324 3.1861-1.8771 3.28-1.8771 0.09391 0 0.17074 0.35493 0.17074 0.78874 0 0.47183 0.26795 0.93214 0.66689 1.1456 0.36679 0.1963 2.9948 0.45336 5.84 0.57126l5.1731 0.21435 1.0169 5.6c0.55929 3.08 1.0633 6.104 1.12 6.72l0.1031 1.12h-6.6239c-3.9993 0-6.7448 0.1268-6.9289 0.32-0.16776 0.176-0.3619 0.608-0.43142 0.96-0.10194 0.51619-1.2759-0.4743-6.0685-5.12zm97.919 0.8592c-0.05867-0.14344-1.1147-0.61144-2.3467-1.04l-2.24-0.7792-0.086627-6.48c-0.06785-5.0756 0.0016-6.4783 0.32-6.4722 0.22365 0.0043 1.0546 0.15806 1.8466 0.34168s1.836 0.34602 2.32 0.36087l0.88 0.02701v7.1513c0 4.1208-0.12431 7.1513-0.29333 7.1513-0.16134 0-0.34134-0.11736-0.4-0.2608zm-75.261-2.8592c-0.086874-0.308-0.5548-2.9009-1.0398-5.7621-1.0372-6.1184-0.95528-6.514 1.8001-8.692 3.7475-2.9623 8.3597-5.5057 16.635-9.1733 10.368-4.5954 15.576-7.5191 20.423-11.465 1.4647-1.1924 2.7185-2.1126 2.7863-2.0448 0.36784 0.36784 2.0569 11.107 1.8774 11.937-0.28349 1.311-3.9664 4.8294-7.474 7.1402-3.2391 2.1339-9.6872 5.4072-17.43 8.8484-6.5071 2.8918-10.251 4.9357-14.102 7.6992-1.584 1.1365-2.9783 2.0677-3.0984 2.0693-0.12014 0.0016-0.28952-0.24908-0.37639-0.55708zm63.475 0.064189c-0.264-0.055866-1.02-0.18969-1.68-0.29738l-1.2-0.19581v-13.175l1.2 0.19835c0.66 0.10909 1.92 0.2113 2.8 0.22713 0.88 0.01584 1.42 0.10142 1.2 0.19019-0.30167 0.12172-0.4 1.7675-0.4 6.6947v6.5333l-0.72-0.03712c-0.396-0.02042-0.936-0.08283-1.2-0.13869zm-21.76-1.1032c-1.496-0.49965-3.872-1.1723-5.28-1.4947l-2.56-0.58628-0.089667-4.2943c-0.04931-2.3619 0.02282-4.4068 0.16029-4.5443 0.40123-0.40123 8.2609-1.5275 13.089-1.8756 4.3671-0.31487 8.6636-0.37333 7.2283-0.09835l-0.73222 0.14028 0.09222 6.6592 0.09222 6.6592-1.8869 0.19691c-4.1135 0.42927-7.2549 0.19255-10.113-0.76206zm-54.88-12.501c-4.3372-0.3027-6.8746-0.69035-11.92-1.8211l-3.92-0.87854v-7.1545c0-6.6924 0.036174-7.1389 0.56-6.9134 1.3226 0.56953 6.1683 1.7624 9.3151 2.2931 5.2902 0.89219 22.103 0.80231 29.965-0.16017 6.921-0.84734 6.56-0.83987 6.56-0.13574 0 0.41681-1.2913 1.2016-4.808 2.9223-8.1819 4.0032-14.355 8.011-16.243 10.546-0.47612 0.63924-1.0105 1.268-1.1875 1.3973-0.38197 0.27904-3.4681 0.24386-8.3218-0.09488zm76.64-4.746c0-1.0073-0.45446-1.3142-1.9462-1.3142h-0.93383v-13.083l1.36-0.0984c1.1306-0.0818 1.3773-0.21986 1.4623-0.8184 0.13962-0.98308 0.41277-0.91314 1.8746 0.48 0.69254 0.66 1.1143 1.092 0.93716 0.96s-0.43721-0.24-0.57801-0.24-0.256 3.0408-0.256 6.7573c0 6.5998 0.01491 6.7534 0.64 6.59 0.352-0.09205 0.64-0.12116 0.64-0.06468 0 0.11167-2.8846 1.7574-3.0803 1.7574-0.065834 0-0.1197-0.4166-0.1197-0.92576zm-20.094-2.2082c2.5489-2.8305 2.912-4.5653 2.0182-9.6441-0.26115-1.4839-0.39312-2.7799-0.29327-2.88 0.09985-0.10006 2.0777-0.23132 4.3953-0.2917l4.2137-0.10978-0.09222 6.7259-0.09222 6.7259 0.73222 0.14028c0.40272 0.07716-0.57738 0.15989-2.178 0.18386-1.6006 0.02397-4.4806 0.1388-6.4 0.25518l-3.4898 0.2116zm27.134-4.2026c0-3.4228 0.0247-3.4277 2.8378-0.55871l1.7178 1.7519-1.54 0.68119c-3.1363 1.3873-3.0156 1.4624-3.0156-1.8744zm-40.96-10.776c-3.0145-0.55637-10.14-1.2895-16.8-1.7286-5.9942-0.39517-10.044-0.99146-14.196-2.0902-3.64-0.96332-4.9731-1.5694-5.6184-2.5543-0.4951-0.75562-2.5985-11.609-2.3064-11.901 0.08627-0.086268 1.8767 0.29044 3.9787 0.83712 4.8124 1.2516 8.769 1.8395 15.262 2.2675 11.373 0.74983 17.888 1.6745 22.803 3.2365 4.8881 1.5535 6.6374 2.6932 6.8223 4.4451 0.13552 1.2839-0.1097 1.9943-1.0652 3.0859-1.3117 1.4986-5.5965 4.9255-6.101 4.8794-0.20847-0.019041-1.459-0.23395-2.779-0.47758z" fill="#cc227e"/>
  <path d="m84.8 125.5c-5.7771-2.0197-11.072-2.881-22.88-3.7219-8.0306-0.57188-12.453-1.1784-16.784-2.3021-4.54-1.1778-6.0957-2.2762-6.0957-4.3042 0-1.669 1.9041-3.5716 6.5335-6.5279l1.8935-1.2092 4.8265 0.37859c2.6546 0.20823 6.6985 0.52019 8.9865 0.69324 9.035 0.68336 14.159 1.5224 18.69 3.0605 3.9238 1.3321 5.5563 2.284 6.0503 3.528 0.45962 1.1575 2.0508 10.221 1.9192 10.932-0.08738 0.47246-0.45737 0.41032-3.1391-0.52721zm-46.842-15.973c-0.37641-1.261-1.7975-9.8955-1.7975-10.922 0-1.6369 1.1733-2.9213 5.0159-5.4908 3.7408-2.5014 7.1169-4.2701 14.246-7.4633 10.477-4.6926 16.187-7.9106 20.485-11.544 1.3569-1.1471 2.5322-1.9804 2.6117-1.8517 0.32078 0.51904 1.8012 9.6682 1.8012 11.132 0 1.5325-0.05663 1.6248-2.3617 3.8491-1.2989 1.2534-3.4949 3.0255-4.88 3.938-2.9244 1.9267-10.626 5.8745-16.598 8.5078-7.6279 3.3636-11.937 5.7153-15.84 8.6458-2.4104 1.8096-2.4896 1.845-2.6825 1.1989zm-31.522-8.9646c-3.0216-2.948-5.4896-5.5272-5.4846-5.7315 0.00506-0.20431 1.3488-1.0872 2.986-1.962 1.6372-0.8748 4.1932-2.3251 5.68-3.2228 2.6634-1.6083 2.7047-1.621 2.8022-0.8614 0.19611 1.5272 0.61292 1.6103 8.6698 1.729 6.4845 0.09556 14.412-0.25608 17.782-0.78873l0.96946-0.15324-0.79189 0.57535c-2.2737 1.652-4.597 3.7936-5.3505 4.9322-1.0146 1.5332-1.2779 3.7607-0.76885 6.5064 0.19406 1.0468 0.24446 2.0115 0.11201 2.1438-0.47208 0.47171-11.362 0.93337-15.441 0.65463-4.2154-0.28805-5.12-0.12733-5.12 0.90964 0 0.34581-0.12395 0.62874-0.27544 0.62874s-2.7476-2.412-5.7692-5.36zm97.873 0.75797c-0.25771-0.24312-1.4406-0.75886-2.6286-1.1461l-2.16-0.70406v-12.837l1.84 0.24277c1.012 0.13353 2.236 0.24634 2.72 0.2507l0.88 0.0079v7.3141c0 4.0227-0.0411 7.3141-0.0914 7.3141s-0.30229-0.19891-0.56-0.44203zm-34.386-4.2554c6.5137-3.8179 11.026-7.3727 12.691-9.9986 0.92435-1.4576 1.2566-1.4763 0.42645-0.02403-0.34167 0.5977-0.46019 2.0745-0.46866 5.84-0.01126 5.001-0.0058 5.0404 0.70866 5.094 0.396 0.0297-1.368 0.15217-3.92 0.27214-2.552 0.11998-6.44 0.32508-8.64 0.4558l-4 0.23767zm-54.562-12.163c-2.8933-0.21841-8.5446-1.1125-11.04-1.7466-1.408-0.3578-2.92-0.68953-3.36-0.73719l-0.8-0.086637-0.086008-7.2445c-0.056531-4.7616 0.025724-7.2445 0.24-7.2445 0.1793 0 0.32601 0.12128 0.32601 0.26952 0 0.29321 4.0872 1.3403 8.16 2.0904 4.19 0.77175 11.352 1.253 16.23 1.0905 4.442-0.14796 4.6336-0.12686 6.8534 0.75481 2.8085 1.1155 7.9817 2.3935 11.716 2.8944l2.8 0.37558v7.1615l-1.84 0.34921c-9.2186 1.7496-21.726 2.6377-29.2 2.0735zm47.36-7.5848c0-0.38018 0.30942-0.51469 1.184-0.51469 1.3116 0 1.1412 0.45512-0.304 0.81205-0.68533 0.16925-0.88 0.10348-0.88-0.29736zm20.222-0.35469c0.0065-0.528 0.07824-0.70526 0.15937-0.39391 0.08113 0.31135 0.0758 0.74335-0.01187 0.96-0.08766 0.21665-0.15404-0.03809-0.14752-0.56609zm16.578-3.2c0-1.5504 0.13394-2.72 0.31148-2.72 0.17132 0 1.2153 0.85222 2.32 1.8938l2.0085 1.8938-1.76 0.82306c-2.82 1.3188-2.88 1.2794-2.88-1.8907zm-17.709-2.96c-0.47576-2.772-0.86182-5.22-0.85791-5.44 0.0048-0.26911 0.50448-0.38574 1.5271-0.35642 0.836 0.02397 1.1794 0.10816 0.76308 0.18709l-0.75692 0.14352 0.12681 5.2529c0.06974 2.8891 0.11242 5.2529 0.09483 5.2529-0.0176 0-0.42124-2.268-0.897-5.04zm-15.091 2.7818c-1.76-0.31272-6.008-0.79848-9.44-1.0795-12.586-1.0305-13.833-1.161-17.046-1.7837-6.906-1.3386-9.4917-2.5242-10.01-4.5899-0.51702-2.06 0.76892-3.7368 5.067-6.6071 2.5824-1.7246 3.0887-1.9475 4.0694-1.7915 0.616 0.09798 2.992 0.33182 5.28 0.51965 17.683 1.4516 21.084 1.9157 26.08 3.5589 3.8186 1.256 5.202 1.9478 6.0498 3.0256 0.90995 1.1568 0.87552 2.9232-0.08227 4.2214-1.0426 1.4132-5.6511 5.1942-6.2645 5.1396-0.27665-0.024634-1.943-0.30065-3.703-0.61337zm-60.373-12.302c-3.2682-3.168-5.9613-5.892-5.9847-6.0533-0.023411-0.16133 0.046475-0.20429 0.1553-0.095466 0.25866 0.25866 4.5892-1.9261 8.5114-4.2941 1.7101-1.0324 3.1861-1.8771 3.28-1.8771 0.09391 0 0.17074 0.35493 0.17074 0.78874 0 0.47183 0.26795 0.93214 0.66689 1.1456 0.36679 0.1963 2.9948 0.45336 5.84 0.57126l5.1731 0.21435 1.0169 5.6c0.55929 3.08 1.0633 6.104 1.12 6.72l0.1031 1.12h-6.6239c-3.9993 0-6.7448 0.1268-6.9289 0.32-0.16776 0.176-0.3619 0.608-0.43142 0.96-0.10194 0.51619-1.2759-0.4743-6.0685-5.12zm97.919 0.8592c-0.05867-0.14344-1.1147-0.61144-2.3467-1.04l-2.24-0.7792-0.086627-6.48c-0.06785-5.0756 0.0016-6.4783 0.32-6.4722 0.22365 0.0043 1.0546 0.15806 1.8466 0.34168s1.836 0.34602 2.32 0.36087l0.88 0.02701v7.1513c0 4.1208-0.12431 7.1513-0.29333 7.1513-0.16134 0-0.34134-0.11736-0.4-0.2608zm-75.261-2.8592c-0.086874-0.308-0.5548-2.9009-1.0398-5.7621-1.0372-6.1184-0.95528-6.514 1.8001-8.692 3.7475-2.9623 8.3597-5.5057 16.635-9.1733 10.368-4.5954 15.576-7.5191 20.423-11.465 1.4647-1.1924 2.7185-2.1126 2.7863-2.0448 0.36784 0.36784 2.0569 11.107 1.8774 11.937-0.28349 1.311-3.9664 4.8294-7.474 7.1402-3.2391 2.1339-9.6872 5.4072-17.43 8.8484-6.5071 2.8918-10.251 4.9357-14.102 7.6992-1.584 1.1365-2.9783 2.0677-3.0984 2.0693-0.12014 0.0016-0.28952-0.24908-0.37639-0.55708zm41.715-1.039c-1.496-0.49965-3.872-1.1723-5.28-1.4947l-2.56-0.58628-0.089667-4.2943c-0.04931-2.3619 0.02282-4.4068 0.16029-4.5443 0.40123-0.40123 8.2609-1.5275 13.089-1.8756 4.3671-0.31487 8.6636-0.37333 7.2283-0.09835l-0.73222 0.14028 0.09222 6.6592 0.09222 6.6592-1.8869 0.19691c-4.1135 0.42927-7.2549 0.19255-10.113-0.76206zm-54.88-12.501c-4.3372-0.3027-6.8746-0.69035-11.92-1.8211l-3.92-0.87854v-7.1545c0-6.6924 0.036174-7.1389 0.56-6.9134 1.3226 0.56953 6.1683 1.7624 9.3151 2.2931 5.2902 0.89219 22.103 0.80231 29.965-0.16017 6.921-0.84734 6.56-0.83987 6.56-0.13574 0 0.41681-1.2913 1.2016-4.808 2.9223-8.1819 4.0032-14.355 8.011-16.243 10.546-0.47612 0.63924-1.0105 1.268-1.1875 1.3973-0.38197 0.27904-3.4681 0.24386-8.3218-0.09488zm56.546-6.9542c2.5489-2.8305 2.912-4.5653 2.0182-9.6441-0.26115-1.4839-0.39312-2.7799-0.29327-2.88 0.09985-0.10006 2.0777-0.23132 4.3953-0.2917l4.2137-0.10978-0.09222 6.7259-0.09222 6.7259 0.73222 0.14028c0.40272 0.07716-0.57738 0.15989-2.178 0.18386-1.6006 0.02397-4.4806 0.1388-6.4 0.25518l-3.4898 0.2116zm27.134-4.2026c0-3.4228 0.0247-3.4277 2.8378-0.55871l1.7178 1.7519-1.54 0.68119c-3.1363 1.3873-3.0156 1.4624-3.0156-1.8744zm-40.96-10.776c-3.0145-0.55637-10.14-1.2895-16.8-1.7286-5.9942-0.39517-10.044-0.99146-14.196-2.0902-3.64-0.96332-4.9731-1.5694-5.6184-2.5543-0.4951-0.75562-2.5985-11.609-2.3064-11.901 0.08627-0.086268 1.8767 0.29044 3.9787 0.83712 4.8124 1.2516 8.769 1.8395 15.262 2.2675 11.373 0.74983 17.888 1.6745 22.803 3.2365 4.8881 1.5535 6.6374 2.6932 6.8223 4.4451 0.13552 1.2839-0.1097 1.9943-1.0652 3.0859-1.3117 1.4986-5.5965 4.9255-6.101 4.8794-0.20847-0.019041-1.459-0.23395-2.779-0.47758z" fill="#e50c79"/>
  <path d="m84.8 125.5c-5.7771-2.0197-11.072-2.881-22.88-3.7219-8.0306-0.57188-12.453-1.1784-16.784-2.3021-4.54-1.1778-6.0957-2.2762-6.0957-4.3042 0-1.669 1.9041-3.5716 6.5335-6.5279l1.8935-1.2092 4.8265 0.37859c2.6546 0.20823 6.6985 0.52019 8.9865 0.69324 9.035 0.68336 14.159 1.5224 18.69 3.0605 3.9238 1.3321 5.5563 2.284 6.0503 3.528 0.45962 1.1575 2.0508 10.221 1.9192 10.932-0.08738 0.47246-0.45737 0.41032-3.1391-0.52721zm-46.842-15.973c-0.37641-1.261-1.7975-9.8955-1.7975-10.922 0-1.6369 1.1733-2.9213 5.0159-5.4908 3.7408-2.5014 7.1169-4.2701 14.246-7.4633 10.477-4.6926 16.187-7.9106 20.485-11.544 1.3569-1.1471 2.5322-1.9804 2.6117-1.8517 0.32078 0.51904 1.8012 9.6682 1.8012 11.132 0 1.5325-0.05663 1.6248-2.3617 3.8491-1.2989 1.2534-3.4949 3.0255-4.88 3.938-2.9244 1.9267-10.626 5.8745-16.598 8.5078-7.6279 3.3636-11.937 5.7153-15.84 8.6458-2.4104 1.8096-2.4896 1.845-2.6825 1.1989zm-31.522-8.9646c-3.0216-2.948-5.4896-5.5272-5.4846-5.7315 0.00506-0.20431 1.3488-1.0872 2.986-1.962 1.6372-0.8748 4.1932-2.3251 5.68-3.2228 2.6634-1.6083 2.7047-1.621 2.8022-0.8614 0.19611 1.5272 0.61292 1.6103 8.6698 1.729 6.4845 0.09556 14.412-0.25608 17.782-0.78873l0.96946-0.15324-0.79189 0.57535c-2.2737 1.652-4.597 3.7936-5.3505 4.9322-1.0146 1.5332-1.2779 3.7607-0.76885 6.5064 0.19406 1.0468 0.24446 2.0115 0.11201 2.1438-0.47208 0.47171-11.362 0.93337-15.441 0.65463-4.2154-0.28805-5.12-0.12733-5.12 0.90964 0 0.34581-0.12395 0.62874-0.27544 0.62874s-2.7476-2.412-5.7692-5.36zm63.487-3.4974c6.5137-3.8179 11.026-7.3727 12.691-9.9986 0.92435-1.4576 1.2566-1.4763 0.42645-0.02403-0.34167 0.5977-0.46019 2.0745-0.46866 5.84-0.01126 5.001-0.0058 5.0404 0.70866 5.094 0.396 0.0297-1.368 0.15217-3.92 0.27214-2.552 0.11998-6.44 0.32508-8.64 0.4558l-4 0.23767zm-54.562-12.163c-2.8933-0.21841-8.5446-1.1125-11.04-1.7466-1.408-0.3578-2.92-0.68953-3.36-0.73719l-0.8-0.086637-0.086008-7.2445c-0.056531-4.7616 0.025724-7.2445 0.24-7.2445 0.1793 0 0.32601 0.12128 0.32601 0.26952 0 0.29321 4.0872 1.3403 8.16 2.0904 4.19 0.77175 11.352 1.253 16.23 1.0905 4.442-0.14796 4.6336-0.12686 6.8534 0.75481 2.8085 1.1155 7.9817 2.3935 11.716 2.8944l2.8 0.37558v7.1615l-1.84 0.34921c-9.2186 1.7496-21.726 2.6377-29.2 2.0735zm47.36-7.5848c0-0.38018 0.30942-0.51469 1.184-0.51469 1.3116 0 1.1412 0.45512-0.304 0.81205-0.68533 0.16925-0.88 0.10348-0.88-0.29736zm20.222-0.35469c0.0065-0.528 0.07824-0.70526 0.15937-0.39391 0.08113 0.31135 0.0758 0.74335-0.01187 0.96-0.08766 0.21665-0.15404-0.03809-0.14752-0.56609zm-1.1316-6.16c-0.47576-2.772-0.86182-5.22-0.85791-5.44 0.0048-0.26911 0.50448-0.38574 1.5271-0.35642 0.836 0.02397 1.1794 0.10816 0.76308 0.18709l-0.75692 0.14352 0.12681 5.2529c0.06974 2.8891 0.11242 5.2529 0.09483 5.2529-0.0176 0-0.42124-2.268-0.897-5.04zm-15.091 2.7818c-1.76-0.31272-6.008-0.79848-9.44-1.0795-12.586-1.0305-13.833-1.161-17.046-1.7837-6.906-1.3386-9.4917-2.5242-10.01-4.5899-0.51702-2.06 0.76892-3.7368 5.067-6.6071 2.5824-1.7246 3.0887-1.9475 4.0694-1.7915 0.616 0.09798 2.992 0.33182 5.28 0.51965 17.683 1.4516 21.084 1.9157 26.08 3.5589 3.8186 1.256 5.202 1.9478 6.0498 3.0256 0.90995 1.1568 0.87552 2.9232-0.08227 4.2214-1.0426 1.4132-5.6511 5.1942-6.2645 5.1396-0.27665-0.024634-1.943-0.30065-3.703-0.61337zm-60.373-12.302c-3.2682-3.168-5.9613-5.892-5.9847-6.0533-0.023411-0.16133 0.046475-0.20429 0.1553-0.095466 0.25866 0.25866 4.5892-1.9261 8.5114-4.2941 1.7101-1.0324 3.1861-1.8771 3.28-1.8771 0.09391 0 0.17074 0.35493 0.17074 0.78874 0 0.47183 0.26795 0.93214 0.66689 1.1456 0.36679 0.1963 2.9948 0.45336 5.84 0.57126l5.1731 0.21435 1.0169 5.6c0.55929 3.08 1.0633 6.104 1.12 6.72l0.1031 1.12h-6.6239c-3.9993 0-6.7448 0.1268-6.9289 0.32-0.16776 0.176-0.3619 0.608-0.43142 0.96-0.10194 0.51619-1.2759-0.4743-6.0685-5.12zm22.658-2c-0.086874-0.308-0.5548-2.9009-1.0398-5.7621-1.0372-6.1184-0.95528-6.514 1.8001-8.692 3.7475-2.9623 8.3597-5.5057 16.635-9.1733 10.368-4.5954 15.576-7.5191 20.423-11.465 1.4647-1.1924 2.7185-2.1126 2.7863-2.0448 0.36784 0.36784 2.0569 11.107 1.8774 11.937-0.28349 1.311-3.9664 4.8294-7.474 7.1402-3.2391 2.1339-9.6872 5.4072-17.43 8.8484-6.5071 2.8918-10.251 4.9357-14.102 7.6992-1.584 1.1365-2.9783 2.0677-3.0984 2.0693-0.12014 0.0016-0.28952-0.24908-0.37639-0.55708zm41.715-1.039c-1.496-0.49965-3.872-1.1723-5.28-1.4947l-2.56-0.58628-0.089667-4.2943c-0.04931-2.3619 0.02282-4.4068 0.16029-4.5443 0.40123-0.40123 8.2609-1.5275 13.089-1.8756 4.3671-0.31487 8.6636-0.37333 7.2283-0.09835l-0.73222 0.14028 0.09222 6.6592 0.09222 6.6592-1.8869 0.19691c-4.1135 0.42927-7.2549 0.19255-10.113-0.76206zm-54.88-12.501c-4.3372-0.3027-6.8746-0.69035-11.92-1.8211l-3.92-0.87854v-7.1545c0-6.6924 0.036174-7.1389 0.56-6.9134 1.3226 0.56953 6.1683 1.7624 9.3151 2.2931 5.2902 0.89219 22.103 0.80231 29.965-0.16017 6.921-0.84734 6.56-0.83987 6.56-0.13574 0 0.41681-1.2913 1.2016-4.808 2.9223-8.1819 4.0032-14.355 8.011-16.243 10.546-0.47612 0.63924-1.0105 1.268-1.1875 1.3973-0.38197 0.27904-3.4681 0.24386-8.3218-0.09488zm56.546-6.9542c2.5489-2.8305 2.912-4.5653 2.0182-9.6441-0.26115-1.4839-0.39312-2.7799-0.29327-2.88 0.09985-0.10006 2.0777-0.23132 4.3953-0.2917l4.2137-0.10978-0.09222 6.7259-0.09222 6.7259 0.73222 0.14028c0.40272 0.07716-0.57738 0.15989-2.178 0.18386-1.6006 0.02397-4.4806 0.1388-6.4 0.25518l-3.4898 0.2116zm-13.826-14.978c-3.0145-0.55637-10.14-1.2895-16.8-1.7286-5.9942-0.39517-10.044-0.99146-14.196-2.0902-3.64-0.96332-4.9731-1.5694-5.6184-2.5543-0.4951-0.75562-2.5985-11.609-2.3064-11.901 0.08627-0.086268 1.8767 0.29044 3.9787 0.83712 4.8124 1.2516 8.769 1.8395 15.262 2.2675 11.373 0.74983 17.888 1.6745 22.803 3.2365 4.8881 1.5535 6.6374 2.6932 6.8223 4.4451 0.13552 1.2839-0.1097 1.9943-1.0652 3.0859-1.3117 1.4986-5.5965 4.9255-6.101 4.8794-0.20847-0.019041-1.459-0.23395-2.779-0.47758z" fill="#af3484"/>
  <path d="m84.8 125.5c-5.7771-2.0197-11.072-2.881-22.88-3.7219-8.0306-0.57188-12.453-1.1784-16.784-2.3021-4.54-1.1778-6.0957-2.2762-6.0957-4.3042 0-1.669 1.9041-3.5716 6.5335-6.5279l1.8935-1.2092 4.8265 0.37859c2.6546 0.20823 6.6985 0.52019 8.9865 0.69324 9.035 0.68336 14.159 1.5224 18.69 3.0605 3.9238 1.3321 5.5563 2.284 6.0503 3.528 0.45962 1.1575 2.0508 10.221 1.9192 10.932-0.08738 0.47246-0.45737 0.41032-3.1391-0.52721zm-46.842-15.973c-0.37641-1.261-1.7975-9.8955-1.7975-10.922 0-1.6369 1.1733-2.9213 5.0159-5.4908 3.7408-2.5014 7.1169-4.2701 14.246-7.4633 10.477-4.6926 16.187-7.9106 20.485-11.544 1.3569-1.1471 2.5322-1.9804 2.6117-1.8517 0.32078 0.51904 1.8012 9.6682 1.8012 11.132 0 1.5325-0.05663 1.6248-2.3617 3.8491-1.2989 1.2534-3.4949 3.0255-4.88 3.938-2.9244 1.9267-10.626 5.8745-16.598 8.5078-7.6279 3.3636-11.937 5.7153-15.84 8.6458-2.4104 1.8096-2.4896 1.845-2.6825 1.1989zm-31.522-8.9646c-3.0216-2.948-5.4896-5.5272-5.4846-5.7315 0.00506-0.20431 1.3488-1.0872 2.986-1.962 1.6372-0.8748 4.1932-2.3251 5.68-3.2228 2.6634-1.6083 2.7047-1.621 2.8022-0.8614 0.19611 1.5272 0.61292 1.6103 8.6698 1.729 6.4845 0.09556 14.412-0.25608 17.782-0.78873l0.96946-0.15324-0.79189 0.57535c-2.2737 1.652-4.597 3.7936-5.3505 4.9322-1.0146 1.5332-1.2779 3.7607-0.76885 6.5064 0.19406 1.0468 0.24446 2.0115 0.11201 2.1438-0.47208 0.47171-11.362 0.93337-15.441 0.65463-4.2154-0.28805-5.12-0.12733-5.12 0.90964 0 0.34581-0.12395 0.62874-0.27544 0.62874s-2.7476-2.412-5.7692-5.36zm8.9246-15.661c-2.8933-0.21841-8.5446-1.1125-11.04-1.7466-1.408-0.3578-2.92-0.68953-3.36-0.73719l-0.8-0.086637-0.086008-7.2445c-0.056531-4.7616 0.025724-7.2445 0.24-7.2445 0.1793 0 0.32601 0.12128 0.32601 0.26952 0 0.29321 4.0872 1.3403 8.16 2.0904 4.19 0.77175 11.352 1.253 16.23 1.0905 4.442-0.14796 4.6336-0.12686 6.8534 0.75481 2.8085 1.1155 7.9817 2.3935 11.716 2.8944l2.8 0.37558v7.1615l-1.84 0.34921c-9.2186 1.7496-21.726 2.6377-29.2 2.0735zm51.36-11.318c-1.76-0.31272-6.008-0.79848-9.44-1.0795-12.586-1.0305-13.833-1.161-17.046-1.7837-6.906-1.3386-9.4917-2.5242-10.01-4.5899-0.51702-2.06 0.76892-3.7368 5.067-6.6071 2.5824-1.7246 3.0887-1.9475 4.0694-1.7915 0.616 0.09798 2.992 0.33182 5.28 0.51965 17.683 1.4516 21.084 1.9157 26.08 3.5589 3.8186 1.256 5.202 1.9478 6.0498 3.0256 0.90995 1.1568 0.87552 2.9232-0.08227 4.2214-1.0426 1.4132-5.6511 5.1942-6.2645 5.1396-0.27665-0.024634-1.943-0.30065-3.703-0.61337zm-60.373-12.302c-3.2682-3.168-5.9613-5.892-5.9847-6.0533-0.023411-0.16133 0.046475-0.20429 0.1553-0.095466 0.25866 0.25866 4.5892-1.9261 8.5114-4.2941 1.7101-1.0324 3.1861-1.8771 3.28-1.8771 0.09391 0 0.17074 0.35493 0.17074 0.78874 0 0.47183 0.26795 0.93214 0.66689 1.1456 0.36679 0.1963 2.9948 0.45336 5.84 0.57126l5.1731 0.21435 1.0169 5.6c0.55929 3.08 1.0633 6.104 1.12 6.72l0.1031 1.12h-6.6239c-3.9993 0-6.7448 0.1268-6.9289 0.32-0.16776 0.176-0.3619 0.608-0.43142 0.96-0.10194 0.51619-1.2759-0.4743-6.0685-5.12zm22.658-2c-0.086874-0.308-0.5548-2.9009-1.0398-5.7621-1.0372-6.1184-0.95528-6.514 1.8001-8.692 3.7475-2.9623 8.3597-5.5057 16.635-9.1733 10.368-4.5954 15.576-7.5191 20.423-11.465 1.4647-1.1924 2.7185-2.1126 2.7863-2.0448 0.36784 0.36784 2.0569 11.107 1.8774 11.937-0.28349 1.311-3.9664 4.8294-7.474 7.1402-3.2391 2.1339-9.6872 5.4072-17.43 8.8484-6.5071 2.8918-10.251 4.9357-14.102 7.6992-1.584 1.1365-2.9783 2.0677-3.0984 2.0693-0.12014 0.0016-0.28952-0.24908-0.37639-0.55708zm-13.165-13.54c-4.3372-0.3027-6.8746-0.69035-11.92-1.8211l-3.92-0.87854v-7.1545c0-6.6924 0.036174-7.1389 0.56-6.9134 1.3226 0.56953 6.1683 1.7624 9.3151 2.2931 5.2902 0.89219 22.103 0.80231 29.965-0.16017 6.921-0.84734 6.56-0.83987 6.56-0.13574 0 0.41681-1.2913 1.2016-4.808 2.9223-8.1819 4.0032-14.355 8.011-16.243 10.546-0.47612 0.63924-1.0105 1.268-1.1875 1.3973-0.38197 0.27904-3.4681 0.24386-8.3218-0.09488zm42.72-21.932c-3.0145-0.55637-10.14-1.2895-16.8-1.7286-5.9942-0.39517-10.044-0.99146-14.196-2.0902-3.64-0.96332-4.9731-1.5694-5.6184-2.5543-0.4951-0.75562-2.5985-11.609-2.3064-11.901 0.08627-0.086268 1.8767 0.29044 3.9787 0.83712 4.8124 1.2516 8.769 1.8395 15.262 2.2675 11.373 0.74983 17.888 1.6745 22.803 3.2365 4.8881 1.5535 6.6374 2.6932 6.8223 4.4451 0.13552 1.2839-0.1097 1.9943-1.0652 3.0859-1.3117 1.4986-5.5965 4.9255-6.101 4.8794-0.20847-0.019041-1.459-0.23395-2.779-0.47758z" fill="#694894"/>
  <path d="m84.8 125.5c-5.7771-2.0197-11.072-2.881-22.88-3.7219-8.0306-0.57188-12.453-1.1784-16.784-2.3021-4.54-1.1778-6.0957-2.2762-6.0957-4.3042 0-1.669 1.9041-3.5716 6.5335-6.5279l1.8935-1.2092 4.8265 0.37859c2.6546 0.20823 6.6985 0.52019 8.9865 0.69324 9.035 0.68336 14.159 1.5224 18.69 3.0605 3.9238 1.3321 5.5563 2.284 6.0503 3.528 0.45962 1.1575 2.0508 10.221 1.9192 10.932-0.08738 0.47246-0.45737 0.41032-3.1391-0.52721zm-46.842-15.973c-0.37641-1.261-1.7975-9.8955-1.7975-10.922 0-1.6369 1.1733-2.9213 5.0159-5.4908 3.7408-2.5014 7.1169-4.2701 14.246-7.4633 10.477-4.6926 16.187-7.9106 20.485-11.544 1.3569-1.1471 2.5322-1.9804 2.6117-1.8517 0.32078 0.51904 1.8012 9.6682 1.8012 11.132 0 1.5325-0.05663 1.6248-2.3617 3.8491-1.2989 1.2534-3.4949 3.0255-4.88 3.938-2.9244 1.9267-10.626 5.8745-16.598 8.5078-7.6279 3.3636-11.937 5.7153-15.84 8.6458-2.4104 1.8096-2.4896 1.845-2.6825 1.1989zm-31.478-9.2043c-3.036-2.9351-5.5193-5.4318-5.5185-5.5484 8.064e-4 -0.11656 1.3458-0.89591 2.9889-1.7319 1.6431-0.83598 4.155-2.2217 5.582-3.0794l2.5946-1.5594 0.19606 0.89265c0.25052 1.1406 0.60707 1.2618 4.3895 1.4923l3.1274 0.19053v13.023h-3.6182c-3.6015 0-3.6196 4e-3 -3.92 0.82839-0.29481 0.80928-0.42914 0.70526-5.8218-4.5081zm7.1492-15.871c-3.3555-0.27637-9.0069-1.2682-11.498-2.0178-0.85611-0.25765-1.4915-0.31784-1.4915-0.1413 0 0.16916-0.144 0.21857-0.32 0.1098-0.33723-0.20842-0.47241-14.56-0.13714-14.56 0.10057 0 0.38625 0.20339 0.63484 0.45198 0.88502 0.88502 10.028 2.6701 16.542 3.2296l2.48 0.21302v13.065l-1.52-0.04478c-0.836-0.02464-2.9468-0.16229-4.6908-0.30593zm53.091-10.867c-1.76-0.31272-6.008-0.79848-9.44-1.0795-12.586-1.0305-13.833-1.161-17.046-1.7837-6.906-1.3386-9.4917-2.5242-10.01-4.5899-0.51702-2.06 0.76892-3.7368 5.067-6.6071 2.5824-1.7246 3.0887-1.9475 4.0694-1.7915 0.616 0.09798 2.992 0.33182 5.28 0.51965 17.683 1.4516 21.084 1.9157 26.08 3.5589 3.8186 1.256 5.202 1.9478 6.0498 3.0256 0.90995 1.1568 0.87552 2.9232-0.08227 4.2214-1.0426 1.4132-5.6511 5.1942-6.2645 5.1396-0.27665-0.024634-1.943-0.30065-3.703-0.61337zm-58.776-11.007c-2.2009-2.0447-4.6776-4.5006-5.5038-5.4576l-1.5022-1.74 3.1311-1.587c1.7221-0.87284 4.2099-2.227 5.5285-3.0093l2.3974-1.4223 0.37432 0.89025c0.45412 1.08 0.75534 1.1772 4.5109 1.455l2.96 0.21892v13.135l-3.28-0.19912c-3.3973-0.20624-3.758-0.13501-4.2946 0.84791-0.28268 0.51778-0.78615 0.15295-4.3216-3.1315zm21.061-3.2945c-0.086874-0.308-0.5548-2.9009-1.0398-5.7621-1.0372-6.1184-0.95528-6.514 1.8001-8.692 3.7475-2.9623 8.3597-5.5057 16.635-9.1733 10.368-4.5954 15.576-7.5191 20.423-11.465 1.4647-1.1924 2.7185-2.1126 2.7863-2.0448 0.36784 0.36784 2.0569 11.107 1.8774 11.937-0.28349 1.311-3.9664 4.8294-7.474 7.1402-3.2391 2.1339-9.6872 5.4072-17.43 8.8484-6.5071 2.8918-10.251 4.9357-14.102 7.6992-1.584 1.1365-2.9783 2.0677-3.0984 2.0693-0.12014 0.0016-0.28952-0.24908-0.37639-0.55708zm-16.525-14.049c-4.9238-0.75066-7.4919-1.2202-9.3676-1.7126-1.229-0.32266-2.4321-0.51086-2.6735-0.41823-0.36393 0.13966-0.43893-1.0677-0.43893-7.0658 0-4.1711 0.12421-7.2342 0.29333-7.2342 0.16133 0 0.34133 0.13709 0.4 0.30465 0.29172 0.83317 12.977 3.2108 17.147 3.2139l2 0.0015v13.12l-3.28-0.04358c-1.804-0.02397-3.64-0.09846-4.08-0.16554zm46.08-21.423c-3.0145-0.55637-10.14-1.2895-16.8-1.7286-5.9942-0.39517-10.044-0.99146-14.196-2.0902-3.64-0.96332-4.9731-1.5694-5.6184-2.5543-0.4951-0.75562-2.5985-11.609-2.3064-11.901 0.08627-0.086268 1.8767 0.29044 3.9787 0.83712 4.8124 1.2516 8.769 1.8395 15.262 2.2675 11.373 0.74983 17.888 1.6745 22.803 3.2365 4.8881 1.5535 6.6374 2.6932 6.8223 4.4451 0.13552 1.2839-0.1097 1.9943-1.0652 3.0859-1.3117 1.4986-5.5965 4.9255-6.101 4.8794-0.20847-0.019041-1.459-0.23395-2.779-0.47758z" fill="#5b4996"/>
  <path d="m84.8 125.5c-5.7771-2.0197-11.072-2.881-22.88-3.7219-8.0306-0.57188-12.453-1.1784-16.784-2.3021-4.54-1.1778-6.0957-2.2762-6.0957-4.3042 0-1.669 1.9041-3.5716 6.5335-6.5279l1.8935-1.2092 4.8265 0.37859c2.6546 0.20823 6.6985 0.52019 8.9865 0.69324 9.035 0.68336 14.159 1.5224 18.69 3.0605 3.9238 1.3321 5.5563 2.284 6.0503 3.528 0.45962 1.1575 2.0508 10.221 1.9192 10.932-0.08738 0.47246-0.45737 0.41032-3.1391-0.52721zm-46.842-15.973c-0.37641-1.261-1.7975-9.8955-1.7975-10.922 0-1.6369 1.1733-2.9213 5.0159-5.4908 3.7408-2.5014 7.1169-4.2701 14.246-7.4633 10.477-4.6926 16.187-7.9106 20.485-11.544 1.3569-1.1471 2.5322-1.9804 2.6117-1.8517 0.32078 0.51904 1.8012 9.6682 1.8012 11.132 0 1.5325-0.05663 1.6248-2.3617 3.8491-1.2989 1.2534-3.4949 3.0255-4.88 3.938-2.9244 1.9267-10.626 5.8745-16.598 8.5078-7.6279 3.3636-11.937 5.7153-15.84 8.6458-2.4104 1.8096-2.4896 1.845-2.6825 1.1989zm28.762-35.943c-1.76-0.31272-6.008-0.79848-9.44-1.0795-12.586-1.0305-13.833-1.161-17.046-1.7837-6.906-1.3386-9.4917-2.5242-10.01-4.5899-0.51702-2.06 0.76892-3.7368 5.067-6.6071 2.5824-1.7246 3.0887-1.9475 4.0694-1.7915 0.616 0.09798 2.992 0.33182 5.28 0.51965 17.683 1.4516 21.084 1.9157 26.08 3.5589 3.8186 1.256 5.202 1.9478 6.0498 3.0256 0.90995 1.1568 0.87552 2.9232-0.08227 4.2214-1.0426 1.4132-5.6511 5.1942-6.2645 5.1396-0.27665-0.024634-1.943-0.30065-3.703-0.61337zm-37.715-14.302c-0.086874-0.308-0.5548-2.9009-1.0398-5.7621-1.0372-6.1184-0.95528-6.514 1.8001-8.692 3.7475-2.9623 8.3597-5.5057 16.635-9.1733 10.368-4.5954 15.576-7.5191 20.423-11.465 1.4647-1.1924 2.7185-2.1126 2.7863-2.0448 0.36784 0.36784 2.0569 11.107 1.8774 11.937-0.28349 1.311-3.9664 4.8294-7.474 7.1402-3.2391 2.1339-9.6872 5.4072-17.43 8.8484-6.5071 2.8918-10.251 4.9357-14.102 7.6992-1.584 1.1365-2.9783 2.0677-3.0984 2.0693-0.12014 0.0016-0.28952-0.24908-0.37639-0.55708zm29.555-35.472c-3.0145-0.55637-10.14-1.2895-16.8-1.7286-5.9942-0.39517-10.044-0.99146-14.196-2.0902-3.64-0.96332-4.9731-1.5694-5.6184-2.5543-0.4951-0.75562-2.5985-11.609-2.3064-11.901 0.08627-0.086268 1.8767 0.29044 3.9787 0.83712 4.8124 1.2516 8.769 1.8395 15.262 2.2675 11.373 0.74983 17.888 1.6745 22.803 3.2365 4.8881 1.5535 6.6374 2.6932 6.8223 4.4451 0.13552 1.2839-0.1097 1.9943-1.0652 3.0859-1.3117 1.4986-5.5965 4.9255-6.101 4.8794-0.20847-0.019041-1.459-0.23395-2.779-0.47758z" fill="#585a5a"/>
  <path d="m85.121 125.23c-4.9199-1.9-11.305-2.9508-23.041-3.792-9.9657-0.71427-14.251-1.3935-19.436-3.0806-2.2499-0.73209-3.2837-1.7599-3.2837-3.2649 0-1.2682 2.3803-3.6208 5.8515-5.7833l2.4915-1.5522 4.5485 0.37143c2.5017 0.20429 7.0987 0.57895 10.216 0.83257 9.4995 0.77299 14.094 1.6393 19.579 3.6912 3.3602 1.2572 3.6021 1.6419 4.6876 7.454 1.0128 5.4227 1.0794 5.9837 0.70665 5.9491-0.132-0.0123-1.1756-0.38362-2.3191-0.82524zm-47.773-20.832c-0.48161-2.772-0.87384-5.431-0.87162-5.9089 0.011296-2.4352 7.3775-7.404 17.604-11.875 10.919-4.7734 16.458-7.7879 21.05-11.456 1.705-1.3621 3.134-2.4426 3.1755-2.4011 0.20566 0.20566 1.6944 9.4695 1.6944 10.544 0 1.6384-0.74525 2.6216-3.9334 5.1892-4.434 3.5709-8.9693 6.0586-20.175 11.067-7.0965 3.1715-10.08 4.7824-14.531 7.8449-1.6279 1.1202-2.9997 2.0367-3.0484 2.0367-0.04869 0-0.48258-2.268-0.96418-5.04zm32.701-30.618c-0.27222-0.27222-9.4962-1.421-14.208-1.7696-12.668-0.93704-16.077-1.4276-21.227-3.0544-2.7111-0.85644-3.771-1.7064-4.0849-3.2761-0.2972-1.486 0.71286-2.865 3.6214-4.944 3.7729-2.6969 4.1218-2.8309 6.5211-2.5045 1.127 0.15331 3.3451 0.36754 4.9291 0.47608 15.638 1.0715 20.807 1.8462 26.798 4.0163 3.3756 1.2228 4.7224 2.3394 4.7224 3.9156 0 1.5388-1.0495 2.9448-3.9404 5.2789-2.3609 1.9062-2.8161 2.1768-3.1313 1.8616zm-40.722-14.814c-0.08874-0.31231-0.55717-2.8491-1.0409-5.6373-0.85862-4.9486-0.8659-5.0949-0.30564-6.1352 1.2461-2.3139 8.113-6.515 17.611-10.774 11.384-5.1047 17.185-8.3357 21.423-11.931 1.185-1.0053 2.2389-1.7436 2.3418-1.6406 0.10295 0.10295 0.60353 2.528 1.1124 5.3889l0.92523 5.2017-0.71038 1.3771c-0.74402 1.4423-3.9595 4.2511-7.4833 6.5368-2.4381 1.5815-9.9698 5.3897-15.36 7.7664-7.9099 3.4878-13.435 6.5397-17.176 9.4886-1.0473 0.8254-1.1936 0.86469-1.3373 0.359zm31.445-35.103c-0.44056-0.44056-10.296-1.5466-18.851-2.1156-5.7255-0.38082-11.251-1.2157-15.04-2.2725-2.9541-0.82394-4.0108-1.3514-4.6444-2.3184-0.42237-0.64462-2.4937-11.078-2.2491-11.329 0.048726-0.049993 1.3042 0.26139 2.79 0.69195 3.9441 1.143 9.9313 2.0635 15.943 2.4512 12.112 0.78115 19.465 1.9204 24.718 3.8297 3.4811 1.2653 4.7242 2.3315 4.7176 4.0464-0.0058 1.4997-1.0598 2.8142-4.3152 5.3815-2.0773 1.6382-2.7218 1.9816-3.0686 1.6348z" fill="#393b3c"/>
 </g>
</svg>
