<?xml version="1.0" encoding="UTF-8"?>
<!-- Created with Inkscape (http://www.inkscape.org/) -->
<svg width="631" height="591" version="1.1" viewBox="0 0 631 591" xmlns="http://www.w3.org/2000/svg" xmlns:cc="http://creativecommons.org/ns#" xmlns:dc="http://purl.org/dc/elements/1.1/" xmlns:rdf="http://www.w3.org/1999/02/22-rdf-syntax-ns#">
 <metadata>
  <rdf:RDF>
   <cc:Work rdf:about="">
    <dc:format>image/svg+xml</dc:format>
    <dc:type rdf:resource="http://purl.org/dc/dcmitype/StillImage"/>
    <dc:title/>
   </cc:Work>
  </rdf:RDF>
 </metadata>
 <path d="m131.43 589.76c-5.9865-2.0978-9.2902-10.322-20.393-50.764-21.378-77.874-103.89-413.31-109.59-445.49-2.7657-15.63-0.97596-33.576 4.4116-44.235 6.2178-12.301 18.546-26.54 33.5-38.691 11.847-9.6264 15.89-11.064 28.634-10.182 5.225 0.36166 17.15 1.0701 26.5 1.5742 14.009 0.7554 174.83 18.053 180.81 19.449 0.99823 0.23265 52.933 27.57 115.41 60.75l113.6 60.327 54.038 72c29.721 39.6 57.721 77.041 62.221 83.203l8.183 11.203 1.2615 9.8992c1.2844 10.078 0.85971 31.671-0.89157 45.33-1.3776 10.745-7.5587 22.276-16.831 31.4-16.971 16.698-16.928 16.673-59.301 34.266-82.488 34.248-178.49 73.405-256 104.41-93.09 37.241-135.76 53.396-145 54.897-9.3666 1.5216-17.365 1.7761-20.567 0.6543zm155.59-477.27c3.7391-1.9336 5.3367-4.956 4.5908-8.6854-0.51914-2.5957 0.0293-3.5211 4.5506-7.6785 4.784-4.3989 5.1727-5.1107 5.5991-10.252 0.35113-4.2343-0.0132-6.4415-1.5596-9.4493-8.5177-16.567-38.608-24.31-57.862-14.889-13.671 6.6887-15.101 20.219-3.2658 30.912 4.1045 3.7082 15.358 9.5533 18.393 9.5533 0.83018 0 2.6051 1.7357 3.9443 3.8571 3.2799 5.1958 9.3897 8.1411 16.89 8.1422 3.2186 4.4e-4 7.0995-0.67137 8.7204-1.5096z" fill="#e3f3fd"/>
 <path d="m132.03 589.59c-5.7268-2.0679-8.0447-7.1917-16.555-36.594-14.506-50.119-54.25-209.22-99.669-399-15.953-66.657-15.278-63.322-15.284-75.5-0.0083486-18.257 2.8944-26.833 14.228-42.04 9.9427-13.34 30.198-31.455 39.197-35.056 3.4397-1.3763 6.0066-1.5636 13.886-1.0134 5.3166 0.37124 15.967 1.082 23.667 1.5795 14.566 0.94106 30.298 2.6143 126.95 13.502l57.949 6.5279 111.11 59.043c61.109 32.474 112.54 59.914 114.29 60.978 2.0194 1.2281 24.617 30.533 61.847 80.207 32.266 43.049 60.143 80.522 61.95 83.272 2.5358 3.8597 3.5272 6.784 4.3467 12.822 2.3369 17.219 0.43809 44.36-3.9118 55.913-1.1877 3.1546-3.9778 8.4587-6.2004 11.787-4.6264 6.9281-23.662 24.317-30.367 27.74-16.178 8.259-305.92 126.07-379.96 154.5-57.103 21.923-67.733 24.85-77.471 21.334zm17.543-16.227c6.28-2.0808 6.8795-2.6715 5.2917-5.214-1.1507-1.8426-0.35047-4.4182 6.9417-22.342 4.5333-11.142 7.8089-19.821 7.2791-19.285s-6.2958 10.649-12.813 22.474c-9.1381 16.58-12.296 21.5-13.797 21.5-2.2325 0-2.1197 0.50697-3.1152-14-0.71187-10.374-0.79483-10.687-1.458-5.5-1.1199 8.7587-0.99976 18.689 0.2595 21.453 1.393 3.0573 4.252 3.2863 11.411 0.91414zm373.79-377.12c-7.0121-9.7891-7.4956-10.178-3.4221-2.75 2.5811 4.7064 7.1723 10.186 8.7672 10.464 0.11353 0.0198-2.2918-3.4515-5.3451-7.714zm-21.949-5.8659c-1.4296-7.6205-10.374-35.742-11.612-36.51-0.71512-0.44322-49.055-26.27-107.42-57.393l-106.12-56.587-40.377 6.6295c-22.208 3.6462-41.904 6.9427-43.77 7.3254l-3.3929 0.69594 15.893 14.483c28.258 25.751 44.727 40.401 52.498 46.699l7.6047 6.1637 118.4 36.001c65.117 19.801 118.53 36.025 118.69 36.054 0.16243 0.0294-0.01-1.5736-0.38303-3.5624zm-287.41-87.134c-5.2947-6.0298-38.947-38.25-39.95-38.25-0.7218 0-10.052 19.278-11.423 23.6-0.61899 1.9525 0.44372 2.4364 15.104 6.8782 8.6734 2.6279 21.17 6.4772 27.77 8.554s12.151 3.8191 12.335 3.8718c0.18424 0.0526-1.5419-2.0418-3.8359-4.6543zm-99.999-49.73c131.36-17.373 135.59-17.977 131.5-18.779-4.1115-0.80641-122.64-13.87-162.09-17.865l-22.091-2.237-6.4088 4.9153c-8.2522 6.3292-20.609 18.562-25.18 24.928l-3.5773 4.9819 16.674 5.2238c19.944 6.248 14.421 6.3386 71.174-1.1672z" fill="#dbf1fd"/>
 <path d="m132.06 589.52c-4.8565-1.7539-8-7.9036-13.555-26.517-15.31-51.303-56.343-215.54-109.06-436.5-10.469-43.882-10.89-46.966-8.336-60.94 3.2286-17.661 16.879-36.802 39.129-54.865 12.315-9.998 15.376-11.164 27.098-10.321 5.0408 0.3626 15.69 1.0877 23.665 1.6113 7.975 0.5236 52.911 5.2552 99.857 10.515l85.357 9.5626 113.64 60.323 113.64 60.323 47.719 63.396c26.245 34.868 54.348 72.349 62.45 83.292l14.731 19.896 1.2472 7.6042c1.6713 10.19 1.6483 28.244-0.0523 41.121-2.4768 18.755-8.365 29.134-24.748 43.622-5.5107 4.8734-11.27 9.6545-12.8 10.625-3.0736 1.95-16.175 7.4896-79.047 33.424-112.83 46.541-250.87 102.22-304.5 122.81-57.203 21.969-66.631 24.561-76.444 21.017zm16.944-15.719c4.6301-1.3515 7.6808-3.3338 9.0405-5.8744 1.0094-1.886 0.92673-1.9771-0.90413-0.9973-1.1082 0.59312-2.2501 0.69803-2.5374 0.23313-0.28732-0.46489 3.5279-10.874 8.4782-23.13 4.9503-12.257 8.804-22.482 8.5638-22.722s-5.955 9.6048-12.699 21.878c-14.281 25.986-15.796 28.36-17.202 26.954-0.55799-0.55799-1.4193-7.6593-1.9139-15.781-0.82985-13.624-1.7374-19.762-1.8889-12.776-0.0348 1.6042-0.41246 7.8667-0.83927 13.917-0.75192 10.658-0.10744 16.505 2.1209 19.24 1.0146 1.2454 2.9162 1.0624 9.7816-0.94159zm452.35-273.05c-2.0947-3.4131-17.173-24.176-36.494-50.25-39.562-53.392-50.887-68.5-51.348-68.5-0.88855 0 34.061 72.725 45.173 94 3.3038 6.325 6.1893 12.046 6.4124 12.713 0.22305 0.66741 8.0556 3.5255 17.406 6.3514 9.35 2.8258 17.428 5.5423 17.95 6.0365 1.3557 1.2824 1.7977 1.11 0.90087-0.35137zm-89.355-30.246c1.2897-1.3728 2.1556-2.6449 1.9243-2.8268-0.23134-0.1819-14.596-5.1872-31.921-11.123-17.325-5.9358-55.732-19.289-85.348-29.673-29.616-10.385-54.28-18.881-54.809-18.881-0.86981 0 4.8259 7.0266 12.657 15.614 2.8329 3.1067 7.2049 4.5687 78.5 26.251 41.525 12.628 75.759 23 76.076 23.048 0.31662 0.048 1.6309-1.036 2.9206-2.4089zm8.5189-21.754c-0.23212-0.6875-6.5726-21.5-14.09-46.25-7.5173-24.75-14.061-45.753-14.541-46.673-1.1615-2.2267 2.8429-0.041-113.08-61.719-55.93-29.759-102.79-54.108-104.13-54.108-2.2714 0-79.384 12.35-84.465 13.528-1.26 0.29202-2.0208 0.96797-1.6907 1.5021 0.33012 0.53414 30.386 28.039 66.791 61.122 36.405 33.083 67.991 61.867 70.192 63.964 3.7619 3.5843 9.6829 5.7841 99 36.781 52.249 18.133 95.322 32.999 95.717 33.036 0.39523 0.037 0.5287-0.49532 0.29658-1.1828zm-216.03-62.611c-2.7435-2.6735-28.838-27.29-57.988-54.702s-57.18-53.8-62.288-58.639c-5.1083-4.8386-9.7426-8.7975-10.298-8.7975s-9.1148 16.538-19.02 36.75c-26.034 53.125-27.395 56.142-25.609 56.76 0.66834 0.23129 13.815 4.2356 29.215 8.8986l28 8.478 36 4.6873c19.8 2.578 46.8 6.1459 60 7.9286 13.2 1.7827 24.67 3.2989 25.488 3.3694 0.81845 0.0704-0.75655-2.0593-3.5-4.7328zm-273.95-120.63c6.0279-0.81973 57.985-7.807 115.46-15.527 57.475-7.7203 104.95-14.174 105.5-14.342 1.6629-0.50873-4.9841-1.3338-56.998-7.0751-90.542-9.9941-124.76-13.565-129.91-13.559-4.9151 0.005854-5.432 0.29354-15.234 8.4784-14.565 12.162-24.353 23.872-29.886 35.756-2.7669 5.9432-3.0426 7.7591-1.1778 7.7591 0.70959 0 6.2221-0.67069 12.25-1.4904z" fill="#d3eefd"/>
 <path d="m132 589.2c-6.5019-3.1617-9.9828-12.933-26.078-73.202-15.411-57.707-50.397-198.76-79.866-322-7.1676-29.975-15.795-65.75-19.171-79.5-7.0112-28.551-7.9614-37-5.4997-48.903 1.9469-9.414 4.0171-14.276 10.049-23.601 8.1271-12.563 31.309-34.763 41.991-40.213 4.3585-2.2236 2.6191-2.2324 34.707 0.17702 11.861 0.8906 148.09 15.789 177.73 19.436l10.698 1.3167 112.47 59.756c61.859 32.866 113.33 60.493 114.38 61.394 2.1173 1.8152 116.96 154.68 122.18 162.64 3.8746 5.9018 5.4252 14.794 5.3753 30.824-0.0634 20.345-3.7975 36.318-11.178 47.812-3.9615 6.1698-24.038 24.909-29.913 27.92-18.668 9.5682-334.73 137.61-400.38 162.2-42.499 15.919-49.806 17.691-57.5 13.95zm17.572-14.84c2.7105-0.90098 5.7846-2.3635 6.8313-3.25 2.2762-1.9278 9.6902-13.352 9.0685-13.974-0.23973-0.23972-2.199 1.5436-4.3541 3.9629-2.155 2.4193-4.2092 4.1151-4.565 3.7683-0.35574-0.34673 4.3573-12.876 10.473-27.844 6.1161-14.967 10.895-27.439 10.619-27.714-0.73232-0.73233-3.831 4.5128-18.13 30.688-7.0606 12.925-13.753 24.819-14.873 26.431l-2.0355 2.9305-0.667-2.494c-0.36685-1.3717-0.98803-9.8904-1.3804-18.931-0.39238-9.0401-0.98936-17.562-1.3266-18.937-0.57785-2.3558-0.65706-2.2981-1.3732 1-0.418 1.925-1.0729 11.608-1.4554 21.518-0.96366 24.971 0.27975 27.128 13.168 22.844zm461.11-202.43c5.6045-11.323 7.5645-28.065 5.6541-48.296l-0.6481-6.8635-34.492-46.136c-18.97-25.375-42.845-57.329-53.054-71.008s-18.707-24.438-18.884-23.907c-0.17678 0.53035 12.664 28.148 28.535 61.371 15.871 33.224 37.585 78.749 48.253 101.17s19.859 40.612 20.425 40.432c0.56511-0.17992 2.4601-3.2216 4.211-6.7592zm-127.08-65.932c24.947-27.895 34.074-38.736 33.135-39.356-2.7334-1.8048-179.25-62.289-179.56-61.525-0.54067 1.358 109.23 139.85 110.66 139.61 0.73439-0.12394 16.829-17.55 35.767-38.725zm39.398-54.259c0-1.4762-29.981-97.101-30.628-97.687-1.6174-1.4654-212.84-113.45-216.1-114.57-2.715-0.93346-10.113 0.02415-46.436 6.0107-23.763 3.9166-43.367 7.6029-43.563 8.1918-0.19631 0.58895 22.024 21.488 49.378 46.443 27.354 24.955 58.986 53.859 70.293 64.232s21.682 19.537 23.057 20.364c2.5682 1.5453 190.5 67.068 192.75 67.202 0.6875 0.0409 1.25-0.0422 1.25-0.18468zm-211.23-59.991c-0.34325-1.0851-110.77-105.5-130.48-123.38-3.9644-3.5958-7.6949-6.237-8.29-5.8692-1.4165 0.87544-53.268 104.57-52.616 105.22 0.34463 0.34462 173.69 23.208 190.95 25.185 0.45834 0.0525 0.6554-0.46703 0.43792-1.1545zm-230.77-131.71c125.96-16.941 172.24-23.043 174.77-23.043 1.9117 0 2.3286-0.30001 1.5286-1.1-0.95714-0.95714-125.93-15.363-177.95-20.512l-18.151-1.7968-4.2639 2.9545c-12.448 8.6253-28.622 25.096-34.661 35.297-3.4047 5.7507-7.2689 15.354-6.6084 16.423 0.28947 0.46838 1.721 0.61038 3.1811 0.31556s29.43-4.1372 62.155-8.5386z" fill="#a7d9f5"/>
 <path d="m134.02 589.94c-3.5642-1.5047-5.964-3.9136-8.1333-8.164-7.6242-14.938-50.619-183.66-107.4-421.48-7.9064-33.113-15.117-62.363-16.023-65-3.725-10.836-2.8447-27.195 2.1325-39.629 3.5902-8.9695 12.924-22.196 22.364-31.689 10.873-10.935 26.121-22.712 30.461-23.526 1.8232-0.34203 11.587 0.11362 21.698 1.0126 21.698 1.9291 187.34 20.224 193.88 21.413 2.9928 0.54433 42.348 20.951 117.5 60.926l113 60.107 58.75 78.296c32.313 43.063 60.369 80.643 62.348 83.511 4.4812 6.495 5.2712 9.7365 6.0609 24.871 1.1024 21.127-2.5342 39.865-10.18 52.451-4.5332 7.4624-23.482 25.766-30.478 29.44-8.4945 4.4609-192.63 79.913-294 120.47-101.55 40.628-144.51 56.627-154.64 57.585-2.6705 0.25272-5.9711-0.0116-7.3348-0.58728zm15.384-14.985c4.4296-1.3682 7.6858-3.1368 9.8553-5.3532 4.2962-4.3888 14.053-20.186 13.475-21.817-0.27729-0.78234-2.8539 1.2609-6.5745 5.2134-3.3652 3.575-6.1279 6.1623-6.1395 5.7495-0.0116-0.41276 5.154-13.408 11.479-28.879s11.486-29.083 11.468-30.25c-0.0302-2.0301-0.12956-2.0101-2.3107 0.46439-1.2535 1.4221-9.8514 16.396-19.107 33.276-9.2551 16.88-17.215 30.93-17.689 31.223s-0.87791-0.0564-0.89748-0.77634c-0.0196-0.71996-0.63912-11.806-1.3768-24.636-1.2154-21.14-2.2037-27.221-3.9615-24.377-1.1808 1.9105-3.4349 45.677-2.6114 50.704 1.3732 8.3836 2.9998 11.5 6.0024 11.5 0.97472 0 4.7491-0.91946 8.3875-2.0432zm417.6-179.59c-13.429-2.969-44.215-8.359-47.297-8.2805l-3.2029 0.0816 3 1.3171c2.6082 1.1451 23.327 4.8121 42 7.4336 9.5006 1.3338 12.615 1.0214 5.5-0.55175zm42.454-19.113c6.2038-9.3746 9.1934-25.798 8.1455-44.749-0.46088-8.3351-1.1985-13.069-2.4153-15.5-1.8316-3.6595-104.22-140.78-108.14-144.82-1.2356-1.2739-2.4264-2.1362-2.6463-1.9164-0.21983 0.21983 7.9695 17.687 18.199 38.816 16.659 34.41 61.33 127.68 76.472 159.67 3.1895 6.7375 6.272 12.25 6.8502 12.25 0.57816 0 2.1683-1.6881 3.5337-3.7513zm-148.33-43.591c6.3955-7.2366 22.048-24.812 34.783-39.057 12.735-14.245 23.009-26.339 22.83-26.876-0.26618-0.79852-174.05-61.477-181.49-63.369-1.3821-0.3515-2.25-0.11864-2.25 0.60372 0 0.99003 23.074 30.449 101.23 129.24 6.3693 8.0509 11.342 13.479 12.054 13.157 0.66658-0.30063 6.4446-6.4674 12.84-13.704zm-255.13-77.025c0-0.20192-1.9125-1.6183-4.25-3.1475-6.6678-4.3622-33.985-24.876-47.75-35.858-26.579-21.206-60.144-49.914-110.38-94.408-12.593-11.154-23.064-20.113-23.27-19.908-0.20525 0.20524 1.0466 6.2695 2.782 13.476l3.1551 13.103 14.604 13.404c15.682 14.394 29.66 26.747 34.775 30.734 1.7442 1.3594 8.2692 6.972 14.5 12.472 18.399 16.242 42.773 36.041 56.329 45.757 4.4 3.1534 9.8 7.0777 12 8.7207 2.8444 2.1242 10.067 4.8528 25 9.4444 21.178 6.5118 22.5 6.8767 22.5 6.2105zm318-3.4156c0-0.43052-4.8918-16.968-10.871-36.75s-12.304-40.917-14.057-46.967c-1.7524-6.05-3.9481-11.982-4.8794-13.181-1.2775-1.6457-153.09-83.188-211.02-113.34-5.5907-2.9102-10.524-4.5361-18.174-5.9894-9.6444-1.8323-134.41-16.121-183.35-20.999l-20.853-2.0782-7.6027 5.7223c-16.227 12.213-31.197 29.694-36.116 42.173-2.0074 5.0929-2.6797 9.1928-1.5074 9.1928 0.31272 0 19.157-2.469 41.876-5.4866 55.496-7.3712 103.38-13.374 112.54-14.108 7.9708-0.6386 13.011 0.51302 13.011 2.973 0 0.78519 9.5625 9.9476 21.25 20.361 21.566 19.215 44.538 39.97 95.95 86.693l28.535 25.932 95.882 33.26c52.735 18.293 96.67 33.286 97.632 33.318 0.9625 0.0319 1.75-0.29422 1.75-0.72474zm-209.59-59.078c0.29266-0.47353-4.9516-5.986-11.654-12.25-31.362-29.311-87.322-82.188-106.49-100.62-12.767-12.278-21.859-20.289-22.805-20.092-1.6467 0.34205-55.257 107.37-54.274 108.35 0.48207 0.48208 187.31 25.099 192.5 25.365 1.205 0.0617 2.4304-0.2752 2.7231-0.74873z" fill="#91d0f5"/>
 <path d="m133 589.21c-5.9166-3.2365-8.9671-10.583-18.355-44.206-16.111-57.702-59.138-230.68-97.132-390.5-6.93-29.15-13.515-55.69-14.634-58.977-5.7542-16.909-2.4046-35.41 9.7206-53.69 8.2092-12.376 24.779-28.502 39.4-38.343l5.5-3.702 9 0.69309c10.27 0.7909 72.422 7.4923 153.5 16.551l55.5 6.2009 113 59.99c62.15 32.995 113.64 60.505 114.42 61.133 2.1107 1.7041 120.54 159.85 123.54 164.98 6.8198 11.637 5.5234 47.564-2.3811 65.989-3.7458 8.7313-9.1824 15.631-19.954 25.323-12.467 11.218-11.578 10.762-60.123 30.854-174.67 72.292-342.38 139.36-383.5 153.37-18.383 6.2605-22.732 6.9464-27.5 4.338zm17.244-14.118c3.0566-1.0516 6.6146-2.5958 7.9066-3.4314 1.292-0.83562 13.149-5.5545 26.349-10.486 22.454-8.3894 70.923-27.31 87.232-34.052 7.0173-2.901 79.211-45.728 139.33-82.652 32.604-20.026 40.99-25.466 39.259-25.466-2.7258 0-83.091 32.739-193.72 78.918-29.096 12.145-53.733 22.082-54.75 22.082-4.0267 0-2.7329-1.6175 20.884-26.11 5.0966-5.2855 9.2666-9.8206 9.2666-10.078 0-0.46685 23.588-115.25 26.318-128.06 0.79076-3.7125 1.11-6.75 0.70946-6.75s-11.22 10.912-24.044 24.25c-12.824 13.338-34.252 35.54-47.618 49.34l-24.302 25.09-4.6156 21.91c-4.7402 22.501-5.7972 25.582-7.9639 23.212-0.65375-0.71511-3.7591-13.9-6.9007-29.3-14.943-73.248-41.807-200.36-47.607-225.25-1.1852-5.0875-2.5918-9.25-3.1256-9.25-0.97233 0-0.91534 2.0572 1.2189 44 1.6487 32.399 9.5851 163.99 10.494 174 0.58945 6.4901 14.078 60.323 23.34 93.149 2.6926 9.5433 5.6097 20.857 6.4824 25.141 0.87269 4.2844 2.0588 8.6719 2.6358 9.75 1.3632 2.5472 5.9114 2.5638 13.223 0.0481zm441.25-181.55c3.2954-2.9623 5.6858-5.6919 5.3119-6.0658-0.37387-0.37388-11.17-2.4368-23.992-4.5842-94.529-15.832-178.06-37.211-238.67-61.084-31.885-12.559-90.379-44.59-131.64-72.088-40.556-27.025-81.235-60.299-167.03-136.62-10.961-9.7506-16.072-13.712-16.296-12.631-0.17974 0.86668 1.1375 7.686 2.9271 15.154l3.2539 13.578 20.073 18.254c38.673 35.169 55.382 49.783 79.073 69.159 45.775 37.438 91.448 68.835 123.5 84.899 60.056 30.098 154.74 62.33 235 79.999 9.075 1.9978 22.125 4.9129 29 6.478 6.875 1.5651 15.108 3.3705 18.295 4.0119 11.299 2.2737 44.285 6.8429 49.705 6.885 5.2674 0.0409 5.7534-0.18514 11.492-5.3433zm18.326-17.286c1.6646-2.6125 4.0679-7.675 5.3407-11.25 2.1229-5.9626 2.3154-8.1536 2.3278-26.5 0.0103-15.148-0.31992-20.586-1.361-22.417-0.75602-1.3294-24.781-33.729-53.39-72-46.722-62.502-58.196-77.407-68.236-88.635-2.1899-2.4492-30.274-17.845-104-57.015-128.52-68.282-113.94-61.06-128.13-63.445-11.254-1.8905-159.71-18.537-188.54-21.141l-13.555-1.2243-8.3849 6.5603c-11.42 8.9348-24.49 22.764-30.071 31.816-5.5207 8.9552-8.7538 17.46-7.2203 18.994 0.72644 0.72644 8.4896 0.12678 25.476-1.9679 13.437-1.657 25.89-3.0156 27.673-3.0192 2.4355-0.0049 85.524 24.35 87.045 25.515 0.55142 0.42222-7.6852 18.2-22.092 47.682-10.494 21.476-14.193 29.963-13.355 30.641 1.0237 0.82888 182.16 24.799 192.05 25.414 2.1401 0.13308 4.0587-0.22635 4.2636-0.79873 0.20488-0.57239-13.921-14.606-31.391-31.186-37.721-35.798-48.204-46.274-46.311-46.274 0.77308 0 4.5436 1.0107 8.379 2.2459 8.0706 2.5993 12.709 6.3462 54.337 43.898 13.843 12.487 26.218 23.379 27.5 24.204 3.8723 2.492 193.98 67.81 195.58 67.197 0.84247-0.32329 1.264-1.3184 0.97699-2.3065-8.4054-28.936-13.651-47.399-14.18-49.914l-0.66858-3.1758 3.6569 1.1223c3.5855 1.1004 3.9832 1.778 20.353 34.676 14.56 29.26 25.536 51.969 62.979 130.3 4.4035 9.2125 8.4389 16.75 8.9675 16.75 0.52856 0 2.3229-2.1375 3.9875-4.75zm-149.18-42.5c6.508-7.2875 21.93-24.5 34.271-38.25 27.918-31.106 25.638-28.358 24.487-29.508-1.6907-1.6907-183.62-64.117-185.15-63.531-1.2522 0.48051-1.2676 0.84917-0.10477 2.5019 6.4327 9.1426 112.63 142.02 113.51 142.03 0.63279 6e-3 6.4752-5.9516 12.983-13.239zm-387.64-128.5c-0.00391-8.1125-0.29738-17.675-0.65216-21.25l-0.64505-6.5-20.439-15.826c-11.241-8.7043-20.643-15.621-20.894-15.371-0.41945 0.41945 13.42 56.232 15.697 63.304 0.93995 2.9192 1.7117 3.325 12.72 6.6878 6.4457 1.969 12.282 3.608 12.969 3.6422 0.94662 0.0471 1.2483-3.5177 1.2429-14.688z" fill="#77cafa"/>
 <path d="m135.4 590.31c-3.5154-0.69228-8.1663-6.4547-10.745-13.314-10.304-27.402-60.3-225.59-112.63-446.5-3.909-16.5-8.0634-32.475-9.2321-35.5-2.9132-7.5409-3.1123-24.029-0.38642-32 6.2837-18.375 18.97-35.116 38.517-50.83 16.067-12.916 15.288-12.605 28.404-11.341 17.583 1.6953 90.943 9.7555 151.68 16.665l55.5 6.314 113.29 60.272 113.29 60.272 59.267 79.074c32.597 43.491 60.673 81.099 62.392 83.574 4.7651 6.8624 5.6521 11.565 5.659 30 6e-3 14.863-0.26296 17.479-2.7058 26.369-4.9794 18.12-11.755 27.638-30.696 43.125-6.9762 5.704-9.6326 6.8942-81.5 36.515-187.2 77.158-324.37 131.71-361.71 143.86-12.346 4.0163-13.966 4.3199-18.395 3.4476zm15.103-15.035c2.75-0.84897 5.4873-1.9267 6.0829-2.395 0.59561-0.46831 11.171-4.6345 23.5-9.2582 24.309-9.1161 53.318-20.384 80.917-31.43 16.03-6.4157 21.069-9.1412 60-32.453 81.547-48.83 129.72-78.501 132.09-81.347 1.2648-1.524 1.1603-1.6116-1.0937-0.91655-11.367 3.5049-157.49 63.389-238.96 97.929-9.224 3.9107-11.348 4.3371-10.854 2.1793 0.17782-0.77634 7.1208-8.5717 15.429-17.323 12.644-13.319 15.222-16.551 15.823-19.838 1.4402-7.8842 26.618-129.98 27.154-131.68 0.30376-0.9625 0.14343-1.75-0.35628-1.75-0.86443 0-96.008 98.087-97.384 100.4-0.36167 0.60711-2.4986 9.8788-4.7488 20.604s-4.3254 20.512-4.6115 21.75c-0.99168 4.2891-3.2899 2.5006-4.4973-3.5-3.1726-15.767-23.101-111.67-32.469-156.25-13.745-65.413-21.389-99.76-23.034-103.5-2.8285-6.4321-1.8317 22.871 4.0142 118 0.81117 13.2 2.6385 42.9 4.0608 66l2.586 42 6.5047 25.5c3.5776 14.025 9.2298 35.4 12.561 47.5 5.6777 20.626 10.68 39.418 12.185 45.775 0.36142 1.5265 1.5525 3.6708 2.6469 4.7652 2.1413 2.1413 3.2814 2.0716 12.459-0.76173zm233.5-95.356c54.771-21.59 181.85-72.318 184-73.452 3.1539-1.6613 2.9487-1.7304-13.332-4.4831-7.0574-1.1933-18.982-3.698-26.5-5.5659s-14.287-3.402-15.043-3.4091c-0.75608-7e-3 -13.131 7.5006-27.5 16.684-14.369 9.1831-39.85 25.342-56.625 35.909-16.775 10.567-32.851 20.891-35.725 22.942-2.8735 2.0514-10.974 7.3171-18 11.701s-12.1 7.7453-11.275 7.4686c0.825-0.27662 9.825-3.7845 20-7.7953zm-232.43-54.579c0.78159-3.7638 4.993-23.936 9.3587-44.828 4.3657-20.892 7.7918-38.13 7.6136-38.309-0.73907-0.73907-22.54 67.883-22.541 70.95-9.1e-4 3.926 3.0857 20.091 3.7159 19.461 0.23735-0.23735 1.071-3.511 1.8526-7.2749zm439.69-31.055c6.0304-5.519 7.9917-8.288 5.8706-8.288-3.0556 0-53.442-8.885-77.102-13.596-87.839-17.49-158.11-38.004-206.75-60.361-19.405-8.9177-65.29-34.334-91.773-50.835-31.436-19.586-61.951-42.334-101.49-75.656-35.164-29.636-99.012-86.831-99.012-88.695 0-0.54603 0.7875-0.762 1.75-0.47994 3.0961 0.90731 91.403 27.642 101.59 30.756 11.798 3.6064 11.701 1.5449 1.1138 23.626-4.0999 8.5511-7.4544 16.358-7.4544 17.349 0 2.2748-6.3637 1.2691 75.5 11.932 37.95 4.9432 80.669 10.573 94.931 12.511 14.262 1.9379 26.525 3.2957 27.25 3.0174 2.2291-0.85538 1.4691-4.0505-1.6813-7.0688-3.7299-3.5735-3.8038-4.7258-0.25-3.8958 4.7542 1.1104 54.032 17.72 132.1 44.524 41.442 14.229 76.401 25.872 77.687 25.872 1.8326 0 2.4048-0.61831 2.6505-2.8643l0.31336-2.8643 7.3831 2.186c4.081 1.2083 8.0329 3.0485 8.836 4.1143 2.1291 2.8257 21.247 41.33 42.788 86.178 10.369 21.588 19.377 39.25 20.018 39.25 1.6965 0 3.8931-2.7933 6.8735-8.7411 4.382-8.7447 5.9323-17.252 5.9699-32.759 0.0575-23.731 5.9879-13.592-56.896-97.278-61.754-82.181-66.096-87.77-70.134-90.257-4.5399-2.7959-210.42-112.1-214.85-114.07-5.9617-2.6462-16.675-4.0629-100.99-13.354-105.34-11.608-104.72-11.544-110.87-11.544-4.8854 0-6.0096 0.43595-10.793 4.1855-17.461 13.687-29.159 26.783-35.888 40.178l-3.9498 7.8633 0.39799 10.265c0.29205 7.5324 0.94792 11.508 2.4641 14.935 1.2213 2.7609 1.8534 5.7752 1.546 7.3721-0.28604 1.4858 1.0436 9.1421 2.9548 17.014l3.4749 14.313 8.3299 7.7758c11.899 11.107 30.883 28.19 41.08 36.967 4.8125 4.142 8.75 7.8554 8.75 8.2518 0 1.9206 53.333 45.556 81 66.273 49.717 37.227 85.081 56.982 143.13 79.958 58.616 23.201 136.15 46.402 190.87 57.119 7.425 1.454 15.75 3.2804 18.5 4.0586 9.4191 2.6656 56.245 10.11 65.259 10.375 2.6356 0.0775 4.4521-0.99642 9.5-5.6162zm-128.21-62.493c7.9474-8.913 24.237-26.97 36.2-40.127 11.962-13.157 21.75-24.492 21.75-25.188s-0.7875-1.5864-1.75-1.9784c-9.4375-3.8436-183.16-63.501-184.91-63.501-1.4068 0-2.337 0.59483-2.337 1.4944 0 0.82191 10.044 13.984 22.321 29.25 12.276 15.266 37.09 46.431 55.142 69.256 32.536 41.14 37.34 47 38.525 47 0.33722 0 7.1155-7.2924 15.063-16.205zm-385.52-32.85c-0.77973-23.894-1.9146-60.095-2.522-80.445s-1.3005-37.953-1.5402-39.117c-0.25502-1.2389-4.4872-5.1511-10.2-9.4288-5.3703-4.0212-15.091-11.541-21.602-16.711-6.5109-5.17-12.058-9.1798-12.327-8.9108-0.62042 0.62042 10.109 44.752 31.709 130.42 9.3259 36.988 16.956 67.55 16.956 67.917 0 0.3663 0.21246 0.45354 0.47212 0.19387s-0.16584-20.022-0.94557-43.917z" fill="#68c6fc"/>
 <path d="m135.5 590.28c-4.9806-1.2049-8.6595-6.8357-12.938-19.803-11.631-35.25-60.868-231.34-109.2-434.91-4.7044-19.813-9.5016-38.51-10.661-41.549-3.2089-8.4161-2.9366-23.035 0.61276-32.897 7.0986-19.724 21.028-36.56 45.406-54.881l7.6484-5.7481 7.5675 0.17804c4.1621 0.097924 11.843 0.69464 17.068 1.326s51.169 5.7663 102.1 11.411l92.599 10.263 113.71 60.411 113.71 60.411 61.43 81.974c33.786 45.086 62.131 83.453 62.989 85.26 3.5068 7.39 4.2734 33.565 1.3507 46.12-2.3682 10.173-6.207 20.319-9.7762 25.838-3.7397 5.7831-19.138 20.97-26.28 25.92-4.2097 2.9173-16.412 8.1217-92.339 39.382-213.95 88.089-352.33 142.45-361.17 141.89-1.0045-0.0638-2.7263-0.33373-3.8263-0.59983zm18-15.953c3.3-1.3605 12.3-4.8662 20-7.7903 34.776-13.207 44.793-17.078 72.135-27.876 16.024-6.3286 30.932-12.423 33.129-13.544 11.081-5.6533 151.6-90.702 169.24-102.43 8.9758-5.969 8.4622-5.558 7.7872-6.233-1.3081-1.3082-54.5 20.044-175.93 70.622-42.154 17.558-76.917 31.924-77.25 31.924-2.0387 0 0.72279-3.5566 11.144-14.353 6.4625-6.6948 13.408-13.967 15.435-16.16l3.6849-3.9874 13.114-63.5c7.2129-34.925 13.607-65.873 14.208-68.774 0.60144-2.9006 0.77148-5.5959 0.37788-5.9895-0.39361-0.3936-3.0281 1.7546-5.8545 4.7738-2.8263 3.0192-22.259 23.264-43.185 44.989-20.925 21.725-40.649 42.261-43.831 45.635l-5.785 6.135-4.4763 21.301c-2.462 11.715-4.6629 21.487-4.891 21.715-0.89217 0.89217-2.4212-0.94188-2.9573-3.5471-31.36-152.42-53.322-255.77-55.649-261.89-0.49033-1.2897-1.4221-2.3448-2.0705-2.3448-1.9235 0-0.71668 24.91 8.6238 178 1.3591 22.275 2.737 43.2 3.062 46.5 0.64112 6.5096 10.919 47.847 20.637 83 3.345 12.1 7.4004 26.948 9.0119 32.996 1.6116 6.0478 3.6662 11.809 4.5659 12.804 2.0378 2.2517 6.9975 1.6308 15.729-1.9689zm283.34-113.94c81.607-32.959 103.18-41.723 126.91-51.566 3.9875-1.6538 7.25-3.3223 7.25-3.7078s-6.9973-1.9506-15.55-3.4781c-8.5523-1.5275-21.646-4.3126-29.097-6.1892-10.93-2.7529-13.963-3.1922-15.7-2.2743-1.1842 0.62574-17.678 10.916-36.653 22.868s-52.275 32.777-74 46.279c-52.283 32.493-55.643 34.624-54.657 34.655 0.46364 0.0148 41.639-16.45 91.5-36.587zm-283.45-40.386c1.4973-7.425 6.1061-29.627 10.242-49.338s7.2956-36.062 7.0222-36.335c-0.27338-0.27339-6.2214 16.979-13.218 38.338l-12.721 38.835 1.0947 6.5c1.9446 11.547 3.374 17.212 4.1242 16.346 0.40335-0.46555 1.9584-6.9214 3.4558-14.346zm439.15-26.39c3.8245-3.5144 6.6617-6.6939 6.3048-7.0656-0.3569-0.3717-12.282-2.6416-26.5-5.0441-97.55-16.484-181.6-38.155-240.59-62.028-33.238-13.453-94.699-47.581-133.76-74.275-24.361-16.647-51.438-37.869-84.01-65.842-17.934-15.402-37.339-33.34-36.728-33.95 0.37668-0.37668 41.653 12.177 42.359 12.883 0.27306 0.27306-0.20489 2.1751-1.0621 4.2267-1.7556 4.2018-1.9946 7.0985-0.65392 7.927 0.49756 0.30751 19.06 3.0411 41.25 6.0747l40.345 5.5156 74.91 22.794 74.91 22.794 8.4235 9.9402c4.6329 5.4671 26.483 32.553 48.557 60.19s40.683 50.25 41.355 50.25 11.712-11.581 24.533-25.736 27.418-30.008 32.437-35.23l9.126-9.4943 20.605 6.2474c11.333 3.4361 21.701 6.6642 23.041 7.1735 3.1684 1.2046 7.2586 8.7887 28.604 53.039 9.4187 19.525 17.716 36.103 18.438 36.841 1.0946 1.118 1.6722 0.95494 3.4757-0.98085 3.0004-3.2206 6.7003-11.142 8.8085-18.86 2.374-8.6905 2.4301-38.596 0.0825-44-1.499-3.4508-107.63-145.48-117.98-157.89l-5.3276-6.386-92-48.923c-127.89-68.006-127.32-67.714-134.17-68.853-6.0552-1.0062-152.22-17.401-186.21-20.886-22.359-2.2928-20.191-2.7788-32.764 7.3445-14.773 11.895-27.626 27.58-32.284 39.396-2.8747 7.2933-2.9123 22.449-0.076003 30.693 1.1 3.1972 1.9963 6.7552 1.9919 7.9066-0.0045 1.1514 1.3969 8.1684 3.1142 15.593l3.1224 13.5 7.1358 6.8838c3.9247 3.7861 15.011 13.903 24.636 22.483s20.879 18.982 25.009 23.116c13.201 13.216 59.006 50.558 88.895 72.471 50.32 36.892 86.531 56.233 152.1 81.239 45.981 17.537 129.26 42.083 169 49.815 4.675 0.90949 14.125 2.9326 21 4.4957 6.875 1.5631 21.275 4.225 32 5.9153 28.418 4.4787 30.989 4.8276 36.546 4.9606 4.8707 0.11654 5.2883-0.1016 12-6.269zm-512.92-60.36c-3.0624-84.291-4.6036-131.5-4.6121-141.28-0.0074-8.4414-0.3985-12.082-1.4609-13.599-0.79797-1.1393-8.7855-7.7084-17.75-14.598-8.9645-6.8896-18.662-14.421-21.549-16.736-4.7779-3.8311-5.25-4.0133-5.25-2.0265 0 3.418 50.027 206.99 50.867 206.99 0.24018 0 0.13015-8.4375-0.24451-18.75z" fill="#59c1fd"/>
 <path d="m135.5 590.28c-4.9806-1.2049-8.6595-6.8357-12.938-19.803-11.631-35.25-60.868-231.34-109.2-434.91-4.7044-19.813-9.5016-38.51-10.661-41.549-3.2089-8.4161-2.9366-23.035 0.61276-32.897 7.0986-19.724 21.028-36.56 45.406-54.881l7.6484-5.7481 7.5675 0.17804c4.1621 0.097924 11.843 0.69464 17.068 1.326s51.169 5.7663 102.1 11.411l92.599 10.263 113.71 60.411 113.71 60.411 61.43 81.974c33.786 45.086 62.131 83.453 62.989 85.26 3.5068 7.39 4.2734 33.565 1.3507 46.12-2.3682 10.173-6.207 20.319-9.7762 25.838-3.7397 5.7831-19.138 20.97-26.28 25.92-4.2097 2.9173-16.412 8.1217-92.339 39.382-213.95 88.089-352.33 142.45-361.17 141.89-1.0045-0.0638-2.7263-0.33373-3.8263-0.59983zm18-15.945c3.3-1.3559 15.9-6.2055 28-10.777 35.899-13.563 86.411-33.512 95-37.519 11.53-5.38 148.04-87.394 172.53-103.66 8.5903-5.7038 10.037-7.7966 4.2946-6.2109-8.441 2.3307-96.212 38.246-204.83 83.814-49.491 20.763-45.313 19.122-45.968 18.062-0.29633-0.47949 6.3767-8.0449 14.829-16.812 13.801-14.315 15.484-16.44 16.503-20.84 0.62464-2.6948 5.8312-27.625 11.57-55.4s11.779-56.8 13.423-64.5c1.644-7.7 2.6451-14.356 2.2247-14.791-0.66887-0.69214-92.491 93.51-97.501 100.03-1.2488 1.6248-3.4323 9.6813-6.2566 23.086-4.1479 19.686-5.6234 24.285-6.7678 21.094-0.27955-0.77947-8.8257-41.692-18.991-90.917s-21.395-103.22-24.953-120c-12.273-57.856-12.669-59.32-15.557-57.534-1.6753 1.0354-0.82606 18.506 6.9775 143.53 5.6194 90.034 5.1912 85.694 10.508 106.5 6.3003 24.655 15.807 60.234 20.441 76.5 2.1153 7.425 4.5743 16.406 5.4644 19.957 2.1618 8.6248 3.7872 10.339 9.0072 9.4987 2.2256-0.35823 6.7466-1.7607 10.047-3.1166zm232-92.813c137.86-55.672 186.5-75.613 186.5-76.466 0-0.35701-6.9973-1.8989-15.55-3.4264-8.5523-1.5275-21.676-4.3201-29.163-6.2059-7.4873-1.8857-14.218-3.4286-14.957-3.4286-0.73916 0-16.528 9.5914-35.087 21.314-18.559 11.723-56.018 35.179-83.243 52.126s-49.95 31.266-50.5 31.822c-1.8175 1.836 2.4002 0.25576 42-15.736zm-114.09-12.157c9.1537-10.701 50.266-60.034 50.934-61.119 0.42341-0.6875 0.56549-1.25 0.31573-1.25-0.6037 0-65.664 67.703-65.664 68.331 0 0.26868 2.4984-0.0923 5.5521-0.80212 4.3872-1.0198 6.2465-2.1024 8.8618-5.1598zm-109.45-88.199c6.165-29.331 10.993-53.546 10.728-53.811-0.71154-0.71155-2.5221 4.4902-15.7 45.104-6.5962 20.33-11.993 38.638-11.993 40.685 0 3.1809 1.5024 11.955 3.5523 20.746 0.31012 1.33 0.92398 1.9969 1.3807 1.5 0.45226-0.49205 5.8664-24.893 12.031-54.225zm430.3 12.75c6.0161-5.4297 8.3185-8.9204 5.8838-8.9204-2.8352 0-53.702-8.8665-75.148-13.099-92.955-18.345-164.6-39.426-213.5-62.822-39.063-18.689-100.75-55.805-132-79.417-12.568-9.4973-31.8-25.216-34-27.788-1.1-1.2864-1.3048-1.8056-0.4551-1.1538 0.8497 0.65175 55.75 17.624 122 37.717l120.46 36.532 5 5.2955c4.6265 4.9 35.12 42.207 49 59.949 3.3 4.2182 6.6724 7.9488 7.4943 8.2902 0.96767 0.40198 2.9061-0.90242 5.5-3.7011 2.2031-2.377 10.731-11.644 18.951-20.592 8.22-8.9488 15.87-16.502 17-16.785 1.5534-0.38881 59.808 16.558 88.3 25.687 2.9912 0.95838 4.189 2.9164 15.272 24.964 6.6144 13.158 12.449 23.924 12.965 23.924 3.024 0 8.8525-10.424 11.741-21 2.374-8.6905 2.4301-38.596 0.0825-44-1.499-3.4508-107.63-145.48-117.98-157.89l-5.3276-6.386-92-48.923c-127.89-68.006-127.32-67.714-134.17-68.853-6.0552-1.0062-152.22-17.401-186.21-20.886-22.359-2.2928-20.191-2.7788-32.764 7.3445-14.872 11.974-27.61 27.559-32.375 39.609-2.8193 7.1298-3.2293 22.089-0.80807 29.48 0.90095 2.75 3.336 12.568 5.4113 21.818l3.7732 16.818 11.569 10.703c6.3631 5.8869 19.174 17.444 28.468 25.682 9.2946 8.2381 17.403 16.172 18.018 17.63 1.7704 4.195 55.546 47.719 89.582 72.505 17.012 12.389 44.957 30.656 59.5 38.896 42.625 24.149 117.54 52.862 193 73.967 19.737 5.5204 64.286 16.392 69.968 17.074 2.7676 0.3325 9.5319 1.6582 15.032 2.9461 18.865 4.4172 61.326 11.221 71.014 11.379 4.7735 0.0777 5.3368-0.20982 11.75-5.9979zm-511.65-52.67c-1.4043-31.043-3.5954-97.47-4.2366-128.44-0.44463-21.476-1.0508-32.869-1.8076-33.976-0.62628-0.91631-7.1978-6.2836-14.603-11.927-7.4056-5.6436-17.257-13.309-21.891-17.034-4.6347-3.7249-8.7501-6.5728-9.1451-6.3286s-0.31115 2.1341 0.18653 4.1998c22.987 95.41 50.952 208.26 51.61 208.26 0.30541 0 0.25503-6.6375-0.11195-14.75z" fill="#4cbaf7"/>
 <path d="m136.61 590.26c-3.4227-0.83177-8.4196-6.3507-10.499-11.596-9.121-23.005-50.083-183.81-99.643-391.16-20.035-83.826-22.022-91.76-24.031-95.989-2.2316-4.6967-2.685-20.739-0.69677-24.652 0.65918-1.2974 2.3441-5.4702 3.7442-9.2729 5.2436-14.241 18.673-30.989 35.82-44.67 5.6057-4.4725 11.155-8.9373 12.332-9.9217 3.9419-3.2971 3.3706-3.2978 30.86 0.038752 4.95 0.60082 47.475 5.3605 94.5 10.577s88.2 9.8654 91.5 10.331c5.2809 0.74466 19.544 8.0419 119 60.884l113 60.038 61.683 82.201c33.926 45.21 62.101 83.379 62.61 84.819 3.2436 9.159 3.5619 11.41 3.5805 25.316 0.0109 8.1847-0.44574 15.718-1.0306 17-0.57762 1.2663-1.7922 5.4523-2.6992 9.3023-2.2235 9.4392-8.5462 22.01-13.832 27.5-8.9412 9.2874-21.258 19.307-26.701 21.721-8.9841 3.9844-81.918 34.158-142.11 58.792-144.64 59.195-251.62 101.54-284 112.42-6.875 2.309-13.4 4.5844-14.5 5.0566-2.9169 1.252-6.727 1.798-8.886 1.2734zm15.591-14.598c23.615-8.7737 65.031-24.718 93.04-35.818l32.965-13.064 56.145-33.72c60.118-36.106 104.66-63.374 116.39-71.252 7.7729-5.2188 9.2345-7.4537 4.2185-6.4505-6.2262 1.2452-79.05 30.745-185.85 75.286-34.862 14.539-63.838 26.283-64.392 26.098-0.55396-0.18466 5.708-7.3524 13.915-15.928l14.923-15.593 13.371-64.86c16.363-79.374 15.559-75.203 14.668-76.094-0.4041-0.4041-3.5168 2.1894-6.9171 5.7633-3.4003 3.5739-23.742 24.717-45.205 46.984-21.462 22.267-41.141 42.774-43.731 45.57l-4.7086 5.0833-4.1264 19.917c-2.2695 10.954-4.4953 20.311-4.9463 20.794-1.1097 1.1872-0.99657 1.6865-15.946-70.377-24.638-118.77-35.857-172.48-38.536-184.5-2.7573-12.37-4.4711-15.912-6.6464-13.736-1.8741 1.8741-1.4375 13.884 3.1711 87.236 1.0885 17.325 3.5536 57.275 5.4779 88.777 3.3307 54.525 3.6463 57.865 6.5668 69.5 12.113 48.256 28.373 107.03 30.562 110.47 1.9167 3.012 7.3269 2.9811 15.59-0.089zm246.3-98.386c121.61-49.182 174.3-70.741 175.27-71.714 1.3388-1.3388-1.9141-2.3438-14.347-4.4326-15.78-2.651-34.742-7.3305-26.925-6.6446 2.75 0.24129 14.224 1.8061 25.499 3.4773 28.28 4.192 26.362 4.3983 35.086-3.774 8.5534-8.0122 8.6642-9.5772 0.75006-10.59-11.35-1.4522-48.377-7.8783-70.335-12.207-91.705-18.078-164.5-39.447-214-62.824-26.46-12.495-100.04-55.783-103.03-60.608-0.27295-0.44164 2.9962 0.25961 7.2648 1.5583s50.961 15.448 103.76 31.442c95.486 28.925 96.018 29.101 99.367 32.811 1.8518 2.0516 9.1844 10.818 16.295 19.48 7.1103 8.6625 13.619 15.75 14.464 15.75 0.84472 0 6.0471-4.725 11.561-10.5s10.73-10.5 11.592-10.5c2.3395 0 121.51 36.189 123.06 37.371 0.73507 0.55959 3.1026 4.53 5.2612 8.8232 3.0505 6.0671 4.3988 7.8058 6.0533 7.8058 2.5394 0 3.9242-1.6237 7.8887-9.25 4.5233-8.7011 6.2205-17.377 6.3085-32.25 0.14736-24.89 6.2375-14.281-55.574-96.811-61.164-81.665-67.44-89.724-72.008-92.469-11.537-6.9343-217.71-115.65-220.64-116.35-7.0081-1.6609-199.19-22.875-207.22-22.875-4.3338 0-5.4903 0.56585-12.588 6.1591-17.417 13.725-31.434 30.553-36.348 43.634-2.9773 7.9266-3.0653 21.146-0.20427 30.707 1.1521 3.85 3.5799 13.525 5.3952 21.5 3.9226 17.233 1.6905 14.273 30.161 40 11.26 10.175 20.313 18.668 20.119 18.874-0.49895 0.52742-8.7013-5.4658-24.707-18.053-15.363-12.081-17.392-13.495-18.207-12.679-0.56973 0.56974 14.179 62.092 38.415 160.25 7.1831 29.091 13.06 53.418 13.06 54.059 0 0.64123 0.70183 2.0394 1.5596 3.107 1.4278 1.777 1.5115 0.96905 0.99014-9.5589-2.1515-43.447-4.7286-133.03-3.9645-137.81l0.61651-3.8554 23.878 7.2488c13.133 3.9868 25.35 8.2752 27.149 9.5296 1.7989 1.2544 10.921 7.9595 20.271 14.9 58.285 43.266 87.175 60.439 137.5 81.739 60.05 25.415 151.59 53.748 209.65 64.887 7.6192 1.4619 14.199 2.959 14.621 3.327 0.87159 0.75907-53.998 35.642-124.27 79.004-26.125 16.121-48.4 30.194-49.5 31.274-1.9965 1.96-1.9956 1.9622 0.5 1.2252 1.375-0.40607 28.6-11.294 60.5-24.195zm-323.4-299.53c-1.3773-2.242-1.3746-2.2432 0.75945-0.34501 2.2913 2.0381 2.5879 2.595 1.3822 2.595-0.4177 0-1.3814-1.0125-2.1417-2.25zm187.05 298.32c3.076-0.63858 6.2577-1.704 7.0704-2.3675 0.81265-0.66352 13.098-15.381 27.301-32.706 14.203-17.325 27.604-33.656 29.781-36.29 9.9277-12.018 0.22536-2.8513-34.632 32.722-33.957 34.654-40.461 41.856-36.388 40.293 0.70162-0.26924 3.7924-1.012 6.8685-1.6506zm-105.16-68.574c3.393-16.5 8.6096-41.633 11.593-55.851 8.6202-41.089 7.763-39.752-10.66 16.62l-14.304 43.768 2.3397 12.232c2.674 13.979 3.0216 15.174 4.0878 14.049 0.42609-0.44947 3.5508-14.317 6.9437-30.817z" fill="#39b7fd"/>
 <path d="m130.86 586.15c-4.3371-4.5396-8.1549-15.578-18.211-52.653-18.357-67.676-60.162-236.27-94.72-382-11.135-46.955-14.761-60.679-16.297-61.688-1.3625-0.89525-1.399-21.696-0.039721-22.624 0.55386-0.37828 1.592-2.7128 2.3069-5.1878 4.9494-17.134 20.879-36.806 44.103-54.464 3.575-2.7183 6.8211-5.4134 7.2136-5.989 0.86826-1.2735 16.925-0.93114 21.266 0.45341 1.6611 0.5298 22.595 3.0349 46.52 5.5668 23.925 2.532 68.25 7.4284 98.5 10.881l55 6.2773 113.03 60.138 113.03 60.138 58.97 78.619c32.434 43.24 60.658 81.1 62.72 84.134 2.0625 3.0335 3.75 6.7147 3.75 8.1805s0.52941 3.1944 1.1765 3.8415c1.4979 1.4979 1.6244 31.211 0.14676 34.46-0.56634 1.2452-1.7815 5.414-2.7004 9.264-2.0005 8.3819-7.1466 19.502-11.558 24.975-1.7623 2.1865-7.953 8.1128-13.757 13.17-12.048 10.497-3.4124 6.4799-95.807 44.565-180.2 74.28-331.92 134.47-354.78 140.75-2.6267 0.72175-5.0157 1.7006-5.309 2.1751-0.29329 0.47456-2.8692 0.85494-5.7242 0.84529-4.6995-0.0159-5.5358-0.37839-8.8325-3.8291zm21.642-10.632c19.039-6.9609 54.731-20.63 88-33.701l38-14.93 59-35.371c59.322-35.564 97.952-59.134 113.25-69.1 8.7344-5.6902 10.99-9.2174 5.1465-8.0487-5.9143 1.1828-85.854 33.702-188.4 76.638-63.418 26.554-62.769 26.294-62.34 25.031 0.18719-0.5511 6.4411-7.4231 13.898-15.271 7.4565-7.848 13.884-14.813 14.284-15.478 0.39953-0.66499 5.2211-22.94 10.715-49.5 5.4934-26.56 12.059-57.887 14.591-69.616 5.3831-24.939 5.1428-26.813-2.3957-18.675-2.5473 2.75-24.683 25.874-49.191 51.386-24.508 25.512-45.05 47.337-45.65 48.5-0.59949 1.1626-2.7986 10.439-4.887 20.614-2.0884 10.175-4.1605 18.903-4.6047 19.395-1.0108 1.1198 0.0135 5.6465-12.988-57.395-6.0684-29.425-15.05-72.939-19.959-96.698-9.0639-43.866-15.207-75.469-14.733-75.788 0.14388-0.0968 27.712 8.213 61.262 18.466 55.816 17.058 62.105 19.2 74 25.207 57.821 29.199 139 57.775 224.01 78.855 15.404 3.8199 31.593 7.3999 35.975 7.9555 4.3819 0.55558 8.7738 1.2662 9.7599 1.5792 1.878 0.59605 1.8977 0.5826-42.242 28.761-15.026 9.5924-117.33 73.61-131.99 82.598-0.82042 0.5028-1.1869 1.2189-0.81444 1.5914 0.74207 0.74208 7.9248-2.0904 102.81-40.541 101.75-41.235 135.39-55.134 136.93-56.574 1.8389-1.7244 1.9403-1.6934-14.428-4.4209-12.655-2.1088-29.867-5.9581-29.277-6.5476 0.16124-0.16124 11.09 1.243 24.285 3.1206 13.196 1.8776 25.753 3.4187 27.905 3.4248 3.605 0.0101 4.6064-0.69121 12.729-8.9149 4.8489-4.9093 9.6912-9.2036 10.761-9.5431 2.6293-0.83451 7.4944-8.691 9.9691-16.099 3.9125-11.712 4.9868-32.632 2.4325-47.366-0.4314-2.4883-15.46-23.268-54.602-75.5-57.762-77.078-67.634-89.861-71.034-91.98-7.1684-4.4686-216.89-115.24-220.17-116.29-2.2-0.70351-21.775-3.2927-43.5-5.7538-75.838-8.5912-150.57-16.636-160.01-17.225l-9.5126-0.59348-7.9874 6.333c-24.303 19.269-36.597 36.461-38.802 54.259-0.86334 6.9684-0.76019 9.4475 0.61483 14.777 0.90872 3.5222 3.4862 14.054 5.7278 23.404 2.2416 9.35 4.7172 17.981 5.5015 19.181 0.78426 1.1994 11.111 11.024 22.948 21.833 11.837 10.809 21.522 19.862 21.522 20.117 0 0.85584-8.8221-5.5928-24.162-17.662-13.15-10.345-17.838-13.376-17.838-11.532 0 0.88574 3.4283 15.244 16.012 67.062 23.714 97.652 36.928 150.57 38.026 152.29 1.141 1.7886 0.97348-9.689-1.083-74.202-0.54191-17-0.70073-32.426-0.35293-34.28 0.67605-3.6037 1.4192-3.6982 7.3984-0.94093 2.2819 1.0523 2.5629 1.8934 3.2215 9.6418 0.9983 11.745 5.1596 74.978 8.752 132.99 1.6519 26.675 3.2631 50.975 3.5804 54 1.0531 10.038 30.234 120 33.429 125.97 2.3606 4.4109 5.6631 4.5215 16.517 0.55327zm112.69-99.573c3.4804-0.93717 6.4889-4.1732 28.122-30.249 41.013-49.436 45.665-55.166 45.622-56.2-0.0429-1.0186-44.724 44.072-72.249 72.911l-15.186 15.911 4.8968-0.66164c2.6933-0.3639 6.6506-1.1339 8.7942-1.7111zm-105.66-78.444c4.7091-22.51 10.341-48.93 12.516-58.711s3.9399-19.023 3.9224-20.539c-0.0306-2.6509-0.0881-2.6811-1.5138-0.7957-0.81507 1.078-3.5364 8.503-6.0473 16.5-2.5109 7.997-9.264 28.802-15.007 46.232l-10.441 31.692 2.5774 12.808c3.1092 15.451 3.2522 15.919 4.4803 14.691 0.52305-0.52305 4.8039-19.368 9.513-41.879z" fill="#27b1fd"/>
 <path d="m130.91 586.2c-4.1043-4.2964-6.5712-11.09-15.324-42.202-15.111-53.71-55.557-216.08-94.159-378-14.702-61.671-18.203-75.143-19.795-76.19-1.3304-0.87403-1.3227-21.737 0.0084324-22.65 0.52907-0.36296 1.5539-2.6849 2.2775-5.1599 4.8497-16.589 21.077-37.022 41.674-52.476 4.352-3.2651 8.4935-6.63 9.2035-7.4775 1.0214-1.2193 3.1712-1.4846 10.3-1.2709 4.9553 0.14853 9.7744 0.67138 10.709 1.1619 0.93473 0.4905 15.65 2.3247 32.7 4.076 17.05 1.7513 61.825 6.6803 99.5 10.953l68.5 7.7693 113.04 60.171 113.04 60.171 61.572 82.211c33.865 45.216 62.082 83.194 62.705 84.395s1.1329 3.2488 1.1329 4.55 0.52941 2.8952 1.1765 3.5422c1.5396 1.5396 1.6229 31.259 0.0967 34.46-0.5939 1.2452-1.7955 5.414-2.6702 9.264s-3.374 10.63-5.5541 15.066c-3.2209 6.5546-5.6117 9.6486-12.756 16.508-17.561 16.86-6.5813 11.603-130.52 62.494-170.39 69.966-287.38 116.37-321.28 127.42-5.5 1.7936-10.428 3.655-10.95 4.1366-0.5225 0.48158-3.2225 0.8677-6 0.85805-4.5246-0.0157-5.424-0.409-8.6442-3.78zm22.094-10.888c3.575-1.3203 11.225-4.1315 17-6.2471 39.234-14.373 105.64-40.76 113.93-45.276 15.786-8.5903 157.3-93.975 173.31-104.57 4.3534-2.881 5.0936-6.222 1.3784-6.222-1.3095 0-5.266 1.0859-8.7922 2.4132-18.349 6.9065-130.98 53.432-216.72 89.519-14.518 6.1105-26.622 10.883-26.899 10.606-0.277-0.27699 5.8194-6.9928 13.548-14.924 7.7282-7.9312 14.306-15.251 14.618-16.267s5.7684-26.912 12.126-57.548c12.507-60.27 17.449-81.374 19.007-81.167 4.6171 0.61439 211.17 64.077 210.75 64.754-1.0785 1.7562-41.736 27.848-91.258 58.566-27.775 17.228-51.388 32.162-52.472 33.186-1.7669 1.6682-1.7926 1.8621-0.24648 1.8621 2.3672 0 147.12-58.511 235.47-95.178 3.9875-1.655 7.25-3.5608 7.25-4.2353 0-0.79615-4.6479-1.9973-13.25-3.4243-14.08-2.3356-27.113-5.1333-26.547-5.6988 0.18766-0.18766 7.9813 0.74946 17.319 2.0825 9.3379 1.333 20.596 2.7145 25.018 3.07l8.0401 0.64633 7.7099-6.8048c4.2404-3.7426 7.7099-7.1711 7.7099-7.6188s1.6875-1.8894 3.75-3.2036c4.882-3.1108 9.5937-11.147 12.392-21.136 1.8397-6.5674 2.247-10.597 2.274-22.5 0.0546-24.025 4.3311-16.18-44.305-81.272-56.313-75.366-78.663-104.73-80.831-106.21-2.7996-1.9081-213.15-113.57-218.76-116.12-4.3984-2.0041-16.886-3.6065-100.52-12.898-52.525-5.8355-100-10.86-105.5-11.165l-10-0.55519-6.909 5.2669c-16.591 12.648-29.66 27.538-36.105 41.135-3.1263 6.5962-3.7137 8.9869-4.1766 17-0.4426 7.6612-0.18221 10.395 1.4599 15.324 1.0992 3.3 3.6725 13.2 5.7185 22 4.3746 18.816 2.0432 15.642 30.262 41.201 10.038 9.0915 18.25 16.725 18.25 16.963 0 0.82445-9.1677-5.8821-23.691-17.331-15.662-12.347-17.309-13.394-17.309-11.01 0 1.9766 6.1038 27.615 25.874 108.68 22.405 91.867 27.789 113.06 29.037 114.31 1.4076 1.4076 1.4046-0.85179-0.05509-41.568-0.64589-18.016-0.89051-33.041-0.54362-33.388 0.3469-0.3469 2.6587-0.0629 5.1373 0.63105 3.9194 1.0974 4.5693 1.6691 4.9877 4.388 0.87691 5.698 2.5754 28.647 5.0789 68.626 5.4864 87.61 5.1846 84.473 9.9951 103.91 9.402 37.995 27.298 102.99 29.48 107.07 2.3849 4.4563 5.6673 4.5203 17.009 0.33156zm-2.3718-90.897c-13.025-62.871-33.905-165.55-35.213-173.16-0.96836-5.634-1.4596-10.545-1.0918-10.913 0.61722-0.61723 54.345 15.215 56.816 16.742 1.3815 0.85379-2.7373 15.137-17.269 59.886-5.9783 18.409-10.87 34.384-10.87 35.5-4.1e-4 1.1156 1.1886 7.9908 2.6422 15.278 1.8123 9.0854 3.0638 13.25 3.9817 13.25 0.73628 0 1.5763-1.0125 1.8668-2.25s4.5774-21.6 9.5266-45.25c9.307-44.474 15.718-72.447 16.903-73.751 0.70596-0.7769 76.879 21.87 78.484 23.335 0.52146 0.47556-0.16676 2.2188-1.6267 4.1204-3.7588 4.896-27.532 30.185-62.945 66.959l-31.454 32.663-3.83 18.837c-4.2285 20.797-4.9937 23.222-5.9191 18.755zm111.27-7.1233 7.4003-1.7311 37.453-44.961c20.599-24.728 37.952-45.76 38.562-46.736s0.74118-2.1335 0.29181-2.571-5.1098 3.7045-10.357 9.2045c-5.2468 5.5-26.237 27.234-46.645 48.298s-37.256 38.726-37.439 39.25c-0.48886 1.3962 2.4156 1.1924 10.734-0.75344z" fill="#17acfd"/>
 <path d="m130.91 586.2c-4.1043-4.2964-6.5712-11.09-15.324-42.202-15.111-53.71-55.557-216.08-94.159-378-14.702-61.671-18.203-75.143-19.795-76.19-1.3304-0.87403-1.3227-21.737 0.0084324-22.65 0.52907-0.36296 1.5539-2.6849 2.2775-5.1599 4.8497-16.589 21.077-37.022 41.674-52.476 4.352-3.2651 8.4935-6.63 9.2035-7.4775 1.0214-1.2193 3.1712-1.4846 10.3-1.2709 4.9553 0.14853 9.7744 0.67138 10.709 1.1619 0.93473 0.4905 15.65 2.3247 32.7 4.076 17.05 1.7513 61.825 6.6803 99.5 10.953l68.5 7.7693 113.04 60.171 113.04 60.171 61.572 82.211c33.865 45.216 62.082 83.194 62.705 84.395s1.1329 3.2488 1.1329 4.55 0.52941 2.8952 1.1765 3.5422c1.5396 1.5396 1.6229 31.259 0.0967 34.46-0.5939 1.2452-1.7955 5.414-2.6702 9.264s-3.374 10.63-5.5541 15.066c-3.2209 6.5546-5.6117 9.6486-12.756 16.508-17.561 16.86-6.5813 11.603-130.52 62.494-170.39 69.966-287.38 116.37-321.28 127.42-5.5 1.7936-10.428 3.655-10.95 4.1366-0.5225 0.48158-3.2225 0.8677-6 0.85805-4.5246-0.0157-5.424-0.409-8.6442-3.78zm22.094-10.888c3.575-1.3203 11.225-4.1315 17-6.2471 39.143-14.34 105.63-40.757 113.89-45.254 6.3105-3.4338 93.216-54.819 139.02-82.199 13.12-7.8426 16.088-9.3613 16.088-8.2301 0 0.68219-22.587 15.196-81 52.049-14.575 9.1954-26.928 17.135-27.45 17.643-3.1645 3.0771 8.8071-1.238 53.204-19.177 80.461-32.511 138.24-56.086 184-75.077 3.9875-1.655 7.25-3.5608 7.25-4.2353 0-0.79615-4.6479-1.9973-13.25-3.4243-14.08-2.3356-27.113-5.1333-26.547-5.6988 0.18766-0.18766 7.9813 0.74946 17.319 2.0825 9.3379 1.333 20.596 2.7145 25.018 3.07l8.0401 0.64633 7.7099-6.8048c4.2404-3.7426 7.7099-7.1711 7.7099-7.6188s1.6875-1.8894 3.75-3.2036c4.882-3.1108 9.5937-11.147 12.392-21.136 1.8397-6.5674 2.247-10.597 2.274-22.5 0.0546-24.025 4.3311-16.18-44.305-81.272-56.313-75.366-78.663-104.73-80.831-106.21-2.7996-1.9081-213.15-113.57-218.76-116.12-4.3984-2.0041-16.886-3.6065-100.52-12.898-52.525-5.8355-100-10.86-105.5-11.165l-10-0.55519-6.909 5.2669c-16.591 12.648-29.66 27.538-36.105 41.135-3.1263 6.5962-3.7137 8.9869-4.1766 17-0.4426 7.6612-0.18221 10.395 1.4599 15.324 1.0992 3.3 3.6725 13.2 5.7185 22 4.3746 18.816 2.0432 15.642 30.262 41.201 10.038 9.0915 18.25 16.725 18.25 16.963 0 0.82445-9.1677-5.8821-23.691-17.331-15.662-12.347-17.309-13.394-17.309-11.01 0 1.9766 6.1038 27.615 25.874 108.68 24.077 98.722 27.779 113.08 29.613 114.88 1.5406 1.5074 1.6065 0.10857 0.9469-20.082l-0.709-21.702 5.1034 1.632c4.8749 1.5589 5.1261 1.8142 5.6099 5.7021 0.48672 3.9114 2.8807 36.651 6.0742 83.07 2.211 32.137 2.9063 37.294 7.484 55.5 10.253 40.777 26.91 101.09 28.995 104.98 2.3849 4.4563 5.6673 4.5203 17.009 0.33156zm53-59.996c0-0.37512 6.4221-7.2376 14.271-15.25l14.271-14.568 2.794-13.5c8.4648-40.9 19.929-92.621 20.706-93.419 0.86424-0.88711 64.508 17.728 66.272 19.384 1.1605 1.0894-3.7364 6.539-38.127 42.431-34.943 36.468-35.787 37.411-34.577 38.596 0.80016 0.78371 13.524-1.7428 17.39-3.453 0.825-0.36499 10.95-11.948 22.5-25.739 30.204-36.066 41.416-48.8 42.966-48.8 1.0921 0 76.972 22.642 82.534 24.627 2.1881 0.78111-1.1079 2.315-40.5 18.848-55.367 23.237-94.177 39.586-133.31 56.153-19.969 8.4546-36.507 15.372-36.75 15.372-0.24342 0-0.44258-0.30692-0.44258-0.68204zm-55.27-30.35c-0.71791-2.9737-28.35-142.3-28.995-146.2-0.53841-3.2545-2.5123-3.5975 21.264 3.6949l17.5 5.3674-0.0997 3.3356c-0.0549 1.8346-3.823 15.036-8.3736 29.336-4.5506 14.3-8.5975 27.359-8.993 29.02-0.79725 3.3475 3.9487 29.863 5.6496 31.564 0.66864 0.66864 1.3322 0.57197 1.9965-0.2909 0.54724-0.71081 3.5862-13.442 6.7532-28.292 5.9568-27.931 13.37-60.636 13.854-61.12 0.19795-0.19795 46.104 13.494 59.996 17.894 1.5776 0.4997-5.0321 7.925-37.379 41.992-18.163 19.129-33.424 36.008-33.913 37.507s-2.2793 9.927-3.9794 18.727c-1.7001 8.8-3.4499 16.886-3.8885 17.968-0.74282 1.8331-0.83832 1.7988-1.3933-0.5z" fill="#0ba5f7"/>
 <path d="m130.91 586.2c-4.1043-4.2964-6.5712-11.09-15.324-42.202-15.111-53.71-55.557-216.08-94.159-378-14.702-61.671-18.203-75.143-19.795-76.19-1.3304-0.87403-1.3227-21.737 0.0084324-22.65 0.52907-0.36296 1.5539-2.6849 2.2775-5.1599 4.8497-16.589 21.077-37.022 41.674-52.476 4.352-3.2651 8.4935-6.63 9.2035-7.4775 1.0214-1.2193 3.1712-1.4846 10.3-1.2709 4.9553 0.14853 9.7744 0.67138 10.709 1.1619 0.93473 0.4905 15.65 2.3247 32.7 4.076 17.05 1.7513 61.825 6.6803 99.5 10.953l68.5 7.7693 113.04 60.171 113.04 60.171 61.572 82.211c33.865 45.216 62.082 83.194 62.705 84.395s1.1329 3.2488 1.1329 4.55 0.52941 2.8952 1.1765 3.5422c1.5396 1.5396 1.6229 31.259 0.0967 34.46-0.5939 1.2452-1.7955 5.414-2.6702 9.264s-3.374 10.63-5.5541 15.066c-3.2209 6.5546-5.6117 9.6486-12.756 16.508-17.561 16.86-6.5813 11.603-130.52 62.494-170.39 69.966-287.38 116.37-321.28 127.42-5.5 1.7936-10.428 3.655-10.95 4.1366-0.5225 0.48158-3.2225 0.8677-6 0.85805-4.5246-0.0157-5.424-0.409-8.6442-3.78zm21.594-10.69c33.614-12.339 44.919-16.68 113.67-43.647 8.3677-3.2822 19.405-8.9146 32.5-16.586 28.913-16.937 55.475-32.279 55.885-32.279 0.1962 0 2.7355-1.4026 5.6428-3.1168 6.811-4.0159 9.8651-5.2034 9.2339-3.5903-0.25976 0.66388-9.3507 7.057-20.202 14.207-14.196 9.3537-19.134 13.085-17.607 13.303 2.5162 0.35902 128.94-50.496 236.13-94.98 3.9875-1.655 7.25-3.5608 7.25-4.2353 0-0.79615-4.6479-1.9973-13.25-3.4243-14.08-2.3356-27.113-5.1333-26.547-5.6988 0.18766-0.18766 7.9813 0.74946 17.319 2.0825 9.3379 1.333 20.596 2.7145 25.018 3.07l8.0401 0.64633 7.7099-6.8048c4.2404-3.7426 7.7099-7.1711 7.7099-7.6188s1.6875-1.8894 3.75-3.2036c4.882-3.1108 9.5937-11.147 12.392-21.136 1.8397-6.5674 2.247-10.597 2.274-22.5 0.0546-24.025 4.3311-16.18-44.305-81.272-56.313-75.366-78.663-104.73-80.831-106.21-2.7996-1.9081-213.15-113.57-218.76-116.12-4.3984-2.0041-16.886-3.6065-100.52-12.898-52.525-5.8355-100-10.86-105.5-11.165l-10-0.55519-6.909 5.2669c-16.591 12.648-29.66 27.538-36.105 41.135-3.1263 6.5962-3.7137 8.9869-4.1766 17-0.4426 7.6612-0.18221 10.395 1.4599 15.324 1.0992 3.3 3.6725 13.2 5.7185 22 4.3746 18.816 2.0432 15.642 30.262 41.201 10.038 9.0915 18.25 16.725 18.25 16.963 0 0.82445-9.1677-5.8821-23.691-17.331-15.675-12.356-17.309-13.395-17.309-11.001 0 1.9116 6.6037 29.673 25.493 107.17 23.33 95.714 27.406 111.69 29.841 117 1.2627 2.75 3.5862 9.1547 5.1634 14.233 2.647 8.5224 3.1145 9.3142 6.0778 10.292 3.8495 1.2704 3.5804-0.1315 6.4262 33.475 1.1178 13.2 2.9802 28.275 4.1386 33.5 4.3997 19.845 28.017 107.56 31.044 115.29 2.3622 6.0366 5.7436 6.4706 17.316 2.2225zm53.5-60.194c0-0.37512 6.4125-7.2376 14.25-15.25l14.25-14.568 3.8268-17.5c2.1047-9.625 4.7002-20.5 5.7677-24.167l1.9409-6.6671 7.7323 2.41c4.2528 1.3255 11.22 3.4206 15.482 4.6557 4.2625 1.2351 7.75 2.5479 7.75 2.9173 0 1.1722-7.4291 10.024-16.868 20.098-12.163 12.981-12.107 13.638 0.89893 10.664 7.0054-1.6021 8.9706-2.4962 11.371-5.1737 14.136-15.766 17.985-19.725 19.708-20.272 1.1664-0.37021 9.1947 1.5431 19.413 4.6265 20.488 6.1826 20.653 4.888-1.9033 14.948-16.793 7.4898-102.35 43.96-103.13 43.96-0.27142 0-0.4935-0.30692-0.4935-0.68204zm-55.278-30.35c-3.192-13.041-15.339-79.688-14.648-80.37 0.23426-0.23153 1.6164-0.19222 3.0715 0.0873 2.5064 0.48157 2.6719 0.88465 3.1467 7.6617 0.27561 3.9344 1.6135 11.797 2.9731 17.472 2.3208 9.6876 3.926 13.323 5.2831 11.966 0.31998-0.31999 2.2631-7.1382 4.3181-15.151 2.055-8.0133 3.9799-14.813 4.2775-15.111 0.48939-0.48938 23.826 6.1515 24.741 7.0406 0.73202 0.71103-2.6456 4.9787-13.106 16.56-5.7743 6.3929-10.752 12.693-11.062 14-0.30981 1.3071-1.9656 9.5766-3.6796 18.377-1.714 8.8-3.4752 16.886-3.9138 17.968-0.74308 1.8337-0.83869 1.7996-1.4016-0.5z" fill="#079be9"/>
 <path d="m130.91 586.2c-4.1043-4.2964-6.5712-11.09-15.324-42.202-15.111-53.71-55.557-216.08-94.159-378-14.702-61.671-18.203-75.143-19.795-76.19-1.3304-0.87403-1.3227-21.737 0.0084324-22.65 0.52907-0.36296 1.5539-2.6849 2.2775-5.1599 4.8497-16.589 21.077-37.022 41.674-52.476 4.352-3.2651 8.4935-6.63 9.2035-7.4775 1.0214-1.2193 3.1712-1.4846 10.3-1.2709 4.9553 0.14853 9.7744 0.67138 10.709 1.1619 0.93473 0.4905 15.65 2.3247 32.7 4.076 17.05 1.7513 61.825 6.6803 99.5 10.953l68.5 7.7693 113.04 60.171 113.04 60.171 61.572 82.211c33.865 45.216 62.082 83.194 62.705 84.395s1.1329 3.2488 1.1329 4.55 0.52941 2.8952 1.1765 3.5422c1.5396 1.5396 1.6229 31.259 0.0967 34.46-0.5939 1.2452-1.7955 5.414-2.6702 9.264s-3.374 10.63-5.5541 15.066c-3.2209 6.5546-5.6117 9.6486-12.756 16.508-17.561 16.86-6.5813 11.603-130.52 62.494-170.39 69.966-287.38 116.37-321.28 127.42-5.5 1.7936-10.428 3.655-10.95 4.1366-0.5225 0.48158-3.2225 0.8677-6 0.85805-4.5246-0.0157-5.424-0.409-8.6442-3.78zm22.094-10.888c3.575-1.3203 11.225-4.1275 17-6.2382 31.608-11.552 101.57-39.223 118.5-46.87 6.05-2.7321 18.425-7.7839 27.5-11.226 49.825-18.899 256.15-103.04 258.93-105.6 1.8807-1.7268 1.8755-1.7284-15.928-4.8274-24.804-4.3175-26.81-6.023-3-2.5502 7.425 1.083 17.148 2.261 21.606 2.6177l8.1063 0.6486 8.8937-7.9877c13.843-12.433 14.867-13.493 17.656-18.285 5.0173-8.6206 7.1168-18.893 7.1534-35 0.0546-24.025 4.3311-16.18-44.305-81.272-56.313-75.366-78.663-104.73-80.831-106.21-2.7996-1.9081-213.15-113.57-218.76-116.12-4.3984-2.0041-16.886-3.6065-100.52-12.898-52.525-5.8355-100-10.86-105.5-11.165l-10-0.55519-6.909 5.2669c-16.655 12.696-29.659 27.536-36.172 41.276-3.2313 6.8175-3.7678 9.0168-4.1958 17.2-0.42715 8.1663-0.15319 10.459 2.1131 17.683 1.4322 4.5652 4.0147 14.375 5.7391 21.8 3.6955 15.913 1.8327 13.483 29.674 38.701 10.038 9.0915 18.25 16.734 18.25 16.983 0 0.7347-5.5861-3.3616-21.313-15.629-18.259-14.242-18.595-14.48-19.37-13.705-0.34629 0.34629 0.08904 3.8967 0.9674 7.8898 4.1128 18.697 36.418 151.27 49.287 202.26 21.901 86.779 24.006 95.217 26.441 106 4.8846 21.63 28.164 108.1 31.172 115.79 2.3917 6.1122 5.7229 6.4907 17.816 2.0245z" fill="#0a88c8"/>
</svg>
