<?xml version="1.0" encoding="UTF-8" standalone="no"?>
<!-- Created with Inkscape (http://www.inkscape.org/) -->

<svg
   xmlns:dc="http://purl.org/dc/elements/1.1/"
   xmlns:cc="http://creativecommons.org/ns#"
   xmlns:rdf="http://www.w3.org/1999/02/22-rdf-syntax-ns#"
   xmlns:svg="http://www.w3.org/2000/svg"
   xmlns="http://www.w3.org/2000/svg"
   xmlns:sodipodi="http://sodipodi.sourceforge.net/DTD/sodipodi-0.dtd"
   xmlns:inkscape="http://www.inkscape.org/namespaces/inkscape"
   version="1.1"
   id="svg17622"
   width="20"
   height="20"
   viewBox="0 0 20 20.000001"
   sodipodi:docname="task_mrbump_20x20.svg"
   inkscape:version="0.92.2 5c3e80d, 2017-08-06">
  <metadata
     id="metadata17628">
    <rdf:RDF>
      <cc:Work
         rdf:about="">
        <dc:format>image/svg+xml</dc:format>
        <dc:type
           rdf:resource="http://purl.org/dc/dcmitype/StillImage" />
        <dc:title></dc:title>
      </cc:Work>
    </rdf:RDF>
  </metadata>
  <defs
     id="defs17626" />
  <sodipodi:namedview
     pagecolor="#ffffff"
     bordercolor="#666666"
     borderopacity="1"
     objecttolerance="10"
     gridtolerance="10"
     guidetolerance="10"
     inkscape:pageopacity="0"
     inkscape:pageshadow="2"
     inkscape:window-width="1440"
     inkscape:window-height="851"
     id="namedview17624"
     showgrid="false"
     inkscape:zoom="27.111427"
     inkscape:cx="19.095675"
     inkscape:cy="10.58194"
     inkscape:window-x="0"
     inkscape:window-y="1"
     inkscape:window-maximized="1"
     inkscape:current-layer="svg17622"
     inkscape:pagecheckerboard="true" />
  <g
     id="g17632"
     transform="matrix(0.14147351,0,0,0.16092817,2.4828052,-0.61246717)">
    <path
       style="fill:#d0eef2;stroke-width:0.31999999"
       d="M 84.48,126.17884 C 79.047584,124.2131 73.493616,123.32946 60.775638,122.40745 53.389085,121.87195 49.370672,121.32077 45.28,120.28202 40.019056,118.9461 38.4,117.73938 38.4,115.1542 c 0,-1.34114 0.161389,-1.73099 1.186134,-2.86527 0.652375,-0.7221 2.704375,-2.31769 4.56,-3.54575 3.05162,-2.01958 3.487527,-2.21498 4.563869,-2.04583 0.654503,0.10286 4.110503,0.40009 7.68,0.66051 13.273143,0.96837 18.505111,1.74499 23.929997,3.55212 3.780954,1.25951 5.52504,2.26744 6.20767,3.5875 0.410759,0.79432 2.43233,11.07078 2.43233,12.36449 0,0.72705 -1.007453,0.57343 -4.48,-0.68313 z M 37.440538,110.32 C 36.926134,109.10861 35.247827,98.77408 35.419587,97.875568 35.975248,94.968816 42.789846,90.521472 55.2,84.966477 65.766509,80.23673 71.125027,77.18239 75.972272,73.126342 c 2.055933,-1.720352 2.606912,-2.04063 2.929053,-1.70264 0.541357,0.567991 2.480179,11.642983 2.222566,12.695805 -0.362845,1.482883 -1.538745,2.877175 -4.323891,5.126938 -4.329296,3.497085 -9.9076,6.590025 -19.69608,10.920665 -8.231011,3.64159 -12.372026,5.93015 -16.598701,9.17342 -1.218128,0.93471 -2.337216,1.69947 -2.486857,1.69947 -0.149645,0 -0.409668,-0.324 -0.577824,-0.72 z M 7.7438672,103.08803 C 2.7282462,98.383494 1.2070801,96.766019 0.48489517,95.369466 -0.16749956,94.107875 -0.1441717,94.085139 4.32,91.632054 c 1.936,-1.06384 4.5794726,-2.593804 5.874383,-3.39992 1.294911,-0.806112 2.554911,-1.38871 2.8,-1.294659 0.25744,0.09879 0.445617,0.621219 0.445617,1.237155 0,1.019332 0.06367,1.075703 1.449761,1.283562 2.562679,0.384294 17.629817,-0.05906 22.444053,-0.660426 4.3396,-0.542076 5.799572,-0.50664 5.405367,0.1312 -0.09976,0.161418 -1.39824,1.103156 -2.885507,2.092746 -3.40201,2.263622 -5.364605,4.213994 -5.913261,5.876435 -0.356055,1.078855 -0.356685,1.812119 -0.0038,4.382623 0.356275,2.59495 0.354432,3.12989 -0.01155,3.35608 -0.873322,0.53974 -11.108112,0.93216 -17.125098,0.6566 l -3.2,-0.14655 -0.100274,1.02655 c -0.174187,1.78321 -1.086914,1.29395 -5.7558586,-3.08542 z M 100.54139,101.08038 C 94.058752,99.49017 89.53055,99.094669 80.16,99.300243 c -4.576,0.100387 -9.976,0.4056 -12,0.678243 -6.938499,0.934664 -7.320762,0.592174 -2.220678,-1.989635 5.17071,-2.617568 8.23176,-4.458761 11.020678,-6.628841 3.961613,-3.082564 5.136794,-4.504144 6.058835,-7.329197 0.186842,-0.572461 0.453898,-0.596688 4.429997,-0.401879 4.512352,0.221082 8.533485,0.786756 13.191168,1.855671 4.68556,1.075315 4.32,0.323155 4.32,8.888534 0,5.567642 -0.0957,7.351461 -0.4,7.456651 -0.22,0.076 -2.02837,-0.26119 -4.01861,-0.74941 z M 14.505175,85.754109 C 8.4648118,85.166122 1.3750197,83.660733 0.4932159,82.778931 0.07763914,82.363354 0,81.131942 0,74.956192 c 0,-6.757888 0.0436751,-7.331424 0.56,-7.353888 0.308,-0.01341 2,0.322784 3.76,0.747069 5.954417,1.435443 9.442787,1.799337 18.099873,1.888118 6.723238,0.06895 8.354603,0.174243 9.161084,0.591293 2.971382,1.53656 10.492982,2.923008 19.402144,3.576371 7.014633,0.514429 14.666441,1.308663 15.675097,1.627027 1.347792,0.425408 0.251088,1.312528 -4.578198,3.703287 l -4.96,2.455472 -7.627824,1.156806 c -4.195302,0.636243 -10.099302,1.444202 -13.12,1.795466 -6.240015,0.725625 -17.466482,1.039261 -21.867001,0.610896 z M 91.685648,82.16 C 91.611802,81.94 91.50832,81.4 91.455693,80.96 91.371981,80.260166 91.159664,80.133459 89.76,79.948035 c -0.88,-0.116582 -2.782934,-0.224582 -4.228742,-0.24 -2.175188,-0.0232 -2.681354,-0.126345 -2.933687,-0.59783 -0.498761,-0.931946 -2.718717,-14.012944 -2.482553,-14.628371 0.201379,-0.524791 0.630643,-0.549543 5.811212,-0.335085 L 91.52,64.37831 v -0.989155 c 0,-1.937184 1.064554,-1.250608 6.777094,4.370845 2.995766,2.948 5.733886,5.761075 6.084706,6.25128 0.83833,1.171421 0.53893,1.519533 -2.71314,3.154643 -1.38987,0.698813 -4.042426,2.198359 -5.894577,3.332323 -3.54647,2.171303 -3.872867,2.303965 -4.088435,1.661754 z M 68.16,74.523203 C 65.431581,73.980032 59.022246,73.292256 52.022733,72.791536 44.293606,72.238624 39.402566,71.503398 35.071715,70.243453 c -3.160479,-0.919459 -4.447316,-1.681296 -5.156543,-3.052791 -1.427225,-2.759948 0.06065,-5.08743 5.553929,-8.688032 2.373693,-1.555849 2.506342,-1.600496 4.210899,-1.41728 0.968,0.104048 4.784,0.410512 8.48,0.681034 12.78225,0.935568 18.970509,1.890048 23.960717,3.695718 4.615952,1.670247 6.087283,3.025124 6.087283,5.605479 0,1.493789 -1.21329,3.078681 -4.279981,5.590835 C 71.067683,75.00153 70.875226,75.06375 68.16,74.523203 Z M 6.587665,62.701846 C 3.4978022,59.67888 0.75181648,56.768723 0.48547459,56.234829 c -0.6153459,-1.233491 -0.35598792,-1.56872 2.21537901,-2.86345 1.0665304,-0.537017 3.7177867,-2.047056 5.8916808,-3.355638 2.1738936,-1.308586 4.1441546,-2.305712 4.3783566,-2.21584 0.234202,0.08987 0.471562,0.639657 0.527466,1.22175 0.09698,1.009763 0.175093,1.06808 1.701643,1.270314 0.88,0.116582 3.367087,0.224582 5.52686,0.24 3.757734,0.02682 3.939732,0.05905 4.225705,0.748035 0.164365,0.396 0.836047,3.790957 1.492628,7.544349 1.020653,5.834643 1.127145,6.869965 0.734295,7.138889 -0.279615,0.191412 -3.052453,0.265735 -7.083257,0.189863 l -6.623768,-0.124679 -0.09623,0.983168 c -0.06026,0.615642 -0.297048,1.021184 -0.633432,1.084861 -0.340656,0.06449 -2.592638,-1.909238 -6.155134,-5.394605 z M 100.48,61.888598 C 94.632576,60.422496 90.982742,60.053731 81.76,59.9972 73.360573,59.94572 73.039808,59.92007 70.24,59.076067 c -3.891958,-1.173225 -9.539667,-2.007766 -17.6,-2.600681 -9.972842,-0.7336 -10.08,-0.748503 -10.08,-1.401773 0,-0.418967 1.513789,-1.233699 6,-3.229245 3.3,-1.467898 7.368,-3.344934 9.04,-4.171194 3.242566,-1.602393 4.898714,-1.92462 14.88,-2.895113 4.580314,-0.445351 15.487683,-0.440023 19.36,0.0095 4.044214,0.46943 10.74314,1.837513 12.06199,2.463347 l 1.05801,0.502058 v 7.483539 7.483539 l -0.72,-0.0346 c -0.396,-0.01904 -2.088,-0.377591 -3.76,-0.796804 z M 28.475024,60.56 c -0.0028,-0.132 -0.434641,-2.616 -0.959787,-5.52 -1.2552,-6.94111 -1.245137,-7.546118 0.152681,-9.179155 2.301925,-2.68928 8.993026,-6.693293 17.292082,-10.347725 11.080454,-4.879206 16.209088,-7.715242 21.172643,-11.708064 1.862096,-1.497922 3.566227,-2.654191 3.78696,-2.569488 0.652087,0.250229 2.637744,11.70609 2.277011,13.136768 -0.288608,1.144634 -3.776569,4.661632 -6.596614,6.65153 -3.053053,2.15431 -8.392736,5.006332 -14.56,7.776758 -9.055581,4.067894 -12.95897,6.063072 -16.48,8.423578 -1.848,1.238905 -3.72,2.547081 -4.16,2.907059 -0.788856,0.645392 -1.915283,0.896272 -1.924976,0.428739 z M 16.16,46.705334 C 9.929567,46.262589 1.3634543,44.609168 0.42186915,43.667584 -0.17323093,43.072483 -0.19496624,28.598322 0.39894294,28.400352 c 0.2194186,-0.07314 1.69541856,0.200862 3.28000006,0.608892 5.6332237,1.450557 10.933051,2.027145 18.650158,2.029022 7.766103,0.0019 12.806976,-0.42162 23.110899,-1.941661 9.476467,-1.397975 9.92,-1.437197 9.92,-0.877243 0,0.46992 -5.975446,3.503312 -12.8,6.497828 -8.186038,3.591914 -15.430272,8.338586 -17.328504,11.354234 -0.450215,0.715242 -0.725996,0.796979 -2.864834,0.849107 C 21.064998,46.952256 18.272,46.855418 16.16,46.705334 Z m 75.76,-3.408838 c -0.22,-0.08241 -0.4,-0.62383 -0.4,-1.203162 0,-0.923734 -0.123037,-1.077942 -1,-1.253334 -1.514307,-0.302861 -14.106058,-0.222746 -17.56,0.111728 -1.855533,0.179686 -3.155398,0.179357 -3.336176,-9.6e-4 -0.18129,-0.180714 0.390944,-1.015603 1.475222,-2.152355 0.974269,-1.021418 2.012199,-2.322784 2.306512,-2.891927 0.698676,-1.351091 0.7224,-3.741955 0.07035,-7.089875 C 72.708547,24.876784 72.099587,25.12 82.731683,25.12 h 8.788413 l -4.8e-5,-0.861115 c -6.1e-5,-1.110574 0.487578,-1.394947 1.374026,-0.80128 1.415078,0.947702 10.556466,9.978545 11.311706,11.174913 0.9343,1.480036 0.82945,1.635687 -2.09711,3.113012 -1.7496,0.88319 -6.62698,3.702115 -8.98867,5.195072 -0.44,0.27815 -0.98,0.4383 -1.2,0.355894 z M 60.11272,24.806054 C 59.810682,24.504013 49.984051,23.396754 44.48,23.044567 30.977097,22.180558 22.509783,20.196832 21.102731,17.567732 20.693678,16.80341 18.891921,6.9860387 18.884976,5.4836803 c -0.0058,-1.259007 -0.02545,-1.2592521 4.525896,0.056485 4.123337,1.1920048 8.01374,1.7798362 15.309128,2.3131751 13.235949,0.967632 18.474314,1.7417251 23.72191,3.5054756 4.252045,1.42914 6.039002,2.533088 6.634976,4.09896 0.671466,1.764211 0.118212,3.259276 -1.954403,5.281416 -3.333533,3.25235 -6.175465,4.901158 -7.009763,4.066862 z"
       id="path17662"
       inkscape:connector-curvature="0" />
    <path
       style="fill:#cfcfcf;stroke-width:0.31999999"
       d="m 85.76,126.50174 c -5.976864,-2.2567 -11.653645,-3.24334 -23.52,-4.08784 -10.845434,-0.77185 -17.976992,-2.00883 -21.271581,-3.68961 -2.435046,-1.24226 -3.228662,-3.41673 -2.008419,-5.50297 0.566339,-0.96826 3.619971,-3.3977 6.744362,-5.36573 l 1.704361,-1.07357 4.695639,0.37402 c 2.582601,0.20571 5.847638,0.45103 7.255638,0.54515 9.519206,0.63635 16.822099,1.82418 21.504515,3.49774 3.391411,1.21214 5.040557,2.30729 5.711523,3.79287 0.503847,1.11556 2.409872,11.74687 2.174397,12.1282 -0.216432,0.35049 -0.676793,0.25531 -2.990435,-0.61826 z M 37.435024,110.48 c -0.0029,-0.132 -0.43464,-2.616 -0.959789,-5.52 C 35.199245,97.903914 35.2104,97.601578 36.81079,95.865357 39.496643,92.951552 45.290266,89.51015 54.08,85.607475 65.449165,80.55953 71.463011,77.166026 76.16,73.148134 c 1.144,-0.978598 2.257258,-1.781264 2.473904,-1.783702 0.460096,-0.0052 0.473994,0.04925 1.522992,5.963414 1.02601,5.784576 1.027232,6.993754 0.0086,8.492848 -0.944464,1.389904 -4.532774,4.378823 -7.77304,6.474634 -2.669469,1.726618 -10.747094,5.804534 -15.912426,8.033242 -6.980083,3.01173 -12.193484,5.89927 -16.155676,8.94811 -1.719917,1.32344 -2.87682,1.80526 -2.8893,1.20332 z M 8.1930659,103.08361 C 3.592407,98.745651 -0.07012876,94.772355 0.17148481,94.381418 0.26206848,94.234851 1.7365413,93.361632 3.4480912,92.440934 5.159641,91.520234 7.8059014,90.000374 9.3286701,89.063469 10.851438,88.12656 12.318315,87.36 12.588395,87.36 c 0.319277,0 0.526133,0.361331 0.59133,1.032918 0.0921,0.948666 0.217732,1.05473 1.540275,1.30034 2.176964,0.404284 17.857811,0.01018 22.08,-0.554925 6.140589,-0.821875 6.32927,-0.693843 2.643158,1.79352 -1.362265,0.919245 -3.15214,2.346656 -3.977507,3.172019 -2.021065,2.021066 -2.355161,3.311734 -1.825664,7.052858 0.263923,1.86472 0.29457,2.95671 0.08875,3.16253 C 33.222077,104.82592 23.299714,105.3017 18,105.07345 l -4.88,-0.21018 v 1.00837 c 0,0.65345 -0.158498,1.00836 -0.450323,1.00836 -0.247678,0 -2.262153,-1.70837 -4.4766111,-3.79639 z M 101.44,100.95248 c -5.667987,-1.495187 -8.474374,-1.823021 -16.96,-1.981226 -7.821389,-0.145817 -10.642902,0.01014 -19.44,1.074606 -0.924,0.11181 -1.677638,0.0752 -1.674752,-0.08129 0.0029,-0.156515 1.822864,-1.220573 4.044397,-2.364573 8.923177,-4.595082 14.543773,-9.123725 15.687766,-12.64 0.275872,-0.847939 0.477517,-0.972566 1.727459,-1.067648 3.516871,-0.26753 13.552272,1.140125 18.06494,2.533946 l 2.07019,0.639417 v 7.347143 c 0,5.688385 -0.0903,7.336985 -0.4,7.302145 -0.22,-0.0248 -1.624,-0.36789 -3.12,-0.76252 z M 15.2,85.540714 C 10.432059,85.12463 3.250224,83.764947 0.88,82.829619 L 0,82.482355 v -7.462803 c 0,-6.939082 0.03929949,-7.454518 0.56,-7.344726 0.308,0.06494 2.072,0.487145 3.92,0.938227 5.991844,1.462557 9.82177,1.873529 18.08,1.940096 6.366174,0.05131 7.892706,0.153302 8.923375,0.596173 4.008193,1.722288 10.53707,2.913161 19.556625,3.567148 8.004442,0.580384 15.257056,1.391892 15.624653,1.748266 0.404192,0.39185 -1.280592,1.448672 -5.608826,3.518269 L 57.12,81.864966 49.6,83.003814 C 40.070131,84.447043 35.455936,85.027568 30.273531,85.435325 26.427977,85.737898 18.12479,85.795949 15.2,85.540714 Z M 92.010944,81.853798 C 91.934186,81.626211 91.82832,81.08 91.775693,80.64 91.691981,79.940166 91.479664,79.813459 90.08,79.628035 89.2,79.511453 87.309632,79.403453 85.879181,79.388035 84.214778,79.370083 83.162067,79.215981 82.95536,78.96 82.521802,78.423094 80.206726,65.396749 80.43783,64.794499 c 0.20225,-0.527053 2.851338,-0.595347 7.957732,-0.205155 1.537555,0.117488 2.941555,0.16495 3.12,0.105469 C 91.694003,64.635331 91.84,64.166666 91.84,63.653334 91.84,63.067546 92.006493,62.72 92.287117,62.72 c 0.479091,0 10.993273,10.060006 12.017463,11.498349 l 0.61353,0.861619 -3.25905,1.708176 c -1.792484,0.939498 -4.39867,2.414074 -5.791524,3.276835 -3.600506,2.230224 -3.693219,2.273229 -3.856592,1.788819 z M 66.88,74.224938 C 65.032,73.907808 60.784,73.418931 57.44,73.138544 54.096,72.858157 49.56,72.478093 47.36,72.293955 39.427888,71.630042 32.528179,69.865565 30.769708,68.051286 29.415611,66.654211 29.142923,64.952538 30.017945,63.36 c 0.643505,-1.171178 3.572097,-3.569987 6.574689,-5.385334 l 1.762067,-1.065332 2.342649,0.343127 c 1.288458,0.18872 4.64665,0.491718 7.46265,0.673331 6.453587,0.416214 13.598323,1.169782 16.940442,1.786739 3.033648,0.560016 8.0228,2.138039 10.191094,3.223351 2.831533,1.417289 3.582285,4.032256 1.845846,6.42934 -1.030937,1.423168 -5.938364,5.538551 -6.529369,5.475546 C 70.405606,74.81919 68.728,74.542067 66.88,74.224938 Z M 6.1014282,61.85871 C 2.7429587,58.548419 -0.0037819,55.684528 -0.00243993,55.494509 -0.00109797,55.304486 1.548,54.308086 3.44,53.280282 5.332,52.252477 8.1398202,50.635338 9.6796,49.68664 c 1.53978,-0.948698 2.94378,-1.635798 3.12,-1.526886 0.17622,0.108908 0.3204,0.606112 0.3204,1.104896 0,0.568236 0.209112,0.987376 0.56,1.122451 0.308,0.118563 2.828835,0.300221 5.601855,0.403683 3.049654,0.113782 5.151257,0.326624 5.318729,0.538662 0.404862,0.512602 2.676422,13.608317 2.458831,14.175351 -0.15819,0.412237 -1.157185,0.464966 -6.978908,0.368355 L 13.286216,65.7604 13.123108,66.693802 c -0.08971,0.513369 -0.332368,0.989699 -0.53924,1.058508 -0.206872,0.06881 -3.1239704,-2.583308 -6.4824398,-5.8936 z M 101.12,61.691542 C 94.17977,60.015414 91.414746,59.72457 81.92,59.671965 73.360106,59.624538 73.04168,59.599699 70.249542,58.761562 65.733485,57.405939 57.996448,56.367091 48.48,55.838573 41.924746,55.474515 41.733978,55.148704 46.8,52.969306 c 1.98,-0.851796 5.917034,-2.656624 8.748963,-4.01073 5.056477,-2.417789 5.223165,-2.471498 9.28,-2.990138 10.902519,-1.393811 20.801904,-1.638198 28.077507,-0.693148 4.290938,0.55736 11.24875,2.111929 11.76558,2.628758 0.17446,0.174461 0.26416,3.311856 0.21411,7.488256 L 104.8,62.580298 Z M 28.693971,60.56 C 28.281103,59.870928 26.490284,48.321331 26.679447,47.567648 27.331593,44.969293 35.401808,39.761802 45.6,35.358726 c 9.710266,-4.192411 17.547558,-8.662171 21.886131,-12.482082 1.677149,-1.47665 2.118746,-1.725344 2.448797,-1.379084 0.221466,0.232342 0.86399,3.0454 1.427837,6.25124 l 1.025171,5.8288 -0.699427,1.444822 c -0.829626,1.71378 -4.325703,4.748823 -8.539722,7.413578 -3.16263,1.999904 -10.008342,5.410669 -17.218793,8.578986 -5.585674,2.45438 -10.489648,5.196716 -14.088637,7.878467 -2.600674,1.937865 -2.892299,2.092281 -3.147386,1.666547 z M 17.28,46.503958 C 12.222729,46.223357 5.5567773,45.151702 1.68,43.996019 L 0,43.495206 v -7.544908 -7.544907 l 0.72,0.167025 c 0.396,0.09186 2.304,0.535541 4.24,0.985949 5.59052,1.300627 10.430587,1.801635 17.404993,1.801635 7.369621,0 13.45357,-0.528768 23.957708,-2.082212 C 54.9148,28.007112 54.4,28.058163 54.4,28.476788 c 0,0.387372 -3.804314,2.301456 -11.122144,5.595945 -6.236054,2.807472 -9.970294,4.856035 -13.630512,7.477552 -2.276152,1.630224 -2.999152,2.310704 -4.764212,4.484038 -0.578043,0.711751 -1.837466,0.789543 -7.603132,0.469635 z M 91.780275,41.852576 C 91.704035,41.071427 91.488237,40.772253 90.88,40.604474 c -1.100022,-0.30344 -14.612429,-0.29602 -17.76,0.0098 -1.43615,0.139513 -2.698678,0.124297 -2.875894,-0.03466 -0.199082,-0.178576 0.125123,-0.69943 0.876742,-1.408537 3.188506,-3.008176 3.686355,-4.700432 2.815718,-9.571028 -0.314604,-1.76 -0.509196,-3.365491 -0.432425,-3.567758 C 73.714288,25.478595 78.729197,25.183036 85.6,25.319367 l 6.08,0.120639 0.101254,-0.88 c 0.05569,-0.484 0.288986,-0.88 0.518432,-0.88 0.782317,0 13.027474,11.92328 12.624144,12.292304 -0.0681,0.06232 -1.34783,0.722295 -2.84383,1.466624 -1.496,0.744327 -4.252749,2.273066 -6.126106,3.397197 C 94.080534,41.960256 92.397658,42.88 92.21417,42.88 c -0.183492,0 -0.378743,-0.462342 -0.433895,-1.027424 z M 59.831981,24.627812 C 57.64767,24.109047 50.964141,23.367777 44,22.871885 34.252506,22.177802 30.30362,21.56782 25.276044,19.97961 22.578135,19.127341 21.269419,18.045637 20.81207,16.289967 20.071447,13.44686 18.798463,5.0737779 19.066478,4.8082938 19.242794,4.6336429 20.588381,4.8833488 22.436269,5.4336394 26.523676,6.6508458 32.332758,7.5811187 38.4,7.9900893 50.577923,8.8109581 56.792038,9.6775485 61.665072,11.234523 67.420307,13.073368 69.12,14.325262 69.12,16.725384 c 0,0.732629 -0.281386,1.734365 -0.658643,2.344784 -0.649792,1.051383 -4.921763,4.807677 -6.28032,5.522212 -0.778896,0.40966 -0.773661,0.409582 -2.349056,0.03543 z"
       id="path17660"
       inkscape:connector-curvature="0" />
    <path
       style="fill:#a0dfe6;stroke-width:0.31999999"
       d="m 84.48,125.85664 c -5.556195,-2.01457 -11.005155,-2.88924 -23.52,-3.77546 -12.213258,-0.86486 -19.774566,-2.5532 -21.551462,-4.81216 -0.85392,-1.08558 -0.89576,-2.84653 -0.09859,-4.14902 0.624915,-1.02103 3.253638,-3.05675 6.533178,-5.05937 1.440678,-0.87974 2.232246,-1.17359 2.841929,-1.05499 0.81528,0.15859 4.064976,0.43796 13.554941,1.16528 9.521174,0.72972 16.236352,2.05657 20.73761,4.09753 3.200566,1.45121 3.461856,1.93141 4.638243,8.52427 0.557853,3.1264 0.936,5.81102 0.840326,5.96582 -0.24927,0.40333 -0.588633,0.32635 -3.976179,-0.9019 z M 37.611347,110 c -0.07071,-0.22 -0.565574,-2.89968 -1.099689,-5.95485 -1.278205,-7.311364 -1.264077,-7.346728 4.499056,-11.260612 3.508294,-2.38257 7.540534,-4.52609 13.229286,-7.032624 6.181437,-2.723616 14.561478,-7.003264 17.44,-8.906525 1.32,-0.872778 3.28665,-2.392035 4.37033,-3.376128 1.941926,-1.763466 2.47046,-2.050477 2.798508,-1.51968 0.410932,0.664896 2.133584,11.438025 1.947959,12.182131 -0.326285,1.307958 -1.586736,2.74552 -4.395943,5.013632 -4.315366,3.484163 -8.757683,5.920902 -20.078121,11.013426 -8.1364,3.66018 -13.131296,6.48112 -16.962733,9.57996 -0.917629,0.74218 -1.563085,0.83861 -1.748653,0.26127 z M 8.1930659,103.08361 C 3.592407,98.745651 -0.07012876,94.772355 0.17148481,94.381418 0.26206848,94.234851 1.7365413,93.361632 3.4480912,92.440934 5.159641,91.520234 7.8059014,90.000374 9.3286701,89.063469 10.851438,88.12656 12.318315,87.36 12.588395,87.36 c 0.319277,0 0.526133,0.361331 0.59133,1.032918 0.0921,0.948666 0.217732,1.05473 1.540275,1.30034 2.176964,0.404284 17.857811,0.01018 22.08,-0.554925 6.140589,-0.821875 6.32927,-0.693843 2.643158,1.79352 -1.362265,0.919245 -3.15214,2.346656 -3.977507,3.172019 -2.021065,2.021066 -2.355161,3.311734 -1.825664,7.052858 0.263923,1.86472 0.29457,2.95671 0.08875,3.16253 C 33.222077,104.82592 23.299714,105.3017 18,105.07345 l -4.88,-0.21018 v 1.00837 c 0,0.65345 -0.158498,1.00836 -0.450323,1.00836 -0.247678,0 -2.262153,-1.70837 -4.4766111,-3.79639 z M 101.44,100.95248 c -5.667987,-1.495187 -8.474374,-1.823021 -16.96,-1.981226 -7.821389,-0.145817 -10.642902,0.01014 -19.44,1.074606 -0.924,0.11181 -1.677638,0.0752 -1.674752,-0.08129 0.0029,-0.156515 1.822864,-1.220573 4.044397,-2.364573 8.923177,-4.595082 14.543773,-9.123725 15.687766,-12.64 0.275872,-0.847939 0.477517,-0.972566 1.727459,-1.067648 3.516871,-0.26753 13.552272,1.140125 18.06494,2.533946 l 2.07019,0.639417 v 7.347143 c 0,5.688385 -0.0903,7.336985 -0.4,7.302145 -0.22,-0.0248 -1.624,-0.36789 -3.12,-0.76252 z M 15.2,85.540714 C 10.432059,85.12463 3.250224,83.764947 0.88,82.829619 L 0,82.482355 v -7.462803 c 0,-6.939082 0.03929949,-7.454518 0.56,-7.344726 0.308,0.06494 2.072,0.487145 3.92,0.938227 5.991844,1.462557 9.82177,1.873529 18.08,1.940096 6.366174,0.05131 7.892706,0.153302 8.923375,0.596173 4.008193,1.722288 10.53707,2.913161 19.556625,3.567148 8.004442,0.580384 15.257056,1.391892 15.624653,1.748266 0.404192,0.39185 -1.280592,1.448672 -5.608826,3.518269 L 57.12,81.864966 49.6,83.003814 C 40.070131,84.447043 35.455936,85.027568 30.273531,85.435325 26.427977,85.737898 18.12479,85.795949 15.2,85.540714 Z M 92.010944,81.853798 C 91.934186,81.626211 91.82832,81.08 91.775693,80.64 91.691981,79.940166 91.479664,79.813459 90.08,79.628035 89.2,79.511453 87.309632,79.403453 85.879181,79.388035 84.214778,79.370083 83.162067,79.215981 82.95536,78.96 82.521802,78.423094 80.206726,65.396749 80.43783,64.794499 c 0.20225,-0.527053 2.851338,-0.595347 7.957732,-0.205155 1.537555,0.117488 2.941555,0.16495 3.12,0.105469 C 91.694003,64.635331 91.84,64.166666 91.84,63.653334 91.84,63.067546 92.006493,62.72 92.287117,62.72 c 0.479091,0 10.993273,10.060006 12.017463,11.498349 l 0.61353,0.861619 -3.25905,1.708176 c -1.792484,0.939498 -4.39867,2.414074 -5.791524,3.276835 -3.600506,2.230224 -3.693219,2.273229 -3.856592,1.788819 z M 68.48,74.234352 C 66.322944,73.730989 59.298163,72.96456 52.32,72.471238 44.334022,71.906672 42.183837,71.625418 37.44,70.52487 c -5.607404,-1.300892 -7.68,-2.712345 -7.68,-5.230134 0,-2.043894 1.406292,-3.539046 6.4816,-6.891146 l 1.841603,-1.216326 3.278397,0.367763 c 1.80312,0.202269 5.4384,0.513843 8.0784,0.692381 10.95665,0.740989 16.26623,1.537946 21.475213,3.223386 4.450806,1.440118 6.343491,2.621555 6.789904,4.238332 0.619216,2.242608 -0.351027,3.799978 -4.344413,6.973376 -2.399686,1.906944 -2.80575,2.036055 -4.880704,1.55185 z M 6.1014282,61.85871 C 2.7429587,58.548419 -0.0037819,55.684528 -0.00243993,55.494509 -0.00109797,55.304486 1.548,54.308086 3.44,53.280282 5.332,52.252477 8.1398202,50.635338 9.6796,49.68664 c 1.53978,-0.948698 2.94378,-1.635798 3.12,-1.526886 0.17622,0.108908 0.3204,0.606112 0.3204,1.104896 0,0.568236 0.209112,0.987376 0.56,1.122451 0.308,0.118563 2.828835,0.300221 5.601855,0.403683 3.049654,0.113782 5.151257,0.326624 5.318729,0.538662 0.404862,0.512602 2.676422,13.608317 2.458831,14.175351 -0.15819,0.412237 -1.157185,0.464966 -6.978908,0.368355 L 13.286216,65.7604 13.123108,66.693802 c -0.08971,0.513369 -0.332368,0.989699 -0.53924,1.058508 -0.206872,0.06881 -3.1239704,-2.583308 -6.4824398,-5.8936 z M 101.12,61.691542 C 94.17977,60.015414 91.414746,59.72457 81.92,59.671965 73.360106,59.624538 73.04168,59.599699 70.249542,58.761562 65.733485,57.405939 57.996448,56.367091 48.48,55.838573 41.924746,55.474515 41.733978,55.148704 46.8,52.969306 c 1.98,-0.851796 5.917034,-2.656624 8.748963,-4.01073 5.056477,-2.417789 5.223165,-2.471498 9.28,-2.990138 10.902519,-1.393811 20.801904,-1.638198 28.077507,-0.693148 4.290938,0.55736 11.24875,2.111929 11.76558,2.628758 0.17446,0.174461 0.26416,3.311856 0.21411,7.488256 L 104.8,62.580298 Z M 28.671762,59.6 C 27.974947,56.176019 26.88,49.488298 26.88,48.656262 c 0,-1.592726 0.780575,-2.710921 3.110364,-4.455683 3.744478,-2.804211 8.468762,-5.411043 15.676785,-8.650358 12.964736,-5.826404 17.514051,-8.454834 22.424947,-12.956322 0.897424,-0.82261 1.480742,-1.149061 1.686154,-0.943649 0.530563,0.530562 2.310236,11.217753 2.075971,12.466492 -0.264298,1.408823 -2.820874,3.989226 -6.648131,6.710096 -3.008948,2.139114 -10.461319,6.046301 -17.261684,9.050087 -2.406576,1.063011 -5.803593,2.649347 -7.548928,3.525197 -3.188044,1.599836 -9.529294,5.650585 -10.300606,6.579958 -0.628268,0.757018 -1.223833,0.597117 -1.42311,-0.38208 z M 17.28,46.503958 C 12.222729,46.223357 5.5567773,45.151702 1.68,43.996019 L 0,43.495206 v -7.544908 -7.544907 l 0.72,0.167025 c 0.396,0.09186 2.304,0.535541 4.24,0.985949 5.59052,1.300627 10.430587,1.801635 17.404993,1.801635 7.369621,0 13.45357,-0.528768 23.957708,-2.082212 C 54.9148,28.007112 54.4,28.058163 54.4,28.476788 c 0,0.387372 -3.804314,2.301456 -11.122144,5.595945 -6.236054,2.807472 -9.970294,4.856035 -13.630512,7.477552 -2.276152,1.630224 -2.999152,2.310704 -4.764212,4.484038 -0.578043,0.711751 -1.837466,0.789543 -7.603132,0.469635 z M 91.780275,41.852576 C 91.704035,41.071427 91.488237,40.772253 90.88,40.604474 c -1.100022,-0.30344 -14.612429,-0.29602 -17.76,0.0098 -1.43615,0.139513 -2.698678,0.124297 -2.875894,-0.03466 -0.199082,-0.178576 0.125123,-0.69943 0.876742,-1.408537 3.188506,-3.008176 3.686355,-4.700432 2.815718,-9.571028 -0.314604,-1.76 -0.509196,-3.365491 -0.432425,-3.567758 C 73.714288,25.478595 78.729197,25.183036 85.6,25.319367 l 6.08,0.120639 0.101254,-0.88 c 0.05569,-0.484 0.288986,-0.88 0.518432,-0.88 0.782317,0 13.027474,11.92328 12.624144,12.292304 -0.0681,0.06232 -1.34783,0.722295 -2.84383,1.466624 -1.496,0.744327 -4.252749,2.273066 -6.126106,3.397197 C 94.080534,41.960256 92.397658,42.88 92.21417,42.88 c -0.183492,0 -0.378743,-0.462342 -0.433895,-1.027424 z M 58.24,24.144818 C 55.391635,23.652755 47.524166,22.867224 40.700973,22.393626 33.428666,21.888855 25.43458,20.289449 23.105951,18.873325 21.47663,17.882476 21.07368,16.879404 20.113644,11.424509 18.977088,4.9666272 18.967823,4.6563635 19.92,4.9393075 26.775134,6.9763459 31.637269,7.7645149 41.76,8.4796467 55.724755,9.4662029 64.456346,11.39371 67.712893,14.208772 68.813421,15.160103 68.96,15.453888 68.96,16.708315 c 0,1.834204 -0.915994,3.05134 -4.385533,5.827312 -2.82631,2.261329 -2.71831,2.233893 -6.334467,1.609191 z"
       id="path17658"
       inkscape:connector-curvature="0" />
    <path
       style="fill:#b0b0b0;stroke-width:0.31999999"
       d="m 84.48,125.85664 c -5.556195,-2.01457 -11.005155,-2.88924 -23.52,-3.77546 -12.213258,-0.86486 -19.774566,-2.5532 -21.551462,-4.81216 -0.85392,-1.08558 -0.89576,-2.84653 -0.09859,-4.14902 0.624915,-1.02103 3.253638,-3.05675 6.533178,-5.05937 1.440678,-0.87974 2.232246,-1.17359 2.841929,-1.05499 0.81528,0.15859 4.064976,0.43796 13.554941,1.16528 9.521174,0.72972 16.236352,2.05657 20.73761,4.09753 3.200566,1.45121 3.461856,1.93141 4.638243,8.52427 0.557853,3.1264 0.936,5.81102 0.840326,5.96582 -0.24927,0.40333 -0.588633,0.32635 -3.976179,-0.9019 z M 37.611347,110 c -0.07071,-0.22 -0.565574,-2.89968 -1.099689,-5.95485 -1.278205,-7.311364 -1.264077,-7.346728 4.499056,-11.260612 3.508294,-2.38257 7.540534,-4.52609 13.229286,-7.032624 6.181437,-2.723616 14.561478,-7.003264 17.44,-8.906525 1.32,-0.872778 3.28665,-2.392035 4.37033,-3.376128 1.941926,-1.763466 2.47046,-2.050477 2.798508,-1.51968 0.410932,0.664896 2.133584,11.438025 1.947959,12.182131 -0.326285,1.307958 -1.586736,2.74552 -4.395943,5.013632 -4.315366,3.484163 -8.757683,5.920902 -20.078121,11.013426 -8.1364,3.66018 -13.131296,6.48112 -16.962733,9.57996 -0.917629,0.74218 -1.563085,0.83861 -1.748653,0.26127 z M 5.9923488,100.51738 -0.13736425,94.474768 3.1744245,92.812835 C 4.9959082,91.898771 7.7487168,90.369949 9.2917766,89.41545 10.834836,88.460954 12.255438,87.68 12.44867,87.68 c 0.193231,0 0.35133,0.342368 0.35133,0.760819 0,1.577431 0.383118,1.639674 10.049324,1.632643 6.650083,-0.0048 10.187524,-0.15479 13.588007,-0.576 2.528535,-0.313206 4.656711,-0.510086 4.72928,-0.437516 0.07257,0.07257 -1.069824,1.005088 -2.538653,2.072262 -5.176976,3.761325 -5.980028,5.27616 -5.309292,10.015172 0.220985,1.56136 0.328659,2.91196 0.239276,3.00135 -0.328662,0.32866 -11.362838,0.85049 -15.909691,0.75241 L 12.96,104.8 l -0.101255,0.88 c -0.05569,0.484 -0.244227,0.88 -0.418969,0.88 -0.174743,0 -3.0760848,-2.71918 -6.4474272,-6.04262 z M 104.464,101.46333 c -0.1672,-0.16316 -1.456,-0.58673 -2.864,-0.94124 -9.138234,-2.300909 -18.620314,-2.74441 -30.952384,-1.447725 -2.591811,0.272525 -4.967811,0.441929 -5.28,0.376461 -0.34663,-0.07269 0.865078,-0.856343 3.112384,-2.012874 7.349875,-3.782467 12.968054,-8.235488 14.600822,-11.572739 l 0.873274,-1.784909 3.382954,0.216368 c 4.604156,0.294474 9.464614,1.007725 13.31526,1.953955 1.76678,0.434157 3.45878,0.789373 3.76,0.789373 0.50104,0 0.54769,0.626854 0.54769,7.36 0,4.048 -0.0432,7.36 -0.096,7.36 -0.0528,0 -0.2328,-0.1335 -0.4,-0.29667 z M 14.72,85.232733 C 11.382448,84.907616 6.6534758,84.101344 3.44,83.309539 L 0,82.461917 v -7.31096 C 0,71.12993 0.06160851,67.84 0.13690779,67.84 c 0.0752993,0 1.47929931,0.360656 3.12000001,0.801456 5.598514,1.504131 11.2406572,2.154272 19.4630922,2.24272 6.737083,0.07247 7.690306,0.149542 9.155805,0.740262 4.201235,1.693453 10.159849,2.756634 19.164195,3.419424 6.917107,0.509152 14.571389,1.340861 14.843405,1.612877 0.08466,0.08466 0.01952,0.284298 -0.144739,0.443639 -0.649284,0.629814 -8.185005,4.187164 -9.480516,4.475417 -1.89391,0.421402 -15.496348,2.452483 -20.57815,3.072679 -4.00845,0.4892 -17.947187,0.87774 -20.96,0.584259 z M 92.100275,80.56368 C 92.009917,79.62985 91.873408,79.505082 90.72,79.302122 90.016,79.17824 88.125632,79.068586 86.519181,79.058442 84.583654,79.046218 83.491974,78.905066 83.282982,78.64 83.10952,78.42 82.511533,75.648 81.954118,72.48 81.396704,69.312 80.85864,66.310733 80.758419,65.810518 l -0.182221,-0.909478 5.391901,0.06254 C 92.66889,65.041312 92.16,65.107354 92.16,64.16 c 0,-0.44 0.160998,-0.8 0.357773,-0.8 0.369408,0 12.003837,11.172445 12.079657,11.6 0.0234,0.132 -0.0654,0.211546 -0.19743,0.176768 -0.36907,-0.09723 -4.660973,2.148602 -8.446106,4.419622 C 94.080534,80.680374 92.469658,81.6 92.37417,81.6 c -0.09549,0 -0.218743,-0.466346 -0.273895,-1.03632 z M 68.48,74.234352 C 66.322944,73.730989 59.298163,72.96456 52.32,72.471238 44.334022,71.906672 42.183837,71.625418 37.44,70.52487 c -5.607404,-1.300892 -7.68,-2.712345 -7.68,-5.230134 0,-2.043894 1.406292,-3.539046 6.4816,-6.891146 l 1.841603,-1.216326 3.278397,0.367763 c 1.80312,0.202269 5.4384,0.513843 8.0784,0.692381 10.95665,0.740989 16.26623,1.537946 21.475213,3.223386 4.450806,1.440118 6.343491,2.621555 6.789904,4.238332 0.619216,2.242608 -0.351027,3.799978 -4.344413,6.973376 -2.399686,1.906944 -2.80575,2.036055 -4.880704,1.55185 z M 5.9572534,61.40799 c -3.2764893,-3.185606 -5.95234821,-5.885606 -5.94635298,-6 0.0059952,-0.114393 1.19008658,-0.778761 2.63131408,-1.476371 1.4412274,-0.697613 4.2431653,-2.245613 6.2265289,-3.44 C 10.852107,49.297229 12.548015,48.32 12.637429,48.32 c 0.08941,0 0.162571,0.435088 0.162571,0.966861 0,1.38072 0.664685,1.566941 6.56,1.837853 l 5.12,0.235286 1.02109,5.6 c 0.561599,3.08 1.065599,6.248 1.12,7.04 L 26.72,65.44 h -6.82403 -6.824029 l -0.175971,0.88 c -0.09678,0.484 -0.357206,0.88 -0.578717,0.88 -0.22151,0 -3.08351,-2.606403 -6.3599996,-5.79201 z M 104,62.107264 C 103.2599,61.685907 98.414749,60.560432 94.703059,59.947686 92.16192,59.528182 89.172336,59.383568 82.24,59.344816 73.429539,59.295562 73.03311,59.26623 70.56,58.480576 66.324349,57.134998 60.268141,56.292336 49.673757,55.574458 46.548614,55.362698 44.120848,55.060963 44.086144,54.88 44.05239,54.704 45.7472,53.795654 47.852387,52.861456 49.957574,51.927258 53.768,50.172874 56.32,48.962826 c 4.466986,-2.118052 4.789152,-2.218397 8.64,-2.691056 8.049101,-0.987959 12.57449,-1.232464 19.649472,-1.061652 7.343683,0.1773 10.268064,0.536759 16.750528,2.058938 l 3.6,0.845334 v 7.142807 c 0,3.928541 -0.108,7.138425 -0.24,7.133072 -0.132,-0.0053 -0.456,-0.132704 -0.72,-0.283005 z M 28.671762,59.6 C 27.974947,56.176019 26.88,49.488298 26.88,48.656262 c 0,-1.592726 0.780575,-2.710921 3.110364,-4.455683 3.744478,-2.804211 8.468762,-5.411043 15.676785,-8.650358 12.964736,-5.826404 17.514051,-8.454834 22.424947,-12.956322 0.897424,-0.82261 1.480742,-1.149061 1.686154,-0.943649 0.530563,0.530562 2.310236,11.217753 2.075971,12.466492 -0.264298,1.408823 -2.820874,3.989226 -6.648131,6.710096 -3.008948,2.139114 -10.461319,6.046301 -17.261684,9.050087 -2.406576,1.063011 -5.803593,2.649347 -7.548928,3.525197 -3.188044,1.599836 -9.529294,5.650585 -10.300606,6.579958 -0.628268,0.757018 -1.223833,0.597117 -1.42311,-0.38208 z M 14.986227,46.054544 C 11.161825,45.738208 6.5462947,44.963882 2.916991,44.029741 L 0.16,43.320125 0.07426494,35.966266 -0.01147012,28.612405 4.0793936,29.638643 C 10.758819,31.314249 15.823755,31.785478 24.96,31.581322 c 7.836352,-0.17511 11.09039,-0.475767 21.433062,-1.980313 3.0285,-0.440555 5.816992,-0.796429 6.19665,-0.790832 0.65743,0.0097 0.662371,0.03133 0.103856,0.454606 -0.322538,0.244436 -3.058538,1.558869 -6.08,2.920964 -11.86575,5.349155 -17.653027,8.780583 -20.75789,12.307888 L 24.177627,46.4 21.128813,46.355222 c -1.676847,-0.02464 -4.441011,-0.159932 -6.142586,-0.300678 z m 77.34544,-3.749542 C 92.237251,42.210582 92.16,41.8024 92.16,41.397926 92.16,40.99345 91.878054,40.511626 91.533453,40.3272 90.727654,39.895949 80.512698,39.759334 74.893149,40.104653 l -4.306848,0.264656 1.472617,-1.574349 c 2.725245,-2.913507 3.098176,-4.410499 2.289495,-9.19028 -0.310375,-1.834493 -0.449674,-3.45002 -0.309552,-3.590061 0.140121,-0.14004 4.23672,-0.254619 9.103555,-0.254619 8.596973,0 8.852077,-0.01821 8.96425,-0.64 0.0635,-0.352 0.224201,-0.755524 0.357116,-0.896721 0.132912,-0.141196 2.954432,2.411308 6.270039,5.672232 3.315609,3.260924 5.928889,6.028447 5.807279,6.150054 -0.12161,0.121606 -0.2211,0.123494 -0.2211,0.0042 0,-0.324074 -4.497866,2.013545 -8.388333,4.359561 -1.885584,1.13704 -3.505584,1.990093 -3.6,1.895676 z M 58.24,24.144818 C 55.391635,23.652755 47.524166,22.867224 40.700973,22.393626 33.428666,21.888855 25.43458,20.289449 23.105951,18.873325 21.47663,17.882476 21.07368,16.879404 20.113644,11.424509 18.977088,4.9666272 18.967823,4.6563635 19.92,4.9393075 26.775134,6.9763459 31.637269,7.7645149 41.76,8.4796467 55.724755,9.4662029 64.456346,11.39371 67.712893,14.208772 68.813421,15.160103 68.96,15.453888 68.96,16.708315 c 0,1.834204 -0.915994,3.05134 -4.385533,5.827312 -2.82631,2.261329 -2.71831,2.233893 -6.334467,1.609191 z"
       id="path17656"
       inkscape:connector-curvature="0" />
    <path
       style="fill:#51c6e3;stroke-width:0.31999999"
       d="M 84.182106,125.5537 C 78.996083,123.6889 72.815459,122.72724 60.8,121.91561 51.955203,121.31816 44.303082,119.94226 41.297571,118.40896 39.796838,117.64335 38.72,116.34491 38.72,115.30095 c 0,-1.85856 1.458579,-3.37723 6.24,-6.49708 l 2.56,-1.67039 2.08,0.19985 c 1.144,0.10991 4.096,0.34005 6.56,0.51141 12.544762,0.87243 19.261379,1.86512 24.095933,3.56127 3.39704,1.19181 5.032601,2.07516 5.684557,3.07017 0.430732,0.65738 2.36095,10.15496 2.374534,11.68382 0.0068,0.75925 -0.57103,0.67449 -4.132918,-0.6063 z m -46.3688,-15.84751 c -0.545428,-1.50311 -2.053533,-11.102971 -1.863309,-11.860894 0.347859,-1.385978 1.457571,-2.430758 5.334045,-5.021955 4.02303,-2.689155 7.035494,-4.248461 15.835958,-8.196967 9.439085,-4.235036 14.242374,-6.990403 18.677107,-10.713964 1.2844,-1.078432 2.506823,-1.894954 2.716493,-1.814496 0.536938,0.206041 2.305043,10.99063 2.003779,12.222086 -0.316435,1.293475 -3.926813,4.739952 -7.354605,7.020726 C 69.85783,93.539763 63.054016,97.023818 56.32,99.965478 49.042637,103.14449 44.122963,105.90307 39.442035,109.42937 l -1.357965,1.023 z M 5.9923488,100.51738 -0.13736425,94.474768 3.1744245,92.812835 C 4.9959082,91.898771 7.7487168,90.369949 9.2917766,89.41545 10.834836,88.460954 12.255438,87.68 12.44867,87.68 c 0.193231,0 0.35133,0.342368 0.35133,0.760819 0,1.577431 0.383118,1.639674 10.049324,1.632643 6.650083,-0.0048 10.187524,-0.15479 13.588007,-0.576 2.528535,-0.313206 4.656711,-0.510086 4.72928,-0.437516 0.07257,0.07257 -1.069824,1.005088 -2.538653,2.072262 -5.176976,3.761325 -5.980028,5.27616 -5.309292,10.015172 0.220985,1.56136 0.328659,2.91196 0.239276,3.00135 -0.328662,0.32866 -11.362838,0.85049 -15.909691,0.75241 L 12.96,104.8 l -0.101255,0.88 c -0.05569,0.484 -0.244227,0.88 -0.418969,0.88 -0.174743,0 -3.0760848,-2.71918 -6.4474272,-6.04262 z M 104.464,101.46333 c -0.1672,-0.16316 -1.456,-0.58673 -2.864,-0.94124 -9.138234,-2.300909 -18.620314,-2.74441 -30.952384,-1.447725 -2.591811,0.272525 -4.967811,0.441929 -5.28,0.376461 -0.34663,-0.07269 0.865078,-0.856343 3.112384,-2.012874 7.349875,-3.782467 12.968054,-8.235488 14.600822,-11.572739 l 0.873274,-1.784909 3.382954,0.216368 c 4.604156,0.294474 9.464614,1.007725 13.31526,1.953955 1.76678,0.434157 3.45878,0.789373 3.76,0.789373 0.50104,0 0.54769,0.626854 0.54769,7.36 0,4.048 -0.0432,7.36 -0.096,7.36 -0.0528,0 -0.2328,-0.1335 -0.4,-0.29667 z M 14.72,85.232733 C 11.382448,84.907616 6.6534758,84.101344 3.44,83.309539 L 0,82.461917 v -7.31096 C 0,71.12993 0.06160851,67.84 0.13690779,67.84 c 0.0752993,0 1.47929931,0.360656 3.12000001,0.801456 5.598514,1.504131 11.2406572,2.154272 19.4630922,2.24272 6.737083,0.07247 7.690306,0.149542 9.155805,0.740262 4.201235,1.693453 10.159849,2.756634 19.164195,3.419424 6.917107,0.509152 14.571389,1.340861 14.843405,1.612877 0.08466,0.08466 0.01952,0.284298 -0.144739,0.443639 -0.649284,0.629814 -8.185005,4.187164 -9.480516,4.475417 -1.89391,0.421402 -15.496348,2.452483 -20.57815,3.072679 -4.00845,0.4892 -17.947187,0.87774 -20.96,0.584259 z M 92.100275,80.56368 C 92.009917,79.62985 91.873408,79.505082 90.72,79.302122 90.016,79.17824 88.125632,79.068586 86.519181,79.058442 84.583654,79.046218 83.491974,78.905066 83.282982,78.64 83.10952,78.42 82.511533,75.648 81.954118,72.48 81.396704,69.312 80.85864,66.310733 80.758419,65.810518 l -0.182221,-0.909478 5.391901,0.06254 C 92.66889,65.041312 92.16,65.107354 92.16,64.16 c 0,-0.44 0.160998,-0.8 0.357773,-0.8 0.369408,0 12.003837,11.172445 12.079657,11.6 0.0234,0.132 -0.0654,0.211546 -0.19743,0.176768 -0.36907,-0.09723 -4.660973,2.148602 -8.446106,4.419622 C 94.080534,80.680374 92.469658,81.6 92.37417,81.6 c -0.09549,0 -0.218743,-0.466346 -0.273895,-1.03632 z M 65.28,73.583686 C 63.256,73.27265 58.36,72.784054 54.4,72.497917 40.007475,71.457952 32.091072,69.741622 30.502216,67.31672 c -0.739052,-1.127936 -0.698061,-3.111574 0.0864,-4.181062 0.793412,-1.08169 4.461147,-3.90194 6.496811,-4.995623 1.324071,-0.711373 1.670535,-0.764678 3.394573,-0.522275 1.056,0.148474 5.04065,0.495738 8.854778,0.771696 12.200736,0.882742 17.01622,1.639686 22.485568,3.534502 4.65863,1.613949 6.411328,3.353181 5.806723,5.762116 -0.257095,1.024348 -2.500423,3.478931 -4.803171,5.255491 C 70.891603,74.432317 70.83415,74.437206 65.28,73.583686 Z M 5.9572534,61.40799 c -3.2764893,-3.185606 -5.95234821,-5.885606 -5.94635298,-6 0.0059952,-0.114393 1.19008658,-0.778761 2.63131408,-1.476371 1.4412274,-0.697613 4.2431653,-2.245613 6.2265289,-3.44 C 10.852107,49.297229 12.548015,48.32 12.637429,48.32 c 0.08941,0 0.162571,0.435088 0.162571,0.966861 0,1.38072 0.664685,1.566941 6.56,1.837853 l 5.12,0.235286 1.02109,5.6 c 0.561599,3.08 1.065599,6.248 1.12,7.04 L 26.72,65.44 h -6.82403 -6.824029 l -0.175971,0.88 c -0.09678,0.484 -0.357206,0.88 -0.578717,0.88 -0.22151,0 -3.08351,-2.606403 -6.3599996,-5.79201 z M 104,62.107264 C 103.2599,61.685907 98.414749,60.560432 94.703059,59.947686 92.16192,59.528182 89.172336,59.383568 82.24,59.344816 73.429539,59.295562 73.03311,59.26623 70.56,58.480576 66.324349,57.134998 60.268141,56.292336 49.673757,55.574458 46.548614,55.362698 44.120848,55.060963 44.086144,54.88 44.05239,54.704 45.7472,53.795654 47.852387,52.861456 49.957574,51.927258 53.768,50.172874 56.32,48.962826 c 4.466986,-2.118052 4.789152,-2.218397 8.64,-2.691056 8.049101,-0.987959 12.57449,-1.232464 19.649472,-1.061652 7.343683,0.1773 10.268064,0.536759 16.750528,2.058938 l 3.6,0.845334 v 7.142807 c 0,3.928541 -0.108,7.138425 -0.24,7.133072 -0.132,-0.0053 -0.456,-0.132704 -0.72,-0.283005 z M 29.004129,59.911402 c -0.360136,-0.582711 -2.141012,-11.480573 -1.980566,-12.11984 0.296811,-1.182589 1.644574,-2.511632 4.574123,-4.510589 4.107156,-2.802487 6.727732,-4.207274 13.599578,-7.290189 11.685498,-5.242463 17.284486,-8.386446 21.949069,-12.324992 1.29048,-1.08962 2.461849,-1.856178 2.60304,-1.70346 0.343773,0.371842 1.930944,9.556601 1.92943,11.165386 -0.0016,1.718768 -0.834089,2.966916 -3.420777,5.128836 -4.378983,3.6599 -10.362592,7.04144 -19.778026,11.177232 -6.593949,2.896435 -12.544083,6.0731 -15.905648,8.491721 -3.261713,2.346778 -3.325319,2.38216 -3.570223,1.985895 z M 14.986227,46.054544 C 11.161825,45.738208 6.5462947,44.963882 2.916991,44.029741 L 0.16,43.320125 0.07426494,35.966266 -0.01147012,28.612405 4.0793936,29.638643 C 10.758819,31.314249 15.823755,31.785478 24.96,31.581322 c 7.836352,-0.17511 11.09039,-0.475767 21.433062,-1.980313 3.0285,-0.440555 5.816992,-0.796429 6.19665,-0.790832 0.65743,0.0097 0.662371,0.03133 0.103856,0.454606 -0.322538,0.244436 -3.058538,1.558869 -6.08,2.920964 -11.86575,5.349155 -17.653027,8.780583 -20.75789,12.307888 L 24.177627,46.4 21.128813,46.355222 c -1.676847,-0.02464 -4.441011,-0.159932 -6.142586,-0.300678 z m 77.34544,-3.749542 C 92.237251,42.210582 92.16,41.8024 92.16,41.397926 92.16,40.99345 91.878054,40.511626 91.533453,40.3272 90.727654,39.895949 80.512698,39.759334 74.893149,40.104653 l -4.306848,0.264656 1.472617,-1.574349 c 2.725245,-2.913507 3.098176,-4.410499 2.289495,-9.19028 -0.310375,-1.834493 -0.449674,-3.45002 -0.309552,-3.590061 0.140121,-0.14004 4.23672,-0.254619 9.103555,-0.254619 8.596973,0 8.852077,-0.01821 8.96425,-0.64 0.0635,-0.352 0.224201,-0.755524 0.357116,-0.896721 0.132912,-0.141196 2.954432,2.411308 6.270039,5.672232 3.315609,3.260924 5.928889,6.028447 5.807279,6.150054 -0.12161,0.121606 -0.2211,0.123494 -0.2211,0.0042 0,-0.324074 -4.497866,2.013545 -8.388333,4.359561 -1.885584,1.13704 -3.505584,1.990093 -3.6,1.895676 z M 59.493334,24.190463 C 59.199613,23.905105 51.222042,23.032226 44.609475,22.561922 36.653808,21.996092 32.212336,21.394602 27.876107,20.29579 24.139636,19.348958 22.378815,18.512257 21.698302,17.360241 21.182558,16.487156 19.065478,5.4678557 19.357396,5.1759376 c 0.08116,-0.081161 1.482948,0.2303462 3.115084,0.6922371 4.523962,1.2802714 9.668173,2.0508055 17.390253,2.6048266 12.40567,0.8900457 16.737504,1.5473717 22.463801,3.4087277 3.178816,1.033288 4.169034,1.507023 5.2,2.487756 2.489927,2.36861 1.564992,4.470812 -3.79527,8.625948 -1.30625,1.012571 -1.990902,1.324567 -2.906666,1.324567 -0.658864,0 -1.257932,-0.05829 -1.331264,-0.129537 z"
       id="path17654"
       inkscape:connector-curvature="0" />
    <path
       style="fill:#49c2d9;stroke-width:0.31999999"
       d="M 84.182106,125.5537 C 78.996083,123.6889 72.815459,122.72724 60.8,121.91561 51.955203,121.31816 44.303082,119.94226 41.297571,118.40896 39.796838,117.64335 38.72,116.34491 38.72,115.30095 c 0,-1.85856 1.458579,-3.37723 6.24,-6.49708 l 2.56,-1.67039 2.08,0.19985 c 1.144,0.10991 4.096,0.34005 6.56,0.51141 12.544762,0.87243 19.261379,1.86512 24.095933,3.56127 3.39704,1.19181 5.032601,2.07516 5.684557,3.07017 0.430732,0.65738 2.36095,10.15496 2.374534,11.68382 0.0068,0.75925 -0.57103,0.67449 -4.132918,-0.6063 z m -46.3688,-15.84751 c -0.545428,-1.50311 -2.053533,-11.102971 -1.863309,-11.860894 0.347859,-1.385978 1.457571,-2.430758 5.334045,-5.021955 4.02303,-2.689155 7.035494,-4.248461 15.835958,-8.196967 9.439085,-4.235036 14.242374,-6.990403 18.677107,-10.713964 1.2844,-1.078432 2.506823,-1.894954 2.716493,-1.814496 0.536938,0.206041 2.305043,10.99063 2.003779,12.222086 -0.316435,1.293475 -3.926813,4.739952 -7.354605,7.020726 C 69.85783,93.539763 63.054016,97.023818 56.32,99.965478 49.042637,103.14449 44.122963,105.90307 39.442035,109.42937 l -1.357965,1.023 z M 5.9041046,100.38447 -0.12190603,94.528947 2.3982516,93.332131 C 3.7843382,92.673882 6.6124435,91.132867 8.6829299,89.907658 10.753416,88.682445 12.51765,87.68 12.603451,87.68 c 0.0858,0 0.201123,0.458509 0.256274,1.018906 0.08028,0.815705 0.291731,1.076899 1.060275,1.309686 1.744841,0.528506 15.252557,0.381814 21.06048,-0.22871 2.959264,-0.311076 5.445126,-0.500941 5.524144,-0.421924 0.07902,0.07901 -1.146762,1.093648 -2.723949,2.254736 -1.60071,1.178407 -3.263699,2.709184 -3.764147,3.46489 -0.784013,1.18391 -0.896528,1.658074 -0.896528,3.778118 0,1.333368 0.117443,3.017268 0.260982,3.742008 0.221293,1.11731 0.172624,1.35675 -0.32,1.57439 -0.319539,0.14117 -4.972982,0.29759 -10.340982,0.34759 l -9.76,0.0909 -0.101255,0.8147 c -0.05569,0.44809 -0.287414,0.8147 -0.514942,0.8147 -0.227528,0 -3.1253924,-2.63499 -6.4396984,-5.85553 z M 69.44,97.231366 c 7.772592,-4.138185 12.869171,-8.301155 14.27137,-11.657088 0.450902,-1.079158 0.547206,-1.135609 1.663619,-0.975139 0.651757,0.09368 2.445011,0.262128 3.985011,0.374323 l 2.8,0.203991 V 91.628726 98.08 l -7.92,0.0137 c -5.37624,0.0093 -9.39783,0.189158 -12.521219,0.56 -2.530672,0.300467 -4.906672,0.544195 -5.28,0.541616 C 66.06545,99.192752 67.416,98.30896 69.44,97.231366 Z M 14.798615,85.074979 C 11.638466,84.833821 7.2740381,84.081699 1.68,82.814253 L 0,82.433613 V 75.10257 c 0,-6.851428 0.0366367,-7.31682 0.56,-7.113655 1.1701091,0.454224 7.0897747,1.784576 10.16,2.283296 2.098276,0.340842 5.942814,0.565043 11.166612,0.651207 7.877227,0.129932 7.997141,0.142182 10.687503,1.09176 4.952589,1.748048 10.665597,2.679382 21.505885,3.505891 5.866701,0.447302 10.621027,0.999088 11.194275,1.299206 0.329677,0.172595 -0.841101,0.891373 -3.84,2.357491 L 57.12,81.28696 49.28,82.535923 C 32.641427,85.18656 24.304887,85.800426 14.798615,85.074979 Z m 69.990691,-6.58736 -1.450695,-0.117024 -1.071808,-6.145299 C 81.677312,68.845382 81.126717,65.9 81.043264,65.68 80.868931,65.220432 84.321421,65.139437 89.230842,65.487917 L 92.16,65.695837 V 72.207917 78.72 L 89.2,78.66232 C 87.572,78.63061 85.587187,78.551981 84.789306,78.487619 Z M 65.28,73.583686 C 63.256,73.27265 58.36,72.784054 54.4,72.497917 40.007475,71.457952 32.091072,69.741622 30.502216,67.31672 c -0.739052,-1.127936 -0.698061,-3.111574 0.0864,-4.181062 0.793412,-1.08169 4.461147,-3.90194 6.496811,-4.995623 1.324071,-0.711373 1.670535,-0.764678 3.394573,-0.522275 1.056,0.148474 5.04065,0.495738 8.854778,0.771696 12.200736,0.882742 17.01622,1.639686 22.485568,3.534502 4.65863,1.613949 6.411328,3.353181 5.806723,5.762116 -0.257095,1.024348 -2.500423,3.478931 -4.803171,5.255491 C 70.891603,74.432317 70.83415,74.437206 65.28,73.583686 Z M 9.2167386,64.460678 C 7.5795322,62.954051 4.8514218,60.271149 3.1542708,58.498669 L 0.06854148,55.275984 3.1542708,53.763517 C 4.8514218,52.931658 7.577063,51.438563 9.2112512,50.445523 10.845439,49.452486 12.321439,48.64 12.491251,48.64 12.661063,48.64 12.8,49.056595 12.8,49.565763 c 0,0.579594 0.2094,1.01288 0.56,1.158739 0.308,0.128138 2.792,0.30352 5.52,0.389744 2.728,0.08622 5.09358,0.281568 5.256844,0.434103 0.163263,0.152537 0.821742,3.236109 1.463285,6.852381 0.965284,5.441145 1.092495,6.636412 0.737644,6.930915 -0.294819,0.244678 -2.451776,0.317203 -6.903286,0.232112 L 12.96,65.44 12.858745,66.32 c -0.05569,0.484 -0.228158,0.88 -0.383262,0.88 -0.155103,0 -1.621538,-1.232694 -3.2587444,-2.739322 z M 29.004129,59.911402 c -0.360136,-0.582711 -2.141012,-11.480573 -1.980566,-12.11984 0.296811,-1.182589 1.644574,-2.511632 4.574123,-4.510589 4.107156,-2.802487 6.727732,-4.207274 13.599578,-7.290189 11.685498,-5.242463 17.284486,-8.386446 21.949069,-12.324992 1.29048,-1.08962 2.461849,-1.856178 2.60304,-1.70346 0.343773,0.371842 1.930944,9.556601 1.92943,11.165386 -0.0016,1.718768 -0.834089,2.966916 -3.420777,5.128836 -4.378983,3.6599 -10.362592,7.04144 -19.778026,11.177232 -6.593949,2.896435 -12.544083,6.0731 -15.905648,8.491721 -3.261713,2.346778 -3.325319,2.38216 -3.570223,1.985895 z M 73.172304,58.985635 C 72.786342,58.599674 66.53737,57.151475 63.098272,56.650979 59.670867,56.152186 47.01224,55.057821 44.496,55.042774 c -0.954858,-0.0057 0.27609,-0.657484 6.224,-3.295555 3.344,-1.483161 6.961763,-3.141901 8.039472,-3.686086 2.138502,-1.079831 5.411312,-1.624208 14.040528,-2.335415 4.364566,-0.359721 16.574006,-0.209606 18.48,0.227213 l 0.88,0.201677 -6.4e-4,6.442698 -6.4e-4,6.442694 -9.460045,0.0059 c -5.203024,0.0032 -9.489769,-0.02387 -9.526102,-0.06021 z M 12.48,45.721498 C 9.2693933,45.352989 5.7226042,44.674013 2.5833016,43.826938 L 0,43.129888 V 35.821274 28.512657 L 1.0419228,28.948 C 2.3974572,29.514379 8.9298534,30.872637 12.8,31.392817 c 3.859743,0.518781 15.215647,0.524878 20.64,0.01108 2.288,-0.216719 7.239642,-0.826697 11.003645,-1.355504 3.764006,-0.528808 7.148006,-0.918027 7.52,-0.864932 0.418093,0.05968 -1.461975,1.062998 -4.923645,2.627572 -10.667219,4.821269 -15.114115,7.273925 -19.278136,10.632731 -1.186975,0.957444 -2.378673,2.167277 -2.648218,2.688522 L 24.623565,46.08 19.751782,46.038483 C 17.072302,46.015651 13.8,45.873008 12.48,45.721498 Z m 60.054246,-7.083831 c 2.52401,-2.73823 2.8649,-4.159952 2.105927,-8.783048 -0.294845,-1.795959 -0.426042,-3.375416 -0.291555,-3.509904 0.332425,-0.332423 11.537091,-0.329429 15.011382,0.004 l 2.8,0.268726 v 6.471879 6.471879 l -6.8,-0.02061 c -3.74,-0.01133 -8.451405,0.101568 -10.469786,0.250889 l -3.669785,0.271495 1.313817,-1.425322 z M 59.493334,24.190463 C 59.199613,23.905105 51.222042,23.032226 44.609475,22.561922 36.653808,21.996092 32.212336,21.394602 27.876107,20.29579 24.139636,19.348958 22.378815,18.512257 21.698302,17.360241 21.182558,16.487156 19.065478,5.4678557 19.357396,5.1759376 c 0.08116,-0.081161 1.482948,0.2303462 3.115084,0.6922371 4.523962,1.2802714 9.668173,2.0508055 17.390253,2.6048266 12.40567,0.8900457 16.737504,1.5473717 22.463801,3.4087277 3.178816,1.033288 4.169034,1.507023 5.2,2.487756 2.489927,2.36861 1.564992,4.470812 -3.79527,8.625948 -1.30625,1.012571 -1.990902,1.324567 -2.906666,1.324567 -0.658864,0 -1.257932,-0.05829 -1.331264,-0.129537 z"
       id="path17652"
       inkscape:connector-curvature="0" />
    <path
       style="fill:#40becf;stroke-width:0.31999999"
       d="M 84.182106,125.5537 C 78.996083,123.6889 72.815459,122.72724 60.8,121.91561 51.955203,121.31816 44.303082,119.94226 41.297571,118.40896 39.796838,117.64335 38.72,116.34491 38.72,115.30095 c 0,-1.85856 1.458579,-3.37723 6.24,-6.49708 l 2.56,-1.67039 2.08,0.19985 c 1.144,0.10991 4.096,0.34005 6.56,0.51141 12.544762,0.87243 19.261379,1.86512 24.095933,3.56127 3.39704,1.19181 5.032601,2.07516 5.684557,3.07017 0.430732,0.65738 2.36095,10.15496 2.374534,11.68382 0.0068,0.75925 -0.57103,0.67449 -4.132918,-0.6063 z m -46.3688,-15.84751 c -0.545428,-1.50311 -2.053533,-11.102971 -1.863309,-11.860894 0.347859,-1.385978 1.457571,-2.430758 5.334045,-5.021955 4.02303,-2.689155 7.035494,-4.248461 15.835958,-8.196967 9.439085,-4.235036 14.242374,-6.990403 18.677107,-10.713964 1.2844,-1.078432 2.506823,-1.894954 2.716493,-1.814496 0.536938,0.206041 2.305043,10.99063 2.003779,12.222086 -0.316435,1.293475 -3.926813,4.739952 -7.354605,7.020726 C 69.85783,93.539763 63.054016,97.023818 56.32,99.965478 49.042637,103.14449 44.122963,105.90307 39.442035,109.42937 l -1.357965,1.023 z M 8.8602243,103.16653 C 3.707823,98.30928 0.01045601,94.431309 0.3385103,94.22856 0.50432963,94.126077 0.64,94.132557 0.64,94.242954 0.64,94.493008 5.9499734,91.641555 9.6510461,89.404029 11.175121,88.48263 12.507121,87.813789 12.611046,87.917712 12.714971,88.021638 12.8,88.4376 12.8,88.842074 c 0,1.401024 0.863323,1.542832 9.44,1.550588 6.942342,0.0063 13.473206,-0.377715 17.04,-1.001891 1.440118,-0.252016 1.298813,0.204999 -0.394067,1.274499 -2.162282,1.366048 -4.607325,3.681898 -5.256458,4.978708 -0.922169,1.842272 -0.999433,2.632051 -0.537856,5.497812 0.239024,1.48401 0.399328,2.73808 0.356231,2.7868 -0.313933,0.35491 -8.519507,0.74099 -13.92785,0.65532 l -6.56,-0.10391 -0.101255,0.88 c -0.05569,0.484 -0.244589,0.88 -0.419776,0.88 -0.175186,0 -1.785621,-1.38306 -3.5787447,-3.07347 z M 70.1616,97.10841 c 1.89288,-0.961626 3.51288,-1.74841 3.6,-1.74841 0.08712,0 0.1584,0.624915 0.1584,1.388704 v 1.388704 l -3.021306,0.371296 c -1.661718,0.204211 -3.281718,0.36608 -3.6,0.359706 -0.318281,-0.0064 0.970026,-0.798375 2.862906,-1.76 z M 13.44,84.925616 C 10.97285,84.640413 4.5094013,83.458086 2.4,82.906125 L 0.16,82.319987 0.07389852,75.043418 C -0.00719495,68.190077 0.0207237,67.780461 0.55389853,68.000941 1.7435172,68.492877 5.860993,69.469408 9.4956643,70.121638 12.49486,70.659837 15.006159,70.830877 21.6,70.946051 c 7.776227,0.135824 8.445486,0.19432 10.24,0.894983 4.552173,1.777392 10.289315,2.819804 19.412842,3.527232 5.93566,0.460243 13.727852,1.34576 13.969622,1.587532 0.06352,0.06352 -1.805549,1.059399 -4.153485,2.21306 L 56.8,81.266426 49.44,82.417395 c -14.202064,2.220944 -16.312637,2.427463 -25.92,2.536243 -4.928,0.0558 -9.464,0.04319 -10.08,-0.02803 z M 65.28,73.583686 C 63.256,73.27265 58.36,72.784054 54.4,72.497917 40.007475,71.457952 32.091072,69.741622 30.502216,67.31672 c -0.739052,-1.127936 -0.698061,-3.111574 0.0864,-4.181062 0.793412,-1.08169 4.461147,-3.90194 6.496811,-4.995623 1.324071,-0.711373 1.670535,-0.764678 3.394573,-0.522275 1.056,0.148474 5.04065,0.495738 8.854778,0.771696 12.200736,0.882742 17.01622,1.639686 22.485568,3.534502 4.65863,1.613949 6.411328,3.353181 5.806723,5.762116 -0.257095,1.024348 -2.500423,3.478931 -4.803171,5.255491 C 70.891603,74.432317 70.83415,74.437206 65.28,73.583686 Z M 6.067225,61.217517 C 0.5301647,55.799446 0.01044034,55.200323 0.68893088,55.017562 1.7797653,54.723728 4.3906208,53.358272 8.309496,51.03207 c 1.891903,-1.123014 3.63222,-2.084643 3.867373,-2.136956 0.255071,-0.05674 0.499854,0.288195 0.60678,0.855049 0.220833,1.170727 0.870491,1.318835 7.109528,1.620842 4.130678,0.199949 4.381776,0.249872 4.528267,0.900339 0.731644,3.248755 2.204624,12.728557 2.007932,12.92265 -0.137117,0.135302 -3.259821,0.210323 -6.93934,0.166707 L 12.8,65.281405 v 0.780413 c 0,0.429225 -0.135768,0.86432 -0.301706,0.966876 -0.165938,0.102554 -3.0599196,-2.512473 -6.431069,-5.811177 z m 22.936904,-1.306115 c -0.360136,-0.582711 -2.141012,-11.480573 -1.980566,-12.11984 0.296811,-1.182589 1.644574,-2.511632 4.574123,-4.510589 4.107156,-2.802487 6.727732,-4.207274 13.599578,-7.290189 11.685498,-5.242463 17.284486,-8.386446 21.949069,-12.324992 1.29048,-1.08962 2.461849,-1.856178 2.60304,-1.70346 0.343773,0.371842 1.930944,9.556601 1.92943,11.165386 -0.0016,1.718768 -0.834089,2.966916 -3.420777,5.128836 -4.378983,3.6599 -10.362592,7.04144 -19.778026,11.177232 -6.593949,2.896435 -12.544083,6.0731 -15.905648,8.491721 -3.261713,2.346778 -3.325319,2.38216 -3.570223,1.985895 z m 41.96525,-1.839277 C 66.572685,56.749994 59.276045,55.822038 48.24,55.181498 c -2.068,-0.120029 -3.758122,-0.308967 -3.755824,-0.419866 0.0022,-0.110896 1.190298,-0.695715 2.64,-1.299597 C 48.573878,52.858157 52.352,51.178538 55.52,49.729552 l 5.76,-2.634518 4.721626,-0.507517 C 68.598518,46.308384 71.442518,46.08 72.321626,46.08 H 73.92 v 6.4 c 0,3.52 -0.108,6.385389 -0.24,6.367533 -0.132,-0.01786 -1.351779,-0.366791 -2.710621,-0.775408 z M 14.56,45.861261 C 11.703498,45.61321 6.369424,44.702525 3.28,43.935427 L 0,43.121011 v -7.359689 c 0,-5.84859 0.08212829,-7.292634 0.4,-7.03311 0.57990259,0.473458 6.5285818,1.866362 10.8,2.528859 2.834941,0.4397 5.553826,0.568194 11.84,0.559556 8.439265,-0.0116 11.916982,-0.297016 23.183798,-1.902719 2.983088,-0.425138 5.481044,-0.715733 5.551008,-0.645767 0.178919,0.178916 -1.583107,1.047967 -7.465504,3.682077 -9.21288,4.125481 -14.621971,7.388176 -18.15136,10.948668 L 23.995885,46.08 19.917942,46.026208 C 17.675074,45.996621 15.264,45.922397 14.56,45.861261 Z M 72.96,38.88 c 0.41336,-0.44 0.798461,-0.8 0.855779,-0.8 0.05732,0 0.104221,0.36 0.104221,0.8 0,0.653904 -0.156282,0.8 -0.855779,0.8 H 72.208438 Z M 59.493334,24.190463 C 59.199613,23.905105 51.222042,23.032226 44.609475,22.561922 36.653808,21.996092 32.212336,21.394602 27.876107,20.29579 24.139636,19.348958 22.378815,18.512257 21.698302,17.360241 21.182558,16.487156 19.065478,5.4678557 19.357396,5.1759376 c 0.08116,-0.081161 1.482948,0.2303462 3.115084,0.6922371 4.523962,1.2802714 9.668173,2.0508055 17.390253,2.6048266 12.40567,0.8900457 16.737504,1.5473717 22.463801,3.4087277 3.178816,1.033288 4.169034,1.507023 5.2,2.487756 2.489927,2.36861 1.564992,4.470812 -3.79527,8.625948 -1.30625,1.012571 -1.990902,1.324567 -2.906666,1.324567 -0.658864,0 -1.257932,-0.05829 -1.331264,-0.129537 z"
       id="path17650"
       inkscape:connector-curvature="0" />
    <path
       style="fill:#33bbc7;stroke-width:0.31999999"
       d="M 84.182106,125.5537 C 78.996083,123.6889 72.815459,122.72724 60.8,121.91561 51.955203,121.31816 44.303082,119.94226 41.297571,118.40896 39.796838,117.64335 38.72,116.34491 38.72,115.30095 c 0,-1.85856 1.458579,-3.37723 6.24,-6.49708 l 2.56,-1.67039 2.08,0.19985 c 1.144,0.10991 4.096,0.34005 6.56,0.51141 12.544762,0.87243 19.261379,1.86512 24.095933,3.56127 3.39704,1.19181 5.032601,2.07516 5.684557,3.07017 0.430732,0.65738 2.36095,10.15496 2.374534,11.68382 0.0068,0.75925 -0.57103,0.67449 -4.132918,-0.6063 z m -46.3688,-15.84751 c -0.545428,-1.50311 -2.053533,-11.102971 -1.863309,-11.860894 0.347859,-1.385978 1.457571,-2.430758 5.334045,-5.021955 4.02303,-2.689155 7.035494,-4.248461 15.835958,-8.196967 9.439085,-4.235036 14.242374,-6.990403 18.677107,-10.713964 1.2844,-1.078432 2.506823,-1.894954 2.716493,-1.814496 0.536938,0.206041 2.305043,10.99063 2.003779,12.222086 -0.316435,1.293475 -3.926813,4.739952 -7.354605,7.020726 C 69.85783,93.539763 63.054016,97.023818 56.32,99.965478 49.042637,103.14449 44.122963,105.90307 39.442035,109.42937 l -1.357965,1.023 z M 6.2266544,100.45522 0.16,94.564426 2.9245832,93.230093 C 4.445104,92.496208 7.1402723,91.019213 8.9138461,89.947878 10.68742,88.876547 12.197357,88 12.269263,88 c 0.0719,0 0.2135,0.413818 0.314655,0.919594 0.101156,0.505776 0.443156,1.029904 0.76,1.164732 0.316845,0.134829 3.528082,0.31417 7.136082,0.398535 5.824723,0.136198 9.398063,-0.02355 17.439126,-0.779645 l 2.239124,-0.210541 -2.718359,2.074563 c -4.417872,3.371581 -5.171763,5.195591 -4.365577,10.562362 l 0.271833,1.8096 -2.513074,0.26644 c -1.38219,0.14654 -6.00707,0.25581 -10.277512,0.24284 l -7.764439,-0.0236 -0.248907,0.96056 -0.248906,0.96057 z M 14.4,84.911766 C 11.342979,84.616026 6.6571082,83.83599 3.9830557,83.177702 2.4471046,82.799587 0.95857347,82.456275 0.67520867,82.414781 0.22181573,82.348394 0.14966938,81.465123 0.07389852,75.053094 -0.00721959,68.188557 0.02056174,67.780746 0.55389853,68.00703 5.3516717,70.042637 18.138705,71.655504 25.980787,71.214202 c 3.008192,-0.169284 3.922563,-0.116509 4.668975,0.269475 3.414164,1.765536 11.876568,3.414134 21.510238,4.190505 8.428746,0.679268 8.00007,0.56185 7.999674,2.191245 -3.08e-4,1.259747 -0.08595,1.382663 -1.527584,2.192327 -1.238096,0.69535 -2.99906,1.104416 -9.300733,2.160528 -12.869319,2.156803 -17.273043,2.623177 -25.811357,2.733532 -4.224,0.05459 -8.328,0.03657 -9.12,-0.04005 z M 65.28,73.583686 C 63.256,73.27265 58.36,72.784054 54.4,72.497917 40.007475,71.457952 32.091072,69.741622 30.502216,67.31672 c -0.739052,-1.127936 -0.698061,-3.111574 0.0864,-4.181062 0.793412,-1.08169 4.461147,-3.90194 6.496811,-4.995623 1.324071,-0.711373 1.670535,-0.764678 3.394573,-0.522275 1.056,0.148474 5.04065,0.495738 8.854778,0.771696 12.200736,0.882742 17.01622,1.639686 22.485568,3.534502 4.65863,1.613949 6.411328,3.353181 5.806723,5.762116 -0.257095,1.024348 -2.500423,3.478931 -4.803171,5.255491 C 70.891603,74.432317 70.83415,74.437206 65.28,73.583686 Z M 6.0401536,61.148563 C 2.8060691,57.996275 0.232,55.366042 0.32,55.303606 c 0.088,-0.06244 1.5043083,-0.758947 3.147352,-1.547798 1.6430435,-0.788851 4.3070435,-2.251091 5.92,-3.249421 L 12.32,48.691242 l 0.265073,1.06598 c 0.331924,1.334826 0.459809,1.366832 6.561231,1.64216 2.682572,0.12105 4.940526,0.322228 5.017676,0.447056 0.139198,0.225229 2.39602,12.66754 2.39602,13.209741 0,0.157997 -2.999534,0.239155 -6.796006,0.183879 l -6.796006,-0.09895 -0.305767,0.869444 C 12.494049,66.488749 12.25832,66.88 12.13838,66.88 12.01844,66.88 9.2742381,64.300854 6.0401536,61.148563 Z M 29.004129,59.911402 c -0.360136,-0.582711 -2.141012,-11.480573 -1.980566,-12.11984 0.296811,-1.182589 1.644574,-2.511632 4.574123,-4.510589 4.107156,-2.802487 6.727732,-4.207274 13.599578,-7.290189 11.685498,-5.242463 17.284486,-8.386446 21.949069,-12.324992 1.29048,-1.08962 2.461849,-1.856178 2.60304,-1.70346 0.343773,0.371842 1.930944,9.556601 1.92943,11.165386 -0.0016,1.718768 -0.834089,2.966916 -3.420777,5.128836 -4.378983,3.6599 -10.362592,7.04144 -19.778026,11.177232 -6.593949,2.896435 -12.544083,6.0731 -15.905648,8.491721 -3.261713,2.346778 -3.325319,2.38216 -3.570223,1.985895 z M 51.68,55.287315 C 48.864,55.131133 46.2,54.92377 45.76,54.826506 l -0.8,-0.176839 0.96,-0.440829 C 48.100797,53.207424 59.954362,48 60.053069,48 60.111882,48 60.16,49.728 60.16,51.84 v 3.84 l -1.68,-0.05436 c -0.924,-0.02989 -3.984,-0.182144 -6.8,-0.338327 z M 14.879778,45.751424 C 10.940194,45.426739 7.8512368,44.928061 3.6,43.930422 L 0,43.08561 v -7.17704 c 0,-6.70738 0.03664617,-7.162367 0.56,-6.952777 1.2746408,0.510461 6.5535722,1.740441 9.84,2.292699 2.874138,0.482976 5.222727,0.589707 12.8,0.581694 9.496038,-0.01004 12.183043,-0.216607 23.15137,-1.779769 2.525254,-0.359889 4.653635,-0.592077 4.729737,-0.515975 0.0761,0.0761 -0.550013,0.438192 -1.391369,0.804644 C 36.300813,36.170621 27.522396,41.333341 25.13296,44.781299 L 24.232959,46.08 20.99648,46.0344 C 19.216416,46.009318 16.4639,45.881981 14.879778,45.751424 Z M 59.493334,24.190463 C 59.199613,23.905105 51.222042,23.032226 44.609475,22.561922 36.653808,21.996092 32.212336,21.394602 27.876107,20.29579 24.139636,19.348958 22.378815,18.512257 21.698302,17.360241 21.182558,16.487156 19.065478,5.4678557 19.357396,5.1759376 c 0.08116,-0.081161 1.482948,0.2303462 3.115084,0.6922371 4.523962,1.2802714 9.668173,2.0508055 17.390253,2.6048266 12.40567,0.8900457 16.737504,1.5473717 22.463801,3.4087277 3.178816,1.033288 4.169034,1.507023 5.2,2.487756 2.489927,2.36861 1.564992,4.470812 -3.79527,8.625948 -1.30625,1.012571 -1.990902,1.324567 -2.906666,1.324567 -0.658864,0 -1.257932,-0.05829 -1.331264,-0.129537 z"
       id="path17648"
       inkscape:connector-curvature="0" />
    <path
       style="fill:#8e8e8f;stroke-width:0.31999999"
       d="M 84.182106,125.5537 C 78.996083,123.6889 72.815459,122.72724 60.8,121.91561 51.955203,121.31816 44.303082,119.94226 41.297571,118.40896 39.796838,117.64335 38.72,116.34491 38.72,115.30095 c 0,-1.85856 1.458579,-3.37723 6.24,-6.49708 l 2.56,-1.67039 2.08,0.19985 c 1.144,0.10991 4.096,0.34005 6.56,0.51141 12.544762,0.87243 19.261379,1.86512 24.095933,3.56127 3.39704,1.19181 5.032601,2.07516 5.684557,3.07017 0.430732,0.65738 2.36095,10.15496 2.374534,11.68382 0.0068,0.75925 -0.57103,0.67449 -4.132918,-0.6063 z m -46.3688,-15.84751 c -0.545428,-1.50311 -2.053533,-11.102971 -1.863309,-11.860894 0.347859,-1.385978 1.457571,-2.430758 5.334045,-5.021955 4.02303,-2.689155 7.035494,-4.248461 15.835958,-8.196967 9.439085,-4.235036 14.242374,-6.990403 18.677107,-10.713964 1.2844,-1.078432 2.506823,-1.894954 2.716493,-1.814496 0.536938,0.206041 2.305043,10.99063 2.003779,12.222086 -0.316435,1.293475 -3.926813,4.739952 -7.354605,7.020726 C 69.85783,93.539763 63.054016,97.023818 56.32,99.965478 49.042637,103.14449 44.122963,105.90307 39.442035,109.42937 l -1.357965,1.023 z M 6.2382317,100.37604 C 3.0993262,97.326858 0.4716263,94.818858 0.39889869,94.802704 -0.06499705,94.699667 -0.00461047,94.4 0.480048,94.4 c 0.6562956,0 5.0337331,-2.278778 9.1367434,-4.756342 2.6634066,-1.608276 2.7046666,-1.62096 2.8022046,-0.861402 0.05445,0.424 0.302076,0.939453 0.550287,1.14545 1.069597,0.887686 14.033258,0.952665 23.670717,0.118646 l 2.56,-0.221539 -2.442902,1.992877 c -1.613869,1.316563 -2.742074,2.542547 -3.324455,3.612572 -0.824717,1.51528 -0.869881,1.797303 -0.700582,4.374717 0.09953,1.515261 0.27663,3.000991 0.393549,3.301621 0.155731,0.40043 0.01226,0.59319 -0.536516,0.7208 -1.529914,0.35578 -12.073473,0.68608 -15.629094,0.48962 -3.810538,-0.21055 -4.48,-0.0608 -4.48,1.00216 0,0.33045 -0.1203,0.60082 -0.267333,0.60082 -0.147034,0 -2.8355297,-2.49478 -5.9744353,-5.54396 z M 16,84.932342 C 15.384,84.85935 13.512,84.650957 11.84,84.469242 10.168,84.28753 7.144,83.76248 5.12,83.302464 3.096,82.842451 1.152,82.439354 0.8,82.406691 0.18335924,82.349472 0.15686082,82.082554 0.07399217,75.093651 0.02668786,71.104144 0.04056398,67.84 0.104828,67.84 c 0.064264,0 0.53496755,0.204304 1.0460078,0.45401 1.145014,0.559475 7.3929335,1.95656 10.8491642,2.425958 1.408,0.191222 6.016,0.423786 10.24,0.516806 6.474298,0.14258 7.906069,0.261988 9.12,0.760596 1.909027,0.784112 8.215658,2.422118 11.12,2.888169 l 2.32,0.372285 v 3.811088 c 0,2.967984 -0.09466,3.811088 -0.427882,3.811088 -0.235334,0 -1.855334,0.217885 -3.6,0.484186 -6.490873,0.990752 -11.658325,1.454147 -17.572118,1.575798 -3.344,0.06879 -6.584,0.06535 -7.2,-0.0076 z M 65.28,73.583686 C 63.256,73.27265 58.36,72.784054 54.4,72.497917 40.007475,71.457952 32.091072,69.741622 30.502216,67.31672 c -0.739052,-1.127936 -0.698061,-3.111574 0.0864,-4.181062 0.793412,-1.08169 4.461147,-3.90194 6.496811,-4.995623 1.324071,-0.711373 1.670535,-0.764678 3.394573,-0.522275 1.056,0.148474 5.04065,0.495738 8.854778,0.771696 12.200736,0.882742 17.01622,1.639686 22.485568,3.534502 4.65863,1.613949 6.411328,3.353181 5.806723,5.762116 -0.257095,1.024348 -2.500423,3.478931 -4.803171,5.255491 C 70.891603,74.432317 70.83415,74.437206 65.28,73.583686 Z M 9.1124266,64.008608 C 5.4102074,60.607424 0.28036646,55.292966 0.49366483,55.079667 0.57414918,54.999184 0.64,55.042096 0.64,55.17503 c 0,0.292368 6.6991139,-3.227734 9.454725,-4.96806 1.085939,-0.685834 2.066874,-1.24697 2.179855,-1.24697 0.112981,0 0.20542,0.354934 0.20542,0.788742 0,0.471834 0.267947,0.932141 0.666886,1.145648 0.366788,0.196298 2.986646,0.453364 5.821908,0.571258 l 5.155022,0.214352 1.169989,6.56 c 0.643494,3.608 1.098831,6.68791 1.011862,6.844243 -0.08877,0.159575 -3.086221,0.213943 -6.834138,0.123962 l -6.676013,-0.160285 -0.245331,0.946768 -0.245332,0.946765 z M 29.004129,59.911402 c -0.360136,-0.582711 -2.141012,-11.480573 -1.980566,-12.11984 0.296811,-1.182589 1.644574,-2.511632 4.574123,-4.510589 4.107156,-2.802487 6.727732,-4.207274 13.599578,-7.290189 11.685498,-5.242463 17.284486,-8.386446 21.949069,-12.324992 1.29048,-1.08962 2.461849,-1.856178 2.60304,-1.70346 0.343773,0.371842 1.930944,9.556601 1.92943,11.165386 -0.0016,1.718768 -0.834089,2.966916 -3.420777,5.128836 -4.378983,3.6599 -10.362592,7.04144 -19.778026,11.177232 -6.593949,2.896435 -12.544083,6.0731 -15.905648,8.491721 -3.261713,2.346778 -3.325319,2.38216 -3.570223,1.985895 z M 16.32,45.764326 C 11.692364,45.45231 8.8718413,45.033005 3.92,43.920915 L 0,43.040557 v -7.154515 c 0,-6.694516 0.03600513,-7.138646 0.56,-6.907697 0.308,0.13575 1.784,0.567331 3.28,0.959068 9.255836,2.423704 21.359611,2.853518 35.310438,1.253895 C 44.691328,30.555982 44.8,30.560997 44.8,31.452044 c 0,0.619111 -0.604742,1.026222 -3.92,2.638922 -7.007667,3.408871 -12.88406,7.259671 -15.353523,10.061168 -1.323452,1.501399 -1.431967,1.555092 -3.446477,1.705264 -1.144,0.08528 -3.736,0.0434 -5.76,-0.09307 z M 59.493334,24.190463 C 59.199613,23.905105 51.222042,23.032226 44.609475,22.561922 36.653808,21.996092 32.212336,21.394602 27.876107,20.29579 24.139636,19.348958 22.378815,18.512257 21.698302,17.360241 21.182558,16.487156 19.065478,5.4678557 19.357396,5.1759376 c 0.08116,-0.081161 1.482948,0.2303462 3.115084,0.6922371 4.523962,1.2802714 9.668173,2.0508055 17.390253,2.6048266 12.40567,0.8900457 16.737504,1.5473717 22.463801,3.4087277 3.178816,1.033288 4.169034,1.507023 5.2,2.487756 2.489927,2.36861 1.564992,4.470812 -3.79527,8.625948 -1.30625,1.012571 -1.990902,1.324567 -2.906666,1.324567 -0.658864,0 -1.257932,-0.05829 -1.331264,-0.129537 z"
       id="path17646"
       inkscape:connector-curvature="0" />
    <path
       style="fill:#24b8bc;stroke-width:0.31999999"
       d="m 85.44,125.73999 c -5.548624,-2.07304 -11.8404,-3.1161 -24,-3.97874 -9.901891,-0.70248 -17.160554,-1.97017 -20.158886,-3.52067 -2.48466,-1.28487 -2.986653,-3.44919 -1.256938,-5.41923 1.313898,-1.49644 7.060074,-5.35813 8.016294,-5.38731 0.417741,-0.0127 2.70353,0.14632 5.07953,0.35347 2.376,0.20714 6.975584,0.59886 10.221296,0.87047 7.589997,0.63517 12.393443,1.46703 16.626192,2.87933 3.893075,1.29897 5.534429,2.26121 6.061536,3.55355 0.519059,1.27262 2.266186,11.10582 2.016173,11.34747 C 87.932339,126.54741 86.76,126.23316 85.44,125.73999 Z M 37.923514,109.68 C 37.577578,108.66552 36.16,99.803802 36.16,98.655734 c 0,-1.611609 0.633062,-2.440108 3.43856,-4.500089 3.62281,-2.660112 7.97064,-5.025031 15.148086,-8.239517 11.527357,-5.162634 16.647044,-8.038982 21.314628,-11.975014 1.265702,-1.067328 2.37447,-1.822167 2.463926,-1.677418 0.295584,0.478259 1.844899,9.469517 1.87079,10.85689 0.0325,1.741369 -0.821251,2.963043 -3.762848,5.384438 -4.2992,3.538915 -10.244067,6.835363 -20.38751,11.304938 -7.53407,3.319788 -12.565971,6.111588 -16.216822,8.997418 -1.770922,1.39984 -1.906372,1.45598 -2.105296,0.87262 z M 6.2382317,100.37604 C 3.0993262,97.326858 0.4716263,94.818858 0.39889869,94.802704 -0.06499705,94.699667 -0.00461047,94.4 0.480048,94.4 c 0.6562956,0 5.0337331,-2.278778 9.1367434,-4.756342 2.6634066,-1.608276 2.7046666,-1.62096 2.8022046,-0.861402 0.05445,0.424 0.302076,0.939453 0.550287,1.14545 1.069597,0.887686 14.033258,0.952665 23.670717,0.118646 l 2.56,-0.221539 -2.442902,1.992877 c -1.613869,1.316563 -2.742074,2.542547 -3.324455,3.612572 -0.824717,1.51528 -0.869881,1.797303 -0.700582,4.374717 0.09953,1.515261 0.27663,3.000991 0.393549,3.301621 0.155731,0.40043 0.01226,0.59319 -0.536516,0.7208 -1.529914,0.35578 -12.073473,0.68608 -15.629094,0.48962 -3.810538,-0.21055 -4.48,-0.0608 -4.48,1.00216 0,0.33045 -0.1203,0.60082 -0.267333,0.60082 -0.147034,0 -2.8355297,-2.49478 -5.9744353,-5.54396 z M 16,84.932342 C 15.384,84.85935 13.512,84.650957 11.84,84.469242 10.168,84.28753 7.144,83.76248 5.12,83.302464 3.096,82.842451 1.152,82.439354 0.8,82.406691 0.18335924,82.349472 0.15686082,82.082554 0.07399217,75.093651 0.02668786,71.104144 0.04056398,67.84 0.104828,67.84 c 0.064264,0 0.53496755,0.204304 1.0460078,0.45401 1.145014,0.559475 7.3929335,1.95656 10.8491642,2.425958 1.408,0.191222 6.016,0.423786 10.24,0.516806 6.474298,0.14258 7.906069,0.261988 9.12,0.760596 1.909027,0.784112 8.215658,2.422118 11.12,2.888169 l 2.32,0.372285 v 3.811088 c 0,2.967984 -0.09466,3.811088 -0.427882,3.811088 -0.235334,0 -1.855334,0.217885 -3.6,0.484186 -6.490873,0.990752 -11.658325,1.454147 -17.572118,1.575798 -3.344,0.06879 -6.584,0.06535 -7.2,-0.0076 z M 66.56,73.588163 C 64.712,73.27281 60.32,72.782858 56.8,72.499379 42.206659,71.324122 39.582128,70.948438 34.293222,69.277674 31.321821,68.339008 30.389714,67.486221 30.16603,65.501699 30.02028,64.208608 30.11239,63.96599 31.210555,62.750454 32.485114,61.33967 37.819853,57.6 38.557814,57.6 c 0.239732,0 1.490295,0.138346 2.779031,0.307434 1.288736,0.169091 5.511155,0.532915 9.383155,0.808499 11.687942,0.831875 18.433126,2.057859 23.293376,4.233737 3.303293,1.478848 4.321056,3.775917 2.706624,6.108807 -0.916144,1.323846 -5.667325,5.194224 -6.312554,5.142291 C 70.13935,74.1792 68.408,73.90352 66.56,73.588163 Z M 9.1124266,64.008608 C 5.4102074,60.607424 0.28036646,55.292966 0.49366483,55.079667 0.57414918,54.999184 0.64,55.042096 0.64,55.17503 c 0,0.292368 6.6991139,-3.227734 9.454725,-4.96806 1.085939,-0.685834 2.066874,-1.24697 2.179855,-1.24697 0.112981,0 0.20542,0.354934 0.20542,0.788742 0,0.471834 0.267947,0.932141 0.666886,1.145648 0.366788,0.196298 2.986646,0.453364 5.821908,0.571258 l 5.155022,0.214352 1.169989,6.56 c 0.643494,3.608 1.098831,6.68791 1.011862,6.844243 -0.08877,0.159575 -3.086221,0.213943 -6.834138,0.123962 l -6.676013,-0.160285 -0.245331,0.946768 -0.245332,0.946765 z M 28.967698,59.149094 c -0.49263,-2.060457 -1.765147,-9.846774 -1.766337,-10.807923 -0.0011,-0.893241 0.283026,-1.372345 1.518639,-2.560736 2.995614,-2.881133 8.788346,-6.236409 17.081888,-9.894205 5.403786,-2.383292 12.664557,-6.007073 15.546294,-7.759003 1.1945,-0.726188 3.509367,-2.402342 5.144148,-3.724787 1.63478,-1.322445 3.048371,-2.328407 3.141308,-2.235469 0.393959,0.393958 2.104141,11.161282 1.903876,11.986811 -0.119594,0.492983 -1.186749,1.82642 -2.405002,3.005108 C 65.074195,41.085405 59.662701,44.230912 48,49.442461 c -7.596458,3.394525 -11.760592,5.630464 -15.552022,8.350691 -3.101324,2.225098 -3.257891,2.286099 -3.48028,1.355942 z M 16.32,45.764326 C 11.692364,45.45231 8.8718413,45.033005 3.92,43.920915 L 0,43.040557 v -7.154515 c 0,-6.694516 0.03600513,-7.138646 0.56,-6.907697 0.308,0.13575 1.784,0.567331 3.28,0.959068 9.255836,2.423704 21.359611,2.853518 35.310438,1.253895 C 44.691328,30.555982 44.8,30.560997 44.8,31.452044 c 0,0.619111 -0.604742,1.026222 -3.92,2.638922 -7.007667,3.408871 -12.88406,7.259671 -15.353523,10.061168 -1.323452,1.501399 -1.431967,1.555092 -3.446477,1.705264 -1.144,0.08528 -3.736,0.0434 -5.76,-0.09307 z M 59.52,23.994351 C 57.347424,23.487365 50.319133,22.723286 43.36,22.23752 31.26895,21.393532 23.316672,19.616501 21.890512,17.439906 21.371057,16.647116 19.403534,6.2050672 19.651737,5.5582614 19.776723,5.2325546 20.188448,5.2743549 21.583747,5.7544083 25.678256,7.1631258 31.415673,8.1007674 39.2,8.6333574 c 14.498589,0.991968 21.041533,2.1577636 26.346723,4.6943536 1.9272,0.921459 2.430573,1.322728 2.81576,2.24461 0.360717,0.863315 0.390803,1.359613 0.130279,2.149014 -0.553911,1.678365 -6.083463,6.640584 -7.317274,6.566521 C 60.88097,24.270176 60.136,24.138099 59.52,23.994351 Z"
       id="path17644"
       inkscape:connector-curvature="0" />
    <path
       style="fill:#17b5b7;stroke-width:0.31999999"
       d="m 85.44,125.73999 c -5.548624,-2.07304 -11.8404,-3.1161 -24,-3.97874 -9.901891,-0.70248 -17.160554,-1.97017 -20.158886,-3.52067 -2.48466,-1.28487 -2.986653,-3.44919 -1.256938,-5.41923 1.313898,-1.49644 7.060074,-5.35813 8.016294,-5.38731 0.417741,-0.0127 2.70353,0.14632 5.07953,0.35347 2.376,0.20714 6.975584,0.59886 10.221296,0.87047 7.589997,0.63517 12.393443,1.46703 16.626192,2.87933 3.893075,1.29897 5.534429,2.26121 6.061536,3.55355 0.519059,1.27262 2.266186,11.10582 2.016173,11.34747 C 87.932339,126.54741 86.76,126.23316 85.44,125.73999 Z M 37.923514,109.68 C 37.577578,108.66552 36.16,99.803802 36.16,98.655734 c 0,-1.611609 0.633062,-2.440108 3.43856,-4.500089 3.62281,-2.660112 7.97064,-5.025031 15.148086,-8.239517 11.527357,-5.162634 16.647044,-8.038982 21.314628,-11.975014 1.265702,-1.067328 2.37447,-1.822167 2.463926,-1.677418 0.295584,0.478259 1.844899,9.469517 1.87079,10.85689 0.0325,1.741369 -0.821251,2.963043 -3.762848,5.384438 -4.2992,3.538915 -10.244067,6.835363 -20.38751,11.304938 -7.53407,3.319788 -12.565971,6.111588 -16.216822,8.997418 -1.770922,1.39984 -1.906372,1.45598 -2.105296,0.87262 z M 8.2742406,102.16 C 3.8399709,97.884774 1.12,95.054323 1.12,94.715168 1.12,94.572592 2.272,93.849965 3.68,93.109328 5.088,92.368694 7.5639958,90.988106 9.1822131,90.04136 10.80043,89.094611 12.20443,88.32 12.302213,88.32 c 0.09778,0 0.177787,0.363565 0.177787,0.80792 0,1.302342 1.102822,1.499747 9.36,1.675434 l 7.6,0.161705 v 6.485248 6.485253 l -3.979608,0.22953 c -2.188784,0.12624 -5.968784,0.17675 -8.4,0.11222 -4.380941,-0.11626 -4.421305,-0.11088 -4.522648,0.60269 -0.05624,0.396 -0.235743,0.72 -0.398894,0.72 -0.16315,0 -1.902225,-1.548 -3.8646094,-3.44 z M 13.6,84.589965 C 9.4325834,84.094458 7.0715882,83.700678 4.2292515,83.027056 2.4193401,82.598115 0.76334006,82.281552 0.54925165,82.323584 0.25474977,82.381398 0.13906438,80.627936 0.07399217,75.12 0.022407,70.753654 0.1077888,67.84 0.2873255,67.84 c 0.16463764,0 0.34734116,0.143242 0.40600784,0.318317 0.16175956,0.482726 5.85144266,1.832733 10.93601466,2.594816 3.373663,0.505648 6.226257,0.690272 11.170469,0.722963 l 6.639816,0.0439 1.84e-4,6.438131 1.83e-4,6.438131 -1.2,0.198346 c -1.232166,0.203664 -12.919216,0.199955 -14.64,-0.0046 z M 66.56,73.588163 C 64.712,73.27281 60.32,72.782858 56.8,72.499379 42.206659,71.324122 39.582128,70.948438 34.293222,69.277674 31.321821,68.339008 30.389714,67.486221 30.16603,65.501699 30.02028,64.208608 30.11239,63.96599 31.210555,62.750454 32.485114,61.33967 37.819853,57.6 38.557814,57.6 c 0.239732,0 1.490295,0.138346 2.779031,0.307434 1.288736,0.169091 5.511155,0.532915 9.383155,0.808499 11.687942,0.831875 18.433126,2.057859 23.293376,4.233737 3.303293,1.478848 4.321056,3.775917 2.706624,6.108807 -0.916144,1.323846 -5.667325,5.194224 -6.312554,5.142291 C 70.13935,74.1792 68.408,73.90352 66.56,73.588163 Z M 6.445415,61.249872 C 3.4284368,58.329302 0.96,55.822035 0.96,55.678166 0.96,55.534294 2.4865836,54.601376 4.352408,53.605008 6.2182323,52.60864 8.6687686,51.227907 9.7980442,50.536714 10.92732,49.84552 11.983172,49.28 12.144381,49.28 c 0.16121,0 0.338673,0.394294 0.394364,0.876211 0.124062,1.073575 0.731601,1.206151 7.061255,1.540909 2.42,0.12799 4.4,0.28496 4.4,0.348829 0,0.06386 0.504,2.953657 1.12,6.421763 0.616,3.468102 1.12,6.344774 1.12,6.392602 0,0.04783 -3.06,0.12582 -6.8,0.173321 -6.778504,0.08609 -6.800323,0.08864 -6.902256,0.806365 -0.05624,0.396 -0.215804,0.72 -0.354585,0.72 -0.138781,0 -2.7207654,-2.389558 -5.737744,-5.310128 z m 22.522283,-2.100778 c -0.49263,-2.060457 -1.765147,-9.846774 -1.766337,-10.807923 -0.0011,-0.893241 0.283026,-1.372345 1.518639,-2.560736 2.995614,-2.881133 8.788346,-6.236409 17.081888,-9.894205 5.403786,-2.383292 12.664557,-6.007073 15.546294,-7.759003 1.1945,-0.726188 3.509367,-2.402342 5.144148,-3.724787 1.63478,-1.322445 3.048371,-2.328407 3.141308,-2.235469 0.393959,0.393958 2.104141,11.161282 1.903876,11.986811 -0.119594,0.492983 -1.186749,1.82642 -2.405002,3.005108 C 65.074195,41.085405 59.662701,44.230912 48,49.442461 c -7.596458,3.394525 -11.760592,5.630464 -15.552022,8.350691 -3.101324,2.225098 -3.257891,2.286099 -3.48028,1.355942 z M 13.458033,45.403747 C 10.006157,45.097347 5.7699987,44.365075 3.2,43.630525 2.232,43.353856 1.116,43.125802 0.72,43.123744 L 0,43.12 v -7.16 c 0,-3.938 0.04987612,-7.16 0.11083584,-7.16 0.0609597,0 0.52895971,0.204304 1.03999996,0.454008 1.455524,0.711198 7.9209764,2.050139 12.4681672,2.582052 2.275391,0.266167 6.765958,0.48394 9.979036,0.48394 H 29.44 v 3.92688 3.926877 l -2.37889,2.154553 c -1.30839,1.185005 -2.470094,2.441908 -2.581564,2.79312 -0.188967,0.595383 -0.466327,0.635594 -4.10111,0.594564 -2.14414,-0.02419 -5.258321,-0.164714 -6.920403,-0.312247 z M 59.52,23.994351 C 57.347424,23.487365 50.319133,22.723286 43.36,22.23752 31.26895,21.393532 23.316672,19.616501 21.890512,17.439906 21.371057,16.647116 19.403534,6.2050672 19.651737,5.5582614 19.776723,5.2325546 20.188448,5.2743549 21.583747,5.7544083 25.678256,7.1631258 31.415673,8.1007674 39.2,8.6333574 c 14.498589,0.991968 21.041533,2.1577636 26.346723,4.6943536 1.9272,0.921459 2.430573,1.322728 2.81576,2.24461 0.360717,0.863315 0.390803,1.359613 0.130279,2.149014 -0.553911,1.678365 -6.083463,6.640584 -7.317274,6.566521 C 60.88097,24.270176 60.136,24.138099 59.52,23.994351 Z"
       id="path17642"
       inkscape:connector-curvature="0" />
    <path
       style="fill:#0bb2b1;stroke-width:0.31999999"
       d="m 85.44,125.73999 c -5.548624,-2.07304 -11.8404,-3.1161 -24,-3.97874 -9.901891,-0.70248 -17.160554,-1.97017 -20.158886,-3.52067 -2.48466,-1.28487 -2.986653,-3.44919 -1.256938,-5.41923 1.313898,-1.49644 7.060074,-5.35813 8.016294,-5.38731 0.417741,-0.0127 2.70353,0.14632 5.07953,0.35347 2.376,0.20714 6.975584,0.59886 10.221296,0.87047 7.589997,0.63517 12.393443,1.46703 16.626192,2.87933 3.893075,1.29897 5.534429,2.26121 6.061536,3.55355 0.519059,1.27262 2.266186,11.10582 2.016173,11.34747 C 87.932339,126.54741 86.76,126.23316 85.44,125.73999 Z M 37.923514,109.68 C 37.577578,108.66552 36.16,99.803802 36.16,98.655734 c 0,-1.611609 0.633062,-2.440108 3.43856,-4.500089 3.62281,-2.660112 7.97064,-5.025031 15.148086,-8.239517 11.527357,-5.162634 16.647044,-8.038982 21.314628,-11.975014 1.265702,-1.067328 2.37447,-1.822167 2.463926,-1.677418 0.295584,0.478259 1.844899,9.469517 1.87079,10.85689 0.0325,1.741369 -0.821251,2.963043 -3.762848,5.384438 -4.2992,3.538915 -10.244067,6.835363 -20.38751,11.304938 -7.53407,3.319788 -12.565971,6.111588 -16.216822,8.997418 -1.770922,1.39984 -1.906372,1.45598 -2.105296,0.87262 z M 8.452016,102.16734 C 4.2091222,98.247942 0.78538022,94.784214 0.97791658,94.605949 1.0560625,94.533594 2.344,93.8656 3.84,93.121517 5.336,92.377434 7.7319984,91.064694 9.1644406,90.204317 10.596883,89.343942 11.856883,88.64 11.964441,88.64 c 0.107557,0 0.195559,0.270368 0.195559,0.600819 0,0.946243 0.630458,1.247994 3.12,1.493287 l 2.32,0.228588 v 6.547376 6.54738 l -2.16,-0.0642 c -2.939579,-0.0874 -2.946332,-0.0859 -3.238296,0.70332 -0.237804,0.64285 -0.52693,0.44783 -3.749688,-2.52921 z M 10.88,84.132256 C 8.3536864,83.808464 2.4248116,82.614426 1.3902082,82.221069 0.90298019,82.035824 0.64,82.051859 0.64,82.266806 0.64,82.448835 0.496,82.508774 0.32,82.4 -0.01722555,82.191584 -0.1524053,67.84 0.18285714,67.84 c 0.10057143,0 0.38558062,0.202723 0.63335377,0.450496 C 1.6381663,69.112451 11.358482,71.102707 16.16,71.43217 L 17.44,71.52 17.52663,78 17.61326,84.48 15.286634,84.43942 C 14.006981,84.417104 12.024,84.27888 10.88,84.132256 Z M 66.56,73.588163 C 64.712,73.27281 60.32,72.782858 56.8,72.499379 42.206659,71.324122 39.582128,70.948438 34.293222,69.277674 31.321821,68.339008 30.389714,67.486221 30.16603,65.501699 30.02028,64.208608 30.11239,63.96599 31.210555,62.750454 32.485114,61.33967 37.819853,57.6 38.557814,57.6 c 0.239732,0 1.490295,0.138346 2.779031,0.307434 1.288736,0.169091 5.511155,0.532915 9.383155,0.808499 11.687942,0.831875 18.433126,2.057859 23.293376,4.233737 3.303293,1.478848 4.321056,3.775917 2.706624,6.108807 -0.916144,1.323846 -5.667325,5.194224 -6.312554,5.142291 C 70.13935,74.1792 68.408,73.90352 66.56,73.588163 Z M 7.7968154,62.327485 C 5.5216269,60.167366 3.0497847,57.732858 2.3038327,56.917466 L 0.94755638,55.434928 4.23152,53.754614 C 6.0377002,52.830442 8.5245002,51.45927 9.7577421,50.707571 L 12,49.340842 l 0.226426,0.822304 c 0.289262,1.050502 0.772871,1.345868 2.213574,1.351955 0.638,0.0026 1.61,0.0949 2.16,0.204899 l 1,0.2 v 6.515968 6.515971 l -2.46291,-0.07597 c -2.27778,-0.07026 -2.490747,-0.02128 -2.833239,0.651517 -0.357369,0.702022 -0.515099,0.590035 -4.5070356,-3.2 z M 28.967698,59.149094 c -0.49263,-2.060457 -1.765147,-9.846774 -1.766337,-10.807923 -0.0011,-0.893241 0.283026,-1.372345 1.518639,-2.560736 2.995614,-2.881133 8.788346,-6.236409 17.081888,-9.894205 5.403786,-2.383292 12.664557,-6.007073 15.546294,-7.759003 1.1945,-0.726188 3.509367,-2.402342 5.144148,-3.724787 1.63478,-1.322445 3.048371,-2.328407 3.141308,-2.235469 0.393959,0.393958 2.104141,11.161282 1.903876,11.986811 -0.119594,0.492983 -1.186749,1.82642 -2.405002,3.005108 C 65.074195,41.085405 59.662701,44.230912 48,49.442461 c -7.596458,3.394525 -11.760592,5.630464 -15.552022,8.350691 -3.101324,2.225098 -3.257891,2.286099 -3.48028,1.355942 z M 10.56,44.920768 C 8.712,44.671398 5.7703222,44.124582 4.0229382,43.705622 2.2755543,43.286662 0.6555543,43.016912 0.42293824,43.106176 0.08004008,43.23776 0,41.899411 0,36.034237 0,31.424746 0.11610328,28.8 0.32,28.8 c 0.176,0 0.32,0.125024 0.32,0.277832 0,0.611137 7.9073683,2.363861 13.439911,2.979051 L 17.6,32.448298 V 38.94415 45.44 l -1.84,-0.03291 c -1.012,-0.0181 -3.352,-0.236947 -5.2,-0.48632 z M 59.52,23.994351 C 57.347424,23.487365 50.319133,22.723286 43.36,22.23752 31.26895,21.393532 23.316672,19.616501 21.890512,17.439906 21.371057,16.647116 19.403534,6.2050672 19.651737,5.5582614 19.776723,5.2325546 20.188448,5.2743549 21.583747,5.7544083 25.678256,7.1631258 31.415673,8.1007674 39.2,8.6333574 c 14.498589,0.991968 21.041533,2.1577636 26.346723,4.6943536 1.9272,0.921459 2.430573,1.322728 2.81576,2.24461 0.360717,0.863315 0.390803,1.359613 0.130279,2.149014 -0.553911,1.678365 -6.083463,6.640584 -7.317274,6.566521 C 60.88097,24.270176 60.136,24.138099 59.52,23.994351 Z"
       id="path17640"
       inkscape:connector-curvature="0" />
    <path
       style="fill:#6e6e6f;stroke-width:0.31999999"
       d="m 85.44,125.73999 c -5.548624,-2.07304 -11.8404,-3.1161 -24,-3.97874 -9.901891,-0.70248 -17.160554,-1.97017 -20.158886,-3.52067 -2.48466,-1.28487 -2.986653,-3.44919 -1.256938,-5.41923 1.313898,-1.49644 7.060074,-5.35813 8.016294,-5.38731 0.417741,-0.0127 2.70353,0.14632 5.07953,0.35347 2.376,0.20714 6.975584,0.59886 10.221296,0.87047 7.589997,0.63517 12.393443,1.46703 16.626192,2.87933 3.893075,1.29897 5.534429,2.26121 6.061536,3.55355 0.519059,1.27262 2.266186,11.10582 2.016173,11.34747 C 87.932339,126.54741 86.76,126.23316 85.44,125.73999 Z M 37.923514,109.68 C 37.577578,108.66552 36.16,99.803802 36.16,98.655734 c 0,-1.611609 0.633062,-2.440108 3.43856,-4.500089 3.62281,-2.660112 7.97064,-5.025031 15.148086,-8.239517 11.527357,-5.162634 16.647044,-8.038982 21.314628,-11.975014 1.265702,-1.067328 2.37447,-1.822167 2.463926,-1.677418 0.295584,0.478259 1.844899,9.469517 1.87079,10.85689 0.0325,1.741369 -0.821251,2.963043 -3.762848,5.384438 -4.2992,3.538915 -10.244067,6.835363 -20.38751,11.304938 -7.53407,3.319788 -12.565971,6.111588 -16.216822,8.997418 -1.770922,1.39984 -1.906372,1.45598 -2.105296,0.87262 z M 66.56,73.588163 C 64.712,73.27281 60.32,72.782858 56.8,72.499379 42.206659,71.324122 39.582128,70.948438 34.293222,69.277674 31.321821,68.339008 30.389714,67.486221 30.16603,65.501699 30.02028,64.208608 30.11239,63.96599 31.210555,62.750454 32.485114,61.33967 37.819853,57.6 38.557814,57.6 c 0.239732,0 1.490295,0.138346 2.779031,0.307434 1.288736,0.169091 5.511155,0.532915 9.383155,0.808499 11.687942,0.831875 18.433126,2.057859 23.293376,4.233737 3.303293,1.478848 4.321056,3.775917 2.706624,6.108807 -0.916144,1.323846 -5.667325,5.194224 -6.312554,5.142291 C 70.13935,74.1792 68.408,73.90352 66.56,73.588163 Z M 28.967698,59.149094 c -0.49263,-2.060457 -1.765147,-9.846774 -1.766337,-10.807923 -0.0011,-0.893241 0.283026,-1.372345 1.518639,-2.560736 2.995614,-2.881133 8.788346,-6.236409 17.081888,-9.894205 5.403786,-2.383292 12.664557,-6.007073 15.546294,-7.759003 1.1945,-0.726188 3.509367,-2.402342 5.144148,-3.724787 1.63478,-1.322445 3.048371,-2.328407 3.141308,-2.235469 0.393959,0.393958 2.104141,11.161282 1.903876,11.986811 -0.119594,0.492983 -1.186749,1.82642 -2.405002,3.005108 C 65.074195,41.085405 59.662701,44.230912 48,49.442461 c -7.596458,3.394525 -11.760592,5.630464 -15.552022,8.350691 -3.101324,2.225098 -3.257891,2.286099 -3.48028,1.355942 z M 59.52,23.994351 C 57.347424,23.487365 50.319133,22.723286 43.36,22.23752 31.26895,21.393532 23.316672,19.616501 21.890512,17.439906 21.371057,16.647116 19.403534,6.2050672 19.651737,5.5582614 19.776723,5.2325546 20.188448,5.2743549 21.583747,5.7544083 25.678256,7.1631258 31.415673,8.1007674 39.2,8.6333574 c 14.498589,0.991968 21.041533,2.1577636 26.346723,4.6943536 1.9272,0.921459 2.430573,1.322728 2.81576,2.24461 0.360717,0.863315 0.390803,1.359613 0.130279,2.149014 -0.553911,1.678365 -6.083463,6.640584 -7.317274,6.566521 C 60.88097,24.270176 60.136,24.138099 59.52,23.994351 Z"
       id="path17638"
       inkscape:connector-curvature="0" />
    <path
       style="fill:#4c4d4e;stroke-width:0.31999999"
       d="m 84.502106,125.2337 c -5.380208,-1.93462 -11.104413,-2.82375 -24.380042,-3.78691 -7.203782,-0.52265 -10.517306,-0.99211 -14.83919,-2.10242 -3.778612,-0.97074 -5.259088,-1.76972 -5.836941,-3.15006 -0.444435,-1.06164 -0.435168,-1.24338 0.115421,-2.26377 0.68942,-1.27768 3.307702,-3.47132 6.245097,-5.23225 1.794547,-1.07579 2.202794,-1.19728 3.473549,-1.03361 0.792,0.10201 4.392,0.40063 8,0.66359 8.224806,0.59944 11.709139,0.97832 16.16,1.75719 5.624995,0.98433 11.166387,3.06596 12.135341,4.55866 C 85.927814,115.18711 88,125.05878 88,126.19492 c 0,0.28679 -0.115216,0.25513 -3.497894,-0.96122 z M 37.953398,108.88 c -0.0976,-0.484 -0.550921,-3.02233 -1.007379,-5.64072 -0.942989,-5.409286 -0.873984,-5.893818 1.084205,-7.613133 3.177395,-2.789789 8.871104,-6.016201 16.833696,-9.539033 10.088662,-4.46345 16.284221,-7.902432 20.729488,-11.506352 2.608323,-2.114653 2.804826,-2.216871 2.965702,-1.542733 0.415239,1.740009 1.758295,9.758502 1.75953,10.504966 0.0019,1.149802 -1.352589,2.811767 -4.15864,5.102669 -4.090947,3.33991 -9.314208,6.194835 -20.48,11.193939 -6.685738,2.993317 -10.781866,5.232097 -14.660595,8.012907 -1.463325,1.04912 -2.711885,1.90749 -2.774573,1.90749 -0.06269,0 -0.193834,-0.396 -0.291434,-0.88 z M 68,73.583757 C 65.638394,73.099174 58.457757,72.342864 51.512829,71.847222 42.827696,71.227386 37.664704,70.353181 33.511238,68.799171 31.317673,67.978454 30.4,66.928 30.4,65.237766 c 0,-1.625619 1.425624,-3.21526 5.040739,-5.620675 l 2.706074,-1.80056 3.886595,0.373008 C 44.171034,58.394694 48.08,58.710371 50.72,58.89104 c 9.673312,0.661997 15.519907,1.584266 20.48,3.230611 4.106467,1.363015 5.491869,2.243191 5.952915,3.782026 C 77.697411,67.72104 76.861366,69.111472 73.631603,71.76 70.864042,74.029507 70.59577,74.116384 68,73.583757 Z M 29.119402,59.28 c -3.2e-4,-0.132 -0.422514,-2.616 -0.938189,-5.52 -0.900519,-5.071229 -0.916311,-5.324115 -0.399402,-6.395693 1.257696,-2.60727 7.795943,-6.652729 18.684112,-11.56056 11.311965,-5.098858 15.676771,-7.5433 20.414077,-11.432585 1.32,-1.083709 2.481939,-1.970556 2.58209,-1.970771 0.243824,-5.12e-4 1.914038,9.787894 1.905017,11.164518 -0.006,0.919725 -0.360336,1.43208 -2.327107,3.365136 -1.276,1.254128 -3.433962,3.024486 -4.795466,3.934131 C 61.459334,42.725011 52.835293,47.150528 47.52,49.446547 40.766803,52.363686 36.40472,54.72473 32.215597,57.730288 29.82041,59.448758 29.120695,59.798979 29.119402,59.28 Z M 58.88,23.66795 C 57.132672,23.252118 49.468026,22.457545 41.961821,21.914087 34.735978,21.390928 29.995315,20.628251 25.871128,19.325421 21.953038,18.087697 21.892695,18.000759 20.786613,12 19.909174,7.2396854 19.679629,5.44 19.949904,5.44 c 0.06045,0 0.915443,0.2771462 1.899991,0.6158803 3.958141,1.3618 10.082752,2.2933715 19.110105,2.906704 10.489786,0.7126922 16.530054,1.6490347 21.626563,3.3524787 4.434624,1.482217 5.893437,2.66136 5.893437,4.763599 0,1.056723 -1.1956,2.499708 -4.009533,4.839158 -2.64367,2.197898 -3.103737,2.341925 -5.590467,1.75013 z"
       id="path17636"
       inkscape:connector-curvature="0" />
    <path
       style="fill:#393b3c;stroke-width:0.31999999"
       d="m 84.385158,124.88093 c -5.37998,-1.85631 -11.534329,-2.78338 -24.887715,-3.74902 -10.325689,-0.74669 -17.677814,-2.41791 -19.343005,-4.39688 -1.651132,-1.96226 -0.479747,-3.68393 4.913501,-7.22171 l 2.667943,-1.75007 3.412057,0.34734 c 1.876634,0.19104 4.780061,0.43174 6.452061,0.53489 4.8384,0.29849 12.391712,1.08969 15.498698,1.62346 5.413324,0.92999 11.62238,3.26774 12.365107,4.65554 0.334089,0.62425 2.327933,10.87314 2.137744,10.98859 -0.04485,0.0272 -1.492227,-0.43724 -3.216391,-1.03214 z M 38.273462,108.8646 c -0.494726,-1.68508 -1.806256,-10.210066 -1.660259,-10.791762 0.6372,-2.5388 7.646362,-7.002348 18.586797,-11.836374 9.799075,-4.329718 16.289533,-7.93231 20.522595,-11.39127 1.316413,-1.07568 2.444691,-1.903901 2.507283,-1.84049 C 78.44856,73.226256 80,82.464365 80,83.544966 c 0,0.935834 -0.334256,1.412669 -2.361693,3.369063 -1.298931,1.253414 -3.494931,3.02527 -4.88,3.937456 -2.984185,1.965337 -10.073465,5.604419 -16.178979,8.305014 -7.963037,3.522221 -12.575792,6.028891 -16.322653,8.870101 -1.52719,1.15805 -1.849289,1.29415 -1.983213,0.838 z M 67.68,73.266122 C 65.374742,72.797366 57.888342,72.017734 51.04,71.533232 40.06088,70.75649 32.130941,68.918442 31.0507,66.899994 30.868815,66.560138 30.72,65.773619 30.72,65.152173 c 0,-1.509261 1.186219,-2.821066 4.667018,-5.161111 l 2.751939,-1.850051 4.530521,0.380739 c 2.491786,0.209408 7.194522,0.596138 10.450522,0.859402 7.541802,0.609792 11.936378,1.239773 15.36,2.201917 4.378864,1.230595 6.490176,2.129587 7.6,3.236067 1.920106,1.914317 1.303494,3.44575 -2.756544,6.846246 -2.459184,2.059693 -2.846346,2.169511 -5.643456,1.60074 z M 29.154201,57.52 C 27.665598,49.968502 27.482015,48.36167 27.994599,47.370445 28.605756,46.188598 30.805484,44.419712 34.526013,42.118288 37.935504,40.009264 40.342704,38.797126 46.4,36.139187 56.281478,31.8032 62.861491,28.106086 67.357318,24.363891 68.411843,23.486135 69.303334,22.796666 69.338403,22.831738 69.537091,23.030426 71.04,32.13295 71.04,33.137642 c 0,1.546665 -0.908,2.735795 -4.048541,5.302022 -4.137843,3.381155 -10.02304,6.591254 -20.468073,11.164384 -2.443863,1.06999 -5.788567,2.663952 -7.432672,3.542134 -3.078154,1.644164 -8.48711,5.145495 -8.846014,5.726212 C 29.817025,59.564387 29.473135,59.137907 29.154201,57.52 Z M 58.57281,23.330156 C 56.297766,22.884258 48.942778,22.138766 43.04,21.755772 31.500349,21.007036 22.991066,19.022905 22.073527,16.866967 21.76743,16.147731 20.16,7.3390659 20.16,6.3808982 c 0,-0.4668393 0.29185,-0.4399654 2.64,0.2430948 4.122724,1.199271 9.123201,1.9424131 16.742733,2.4882083 12.033571,0.8619776 17.473763,1.6541797 22.377267,3.2585827 4.787024,1.56629 6.24,2.597414 6.24,4.428294 0,1.320211 -1.228714,2.821112 -4.329283,5.288309 -2.11912,1.686235 -2.516295,1.780112 -5.257907,1.242769 z"
       id="path17634"
       inkscape:connector-curvature="0" />
  </g>
</svg>
