<?xml version="1.0" encoding="UTF-8"?>
<!-- Created with Inkscape (http://www.inkscape.org/) -->
<svg width="104.96" height="133.12" version="1.1" viewBox="0 0 104.96 133.12" xmlns="http://www.w3.org/2000/svg" xmlns:cc="http://creativecommons.org/ns#" xmlns:dc="http://purl.org/dc/elements/1.1/" xmlns:rdf="http://www.w3.org/1999/02/22-rdf-syntax-ns#">
 <metadata>
  <rdf:RDF>
   <cc:Work rdf:about="">
    <dc:format>image/svg+xml</dc:format>
    <dc:type rdf:resource="http://purl.org/dc/dcmitype/StillImage"/>
    <dc:title/>
   </cc:Work>
  </rdf:RDF>
 </metadata>
 <g stroke-width=".32">
  <path d="m84.48 126.18c-5.4324-1.9657-10.986-2.8494-23.704-3.7714-7.3866-0.5355-11.405-1.0867-15.496-2.1254-5.2609-1.3359-6.88-2.5426-6.88-5.1278 0-1.3411 0.16139-1.731 1.1861-2.8653 0.65238-0.7221 2.7044-2.3177 4.56-3.5458 3.0516-2.0196 3.4875-2.215 4.5639-2.0458 0.6545 0.10286 4.1105 0.40009 7.68 0.66051 13.273 0.96837 18.505 1.745 23.93 3.5521 3.781 1.2595 5.525 2.2674 6.2077 3.5875 0.41076 0.79432 2.4323 11.071 2.4323 12.364 0 0.72705-1.0075 0.57343-4.48-0.68313zm-47.039-15.859c-0.5144-1.2114-2.1927-11.546-2.021-12.444 0.55566-2.9068 7.3703-7.3541 19.78-12.909 10.567-4.7297 15.925-7.7841 20.772-11.84 2.0559-1.7204 2.6069-2.0406 2.9291-1.7026 0.54136 0.56799 2.4802 11.643 2.2226 12.696-0.36284 1.4829-1.5387 2.8772-4.3239 5.1269-4.3293 3.4971-9.9076 6.59-19.696 10.921-8.231 3.6416-12.372 5.9302-16.599 9.1734-1.2181 0.93471-2.3372 1.6995-2.4869 1.6995-0.14964 0-0.40967-0.324-0.57782-0.72zm-29.697-7.232c-5.0156-4.7045-6.5368-6.322-7.259-7.7186-0.65239-1.2616-0.62907-1.2843 3.8351-3.7374 1.936-1.0638 4.5795-2.5938 5.8744-3.3999 1.2949-0.80611 2.5549-1.3887 2.8-1.2947 0.25744 0.09879 0.44562 0.62122 0.44562 1.2372 0 1.0193 0.06367 1.0757 1.4498 1.2836 2.5627 0.38429 17.63-0.05906 22.444-0.66043 4.3396-0.54208 5.7996-0.50664 5.4054 0.1312-0.09976 0.16142-1.3982 1.1032-2.8855 2.0927-3.402 2.2636-5.3646 4.214-5.9133 5.8764-0.35606 1.0789-0.35668 1.8121-0.0038 4.3826 0.35628 2.595 0.35443 3.1299-0.01155 3.3561-0.87332 0.53974-11.108 0.93216-17.125 0.6566l-3.2-0.14655-0.10027 1.0266c-0.17419 1.7832-1.0869 1.294-5.7559-3.0854zm92.798-2.0076c-6.4826-1.5902-11.011-1.9857-20.381-1.7801-4.576 0.10039-9.976 0.4056-12 0.67824-6.9385 0.93466-7.3208 0.59217-2.2207-1.9896 5.1707-2.6176 8.2318-4.4588 11.021-6.6288 3.9616-3.0826 5.1368-4.5041 6.0588-7.3292 0.18684-0.57246 0.4539-0.59669 4.43-0.40188 4.5124 0.22108 8.5335 0.78676 13.191 1.8557 4.6856 1.0753 4.32 0.32316 4.32 8.8885 0 5.5676-0.0957 7.3515-0.4 7.4567-0.22 0.076-2.0284-0.26119-4.0186-0.74941zm-86.036-15.326c-6.0404-0.58799-13.13-2.0934-14.012-2.9752-0.41558-0.41558-0.49322-1.647-0.49322-7.8227 0-6.7579 0.043675-7.3314 0.56-7.3539 0.308-0.01341 2 0.32278 3.76 0.74707 5.9544 1.4354 9.4428 1.7993 18.1 1.8881 6.7232 0.06895 8.3546 0.17424 9.1611 0.59129 2.9714 1.5366 10.493 2.923 19.402 3.5764 7.0146 0.51443 14.666 1.3087 15.675 1.627 1.3478 0.42541 0.25109 1.3125-4.5782 3.7033l-4.96 2.4555-7.6278 1.1568c-4.1953 0.63624-10.099 1.4442-13.12 1.7955-6.24 0.72562-17.466 1.0393-21.867 0.6109zm77.18-3.5941c-0.073846-0.22-0.17733-0.76-0.22996-1.2-0.083712-0.69983-0.29603-0.82654-1.6957-1.012-0.88-0.11658-2.7829-0.22458-4.2287-0.24-2.1752-0.0232-2.6814-0.12634-2.9337-0.59783-0.49876-0.93195-2.7187-14.013-2.4826-14.628 0.20138-0.52479 0.63064-0.54954 5.8112-0.33508l5.5938 0.23156v-0.98916c0-1.9372 1.0646-1.2506 6.7771 4.3708 2.9958 2.948 5.7339 5.7611 6.0847 6.2513 0.83833 1.1714 0.53893 1.5195-2.7131 3.1546-1.3899 0.69881-4.0424 2.1984-5.8946 3.3323-3.5465 2.1713-3.8729 2.304-4.0884 1.6618zm-23.526-7.6368c-2.7284-0.54317-9.1378-1.2309-16.137-1.7317-7.7291-0.55291-12.62-1.2881-16.951-2.5481-3.1605-0.91946-4.4473-1.6813-5.1565-3.0528-1.4272-2.7599 0.06065-5.0874 5.5539-8.688 2.3737-1.5558 2.5063-1.6005 4.2109-1.4173 0.968 0.10405 4.784 0.41051 8.48 0.68103 12.782 0.93557 18.971 1.89 23.961 3.6957 4.616 1.6702 6.0873 3.0251 6.0873 5.6055 0 1.4938-1.2133 3.0787-4.28 5.5908-2.8603 2.3431-3.0528 2.4053-5.768 1.8648zm-61.572-11.821c-3.0899-3.023-5.8358-5.9331-6.1022-6.467-0.61535-1.2335-0.35599-1.5687 2.2154-2.8634 1.0665-0.53702 3.7178-2.0471 5.8917-3.3556 2.1739-1.3086 4.1442-2.3057 4.3784-2.2158 0.2342 0.08987 0.47156 0.63966 0.52747 1.2218 0.09698 1.0098 0.17509 1.0681 1.7016 1.2703 0.88 0.11658 3.3671 0.22458 5.5269 0.24 3.7577 0.02682 3.9397 0.05905 4.2257 0.74804 0.16436 0.396 0.83605 3.791 1.4926 7.5443 1.0207 5.8346 1.1271 6.87 0.7343 7.1389-0.27962 0.19141-3.0525 0.26574-7.0833 0.18986l-6.6238-0.12468-0.09623 0.98317c-0.06026 0.61564-0.29705 1.0212-0.63343 1.0849-0.34066 0.06449-2.5926-1.9092-6.1551-5.3946zm93.892-0.81325c-5.8474-1.4661-9.4973-1.8349-18.72-1.8914-8.3994-0.05148-8.7202-0.07713-11.52-0.92113-3.892-1.1732-9.5397-2.0078-17.6-2.6007-9.9728-0.7336-10.08-0.7485-10.08-1.4018 0-0.41897 1.5138-1.2337 6-3.2292 3.3-1.4679 7.368-3.3449 9.04-4.1712 3.2426-1.6024 4.8987-1.9246 14.88-2.8951 4.5803-0.44535 15.488-0.44002 19.36 0.0095 4.0442 0.46943 10.743 1.8375 12.062 2.4633l1.058 0.50206v14.967l-0.72-0.0346c-0.396-0.01904-2.088-0.37759-3.76-0.7968zm-72.005-1.3286c-0.0028-0.132-0.43464-2.616-0.95979-5.52-1.2552-6.9411-1.2451-7.5461 0.15268-9.1792 2.3019-2.6893 8.993-6.6933 17.292-10.348 11.08-4.8792 16.209-7.7152 21.173-11.708 1.8621-1.4979 3.5662-2.6542 3.787-2.5695 0.65209 0.25023 2.6377 11.706 2.277 13.137-0.28861 1.1446-3.7766 4.6616-6.5966 6.6515-3.0531 2.1543-8.3927 5.0063-14.56 7.7768-9.0556 4.0679-12.959 6.0631-16.48 8.4236-1.848 1.2389-3.72 2.5471-4.16 2.9071-0.78886 0.64539-1.9153 0.89627-1.925 0.42874zm-12.315-13.855c-6.2304-0.44274-14.797-2.0962-15.738-3.0378-0.5951-0.5951-0.61684-15.069-0.022926-15.267 0.21942-0.07314 1.6954 0.20086 3.28 0.60889 5.6332 1.4506 10.933 2.0271 18.65 2.029 7.7661 0.0019 12.807-0.42162 23.111-1.9417 9.4765-1.398 9.92-1.4372 9.92-0.87724 0 0.46992-5.9754 3.5033-12.8 6.4978-8.186 3.5919-15.43 8.3386-17.329 11.354-0.45022 0.71524-0.726 0.79698-2.8648 0.84911-1.3017 0.031725-4.0947-0.065113-6.2067-0.2152zm75.76-3.4088c-0.22-0.08241-0.4-0.62383-0.4-1.2032 0-0.92373-0.12304-1.0779-1-1.2533-1.5143-0.30286-14.106-0.22275-17.56 0.11173-1.8555 0.17969-3.1554 0.17936-3.3362-9.6e-4 -0.18129-0.18071 0.39094-1.0156 1.4752-2.1524 0.97427-1.0214 2.0122-2.3228 2.3065-2.8919 0.69868-1.3511 0.7224-3.742 0.07035-7.0899-0.76736-3.9398-1.3763-3.6966 9.2558-3.6966h8.7884l-4.8e-5 -0.86112c-6.1e-5 -1.1106 0.48758-1.3949 1.374-0.80128 1.4151 0.9477 10.556 9.9785 11.312 11.175 0.9343 1.48 0.82945 1.6357-2.0971 3.113-1.7496 0.88319-6.627 3.7021-8.9887 5.1951-0.44 0.27815-0.98 0.4383-1.2 0.35589zm-31.807-18.49c-0.30204-0.30204-10.129-1.4093-15.633-1.7615-13.503-0.86401-21.97-2.8477-23.377-5.4768-0.40905-0.76432-2.2108-10.582-2.2178-12.084-0.0058-1.259-0.02545-1.2593 4.5259 0.056485 4.1233 1.192 8.0137 1.7798 15.309 2.3132 13.236 0.96763 18.474 1.7417 23.722 3.5055 4.252 1.4291 6.039 2.5331 6.635 4.099 0.67147 1.7642 0.11821 3.2593-1.9544 5.2814-3.3335 3.2524-6.1755 4.9012-7.0098 4.0669z" fill="#d0eef2"/>
  <path d="m85.76 126.5c-5.9769-2.2567-11.654-3.2433-23.52-4.0878-10.845-0.77185-17.977-2.0088-21.272-3.6896-2.435-1.2423-3.2287-3.4167-2.0084-5.503 0.56634-0.96826 3.62-3.3977 6.7444-5.3657l1.7044-1.0736 4.6956 0.37402c2.5826 0.20571 5.8476 0.45103 7.2556 0.54515 9.5192 0.63635 16.822 1.8242 21.505 3.4977 3.3914 1.2121 5.0406 2.3073 5.7115 3.7929 0.50385 1.1156 2.4099 11.747 2.1744 12.128-0.21643 0.35049-0.67679 0.25531-2.9904-0.61826zm-48.325-16.022c-0.0029-0.132-0.43464-2.616-0.95979-5.52-1.276-7.0561-1.2648-7.3584 0.33556-9.0946 2.6859-2.9138 8.4795-6.3552 17.269-10.258 11.369-5.0479 17.383-8.4414 22.08-12.459 1.144-0.9786 2.2573-1.7813 2.4739-1.7837 0.4601-0.0052 0.47399 0.04925 1.523 5.9634 1.026 5.7846 1.0272 6.9938 0.0086 8.4928-0.94446 1.3899-4.5328 4.3788-7.773 6.4746-2.6695 1.7266-10.747 5.8045-15.912 8.0332-6.9801 3.0117-12.193 5.8993-16.156 8.9481-1.7199 1.3234-2.8768 1.8053-2.8893 1.2033zm-29.242-7.3964c-4.6007-4.338-8.2632-8.3113-8.0216-8.7022 0.090584-0.14657 1.5651-1.0198 3.2766-1.9405 1.7115-0.9207 4.3578-2.4406 5.8806-3.3775 1.5228-0.93691 2.9896-1.7035 3.2597-1.7035 0.31928 0 0.52613 0.36133 0.59133 1.0329 0.0921 0.94867 0.21773 1.0547 1.5403 1.3003 2.177 0.40428 17.858 0.01018 22.08-0.55492 6.1406-0.82188 6.3293-0.69384 2.6432 1.7935-1.3623 0.91924-3.1521 2.3467-3.9775 3.172-2.0211 2.0211-2.3552 3.3117-1.8257 7.0529 0.26392 1.8647 0.29457 2.9567 0.08875 3.1625-0.50666 0.50666-10.429 0.98244-15.729 0.75419l-4.88-0.21018v1.0084c0 0.65345-0.1585 1.0084-0.45032 1.0084-0.24768 0-2.2622-1.7084-4.4766-3.7964zm93.247-2.1311c-5.668-1.4952-8.4744-1.823-16.96-1.9812-7.8214-0.14582-10.643 0.01014-19.44 1.0746-0.924 0.11181-1.6776 0.0752-1.6748-0.08129 0.0029-0.15652 1.8229-1.2206 4.0444-2.3646 8.9232-4.5951 14.544-9.1237 15.688-12.64 0.27587-0.84794 0.47752-0.97257 1.7275-1.0676 3.5169-0.26753 13.552 1.1401 18.065 2.5339l2.0702 0.63942v7.3471c0 5.6884-0.0903 7.337-0.4 7.3021-0.22-0.0248-1.624-0.36789-3.12-0.76252zm-86.24-15.412c-4.7679-0.41608-11.95-1.7758-14.32-2.7111l-0.88-0.34726v-7.4628c0-6.9391 0.039299-7.4545 0.56-7.3447 0.308 0.06494 2.072 0.48714 3.92 0.93823 5.9918 1.4626 9.8218 1.8735 18.08 1.9401 6.3662 0.05131 7.8927 0.1533 8.9234 0.59617 4.0082 1.7223 10.537 2.9132 19.557 3.5671 8.0044 0.58038 15.257 1.3919 15.625 1.7483 0.40419 0.39185-1.2806 1.4487-5.6088 3.5183l-3.9358 1.882-7.52 1.1388c-9.5299 1.4432-14.144 2.0238-19.326 2.4315-3.8456 0.30257-12.149 0.36062-15.074 0.10539zm76.811-3.6869c-0.076758-0.22759-0.18262-0.7738-0.23525-1.2138-0.083712-0.69983-0.29603-0.82654-1.6957-1.012-0.88-0.11658-2.7704-0.22458-4.2008-0.24-1.6644-0.017952-2.7171-0.17205-2.9238-0.42804-0.43356-0.53691-2.7486-13.563-2.5175-14.166 0.20225-0.52705 2.8513-0.59535 7.9577-0.20516 1.5376 0.11749 2.9416 0.16495 3.12 0.10547 0.17844-0.059482 0.32444-0.52815 0.32444-1.0415 0-0.58579 0.16649-0.93333 0.44712-0.93333 0.47909 0 10.993 10.06 12.017 11.498l0.61353 0.86162-3.259 1.7082c-1.7925 0.9395-4.3987 2.4141-5.7915 3.2768-3.6005 2.2302-3.6932 2.2732-3.8566 1.7888zm-25.131-7.6289c-1.848-0.31713-6.096-0.80601-9.44-1.0864s-7.88-0.66045-10.08-0.84459c-7.9321-0.66391-14.832-2.4284-16.59-4.2427-1.3541-1.3971-1.6268-3.0987-0.75176-4.6913 0.6435-1.1712 3.5721-3.57 6.5747-5.3853l1.7621-1.0653 2.3426 0.34313c1.2885 0.18872 4.6466 0.49172 7.4626 0.67333 6.4536 0.41621 13.598 1.1698 16.94 1.7867 3.0336 0.56002 8.0228 2.138 10.191 3.2234 2.8315 1.4173 3.5823 4.0323 1.8458 6.4293-1.0309 1.4232-5.9384 5.5386-6.5294 5.4755-0.20241-0.021578-1.88-0.2987-3.728-0.61583zm-60.779-12.366c-3.3585-3.3103-6.1052-6.1742-6.1039-6.3642 0.001342-0.19002 1.5504-1.1864 3.4424-2.2142 1.892-1.0278 4.6998-2.6449 6.2396-3.5936 1.5398-0.9487 2.9438-1.6358 3.12-1.5269 0.17622 0.10891 0.3204 0.60611 0.3204 1.1049 0 0.56824 0.20911 0.98738 0.56 1.1225 0.308 0.11856 2.8288 0.30022 5.6019 0.40368 3.0497 0.11378 5.1513 0.32662 5.3187 0.53866 0.40486 0.5126 2.6764 13.608 2.4588 14.175-0.15819 0.41224-1.1572 0.46497-6.9789 0.36836l-6.7943-0.11275-0.16311 0.9334c-0.08971 0.51337-0.33237 0.9897-0.53924 1.0585-0.20687 0.06881-3.124-2.5833-6.4824-5.8936zm95.019-0.16717c-6.9402-1.6761-9.7053-1.967-19.2-2.0196-8.5599-0.047427-8.8783-0.072266-11.67-0.9104-4.5161-1.3556-12.253-2.3945-21.77-2.923-6.5553-0.36406-6.746-0.68987-1.68-2.8693 1.98-0.8518 5.917-2.6566 8.749-4.0107 5.0565-2.4178 5.2232-2.4715 9.28-2.9901 10.903-1.3938 20.802-1.6382 28.078-0.69315 4.2909 0.55736 11.249 2.1119 11.766 2.6288 0.17446 0.17446 0.26416 3.3119 0.21411 7.4883l-0.08616 7.188zm-72.426-1.1315c-0.41287-0.68907-2.2037-12.239-2.0145-12.992 0.65215-2.5984 8.7224-7.8058 18.921-12.209 9.7103-4.1924 17.548-8.6622 21.886-12.482 1.6771-1.4766 2.1187-1.7253 2.4488-1.3791 0.22147 0.23234 0.86399 3.0454 1.4278 6.2512l1.0252 5.8288-0.69943 1.4448c-0.82963 1.7138-4.3257 4.7488-8.5397 7.4136-3.1626 1.9999-10.008 5.4107-17.219 8.579-5.5857 2.4544-10.49 5.1967-14.089 7.8785-2.6007 1.9379-2.8923 2.0923-3.1474 1.6665zm-11.414-14.056c-5.0573-0.2806-11.723-1.3523-15.6-2.5079l-1.68-0.50081v-15.09l0.72 0.16702c0.396 0.09186 2.304 0.53554 4.24 0.98595 5.5905 1.3006 10.431 1.8016 17.405 1.8016 7.3696 0 13.454-0.52877 23.958-2.0822 8.5921-1.2707 8.0773-1.2196 8.0773-0.801 0 0.38737-3.8043 2.3015-11.122 5.5959-6.2361 2.8075-9.9703 4.856-13.631 7.4776-2.2762 1.6302-2.9992 2.3107-4.7642 4.484-0.57804 0.71175-1.8375 0.78954-7.6031 0.46964zm74.5-4.6514c-0.07624-0.78115-0.29204-1.0803-0.90028-1.2481-1.1-0.30344-14.612-0.29602-17.76 0.0098-1.4362 0.13951-2.6987 0.1243-2.8759-0.03466-0.19908-0.17858 0.12512-0.69943 0.87674-1.4085 3.1885-3.0082 3.6864-4.7004 2.8157-9.571-0.3146-1.76-0.5092-3.3655-0.43242-3.5678 0.21015-0.5537 5.2251-0.84926 12.096-0.71292l6.08 0.12064 0.10125-0.88c0.05569-0.484 0.28899-0.88 0.51843-0.88 0.78232 0 13.027 11.923 12.624 12.292-0.0681 0.06232-1.3478 0.7223-2.8438 1.4666-1.496 0.74433-4.2527 2.2731-6.1261 3.3972-1.8734 1.1241-3.5562 2.0439-3.7397 2.0439-0.18349 0-0.37874-0.46234-0.4339-1.0274zm-31.948-17.225c-2.1843-0.51876-8.8678-1.26-15.832-1.7559-9.7475-0.69408-13.696-1.3041-18.724-2.8923-2.6979-0.85227-4.0066-1.934-4.464-3.6896-0.74062-2.8431-2.0136-11.216-1.7456-11.482 0.17632-0.17465 1.5219 0.075055 3.3698 0.62535 4.0874 1.2172 9.8965 2.1475 15.964 2.5564 12.178 0.82087 18.392 1.6875 23.265 3.2444 5.7552 1.8388 7.4549 3.0907 7.4549 5.4909 0 0.73263-0.28139 1.7344-0.65864 2.3448-0.64979 1.0514-4.9218 4.8077-6.2803 5.5222-0.7789 0.40966-0.77366 0.40958-2.3491 0.03543z" fill="#cfcfcf"/>
  <path d="m84.48 125.86c-5.5562-2.0146-11.005-2.8892-23.52-3.7755-12.213-0.86486-19.775-2.5532-21.551-4.8122-0.85392-1.0856-0.89576-2.8465-0.09859-4.149 0.62492-1.021 3.2536-3.0568 6.5332-5.0594 1.4407-0.87974 2.2322-1.1736 2.8419-1.055 0.81528 0.15859 4.065 0.43796 13.555 1.1653 9.5212 0.72972 16.236 2.0566 20.738 4.0975 3.2006 1.4512 3.4619 1.9314 4.6382 8.5243 0.55785 3.1264 0.936 5.811 0.84033 5.9658-0.24927 0.40333-0.58863 0.32635-3.9762-0.9019zm-46.869-15.857c-0.07071-0.22-0.56557-2.8997-1.0997-5.9548-1.2782-7.3114-1.2641-7.3467 4.4991-11.261 3.5083-2.3826 7.5405-4.5261 13.229-7.0326 6.1814-2.7236 14.561-7.0033 17.44-8.9065 1.32-0.87278 3.2866-2.392 4.3703-3.3761 1.9419-1.7635 2.4705-2.0505 2.7985-1.5197 0.41093 0.6649 2.1336 11.438 1.948 12.182-0.32628 1.308-1.5867 2.7455-4.3959 5.0136-4.3154 3.4842-8.7577 5.9209-20.078 11.013-8.1364 3.6602-13.131 6.4811-16.963 9.58-0.91763 0.74218-1.5631 0.83861-1.7487 0.26127zm-29.418-6.9164c-4.6007-4.338-8.2632-8.3113-8.0216-8.7022 0.090584-0.14657 1.5651-1.0198 3.2766-1.9405 1.7115-0.9207 4.3578-2.4406 5.8806-3.3775 1.5228-0.93691 2.9896-1.7035 3.2597-1.7035 0.31928 0 0.52613 0.36133 0.59133 1.0329 0.0921 0.94867 0.21773 1.0547 1.5403 1.3003 2.177 0.40428 17.858 0.01018 22.08-0.55492 6.1406-0.82188 6.3293-0.69384 2.6432 1.7935-1.3623 0.91924-3.1521 2.3467-3.9775 3.172-2.0211 2.0211-2.3552 3.3117-1.8257 7.0529 0.26392 1.8647 0.29457 2.9567 0.08875 3.1625-0.50666 0.50666-10.429 0.98244-15.729 0.75419l-4.88-0.21018v1.0084c0 0.65345-0.1585 1.0084-0.45032 1.0084-0.24768 0-2.2622-1.7084-4.4766-3.7964zm93.247-2.1311c-5.668-1.4952-8.4744-1.823-16.96-1.9812-7.8214-0.14582-10.643 0.01014-19.44 1.0746-0.924 0.11181-1.6776 0.0752-1.6748-0.08129 0.0029-0.15652 1.8229-1.2206 4.0444-2.3646 8.9232-4.5951 14.544-9.1237 15.688-12.64 0.27587-0.84794 0.47752-0.97257 1.7275-1.0676 3.5169-0.26753 13.552 1.1401 18.065 2.5339l2.0702 0.63942v7.3471c0 5.6884-0.0903 7.337-0.4 7.3021-0.22-0.0248-1.624-0.36789-3.12-0.76252zm-86.24-15.412c-4.7679-0.41608-11.95-1.7758-14.32-2.7111l-0.88-0.34726v-7.4628c0-6.9391 0.039299-7.4545 0.56-7.3447 0.308 0.06494 2.072 0.48714 3.92 0.93823 5.9918 1.4626 9.8218 1.8735 18.08 1.9401 6.3662 0.05131 7.8927 0.1533 8.9234 0.59617 4.0082 1.7223 10.537 2.9132 19.557 3.5671 8.0044 0.58038 15.257 1.3919 15.625 1.7483 0.40419 0.39185-1.2806 1.4487-5.6088 3.5183l-3.9358 1.882-7.52 1.1388c-9.5299 1.4432-14.144 2.0238-19.326 2.4315-3.8456 0.30257-12.149 0.36062-15.074 0.10539zm76.811-3.6869c-0.076758-0.22759-0.18262-0.7738-0.23525-1.2138-0.083712-0.69983-0.29603-0.82654-1.6957-1.012-0.88-0.11658-2.7704-0.22458-4.2008-0.24-1.6644-0.017952-2.7171-0.17205-2.9238-0.42804-0.43356-0.53691-2.7486-13.563-2.5175-14.166 0.20225-0.52705 2.8513-0.59535 7.9577-0.20516 1.5376 0.11749 2.9416 0.16495 3.12 0.10547 0.17844-0.059482 0.32444-0.52815 0.32444-1.0415 0-0.58579 0.16649-0.93333 0.44712-0.93333 0.47909 0 10.993 10.06 12.017 11.498l0.61353 0.86162-3.259 1.7082c-1.7925 0.9395-4.3987 2.4141-5.7915 3.2768-3.6005 2.2302-3.6932 2.2732-3.8566 1.7888zm-23.531-7.6194c-2.1571-0.50336-9.1818-1.2698-16.16-1.7631-7.986-0.56457-10.136-0.84582-14.88-1.9464-5.6074-1.3009-7.68-2.7123-7.68-5.2301 0-2.0439 1.4063-3.539 6.4816-6.8911l1.8416-1.2163 3.2784 0.36776c1.8031 0.20227 5.4384 0.51384 8.0784 0.69238 10.957 0.74099 16.266 1.5379 21.475 3.2234 4.4508 1.4401 6.3435 2.6216 6.7899 4.2383 0.61922 2.2426-0.35103 3.8-4.3444 6.9734-2.3997 1.9069-2.8058 2.0361-4.8807 1.5518zm-62.379-12.376c-3.3585-3.3103-6.1052-6.1742-6.1039-6.3642 0.001342-0.19002 1.5504-1.1864 3.4424-2.2142 1.892-1.0278 4.6998-2.6449 6.2396-3.5936 1.5398-0.9487 2.9438-1.6358 3.12-1.5269 0.17622 0.10891 0.3204 0.60611 0.3204 1.1049 0 0.56824 0.20911 0.98738 0.56 1.1225 0.308 0.11856 2.8288 0.30022 5.6019 0.40368 3.0497 0.11378 5.1513 0.32662 5.3187 0.53866 0.40486 0.5126 2.6764 13.608 2.4588 14.175-0.15819 0.41224-1.1572 0.46497-6.9789 0.36836l-6.7943-0.11275-0.16311 0.9334c-0.08971 0.51337-0.33237 0.9897-0.53924 1.0585-0.20687 0.06881-3.124-2.5833-6.4824-5.8936zm95.019-0.16717c-6.9402-1.6761-9.7053-1.967-19.2-2.0196-8.5599-0.047427-8.8783-0.072266-11.67-0.9104-4.5161-1.3556-12.253-2.3945-21.77-2.923-6.5553-0.36406-6.746-0.68987-1.68-2.8693 1.98-0.8518 5.917-2.6566 8.749-4.0107 5.0565-2.4178 5.2232-2.4715 9.28-2.9901 10.903-1.3938 20.802-1.6382 28.078-0.69315 4.2909 0.55736 11.249 2.1119 11.766 2.6288 0.17446 0.17446 0.26416 3.3119 0.21411 7.4883l-0.08616 7.188zm-72.448-2.0915c-0.69682-3.424-1.7918-10.112-1.7918-10.944 0-1.5927 0.78058-2.7109 3.1104-4.4557 3.7445-2.8042 8.4688-5.411 15.677-8.6504 12.965-5.8264 17.514-8.4548 22.425-12.956 0.89742-0.82261 1.4807-1.1491 1.6862-0.94365 0.53056 0.53056 2.3102 11.218 2.076 12.466-0.2643 1.4088-2.8209 3.9892-6.6481 6.7101-3.0089 2.1391-10.461 6.0463-17.262 9.0501-2.4066 1.063-5.8036 2.6493-7.5489 3.5252-3.188 1.5998-9.5293 5.6506-10.301 6.58-0.62827 0.75702-1.2238 0.59712-1.4231-0.38208zm-11.392-13.096c-5.0573-0.2806-11.723-1.3523-15.6-2.5079l-1.68-0.50081v-15.09l0.72 0.16702c0.396 0.09186 2.304 0.53554 4.24 0.98595 5.5905 1.3006 10.431 1.8016 17.405 1.8016 7.3696 0 13.454-0.52877 23.958-2.0822 8.5921-1.2707 8.0773-1.2196 8.0773-0.801 0 0.38737-3.8043 2.3015-11.122 5.5959-6.2361 2.8075-9.9703 4.856-13.631 7.4776-2.2762 1.6302-2.9992 2.3107-4.7642 4.484-0.57804 0.71175-1.8375 0.78954-7.6031 0.46964zm74.5-4.6514c-0.07624-0.78115-0.29204-1.0803-0.90028-1.2481-1.1-0.30344-14.612-0.29602-17.76 0.0098-1.4362 0.13951-2.6987 0.1243-2.8759-0.03466-0.19908-0.17858 0.12512-0.69943 0.87674-1.4085 3.1885-3.0082 3.6864-4.7004 2.8157-9.571-0.3146-1.76-0.5092-3.3655-0.43242-3.5678 0.21015-0.5537 5.2251-0.84926 12.096-0.71292l6.08 0.12064 0.10125-0.88c0.05569-0.484 0.28899-0.88 0.51843-0.88 0.78232 0 13.027 11.923 12.624 12.292-0.0681 0.06232-1.3478 0.7223-2.8438 1.4666-1.496 0.74433-4.2527 2.2731-6.1261 3.3972-1.8734 1.1241-3.5562 2.0439-3.7397 2.0439-0.18349 0-0.37874-0.46234-0.4339-1.0274zm-33.54-17.708c-2.8484-0.49206-10.716-1.2776-17.539-1.7512-7.2723-0.50477-15.266-2.1042-17.595-3.5203-1.6293-0.99085-2.0323-1.9939-2.9923-7.4488-1.1366-6.4579-1.1458-6.7681-0.19364-6.4852 6.8551 2.037 11.717 2.8252 21.84 3.5403 13.965 0.98656 22.696 2.9141 25.953 5.7291 1.1005 0.95133 1.2471 1.2451 1.2471 2.4995 0 1.8342-0.91599 3.0513-4.3855 5.8273-2.8263 2.2613-2.7183 2.2339-6.3345 1.6092z" fill="#a0dfe6"/>
  <path d="m84.48 125.86c-5.5562-2.0146-11.005-2.8892-23.52-3.7755-12.213-0.86486-19.775-2.5532-21.551-4.8122-0.85392-1.0856-0.89576-2.8465-0.09859-4.149 0.62492-1.021 3.2536-3.0568 6.5332-5.0594 1.4407-0.87974 2.2322-1.1736 2.8419-1.055 0.81528 0.15859 4.065 0.43796 13.555 1.1653 9.5212 0.72972 16.236 2.0566 20.738 4.0975 3.2006 1.4512 3.4619 1.9314 4.6382 8.5243 0.55785 3.1264 0.936 5.811 0.84033 5.9658-0.24927 0.40333-0.58863 0.32635-3.9762-0.9019zm-46.869-15.857c-0.07071-0.22-0.56557-2.8997-1.0997-5.9548-1.2782-7.3114-1.2641-7.3467 4.4991-11.261 3.5083-2.3826 7.5405-4.5261 13.229-7.0326 6.1814-2.7236 14.561-7.0033 17.44-8.9065 1.32-0.87278 3.2866-2.392 4.3703-3.3761 1.9419-1.7635 2.4705-2.0505 2.7985-1.5197 0.41093 0.6649 2.1336 11.438 1.948 12.182-0.32628 1.308-1.5867 2.7455-4.3959 5.0136-4.3154 3.4842-8.7577 5.9209-20.078 11.013-8.1364 3.6602-13.131 6.4811-16.963 9.58-0.91763 0.74218-1.5631 0.83861-1.7487 0.26127zm-31.619-9.4826-6.1297-6.0426 3.3118-1.6619c1.8215-0.91406 4.5743-2.4429 6.1174-3.3974 1.5431-0.9545 2.9637-1.7354 3.1569-1.7354 0.19323 0 0.35133 0.34237 0.35133 0.76082 0 1.5774 0.38312 1.6397 10.049 1.6326 6.6501-0.0048 10.188-0.15479 13.588-0.576 2.5285-0.31321 4.6567-0.51009 4.7293-0.43752 0.07257 0.07257-1.0698 1.0051-2.5387 2.0723-5.177 3.7613-5.98 5.2762-5.3093 10.015 0.22098 1.5614 0.32866 2.912 0.23928 3.0014-0.32866 0.32866-11.363 0.85049-15.91 0.75241l-4.6883-0.10114-0.10126 0.88c-0.05569 0.484-0.24423 0.88-0.41897 0.88-0.17474 0-3.0761-2.7192-6.4474-6.0426zm98.472 0.94595c-0.1672-0.16316-1.456-0.58673-2.864-0.94124-9.1382-2.3009-18.62-2.7444-30.952-1.4477-2.5918 0.27252-4.9678 0.44193-5.28 0.37646-0.34663-0.07269 0.86508-0.85634 3.1124-2.0129 7.3499-3.7825 12.968-8.2355 14.601-11.573l0.87327-1.7849 3.383 0.21637c4.6042 0.29447 9.4646 1.0077 13.315 1.954 1.7668 0.43416 3.4588 0.78937 3.76 0.78937 0.50104 0 0.54769 0.62685 0.54769 7.36 0 4.048-0.0432 7.36-0.096 7.36s-0.2328-0.1335-0.4-0.29667zm-89.744-16.231c-3.3376-0.32512-8.0665-1.1314-11.28-1.9232l-3.44-0.84762v-7.311c0-4.021 0.061609-7.311 0.13691-7.311 0.075299 0 1.4793 0.36066 3.12 0.80146 5.5985 1.5041 11.241 2.1543 19.463 2.2427 6.7371 0.07247 7.6903 0.14954 9.1558 0.74026 4.2012 1.6935 10.16 2.7566 19.164 3.4194 6.9171 0.50915 14.571 1.3409 14.843 1.6129 0.08466 0.08466 0.01952 0.2843-0.14474 0.44364-0.64928 0.62981-8.185 4.1872-9.4805 4.4754-1.8939 0.4214-15.496 2.4525-20.578 3.0727-4.0084 0.4892-17.947 0.87774-20.96 0.58426zm77.38-4.6691c-0.090358-0.93383-0.22687-1.0586-1.3803-1.2616-0.704-0.12388-2.5944-0.23354-4.2008-0.24368-1.9355-0.012224-3.0272-0.15338-3.2362-0.41844-0.17346-0.22-0.77145-2.992-1.3289-6.16-0.55741-3.168-1.0955-6.1693-1.1957-6.6695l-0.18222-0.90948 5.3919 0.06254c6.7008 0.077732 6.1919 0.14377 6.1919-0.80358 0-0.44 0.161-0.8 0.35777-0.8 0.36941 0 12.004 11.172 12.08 11.6 0.0234 0.132-0.0654 0.21155-0.19743 0.17677-0.36907-0.09723-4.661 2.1486-8.4461 4.4196-1.8734 1.124-3.4842 2.0436-3.5797 2.0436-0.09549 0-0.21874-0.46635-0.2739-1.0363zm-23.62-6.3293c-2.1571-0.50336-9.1818-1.2698-16.16-1.7631-7.986-0.56457-10.136-0.84582-14.88-1.9464-5.6074-1.3009-7.68-2.7123-7.68-5.2301 0-2.0439 1.4063-3.539 6.4816-6.8911l1.8416-1.2163 3.2784 0.36776c1.8031 0.20227 5.4384 0.51384 8.0784 0.69238 10.957 0.74099 16.266 1.5379 21.475 3.2234 4.4508 1.4401 6.3435 2.6216 6.7899 4.2383 0.61922 2.2426-0.35103 3.8-4.3444 6.9734-2.3997 1.9069-2.8058 2.0361-4.8807 1.5518zm-62.523-12.826c-3.2765-3.1856-5.9523-5.8856-5.9464-6 0.0059952-0.11439 1.1901-0.77876 2.6313-1.4764 1.4412-0.69761 4.2432-2.2456 6.2265-3.44 1.9834-1.1944 3.6793-2.1716 3.7687-2.1716 0.08941 0 0.16257 0.43509 0.16257 0.96686 0 1.3807 0.66468 1.5669 6.56 1.8379l5.12 0.23529 1.0211 5.6c0.5616 3.08 1.0656 6.248 1.12 7.04l0.09891 1.44h-13.648l-0.17597 0.88c-0.09678 0.484-0.35721 0.88-0.57872 0.88-0.22151 0-3.0835-2.6064-6.36-5.792zm98.043 0.69927c-0.7401-0.42136-5.5853-1.5468-9.2969-2.1596-2.5411-0.4195-5.5307-0.56412-12.463-0.60287-8.8105-0.049254-9.2069-0.078586-11.68-0.86424-4.2357-1.3456-10.292-2.1882-20.886-2.9061-3.1251-0.21176-5.5529-0.5135-5.5876-0.69446-0.033754-0.176 1.6611-1.0843 3.7662-2.0185s5.9156-2.6886 8.4676-3.8986c4.467-2.1181 4.7892-2.2184 8.64-2.6911 8.0491-0.98796 12.574-1.2325 19.649-1.0617 7.3437 0.1773 10.268 0.53676 16.751 2.0589l3.6 0.84533v7.1428c0 3.9285-0.108 7.1384-0.24 7.1331-0.132-0.0053-0.456-0.1327-0.72-0.283zm-75.328-2.5073c-0.69682-3.424-1.7918-10.112-1.7918-10.944 0-1.5927 0.78058-2.7109 3.1104-4.4557 3.7445-2.8042 8.4688-5.411 15.677-8.6504 12.965-5.8264 17.514-8.4548 22.425-12.956 0.89742-0.82261 1.4807-1.1491 1.6862-0.94365 0.53056 0.53056 2.3102 11.218 2.076 12.466-0.2643 1.4088-2.8209 3.9892-6.6481 6.7101-3.0089 2.1391-10.461 6.0463-17.262 9.0501-2.4066 1.063-5.8036 2.6493-7.5489 3.5252-3.188 1.5998-9.5293 5.6506-10.301 6.58-0.62827 0.75702-1.2238 0.59712-1.4231-0.38208zm-13.686-13.545c-3.8244-0.31634-8.4399-1.0907-12.069-2.0248l-2.757-0.70962-0.085735-7.3539-0.085735-7.3539 4.0909 1.0262c6.6794 1.6756 11.744 2.1468 20.881 1.9427 7.8364-0.17511 11.09-0.47577 21.433-1.9803 3.0285-0.44056 5.817-0.79643 6.1966-0.79083 0.65743 0.0097 0.66237 0.03133 0.10386 0.45461-0.32254 0.24444-3.0585 1.5589-6.08 2.921-11.866 5.3492-17.653 8.7806-20.758 12.308l-1.6781 1.9064-3.0488-0.044778c-1.6768-0.02464-4.441-0.15993-6.1426-0.30068zm77.345-3.7495c-0.094416-0.09442-0.17167-0.5026-0.17167-0.90708 0-0.40448-0.28195-0.8863-0.62655-1.0707-0.8058-0.43125-11.021-0.56787-16.64-0.22255l-4.3068 0.26466 1.4726-1.5743c2.7252-2.9135 3.0982-4.4105 2.2895-9.1903-0.31038-1.8345-0.44967-3.45-0.30955-3.5901 0.14012-0.14004 4.2367-0.25462 9.1036-0.25462 8.597 0 8.8521-0.01821 8.9642-0.64 0.0635-0.352 0.2242-0.75552 0.35712-0.89672 0.13291-0.1412 2.9544 2.4113 6.27 5.6722 3.3156 3.2609 5.9289 6.0284 5.8073 6.1501-0.12161 0.12161-0.2211 0.12349-0.2211 0.0042 0-0.32407-4.4979 2.0135-8.3883 4.3596-1.8856 1.137-3.5056 1.9901-3.6 1.8957zm-34.092-18.16c-2.8484-0.49206-10.716-1.2776-17.539-1.7512-7.2723-0.50477-15.266-2.1042-17.595-3.5203-1.6293-0.99085-2.0323-1.9939-2.9923-7.4488-1.1366-6.4579-1.1458-6.7681-0.19364-6.4852 6.8551 2.037 11.717 2.8252 21.84 3.5403 13.965 0.98656 22.696 2.9141 25.953 5.7291 1.1005 0.95133 1.2471 1.2451 1.2471 2.4995 0 1.8342-0.91599 3.0513-4.3855 5.8273-2.8263 2.2613-2.7183 2.2339-6.3345 1.6092z" fill="#b0b0b0"/>
  <path d="m84.182 125.55c-5.186-1.8648-11.367-2.8265-23.382-3.6381-8.8448-0.59745-16.497-1.9734-19.502-3.5066-1.5007-0.76561-2.5776-2.064-2.5776-3.108 0-1.8586 1.4586-3.3772 6.24-6.4971l2.56-1.6704 2.08 0.19985c1.144 0.10991 4.096 0.34005 6.56 0.51141 12.545 0.87243 19.261 1.8651 24.096 3.5613 3.397 1.1918 5.0326 2.0752 5.6846 3.0702 0.43073 0.65738 2.361 10.155 2.3745 11.684 0.0068 0.75925-0.57103 0.67449-4.1329-0.6063zm-46.369-15.848c-0.54543-1.5031-2.0535-11.103-1.8633-11.861 0.34786-1.386 1.4576-2.4308 5.334-5.022 4.023-2.6892 7.0355-4.2485 15.836-8.197 9.4391-4.235 14.242-6.9904 18.677-10.714 1.2844-1.0784 2.5068-1.895 2.7165-1.8145 0.53694 0.20604 2.305 10.991 2.0038 12.222-0.31644 1.2935-3.9268 4.74-7.3546 7.0207-3.3049 2.199-10.109 5.6831-16.843 8.6248-7.2774 3.179-12.197 5.9376-16.878 9.4639l-1.358 1.023zm-31.821-9.1888-6.1297-6.0426 3.3118-1.6619c1.8215-0.91406 4.5743-2.4429 6.1174-3.3974 1.5431-0.9545 2.9637-1.7354 3.1569-1.7354 0.19323 0 0.35133 0.34237 0.35133 0.76082 0 1.5774 0.38312 1.6397 10.049 1.6326 6.6501-0.0048 10.188-0.15479 13.588-0.576 2.5285-0.31321 4.6567-0.51009 4.7293-0.43752 0.07257 0.07257-1.0698 1.0051-2.5387 2.0723-5.177 3.7613-5.98 5.2762-5.3093 10.015 0.22098 1.5614 0.32866 2.912 0.23928 3.0014-0.32866 0.32866-11.363 0.85049-15.91 0.75241l-4.6883-0.10114-0.10126 0.88c-0.05569 0.484-0.24423 0.88-0.41897 0.88-0.17474 0-3.0761-2.7192-6.4474-6.0426zm98.472 0.94595c-0.1672-0.16316-1.456-0.58673-2.864-0.94124-9.1382-2.3009-18.62-2.7444-30.952-1.4477-2.5918 0.27252-4.9678 0.44193-5.28 0.37646-0.34663-0.07269 0.86508-0.85634 3.1124-2.0129 7.3499-3.7825 12.968-8.2355 14.601-11.573l0.87327-1.7849 3.383 0.21637c4.6042 0.29447 9.4646 1.0077 13.315 1.954 1.7668 0.43416 3.4588 0.78937 3.76 0.78937 0.50104 0 0.54769 0.62685 0.54769 7.36 0 4.048-0.0432 7.36-0.096 7.36s-0.2328-0.1335-0.4-0.29667zm-89.744-16.231c-3.3376-0.32512-8.0665-1.1314-11.28-1.9232l-3.44-0.84762v-7.311c0-4.021 0.061609-7.311 0.13691-7.311 0.075299 0 1.4793 0.36066 3.12 0.80146 5.5985 1.5041 11.241 2.1543 19.463 2.2427 6.7371 0.07247 7.6903 0.14954 9.1558 0.74026 4.2012 1.6935 10.16 2.7566 19.164 3.4194 6.9171 0.50915 14.571 1.3409 14.843 1.6129 0.08466 0.08466 0.01952 0.2843-0.14474 0.44364-0.64928 0.62981-8.185 4.1872-9.4805 4.4754-1.8939 0.4214-15.496 2.4525-20.578 3.0727-4.0084 0.4892-17.947 0.87774-20.96 0.58426zm77.38-4.6691c-0.090358-0.93383-0.22687-1.0586-1.3803-1.2616-0.704-0.12388-2.5944-0.23354-4.2008-0.24368-1.9355-0.012224-3.0272-0.15338-3.2362-0.41844-0.17346-0.22-0.77145-2.992-1.3289-6.16-0.55741-3.168-1.0955-6.1693-1.1957-6.6695l-0.18222-0.90948 5.3919 0.06254c6.7008 0.077732 6.1919 0.14377 6.1919-0.80358 0-0.44 0.161-0.8 0.35777-0.8 0.36941 0 12.004 11.172 12.08 11.6 0.0234 0.132-0.0654 0.21155-0.19743 0.17677-0.36907-0.09723-4.661 2.1486-8.4461 4.4196-1.8734 1.124-3.4842 2.0436-3.5797 2.0436-0.09549 0-0.21874-0.46635-0.2739-1.0363zm-26.82-6.98c-2.024-0.31104-6.92-0.79963-10.88-1.0858-14.393-1.04-22.309-2.7563-23.898-5.1812-0.73905-1.1279-0.69806-3.1116 0.0864-4.1811 0.79341-1.0817 4.4611-3.9019 6.4968-4.9956 1.3241-0.71137 1.6705-0.76468 3.3946-0.52228 1.056 0.14847 5.0406 0.49574 8.8548 0.7717 12.201 0.88274 17.016 1.6397 22.486 3.5345 4.6586 1.6139 6.4113 3.3532 5.8067 5.7621-0.2571 1.0243-2.5004 3.4789-4.8032 5.2555-1.9323 1.4908-1.9897 1.4956-7.5439 0.64212zm-59.323-12.176c-3.2765-3.1856-5.9523-5.8856-5.9464-6 0.0059952-0.11439 1.1901-0.77876 2.6313-1.4764 1.4412-0.69761 4.2432-2.2456 6.2265-3.44 1.9834-1.1944 3.6793-2.1716 3.7687-2.1716 0.08941 0 0.16257 0.43509 0.16257 0.96686 0 1.3807 0.66468 1.5669 6.56 1.8379l5.12 0.23529 1.0211 5.6c0.5616 3.08 1.0656 6.248 1.12 7.04l0.09891 1.44h-13.648l-0.17597 0.88c-0.09678 0.484-0.35721 0.88-0.57872 0.88-0.22151 0-3.0835-2.6064-6.36-5.792zm98.043 0.69927c-0.7401-0.42136-5.5853-1.5468-9.2969-2.1596-2.5411-0.4195-5.5307-0.56412-12.463-0.60287-8.8105-0.049254-9.2069-0.078586-11.68-0.86424-4.2357-1.3456-10.292-2.1882-20.886-2.9061-3.1251-0.21176-5.5529-0.5135-5.5876-0.69446-0.033754-0.176 1.6611-1.0843 3.7662-2.0185s5.9156-2.6886 8.4676-3.8986c4.467-2.1181 4.7892-2.2184 8.64-2.6911 8.0491-0.98796 12.574-1.2325 19.649-1.0617 7.3437 0.1773 10.268 0.53676 16.751 2.0589l3.6 0.84533v7.1428c0 3.9285-0.108 7.1384-0.24 7.1331-0.132-0.0053-0.456-0.1327-0.72-0.283zm-74.996-2.1959c-0.36014-0.58271-2.141-11.481-1.9806-12.12 0.29681-1.1826 1.6446-2.5116 4.5741-4.5106 4.1072-2.8025 6.7277-4.2073 13.6-7.2902 11.685-5.2425 17.284-8.3864 21.949-12.325 1.2905-1.0896 2.4618-1.8562 2.603-1.7035 0.34377 0.37184 1.9309 9.5566 1.9294 11.165-0.0016 1.7188-0.83409 2.9669-3.4208 5.1288-4.379 3.6599-10.363 7.0414-19.778 11.177-6.5939 2.8964-12.544 6.0731-15.906 8.4917-3.2617 2.3468-3.3253 2.3822-3.5702 1.9859zm-14.018-13.857c-3.8244-0.31634-8.4399-1.0907-12.069-2.0248l-2.757-0.70962-0.085735-7.3539-0.085735-7.3539 4.0909 1.0262c6.6794 1.6756 11.744 2.1468 20.881 1.9427 7.8364-0.17511 11.09-0.47577 21.433-1.9803 3.0285-0.44056 5.817-0.79643 6.1966-0.79083 0.65743 0.0097 0.66237 0.03133 0.10386 0.45461-0.32254 0.24444-3.0585 1.5589-6.08 2.921-11.866 5.3492-17.653 8.7806-20.758 12.308l-1.6781 1.9064-3.0488-0.044778c-1.6768-0.02464-4.441-0.15993-6.1426-0.30068zm77.345-3.7495c-0.094416-0.09442-0.17167-0.5026-0.17167-0.90708 0-0.40448-0.28195-0.8863-0.62655-1.0707-0.8058-0.43125-11.021-0.56787-16.64-0.22255l-4.3068 0.26466 1.4726-1.5743c2.7252-2.9135 3.0982-4.4105 2.2895-9.1903-0.31038-1.8345-0.44967-3.45-0.30955-3.5901 0.14012-0.14004 4.2367-0.25462 9.1036-0.25462 8.597 0 8.8521-0.01821 8.9642-0.64 0.0635-0.352 0.2242-0.75552 0.35712-0.89672 0.13291-0.1412 2.9544 2.4113 6.27 5.6722 3.3156 3.2609 5.9289 6.0284 5.8073 6.1501-0.12161 0.12161-0.2211 0.12349-0.2211 0.0042 0-0.32407-4.4979 2.0135-8.3883 4.3596-1.8856 1.137-3.5056 1.9901-3.6 1.8957zm-32.838-18.115c-0.29372-0.28536-8.2713-1.1582-14.884-1.6285-7.9557-0.56583-12.397-1.1673-16.733-2.2661-3.7365-0.94683-5.4973-1.7835-6.1778-2.9355-0.51574-0.87308-2.6328-11.892-2.3409-12.184 0.08116-0.081161 1.4829 0.23035 3.1151 0.69224 4.524 1.2803 9.6682 2.0508 17.39 2.6048 12.406 0.89005 16.738 1.5474 22.464 3.4087 3.1788 1.0333 4.169 1.507 5.2 2.4878 2.4899 2.3686 1.565 4.4708-3.7953 8.6259-1.3062 1.0126-1.9909 1.3246-2.9067 1.3246-0.65886 0-1.2579-0.05829-1.3313-0.12954z" fill="#51c6e3"/>
  <path d="m84.182 125.55c-5.186-1.8648-11.367-2.8265-23.382-3.6381-8.8448-0.59745-16.497-1.9734-19.502-3.5066-1.5007-0.76561-2.5776-2.064-2.5776-3.108 0-1.8586 1.4586-3.3772 6.24-6.4971l2.56-1.6704 2.08 0.19985c1.144 0.10991 4.096 0.34005 6.56 0.51141 12.545 0.87243 19.261 1.8651 24.096 3.5613 3.397 1.1918 5.0326 2.0752 5.6846 3.0702 0.43073 0.65738 2.361 10.155 2.3745 11.684 0.0068 0.75925-0.57103 0.67449-4.1329-0.6063zm-46.369-15.848c-0.54543-1.5031-2.0535-11.103-1.8633-11.861 0.34786-1.386 1.4576-2.4308 5.334-5.022 4.023-2.6892 7.0355-4.2485 15.836-8.197 9.4391-4.235 14.242-6.9904 18.677-10.714 1.2844-1.0784 2.5068-1.895 2.7165-1.8145 0.53694 0.20604 2.305 10.991 2.0038 12.222-0.31644 1.2935-3.9268 4.74-7.3546 7.0207-3.3049 2.199-10.109 5.6831-16.843 8.6248-7.2774 3.179-12.197 5.9376-16.878 9.4639l-1.358 1.023zm-31.909-9.3217-6.026-5.8555 2.5202-1.1968c1.3861-0.65825 4.2142-2.1993 6.2847-3.4245 2.0705-1.2252 3.8347-2.2277 3.9205-2.2277 0.0858 0 0.20112 0.45851 0.25627 1.0189 0.08028 0.8157 0.29173 1.0769 1.0603 1.3097 1.7448 0.52851 15.253 0.38181 21.06-0.22871 2.9593-0.31108 5.4451-0.50094 5.5241-0.42192 0.07902 0.07901-1.1468 1.0936-2.7239 2.2547-1.6007 1.1784-3.2637 2.7092-3.7641 3.4649-0.78401 1.1839-0.89653 1.6581-0.89653 3.7781 0 1.3334 0.11744 3.0173 0.26098 3.742 0.22129 1.1173 0.17262 1.3568-0.32 1.5744-0.31954 0.14117-4.973 0.29759-10.341 0.34759l-9.76 0.0909-0.10126 0.8147c-0.05569 0.44809-0.28741 0.8147-0.51494 0.8147s-3.1254-2.635-6.4397-5.8555zm63.536-3.1531c7.7726-4.1382 12.869-8.3012 14.271-11.657 0.4509-1.0792 0.54721-1.1356 1.6636-0.97514 0.65176 0.09368 2.445 0.26213 3.985 0.37432l2.8 0.20399v12.903l-7.92 0.0137c-5.3762 0.0093-9.3978 0.18916-12.521 0.56-2.5307 0.30047-4.9067 0.5442-5.28 0.54162-0.37333-0.002564 0.97722-0.88636 3.0012-1.964zm-54.641-12.156c-3.1601-0.24116-7.5246-0.99328-13.119-2.2607l-1.68-0.38064v-7.331c0-6.8514 0.036637-7.3168 0.56-7.1137 1.1701 0.45422 7.0898 1.7846 10.16 2.2833 2.0983 0.34084 5.9428 0.56504 11.167 0.65121 7.8772 0.12993 7.9971 0.14218 10.688 1.0918 4.9526 1.748 10.666 2.6794 21.506 3.5059 5.8667 0.4473 10.621 0.99909 11.194 1.2992 0.32968 0.1726-0.8411 0.89137-3.84 2.3575l-4.3143 2.1092-7.84 1.249c-16.639 2.6506-24.975 3.2645-34.481 2.5391zm69.991-6.5874-1.4507-0.11702-1.0718-6.1453c-0.58949-3.3799-1.1401-6.3253-1.2235-6.5453-0.17433-0.45957 3.2782-0.54056 8.1876-0.19208l2.9292 0.20792v13.024l-2.96-0.05768c-1.628-0.03171-3.6128-0.11034-4.4107-0.1747zm-19.509-4.9039c-2.024-0.31104-6.92-0.79963-10.88-1.0858-14.393-1.04-22.309-2.7563-23.898-5.1812-0.73905-1.1279-0.69806-3.1116 0.0864-4.1811 0.79341-1.0817 4.4611-3.9019 6.4968-4.9956 1.3241-0.71137 1.6705-0.76468 3.3946-0.52228 1.056 0.14847 5.0406 0.49574 8.8548 0.7717 12.201 0.88274 17.016 1.6397 22.486 3.5345 4.6586 1.6139 6.4113 3.3532 5.8067 5.7621-0.2571 1.0243-2.5004 3.4789-4.8032 5.2555-1.9323 1.4908-1.9897 1.4956-7.5439 0.64212zm-56.063-9.123c-1.6372-1.5066-4.3653-4.1895-6.0625-5.962l-3.0857-3.2227 3.0857-1.5125c1.6972-0.83186 4.4228-2.325 6.057-3.318 1.6342-0.99304 3.1102-1.8055 3.28-1.8055s0.30875 0.4166 0.30875 0.92576c0 0.57959 0.2094 1.0129 0.56 1.1587 0.308 0.12814 2.792 0.30352 5.52 0.38974 2.728 0.08622 5.0936 0.28157 5.2568 0.4341 0.16326 0.15254 0.82174 3.2361 1.4633 6.8524 0.96528 5.4411 1.0925 6.6364 0.73764 6.9309-0.29482 0.24468-2.4518 0.3172-6.9033 0.23211l-6.4745-0.12376-0.10126 0.88c-0.05569 0.484-0.22816 0.88-0.38326 0.88-0.1551 0-1.6215-1.2327-3.2587-2.7393zm19.787-4.5493c-0.36014-0.58271-2.141-11.481-1.9806-12.12 0.29681-1.1826 1.6446-2.5116 4.5741-4.5106 4.1072-2.8025 6.7277-4.2073 13.6-7.2902 11.685-5.2425 17.284-8.3864 21.949-12.325 1.2905-1.0896 2.4618-1.8562 2.603-1.7035 0.34377 0.37184 1.9309 9.5566 1.9294 11.165-0.0016 1.7188-0.83409 2.9669-3.4208 5.1288-4.379 3.6599-10.363 7.0414-19.778 11.177-6.5939 2.8964-12.544 6.0731-15.906 8.4917-3.2617 2.3468-3.3253 2.3822-3.5702 1.9859zm44.168-0.92577c-0.38596-0.38596-6.6349-1.8342-10.074-2.3347-3.4274-0.49879-16.086-1.5932-18.602-1.6082-0.95486-0.0057 0.27609-0.65748 6.224-3.2956 3.344-1.4832 6.9618-3.1419 8.0395-3.6861 2.1385-1.0798 5.4113-1.6242 14.041-2.3354 4.3646-0.35972 16.574-0.20961 18.48 0.22721l0.88 0.20168-6.4e-4 6.4427-6.4e-4 6.4427-9.46 0.0059c-5.203 0.0032-9.4898-0.02387-9.5261-0.06021zm-60.692-13.264c-3.2106-0.36851-6.7574-1.0475-9.8967-1.8946l-2.5833-0.69705v-14.617l1.0419 0.43534c1.3555 0.56638 7.8879 1.9246 11.758 2.4448 3.8597 0.51878 15.216 0.52488 20.64 0.01108 2.288-0.21672 7.2396-0.8267 11.004-1.3555 3.764-0.52881 7.148-0.91803 7.52-0.86493 0.41809 0.05968-1.462 1.063-4.9236 2.6276-10.667 4.8213-15.114 7.2739-19.278 10.633-1.187 0.95744-2.3787 2.1673-2.6482 2.6885l-0.49008 0.94771-4.8718-0.041517c-2.6795-0.022832-5.9518-0.16548-7.2718-0.31698zm60.054-7.0838c2.524-2.7382 2.8649-4.16 2.1059-8.783-0.29484-1.796-0.42604-3.3754-0.29156-3.5099 0.33242-0.33242 11.537-0.32943 15.011 4e-3l2.8 0.26873v12.944l-6.8-0.02061c-3.74-0.01133-8.4514 0.10157-10.47 0.25089l-3.6698 0.2715 1.3138-1.4253zm-13.041-14.447c-0.29372-0.28536-8.2713-1.1582-14.884-1.6285-7.9557-0.56583-12.397-1.1673-16.733-2.2661-3.7365-0.94683-5.4973-1.7835-6.1778-2.9355-0.51574-0.87308-2.6328-11.892-2.3409-12.184 0.08116-0.081161 1.4829 0.23035 3.1151 0.69224 4.524 1.2803 9.6682 2.0508 17.39 2.6048 12.406 0.89005 16.738 1.5474 22.464 3.4087 3.1788 1.0333 4.169 1.507 5.2 2.4878 2.4899 2.3686 1.565 4.4708-3.7953 8.6259-1.3062 1.0126-1.9909 1.3246-2.9067 1.3246-0.65886 0-1.2579-0.05829-1.3313-0.12954z" fill="#49c2d9"/>
  <path d="m84.182 125.55c-5.186-1.8648-11.367-2.8265-23.382-3.6381-8.8448-0.59745-16.497-1.9734-19.502-3.5066-1.5007-0.76561-2.5776-2.064-2.5776-3.108 0-1.8586 1.4586-3.3772 6.24-6.4971l2.56-1.6704 2.08 0.19985c1.144 0.10991 4.096 0.34005 6.56 0.51141 12.545 0.87243 19.261 1.8651 24.096 3.5613 3.397 1.1918 5.0326 2.0752 5.6846 3.0702 0.43073 0.65738 2.361 10.155 2.3745 11.684 0.0068 0.75925-0.57103 0.67449-4.1329-0.6063zm-46.369-15.848c-0.54543-1.5031-2.0535-11.103-1.8633-11.861 0.34786-1.386 1.4576-2.4308 5.334-5.022 4.023-2.6892 7.0355-4.2485 15.836-8.197 9.4391-4.235 14.242-6.9904 18.677-10.714 1.2844-1.0784 2.5068-1.895 2.7165-1.8145 0.53694 0.20604 2.305 10.991 2.0038 12.222-0.31644 1.2935-3.9268 4.74-7.3546 7.0207-3.3049 2.199-10.109 5.6831-16.843 8.6248-7.2774 3.179-12.197 5.9376-16.878 9.4639l-1.358 1.023zm-28.953-6.5397c-5.1524-4.8572-8.8498-8.7352-8.5217-8.938 0.16582-0.10248 0.30149-0.096003 0.30149 0.014394 0 0.25005 5.31-2.6014 9.011-4.8389 1.5241-0.9214 2.8561-1.5902 2.96-1.4863 0.10392 0.10393 0.18895 0.51989 0.18895 0.92436 0 1.401 0.86332 1.5428 9.44 1.5506 6.9423 0.0063 13.473-0.37772 17.04-1.0019 1.4401-0.25202 1.2988 0.205-0.39407 1.2745-2.1623 1.366-4.6073 3.6819-5.2565 4.9787-0.92217 1.8423-0.99943 2.6321-0.53786 5.4978 0.23902 1.484 0.39933 2.7381 0.35623 2.7868-0.31393 0.35491-8.5195 0.74099-13.928 0.65532l-6.56-0.10391-0.10126 0.88c-0.05569 0.484-0.24459 0.88-0.41978 0.88-0.17519 0-1.7856-1.3831-3.5787-3.0735zm61.301-6.0581c1.8929-0.96163 3.5129-1.7484 3.6-1.7484s0.1584 0.62492 0.1584 1.3887v1.3887l-3.0213 0.3713c-1.6617 0.20421-3.2817 0.36608-3.6 0.35971-0.31828-0.0064 0.97003-0.79838 2.8629-1.76zm-56.722-12.183c-2.4672-0.2852-8.9306-1.4675-11.04-2.0195l-2.24-0.58614-0.086101-7.2766c-0.081093-6.8533-0.053175-7.263 0.48-7.0425 1.1896 0.49194 5.3071 1.4685 8.9418 2.1207 2.9992 0.5382 5.5105 0.70924 12.104 0.82441 7.7762 0.13582 8.4455 0.19432 10.24 0.89498 4.5522 1.7774 10.289 2.8198 19.413 3.5272 5.9357 0.46024 13.728 1.3458 13.97 1.5875 0.06352 0.06352-1.8055 1.0594-4.1535 2.2131l-4.269 2.0976-7.36 1.151c-14.202 2.2209-16.313 2.4275-25.92 2.5362-4.928 0.0558-9.464 0.04319-10.08-0.02803zm51.84-11.342c-2.024-0.31104-6.92-0.79963-10.88-1.0858-14.393-1.04-22.309-2.7563-23.898-5.1812-0.73905-1.1279-0.69806-3.1116 0.0864-4.1811 0.79341-1.0817 4.4611-3.9019 6.4968-4.9956 1.3241-0.71137 1.6705-0.76468 3.3946-0.52228 1.056 0.14847 5.0406 0.49574 8.8548 0.7717 12.201 0.88274 17.016 1.6397 22.486 3.5345 4.6586 1.6139 6.4113 3.3532 5.8067 5.7621-0.2571 1.0243-2.5004 3.4789-4.8032 5.2555-1.9323 1.4908-1.9897 1.4956-7.5439 0.64212zm-59.213-12.366c-5.5371-5.4181-6.0568-6.0172-5.3783-6.2 1.0908-0.29383 3.7017-1.6593 7.6206-3.9855 1.8919-1.123 3.6322-2.0846 3.8674-2.137 0.25507-0.05674 0.49985 0.2882 0.60678 0.85505 0.22083 1.1707 0.87049 1.3188 7.1095 1.6208 4.1307 0.19995 4.3818 0.24987 4.5283 0.90034 0.73164 3.2488 2.2046 12.729 2.0079 12.923-0.13712 0.1353-3.2598 0.21032-6.9393 0.16671l-6.69-0.079296v0.78041c0 0.42922-0.13577 0.86432-0.30171 0.96688-0.16594 0.10255-3.0599-2.5125-6.4311-5.8112zm22.937-1.3061c-0.36014-0.58271-2.141-11.481-1.9806-12.12 0.29681-1.1826 1.6446-2.5116 4.5741-4.5106 4.1072-2.8025 6.7277-4.2073 13.6-7.2902 11.685-5.2425 17.284-8.3864 21.949-12.325 1.2905-1.0896 2.4618-1.8562 2.603-1.7035 0.34377 0.37184 1.9309 9.5566 1.9294 11.165-0.0016 1.7188-0.83409 2.9669-3.4208 5.1288-4.379 3.6599-10.363 7.0414-19.778 11.177-6.5939 2.8964-12.544 6.0731-15.906 8.4917-3.2617 2.3468-3.3253 2.3822-3.5702 1.9859zm41.965-1.8393c-4.3967-1.3221-11.693-2.2501-22.729-2.8906-2.068-0.12003-3.7581-0.30897-3.7558-0.41987 0.0022-0.1109 1.1903-0.69572 2.64-1.2996 1.4497-0.60388 5.2278-2.2835 8.3958-3.7325l5.76-2.6345 4.7216-0.50752c2.5969-0.27913 5.4409-0.50752 6.32-0.50752h1.5984v6.4c0 3.52-0.108 6.3854-0.24 6.3675-0.132-0.01786-1.3518-0.36679-2.7106-0.77541zm-56.409-12.211c-2.8565-0.24805-8.1906-1.1587-11.28-1.9258l-3.28-0.81442v-7.3597c0-5.8486 0.082128-7.2926 0.4-7.0331 0.5799 0.47346 6.5286 1.8664 10.8 2.5289 2.8349 0.4397 5.5538 0.56819 11.84 0.55956 8.4393-0.0116 11.917-0.29702 23.184-1.9027 2.9831-0.42514 5.481-0.71573 5.551-0.64577 0.17892 0.17892-1.5831 1.048-7.4655 3.6821-9.2129 4.1255-14.622 7.3882-18.151 10.949l-2.1621 2.1811-4.0779-0.053792c-2.2429-0.029587-4.6539-0.10381-5.3579-0.16495zm58.4-6.9813c0.41336-0.44 0.79846-0.8 0.85578-0.8 0.05732 0 0.10422 0.36 0.10422 0.8 0 0.6539-0.15628 0.8-0.85578 0.8h-0.85578zm-13.467-14.69c-0.29372-0.28536-8.2713-1.1582-14.884-1.6285-7.9557-0.56583-12.397-1.1673-16.733-2.2661-3.7365-0.94683-5.4973-1.7835-6.1778-2.9355-0.51574-0.87308-2.6328-11.892-2.3409-12.184 0.08116-0.081161 1.4829 0.23035 3.1151 0.69224 4.524 1.2803 9.6682 2.0508 17.39 2.6048 12.406 0.89005 16.738 1.5474 22.464 3.4087 3.1788 1.0333 4.169 1.507 5.2 2.4878 2.4899 2.3686 1.565 4.4708-3.7953 8.6259-1.3062 1.0126-1.9909 1.3246-2.9067 1.3246-0.65886 0-1.2579-0.05829-1.3313-0.12954z" fill="#40becf"/>
  <path d="m84.182 125.55c-5.186-1.8648-11.367-2.8265-23.382-3.6381-8.8448-0.59745-16.497-1.9734-19.502-3.5066-1.5007-0.76561-2.5776-2.064-2.5776-3.108 0-1.8586 1.4586-3.3772 6.24-6.4971l2.56-1.6704 2.08 0.19985c1.144 0.10991 4.096 0.34005 6.56 0.51141 12.545 0.87243 19.261 1.8651 24.096 3.5613 3.397 1.1918 5.0326 2.0752 5.6846 3.0702 0.43073 0.65738 2.361 10.155 2.3745 11.684 0.0068 0.75925-0.57103 0.67449-4.1329-0.6063zm-46.369-15.848c-0.54543-1.5031-2.0535-11.103-1.8633-11.861 0.34786-1.386 1.4576-2.4308 5.334-5.022 4.023-2.6892 7.0355-4.2485 15.836-8.197 9.4391-4.235 14.242-6.9904 18.677-10.714 1.2844-1.0784 2.5068-1.895 2.7165-1.8145 0.53694 0.20604 2.305 10.991 2.0038 12.222-0.31644 1.2935-3.9268 4.74-7.3546 7.0207-3.3049 2.199-10.109 5.6831-16.843 8.6248-7.2774 3.179-12.197 5.9376-16.878 9.4639l-1.358 1.023zm-31.587-9.251-6.0667-5.8908 2.7646-1.3343c1.5205-0.73388 4.2157-2.2109 5.9893-3.2822 1.7736-1.0713 3.2835-1.9479 3.3554-1.9479 0.0719 0 0.2135 0.41382 0.31466 0.91959 0.10116 0.50578 0.44316 1.0299 0.76 1.1647 0.31684 0.13483 3.5281 0.31417 7.1361 0.39854 5.8247 0.1362 9.3981-0.02355 17.439-0.77964l2.2391-0.21054-2.7184 2.0746c-4.4179 3.3716-5.1718 5.1956-4.3656 10.562l0.27183 1.8096-2.5131 0.26644c-1.3822 0.14654-6.0071 0.25581-10.278 0.24284l-7.7644-0.0236-0.24891 0.96056-0.24891 0.96057zm8.1733-15.543c-3.057-0.29574-7.7429-1.0758-10.417-1.7341-1.536-0.37812-3.0245-0.72143-3.3078-0.76292-0.45339-0.066387-0.52554-0.94966-0.60131-7.3617-0.081118-6.8645-0.053337-7.2723 0.48-7.0461 4.7978 2.0356 17.585 3.6485 25.427 3.2072 3.0082-0.16928 3.9226-0.11651 4.669 0.26948 3.4142 1.7655 11.877 3.4141 21.51 4.1905 8.4287 0.67927 8.0001 0.56185 7.9997 2.1912-3.08e-4 1.2597-0.08595 1.3827-1.5276 2.1923-1.2381 0.69535-2.9991 1.1044-9.3007 2.1605-12.869 2.1568-17.273 2.6232-25.811 2.7335-4.224 0.05459-8.328 0.03657-9.12-0.04005zm50.88-11.328c-2.024-0.31104-6.92-0.79963-10.88-1.0858-14.393-1.04-22.309-2.7563-23.898-5.1812-0.73905-1.1279-0.69806-3.1116 0.0864-4.1811 0.79341-1.0817 4.4611-3.9019 6.4968-4.9956 1.3241-0.71137 1.6705-0.76468 3.3946-0.52228 1.056 0.14847 5.0406 0.49574 8.8548 0.7717 12.201 0.88274 17.016 1.6397 22.486 3.5345 4.6586 1.6139 6.4113 3.3532 5.8067 5.7621-0.2571 1.0243-2.5004 3.4789-4.8032 5.2555-1.9323 1.4908-1.9897 1.4956-7.5439 0.64212zm-59.24-12.435c-3.2341-3.1523-5.8082-5.7825-5.7202-5.845 0.088-0.06244 1.5043-0.75895 3.1474-1.5478 1.643-0.78885 4.307-2.2511 5.92-3.2494l2.9326-1.8151 0.26507 1.066c0.33192 1.3348 0.45981 1.3668 6.5612 1.6422 2.6826 0.12105 4.9405 0.32223 5.0177 0.44706 0.1392 0.22523 2.396 12.668 2.396 13.21 0 0.158-2.9995 0.23916-6.796 0.18388l-6.796-0.09895-0.30577 0.86944c-0.16817 0.4782-0.4039 0.86945-0.52384 0.86945s-2.8641-2.5791-6.0982-5.7314zm22.964-1.2372c-0.36014-0.58271-2.141-11.481-1.9806-12.12 0.29681-1.1826 1.6446-2.5116 4.5741-4.5106 4.1072-2.8025 6.7277-4.2073 13.6-7.2902 11.685-5.2425 17.284-8.3864 21.949-12.325 1.2905-1.0896 2.4618-1.8562 2.603-1.7035 0.34377 0.37184 1.9309 9.5566 1.9294 11.165-0.0016 1.7188-0.83409 2.9669-3.4208 5.1288-4.379 3.6599-10.363 7.0414-19.778 11.177-6.5939 2.8964-12.544 6.0731-15.906 8.4917-3.2617 2.3468-3.3253 2.3822-3.5702 1.9859zm22.676-4.6241c-2.816-0.15618-5.48-0.36354-5.92-0.46081l-0.8-0.17684 0.96-0.44083c2.1808-1.0014 14.034-6.2088 14.133-6.2088 0.058813 0 0.10693 1.728 0.10693 3.84v3.84l-1.68-0.05436c-0.924-0.02989-3.984-0.18214-6.8-0.33833zm-36.8-9.5359c-3.9396-0.32468-7.0285-0.82336-11.28-1.821l-3.6-0.84481v-7.177c0-6.7074 0.036646-7.1624 0.56-6.9528 1.2746 0.51046 6.5536 1.7404 9.84 2.2927 2.8741 0.48298 5.2227 0.58971 12.8 0.58169 9.496-0.01004 12.183-0.21661 23.151-1.7798 2.5253-0.35989 4.6536-0.59208 4.7297-0.51598 0.0761 0.0761-0.55001 0.43819-1.3914 0.80464-13.389 5.8315-22.167 10.994-24.557 14.442l-0.9 1.2987-3.2365-0.0456c-1.7801-0.025082-4.5326-0.15242-6.1167-0.28298zm44.614-21.561c-0.29372-0.28536-8.2713-1.1582-14.884-1.6285-7.9557-0.56583-12.397-1.1673-16.733-2.2661-3.7365-0.94683-5.4973-1.7835-6.1778-2.9355-0.51574-0.87308-2.6328-11.892-2.3409-12.184 0.08116-0.081161 1.4829 0.23035 3.1151 0.69224 4.524 1.2803 9.6682 2.0508 17.39 2.6048 12.406 0.89005 16.738 1.5474 22.464 3.4087 3.1788 1.0333 4.169 1.507 5.2 2.4878 2.4899 2.3686 1.565 4.4708-3.7953 8.6259-1.3062 1.0126-1.9909 1.3246-2.9067 1.3246-0.65886 0-1.2579-0.05829-1.3313-0.12954z" fill="#33bbc7"/>
  <path d="m84.182 125.55c-5.186-1.8648-11.367-2.8265-23.382-3.6381-8.8448-0.59745-16.497-1.9734-19.502-3.5066-1.5007-0.76561-2.5776-2.064-2.5776-3.108 0-1.8586 1.4586-3.3772 6.24-6.4971l2.56-1.6704 2.08 0.19985c1.144 0.10991 4.096 0.34005 6.56 0.51141 12.545 0.87243 19.261 1.8651 24.096 3.5613 3.397 1.1918 5.0326 2.0752 5.6846 3.0702 0.43073 0.65738 2.361 10.155 2.3745 11.684 0.0068 0.75925-0.57103 0.67449-4.1329-0.6063zm-46.369-15.848c-0.54543-1.5031-2.0535-11.103-1.8633-11.861 0.34786-1.386 1.4576-2.4308 5.334-5.022 4.023-2.6892 7.0355-4.2485 15.836-8.197 9.4391-4.235 14.242-6.9904 18.677-10.714 1.2844-1.0784 2.5068-1.895 2.7165-1.8145 0.53694 0.20604 2.305 10.991 2.0038 12.222-0.31644 1.2935-3.9268 4.74-7.3546 7.0207-3.3049 2.199-10.109 5.6831-16.843 8.6248-7.2774 3.179-12.197 5.9376-16.878 9.4639l-1.358 1.023zm-31.575-9.3302c-3.1389-3.0492-5.7666-5.5572-5.8393-5.5733-0.4639-0.10304-0.40351-0.4027 0.081149-0.4027 0.6563 0 5.0337-2.2788 9.1367-4.7563 2.6634-1.6083 2.7047-1.621 2.8022-0.8614 0.05445 0.424 0.30208 0.93945 0.55029 1.1454 1.0696 0.88769 14.033 0.95266 23.671 0.11865l2.56-0.22154-2.4429 1.9929c-1.6139 1.3166-2.7421 2.5425-3.3245 3.6126-0.82472 1.5153-0.86988 1.7973-0.70058 4.3747 0.09953 1.5153 0.27663 3.001 0.39355 3.3016 0.15573 0.40043 0.01226 0.59319-0.53652 0.7208-1.5299 0.35578-12.073 0.68608-15.629 0.48962-3.8105-0.21055-4.48-0.0608-4.48 1.0022 0 0.33045-0.1203 0.60082-0.26733 0.60082-0.14703 0-2.8355-2.4948-5.9744-5.544zm9.7618-15.444c-0.616-0.072992-2.488-0.28138-4.16-0.4631-1.672-0.18171-4.696-0.70676-6.72-1.1668-2.024-0.46001-3.968-0.86311-4.32-0.89577-0.61664-0.057219-0.64314-0.32414-0.72601-7.313-0.047304-3.9895-0.033428-7.2537 0.030836-7.2537 0.064264 0 0.53497 0.2043 1.046 0.45401 1.145 0.55948 7.3929 1.9566 10.849 2.426 1.408 0.19122 6.016 0.42379 10.24 0.51681 6.4743 0.14258 7.9061 0.26199 9.12 0.7606 1.909 0.78411 8.2157 2.4221 11.12 2.8882l2.32 0.37228v3.8111c0 2.968-0.09466 3.8111-0.42788 3.8111-0.23533 0-1.8553 0.21788-3.6 0.48419-6.4909 0.99075-11.658 1.4541-17.572 1.5758-3.344 0.06879-6.584 0.06535-7.2-0.0076zm49.28-11.349c-2.024-0.31104-6.92-0.79963-10.88-1.0858-14.393-1.04-22.309-2.7563-23.898-5.1812-0.73905-1.1279-0.69806-3.1116 0.0864-4.1811 0.79341-1.0817 4.4611-3.9019 6.4968-4.9956 1.3241-0.71137 1.6705-0.76468 3.3946-0.52228 1.056 0.14847 5.0406 0.49574 8.8548 0.7717 12.201 0.88274 17.016 1.6397 22.486 3.5345 4.6586 1.6139 6.4113 3.3532 5.8067 5.7621-0.2571 1.0243-2.5004 3.4789-4.8032 5.2555-1.9323 1.4908-1.9897 1.4956-7.5439 0.64212zm-56.168-9.5751c-3.7022-3.4012-8.8321-8.7156-8.6188-8.9289 0.080484-0.080483 0.14634-0.037571 0.14634 0.095363 0 0.29237 6.6991-3.2277 9.4547-4.9681 1.0859-0.68583 2.0669-1.247 2.1799-1.247s0.20542 0.35493 0.20542 0.78874c0 0.47183 0.26795 0.93214 0.66689 1.1456 0.36679 0.1963 2.9866 0.45336 5.8219 0.57126l5.155 0.21435 1.17 6.56c0.64349 3.608 1.0988 6.6879 1.0119 6.8442-0.08877 0.15958-3.0862 0.21394-6.8341 0.12396l-6.676-0.16028-0.24533 0.94677-0.24533 0.94676zm19.892-4.0972c-0.36014-0.58271-2.141-11.481-1.9806-12.12 0.29681-1.1826 1.6446-2.5116 4.5741-4.5106 4.1072-2.8025 6.7277-4.2073 13.6-7.2902 11.685-5.2425 17.284-8.3864 21.949-12.325 1.2905-1.0896 2.4618-1.8562 2.603-1.7035 0.34377 0.37184 1.9309 9.5566 1.9294 11.165-0.0016 1.7188-0.83409 2.9669-3.4208 5.1288-4.379 3.6599-10.363 7.0414-19.778 11.177-6.5939 2.8964-12.544 6.0731-15.906 8.4917-3.2617 2.3468-3.3253 2.3822-3.5702 1.9859zm-12.684-14.147c-4.6276-0.31202-7.4482-0.73132-12.4-1.8434l-3.92-0.88036v-7.1545c0-6.6945 0.036005-7.1386 0.56-6.9077 0.308 0.13575 1.784 0.56733 3.28 0.95907 9.2558 2.4237 21.36 2.8535 35.31 1.2539 5.5409-0.63533 5.6496-0.63031 5.6496 0.26074 0 0.61911-0.60474 1.0262-3.92 2.6389-7.0077 3.4089-12.884 7.2597-15.354 10.061-1.3235 1.5014-1.432 1.5551-3.4465 1.7053-1.144 0.08528-3.736 0.0434-5.76-0.09307zm43.173-21.574c-0.29372-0.28536-8.2713-1.1582-14.884-1.6285-7.9557-0.56583-12.397-1.1673-16.733-2.2661-3.7365-0.94683-5.4973-1.7835-6.1778-2.9355-0.51574-0.87308-2.6328-11.892-2.3409-12.184 0.08116-0.081161 1.4829 0.23035 3.1151 0.69224 4.524 1.2803 9.6682 2.0508 17.39 2.6048 12.406 0.89005 16.738 1.5474 22.464 3.4087 3.1788 1.0333 4.169 1.507 5.2 2.4878 2.4899 2.3686 1.565 4.4708-3.7953 8.6259-1.3062 1.0126-1.9909 1.3246-2.9067 1.3246-0.65886 0-1.2579-0.05829-1.3313-0.12954z" fill="#8e8e8f"/>
  <path d="m85.44 125.74c-5.5486-2.073-11.84-3.1161-24-3.9787-9.9019-0.70248-17.161-1.9702-20.159-3.5207-2.4847-1.2849-2.9867-3.4492-1.2569-5.4192 1.3139-1.4964 7.0601-5.3581 8.0163-5.3873 0.41774-0.0127 2.7035 0.14632 5.0795 0.35347 2.376 0.20714 6.9756 0.59886 10.221 0.87047 7.59 0.63517 12.393 1.467 16.626 2.8793 3.8931 1.299 5.5344 2.2612 6.0615 3.5536 0.51906 1.2726 2.2662 11.106 2.0162 11.347-0.11286 0.10908-1.2852-0.20517-2.6052-0.69834zm-47.516-16.06c-0.34594-1.0145-1.7635-9.8762-1.7635-11.024 0-1.6116 0.63306-2.4401 3.4386-4.5001 3.6228-2.6601 7.9706-5.025 15.148-8.2395 11.527-5.1626 16.647-8.039 21.315-11.975 1.2657-1.0673 2.3745-1.8222 2.4639-1.6774 0.29558 0.47826 1.8449 9.4695 1.8708 10.857 0.0325 1.7414-0.82125 2.963-3.7628 5.3844-4.2992 3.5389-10.244 6.8354-20.388 11.305-7.5341 3.3198-12.566 6.1116-16.217 8.9974-1.7709 1.3998-1.9064 1.456-2.1053 0.87262zm-31.685-9.304c-3.1389-3.0492-5.7666-5.5572-5.8393-5.5733-0.4639-0.10304-0.40351-0.4027 0.081149-0.4027 0.6563 0 5.0337-2.2788 9.1367-4.7563 2.6634-1.6083 2.7047-1.621 2.8022-0.8614 0.05445 0.424 0.30208 0.93945 0.55029 1.1454 1.0696 0.88769 14.033 0.95266 23.671 0.11865l2.56-0.22154-2.4429 1.9929c-1.6139 1.3166-2.7421 2.5425-3.3245 3.6126-0.82472 1.5153-0.86988 1.7973-0.70058 4.3747 0.09953 1.5153 0.27663 3.001 0.39355 3.3016 0.15573 0.40043 0.01226 0.59319-0.53652 0.7208-1.5299 0.35578-12.073 0.68608-15.629 0.48962-3.8105-0.21055-4.48-0.0608-4.48 1.0022 0 0.33045-0.1203 0.60082-0.26733 0.60082-0.14703 0-2.8355-2.4948-5.9744-5.544zm9.7618-15.444c-0.616-0.072992-2.488-0.28138-4.16-0.4631-1.672-0.18171-4.696-0.70676-6.72-1.1668-2.024-0.46001-3.968-0.86311-4.32-0.89577-0.61664-0.057219-0.64314-0.32414-0.72601-7.313-0.047304-3.9895-0.033428-7.2537 0.030836-7.2537 0.064264 0 0.53497 0.2043 1.046 0.45401 1.145 0.55948 7.3929 1.9566 10.849 2.426 1.408 0.19122 6.016 0.42379 10.24 0.51681 6.4743 0.14258 7.9061 0.26199 9.12 0.7606 1.909 0.78411 8.2157 2.4221 11.12 2.8882l2.32 0.37228v3.8111c0 2.968-0.09466 3.8111-0.42788 3.8111-0.23533 0-1.8553 0.21788-3.6 0.48419-6.4909 0.99075-11.658 1.4541-17.572 1.5758-3.344 0.06879-6.584 0.06535-7.2-0.0076zm50.56-11.344c-1.848-0.31535-6.24-0.8053-9.76-1.0888-14.593-1.1753-17.218-1.5509-22.507-3.2217-2.9714-0.93867-3.9035-1.7915-4.1272-3.776-0.14575-1.2931-0.05364-1.5357 1.0445-2.7512 1.2746-1.4108 6.6093-5.1505 7.3473-5.1505 0.23973 0 1.4903 0.13835 2.779 0.30743 1.2887 0.16909 5.5112 0.53292 9.3832 0.8085 11.688 0.83188 18.433 2.0579 23.293 4.2337 3.3033 1.4788 4.3211 3.7759 2.7066 6.1088-0.91614 1.3238-5.6673 5.1942-6.3126 5.1423-0.2681-0.021568-1.9994-0.29725-3.8474-0.6126zm-57.448-9.5796c-3.7022-3.4012-8.8321-8.7156-8.6188-8.9289 0.080484-0.080483 0.14634-0.037571 0.14634 0.095363 0 0.29237 6.6991-3.2277 9.4547-4.9681 1.0859-0.68583 2.0669-1.247 2.1799-1.247s0.20542 0.35493 0.20542 0.78874c0 0.47183 0.26795 0.93214 0.66689 1.1456 0.36679 0.1963 2.9866 0.45336 5.8219 0.57126l5.155 0.21435 1.17 6.56c0.64349 3.608 1.0988 6.6879 1.0119 6.8442-0.08877 0.15958-3.0862 0.21394-6.8341 0.12396l-6.676-0.16028-0.24533 0.94677-0.24533 0.94676zm19.855-4.8595c-0.49263-2.0605-1.7651-9.8468-1.7663-10.808-0.0011-0.89324 0.28303-1.3723 1.5186-2.5607 2.9956-2.8811 8.7883-6.2364 17.082-9.8942 5.4038-2.3833 12.665-6.0071 15.546-7.759 1.1945-0.72619 3.5094-2.4023 5.1441-3.7248 1.6348-1.3224 3.0484-2.3284 3.1413-2.2355 0.39396 0.39396 2.1041 11.161 1.9039 11.987-0.11959 0.49298-1.1867 1.8264-2.405 3.0051-4.0583 3.9265-9.4698 7.072-21.133 12.284-7.5965 3.3945-11.761 5.6305-15.552 8.3507-3.1013 2.2251-3.2579 2.2861-3.4803 1.3559zm-12.648-13.385c-4.6276-0.31202-7.4482-0.73132-12.4-1.8434l-3.92-0.88036v-7.1545c0-6.6945 0.036005-7.1386 0.56-6.9077 0.308 0.13575 1.784 0.56733 3.28 0.95907 9.2558 2.4237 21.36 2.8535 35.31 1.2539 5.5409-0.63533 5.6496-0.63031 5.6496 0.26074 0 0.61911-0.60474 1.0262-3.92 2.6389-7.0077 3.4089-12.884 7.2597-15.354 10.061-1.3235 1.5014-1.432 1.5551-3.4465 1.7053-1.144 0.08528-3.736 0.0434-5.76-0.09307zm43.2-21.77c-2.1726-0.50699-9.2009-1.2711-16.16-1.7568-12.091-0.84399-20.043-2.621-21.469-4.7976-0.51946-0.79279-2.487-11.235-2.2388-11.882 0.12499-0.32571 0.53671-0.28391 1.932 0.19615 4.0945 1.4087 9.8319 2.3464 17.616 2.8789 14.499 0.99197 21.042 2.1578 26.347 4.6944 1.9272 0.92146 2.4306 1.3227 2.8158 2.2446 0.36072 0.86332 0.3908 1.3596 0.13028 2.149-0.55391 1.6784-6.0835 6.6406-7.3173 6.5665-0.29452-0.01768-1.0395-0.14976-1.6555-0.2935z" fill="#24b8bc"/>
  <path d="m85.44 125.74c-5.5486-2.073-11.84-3.1161-24-3.9787-9.9019-0.70248-17.161-1.9702-20.159-3.5207-2.4847-1.2849-2.9867-3.4492-1.2569-5.4192 1.3139-1.4964 7.0601-5.3581 8.0163-5.3873 0.41774-0.0127 2.7035 0.14632 5.0795 0.35347 2.376 0.20714 6.9756 0.59886 10.221 0.87047 7.59 0.63517 12.393 1.467 16.626 2.8793 3.8931 1.299 5.5344 2.2612 6.0615 3.5536 0.51906 1.2726 2.2662 11.106 2.0162 11.347-0.11286 0.10908-1.2852-0.20517-2.6052-0.69834zm-47.516-16.06c-0.34594-1.0145-1.7635-9.8762-1.7635-11.024 0-1.6116 0.63306-2.4401 3.4386-4.5001 3.6228-2.6601 7.9706-5.025 15.148-8.2395 11.527-5.1626 16.647-8.039 21.315-11.975 1.2657-1.0673 2.3745-1.8222 2.4639-1.6774 0.29558 0.47826 1.8449 9.4695 1.8708 10.857 0.0325 1.7414-0.82125 2.963-3.7628 5.3844-4.2992 3.5389-10.244 6.8354-20.388 11.305-7.5341 3.3198-12.566 6.1116-16.217 8.9974-1.7709 1.3998-1.9064 1.456-2.1053 0.87262zm-29.649-7.52c-4.4343-4.2752-7.1542-7.1057-7.1542-7.4448 0-0.14258 1.152-0.8652 2.56-1.6058 1.408-0.74063 3.884-2.1212 5.5022-3.068 1.6182-0.94675 3.0222-1.7214 3.12-1.7214 0.09778 0 0.17779 0.36356 0.17779 0.80792 0 1.3023 1.1028 1.4997 9.36 1.6754l7.6 0.1617v12.971l-3.9796 0.22953c-2.1888 0.12624-5.9688 0.17675-8.4 0.11222-4.3809-0.11626-4.4213-0.11088-4.5226 0.60269-0.05624 0.396-0.23574 0.72-0.39889 0.72-0.16315 0-1.9022-1.548-3.8646-3.44zm5.3258-17.57c-4.1674-0.49551-6.5284-0.88929-9.3707-1.5629-1.8099-0.42894-3.4659-0.7455-3.68-0.70347-0.2945 0.057814-0.41019-1.6956-0.47526-7.2036-0.051585-4.3663 0.033797-7.28 0.21333-7.28 0.16464 0 0.34734 0.14324 0.40601 0.31832 0.16176 0.48273 5.8514 1.8327 10.936 2.5948 3.3737 0.50565 6.2263 0.69027 11.17 0.72296l6.6398 0.0439 1.84e-4 6.4381 1.83e-4 6.4381-1.2 0.19835c-1.2322 0.20366-12.919 0.19996-14.64-0.0046zm52.96-11.002c-1.848-0.31535-6.24-0.8053-9.76-1.0888-14.593-1.1753-17.218-1.5509-22.507-3.2217-2.9714-0.93867-3.9035-1.7915-4.1272-3.776-0.14575-1.2931-0.05364-1.5357 1.0445-2.7512 1.2746-1.4108 6.6093-5.1505 7.3473-5.1505 0.23973 0 1.4903 0.13835 2.779 0.30743 1.2887 0.16909 5.5112 0.53292 9.3832 0.8085 11.688 0.83188 18.433 2.0579 23.293 4.2337 3.3033 1.4788 4.3211 3.7759 2.7066 6.1088-0.91614 1.3238-5.6673 5.1942-6.3126 5.1423-0.2681-0.021568-1.9994-0.29725-3.8474-0.6126zm-60.115-12.338c-3.017-2.9206-5.4854-5.4278-5.4854-5.5717 0-0.14387 1.5266-1.0768 3.3924-2.0732 1.8658-0.99637 4.3164-2.3771 5.4456-3.0683 1.1293-0.69119 2.1851-1.2567 2.3463-1.2567 0.16121 0 0.33867 0.39429 0.39436 0.87621 0.12406 1.0736 0.7316 1.2062 7.0613 1.5409 2.42 0.12799 4.4 0.28496 4.4 0.34883 0 0.06386 0.504 2.9537 1.12 6.4218 0.616 3.4681 1.12 6.3448 1.12 6.3926 0 0.04783-3.06 0.12582-6.8 0.17332-6.7785 0.08609-6.8003 0.08864-6.9023 0.80636-0.05624 0.396-0.2158 0.72-0.35458 0.72s-2.7208-2.3896-5.7377-5.3101zm22.522-2.1008c-0.49263-2.0605-1.7651-9.8468-1.7663-10.808-0.0011-0.89324 0.28303-1.3723 1.5186-2.5607 2.9956-2.8811 8.7883-6.2364 17.082-9.8942 5.4038-2.3833 12.665-6.0071 15.546-7.759 1.1945-0.72619 3.5094-2.4023 5.1441-3.7248 1.6348-1.3224 3.0484-2.3284 3.1413-2.2355 0.39396 0.39396 2.1041 11.161 1.9039 11.987-0.11959 0.49298-1.1867 1.8264-2.405 3.0051-4.0583 3.9265-9.4698 7.072-21.133 12.284-7.5965 3.3945-11.761 5.6305-15.552 8.3507-3.1013 2.2251-3.2579 2.2861-3.4803 1.3559zm-15.51-13.745c-3.4519-0.3064-7.688-1.0387-10.258-1.7732-0.968-0.27667-2.084-0.50472-2.48-0.50678l-0.72-0.003744v-7.16c0-3.938 0.049876-7.16 0.11084-7.16 0.06096 0 0.52896 0.2043 1.04 0.45401 1.4555 0.7112 7.921 2.0501 12.468 2.5821 2.2754 0.26617 6.766 0.48394 9.979 0.48394h5.842v7.8538l-2.3789 2.1546c-1.3084 1.185-2.4701 2.4419-2.5816 2.7931-0.18897 0.59538-0.46633 0.63559-4.1011 0.59456-2.1441-0.02419-5.2583-0.16471-6.9204-0.31225zm46.062-21.409c-2.1726-0.50699-9.2009-1.2711-16.16-1.7568-12.091-0.84399-20.043-2.621-21.469-4.7976-0.51946-0.79279-2.487-11.235-2.2388-11.882 0.12499-0.32571 0.53671-0.28391 1.932 0.19615 4.0945 1.4087 9.8319 2.3464 17.616 2.8789 14.499 0.99197 21.042 2.1578 26.347 4.6944 1.9272 0.92146 2.4306 1.3227 2.8158 2.2446 0.36072 0.86332 0.3908 1.3596 0.13028 2.149-0.55391 1.6784-6.0835 6.6406-7.3173 6.5665-0.29452-0.01768-1.0395-0.14976-1.6555-0.2935z" fill="#17b5b7"/>
  <path d="m85.44 125.74c-5.5486-2.073-11.84-3.1161-24-3.9787-9.9019-0.70248-17.161-1.9702-20.159-3.5207-2.4847-1.2849-2.9867-3.4492-1.2569-5.4192 1.3139-1.4964 7.0601-5.3581 8.0163-5.3873 0.41774-0.0127 2.7035 0.14632 5.0795 0.35347 2.376 0.20714 6.9756 0.59886 10.221 0.87047 7.59 0.63517 12.393 1.467 16.626 2.8793 3.8931 1.299 5.5344 2.2612 6.0615 3.5536 0.51906 1.2726 2.2662 11.106 2.0162 11.347-0.11286 0.10908-1.2852-0.20517-2.6052-0.69834zm-47.516-16.06c-0.34594-1.0145-1.7635-9.8762-1.7635-11.024 0-1.6116 0.63306-2.4401 3.4386-4.5001 3.6228-2.6601 7.9706-5.025 15.148-8.2395 11.527-5.1626 16.647-8.039 21.315-11.975 1.2657-1.0673 2.3745-1.8222 2.4639-1.6774 0.29558 0.47826 1.8449 9.4695 1.8708 10.857 0.0325 1.7414-0.82125 2.963-3.7628 5.3844-4.2992 3.5389-10.244 6.8354-20.388 11.305-7.5341 3.3198-12.566 6.1116-16.217 8.9974-1.7709 1.3998-1.9064 1.456-2.1053 0.87262zm-29.471-7.5127c-4.2429-3.9194-7.6666-7.3831-7.4741-7.5614 0.078146-0.072355 1.3661-0.74035 2.8621-1.4844s3.892-2.0568 5.3244-2.9172c1.4324-0.86038 2.6924-1.5643 2.8-1.5643 0.10756 0 0.19556 0.27037 0.19556 0.60082 0 0.94624 0.63046 1.248 3.12 1.4933l2.32 0.22859v13.095l-2.16-0.0642c-2.9396-0.0874-2.9463-0.0859-3.2383 0.70332-0.2378 0.64285-0.52693 0.44783-3.7497-2.5292zm2.428-18.035c-2.5263-0.32379-8.4552-1.5178-9.4898-1.9112-0.48723-0.18524-0.75021-0.16921-0.75021 0.045737 0 0.18203-0.144 0.24197-0.32 0.13319-0.33723-0.20842-0.47241-14.56-0.13714-14.56 0.10057 0 0.38558 0.20272 0.63335 0.4505 0.82196 0.82196 10.542 2.8122 15.344 3.1417l1.28 0.08783 0.08663 6.48 0.08663 6.48-2.3266-0.04058c-1.2797-0.022316-3.2626-0.16054-4.4066-0.30716zm55.68-10.544c-1.848-0.31535-6.24-0.8053-9.76-1.0888-14.593-1.1753-17.218-1.5509-22.507-3.2217-2.9714-0.93867-3.9035-1.7915-4.1272-3.776-0.14575-1.2931-0.05364-1.5357 1.0445-2.7512 1.2746-1.4108 6.6093-5.1505 7.3473-5.1505 0.23973 0 1.4903 0.13835 2.779 0.30743 1.2887 0.16909 5.5112 0.53292 9.3832 0.8085 11.688 0.83188 18.433 2.0579 23.293 4.2337 3.3033 1.4788 4.3211 3.7759 2.7066 6.1088-0.91614 1.3238-5.6673 5.1942-6.3126 5.1423-0.2681-0.021568-1.9994-0.29725-3.8474-0.6126zm-58.763-11.261c-2.2752-2.1601-4.747-4.5946-5.493-5.41l-1.3563-1.4825 3.284-1.6803c1.8062-0.92417 4.293-2.2953 5.5262-3.047l2.2423-1.3667 0.22643 0.8223c0.28926 1.0505 0.77287 1.3459 2.2136 1.352 0.638 0.0026 1.61 0.0949 2.16 0.2049l1 0.2v13.032l-2.4629-0.07597c-2.2778-0.07026-2.4907-0.02128-2.8332 0.65152-0.35737 0.70202-0.5151 0.59004-4.507-3.2zm21.171-3.1784c-0.49263-2.0605-1.7651-9.8468-1.7663-10.808-0.0011-0.89324 0.28303-1.3723 1.5186-2.5607 2.9956-2.8811 8.7883-6.2364 17.082-9.8942 5.4038-2.3833 12.665-6.0071 15.546-7.759 1.1945-0.72619 3.5094-2.4023 5.1441-3.7248 1.6348-1.3224 3.0484-2.3284 3.1413-2.2355 0.39396 0.39396 2.1041 11.161 1.9039 11.987-0.11959 0.49298-1.1867 1.8264-2.405 3.0051-4.0583 3.9265-9.4698 7.072-21.133 12.284-7.5965 3.3945-11.761 5.6305-15.552 8.3507-3.1013 2.2251-3.2579 2.2861-3.4803 1.3559zm-18.408-14.228c-1.848-0.24937-4.7897-0.79619-6.5371-1.2151-1.7474-0.41896-3.3674-0.68871-3.6-0.59945-0.3429 0.13158-0.42294-1.2068-0.42294-7.0719 0-4.6095 0.1161-7.2342 0.32-7.2342 0.176 0 0.32 0.12502 0.32 0.27783 0 0.61114 7.9074 2.3639 13.44 2.9791l3.5201 0.39142v12.992l-1.84-0.03291c-1.012-0.0181-3.352-0.23695-5.2-0.48632zm48.96-20.926c-2.1726-0.50699-9.2009-1.2711-16.16-1.7568-12.091-0.84399-20.043-2.621-21.469-4.7976-0.51946-0.79279-2.487-11.235-2.2388-11.882 0.12499-0.32571 0.53671-0.28391 1.932 0.19615 4.0945 1.4087 9.8319 2.3464 17.616 2.8789 14.499 0.99197 21.042 2.1578 26.347 4.6944 1.9272 0.92146 2.4306 1.3227 2.8158 2.2446 0.36072 0.86332 0.3908 1.3596 0.13028 2.149-0.55391 1.6784-6.0835 6.6406-7.3173 6.5665-0.29452-0.01768-1.0395-0.14976-1.6555-0.2935z" fill="#0bb2b1"/>
  <path d="m85.44 125.74c-5.5486-2.073-11.84-3.1161-24-3.9787-9.9019-0.70248-17.161-1.9702-20.159-3.5207-2.4847-1.2849-2.9867-3.4492-1.2569-5.4192 1.3139-1.4964 7.0601-5.3581 8.0163-5.3873 0.41774-0.0127 2.7035 0.14632 5.0795 0.35347 2.376 0.20714 6.9756 0.59886 10.221 0.87047 7.59 0.63517 12.393 1.467 16.626 2.8793 3.8931 1.299 5.5344 2.2612 6.0615 3.5536 0.51906 1.2726 2.2662 11.106 2.0162 11.347-0.11286 0.10908-1.2852-0.20517-2.6052-0.69834zm-47.516-16.06c-0.34594-1.0145-1.7635-9.8762-1.7635-11.024 0-1.6116 0.63306-2.4401 3.4386-4.5001 3.6228-2.6601 7.9706-5.025 15.148-8.2395 11.527-5.1626 16.647-8.039 21.315-11.975 1.2657-1.0673 2.3745-1.8222 2.4639-1.6774 0.29558 0.47826 1.8449 9.4695 1.8708 10.857 0.0325 1.7414-0.82125 2.963-3.7628 5.3844-4.2992 3.5389-10.244 6.8354-20.388 11.305-7.5341 3.3198-12.566 6.1116-16.217 8.9974-1.7709 1.3998-1.9064 1.456-2.1053 0.87262zm28.636-36.092c-1.848-0.31535-6.24-0.8053-9.76-1.0888-14.593-1.1753-17.218-1.5509-22.507-3.2217-2.9714-0.93867-3.9035-1.7915-4.1272-3.776-0.14575-1.2931-0.05364-1.5357 1.0445-2.7512 1.2746-1.4108 6.6093-5.1505 7.3473-5.1505 0.23973 0 1.4903 0.13835 2.779 0.30743 1.2887 0.16909 5.5112 0.53292 9.3832 0.8085 11.688 0.83188 18.433 2.0579 23.293 4.2337 3.3033 1.4788 4.3211 3.7759 2.7066 6.1088-0.91614 1.3238-5.6673 5.1942-6.3126 5.1423-0.2681-0.021568-1.9994-0.29725-3.8474-0.6126zm-37.592-14.439c-0.49263-2.0605-1.7651-9.8468-1.7663-10.808-0.0011-0.89324 0.28303-1.3723 1.5186-2.5607 2.9956-2.8811 8.7883-6.2364 17.082-9.8942 5.4038-2.3833 12.665-6.0071 15.546-7.759 1.1945-0.72619 3.5094-2.4023 5.1441-3.7248 1.6348-1.3224 3.0484-2.3284 3.1413-2.2355 0.39396 0.39396 2.1041 11.161 1.9039 11.987-0.11959 0.49298-1.1867 1.8264-2.405 3.0051-4.0583 3.9265-9.4698 7.072-21.133 12.284-7.5965 3.3945-11.761 5.6305-15.552 8.3507-3.1013 2.2251-3.2579 2.2861-3.4803 1.3559zm30.552-35.155c-2.1726-0.50699-9.2009-1.2711-16.16-1.7568-12.091-0.84399-20.043-2.621-21.469-4.7976-0.51946-0.79279-2.487-11.235-2.2388-11.882 0.12499-0.32571 0.53671-0.28391 1.932 0.19615 4.0945 1.4087 9.8319 2.3464 17.616 2.8789 14.499 0.99197 21.042 2.1578 26.347 4.6944 1.9272 0.92146 2.4306 1.3227 2.8158 2.2446 0.36072 0.86332 0.3908 1.3596 0.13028 2.149-0.55391 1.6784-6.0835 6.6406-7.3173 6.5665-0.29452-0.01768-1.0395-0.14976-1.6555-0.2935z" fill="#6e6e6f"/>
  <path d="m84.502 125.23c-5.3802-1.9346-11.104-2.8238-24.38-3.7869-7.2038-0.52265-10.517-0.99211-14.839-2.1024-3.7786-0.97074-5.2591-1.7697-5.8369-3.1501-0.44444-1.0616-0.43517-1.2434 0.11542-2.2638 0.68942-1.2777 3.3077-3.4713 6.2451-5.2322 1.7945-1.0758 2.2028-1.1973 3.4735-1.0336 0.792 0.10201 4.392 0.40063 8 0.66359 8.2248 0.59944 11.709 0.97832 16.16 1.7572 5.625 0.98433 11.166 3.066 12.135 4.5587 0.35247 0.54299 2.4247 10.415 2.4247 11.551 0 0.28679-0.11522 0.25513-3.4979-0.96122zm-46.549-16.354c-0.0976-0.484-0.55092-3.0223-1.0074-5.6407-0.94299-5.4093-0.87398-5.8938 1.0842-7.6131 3.1774-2.7898 8.8711-6.0162 16.834-9.539 10.089-4.4634 16.284-7.9024 20.729-11.506 2.6083-2.1147 2.8048-2.2169 2.9657-1.5427 0.41524 1.74 1.7583 9.7585 1.7595 10.505 0.0019 1.1498-1.3526 2.8118-4.1586 5.1027-4.0909 3.3399-9.3142 6.1948-20.48 11.194-6.6857 2.9933-10.782 5.2321-14.661 8.0129-1.4633 1.0491-2.7119 1.9075-2.7746 1.9075-0.06269 0-0.19383-0.396-0.29143-0.88zm30.047-35.296c-2.3616-0.48458-9.5422-1.2409-16.487-1.7365-8.6851-0.61984-13.848-1.494-18.002-3.0481-2.1936-0.82072-3.1112-1.8712-3.1112-3.5614 0-1.6256 1.4256-3.2153 5.0407-5.6207l2.7061-1.8006 3.8866 0.37301c2.1376 0.20516 6.0466 0.52083 8.6866 0.7015 9.6733 0.662 15.52 1.5843 20.48 3.2306 4.1065 1.363 5.4919 2.2432 5.9529 3.782 0.5445 1.8174-0.29155 3.2078-3.5213 5.8563-2.7676 2.2695-3.0358 2.3564-5.6316 1.8238zm-38.881-14.304c-3.2e-4 -0.132-0.42251-2.616-0.93819-5.52-0.90052-5.0712-0.91631-5.3241-0.3994-6.3957 1.2577-2.6073 7.7959-6.6527 18.684-11.561 11.312-5.0989 15.677-7.5433 20.414-11.433 1.32-1.0837 2.4819-1.9706 2.5821-1.9708 0.24382-5.12e-4 1.914 9.7879 1.905 11.165-6e-3 0.91972-0.36034 1.4321-2.3271 3.3651-1.276 1.2541-3.434 3.0245-4.7955 3.9341-2.7852 1.8608-11.409 6.2864-16.725 8.5824-6.7532 2.9171-11.115 5.2782-15.304 8.2837-2.3952 1.7185-3.0949 2.0687-3.0962 1.5497zm29.761-35.612c-1.7473-0.41583-9.412-1.2104-16.918-1.7539-7.2258-0.52316-11.967-1.2858-16.091-2.5887-3.9181-1.2377-3.9784-1.3247-5.0845-7.3254-0.87744-4.7603-1.107-6.56-0.83671-6.56 0.06045 0 0.91544 0.27715 1.9 0.61588 3.9581 1.3618 10.083 2.2934 19.11 2.9067 10.49 0.71269 16.53 1.649 21.627 3.3525 4.4346 1.4822 5.8934 2.6614 5.8934 4.7636 0 1.0567-1.1956 2.4997-4.0095 4.8392-2.6437 2.1979-3.1037 2.3419-5.5905 1.7501z" fill="#4c4d4e"/>
  <path d="m84.385 124.88c-5.38-1.8563-11.534-2.7834-24.888-3.749-10.326-0.74669-17.678-2.4179-19.343-4.3969-1.6511-1.9623-0.47975-3.6839 4.9135-7.2217l2.6679-1.7501 3.4121 0.34734c1.8766 0.19104 4.7801 0.43174 6.4521 0.53489 4.8384 0.29849 12.392 1.0897 15.499 1.6235 5.4133 0.92999 11.622 3.2677 12.365 4.6555 0.33409 0.62425 2.3279 10.873 2.1377 10.989-0.04485 0.0272-1.4922-0.43724-3.2164-1.0321zm-46.112-16.016c-0.49473-1.6851-1.8063-10.21-1.6603-10.792 0.6372-2.5388 7.6464-7.0023 18.587-11.836 9.7991-4.3297 16.29-7.9323 20.523-11.391 1.3164-1.0757 2.4447-1.9039 2.5073-1.8405 0.21868 0.22155 1.7701 9.4597 1.7701 10.54 0 0.93583-0.33426 1.4127-2.3617 3.3691-1.2989 1.2534-3.4949 3.0253-4.88 3.9375-2.9842 1.9653-10.073 5.6044-16.179 8.305-7.963 3.5222-12.576 6.0289-16.323 8.8701-1.5272 1.158-1.8493 1.2942-1.9832 0.838zm29.407-35.598c-2.3053-0.46876-9.7917-1.2484-16.64-1.7329-10.979-0.77674-18.909-2.6148-19.989-4.6332-0.18188-0.33986-0.3307-1.1264-0.3307-1.7478 0-1.5093 1.1862-2.8211 4.667-5.1611l2.7519-1.8501 4.5305 0.38074c2.4918 0.20941 7.1945 0.59614 10.451 0.8594 7.5418 0.60979 11.936 1.2398 15.36 2.2019 4.3789 1.2306 6.4902 2.1296 7.6 3.2361 1.9201 1.9143 1.3035 3.4458-2.7565 6.8462-2.4592 2.0597-2.8463 2.1695-5.6435 1.6007zm-38.526-15.746c-1.4886-7.5515-1.6722-9.1583-1.1596-10.15 0.61116-1.1818 2.8109-2.9507 6.5314-5.2522 3.4095-2.109 5.8167-3.3212 11.874-5.9791 9.8815-4.336 16.461-8.0331 20.957-11.775 1.0545-0.87776 1.946-1.5672 1.9811-1.5322 0.19869 0.19869 1.7016 9.3012 1.7016 10.306 0 1.5467-0.908 2.7358-4.0485 5.302-4.1378 3.3812-10.023 6.5913-20.468 11.164-2.4439 1.07-5.7886 2.664-7.4327 3.5421-3.0782 1.6442-8.4871 5.1455-8.846 5.7262-0.42768 0.69199-0.77156 0.26551-1.0905-1.3524zm29.419-34.19c-2.275-0.4459-9.63-1.1914-15.533-1.5744-11.54-0.74874-20.049-2.7329-20.966-4.8888-0.3061-0.71924-1.9135-9.5279-1.9135-10.486 0-0.46684 0.29185-0.43997 2.64 0.24309 4.1227 1.1993 9.1232 1.9424 16.743 2.4882 12.034 0.86198 17.474 1.6542 22.377 3.2586 4.787 1.5663 6.24 2.5974 6.24 4.4283 0 1.3202-1.2287 2.8211-4.3293 5.2883-2.1191 1.6862-2.5163 1.7801-5.2579 1.2428z" fill="#393b3c"/>
 </g>
</svg>
