<?xml version="1.0" encoding="UTF-8" standalone="no"?>
<!-- Created with Inkscape (http://www.inkscape.org/) -->

<svg
   xmlns:dc="http://purl.org/dc/elements/1.1/"
   xmlns:cc="http://creativecommons.org/ns#"
   xmlns:rdf="http://www.w3.org/1999/02/22-rdf-syntax-ns#"
   xmlns:svg="http://www.w3.org/2000/svg"
   xmlns="http://www.w3.org/2000/svg"
   xmlns:sodipodi="http://sodipodi.sourceforge.net/DTD/sodipodi-0.dtd"
   xmlns:inkscape="http://www.inkscape.org/namespaces/inkscape"
   version="1.1"
   id="svg14873"
   width="20"
   height="20"
   viewBox="0 0 20 20"
   sodipodi:docname="task_ensembleprepxyz_20x20.svg"
   inkscape:version="0.92.2 5c3e80d, 2017-08-06">
  <metadata
     id="metadata14879">
    <rdf:RDF>
      <cc:Work
         rdf:about="">
        <dc:format>image/svg+xml</dc:format>
        <dc:type
           rdf:resource="http://purl.org/dc/dcmitype/StillImage" />
        <dc:title></dc:title>
      </cc:Work>
    </rdf:RDF>
  </metadata>
  <defs
     id="defs14877" />
  <sodipodi:namedview
     pagecolor="#ffffff"
     bordercolor="#666666"
     borderopacity="1"
     objecttolerance="10"
     gridtolerance="10"
     guidetolerance="10"
     inkscape:pageopacity="0"
     inkscape:pageshadow="2"
     inkscape:window-width="1440"
     inkscape:window-height="851"
     id="namedview14875"
     showgrid="false"
     inkscape:zoom="17.240795"
     inkscape:cx="28.724137"
     inkscape:cy="5.905956"
     inkscape:window-x="0"
     inkscape:window-y="1"
     inkscape:window-maximized="1"
     inkscape:current-layer="svg14873"
     inkscape:pagecheckerboard="true" />
  <g
     id="g14883"
     transform="matrix(0.04744735,0,0,0.04766424,0.11563397,0.11786019)">
    <path
       style="fill:#cfcfcf;stroke-width:1.33333325"
       d="m 392.3103,416.26291 c -3.26309,-0.4905 -62.36563,-33.84333 -65.60439,-37.02197 -1.54052,-1.51192 -1.88557,-5.13727 -1.61002,-16.91597 0.32488,-13.88748 0.585,-15.20183 3.53186,-17.84551 3.7829,-3.39369 22.35271,-13.8128 24.61832,-13.8128 2.48514,0 61.60632,34.42155 63.57542,37.01489 2.36608,3.11618 2.48024,34.74219 0.1361,37.70407 -2.37674,3.00308 -14.4206,10.08457 -18.29093,10.75463 -1.83333,0.3174 -4.69369,0.3726 -6.35636,0.12266 z m -158.29038,-6.36402 c -5.85571,-3.3447 -10.92731,-6.36184 -11.27023,-6.70476 -1.19608,-1.19608 0.11253,-31.82312 1.42735,-33.40744 1.3475,-1.62366 58.87072,-34.92451 65.38366,-37.85136 3.21239,-1.44362 4.67252,-0.9941 14.92674,4.59549 16.18014,8.8198 17.18157,10.40527 16.62733,26.32476 -0.36898,10.59772 -0.91907,13.39128 -3.11478,15.8178 -2.7332,3.02049 -21.98269,14.71601 -47.99999,29.16361 -18.57304,10.31376 -21.26328,10.46792 -35.98008,2.0619 z M 57.89265,352.86771 c -0.379678,-0.98942 -0.510847,-5.93942 -0.291487,-11 l 0.398836,-9.20105 h 93.333331 93.33333 l 0.40816,7.94444 c 0.2245,4.36944 0.0631,9.31944 -0.35873,11 l -0.76689,3.05556 h -92.68312 c -76.551416,0 -92.80326,-0.31311 -93.37343,-1.79895 z m 250.8308,-18.18377 c -6.56876,-3.71515 -12.41461,-7.48887 -12.99079,-8.38604 -0.57617,-0.89719 -0.90173,-19.30256 -0.72346,-40.90084 l 0.32413,-39.26958 5.0058,-3.39708 c 2.7532,-1.86839 8.85125,-5.47139 13.55125,-8.00667 l 8.54544,-4.60959 10.30807,5.27626 c 5.66944,2.90194 12.02137,6.86698 14.11542,8.81121 l 3.80735,3.53495 -0.0204,38.46505 c -0.0107,21.15577 -0.46123,39.15624 -1,40.00104 -1.52691,2.39417 -21.52028,13.84436 -25.45616,14.5787 -2.56413,0.47842 -6.77512,-1.18168 -15.46664,-6.09741 z M 69.038286,326.72077 c -1.909652,-1.50214 -4.788384,-5.45024 -6.397182,-8.77358 -2.712262,-5.60278 -2.807377,-6.66625 -1.307281,-14.61646 0.889793,-4.71572 2.453147,-9.26732 3.47412,-10.11465 2.536505,-2.10511 7.742481,0.15877 14.408638,6.26577 l 5.194258,4.75857 3.297025,-4.21281 c 2.969392,-3.79419 22.845446,-14.69428 26.794646,-14.69428 0.78981,0 2.39294,1.46047 3.56253,3.24547 1.16958,1.78501 7.08428,6.78178 13.14377,11.10394 l 11.01727,7.85847 2.80858,-6.10393 c 1.54472,-3.35718 5.19764,-8.43059 8.1176,-11.27427 6.85242,-6.67339 10.08028,-5.98567 17.70054,3.77125 5.35964,6.86247 5.76278,7.11354 7.48165,4.65952 2.53983,-3.6261 6.75119,-3.26289 8.57481,0.73955 1.74604,3.83213 2.78144,4.11587 5.04903,1.38359 C 193.70452,298.61284 212.74112,288 214.76904,288 c 0.67702,0 1.23096,3.05737 1.23096,6.79417 0,4.77739 0.83602,7.96827 2.81644,10.74951 2.78586,3.91237 2.83736,3.92546 4.74228,1.20582 1.98653,-2.83618 8.93496,-3.85345 10.37754,-1.51929 0.41818,0.67661 1.35884,4.12661 2.09039,7.66667 0.73153,3.54005 1.68152,8.01722 2.11107,9.94927 0.76785,3.4537 0.66105,3.5129 -6.34503,3.51763 -8.96292,0.007 -15.18172,-3.07907 -22.13924,-10.98323 -5.03351,-5.71835 -5.38396,-5.89266 -6.14417,-3.05574 -0.44342,1.65468 -0.8144,5.87734 -0.82442,9.38369 -0.0245,8.59639 -2.65558,9.49657 -9.16848,3.13691 -2.72918,-2.66498 -5.32181,-4.84542 -5.76138,-4.84542 -0.43959,0 -1.17138,1.48268 -1.6262,3.29486 -0.9183,3.65878 -5.32562,6.632 -8.19736,5.53 -1.02311,-0.3926 -5.47299,-5.58639 -9.88862,-11.54175 -8.91502,-12.02369 -9.25685,-11.9816 -11.23333,1.38356 -1.33435,9.02291 -2.02805,9.63791 -9.46497,8.39109 -5.95542,-0.99844 -6.54786,-1.45736 -8.25798,-6.39693 -1.01326,-2.92673 -2.59082,-6.06987 -3.5057,-6.98474 -2.54769,-2.5477 -24.77833,-6.95851 -25.95011,-5.1488 -0.52447,0.81 -1.25594,5.07272 -1.62549,9.47271 -0.63296,7.53626 -0.86514,7.9881 -4.00524,7.79456 -4.838894,-0.29822 -18.747004,-5.45396 -21.546145,-7.98714 -2.77704,-2.51319 -3.433846,-1.51364 -4.06914,6.19258 -0.471563,5.72014 -4.166095,6.79563 -9.346429,2.72078 z M 65.775975,276.07325 C 59.020026,274.43373 50.404254,268.75478 43.540966,261.41737 33.029491,250.17976 33.018471,250.12488 31.741862,202.66666 c -0.621381,-23.1 -0.802717,-43.88389 -0.402968,-46.18641 0.495833,-2.85597 1.669779,-4.43919 3.693961,-4.9818 3.684235,-0.9876 114.399865,-0.78809 184.684125,0.3328 44.43358,0.70863 52.58759,1.13895 53.72739,2.83541 0.86019,1.2803 1.17432,18.07332 0.87296,46.66667 -0.39944,37.90024 -0.80447,45.42928 -2.67364,49.70089 -3.05264,6.97615 -14.1004,17.34524 -23.28664,21.85611 l -7.69039,3.77633 -85.33333,0.21583 C 108.4,277.00116 68.099188,276.63704 65.775975,276.07325 Z m 7.273388,-18.78069 c 1.461058,-2.33952 1.211642,-3.33567 -1.835459,-7.33063 C 64.6367,241.33877 64.12144,237.86102 64.058523,201.66666 L 63.999999,168 h -4.794552 -4.794553 l 0.491097,35.66666 c 0.538259,39.09178 1.039528,41.78668 9.672315,52 4.247438,5.02508 6.12704,5.38567 8.475057,1.6259 z m 210.379207,-75.3878 c -2.40467,-2.40467 -2.58861,-9.34967 -1.21013,-45.69056 0.66196,-17.45102 1.34853,-23.59069 2.8004,-25.04257 1.6257,-1.6257 10.38128,-1.86526 56.56069,-1.54754 52.31397,0.35992 54.71766,0.48596 56.52885,2.96408 1.42491,1.94961 1.89161,7.30346 1.89161,21.69967 v 19.11149 l -3.66666,1.43425 c -2.4464,0.95694 -17.08959,1.2493 -44,0.8785 L 312,155.1563 v 12.32662 C 312,183.44717 311.4868,184 296.66666,184 c -8.35209,0 -11.66761,-0.52476 -13.23809,-2.09524 z M 10.10909,174.55629 C 9.7543421,173.517 9.2846725,171.19126 9.0653801,169.38798 8.7938681,167.15532 7.6032335,165.86001 5.3333332,165.32788 L 2,164.54644 V 137.27322 110 l 10.163955,-0.38637 c 12.469709,-0.47402 11.793089,-2.03704 11.817838,27.29957 0.02057,24.38492 -0.773961,28.03049 -6.245915,28.65822 -3.045778,0.3494 -3.816404,1.16747 -4.171808,4.42858 -0.511593,4.69428 -2.508839,7.32816 -3.45498,4.55629 z m 24.264569,-31.62771 c -1.154996,-0.22261 -2.453376,-1.72261 -2.885286,-3.33333 -1.027068,-3.83023 -1.013656,-23.40979 0.01867,-27.26192 l 0.80397,-3 H 153.33333 c 114.14895,0 121.05535,0.13252 121.6038,2.33333 0.9946,3.99111 -0.86455,28.1347 -2.27047,29.48515 -1.19398,1.14687 -232.608673,2.87236 -238.293001,1.77677 z m 28.959673,-15.59525 c 0,-6.51852 -0.08889,-6.66667 -4,-6.66667 -3.679724,0 -4.033804,0.41158 -4.42218,5.14022 -0.597249,7.27177 0.417856,9.11381 4.747932,8.61574 3.463859,-0.39842 3.674248,-0.80436 3.674248,-7.08929 z M 92.44954,88.581639 c -1.005623,-2.620608 1.254039,-7.648567 6.301578,-14.021604 2.153552,-2.71908 3.915552,-5.877576 3.915552,-7.01888 0,-1.141304 -2.71866,-4.347612 -6.041458,-7.125128 -7.518345,-6.284557 -9.798457,-12.575601 -7.42684,-20.491352 2.823567,-9.424226 17.163838,-20.732049 20.154708,-15.892717 1.4203,2.298087 0.4255,4.765403 -4.89743,12.146677 -6.058312,8.401038 -5.752274,10.97727 2.21101,18.612399 5.50644,5.279521 6.66667,7.202077 6.66667,11.046985 0,6.726927 -1.58696,10.006009 -8.63804,17.848513 -6.302998,7.010448 -10.751623,8.788739 -12.24575,4.895107 z M 141.6,89.066665 c -3.56475,-3.564745 -1.02043,-10.285814 7.71421,-20.377913 2.94385,-3.401349 5.35245,-7.502332 5.35245,-9.113293 0,-1.862448 -3.17948,-5.990295 -8.73146,-11.335878 -4.80231,-4.623771 -9.30231,-9.908279 -10,-11.743351 -3.2818,-8.631776 0.0613,-18.623993 9.64876,-28.8388467 3.27417,-3.4884391 5.6572,-6.638439 5.29564,-6.9999999 C 150.51804,0.29582253 152.95802,0 156.30178,0 c 9.97199,0 9.7477,3.5065467 -1.12282,17.554061 -8.31654,10.747108 -7.99199,12.715549 4.15437,25.197088 8.97743,9.225156 9.997,10.802898 9.97072,15.429067 -0.0419,7.36081 -3.94027,14.592091 -13.02111,24.153116 -7.79693,8.209217 -11.5061,9.910175 -14.68294,6.733333 z m 46.36722,-0.439485 c -2.0582,-2.479988 -0.46021,-6.604187 5.45056,-14.067145 2.15355,-2.71908 3.91231,-5.757439 3.90835,-6.751908 -0.004,-0.994471 -2.98027,-4.676811 -6.61403,-8.182979 -7.67222,-7.402813 -9.31821,-12.664615 -6.25506,-19.995758 2.92652,-7.004153 12.54265,-16.962724 16.37944,-16.962724 5.25662,0 4.67614,4.868979 -1.62971,13.669753 -5.99641,8.368927 -5.86836,11.803843 0.63493,17.030031 2.84628,2.287328 6.25608,6.166124 7.57734,8.619545 3.29748,6.123045 1.20225,12.544705 -7.07552,21.685757 -6.57952,7.265699 -9.49134,8.431581 -12.3763,4.955428 z"
       id="path14897"
       inkscape:connector-curvature="0" />
    <path
       style="fill:#afafaf;stroke-width:1.33333325"
       d="m 393.33333,416.33058 c -3.22031,-1.05679 -63.09276,-35.205 -65.79151,-37.52412 -2.22655,-1.91335 -2.36972,-3.49575 -1.51935,-16.79277 0.51635,-8.0742 1.55907,-15.44611 2.31715,-16.38203 1.79565,-2.21689 22.74003,-13.63167 25.01205,-13.63167 1.94055,0 59.28612,32.53074 62.98166,35.72794 1.98854,1.72041 2.33333,4.46496 2.33333,18.57396 0,18.18784 0.19867,17.68081 -9.27007,23.65817 -7.67636,4.84587 -13.5776,7.18624 -16.06326,6.37052 z m -156,-5.77968 c -15.51496,-8.39605 -15.08171,-7.61504 -13.94585,-25.14032 l 0.96797,-14.93485 4.82227,-3.03476 c 13.38541,-8.42375 61.66506,-35.44098 63.33281,-35.44098 2.46985,0 20.57229,10.14444 24.48946,13.72366 2.7246,2.48954 3,3.95325 3,15.94466 0,12.63227 -0.15862,13.36099 -3.66666,16.84434 -6.36651,6.32168 -61.27733,37.49801 -65.9934,37.46858 -1.65363,-0.0107 -7.5066,-2.45396 -13.0066,-5.43033 z M 59.564674,352.45355 c -0.493904,-0.4939 -0.898008,-4.92802 -0.898008,-9.85361 0,-8.16019 0.266452,-9.027 3,-9.75956 1.65,-0.44219 42.335324,-0.81217 90.411824,-0.82219 68.78841,-0.0143 87.90744,0.3442 89.73805,1.68278 1.88156,1.37582 2.24886,3.35109 1.92151,10.33333 l -0.40472,8.63236 -91.43532,0.34245 c -50.28943,0.18835 -91.839431,-0.0617 -92.333336,-0.55556 z M 309.85088,334.27341 c -5.21536,-3.08371 -10.46536,-6.43022 -11.66667,-7.43667 C 296.25184,325.21781 296,320.48702 296,285.80737 v -39.19944 l 6.01889,-3.81707 c 3.31039,-2.09938 9.27605,-5.52241 13.25704,-7.60672 l 7.23814,-3.78965 6.22996,3.02675 c 3.42648,1.6647 9.46082,5.09349 13.40963,7.61952 l 7.17967,4.59278 v 39.28204 39.28204 l -4.33334,3.20048 c -7.6862,5.67683 -19.23752,11.60353 -22.49564,11.54197 -1.74406,-0.0329 -7.43813,-2.58294 -12.65347,-5.66666 z M 67.72222,323.70263 c -5.534912,-5.92514 -6.717836,-9.79102 -5.694342,-18.6095 1.200913,-10.34715 3.059594,-12.73744 8.236974,-10.59291 2.175668,0.9012 6.113401,3.73424 8.750517,6.29567 l 4.794755,4.65713 6.059849,-6.05984 c 3.332918,-3.33292 6.82564,-6.07861 7.761604,-6.10154 0.935965,-0.0229 4.701753,-1.51746 8.368423,-3.32115 8.30281,-4.08429 9.18163,-4.08475 11.85403,-0.007 1.18839,1.81372 6.61604,6.3041 12.06144,9.97862 5.44539,3.6745 10.27749,7.29056 10.73798,8.03565 1.59039,2.57331 3.05285,1.33827 3.92589,-3.31539 0.57046,-3.04078 3.33318,-7.30984 7.9188,-12.2364 6.66635,-7.16196 7.19462,-7.4599 9.88543,-5.57518 1.56351,1.09512 5.38369,5.11477 8.48932,8.93256 l 5.6466,6.94141 2.8378,-3.55893 c 3.01552,-3.78184 3.44008,-3.63352 7.84667,2.74118 1.71929,2.48719 1.95422,2.43066 6.92498,-1.66666 2.82992,-2.33267 5.76932,-4.2412 6.532,-4.2412 0.76268,0 3.59415,-1.5 6.29214,-3.33334 6.64997,-4.51877 7.71358,-4.23092 7.71358,2.08766 0,5.5459 1.45176,9.45962 5.0317,13.5647 1.9047,2.1841 2.20134,2.12591 5.09834,-1 4.83678,-5.21897 8.26988,-3.765 9.88232,4.1853 0.57586,2.83929 1.50255,7.20687 2.05934,9.70575 0.95421,4.28254 0.83485,4.497 -2.07858,3.73512 -1.7,-0.44456 -4.22593,-0.20085 -5.61317,0.54159 -1.94387,1.04032 -3.83989,0.57768 -8.26824,-2.01749 -5.75989,-3.37502 -14.11171,-11.76863 -14.11171,-14.18184 0,-0.70781 -0.9,-1.28693 -2,-1.28693 -1.58814,0 -2,1.93057 -2,9.37517 0,11.891 -1.98448,13.13412 -9.40292,5.89021 -5.38885,-5.26207 -5.98982,-5.29189 -8.46236,-0.41988 -0.80742,1.59101 -2.46776,3.51684 -3.68962,4.27964 -2.97923,1.85988 -5.04391,0.0133 -13.45974,-12.04073 -3.7445,-5.36309 -7.27493,-9.75108 -7.84538,-9.75108 -0.98451,0 -1.94016,3.16604 -4.62834,15.33333 -1.16021,5.25143 -1.26986,5.33333 -7.14056,5.33333 -5.84046,0 -6.00708,-0.12133 -8.1568,-5.94148 -2.73594,-7.40726 -5.6906,-9.39682 -16.95586,-11.41754 -4.9088,-0.88052 -9.77603,-1.83495 -10.81608,-2.12096 -2.78597,-0.76613 -5.40024,5.25048 -5.42268,12.47998 -0.0181,5.82047 -0.28321,6.33334 -3.2743,6.33334 -1.79005,0 -3.579854,-0.5262 -3.977335,-1.16934 -0.39748,-0.64314 -3.480704,-1.86382 -6.851608,-2.71262 -3.370904,-0.8488 -7.568013,-3.0961 -9.326908,-4.99398 l -3.197992,-3.45067 -1.362422,3.58343 c -0.749332,1.9709 -1.362423,5.34438 -1.362423,7.49664 0,5.40703 -4.364281,5.23259 -9.611112,-0.38416 z M 62.513427,274.1605 C 56.16606,271.89221 51.037769,268.1473 44.36371,260.90681 34.606183,250.32114 34.234981,248.9633 33.180642,220 c -1.698807,-46.66724 -1.459152,-64.77567 0.882991,-66.71948 1.662505,-1.37976 24.676101,-1.55319 118.395297,-0.89222 63.98241,0.45126 117.27023,1.18062 118.41735,1.6208 3.11065,1.19367 3.94729,20.59218 2.59124,60.08128 -0.93878,27.33746 -1.56303,34.22672 -3.42819,37.83356 -3.48256,6.73452 -13.19447,15.44574 -22.28377,19.98772 L 239.57408,276 153.4537,275.94146 C 86.567637,275.896 66.256844,275.49824 62.513427,274.16049 Z m 11.184964,-16.67564 c 1.987876,-3.3652 2.027821,-4.05224 0.318101,-5.47117 -1.075384,-0.89249 -3.484145,-4.74768 -5.352804,-8.56708 -3.295204,-6.73515 -3.423053,-7.99629 -4.243834,-41.86215 l -0.846275,-34.9178 H 59.120123 54.666666 V 201.758 c 0,27.07236 0.450169,36.60721 1.96996,41.7249 1.992101,6.70814 10.218972,17.85043 13.179794,17.85043 0.884744,0 2.631631,-1.73181 3.881971,-3.84847 z m 210.341349,-76.7703 c -2.43358,-2.9323 -1.40912,-64.79566 1.12351,-67.84478 1.64601,-1.98169 7.21517,-2.20312 55.41184,-2.20312 40.85045,0 54.08361,0.39602 55.69345,1.66667 1.67908,1.3253 2.2414,5.38351 2.74549,19.8136 0.34867,9.9808 0.0833,19.1308 -0.58964,20.33333 -1.09477,1.95626 -5.77789,2.1864 -44.49065,2.1864 h -43.26708 v 12.4 c 0,7.86667 -0.58494,12.98495 -1.6,14 -2.4257,2.42571 -22.96132,2.13679 -25.02692,-0.3521 z M 9.9999998,165.89781 C 9.2666665,165.71564 7.0042896,165.19957 4.9724955,164.75098 L 1.2783244,163.93538 1.6391622,136.96769 2,110 l 8.449747,-0.39998 c 5.081871,-0.24056 9.200501,0.22309 10.333333,1.16326 2.432333,2.01866 2.799164,51.18014 0.39299,52.66725 -1.982648,1.22533 -9.497311,2.88431 -11.1760702,2.46728 z m 23.6666662,-24.7196 c -2.248228,-2.30877 -2.304872,-28.00667 -0.06667,-30.24488 1.220387,-1.22039 29.652609,-1.6 119.836744,-1.6 101.77448,0 118.4606,0.26975 119.84463,1.93739 1.16671,1.4058 1.34675,5.62089 0.65612,15.36206 -0.52347,7.38356 -1.32355,13.6385 -1.77796,13.89984 -0.45441,0.26135 -53.9262,0.89863 -118.8262,1.41616 -95.266651,0.75971 -118.321092,0.61124 -119.666667,-0.77057 z M 63.730288,127 l 0.396958,-8.33334 h -4.730291 -4.730289 v 7.77778 c 0,8.84229 0.56428,9.83377 5.283434,9.28344 3.16933,-0.3696 3.40833,-0.92142 3.780188,-8.72788 z M 93.333332,86.454491 c 0,-1.583364 2.4,-6.05762 5.333333,-9.942792 C 101.6,72.626527 104,68.639044 104,67.650626 c 0,-0.988419 -3.3,-4.924956 -7.333335,-8.74786 -6.6434,-6.296796 -7.33269,-7.481608 -7.326502,-12.593417 0.0083,-6.799807 4.12207,-14.152606 10.586795,-18.922128 4.879532,-3.600007 7.410842,-4.204039 8.722672,-2.081444 0.98609,1.595525 -1.12654,5.775507 -6.17589,12.219428 -5.203986,6.64126 -4.955659,10.79024 0.9228,15.417951 2.60143,2.047931 5.98137,5.723679 7.51098,8.16833 2.40282,3.840229 2.58052,5.10976 1.30643,9.333333 -0.81107,2.688683 -4.23754,8.038513 -7.61438,11.888513 -6.506724,7.418453 -11.266238,9.159471 -11.266238,4.121159 z m 48.168388,0.5268 c -1.75507,-3.279356 0.8912,-8.801792 8.34904,-17.423499 C 153.23284,65.647912 156,61.190994 156,59.653527 156,57.973222 151.94736,52.693664 145.84052,46.418306 L 135.68105,35.978477 136.2496,28.11823 c 0.48329,-6.681385 1.3895,-8.947566 6.04229,-15.110137 3.01055,-3.9874403 6.39788,-8.1740583 7.52741,-9.3035955 1.12955,-1.1295371 1.68228,-2.4251324 1.22831,-2.87910069 C 150.59365,0.37142857 153.02222,0 156.44444,0 c 5.03894,0 6.22128,0.44373242 6.21724,2.3333333 -0.005,2.7259813 -3.16038,8.1367197 -9.86411,16.9190867 -6.87385,9.005253 -6.42195,11.342557 4.36125,22.556353 5.03736,5.238508 9.85188,10.862247 10.69894,12.497201 2.98465,5.760813 -0.87438,14.543117 -11.71922,26.670406 -7.78142,8.701624 -12.21921,10.522271 -14.63682,6.004911 z m 47.38717,1.463152 c -1.89433,-1.894324 -0.68673,-5.136551 4.44444,-11.932744 2.93333,-3.885172 5.33333,-7.785445 5.33333,-8.667273 0,-0.88183 -3.3,-5.063031 -7.33333,-9.29156 C 185.66029,52.60527 184,49.924585 184,46.712531 c 0,-5.826564 4.18168,-13.361781 10.66629,-19.220246 4.44761,-4.018148 5.89763,-4.684123 7.42989,-3.412456 2.66636,2.212879 2.5453,2.615908 -3.42634,11.406876 -2.93159,4.315645 -5.33159,9.067124 -5.33334,10.558841 -0.001,1.523603 3.21062,5.886083 7.33016,9.954453 10.23428,10.107152 10.06444,13.695747 -1.28234,27.095332 -4.89656,5.782405 -8.31824,7.526305 -10.49543,5.349112 z"
       id="path14895"
       inkscape:connector-curvature="0" />
    <path
       style="fill:#919191;stroke-width:1.33333325"
       d="m 236.66666,409.50655 -12,-6.45578 -0.37354,-15.28235 c -0.32423,-13.26488 -0.0603,-15.56251 2,-17.40463 4.70796,-4.20957 63.56292,-37.36298 66.26858,-37.32956 2.7955,0.0345 17.26948,7.62518 23.43829,12.2918 3.1667,2.39558 3.33334,3.1907 3.33334,15.9055 0,13.10768 -0.0825,13.46504 -4,17.31857 -4.47984,4.40673 -61.54323,37.42433 -64.66667,37.41696 -1.1,-0.003 -7.4,-2.90983 -14,-6.46051 z m 122.97459,-12.42698 -32.97459,-18.92043 v -14.98433 c 0,-11.72259 0.44752,-15.43186 2.05587,-17.0402 1.13072,-1.13072 7.15718,-4.8366 13.39214,-8.23528 l 11.3363,-6.17942 32.2745,18.54251 32.27452,18.54252 0.37434,17.08721 c 0.42464,19.3835 1.36424,17.48578 -12.59098,25.43024 -4.51916,2.57268 -9.3306,4.6776 -10.69209,4.6776 -1.36148,0 -17.31399,-8.51418 -35.45001,-18.92042 z M 59.275675,350.24497 c -0.426321,-1.6986 -0.587752,-6.0486 -0.358736,-9.66667 l 0.416393,-6.57831 91.248878,-0.34266 c 72.11668,-0.27082 91.47197,0.009 92.31292,1.33333 1.65569,2.60795 1.29051,14.95703 -0.49513,16.74267 -1.21298,1.21297 -23.46103,1.6 -91.9746,1.6 H 60.050804 Z M 309.52024,333.47954 c -6.13052,-3.55447 -11.67134,-7.29147 -12.31291,-8.30444 -0.64157,-1.01297 -1.17569,-18.74892 -1.18692,-39.4132 -0.0172,-31.67241 0.29425,-37.88609 1.98371,-39.57554 3.43669,-3.4367 21.50486,-12.85303 24.66254,-12.85303 3.99604,0 22.09856,10.07147 24.65005,13.71423 1.68162,2.40085 2.01662,8.98928 2.01662,39.66094 0,27.41256 -0.42455,37.31865 -1.66667,38.88932 -2.21197,2.79704 -22.38847,14.41009 -24.97212,14.37328 -1.11533,-0.0159 -7.04377,-2.93709 -13.1743,-6.49156 z M 67.36759,322.40007 c -4.916064,-5.68896 -4.949847,-5.80892 -4.35673,-15.47105 0.328763,-5.3557 1.241884,-10.38177 2.029158,-11.16904 2.275098,-2.2751 7.359573,-0.25142 13.955301,5.55438 l 6.106437,5.37509 2.851563,-4.61392 c 1.938846,-3.13712 5.283358,-5.72061 10.449121,-8.07148 4.17866,-1.90165 9.30361,-4.39755 11.38879,-5.54643 3.69705,-2.037 3.91234,-1.97241 8.66667,2.59984 2.68148,2.5788 9.37543,8.06207 14.87543,12.18503 l 10,7.49629 1.28512,-4.90724 c 1.35052,-5.157 13.06477,-19.16488 16.02685,-19.16488 1.71332,0 8.1882,6.7384 13.53584,14.08674 l 2.84783,3.91326 L 178.7285,301 c 2.1102,-4.55267 4.31686,-4.65556 7.14888,-0.33334 2.36184,3.60462 5.4395,4.37003 6.49644,1.61567 0.64574,-1.68276 18.39175,-11.61567 20.75243,-11.61567 0.65923,0 1.13796,2.31215 1.06387,5.13811 -0.0903,3.44279 0.95597,6.73929 3.1709,9.99089 3.7914,5.56588 5.304,5.9815 7.71556,2.11999 3.09935,-4.96285 7.17718,-2.82129 9.04666,4.75101 0.90524,3.66667 2.06781,8.01667 2.58349,9.66667 1.03636,3.31592 0.3444,3.65637 -3.38013,1.66306 -1.6699,-0.8937 -2.77204,-0.8937 -3.32438,0 -2.51105,4.06298 -16.15393,-3.78817 -21.61484,-12.43879 -3.19456,-5.06051 -3.50665,-5.23262 -5.22576,-2.8816 -1.05205,1.43877 -1.82829,5.78871 -1.82829,10.2455 0,6.71524 -0.33624,7.74516 -2.52855,7.74516 -1.39069,0 -4.39897,-2.13029 -6.68504,-4.734 -3.98732,-4.54129 -6.78641,-5.09193 -6.78641,-1.33503 0,0.97548 -1.15301,3.19007 -2.56224,4.92132 l -2.56224,3.14771 -4.13875,-3.949 c -2.2763,-2.17195 -6.63732,-7.72195 -9.69114,-12.33333 C 163.32513,307.77294 160.3871,304 159.85001,304 c -1.23133,0 -3.51296,6.98994 -4.61864,14.14946 -1.21029,7.83703 -1.942,8.55879 -7.72539,7.62027 -3.85432,-0.62547 -5.34837,-1.643 -6.30602,-4.29471 -2.66856,-7.38917 -4.47132,-9.47826 -9.7423,-11.28962 -8.49707,-2.92002 -21.20157,-4.97483 -22.53208,-3.64432 -0.65111,0.6511 -1.61425,4.83425 -2.14032,9.29587 -0.52607,4.46163 -1.38642,8.54198 -1.9119,9.06746 -0.52547,0.52548 -2.58695,0.007 -4.58105,-1.15388 -1.994105,-1.16012 -5.590018,-2.5294 -7.990918,-3.04287 -2.4009,-0.51347 -6.17624,-2.45741 -8.389645,-4.31987 -2.213407,-1.86245 -4.424251,-2.98641 -4.91299,-2.49766 -0.488738,0.48873 -1.213397,3.70654 -1.610353,7.15069 -0.960389,8.33272 -3.676408,8.70113 -10.020814,1.35925 z M 89.156929,274.80777 61.647194,274 54.120495,268.81253 c -4.139684,-2.85311 -9.318808,-7.45019 -11.509164,-10.21573 -8.152937,-10.29392 -8.278196,-11.13478 -8.988896,-60.3422 l -0.651069,-45.07872 118.896754,0.41205 c 103.86793,0.35999 119.07166,0.66487 120.28048,2.41207 1.85825,2.68588 0.45074,85.41737 -1.57439,92.54004 -2.00897,7.06586 -13.76937,18.6202 -23.54988,23.13721 l -7.691,3.552 L 178,275.42241 c -33.73334,0.10627 -73.71272,-0.17036 -88.843071,-0.61464 z M 75.381493,255.84825 c 0.504587,-1.58981 -0.644393,-4.25276 -3.232054,-7.49081 -2.208229,-2.76327 -4.630552,-7.72411 -5.38294,-11.02411 -0.752388,-3.3 -1.382645,-20.50957 -1.400572,-38.24348 -0.03177,-31.43261 -0.10208,-32.26553 -2.795491,-33.1204 -1.519592,-0.48229 -4.26881,-0.49895 -6.109374,-0.0369 l -3.346479,0.8399 0.46768,36.94715 c 0.452649,35.75973 0.569841,37.15459 3.646479,43.4016 1.748338,3.54996 5.191714,8.58877 7.651945,11.19737 4.331688,4.59294 4.556076,4.66787 7.095523,2.36971 1.442307,-1.30528 2.974685,-3.48325 3.405283,-4.83995 z M 284.02041,148.33333 c 0.012,-18.62073 0.57484,-33.87147 1.29279,-35 1.10124,-1.73102 8.56517,-1.96618 55.49771,-1.74852 35.12446,0.16289 54.7096,0.73571 55.60004,1.62615 0.80486,0.80486 1.4191,9.26706 1.48186,20.41518 l 0.10718,19.04052 -43.26628,0.35216 c -32.57618,0.26515 -43.52487,0.7593 -44.3129,2 -0.57565,0.90631 -1.05584,7.19784 -1.06707,13.98118 l -0.0204,12.33333 H 296.66666 284 l 0.0204,-33 z M 5.6666666,164.36406 1.3333333,163.83104 v -26.58219 -26.58219 h 9.9999997 10 v 25.92131 c 0,14.25672 -0.45,26.17792 -1,26.49155 -1.888996,1.07718 -10.3371656,1.81709 -14.6666664,1.28454 z M 33.333333,126 v -15.33334 h 119.999997 120 v 12.75433 c 0,7.01487 -0.62111,13.91487 -1.38024,15.33333 -1.34873,2.52012 -4.08873,2.57901 -120,2.57901 H 33.333333 Z m 31.333333,1.33333 v -8 h -5.333334 -5.333333 l -0.413083,6.49725 c -0.585712,9.21247 0.145411,10.40718 6.069034,9.9172 l 5.010716,-0.41445 z M 94.222221,88.444443 C 92.478911,86.701132 93.405303,84.385152 98.666665,77.333332 101.6,73.401777 104,69.26228 104,68.134452 c 0,-1.127829 -3.05,-5.138962 -6.777779,-8.913629 -6.137424,-6.21462 -6.777778,-7.432757 -6.777778,-12.893274 0,-7.189856 2.629517,-12.750327 8.276633,-17.502061 C 103.23565,25.026729 108,24.208128 108,27.231205 c 0,1.043829 -2.03361,4.562045 -4.51914,7.818258 -7.319027,9.588452 -7.271664,10.417591 1.11628,19.541577 10.41144,11.325047 10.00759,16.575343 -2.28777,29.742292 -4.621596,4.949207 -6.363536,5.834724 -8.087149,4.111111 z m 48.458819,-1.093796 c -2.42967,-2.927564 -0.74494,-7.478587 5.3185,-14.367008 7.23648,-8.221077 9.52686,-12.798192 7.91308,-15.813565 -0.69978,-1.307563 -4.5173,-5.446339 -8.48337,-9.19728 -14.23157,-13.459629 -14.73197,-21.465488 -2.36311,-37.807019 7.11836,-9.40466064 7.92688,-10.04561938 12.74507,-10.10372916 4.94965,-0.05969541 5.11065,0.07685526 4.24985,3.60462076 -0.49209,2.0166666 -3.58682,7.1557114 -6.8772,11.4200994 -10.5839,13.716919 -10.45277,15.772922 1.70427,26.721119 11.46901,10.328578 13.16733,15.534167 8.45525,25.916522 -2.77948,6.124174 -16.66921,21.608925 -19.38309,21.608925 -0.89857,0 -2.37424,-0.892208 -3.27925,-1.982685 z m 47.02314,0.486878 c -1.92096,-1.92097 -0.9376,-4.457672 4.53398,-11.695929 2.43568,-3.222122 4.4285,-6.94355 4.4285,-8.269841 0,-1.326292 -3,-5.411439 -6.66666,-9.078105 -5.95744,-5.95744 -6.66667,-7.283955 -6.66667,-12.469117 C 185.33333,37.578269 194.83984,24 200.96334,24 c 2.8633,0 1.90579,4.653742 -2.09342,10.174483 -8.44255,11.654592 -8.44023,11.677058 2.35405,22.821093 7.35917,7.597616 8.07133,10.394568 4.3868,17.228611 -2.49981,4.636638 -11.78617,15.109145 -13.39785,15.109145 -0.55711,0 -1.68603,-0.673113 -2.50874,-1.495807 z"
       id="path14893"
       inkscape:connector-curvature="0" />
    <path
       style="fill:#6e6e6e;stroke-width:1.33333325"
       d="m 361.24183,397.36306 c -17.91634,-10.25031 -33.12013,-19.46791 -33.78618,-20.48356 -0.72582,-1.10676 -0.72582,-7.66291 0,-16.36308 l 1.21101,-14.51643 11.33333,-6.32624 c 6.23334,-3.47942 12.15182,-6.32942 13.15216,-6.33333 1.00036,-0.004 16.15036,8.16917 33.66667,18.16237 l 31.84784,18.16948 -0.004,16.83052 -0.004,16.83054 -11.06441,6.33333 c -6.08543,3.48333 -11.67464,6.33333 -12.42047,6.33333 -0.74583,0 -16.01488,-8.38661 -33.93124,-18.63693 z m -125.9085,10.87256 c -10.60897,-6.30101 -10.66863,-6.36745 -11.02831,-12.28545 -0.1989,-3.2726 0.10107,-10.3662 0.66667,-15.76355 L 226,370.37323 258,351.89066 c 17.6,-10.16541 33.09532,-18.49939 34.43404,-18.51995 2.46252,-0.0379 19.6017,9.30092 23.89929,13.02216 1.92876,1.67011 2.33333,4.30696 2.33333,15.20771 0,11.97363 -0.28156,13.46884 -3.05927,16.24655 -6.54475,6.54477 -60.83498,36.83714 -65.90243,36.77165 -2.03774,-0.0263 -8.50496,-2.89875 -14.37163,-6.38316 z M 61.597542,352.1915 c -1.205406,-0.76457 -1.612816,-3.71207 -1.333334,-9.64625 l 0.402458,-8.54526 H 151.33333 242 l 0.40245,8.54526 c 0.27949,5.93418 -0.12787,8.88168 -1.33333,9.64625 -2.26831,1.43877 -177.203264,1.43877 -179.471578,0 z M 308.66666,332.2519 298,325.84558 v -39.91364 -39.91365 l 11.33333,-6.33539 c 6.23333,-3.48446 12.23333,-6.33538 13.33333,-6.33538 1.1,0 7.1,2.85092 13.33333,6.33538 l 11.33334,6.33539 v 39.99085 39.99085 l -10.66667,6.32814 c -5.86667,3.48048 -12.16667,6.32858 -14,6.32912 -1.83333,5.3e-4 -8.13333,-2.88188 -14,-6.40535 z M 67.488482,321.32949 c -3.757256,-4.15884 -4.814794,-6.44023 -4.790007,-10.33333 0.03285,-5.16075 1.88218,-14.68794 3.084452,-15.8902 1.490281,-1.49028 6.991788,1.51184 12.902878,7.04097 l 6.222112,5.82005 3.212707,-4.94138 c 1.766989,-2.71776 4.712708,-5.6977 6.546041,-6.62207 C 101.08938,293.16514 112.93355,288 113.93676,288 c 0.55703,0 2.20487,1.51549 3.66186,3.36776 1.457,1.85226 6.34335,5.83808 10.85856,8.85736 4.51522,3.01928 9.51507,6.66665 11.11078,8.10526 3.40061,3.06583 5.76537,2.12682 5.76537,-2.28934 0,-2.99992 7.62611,-13.9004 12.58243,-17.98488 2.14186,-1.76511 2.93021,-1.33599 8.57325,4.66666 3.41796,3.63578 7.17029,8.09683 8.33851,9.91344 l 2.12402,3.30292 2.35447,-4.55301 2.35445,-4.55303 3.6758,4.50379 3.6758,4.50377 4.35932,-3.66812 c 2.39763,-2.01746 7.86991,-5.44026 12.16063,-7.60621 l 7.80132,-3.93809 v 4.77352 c 0,5.26838 1.59793,9.05896 5.73237,13.5982 3.33763,3.66441 4.5131,3.76089 5.56187,0.4565 1.00443,-3.16468 4.49916,-4.62116 6.70185,-2.79308 0.91195,0.75684 2.00463,3.6172 2.42818,6.35634 0.42354,2.73913 1.1892,6.39854 1.70145,8.13203 0.82399,2.78846 0.59405,3.04476 -1.99449,2.22319 -1.64255,-0.52133 -3.73302,-0.25876 -4.7661,0.59863 -1.40006,1.16194 -2.7817,1.04041 -5.77618,-0.5081 -5.92891,-3.06596 -12.11234,-8.6542 -14.33775,-12.95767 -2.18133,-4.21824 -5.17861,-5.02416 -6.44188,-1.73212 -0.44513,1.15997 -0.80932,5.32455 -0.80932,9.25463 0,3.93008 -0.65596,7.551 -1.45771,8.04651 -0.80173,0.49549 -4.059,-1.65208 -7.23837,-4.7724 l -5.78068,-5.67332 -2.03475,4.86984 c -2.27716,5.45001 -5.24649,7.24633 -8.08464,4.89087 -1.04254,-0.86523 -5.05704,-6.30447 -8.92109,-12.08717 -8.98201,-13.44194 -9.34493,-13.20576 -13.92639,9.06253 -0.52085,2.53164 -1.34402,2.96004 -4.97254,2.5878 -5.87742,-0.60296 -7.2278,-1.63207 -8.25028,-6.28739 -1.55899,-7.098 -7.44476,-9.9463 -26.23323,-12.69509 l -6.23301,-0.91189 -1.42622,5.13634 c -0.78442,2.82499 -1.42956,7.08635 -1.43365,9.46968 -0.008,4.89981 -1.6416,5.40823 -7.521696,2.34155 -2.100492,-1.09548 -4.848198,-1.99548 -6.106014,-2 -1.257816,-0.004 -4.457196,-1.91372 -7.109733,-4.24268 -5.542599,-4.86647 -6.628372,-4.16037 -8.049147,5.23446 -0.490351,3.24244 -1.581433,5.66667 -2.550423,5.66667 -0.931402,0 -3.863275,-2.40173 -6.515275,-5.33717 z m -3.80309,-47.99044 C 57.880559,271.59118 51.415201,267.11028 45.608106,260.81032 35.851214,250.22534 35.629619,249.34068 34.383901,216 33.767406,199.5 33.428825,178.8 33.631499,170 l 0.3685,-16 74.666661,-0.31794 c 41.06667,-0.17485 94.46667,0.1252 118.66667,0.66667 l 44,0.9846 1.09383,10 c 1.72002,15.72485 -0.90935,81.15315 -3.45948,86.08459 -3.11371,6.02124 -14.77882,16.30637 -22.65111,19.97149 l -6.98324,3.2512 -86,-0.1016 c -47.3,-0.0559 -87.641571,-0.59587 -89.647938,-1.19999 z m 10.760657,-14.94925 2.70792,-4.27687 -4.479385,-6.10215 c -2.463662,-3.35617 -4.898785,-7.77316 -5.411382,-9.8155 -0.512598,-2.04236 -1.306518,-19.1218 -1.764267,-37.95434 L 64.666666,166 h -5.333334 -5.333333 l -0.355955,35.24764 c -0.412213,40.81841 0.312011,45.2068 9.110068,55.20192 3.009886,3.41941 6.262606,6.2171 7.228267,6.2171 0.965663,0 2.974313,-1.92458 4.46367,-4.27686 z M 284.53645,179.47481 c -1.14456,-2.98269 -0.0255,-63.9009 1.20891,-65.80815 0.83384,-1.28836 13.24217,-1.66203 54.66666,-1.64624 29.47339,0.0112 54.24777,0.46122 55.0542,1 1.71177,1.14364 3.58107,36.20632 2.06135,38.66528 -0.73682,1.1922 -12.22239,1.70136 -44.2613,1.96214 L 310,154 l -0.66667,13.33333 -0.66667,13.33333 -11.68846,0.38556 c -9.31574,0.3073 -11.84139,-0.0133 -12.44175,-1.57741 z M 1.3333333,137.27492 V 110.54984 L 11,110.94158 l 9.666666,0.39175 0.363622,25.23592 c 0.278057,19.29764 -0.03569,25.48936 -1.333334,26.31292 -0.933325,0.59235 -5.446954,1.08619 -10.0302875,1.09741 L 1.3333333,164 Z m 32.6484757,2.4918 c -0.412936,-1.0761 -0.577772,-7.91383 -0.366302,-15.19496 l 0.384492,-13.23843 H 153.33333 272.66666 l -0.31077,13.2441 c -0.17092,7.28426 -0.77092,13.68751 -1.33333,14.22945 -0.5624,0.54194 -53.95772,1.41982 -118.65626,1.95086 -102.780778,0.8436 -117.728497,0.71847 -118.384491,-0.99102 z M 63.73579,136.1915 c 1.205405,-0.76457 1.612816,-3.71206 1.333333,-9.64625 L 64.666666,118 h -5.333334 -5.333333 l -0.402457,8.54525 c -0.422692,8.97489 0.52321,10.74724 5.73579,10.74724 1.466667,0 3.447772,-0.49544 4.402458,-1.10099 z M 94.666665,85.897523 c 0,-1.156362 2.4,-5.454036 5.333333,-9.550388 2.933332,-4.096353 5.333332,-8.120735 5.333332,-8.943072 0,-0.822337 -3.3,-4.754165 -7.333332,-8.737397 -6.354327,-6.275396 -7.333333,-7.924663 -7.333333,-12.354 0,-2.811468 0.869351,-6.792897 1.93189,-8.847621 1.955114,-3.780776 10.600145,-12.131712 12.558945,-12.131712 3.79024,0 2.40853,4.105355 -4.02882,11.970458 -5.543107,6.772523 -4.953418,9.90766 3.53799,18.810008 C 108.7,60.342327 112,64.765847 112,65.94384 c 0,3.799332 -3.56397,10.579769 -8.61473,16.389492 -5.04495,5.803031 -8.718605,7.304832 -8.718605,3.564191 z m 47.618945,0.365984 c -1.06569,-2.777158 2.27461,-9.048128 8.89848,-16.705715 3.38208,-3.90988 6.14924,-8.366798 6.14924,-9.904265 0,-1.676404 -4.00297,-6.908829 -10,-13.071344 -9.99989,-10.275849 -10,-10.276026 -10,-17.648722 0,-6.874511 0.4956,-8.026933 7.33333,-17.052433 C 148.7,6.5572139 152,1.7060588 152,1.100683 152,0.49530737 154.44042,0 157.42318,0 c 5.01114,0 5.35242,0.22793621 4.49174,3 -0.9709,3.1270818 -3.51676,7.051588 -10.87808,16.768794 -6.41396,8.466668 -5.8741,10.95145 4.78865,22.039979 11.85855,12.332079 12.62929,13.87093 10.72839,21.420085 -1.87826,7.459229 -16.36524,24.753251 -20.74456,24.764077 -1.57155,0.0039 -3.15722,-0.774358 -3.52371,-1.729428 z m 47.04772,-0.475683 c 0,-1.216697 2.4,-5.390953 5.33333,-9.276125 C 197.6,72.626527 200,68.726254 200,67.844426 c 0,-0.88183 -3.3,-5.063031 -7.33334,-9.29156 -8.29082,-8.692064 -9.13832,-12.454369 -4.74521,-21.065557 4.27173,-8.373299 14.74521,-16.131099 14.74521,-10.921915 0,0.591076 -2.39857,4.605666 -5.33016,8.921311 -2.93158,4.315645 -5.33158,9.067124 -5.33333,10.558841 -0.001,1.523603 3.21061,5.886083 7.33016,9.954453 10.1178,9.992112 9.99767,13.992595 -0.79457,26.460842 -4.92798,5.693288 -9.20543,7.239223 -9.20543,3.326983 z"
       id="path14891"
       inkscape:connector-curvature="0" />
    <path
       style="fill:#515151;stroke-width:1.33333325"
       d="m 363.2295,397.87258 c -17.54289,-9.96589 -32.84256,-19.11419 -33.99925,-20.32953 -1.75044,-1.83922 -1.974,-4.54748 -1.33334,-16.15211 l 0.76975,-13.9424 5.32904,-3.61233 c 2.93096,-1.98679 8.51064,-5.22334 12.39927,-7.19232 l 7.07022,-3.57999 32.54823,18.46805 32.54823,18.46804 0.0421,16.66667 c 0.0404,15.96859 -0.0831,16.72716 -2.94749,18.111 -1.64428,0.79437 -6.93632,3.64267 -11.7601,6.32953 l -8.77048,4.8852 z m -126.56284,10.58245 c -5.86666,-3.3899 -10.95176,-6.41416 -11.3002,-6.72056 -0.34844,-0.30641 -0.46966,-6.97201 -0.26937,-14.81245 0.31653,-12.39107 0.71611,-14.55424 3.05532,-16.54071 3.34351,-2.83933 63.06424,-37.04834 64.67519,-37.04701 1.83385,0.001 23.61761,13.23409 24.76895,15.04595 0.5661,0.89085 1.03847,6.86028 1.0497,13.26537 0.0191,10.85503 -0.22852,11.91849 -3.64626,15.66481 -4.3817,4.80298 -61.02357,37.36666 -64.93619,37.33215 -1.50176,-0.0133 -7.53047,-2.79764 -13.39714,-6.18755 z M 60.54865,350.17325 c -0.389483,-1.01498 -0.522263,-4.76918 -0.295067,-8.34267 l 0.413083,-6.49725 H 151.33333 242 v 8 8 l -90.3716,0.34266 c -75.965528,0.28804 -90.484485,0.0485 -91.07975,-1.50274 z M 310,332.43398 c -5.86667,-3.40148 -11.10748,-6.84064 -11.64626,-7.64257 -0.53877,-0.80195 -0.98877,-18.31509 -1,-38.91809 -0.0235,-42.99504 -1.55661,-38.16691 14.97527,-47.15843 l 10.32902,-5.61785 10.33764,5.56378 c 16.50231,8.88164 15.00432,4.1443 15.00432,47.45059 0,31.76606 -0.31536,38.01346 -2.00412,39.70222 -2.77137,2.77138 -21.24361,12.85846 -23.49336,12.82895 -1.00972,-0.0133 -6.63585,-2.80712 -12.50251,-6.2086 z M 68.654032,322.40849 c -5.343394,-6.35027 -6.240413,-9.77073 -4.71971,-17.99697 0.735349,-3.97787 1.694842,-7.8115 2.132208,-8.51918 1.079133,-1.74606 10.810619,3.85168 14.67435,8.44099 3.085977,3.66551 5.925785,4.80593 5.925785,2.37973 0,-3.01005 8.423395,-10.51077 14.301855,-12.73526 3.50065,-1.32471 7.79259,-3.3316 9.53766,-4.45978 2.97522,-1.92346 3.35102,-1.84408 6.03351,1.2745 1.57336,1.82914 7.43525,6.70878 13.0264,10.84364 5.59116,4.13485 10.56149,8.15825 11.04519,8.94088 1.88838,3.05546 4.41105,1.23649 5.20942,-3.7563 C 146.69466,301.35526 157.24336,288 160.68633,288 c 2.00093,0 10.85379,9.7607 13.00017,14.33333 1.84606,3.93281 4.18564,3.80435 6.0709,-0.33333 0.83532,-1.83334 2.03024,-3.33334 2.65537,-3.33334 0.62513,0 1.93939,1.5 2.92056,3.33334 2.17976,4.07292 5.41249,4.26441 8.79335,0.52088 C 196.30432,300.10964 210.56588,292 212.62864,292 c 0.38758,0 0.70469,2.17917 0.70469,4.84262 0,5.33659 4.14167,13.09246 8.13177,15.2279 2.13455,1.14237 2.77415,0.80713 3.84783,-2.01687 1.79676,-4.72584 6.39869,-4.55155 7.38425,0.27968 0.4114,2.01667 1.28512,5.67678 1.94162,8.1336 1.10926,4.15129 0.99245,4.41432 -1.65322,3.72246 -1.56576,-0.40945 -3.6275,-0.0965 -4.58166,0.69534 -3.63724,3.01862 -17.57115,-6.76731 -20.46194,-14.37064 -2.88386,-7.58515 -7.91684,-0.088 -7.93454,11.81924 -0.009,6.45105 -2.67382,6.57056 -7.43118,0.33333 -4.47224,-5.86341 -6.63133,-5.89323 -8.53736,-0.11787 -1.9864,6.01887 -4.354,6.683 -8.37993,2.35066 -4.10864,-4.42139 -12.99231,-17.44641 -12.99231,-19.04907 0,-1.58429 -3.6369,-1.51656 -4.62746,0.0861 -0.43166,0.69844 -1.86114,5.64844 -3.1766,10.99999 -1.33938,5.44882 -3.08203,9.67144 -3.96052,9.59678 -0.86282,-0.0733 -2.98723,-0.22334 -4.72094,-0.33334 -2.4375,-0.15465 -3.67417,-1.5668 -5.45445,-6.2284 -1.47576,-3.8642 -3.63091,-6.71545 -6.00321,-7.94222 -3.29738,-1.70513 -16.33413,-4.58481 -23.32302,-5.15181 -3.41098,-0.27672 -6.02243,4.92408 -6.04747,12.04374 -0.0207,5.88431 -1.72178,8.19429 -4.4114,5.99051 -0.88454,-0.72476 -4.227229,-2.01812 -7.428194,-2.87411 -3.200965,-0.856 -7.278237,-3.01467 -9.060607,-4.79704 C 82.670421,313.4583 80.624543,312 79.906392,312 c -1.754935,0 -3.906393,5.9225 -3.906393,10.75346 0,5.18944 -2.799692,5.05797 -7.345967,-0.34497 z m -3.006574,-49.0282 C 56.648847,271.20668 43.47405,259.9529 38.276149,250 c -2.584916,-4.94959 -2.859504,-8.44007 -3.816195,-48.51046 -0.72416,-30.33102 -0.600575,-43.98112 0.415385,-45.87945 1.441595,-2.69364 1.819884,-2.69931 117.558761,-1.75932 84.73156,0.68817 116.61495,1.36001 117.97155,2.48589 1.53833,1.2767 1.77747,9.02884 1.38623,44.93643 -0.46066,42.27716 -0.55284,43.55643 -3.58291,49.72335 -3.53311,7.19073 -11.12416,14.26533 -20.87564,19.45536 L 240.66666,274 155.33333,274.21582 C 108.4,274.33449 68.041355,273.95854 65.647458,273.38029 Z m 11.093995,-17.61593 c 0.504035,-1.58807 -0.494328,-4.00363 -2.774909,-6.71395 C 67.671531,241.56921 67.389311,239.74733 66.678196,202 l -0.678197,-36 h -6.666667 -6.666666 v 36.69826 36.69826 l 4.376354,8.88608 c 2.406995,4.88734 6.237474,10.4521 8.512175,12.36614 l 4.135821,3.48007 3.131575,-2.94196 c 1.722366,-1.61808 3.485854,-4.0582 3.918862,-5.42249 z M 285.316,179.31245 c -2.1013,-2.53192 -0.55878,-62.97034 1.67653,-65.68913 1.11056,-1.35075 12.57933,-1.63087 54.5895,-1.33333 45.54298,0.32256 53.3651,0.664 54.44703,2.37667 0.69488,1.1 1.27263,9.90957 1.28385,19.57682 0.0181,15.58917 -0.24345,17.65766 -2.31292,18.2917 -1.28333,0.39319 -20.33333,0.51022 -42.33333,0.26006 -22,-0.25015 -40.75,-0.16723 -41.66666,0.18428 -1.16612,0.44717 -1.66667,4.32033 -1.66667,12.89646 0,7.75572 -0.58761,12.84496 -1.6,13.85735 -2.44419,2.44419 -20.31804,2.10861 -22.41733,-0.42088 z M 1.331458,137.34454 1.3295826,111.33333 10.998124,112 20.666666,112.66666 20.996645,136 c 0.181488,12.83333 -0.185657,24.13468 -0.815877,25.1141 -0.738602,1.14786 -4.291551,1.86267 -9.996645,2.01122 l -8.8507897,0.23042 z m 33.169664,1.78975 c -0.699276,-0.84281 -1.098097,-7.14281 -0.886268,-14.00001 l 0.385145,-12.46762 H 153.27965 272.5593 l -0.38276,12.66667 c -0.2105,6.96667 -0.78634,13.06948 -1.27965,13.5618 -0.49329,0.49232 -53.59807,1.09232 -118.01063,1.33333 -87.05965,0.32575 -117.439998,0.0449 -118.385138,-1.09417 z m 31.556534,-4.88932 c 0.426322,-1.6986 0.587752,-6.0486 0.358736,-9.66667 L 65.999999,118 60.132144,117.58017 c -7.07303,-0.50605 -8.084129,0.71795 -8.111727,9.81983 -0.02441,8.05054 1.533782,9.93333 8.220846,9.93333 4.158728,0 5.17696,-0.54065 5.816393,-3.08836 z M 95.582674,87.138231 c -1.516333,-1.516335 -1.13461,-2.363624 4.417324,-9.804899 2.933332,-3.931555 5.333332,-8.333477 5.333332,-9.782048 0,-1.4563 -2.99637,-5.388472 -6.702293,-8.79551 C 90.660791,51.428342 89.042136,45.82645 92.68,38.160223 c 2.501258,-5.271013 9.04615,-11.493557 12.08896,-11.493557 2.92662,0 2.30301,1.931427 -2.76896,8.576076 -6.632498,8.689041 -6.274412,12.360353 2,20.505276 7.27332,7.159496 8.43275,11.686862 4.77656,18.651527 -2.46694,4.69927 -12.014827,13.917743 -13.193886,12.738686 z m 47.703816,-0.547346 c -1.62887,-2.635568 0.59136,-7.242338 7.32553,-15.199845 8.9767,-10.607397 9.0817,-14.468981 0.58278,-21.433207 C 134.47513,36.257325 133.20124,26.528329 146.07881,10.886058 149.33546,6.9302344 152,2.8625797 152,1.8468256 152,0.58274323 153.67385,0 157.30474,0 c 5.27167,0 5.29515,0.02286493 3.76382,3.6666666 -0.84751,2.0166666 -4.43464,7.5352454 -7.97142,12.2635074 -9.35949,12.512599 -9.04762,14.910516 3.56952,27.446031 8.58448,8.528936 10,10.585138 10,14.526082 0,7.058103 -2.00973,10.918831 -10.87852,20.8978 -7.9646,8.961606 -10.7177,10.677286 -12.50165,7.790798 z m 46.93573,0.520224 c -1.48625,-1.48625 -1.08774,-2.362976 4.44444,-9.777777 6.74343,-9.03824 6.7704,-11.971078 0.15823,-17.20802 -2.84632,-2.254321 -6.20404,-6.267048 -7.4616,-8.917171 -2.12171,-4.471168 -2.13179,-5.223496 -0.13975,-10.439551 2.2439,-5.87558 10.0618,-15.435257 12.62295,-15.435257 2.65324,0 1.58419,3.39368 -3.17983,10.094373 -6.58298,9.259107 -6.19809,12.316228 2.66667,21.180989 4.16852,4.168515 7.33333,8.52526 7.33333,10.095199 0,4.073221 -3.6542,10.628481 -9.08417,16.296105 -4.92231,5.137721 -5.82785,5.643524 -7.36027,4.11111 z"
       id="path14889"
       inkscape:connector-curvature="0" />
    <path
       style="fill:#2d2d2d;stroke-width:1.33333325"
       d="m 248,413.61625 c -1.1,-0.36715 -6.65,-3.33352 -12.33334,-6.59192 l -10.33333,-5.92439 0.012,-8.21664 c 0.007,-4.51915 0.37849,-11.26993 0.82693,-15.00173 l 0.81535,-6.78511 31.64229,-18.21489 c 17.40326,-10.0182 32.78114,-18.19336 34.17307,-18.16703 1.39192,0.0263 7.33077,2.90092 13.19744,6.38796 l 10.66666,6.34009 0.3802,13.63227 c 0.36363,13.03776 0.23586,13.76604 -2.92986,16.69993 -3.40173,3.15262 -55.33937,33.26026 -60.97305,35.34538 -1.72918,0.63998 -4.04395,0.86321 -5.14395,0.49608 z m 112.33333,-17.90242 -32.33334,-18.72817 0.012,-8.15951 c 0.007,-4.48772 0.38784,-11.29166 0.8477,-15.11988 l 0.83612,-6.9604 10.66008,-6.0396 c 5.86262,-3.32178 11.55874,-6.03961 12.65761,-6.03961 1.09887,0 15.64279,7.8 32.31983,17.33333 16.67704,9.53334 30.99945,17.33334 31.8276,17.33334 1.04153,0 1.50573,5.34365 1.50573,17.33333 0,13.90355 -0.36649,17.33333 -1.85215,17.33333 -1.01868,0 -5.95916,2.4 -10.97884,5.33334 -5.01968,2.93333 -10.03621,5.28278 -11.14785,5.221 -1.11164,-0.0617 -16.57116,-8.54 -34.35449,-18.8405 z M 61.60936,350.40935 c -1.72031,-1.7203 -2.087189,-7.82366 -0.766538,-12.75202 l 0.806409,-3.00934 89.508709,0.34267 89.50872,0.34267 v 8 8 l -88.72397,0.34269 c -67.900409,0.26227 -89.101686,-0.0351 -90.33333,-1.26667 z m 247.37089,-19.15696 -10.35309,-6.03276 0.35309,-39.41173 0.35308,-39.41173 L 311,240.19808 322.66666,234 l 11.66667,6.19808 11.66666,6.19809 0.35308,39.41173 0.3531,39.41173 -10.3531,6.03276 c -5.69418,3.31803 -11.85308,6.03276 -13.68641,6.03276 -1.83333,0 -7.99223,-2.71473 -13.68641,-6.03276 z M 68.138122,320.62026 c -3.323804,-3.7856 -4.107079,-5.81904 -3.98037,-10.33333 0.242422,-8.63676 1.648136,-13.54636 4.008752,-14.00097 1.180276,-0.22731 5.546444,2.69457 9.702596,6.49306 4.156152,3.7985 7.888376,6.57462 8.293829,6.16916 0.405455,-0.40546 1.734663,-2.73466 2.953796,-5.17602 2.163067,-4.33162 5.640232,-6.6091 18.712245,-12.25615 l 5.75002,-2.48399 4.87717,4.59318 c 2.68244,2.52625 8.92717,7.42436 13.87717,10.88469 4.95,3.46033 9,6.8612 9,7.55748 0,0.69628 0.87281,1.26596 1.93959,1.26596 1.19744,0 2.27309,-1.91313 2.81122,-5 0.93991,-5.39161 5.37847,-12.77771 10.66054,-17.73995 l 3.29517,-3.09566 5.17793,5.05612 c 2.84786,2.78085 6.27534,7.09386 7.61662,9.58446 2.18797,4.06283 5.83226,6.21848 5.83226,3.44987 0,-0.59317 0.84876,-2.23924 1.88612,-3.65792 1.83092,-2.50393 1.97034,-2.47237 4.76344,1.07849 3.4126,4.33842 5.45018,4.6061 7.69538,1.01096 1.36825,-2.19092 15.90344,-10.68637 18.2837,-10.68637 0.38759,0 0.7047,1.53944 0.7047,3.42099 0,4.21086 1.93985,8.11706 6.41237,12.91234 4.15163,4.45124 5.87801,4.60257 7.60479,0.66667 2.16597,-4.937 5.13058,-3.65484 6.21324,2.68715 0.53397,3.12793 1.39441,6.37245 1.91206,7.21002 0.63615,1.02931 0.0252,1.28336 -1.88494,0.78384 -1.61122,-0.42135 -3.48902,0.0596 -4.36811,1.11891 -1.3,1.56641 -2.37783,1.38818 -6.86859,-1.13578 C 215.13896,317.69169 208,310.25278 208,307.42958 c 0,-0.99602 -0.88359,-2.15001 -1.96351,-2.56442 C 202.68954,303.58082 200,309.26818 200,317.63001 c 0,4.23682 -0.47823,7.70332 -1.06274,7.70332 -0.5845,0 -3.40628,-2.4 -6.2706,-5.33334 -2.86432,-2.93333 -5.59508,-5.33333 -6.06834,-5.33333 -0.47327,0 -1.80323,2.4 -2.95547,5.33333 -1.15225,2.93334 -2.92755,5.33334 -3.94511,5.33334 -1.65612,0 -10.01448,-10.53271 -16.13576,-20.33333 -1.25957,-2.01667 -2.85518,-3.66667 -3.54581,-3.66667 -1.99312,0 -4.09381,4.89532 -5.91239,13.77786 -1.66208,8.1182 -1.73966,8.22132 -6.13717,8.15803 -3.73459,-0.0537 -4.65717,-0.69969 -5.71325,-4 -1.71976,-5.37442 -5.82796,-9.60986 -10.78276,-11.11674 -8.09258,-2.46116 -22.33783,-4.4846 -23.38596,-3.32182 C 106.3412,306.76482 104,314.80927 104,318.86562 c 0,3.67908 -2.89383,5.33623 -4.573252,2.61885 -0.401846,-0.6502 -2.987256,-1.5959 -5.745356,-2.10157 -2.893819,-0.53055 -6.886879,-2.70915 -9.441289,-5.15115 -4.127163,-3.94553 -4.544306,-4.07205 -6.167382,-1.87053 -0.95745,1.29867 -2.122588,4.74867 -2.589194,7.66667 -0.466607,2.91798 -1.37913,5.30544 -2.027828,5.30544 -0.6487,0 -3.041609,-2.12088 -5.317577,-4.71307 z M 60.666666,270.81701 C 52.546844,267.07516 43.198177,258.02754 39.452405,250.28592 36.131071,243.4215 36.076762,242.7711 35.169933,199 l -0.918478,-44.33334 77.207605,0.003 c 42.46418,0.001 95.62012,0.39731 118.12432,0.88004 l 40.91674,0.87771 0.91872,8.57885 c 0.50529,4.71837 0.34306,25.17235 -0.36052,45.45329 -1.0148,29.25212 -1.71755,37.71556 -3.39974,40.94359 -3.09768,5.94429 -13.44462,14.97651 -21.39914,18.68005 l -6.92611,3.22474 -86.66667,-0.0163 c -81.373542,-0.0152 -86.992392,-0.16636 -91.999994,-2.47401 z M 74.575873,260.1275 c 3.443642,-4.83614 3.501244,-8.37442 0.185192,-11.37541 -6.429805,-5.81889 -7.098875,-9.85893 -7.953567,-48.02593 l -0.807499,-36.0595 H 59.333332 52.666666 V 203.33333 242 l 3.559588,6.74436 C 60.429339,256.70797 66.906686,264 69.777487,264 c 1.122509,0 3.281784,-1.74263 4.798386,-3.8725 z M 285.33333,150.83333 c 0,-16.04167 0.375,-31.04167 0.83333,-33.33333 L 287,113.33333 h 53.75463 c 29.56506,0 54.02096,0.45 54.34646,1 0.32549,0.55 0.8109,9.1 1.07869,19 l 0.48688,18 -43.26628,0.35216 c -32.57619,0.26515 -43.52488,0.75929 -44.3129,2 -0.57566,0.90631 -1.05584,7.19784 -1.06707,13.98117 L 308,180 H 296.66666 285.33333 Z M 1.3333333,137.11662 v -25.23846 l 8.9999997,0.39425 9,0.39425 V 137.33333 162 l -9,0.17754 -8.9999997,0.17754 z M 34.666666,126.21714 V 112 H 153.52922 272.3918 l -0.76303,12.78934 c -0.41967,7.03414 -1.03177,13.0581 -1.36024,13.38658 -0.32848,0.32846 -53.47328,0.97097 -118.09955,1.42778 l -117.502314,0.83058 z m 31.732464,1.23555 c 0.280253,-6.46968 -0.116867,-9.54129 -1.333334,-10.31292 -2.593438,-1.64507 -9.643481,-1.36209 -11.465797,0.46023 -1.713185,1.71318 -2.249001,17.30656 -0.649643,18.9059 0.522698,0.52271 3.672698,0.77271 7,0.55556 l 6.049643,-0.3948 z M 95.999998,85.230856 c 0,-0.789695 2.4,-4.787369 5.333332,-8.883721 2.93334,-4.096353 5.33333,-8.120735 5.33333,-8.943072 0,-0.822337 -3.3482,-4.774661 -7.44046,-8.782944 -7.430912,-7.278429 -7.439756,-7.296813 -6.887857,-14.317289 0.432058,-5.496023 1.400741,-7.920693 4.440466,-11.114741 8.868251,-9.318485 11.857501,-7.052791 3.900801,2.956602 -2.559553,3.21987 -4.659553,7.20952 -4.66667,8.865892 -0.0078,1.80652 2.921438,6.203455 7.32039,10.988416 9.54137,10.378621 9.5146,12.898553 -0.26552,25 -4.484685,5.549128 -7.067812,7.095412 -7.067812,4.230857 z m 47.357532,0.141633 c -1.16091,-1.878388 2.22196,-7.693081 9.20065,-15.814697 3.35967,-3.90988 6.10848,-8.42597 6.10848,-10.035758 0,-1.853598 -3.43237,-6.332964 -9.36018,-12.215344 -13.96806,-13.86102 -14.66,-20.993213 -3.42424,-35.294555 C 149.24701,7.7293267 152,3.2745383 152,2.1126054 152,0.53829823 153.35314,0 157.31056,0 h 5.31054 l -2.79605,4.9999999 c -1.53783,2.75 -5.42757,8.5094501 -8.64388,12.7987781 -3.28001,4.374276 -5.84784,9.266859 -5.84784,11.142107 0,2.320017 2.80329,6.258557 9.15883,12.867888 11.4775,11.935821 12.545,13.935405 11.03273,20.666003 -1.35189,6.016824 -2.52119,7.847084 -11.06191,17.314843 -5.96184,6.60895 -9.40234,8.338546 -11.10545,5.58287 z m 47.30913,-0.141633 c 0,-0.789695 2.4,-4.787369 5.33334,-8.883721 2.93333,-4.096353 5.33333,-8.045991 5.33333,-8.776975 0,-0.730982 -3.3,-4.788765 -7.33333,-9.017294 -5.67304,-5.947596 -7.33334,-8.628281 -7.33334,-11.840335 0,-5.039874 3.87226,-12.924542 8.4416,-17.188746 6.07428,-5.668639 6.61352,-2.455773 0.9798,5.837844 -2.97828,4.384437 -5.41648,9.194258 -5.41822,10.688493 -0.001,1.510317 3.00186,5.655064 6.76372,9.333333 9.44609,9.23622 9.84382,10.241576 6.71174,16.965715 -4.09565,8.792798 -13.47864,17.760226 -13.47864,12.881686 z"
       id="path14887"
       inkscape:connector-curvature="0" />
    <path
       style="fill:#010101;stroke-width:1.33333325"
       d="m 237.66666,407.06547 -11,-6.22934 0.0204,-13.41807 c 0.0107,-7.37993 0.46123,-14.05404 1,-14.83133 1.77339,-2.5585 62.252,-36.58963 64.97959,-36.5638 1.46667,0.0139 7.30929,2.73054 12.98361,6.03705 11.8624,6.91237 12.33777,7.86909 11.3738,22.88993 -0.55397,8.6321 -1.10749,10.44746 -3.83573,12.58006 -6.52039,5.0968 -61.02812,35.82872 -63.46856,35.7841 -0.57921,-0.0107 -6.00312,-2.82245 -12.05312,-6.2486 z m 123.3556,-12.13101 -31.64439,-18.2678 -10e-4,-13.33333 c -10e-4,-7.33334 0.43895,-13.98462 0.97772,-14.78063 1.59983,-2.36369 19.90625,-12.55303 22.54555,-12.54884 1.33872,0.003 15.63404,7.58719 31.76737,16.85571 16.13333,9.26852 30.40099,16.80274 31.70591,16.74272 2.17345,-0.1 2.3413,1.30036 2,16.68573 -0.32043,14.44441 -0.6819,16.84 -2.58275,17.11736 -1.2156,0.17737 -5.89773,2.48373 -10.40477,5.12523 -4.50703,2.64149 -9.21244,4.77322 -10.4565,4.73718 -1.24404,-0.036 -16.50186,-8.28605 -33.90629,-18.33333 z M 61.872938,348.81634 c -0.394514,-1.02809 -0.527318,-4.18235 -0.295119,-7.00947 l 0.42218,-5.14021 h 89.333331 89.33333 v 6.66667 6.66666 l -89.03821,0.3428 c -75.374066,0.29019 -89.148294,0.056 -89.755512,-1.52645 z M 312,331.83237 c -5.5,-3.00615 -10.75,-6.4129 -11.66667,-7.57055 -1.24161,-1.56804 -1.66145,-11.30594 -1.64625,-38.18333 0.0107,-19.84317 0.46122,-36.72977 1,-37.52579 1.7192,-2.54005 20.00283,-12.5527 22.9219,-12.5527 1.54572,0 7.22757,2.53204 12.62636,5.62677 9.46292,5.4244 9.84501,5.83871 10.62364,11.51943 1.05469,7.6948 1.05003,67.3375 -0.005,70.08811 -0.64938,1.69224 -21.28083,14.1491 -23.32207,14.08139 -0.29229,-0.009 -5.03143,-2.4772 -10.53142,-5.48333 z M 68.785191,319.89769 c -2.387696,-2.83762 -3.451859,-5.66358 -3.451859,-9.16667 0,-7.549 1.453047,-13.39769 3.328522,-13.39769 0.91402,0 4.28902,2.33191 7.499999,5.182 l 5.838146,5.18201 -3.083994,2.49828 c -1.996226,1.61711 -3.351433,4.4922 -3.842225,8.15133 -0.417028,3.10918 -1.225895,5.65304 -1.797481,5.65304 -0.571588,0 -2.592587,-1.84604 -4.491108,-4.1023 z M 171.6578,315.36955 c -3.4882,-4.71675 -6.92336,-10.10449 -7.63367,-11.97274 C 163.31382,301.52857 161.78408,300 160.62469,300 c -2.50087,0 -6.79132,9.07 -8.06844,17.05663 -0.80664,5.0445 -1.27407,5.61003 -4.63681,5.61003 -4.3971,0 -6.96471,-4.93595 -3.55904,-6.84185 1.09858,-0.6148 2.40232,-3.8178 2.89718,-7.11777 0.61231,-4.08314 2.58838,-8.13623 6.18542,-12.68683 2.90712,-3.67779 5.8019,-6.68688 6.43285,-6.68688 1.68656,0 10.30607,9.86171 12.74963,14.58701 2.55742,4.94554 5.56937,5.24064 7.61712,0.74632 0.83533,-1.83333 1.92616,-3.33333 2.42406,-3.33333 0.49791,0 1.58874,1.5 2.42407,3.33333 1.83872,4.03555 6.25049,4.38895 8.24589,0.66052 0.78675,-1.47005 4.89618,-4.42232 9.13208,-6.56058 l 7.70163,-3.88778 1.52797,5.56059 c 2.79788,10.18196 14.1352,18.62901 15.20896,11.33169 0.70448,-4.78769 3.37574,-4.23425 4.33872,0.89891 0.75103,4.00328 0.39796,5.19085 -2.15873,7.26114 -2.69987,2.18622 -3.46769,2.26251 -6.57876,0.65371 -5.91227,-3.05735 -11.40703,-8.31621 -13.19208,-12.62572 -1.23981,-2.99316 -2.44321,-3.98692 -4.47291,-3.69366 -3.77794,0.54584 -6.12261,5.7299 -6.21186,13.73451 l -0.0744,6.66667 -5.25956,-5.81664 c -6.00836,-6.64474 -8.3065,-6.5602 -10.60026,0.38996 -0.86402,2.61801 -2.27442,4.74775 -3.13421,4.73276 -0.8598,-0.0149 -4.41725,-3.88643 -7.90547,-8.60319 z m -77.26583,3.45472 c -7.198795,-2.47537 -10.492613,-5.09199 -8.240709,-6.54646 0.804268,-0.51947 2.202798,-3.21573 3.107844,-5.99171 1.850928,-5.6772 3.840908,-7.23861 15.803095,-12.3997 l 8.39555,-3.62226 4.27112,4.03431 c 2.34912,2.21888 6.91115,5.90944 10.13785,8.20127 6.75058,4.79473 6.57833,4.84506 -7.4161,2.16717 -5.74784,-1.09987 -10.87951,-1.99987 -11.40371,-2 -1.75831,-4.1e-4 -4.25132,5.94648 -4.98574,11.89317 -0.40031,3.24136 -1.32784,6.01228 -2.06117,6.1576 -0.73333,0.14532 -4.156947,-0.70671 -7.60803,-1.89339 z M 99.333332,272 l -36,-0.66667 -6.150464,-3.61571 c -7.184175,-4.22338 -13.349215,-10.8697 -17.341543,-18.69532 -2.680331,-5.25388 -2.881232,-8.05344 -3.537576,-49.29626 L 35.607886,156 l 94.529384,0.004 c 51.99117,0.003 104.97354,0.40024 117.73862,0.88442 l 23.20921,0.88036 -0.9043,41.39183 c -0.49738,22.76551 -1.2751,43.71061 -1.72828,46.54467 -1.09491,6.84716 -11.19778,17.88246 -20.83586,22.75889 l -7.29358,3.69023 -52.49488,0.25609 C 158.95602,272.55142 119.13333,272.36666 99.333332,272 Z M 75.265477,260.87414 c 4.13502,-5.42129 4.307323,-8.97413 0.598016,-12.33101 C 69.02825,242.35732 68.710216,240.41025 68.26113,202 c -0.464176,-39.70087 -0.380755,-39.33334 -8.927798,-39.33334 -9.051894,0 -8.907006,-0.69988 -8.429657,40.71922 0.424891,36.86724 0.467826,37.36213 3.870552,44.61412 3.836692,8.17686 11.751059,17.33333 14.98202,17.33333 1.159423,0 3.638577,-2.00664 5.50923,-4.45919 z M 286.66666,146.74836 v -31.9183 l 6.08352,-0.91228 c 5.60831,-0.84102 100.71476,0.476 101.67443,1.40797 0.23353,0.2268 0.77412,8.27128 1.20132,17.87663 l 0.7767,17.46428 H 352.9149 c -50.62698,0 -46.24824,-1.56969 -46.24824,16.57902 v 11.42098 h -10 -10 z M 1.8914394,137.33333 c 0,-14.3 0.1961534,-20.15 0.4358963,-13 0.2397429,7.15 0.2397429,18.85 0,26 -0.2397429,7.15 -0.4358963,1.3 -0.4358963,-13 z m 2.1085605,0 v -24 h 7.3333331 7.333333 v 24 24 H 11.333333 3.9999999 Z M 35.999999,126 V 113.33333 H 153.38337 270.76673 L 270.38337,125.66666 270,138 168.66666,138.3437 67.333332,138.6874 v -11.01037 -11.01037 l -7.624877,-0.39862 c -7.229711,-0.37797 -7.669716,-0.21997 -8.490072,3.04859 -0.475858,1.89597 -0.606377,7.02535 -0.290044,11.39863 l 0.575154,7.9514 H 43.751746 35.999999 Z M 144.7043,85.394239 c -1.161,-1.878538 2.17115,-7.755502 8.41431,-14.840457 8.89417,-10.093404 8.73277,-11.445759 -2.81251,-23.565773 -5.47593,-5.748532 -10.39194,-11.82467 -10.92448,-13.502528 -1.71932,-5.417089 0.59092,-11.956933 7.32972,-20.749068 4.07327,-5.3144069 6.28772,-9.3894012 5.79715,-10.6678158 C 151.87046,0.40592606 152.79114,0 157.20029,0 h 5.4856 l -4.90169,6.9999999 c -2.69594,3.8500001 -6.72026,9.2743661 -8.94295,12.0541461 -6.83439,8.547354 -5.88875,12.307863 6.22541,24.756311 11.57507,11.894482 12.38883,14.571095 7.26667,23.901542 -2.75257,5.014051 -12.26693,16.186845 -15.46979,18.166324 -0.74028,0.457513 -1.71193,0.239674 -2.15924,-0.484084 z m -47.370968,-1.04334 c 0,-0.719923 2.094176,-3.94339 4.653728,-7.163259 6.42052,-8.076908 6.0942,-11.22789 -1.987062,-19.187641 -6.143817,-6.051433 -6.666666,-7.063421 -6.666666,-12.903482 0,-5.186906 0.751056,-7.192466 4.138122,-11.050123 4.544716,-5.176148 8.165446,-6.507048 4.660406,-1.713061 -5.23174,7.15566 -7.455554,11.1597 -7.460211,13.432316 -0.0028,1.337774 3.295016,5.892022 7.328351,10.12055 8.6086,9.025223 9.04615,11.737397 3.29444,20.420886 -4.30631,6.501352 -7.961108,10.194115 -7.961108,8.043814 z M 192,84.102299 c 0,-0.677068 1.50702,-3.022039 3.34896,-5.211048 5.1469,-6.116755 7.33517,-11.033921 6.01126,-13.507677 -0.63694,-1.190138 -3.90356,-4.909368 -7.25916,-8.264959 -7.90292,-7.902925 -8.37542,-13.93768 -1.76773,-22.576952 6.12079,-8.002663 9.20939,-8.333869 3.35593,-0.359873 -7.96604,10.851912 -7.87022,12.257721 1.52359,22.355368 4.46627,4.800901 8.09341,9.494045 8.06035,10.429209 -0.11,3.110644 -3.2231,8.688368 -7.5658,13.555748 C 193.3143,85.445971 192,86.27042 192,84.102299 Z"
       id="path14885"
       inkscape:connector-curvature="0" />
  </g>
</svg>
