<?xml version="1.0" encoding="UTF-8"?>
<!-- Created with Inkscape (http://www.inkscape.org/) -->
<svg width="221" height="249" version="1.1" viewBox="0 0 221 249" xmlns="http://www.w3.org/2000/svg" xmlns:cc="http://creativecommons.org/ns#" xmlns:dc="http://purl.org/dc/elements/1.1/" xmlns:rdf="http://www.w3.org/1999/02/22-rdf-syntax-ns#">
 <metadata>
  <rdf:RDF>
   <cc:Work rdf:about="">
    <dc:format>image/svg+xml</dc:format>
    <dc:type rdf:resource="http://purl.org/dc/dcmitype/StillImage"/>
    <dc:title/>
   </cc:Work>
  </rdf:RDF>
 </metadata>
 <path d="m99.084 243.46c-2.1569-1.9486-4.7228-5.4801-5.7021-7.8478-1.7309-4.185-2.6431-4.8035-32.747-22.207l-30.967-17.902h-7.6566c-6.4508 0-8.2106-0.37951-11.174-2.4098-9.8556-6.7516-11.76-19.206-4.3018-28.133l3.4645-4.1467v-71.741l-2.9645-3.3764c-8.8462-10.075-6.0368-23.504 6.2378-29.817 2.9208-1.5022 5.4061-1.8769 11-1.6584l7.2267 0.28221 30.075-17.418 30.075-17.418 1.6638-4.6846c4.9906-14.051 21.785-17.605 31.407-6.6456 1.7541 1.9978 3.7019 5.3433 4.3284 7.4344 1.0976 3.6634 2.2386 4.4387 31.295 21.267l30.156 17.465 6.915-0.27309c9.0076-0.35573 12.54 0.91604 17.505 6.3018 3.9736 4.3109 4.0803 4.6119 4.0803 11.515 0 7.3723-0.70722 9.5453-4.6486 14.283l-2.3514 2.8267v71.657l3.5 4.1892c3.332 3.9881 3.5 4.5577 3.5 11.862 0 6.5066-0.37453 8.2244-2.4634 11.298-3.6923 5.4337-10.264 8.257-17.466 7.5042l-5.7483-0.60081-27.411 15.774c-15.076 8.6754-29.235 16.833-31.465 18.127-2.8567 1.6586-4.5786 3.6226-5.8313 6.6514-0.97767 2.3638-3.5423 5.8921-5.6992 7.8407-3.8018 3.4347-4.1657 3.5429-11.916 3.5429s-8.114-0.10819-11.916-3.5429zm-2.5702-106.03c-1.3814-1.811-2.9163-4.3361-3.411-5.6112-0.61104-1.5749-10.339-8.1603-30.337-20.537-16.191-10.02-30.186-18.506-31.102-18.857-1.5321-0.58791-1.6642 2.0526-1.6642 33.263v33.901l3.8286 4.1058c2.4645 2.6429 4.3351 5.9584 5.25 9.3052l1.4214 5.1994 29 16.726 29 16.726 0.26278-35.464 0.26278-35.464zm77.158 45.152c7.8357-4.565 8.2188-4.9572 9.3172-9.5356 0.7416-3.0913 2.532-6.3069 5.0783-9.1205l3.9328-4.3457v-33.79c0-18.585-0.34914-33.79-0.77586-33.79-0.42673 0-4.1392 2.0795-8.25 4.6211-39.451 24.392-53.974 33.763-53.974 34.826 0 0.68928-1.35 3.1169-3 5.3946l-3 4.1414v70.915l21.25-12.278c11.688-6.7526 24.927-14.42 29.422-17.038zm-62.382-75.56c2.8195-0.0129 6.3665 0.7824 8.6228 1.9335l3.8329 1.9554 24.877-16.588c29.754-19.84 31.788-21.321 30.712-22.358-0.45902-0.44229-13.865-8.3266-29.791-17.521l-28.956-16.717-4.7937 1.2286c-3.7984 0.97349-5.7973 0.97137-9.6272-0.01022l-4.8336-1.2388-29.385 17.051c-16.162 9.378-29.496 17.431-29.633 17.896-0.13637 0.465 12.374 9.2444 27.8 19.51l28.048 18.664 4.1679-1.8924c2.2924-1.0408 6.3234-1.9023 8.9578-1.9144z" fill="#d0d0d0"/>
 <path d="m103.5 245.84c-3.8593-2.1292-7.7462-6.3736-9.4782-10.35-0.96169-2.2078-2.3725-4.5227-3.1352-5.1442-0.76265-0.6215-15.063-9.0352-31.779-18.697-29.276-16.922-30.55-17.546-34.674-16.98-6.2744 0.86-11.019-0.36097-15.006-3.8619-4.7749-4.1924-6.4275-7.7412-6.4275-13.802 0-5.4733 1.5364-9.3654 4.8976-12.407 2.0657-1.8694 2.1024-2.5608 2.1024-39.593 0-37.032-0.036715-37.723-2.1024-39.593-3.3613-3.0419-4.8976-6.934-4.8976-12.407 0-6.061 1.6526-9.6098 6.4275-13.802 4.108-3.6069 8.6817-4.7063 15.704-3.7748l5.0217 0.66615 30.889-17.795 30.889-17.795 1.5567-4.5756c1.5375-4.5191 5.9493-9.6269 10.196-11.804 2.8185-1.4452 11.813-1.4452 14.631 0 4.2553 2.182 8.6596 7.2887 10.181 11.804l1.5411 4.5756 30.842 17.749 30.842 17.749 6.044-0.63173c3.3242-0.34745 7.2039-0.34062 8.6215 0.01517 3.2569 0.81742 9.2687 6.0494 11.165 9.7168 2.9893 5.7806 1.2455 16.155-3.4131 20.306-2.1125 1.8823-2.138 2.3547-2.138 39.595 0 37.032 0.0367 37.723 2.1024 39.593 3.3781 3.0572 4.8976 6.9415 4.8976 12.52 0 6.7627-3.3131 12.571-8.9905 15.762-3.5274 1.9825-5.1568 2.2748-10.348 1.8563l-6.1614-0.49676-32.181 18.43c-29.229 16.739-32.242 18.708-32.846 21.457-0.79031 3.5983-5.6508 9.4021-9.5722 11.43-3.286 1.6993-12.528 1.8701-15.401 0.28466zm-6.9875-109.95c-1.9319-2.8084-3.5125-5.4664-3.5125-5.9066 0-0.75632-58.443-37.44-61.543-38.63-1.2592-0.4832-1.4572 4.2151-1.4572 34.581v35.14l3.4595 3.4595c2.0587 2.0587 3.8898 5.1834 4.522 7.7167 0.58438 2.3414 1.3901 4.8374 1.7905 5.5466 0.40037 0.70922 14.003 8.9334 30.228 18.276l29.5 16.986 0.26248-36.032 0.26248-36.032zm62.389 56.132 23.402-13.612 1.2106-4.768c0.77518-3.053 2.519-6.1079 4.8482-8.4932l3.6376-3.7252v-35.315c0-30.174-0.20769-35.235-1.4267-34.767-1.16 0.44514-30.397 18.446-56.323 34.679-2.8875 1.8078-5.25 3.6245-5.25 4.037s-1.575 3.0905-3.5 5.951l-3.5 5.201v71.971l6.75-3.773c3.7125-2.0751 17.281-9.8984 30.152-17.385zm-47.518-84.227c3.8742-0.0348 6.449 0.56395 8.8766 2.0643l3.4194 2.1133 28.651-19.233c15.758-10.578 28.511-19.683 28.339-20.233s-13.738-8.786-30.148-18.302l-29.836-17.302-4.8778 1.2501c-3.8643 0.99038-5.8272 0.9962-9.4471 0.02803-4.4959-1.2025-4.7002-1.1498-12.715 3.277-18.594 10.27-52.03 30.122-52.334 31.072-0.17987 0.56254 12.549 9.6428 28.287 20.178l28.614 19.156 3.8565-2.0101c2.4297-1.2664 5.8755-2.0283 9.3136-2.0592z" fill="#b1b1b1"/>
 <path d="m105.15 245.98c-4.934-2.0901-8.1103-5.2177-10.562-10.4l-2.5387-5.3664-30.772-17.859-30.772-17.859-7.7701-0.16969c-8.8809-0.19395-12.889-1.9595-16.452-7.2461-4.631-6.872-4.1885-14.428 1.2633-21.57l3.459-4.5315v-72.194l-2.6515-3.1444c-5.5793-6.6162-6.6711-13.134-3.405-20.328 3.523-7.7596 10.969-10.818 22.557-9.265 4.2897 0.57485 64.152-33.998 65.678-37.932 4.1714-10.755 8.7758-14.535 17.769-14.587 7.0348-0.040657 12.673 3.2726 15.446 9.0772 1.0223 2.1394 2.3645 4.9515 2.9828 6.2492 0.75989 1.5948 11.18 8.1496 32.158 20.229 30.763 17.714 31.067 17.861 34.842 16.818 8.5033-2.3479 18.042 2.3808 21.134 10.477 2.3956 6.2727 1.3735 12.307-3.0708 18.129l-3.438 4.5041v71.965l3.459 4.5315c5.4518 7.1422 5.8943 14.698 1.2633 21.57-3.6478 5.4129-8.055 7.3665-16.705 7.4046l-7.5175 0.0331-30.764 17.831-30.764 17.831-2.5818 5.4574c-3.1942 6.7521-8.3721 10.508-15.164 10.999-2.599 0.188-5.7851-0.10707-7.0803-0.65571zm-4.3827-69.14 0.26244-35.49-2.5517-3.427c-1.4034-1.8848-3.5465-4.9517-4.7624-6.8152-1.6284-2.4957-10.211-8.3527-32.581-22.234-16.704-10.365-30.766-18.602-31.25-18.303-0.48362 0.29889-0.8793 16.104-0.8793 35.123v34.579l3.9378 4.2721c2.5025 2.7149 4.1895 5.6716 4.6282 8.1118 0.37971 2.1119 0.99519 4.415 1.3677 5.118 0.90597 1.7097 59.238 35.331 60.543 34.896 0.6648-0.22143 1.1147-12.763 1.2852-35.831zm53.421 18.412 28.705-16.623 1.1465-4.779c0.72579-3.0254 2.5809-6.4087 5.0558-9.2203l3.9093-4.4412v-34.538c0-18.996-0.39253-34.78-0.8723-35.077-0.47976-0.29651-14.542 7.9472-31.25 18.319-30.193 18.744-30.407 18.9-35.11 25.73l-4.7323 6.8715-0.0177 35.083c-0.01 19.296 0.29626 35.397 0.68004 35.781 1.0579 1.0579 1.6998 0.7199 32.486-17.108zm-52.38-84.831c1.2367-0.86622 4.6597-1.8238 7.6068-2.128 4.3351-0.44742 6.2405-0.11238 9.9787 1.7546l4.6205 2.3076 27.245-18.335c29.295-19.714 30.935-20.909 30.245-22.025-0.24933-0.40343-13.623-8.3274-29.719-17.609l-29.266-16.875-11.494-0.007503-11.494-0.007502-29.513 17.024c-16.232 9.3631-29.489 17.463-29.461 18 0.060558 1.1394 56.307 39.476 57.918 39.476 0.59695 0 2.0972-0.70872 3.3339-1.5749z" fill="#909090"/>
 <path d="m102.5 244.14c-4.2046-2.5972-6.264-5.1505-7.8284-9.7058-1.3024-3.7924-2.4998-4.5998-33.334-22.476l-31.983-18.543-6.927 0.3792c-5.9991 0.32841-7.3927 0.063-10.403-1.9811-5.5438-3.7642-8.0238-8.249-8.0238-14.51 0-5.7559 1.492-9.6277 4.8976-12.71 2.0657-1.8694 2.1024-2.5608 2.1024-39.593 0-37.032-0.036715-37.723-2.1024-39.593-3.3252-3.0092-5.1284-7.3719-5.1284-12.407 0-5.5151 2.0034-9.7895 6.2719-13.381 4.0268-3.3883 6.8031-4.0245 14.192-3.2522l6.0416 0.63147 31.308-18.078 31.308-18.078 1.581-4.7599c2.6389-7.9451 8.2988-12.083 16.528-12.083 8.2342 0 13.889 4.1378 16.533 12.098l1.5861 4.7752 31.197 18.005 31.197 18.005 7.4934-0.54358c6.7316-0.48832 7.8399-0.30443 10.901 1.8087 7.1214 4.9153 9.61 11.214 7.5836 19.195-0.66327 2.6122-2.3952 5.9909-3.8488 7.5081l-2.6429 2.7586v37.54c0 36.88 0.037 37.574 2.1024 39.443 3.3252 3.0092 5.1284 7.3719 5.1284 12.407 0 5.5151-2.0034 9.7895-6.2719 13.381-3.911 3.2909-6.6345 3.9763-13.528 3.4046l-5.4769-0.45419-32.163 18.584c-28.038 16.201-32.284 18.969-33.104 21.584-1.3291 4.2345-5.282 9.2395-8.6884 11.001-4.0924 2.1162-12.795 1.9255-16.498-0.36161zm-1.5-67.622v-36.364l-2.3593-2.8267c-1.2976-1.5547-3.0801-4.233-3.9611-5.9518-1.2198-2.3798-7.1561-6.5822-24.891-17.621-32.596-20.289-38.384-23.754-39.666-23.754-0.81013 0-1.1234 9.937-1.1234 35.638v35.638l3.8878 4.2177c2.5979 2.8183 4.1151 5.5631 4.5729 8.2728 0.3768 2.2303 1.4398 4.7032 2.3622 5.4953 1.509 1.2959 42.358 25.134 54.631 31.881 2.7246 1.4978 5.3121 2.5018 5.75 2.2312 0.43792-0.27065 0.79622-16.856 0.79622-36.856zm51.5 20.205c32.53-18.772 31.088-17.744 31.887-22.74 0.44564-2.7869 1.9047-5.429 4.6319-8.3877l3.9814-4.3193v-35.755c0-33.926-0.092-35.731-1.7983-35.285-0.98906 0.25865-15.402 8.9085-32.029 19.222-23.604 14.642-30.584 19.441-31.842 21.896-0.88658 1.7296-2.6737 4.4168-3.9713 5.9715l-2.3593 2.8267v36.257c0 19.941 0.28417 36.541 0.63148 36.888 0.80298 0.80297 0.10011 1.1804 30.869-16.575zm-41.142-88.077c3.7182-0.0537 6.2282 0.55342 8.7624 2.1196l3.5515 2.195 29.213-19.605c17.622-11.826 29.094-20.144 28.914-20.963-0.16459-0.747-13.99-9.2623-30.723-18.923l-30.424-17.565-4.8613 1.2459c-3.827 0.98082-5.8216 0.98906-9.3748 0.03871-5.3957-1.4431-1.2906-3.3614-37.666 17.602-15.812 9.1126-28.75 17.16-28.75 17.884s13.106 10.056 29.125 20.739l29.125 19.424 3.9484-2.058c2.4136-1.258 5.9738-2.0873 9.1593-2.1333z" fill="#6d6d6d"/>
 <path d="m102.94 243.69c-3.416-1.8064-5.0421-3.6136-7.4233-8.25l-3.0492-5.9369-31.484-18.253-31.484-18.253-5.6831 0.62435c-17.173 1.8867-25.882-15.728-14.468-29.263l2.6515-3.1444v-72.423l-2.6515-3.1444c-1.4583-1.7294-3.2583-4.5924-4-6.3622-4.8982-11.689 5.0054-24.645 17.47-22.854 2.5749 0.36987 5.448 0.67948 6.3847 0.68802 0.93671 0.0085 15.562-8.0036 32.5-17.805 22.435-12.982 31.068-18.483 31.797-20.262 4.2387-10.35 9.703-15.049 17.5-15.049 7.7983 0 13.271 4.7075 17.5 15.054 0.73003 1.7859 9.3148 7.2561 31.799 20.262 16.939 9.7987 31.564 17.809 32.5 17.8 0.93559-0.0086 3.8078-0.3183 6.3826-0.68817 12.465-1.7905 22.368 11.165 17.47 22.854-0.74166 1.7698-2.5417 4.6328-4 6.3622l-2.6515 3.1444v72.423l2.6515 3.1444c8.2464 9.7791 6.5967 22.173-3.6557 27.465-3.7575 1.9394-5.4812 2.229-10.496 1.7636l-6-0.55681-31.5 18.236c-29.1 16.847-31.652 18.544-33.5 22.277-3.1021 6.2667-4.9378 8.3887-9.0865 10.504-5.0743 2.587-10.126 2.4704-15.473-0.35719zm-1.4177-31.937c0.30848-1.2375 0.42956-17.775 0.26905-36.75l-0.29182-34.5-3.7409-5.5c-2.0575-3.025-4.3875-6.175-5.1776-7-2.3022-2.4036-60.592-38.24-62.422-38.376-1.513-0.1129-1.6829 3.0215-1.9222 35.454l-0.26245 35.578 3.9603 4.0402c2.1782 2.2221 4.2482 5.3369 4.5999 6.9218 1.709 7.7001 0.91873 7.0808 31.989 25.07 16.444 9.5212 30.47 17.311 31.168 17.311 0.6981 0 1.5217-1.0125 1.8301-2.25zm51.779-15c16.461-9.4875 30.08-17.7 30.264-18.25s0.80772-2.8496 1.3854-5.1102c0.57891-2.2655 2.8509-6.1558 5.0623-8.6681l4.012-4.5578-0.26289-35.332c-0.2396-32.203-0.40985-35.321-1.9226-35.208-1.8295 0.13651-60.12 35.973-62.422 38.376-0.79019 0.825-3.1201 3.975-5.1776 7l-3.7409 5.5-0.29182 34.5c-0.16051 18.975-0.0394 35.512 0.26905 36.75 0.30848 1.2375 1.0861 2.25 1.728 2.25s14.635-7.7625 31.096-17.25zm-50.563-85.75c4.905-2.6289 11.416-2.5622 16.893 0.17311l4.3512 2.1731 29.508-19.883c16.23-10.936 29.508-20.359 29.508-20.941s-13.612-8.9251-30.25-18.54c-22.353-12.918-31.033-17.445-33.25-17.34-1.65 0.07809-4.8 0.27679-7 0.44155-2.2 0.16476-5.8-0.0369-8-0.44813-3.8602-0.72157-5.0171-0.16026-33.097 16.058-29.891 17.265-32.672 19.029-32.186 20.412 0.34603 0.98441 57.891 39.894 59.001 39.894 0.43441 0 2.469-0.9 4.5214-2z" fill="#505050"/>
 <path d="m101.9 242.75c-2.0831-1.3794-4.4507-4.4204-6.1186-7.8591l-2.7208-5.609-31.723-18.345-31.723-18.345-7.0711 0.26334c-5.999 0.22341-7.5914-0.0873-10.502-2.049-8.8264-5.9481-9.9079-19.185-2.1418-26.213 2.0652-1.869 2.1024-2.5645 2.1024-39.366v-37.463l-2.9579-3.3689c-5.6384-6.4218-6.0271-15.331-0.95039-21.785 3.6184-4.6001 7.4561-5.9334 15.358-5.336l7.0498 0.53293 31.453-18.154 31.453-18.154 1.7366-4.8541c2.9546-8.2585 7.6063-11.735 15.786-11.799 8.1526-0.06315 12.966 3.5029 15.925 11.799l1.7315 4.8541 31.406 18.142 31.406 18.142 7.5514-0.49432c6.7478-0.44171 7.9182-0.24358 10.997 1.8616 8.9169 6.0962 9.9904 19.167 2.1564 26.256-2.0652 1.869-2.1024 2.5645-2.1024 39.366v37.463l2.9579 3.3689c5.8087 6.6157 6.0276 15.694 0.53603 22.22-3.4741 4.1287-7.4522 5.4909-14.539 4.9783l-6.0492-0.43757-32.118 18.567c-17.665 10.212-32.416 19.242-32.779 20.067-4.8095 10.914-8.5582 14-17.009 14-4.242 0-6.5752-0.57675-9.1021-2.25zm-0.13586-65.43 0.26202-37.014-2.762-3.5571c-1.5191-1.9564-3.482-4.8689-4.3619-6.4721-1.1517-2.0984-10.117-8.1995-32-21.778-16.72-10.374-31.413-19.058-32.65-19.297l-2.25-0.43445v72.509l3.9814 4.3193c2.6582 2.8838 4.1889 5.6169 4.6058 8.2239 0.34341 2.1476 0.92718 4.3946 1.2973 4.9934 1.0267 1.6612 61.396 36.26 62.58 35.866 0.68348-0.22766 1.1252-12.941 1.2981-37.359zm51.279 20.065c16.753-9.6883 30.749-18.075 31.103-18.638 0.35434-0.56256 0.92522-2.7799 1.2686-4.9275 0.41688-2.607 1.9475-5.3401 4.6058-8.2239l3.9814-4.3193v-72.509l-2.25 0.43445c-1.2375 0.23895-15.93 8.9226-32.65 19.297-21.883 13.578-30.848 19.679-32 21.778-0.87995 1.6033-2.8374 4.5089-4.3499 6.457l-2.75 3.542v36.696c0 33.948 0.21008 38.029 1.9575 38.029 0.34328 0 14.331-7.9268 31.083-17.615zm-50.535-85.98c3.4664-2.2712 13.401-2.3509 16.784-0.13458 1.4522 0.95153 3.4438 1.7076 4.4256 1.6803 0.98185-0.0274 14.61-8.6926 30.285-19.256 20.628-13.902 28.5-19.732 28.5-21.11 0-1.437-6.499-5.6764-26.5-17.287-37.162-21.572-35.007-20.555-40.473-19.093-3.5584 0.95174-5.5116 0.94729-9.1311-0.02077-5.3637-1.4346-3.748-2.2127-43.896 21.14-17.231 10.023-23 13.855-23 15.278 0 1.3725 7.9057 7.2224 28.5 21.089 15.675 10.554 29.303 19.217 30.285 19.25 0.98185 0.0333 2.8809-0.65752 4.2202-1.535z" fill="#2c2c2c"/>
 <path d="m106.5 244.27c-3.9846-0.99766-7.6791-4.6049-10.312-10.069l-2.6876-5.5763-31.5-18.268-31.5-18.268-7.3157-0.0432c-10.249-0.06052-15.313-3.0936-17.264-10.341-1.5306-5.6843-0.30469-10.893 3.6517-15.515l3.4284-4.0053v-74.418l-2.9549-3.3654c-8.2143-9.3555-5.6285-21.719 5.4252-25.94 3.7447-1.4301 5.1613-1.5061 9.3489-0.50154l4.9354 1.184 31.873-18.387c22.459-12.956 32.168-19.084 32.873-20.748 3.5734-8.4364 5.1736-10.594 9.4619-12.756 5.6115-2.8297 8.4647-2.8297 14.076 0 4.2886 2.1626 5.8973 4.3319 9.4619 12.76 0.70483 1.6664 10.39 7.7925 32.81 20.754l31.81 18.39 4.8565-1.2447c12.981-3.3269 23.684 9.1127 18.265 21.228-1.0733 2.3995-2.9168 5.2199-4.0966 6.2677-2.1215 1.884-2.1452 2.3185-2.1452 39.368v37.463l2.9549 3.3654c11.135 12.682 2.1141 28.733-15.017 26.718-4.3787-0.51514-5.383-0.0637-25 11.236-46.564 26.823-43.556 24.81-46.662 31.217-3.86 7.9628-10.826 11.485-18.776 9.4946zm-4.7-29.467c0.88969-0.88969 1.2-10.681 1.2-37.862v-36.662l-2.75-3.542c-1.5125-1.9481-3.4919-4.892-4.3986-6.5419-1.8253-3.3215-1.5744-3.152-38.599-26.083-14.436-8.9408-27.036-16.104-28-15.919-1.6257 0.31286-1.7714 2.9652-2.015 36.698l-0.26261 36.361 3.9787 4.3164c2.1883 2.374 4.2583 5.5805 4.6001 7.1255 0.34175 1.545 0.93026 3.8539 1.3078 5.1309 0.51665 1.7475 8.3457 6.7564 31.651 20.25 17.031 9.8605 31.217 17.928 31.526 17.928 0.30871 0 1.1013-0.54 1.7613-1.2zm51.842-16.882c30.833-17.814 31.308-18.136 31.96-21.75 0.88806-4.9239 2.0116-7.0153 6.0292-11.223l3.3944-3.5552-0.26268-36.445c-0.25659-35.6-0.30904-36.45-2.2627-36.683-1.1575-0.138-15.059 7.8932-33 19.066-23.208 14.452-31.556 20.167-33.211 22.738-1.2159 1.889-3.3534 4.9694-4.75 6.8455l-2.5392 3.411v36.639c0 35.225 0.28059 39.039 2.8719 39.039 0.25955 0 14.556-8.1369 31.77-18.082zm-50.142-85.918c2.1576-1.1 5.5326-2 7.5-2s5.3424 0.9 7.5 2 4.5354 2 5.2841 2c2.473 0 60.135-39.409 60.176-41.128 0.05413-2.2266 0.2642-2.0856-23.96-16.081-43.166-24.939-39.349-22.992-42.594-21.731-1.8232 0.70818-5.6251 0.89008-10.205 0.48824l-7.2996-0.64041-15.7 9.0222c-39.349 22.612-45.699 26.56-45.954 28.57-0.20274 1.6019 5.5698 5.9224 29 21.705 16.089 10.838 29.945 19.725 30.792 19.75s3.3039-0.85516 5.4614-1.9552z" fill="#020202"/>
</svg>
