<?xml version="1.0" encoding="UTF-8"?>
<!-- Created with Inkscape (http://www.inkscape.org/) -->
<svg width="256" height="256" version="1.1" viewBox="0 0 256 256" xmlns="http://www.w3.org/2000/svg" xmlns:cc="http://creativecommons.org/ns#" xmlns:dc="http://purl.org/dc/elements/1.1/" xmlns:rdf="http://www.w3.org/1999/02/22-rdf-syntax-ns#">
 <metadata>
  <rdf:RDF>
   <cc:Work rdf:about="">
    <dc:format>image/svg+xml</dc:format>
    <dc:type rdf:resource="http://purl.org/dc/dcmitype/StillImage"/>
    <dc:title/>
   </cc:Work>
  </rdf:RDF>
 </metadata>
 <path d="m13.907 251.16c-2.4663-1.564-6.0746-4.7019-8.0186-6.973-4.6926-5.4823-5.9042-13.498-5.8954-39.005 0.0052688-15.405 0.29616-19.611 1.4352-20.75 1.8309-1.8308 17.583-2.0167 19.371-0.22857 0.85273 0.85273 1.2 6.9444 1.2 21.05 0 21.463 0.76262 25.253 5.2682 26.182 5.0309 1.0372 103.12 1.6943 150.76 1.0099 46.676-0.67048 51.302-0.88728 53.292-2.4975 2.0972-1.6965 2.1914-2.5701 2.4877-23.071 0.18987-13.137 0.71616-21.799 1.3724-22.59 1.5564-1.8754 17.49-1.7555 19.391 0.14595 1.8556 1.8556 2.0142 38.119 0.21263 48.625-1.3901 8.1064-4.9613 13.2-12.692 18.103l-4.4841 2.8437h-219.22zm85.098-45.793c-10.737-3.8304-19.048-13.041-20.985-23.256-0.58403-3.0796-1.0204-22-1.0204-44.244v-38.864l-18.75-0.014742c-19.32-0.01519-22.351-0.53936-24.652-4.2624-0.85327-1.3809-0.65216-2.5429 0.90184-5.211 2.6333-4.5211 44.815-47.905 68.091-70.031l18.389-17.481h14.303l43.298 43.25c29.8 29.767 43.514 44.136 43.99 46.091 0.53104 2.1812 0.19078 3.3424-1.465 5-2.0423 2.0444-3.2141 2.1754-22.081 2.4668l-19.924 0.30783-0.30002 42.192c-0.29052 40.856-0.36876 42.341-2.4701 46.889-2.7707 5.9963-9.437 12.662-15.83 15.828-4.8891 2.4212-5.5765 2.4813-31 2.7094-21.743 0.19503-26.736-0.0293-30.495-1.3703z" fill="#edf0fb"/>
 <path d="m16.259 251.9c-2.3326-1.1546-6.3901-4.4506-9.0164-7.3242-4.2648-4.6664-4.9071-5.9938-6.0088-12.418-0.69664-4.0625-1.2336-15.882-1.2336-27.156 0-23.199-1.1402-21.303 12.503-20.797l7.9966 0.2965 0.79767 21.5c0.7804 21.035 0.85124 21.554 3.2727 24l2.4751 2.5h201.91l2.6133-2.6133c2.6072-2.6072 2.6148-2.6632 3.2727-24l0.65943-21.387 7.9966-0.2965c13.65-0.50614 12.503-2.431 12.503 20.984 0 29.31-1.5181 35.53-10.5 43.027-7.4301 6.2017 1.0027 5.7855-117.2 5.7846-107.49-7.8e-4 -107.81-7e-3 -112.04-2.1001zm80.102-48.312c-6.7903-3.1617-12.361-8.3214-15.393-14.258l-2.4671-4.8298-0.28053-42.6-0.28053-42.6-20.145-0.70871c-11.08-0.38979-20.966-1.1481-21.969-1.6852-1.1406-0.61042-1.8246-2.0956-1.8246-3.9616 0-2.3625 1.859-5.0144 8.9135-12.715 10.227-11.163 65.919-66.566 73.945-73.56 5.121-4.4629 5.628-4.6696 11.455-4.6696h6.0964l43.795 43.764c39.491 39.462 43.795 44.079 43.795 46.965 0 2.0749-0.64187 3.5444-1.8246 4.1774-1.0035 0.53708-10.904 1.2959-22 1.6863l-20.175 0.70978v41.171c0 46.45-0.0602 46.906-7.2847 55.113-2.5612 2.9097-6.4331 5.7845-10.175 7.5547l-6.0404 2.8576-26.5-9e-3c-25.843-9e-3 -26.627-0.0683-31.64-2.402z" fill="#e6ebfa"/>
 <path d="m16 251.42c-13.821-7.8599-16-14.306-16-47.339 0-22.135-1.1051-20.379 12.503-19.874l7.9966 0.2965 0.53112 21c0.56623 22.388 1.0812 24.832 5.5948 26.548 3.3754 1.2833 199.37 1.2833 202.75 0 4.5892-1.7448 5.0918-4.1166 5.6259-26.548l0.5-21 7.9966-0.2965c4.3982-0.16308 9.0572-0.0303 10.353 0.29499l2.3567 0.5915-0.47174 23.705c-0.27058 13.597-0.95932 25.25-1.6152 27.328-1.597 5.0594-8.4632 12.511-14.213 15.425l-4.8401 2.4527-107.28-0.01205-107.28-0.01204zm81.282-47.527c-6.4024-2.4611-13.668-9.3188-16.602-15.67-2.1039-4.5541-2.1978-6.2093-2.6803-47.22l-0.5-42.5-20.217-0.5c-22.534-0.55731-24.23-1.0521-22.841-6.6654 0.47574-1.9232 13.62-15.813 40.88-43.196 22.098-22.199 41.933-41.661 44.078-43.25 3.0453-2.2555 4.9674-2.8885 8.7703-2.8885 4.7307 0 5.1491 0.25444 14.6 8.878 18.992 17.33 78.101 77.761 78.806 80.568 1.3762 5.4832-0.42201 5.9987-22.859 6.5536l-20.217 0.5-0.5 43c-0.49582 42.64-0.51948 43.036-2.8281 47.363-3.439 6.4453-10.38 12.697-16.738 15.076-5.0443 1.8873-7.6333 2.0566-30.721 2.0089-22.76-0.047-25.72-0.24721-30.43-2.0578z" fill="#dbe2f8"/>
 <path d="m18.154 252.47c-5.2351-2.2733-10.945-7.2563-13.698-11.955-3.2557-5.5554-4.4378-15.697-4.4478-38.157-0.006514-14.714 0.21651-17.229 1.5742-17.75 3.0368-1.1653 17.129-0.65996 18.219 0.65334 0.62925 0.75819 1.176 9.5585 1.3724 22.088l0.32646 20.828 2.8058 2.4117 2.8058 2.4117h201.78l2.8058-2.4115 2.8058-2.4115 0.30911-20.807c0.18965-12.766 0.72006-21.302 1.3724-22.089 1.1066-1.3333 15.165-1.8531 18.237-0.67425 1.3654 0.52395 1.5818 3.1997 1.5818 19.558 0 29.586-1.9028 36.947-11.43 44.213-7.7942 5.9449-1.0997 5.6249-116.79 5.5823-90.683-0.0334-106.77-0.2524-109.63-1.4922zm82.846-47.373c-8.468-2.6881-15.906-9-20.144-17.095-2.3413-4.4719-2.3591-4.765-2.856-47l-0.5-42.5-20.217-0.5c-22.514-0.55682-24.238-1.0579-22.838-6.6369 0.46956-1.8709 13.428-15.604 38.88-41.202 20.996-21.118 40.786-40.593 43.977-43.278 5.2422-4.4118 6.2818-4.8829 10.776-4.8829h4.9741l21.44 20.55c27.462 26.322 65.728 65.746 66.956 68.982 0.73364 1.933 0.55619 2.8923-0.78315 4.2336-1.4925 1.4947-4.5242 1.8033-21.949 2.2343l-20.217 0.5-0.5 42.5c-0.56078 47.667-0.32001 46.052-8.1336 54.529-2.3574 2.5574-6.5542 5.8471-9.3262 7.3104l-5.0402 2.6605-26 0.19443c-14.3 0.10693-27.125-0.1627-28.5-0.59918z" fill="#d4ddf7"/>
 <path d="m17.5 251.64c-6.2113-2.9108-13.967-11.08-15.432-16.255-0.60436-2.1351-1.3896-14.161-1.7449-26.723-0.53989-19.087-0.41408-22.988 0.76536-23.735 2.1466-1.3589 17.3-1.1355 18.711 0.27588 0.85445 0.85445 1.2 7.0409 1.2 21.484v20.284l2.918 3.2658 2.918 3.2658h202.33l2.918-3.2658 2.918-3.2658v-20.284c0-14.443 0.34555-20.63 1.2-21.484 1.2509-1.2509 15.311-1.7086 18.218-0.59301 1.3577 0.52099 1.5807 3.0357 1.5742 17.75-9e-3 19.617-1.2001 32.21-3.461 36.582-2.4293 4.6977-8.3192 10.053-13.929 12.666l-5.1022 2.3757h-211zm83.451-46.961c-8.9803-2.4978-16.295-8.8395-20.329-17.626-1.9944-4.3435-2.1058-6.4753-2.4473-46.801l-0.35774-42.25-17.658-0.005577c-24.198-0.007642-28.085-1.3249-24.515-8.3078 2.0294-3.9704 80.564-82.713 85.357-85.583 4.1962-2.5127 9.6396-2.7085 13.027-0.46862 4.0391 2.6705 84.977 83.628 86.531 86.552 3.4085 6.4138-0.9832 7.8003-24.732 7.8078l-17.674 0.005577-0.32615 42.25-0.32614 42.25-2.7798 5.6605c-3.2011 6.5186-8.9631 12.134-15.598 15.202-4.2738 1.9761-6.4703 2.154-29.122 2.3582-17.31 0.15607-25.835-0.15047-29.049-1.0445z" fill="#c7d2f5"/>
 <path d="m19.275 252.35c-5.893-2.0866-13.576-9.2953-16.059-15.066-1.7949-4.1729-2.148-7.7935-2.782-28.529l-0.72616-23.75h20.019l0.73503 21.249c0.40427 11.687 1.177 22.075 1.7172 23.085 2.5223 4.7129 1.4565 4.6659 105.82 4.6659 105.06 0 103.28 0.0825 105.95-4.9023 0.64392-1.2032 1.373-10.88 1.7392-23.085l0.63047-21.013h20l-0.6399 23.25c-0.35195 12.788-1.1413 25.016-1.7541 27.175-0.72225 2.5446-3.1033 5.9125-6.7687 9.5741-9.7173 9.7071-0.39854 9.0119-119.58 8.9215-89.701-0.068-104.66-0.28555-108.3-1.5751zm77.123-49.741c-6.0129-2.7998-11.499-8.0013-14.641-13.881-2.2169-4.1488-2.2656-4.983-2.7568-47.223l-0.5-43-20.405-0.75618c-12.439-0.46098-20.93-1.192-21.75-1.8724-4.0052-3.324-2.5938-5.014 39.405-47.181 22.412-22.502 42.505-42.213 44.65-43.802 4.6677-3.4572 8.7478-3.692 13.6-0.7825 1.925 1.1543 22.288 20.877 45.25 43.828 42.982 42.961 44.389 44.63 40.405 47.937-0.81995 0.68049-9.3108 1.4115-21.75 1.8724l-20.405 0.75618-0.5 43c-0.44705 38.446-0.6868 43.375-2.2637 46.539-3.1168 6.2536-7.6133 10.744-13.91 13.89l-6.1453 3.0708-26.59-0.01c-25.883-0.01-26.726-0.0729-31.692-2.3855z" fill="#b8c6f2"/>
 <path d="m22.5 253.08c-6.8631-1.6771-13.299-6.5331-17.655-13.322l-3.2649-5.0878-0.84008-23.484c-0.46204-12.916-0.60021-24.109-0.30704-24.873 0.41332-1.0771 2.6144-1.3244 9.7999-1.1013l9.2669 0.28775 0.51377 20.5c0.5348 21.339 0.95372 23.463 5.2165 26.449 1.9657 1.3768 13.548 1.5513 102.98 1.5513h100.76l3.2658-2.9169 3.2658-2.9169 0.5-21.333 0.5-21.333h19l-0.28815 23c-0.15849 12.65-0.75801 24.469-1.3323 26.264-1.6816 5.2572-8.103 12.497-13.957 15.736l-5.4225 3-104.5 0.15674c-57.475 0.0862-105.85-0.17315-107.5-0.57635zm77-49.409c-5.9483-2.3322-9.3421-4.6854-13.39-9.2841-6.9311-7.8741-7.1099-9.2687-7.1099-55.462 0-36.201-0.17525-40.779-1.5818-41.319-0.86998-0.33384-10.009-0.60699-20.309-0.60699-21.048 0-22.952-0.49157-21.679-5.5944 0.50437-2.0214 13.558-15.736 42.897-45.067 46.558-46.547 46.43-46.445 54.087-42.812 4.9397 2.344 87.369 84.765 88.239 88.23 1.1797 4.7002-1.0764 5.2438-21.763 5.2438-10.3 0-19.439 0.27314-20.309 0.60699-1.407 0.53991-1.5818 5.1618-1.5818 41.822 0 48.167 0.0838 47.636-8.9259 56.645-8.5238 8.5238-10.433 8.9411-40.502 8.8498-16.679-0.05061-26.076-0.46981-28.072-1.2523z" fill="#a5b7ef"/>
 <path d="m24.5 253.04c-6.3263-1.1753-9.2113-2.6878-14.42-7.5599-8.1608-7.6335-8.8178-10.266-9.2273-36.978l-0.35265-23h19l0.5 21.334 0.5 21.334 3.1042 2.7714 3.1042 2.7714 51.097 0.73711c57.582 0.83066 148.38-0.0931 152.22-1.5486 4.9999-1.8957 5.4346-3.8173 5.9723-26.4l0.5-21h19l-0.37909 23.5c-0.43479 26.952-0.93918 28.891-9.5918 36.866-8.9595 8.2586 0.50129 7.6164-114.53 7.7741-56.375 0.0773-104.3-0.19388-106.5-0.60258zm74.832-49.857c-8.64-3.039-14.189-8.2088-18.109-16.873-1.516-3.3502-1.7833-8.918-2.2232-46.308l-0.5-42.5-20.217-0.5c-17.359-0.42932-20.46-0.7432-21.935-2.2205-1.5331-1.5355-1.5636-2.0141-0.28303-4.4518 1.7681-3.3659 60.222-62.773 75.742-76.979 10.724-9.8151 11.532-10.349 15.66-10.349 3.5637 0 5.2296 0.70605 9.1923 3.896 6.8385 5.505 81.855 81.105 83.323 83.971 1.0046 1.9616 0.93295 2.6462-0.41859 4-1.3647 1.367-4.9276 1.7149-21.848 2.1333l-20.217 0.5-0.5 43c-0.49112 42.237-0.54005 43.075-2.7561 47.222-3.5385 6.622-7.9024 10.963-14.062 13.988l-5.6816 2.7901-25 0.24923c-22.014 0.21946-25.617 0.0321-30.168-1.5684z" fill="#9eb2ee"/>
 <path d="m17.5 250.65c-5.7139-2.6665-11.834-8.9681-14.578-15.01-1.6632-3.6628-1.8811-6.8023-1.9005-27.387l-0.021962-23.25h7.9182c4.355 0 8.63 0.27314 9.5 0.60699 1.3692 0.52542 1.5818 3.287 1.5818 20.55 0 15.236 0.33385 20.588 1.4147 22.678 3.0733 5.9432-2.1318 5.665 105.99 5.665 54.504 0 100.35-0.34958 101.88-0.77684s3.6654-2.2273 4.7463-4c1.7816-2.9219 1.9656-5.1058 1.969-23.366 3e-3 -17.443 0.21576-20.224 1.5855-20.75 0.86998-0.33385 5.145-0.60699 9.5-0.60699h7.9182l-0.01 23.25c-9e-3 22.379-0.0986 23.437-2.3805 28.25-2.8831 6.0807-8.57 11.695-14.61 14.423-4.4322 2.0021-6.0893 2.0329-110 2.045l-105.5 0.0122-5-2.3333zm83.292-47.011c-8.5124-2.3607-15.73-8.7751-19.564-17.387-1.444-3.2434-1.7409-9.4874-2.1988-46.25l-0.52941-42.5-20.216-0.5c-17.264-0.42698-20.464-0.74842-21.915-2.201-1.5988-1.6007-1.5394-1.9422 1.0065-5.7893 3.3742-5.0988 76.519-78.528 82.525-82.846 7.2392-5.2046 10.474-4.5968 19.844 3.7283 11.089 9.853 78.744 78.146 80.218 80.975 1.029 1.9744 0.96319 2.6374-0.39732 4-1.3648 1.367-4.9278 1.7149-21.848 2.1333l-20.217 0.5-0.5 42.5-0.5 42.5-2.8181 5.7388c-3.0208 6.1516-8.7007 11.539-15.259 14.474-3.3403 1.4947-7.5616 1.7906-28.423 1.9921-17.727 0.17122-25.801-0.12429-29.208-1.0689z" fill="#95aaed"/>
 <path d="m18.363 251.08c-6.0705-2.7565-11.622-8.2273-14.674-14.46-2.6805-5.4743-2.6888-5.5621-2.6888-28.413v-22.922l8.0825-0.19481c5.0046-0.12062 8.6223 0.25321 9.5 0.98166 1.1344 0.94144 1.4175 5.0572 1.4175 20.604 0 20.839 0.60422 23.888 5.2604 26.548 1.7624 1.007 21.63 1.3491 93.24 1.6054 102.17 0.3658 110.28 0.12922 114.31-3.3377l2.6891-2.3111 0.30911-20.807c0.19686-13.251 0.70969-21.29 1.4121-22.136 0.78082-0.94083 3.5385-1.2754 9.4409-1.1453l8.3379 0.18377v23.168c0 22.846-0.0355 23.239-2.5572 28.299-2.9482 5.9163-8.8544 11.636-14.806 14.339-3.9642 1.8001-8.5452 1.8786-109.64 1.8786-101.09 0-105.67-0.0785-109.64-1.8786zm84.981-47.073c-8.9018-1.8592-17.267-8.1751-20.959-15.825-2.4081-4.9896-3.2161-19.352-3.3092-58.827l-0.075844-32.147-20.581-0.35267c-18.788-0.32194-20.701-0.5172-21.961-2.2408-1.0443-1.4284-1.1161-2.4023-0.29506-4 1.3886-2.7021 76.741-78.547 83.177-83.721 3.7513-3.0156 5.7094-3.8906 8.7066-3.8906 3.5402 0 4.905 0.95889 16.16 11.355 6.7614 6.245 26.608 25.849 44.104 43.565 27.597 27.945 31.769 32.565 31.5 34.884-0.41277 3.5575-3.5348 4.0653-25.449 4.139l-17.139 0.05763-0.38105 42.75c-0.37953 42.581-0.39042 42.769-2.7528 47.608-3.1497 6.4518-8.1888 11.328-15.002 14.517-5.4693 2.5599-6.0688 2.6187-28.586 2.806-12.65 0.10524-24.87-0.19929-27.156-0.67674z" fill="#8ca4eb"/>
 <path d="m20.372 251.79c-5.6222-1.811-12.52-7.9612-16.025-14.288l-3.3236-6-0.014258-23-0.014258-23 8.7429 0.3303c5.2411 0.198 9.041 0.7988 9.487 1.5 0.40924 0.64333 0.75097 9.9965 0.75939 20.785 0.01423 18.233 0.15939 19.798 2.0608 22.216 1.125 1.4302 3.7125 3.0634 5.75 3.6293 5.1028 1.4172 195.31 1.4172 200.41 0 2.0375-0.56588 4.625-2.1991 5.75-3.6293 1.9014-2.4172 2.0466-3.9821 2.0608-22.216 8e-3 -10.788 0.35015-20.142 0.75939-20.785 0.44605-0.7012 4.246-1.302 9.487-1.5l8.7429-0.3303-0.0143 23-0.0143 23-3.3236 6c-3.6757 6.6356-10.5 12.539-16.614 14.37-4.9755 1.4907-210.03 1.4123-214.67-0.0821zm76.628-49.865c-6.0398-2.7283-11.727-8.3426-14.61-14.423l-2.3707-5-0.02508-41.5c-0.0138-22.825-0.35569-41.994-0.75977-42.599-0.46635-0.69737-7.9098-1.3333-20.38-1.7411-10.805-0.35336-20.367-0.91962-21.25-1.2584-0.89031-0.34164-1.605-1.7467-1.605-3.1555 0-2.0047 8.0565-10.643 38.25-41.01 21.038-21.159 40.861-40.668 44.052-43.353 6.1387-5.1664 9.8814-6.1028 14.378-3.5975 3.3956 1.8919 46.844 44.328 68.137 66.549 18.783 19.602 21.301 23.139 17.506 24.595-0.92221 0.35389-10.485 0.91989-21.25 1.2578-12.455 0.39095-19.84 1.0141-20.308 1.7136-0.40408 0.60456-0.75146 19.774-0.77196 42.599-0.0355 39.537-0.13344 41.713-2.07 46-2.7283 6.0398-8.3426 11.727-14.423 14.61-4.8719 2.31-5.6788 2.3704-31.5 2.3585-24.485-0.0113-26.842-0.16678-31-2.045z" fill="#839dea"/>
 <path d="m20.165 251.09c-6.627-2.2887-13.185-8.5168-16.631-15.794-2.4758-5.229-2.5346-5.8678-2.5368-27.576l-0.002296-22.223 8.9023 0.3184 8.9023 0.31839 0.34996 21.009 0.34996 21.009 3.7353 3.4227 3.7353 3.4227h100.61c90.858 0 100.88-0.15668 103.35-1.6165 5.2786-3.1182 5.5416-4.3011 5.9063-26.565l0.33872-20.681 8.9158-0.31875 8.9158-0.31874-2e-3 22.562c-2e-3 20.841-0.16186 22.892-2.0934 26.89-3.3416 6.9162-10.346 13.693-16.554 16.016-5.3314 1.9947-7.3022 2.0312-108.14 1.9991-97.139-0.03087-103-0.13263-108.05-1.875zm75.703-50.357c-7.2752-3.7661-13.089-10.583-14.791-17.343-0.68144-2.7062-1.0772-19.164-1.0772-44.8 0-39.039-0.070767-40.56-1.9343-41.557-1.1381-0.60908-9.7318-1.0352-20.878-1.0352-20.496 0-22.143-0.41541-20.625-5.2002 1.1169-3.5189 82.213-84.106 86.733-86.189 7.3403-3.3819 6.6259-3.9497 52.335 41.596 23.172 23.09 42.703 43.049 43.401 44.353 1.0262 1.9175 1.0255 2.6653-4e-3 3.9057-1.0622 1.28-4.4108 1.5341-20.216 1.5341-11.146 0-19.739 0.42611-20.878 1.0352-1.8644 0.99779-1.9343 2.5264-1.9343 42.322 0 45.912-0.12178 46.92-6.5737 54.458-1.9058 2.2265-6.2283 5.429-9.6054 7.1166l-6.1403 3.0683h-51.506z" fill="#6b8ae6"/>
 <path d="m18.339 250.07c-5.2827-2.4078-11.393-8.4898-13.67-13.607-0.9709-2.1818-2.1935-4.7482-2.7168-5.7033s-0.95156-11.372-0.95156-23.149v-21.412l8.75 0.14875 8.75 0.14876 0.5 21.23 0.5 21.23 2.7684 2.7659c2.4555 2.4533 3.7553 2.8414 11.5 3.4332 11.533 0.88135 178.37 0.8785 188.97-3e-3 7.1783-0.59708 8.5984-1.0413 11-3.4407l2.7576-2.7554 0.5-21.23 0.5-21.23 8.75-0.14876 8.75-0.14875v22.399c0 12.319-0.39375 22.399-0.875 22.399s-1.1315 1.2826-1.445 2.8502c-0.8533 4.2665-6.6207 11.218-12.136 14.628l-4.8867 3.0214-106.58 0.23526c-102.79 0.22689-106.73 0.1678-110.74-1.6615zm84.396-47.117c-8.8476-2.1898-15.571-7.609-19.797-15.957-2.2353-4.4156-2.289-5.3068-2.8578-47.5l-0.57973-43-20.787-0.5c-22.234-0.53479-23.853-0.94509-21.499-5.4461 1.3928-2.6628 73.484-75.273 81.088-81.672 4.8022-4.0411 6.483-4.8823 9.7547-4.8823 3.7911 0 4.883 0.89583 26.698 21.904 32.224 31.032 64.245 64.429 64.245 67.005 0 1.15-0.1125 2.1539-0.25 2.231-0.1375 0.07706-9.7 0.41456-21.25 0.75l-21 0.60989-0.53832 43c-0.59791 47.76-0.43586 46.592-7.551 54.467-2.081 2.3035-6.0623 5.3817-8.8472 6.8406-5.0288 2.6343-5.2278 2.654-29.063 2.8667-13.2 0.11782-25.694-0.20517-27.766-0.71776z" fill="#587be3"/>
 <path d="m20.385 250.38c-8.3815-2.9725-17.269-13.716-17.456-21.1-0.062021-2.456-0.17134-2.5481-0.92971-0.78324-0.51644 1.2018-0.88841-6.7801-0.93205-20l-0.07262-22 8.3886 0.32025 8.3886 0.32025 0.39956 20.18c0.44552 22.501 1.0247 24.611 7.5001 27.316 4.9479 2.0674 199.83 2.017 204.78-0.0529 6.4864-2.7102 7.0043-4.6158 7.3972-27.218l0.35151-20.224 8.4008-0.32059 8.4008-0.3206-0.0177 22c-0.01 12.346-0.38796 21.416-0.86154 20.669-0.57404-0.90553-1.0438-0.081-1.4691 2.5784-1.1401 7.1297-9.2693 15.923-17.404 18.826-5.8208 2.0772-208.98 1.8972-214.87-0.19041zm77.094-49.74c-6.3813-2.9716-11.15-7.7401-14.121-14.121-2.334-5.0121-2.3381-5.0954-2.3479-47.212-0.007561-32.653-0.29235-42.371-1.2598-42.986-0.6875-0.4375-10.47-1.0266-21.738-1.309-18.936-0.47464-20.515-0.65413-20.844-2.3686-0.25518-1.333 11.279-13.519 40.988-43.304 22.739-22.797 42.823-42.372 44.63-43.499 7.0689-4.4087 6.3489-4.9759 53.525 42.17 30.436 30.416 42.763 43.366 42.514 44.663-0.32098 1.677-2.0226 1.868-20.838 2.3396-11.269 0.28246-21.051 0.87151-21.738 1.309-0.96567 0.61453-1.2673 10.392-1.3261 42.986-0.0535 29.646-0.42512 43.138-1.25 45.375-2.4539 6.6557-7.2249 11.935-13.717 15.18l-6.2765 3.1364-25.59-0.01c-24.715-9e-3 -25.762-0.0897-30.611-2.3479z" fill="#4b70e1"/>
 <path d="m19.355 249.55c-5.0489-2.1968-11.483-8.6543-14.002-14.053-2.2189-4.7549-2.3338-6.0683-2.3431-26.794l-0.0097689-21.794 7.25 0.29381 7.25 0.29381 0.5 20.5c0.53157 21.794 0.85903 23.321 5.7094 26.608 2.6919 1.8247 6.3793 1.8916 104.29 1.8916s101.6-0.0669 104.29-1.8916c4.8504-3.2878 5.1778-4.8139 5.7094-26.608l0.5-20.5 7.25-0.29381 7.25-0.29381-0.01 21.794c-9e-3 20.726-0.12414 22.039-2.3431 26.794-2.5784 5.5251-9.0436 11.932-14.225 14.097-4.9339 2.0615-212.32 2.0197-217.07-0.0438zm235.07-41.553c0-12.375 0.14355-17.438 0.319-11.25 0.17544 6.1875 0.17544 16.312 0 22.5-0.17545 6.1875-0.319 1.125-0.319-11.25zm-253-0.5c7.559e-4 -12.1 0.14516-16.913 0.32089-10.695 0.17573 6.218 0.17511 16.118-0.00137 22-0.17649 5.882-0.32027 0.79458-0.31952-11.305zm101.72-5.5292c-5.7188-1.1846-12.464-5.2091-15.582-9.2969-5.8583-7.6807-5.845-7.5696-6.4795-54.174l-0.58536-43-20.668-0.5c-11.367-0.275-21.001-0.83319-21.407-1.2404s-0.33105-1.6096 0.16785-2.672c1.317-2.8045 46.902-49.399 67.676-69.173 21.713-20.67 20.805-20.389 32.475-10.028 4.266 3.7874 23.844 23.074 43.506 42.86 30.325 30.515 37.305 38.264 35.5 39.413-0.1375 0.08748-9.7 0.42498-21.25 0.75l-21 0.59095-0.53087 43.5c-0.51482 42.185-0.59653 43.624-2.7022 47.616-3.4797 6.5968-6.9661 10.089-13.063 13.082-5.7035 2.8008-5.7065 2.8011-28.704 2.9873-12.65 0.10243-24.959-0.21954-27.353-0.71548z" fill="#4068e0"/>
</svg>
