<?xml version="1.0" encoding="UTF-8"?>
<!-- Created with Inkscape (http://www.inkscape.org/) -->
<svg width="418.67" height="418.67" version="1.1" viewBox="0 0 418.66666 418.66666" xmlns="http://www.w3.org/2000/svg" xmlns:cc="http://creativecommons.org/ns#" xmlns:dc="http://purl.org/dc/elements/1.1/" xmlns:rdf="http://www.w3.org/1999/02/22-rdf-syntax-ns#">
 <metadata>
  <rdf:RDF>
   <cc:Work rdf:about="">
    <dc:format>image/svg+xml</dc:format>
    <dc:type rdf:resource="http://purl.org/dc/dcmitype/StillImage"/>
    <dc:title/>
   </cc:Work>
  </rdf:RDF>
 </metadata>
 <g stroke-width="1.3333">
  <path d="m392.31 416.26c-3.2631-0.4905-62.366-33.843-65.604-37.022-1.5405-1.5119-1.8856-5.1373-1.61-16.916 0.32488-13.887 0.585-15.202 3.5319-17.846 3.7829-3.3937 22.353-13.813 24.618-13.813 2.4851 0 61.606 34.422 63.575 37.015 2.3661 3.1162 2.4802 34.742 0.1361 37.704-2.3767 3.0031-14.421 10.085-18.291 10.755-1.8333 0.3174-4.6937 0.3726-6.3564 0.12266zm-158.29-6.364c-5.8557-3.3447-10.927-6.3618-11.27-6.7048-1.1961-1.1961 0.11253-31.823 1.4274-33.407 1.3475-1.6237 58.871-34.925 65.384-37.851 3.2124-1.4436 4.6725-0.9941 14.927 4.5955 16.18 8.8198 17.182 10.405 16.627 26.325-0.36898 10.598-0.91907 13.391-3.1148 15.818-2.7332 3.0205-21.983 14.716-48 29.164-18.573 10.314-21.263 10.468-35.98 2.0619zm-176.13-57.031c-0.37968-0.98942-0.51085-5.9394-0.29149-11l0.39884-9.201h186.67l0.40816 7.9444c0.2245 4.3694 0.0631 9.3194-0.35873 11l-0.76689 3.0556h-92.683c-76.551 0-92.803-0.31311-93.373-1.799zm250.83-18.184c-6.5688-3.7152-12.415-7.4889-12.991-8.386-0.57617-0.89719-0.90173-19.303-0.72346-40.901l0.32413-39.27 5.0058-3.3971c2.7532-1.8684 8.8512-5.4714 13.551-8.0067l8.5454-4.6096 10.308 5.2763c5.6694 2.9019 12.021 6.867 14.115 8.8112l3.8074 3.535-0.0204 38.465c-0.0107 21.156-0.46123 39.156-1 40.001-1.5269 2.3942-21.52 13.844-25.456 14.579-2.5641 0.47842-6.7751-1.1817-15.467-6.0974zm-239.69-7.9632c-1.9097-1.5021-4.7884-5.4502-6.3972-8.7736-2.7123-5.6028-2.8074-6.6662-1.3073-14.616 0.88979-4.7157 2.4531-9.2673 3.4741-10.115 2.5365-2.1051 7.7425 0.15877 14.409 6.2658l5.1943 4.7586 3.297-4.2128c2.9694-3.7942 22.845-14.694 26.795-14.694 0.78981 0 2.3929 1.4605 3.5625 3.2455 1.1696 1.785 7.0843 6.7818 13.144 11.104l11.017 7.8585 2.8086-6.1039c1.5447-3.3572 5.1976-8.4306 8.1176-11.274 6.8524-6.6734 10.08-5.9857 17.701 3.7712 5.3596 6.8625 5.7628 7.1135 7.4816 4.6595 2.5398-3.6261 6.7512-3.2629 8.5748 0.73955 1.746 3.8321 2.7814 4.1159 5.049 1.3836 1.7462-2.1041 20.783-12.717 22.811-12.717 0.67702 0 1.231 3.0574 1.231 6.7942 0 4.7774 0.83602 7.9683 2.8164 10.75 2.7859 3.9124 2.8374 3.9255 4.7423 1.2058 1.9865-2.8362 8.935-3.8534 10.378-1.5193 0.41818 0.67661 1.3588 4.1266 2.0904 7.6667 0.73153 3.54 1.6815 8.0172 2.1111 9.9493 0.76785 3.4537 0.66105 3.5129-6.345 3.5176-8.9629 7e-3 -15.182-3.0791-22.139-10.983-5.0335-5.7184-5.384-5.8927-6.1442-3.0557-0.44342 1.6547-0.8144 5.8773-0.82442 9.3837-0.0245 8.5964-2.6556 9.4966-9.1685 3.1369-2.7292-2.665-5.3218-4.8454-5.7614-4.8454-0.43959 0-1.1714 1.4827-1.6262 3.2949-0.9183 3.6588-5.3256 6.632-8.1974 5.53-1.0231-0.3926-5.473-5.5864-9.8886-11.542-8.915-12.024-9.2568-11.982-11.233 1.3836-1.3344 9.0229-2.028 9.6379-9.465 8.3911-5.9554-0.99844-6.5479-1.4574-8.258-6.3969-1.0133-2.9267-2.5908-6.0699-3.5057-6.9847-2.5477-2.5477-24.778-6.9585-25.95-5.1488-0.52447 0.81-1.2559 5.0727-1.6255 9.4727-0.63296 7.5363-0.86514 7.9881-4.0052 7.7946-4.8389-0.29822-18.747-5.454-21.546-7.9871-2.777-2.5132-3.4338-1.5136-4.0691 6.1926-0.47156 5.7201-4.1661 6.7956-9.3464 2.7208zm-3.2623-50.648c-6.7559-1.6395-15.372-7.3185-22.235-14.656-10.511-11.238-10.522-11.292-11.799-58.751-0.62138-23.1-0.80272-43.884-0.40297-46.186 0.49583-2.856 1.6698-4.4392 3.694-4.9818 3.6842-0.9876 114.4-0.78809 184.68 0.3328 44.434 0.70863 52.588 1.139 53.727 2.8354 0.86019 1.2803 1.1743 18.073 0.87296 46.667-0.39944 37.9-0.80447 45.429-2.6736 49.701-3.0526 6.9762-14.1 17.345-23.287 21.856l-7.6904 3.7763-85.333 0.21583c-46.933 0.11867-87.234-0.24545-89.557-0.80924zm7.2734-18.781c1.4611-2.3395 1.2116-3.3357-1.8355-7.3306-6.5772-8.6232-7.0925-12.101-7.1554-48.295l-0.058524-33.667h-9.5891l0.4911 35.667c0.53826 39.092 1.0395 41.787 9.6723 52 4.2474 5.0251 6.127 5.3857 8.4751 1.6259zm210.38-75.388c-2.4047-2.4047-2.5886-9.3497-1.2101-45.691 0.66196-17.451 1.3485-23.591 2.8004-25.043 1.6257-1.6257 10.381-1.8653 56.561-1.5475 52.314 0.35992 54.718 0.48596 56.529 2.9641 1.4249 1.9496 1.8916 7.3035 1.8916 21.7v19.111l-3.6667 1.4342c-2.4464 0.95694-17.09 1.2493-44 0.8785l-40.333-0.55578v12.327c0 15.964-0.5132 16.517-15.333 16.517-8.3521 0-11.668-0.52476-13.238-2.0952zm-273.32-7.3485c-0.35475-1.0393-0.82442-3.365-1.0437-5.1683-0.27151-2.2327-1.4621-3.528-3.732-4.0601l-3.3333-0.78144v-54.546l10.164-0.38637c12.47-0.47402 11.793-2.037 11.818 27.3 0.02057 24.385-0.77396 28.03-6.2459 28.658-3.0458 0.3494-3.8164 1.1675-4.1718 4.4286-0.51159 4.6943-2.5088 7.3282-3.455 4.5563zm24.265-31.628c-1.155-0.22261-2.4534-1.7226-2.8853-3.3333-1.0271-3.8302-1.0137-23.41 0.01867-27.262l0.80397-3h121.02c114.15 0 121.06 0.13252 121.6 2.3333 0.9946 3.9911-0.86455 28.135-2.2705 29.485-1.194 1.1469-232.61 2.8724-238.29 1.7768zm28.96-15.595c0-6.5185-0.08889-6.6667-4-6.6667-3.6797 0-4.0338 0.41158-4.4222 5.1402-0.59725 7.2718 0.41786 9.1138 4.7479 8.6157 3.4639-0.39842 3.6742-0.80436 3.6742-7.0893zm29.116-38.752c-1.0056-2.6206 1.254-7.6486 6.3016-14.022 2.1536-2.7191 3.9156-5.8776 3.9156-7.0189s-2.7187-4.3476-6.0415-7.1251c-7.5183-6.2846-9.7985-12.576-7.4268-20.491 2.8236-9.4242 17.164-20.732 20.155-15.893 1.4203 2.2981 0.4255 4.7654-4.8974 12.147-6.0583 8.401-5.7523 10.977 2.211 18.612 5.5064 5.2795 6.6667 7.2021 6.6667 11.047 0 6.7269-1.587 10.006-8.638 17.849-6.303 7.0104-10.752 8.7887-12.246 4.8951zm49.15 0.48503c-3.5648-3.5647-1.0204-10.286 7.7142-20.378 2.9438-3.4013 5.3524-7.5023 5.3524-9.1133 0-1.8624-3.1795-5.9903-8.7315-11.336-4.8023-4.6238-9.3023-9.9083-10-11.743-3.2818-8.6318 0.0613-18.624 9.6488-28.839 3.2742-3.4884 5.6572-6.6384 5.2956-7-0.36156-0.36156 2.0784-0.65738 5.4222-0.65738 9.972 0 9.7477 3.5065-1.1228 17.554-8.3165 10.747-7.992 12.716 4.1544 25.197 8.9774 9.2252 9.997 10.803 9.9707 15.429-0.0419 7.3608-3.9403 14.592-13.021 24.153-7.7969 8.2092-11.506 9.9102-14.683 6.7333zm46.367-0.43948c-2.0582-2.48-0.46021-6.6042 5.4506-14.067 2.1536-2.7191 3.9123-5.7574 3.9084-6.7519-4e-3 -0.99447-2.9803-4.6768-6.614-8.183-7.6722-7.4028-9.3182-12.665-6.2551-19.996 2.9265-7.0042 12.543-16.963 16.379-16.963 5.2566 0 4.6761 4.869-1.6297 13.67-5.9964 8.3689-5.8684 11.804 0.63493 17.03 2.8463 2.2873 6.2561 6.1661 7.5773 8.6195 3.2975 6.123 1.2022 12.545-7.0755 21.686-6.5795 7.2657-9.4913 8.4316-12.376 4.9554z" fill="#cfcfcf"/>
  <path d="m393.33 416.33c-3.2203-1.0568-63.093-35.205-65.792-37.524-2.2266-1.9134-2.3697-3.4958-1.5194-16.793 0.51635-8.0742 1.5591-15.446 2.3172-16.382 1.7956-2.2169 22.74-13.632 25.012-13.632 1.9406 0 59.286 32.531 62.982 35.728 1.9885 1.7204 2.3333 4.465 2.3333 18.574 0 18.188 0.19867 17.681-9.2701 23.658-7.6764 4.8459-13.578 7.1862-16.063 6.3705zm-156-5.7797c-15.515-8.396-15.082-7.615-13.946-25.14l0.96797-14.935 4.8223-3.0348c13.385-8.4238 61.665-35.441 63.333-35.441 2.4698 0 20.572 10.144 24.489 13.724 2.7246 2.4895 3 3.9532 3 15.945 0 12.632-0.15862 13.361-3.6667 16.844-6.3665 6.3217-61.277 37.498-65.993 37.469-1.6536-0.0107-7.5066-2.454-13.007-5.4303zm-177.77-58.097c-0.4939-0.4939-0.89801-4.928-0.89801-9.8536 0-8.1602 0.26645-9.027 3-9.7596 1.65-0.44219 42.335-0.81217 90.412-0.82219 68.788-0.0143 87.907 0.3442 89.738 1.6828 1.8816 1.3758 2.2489 3.3511 1.9215 10.333l-0.40472 8.6324-91.435 0.34245c-50.289 0.18835-91.839-0.0617-92.333-0.55556zm250.29-18.18c-5.2154-3.0837-10.465-6.4302-11.667-7.4367-1.9324-1.6189-2.1842-6.3497-2.1842-41.029v-39.199l6.0189-3.8171c3.3104-2.0994 9.276-5.5224 13.257-7.6067l7.2381-3.7896 6.23 3.0268c3.4265 1.6647 9.4608 5.0935 13.41 7.6195l7.1797 4.5928v78.564l-4.3333 3.2005c-7.6862 5.6768-19.238 11.604-22.496 11.542-1.7441-0.0329-7.4381-2.5829-12.653-5.6667zm-242.13-10.571c-5.5349-5.9251-6.7178-9.791-5.6943-18.61 1.2009-10.347 3.0596-12.737 8.237-10.593 2.1757 0.9012 6.1134 3.7342 8.7505 6.2957l4.7948 4.6571 6.0598-6.0598c3.3329-3.3329 6.8256-6.0786 7.7616-6.1015 0.93596-0.0229 4.7018-1.5175 8.3684-3.3212 8.3028-4.0843 9.1816-4.0848 11.854-7e-3 1.1884 1.8137 6.616 6.3041 12.061 9.9786 5.4454 3.6745 10.277 7.2906 10.738 8.0356 1.5904 2.5733 3.0528 1.3383 3.9259-3.3154 0.57046-3.0408 3.3332-7.3098 7.9188-12.236 6.6664-7.162 7.1946-7.4599 9.8854-5.5752 1.5635 1.0951 5.3837 5.1148 8.4893 8.9326l5.6466 6.9414 2.8378-3.5589c3.0155-3.7818 3.4401-3.6335 7.8467 2.7412 1.7193 2.4872 1.9542 2.4307 6.925-1.6667 2.8299-2.3327 5.7693-4.2412 6.532-4.2412s3.5942-1.5 6.2921-3.3333c6.65-4.5188 7.7136-4.2309 7.7136 2.0877 0 5.5459 1.4518 9.4596 5.0317 13.565 1.9047 2.1841 2.2013 2.1259 5.0983-1 4.8368-5.219 8.2699-3.765 9.8823 4.1853 0.57586 2.8393 1.5026 7.2069 2.0593 9.7058 0.95421 4.2825 0.83485 4.497-2.0786 3.7351-1.7-0.44456-4.2259-0.20085-5.6132 0.54159-1.9439 1.0403-3.8399 0.57768-8.2682-2.0175-5.7599-3.375-14.112-11.769-14.112-14.182 0-0.70781-0.9-1.2869-2-1.2869-1.5881 0-2 1.9306-2 9.3752 0 11.891-1.9845 13.134-9.4029 5.8902-5.3888-5.2621-5.9898-5.2919-8.4624-0.41988-0.80742 1.591-2.4678 3.5168-3.6896 4.2796-2.9792 1.8599-5.0439 0.0133-13.46-12.041-3.7445-5.3631-7.2749-9.7511-7.8454-9.7511-0.98451 0-1.9402 3.166-4.6283 15.333-1.1602 5.2514-1.2699 5.3333-7.1406 5.3333-5.8405 0-6.0071-0.12133-8.1568-5.9415-2.7359-7.4073-5.6906-9.3968-16.956-11.418-4.9088-0.88052-9.776-1.835-10.816-2.121-2.786-0.76613-5.4002 5.2505-5.4227 12.48-0.0181 5.8205-0.28321 6.3333-3.2743 6.3333-1.79 0-3.5799-0.5262-3.9773-1.1693-0.39748-0.64314-3.4807-1.8638-6.8516-2.7126s-7.568-3.0961-9.3269-4.994l-3.198-3.4507-1.3624 3.5834c-0.74933 1.9709-1.3624 5.3444-1.3624 7.4966 0 5.407-4.3643 5.2326-9.6111-0.38416zm-5.2088-49.542c-6.3474-2.2683-11.476-6.0132-18.15-13.254-9.7575-10.586-10.129-11.944-11.183-40.907-1.6988-46.667-1.4592-64.776 0.88299-66.719 1.6625-1.3798 24.676-1.5532 118.4-0.89222 63.982 0.45126 117.27 1.1806 118.42 1.6208 3.1106 1.1937 3.9473 20.592 2.5912 60.081-0.93878 27.337-1.563 34.227-3.4282 37.834-3.4826 6.7345-13.194 15.446-22.284 19.988l-8.1815 4.0883-86.12-0.05854c-66.886-0.04546-87.197-0.44322-90.94-1.781zm11.185-16.676c1.9879-3.3652 2.0278-4.0522 0.3181-5.4712-1.0754-0.89249-3.4841-4.7477-5.3528-8.5671-3.2952-6.7352-3.4231-7.9963-4.2438-41.862l-0.84628-34.918h-8.9069v35.091c0 27.072 0.45017 36.607 1.97 41.725 1.9921 6.7081 10.219 17.85 13.18 17.85 0.88474 0 2.6316-1.7318 3.882-3.8485zm210.34-76.77c-2.4336-2.9323-1.4091-64.796 1.1235-67.845 1.646-1.9817 7.2152-2.2031 55.412-2.2031 40.85 0 54.084 0.39602 55.693 1.6667 1.6791 1.3253 2.2414 5.3835 2.7455 19.814 0.34867 9.9808 0.0833 19.131-0.58964 20.333-1.0948 1.9563-5.7779 2.1864-44.491 2.1864h-43.267v12.4c0 7.8667-0.58494 12.985-1.6 14-2.4257 2.4257-22.961 2.1368-25.027-0.3521zm-274.04-14.817c-0.73333-0.18217-2.9957-0.69824-5.0275-1.1468l-3.6942-0.8156 0.36084-26.968 0.36084-26.968 8.4497-0.39998c5.0819-0.24056 9.2005 0.22309 10.333 1.1633 2.4323 2.0187 2.7992 51.18 0.39299 52.667-1.9826 1.2253-9.4973 2.8843-11.176 2.4673zm23.667-24.72c-2.2482-2.3088-2.3049-28.007-0.06667-30.245 1.2204-1.2204 29.653-1.6 119.84-1.6 101.77 0 118.46 0.26975 119.84 1.9374 1.1667 1.4058 1.3468 5.6209 0.65612 15.362-0.52347 7.3836-1.3236 13.638-1.778 13.9-0.45441 0.26135-53.926 0.89863-118.83 1.4162-95.267 0.75971-118.32 0.61124-119.67-0.77057zm30.064-14.178l0.39696-8.3333h-9.4606v7.7778c0 8.8423 0.56428 9.8338 5.2834 9.2834 3.1693-0.3696 3.4083-0.92142 3.7802-8.7279zm29.603-40.546c0-1.5834 2.4-6.0576 5.3333-9.9428 2.9333-3.8852 5.3333-7.8727 5.3333-8.8611 0-0.98842-3.3-4.925-7.3333-8.7479-6.6434-6.2968-7.3327-7.4816-7.3265-12.593 0.0083-6.7998 4.1221-14.153 10.587-18.922 4.8795-3.6 7.4108-4.204 8.7227-2.0814 0.98609 1.5955-1.1265 5.7755-6.1759 12.219-5.204 6.6413-4.9557 10.79 0.9228 15.418 2.6014 2.0479 5.9814 5.7237 7.511 8.1683 2.4028 3.8402 2.5805 5.1098 1.3064 9.3333-0.81107 2.6887-4.2375 8.0385-7.6144 11.889-6.5067 7.4185-11.266 9.1595-11.266 4.1212zm48.168 0.5268c-1.7551-3.2794 0.8912-8.8018 8.349-17.423 3.3821-3.9099 6.1492-8.3668 6.1492-9.9043 0-1.6803-4.0526-6.9599-10.159-13.235l-10.159-10.44 0.56855-7.8602c0.48329-6.6814 1.3895-8.9476 6.0423-15.11 3.0106-3.9874 6.3979-8.1741 7.5274-9.3036 1.1296-1.1295 1.6823-2.4251 1.2283-2.8791-0.45396-0.45397 1.9746-0.8254 5.3968-0.8254 5.0389 0 6.2213 0.44373 6.2172 2.3333-5e-3 2.726-3.1604 8.1367-9.8641 16.919-6.8738 9.0053-6.422 11.343 4.3612 22.556 5.0374 5.2385 9.8519 10.862 10.699 12.497 2.9846 5.7608-0.87438 14.543-11.719 26.67-7.7814 8.7016-12.219 10.522-14.637 6.0049zm47.387 1.4632c-1.8943-1.8943-0.68673-5.1366 4.4444-11.933 2.9333-3.8852 5.3333-7.7854 5.3333-8.6673 0-0.88183-3.3-5.063-7.3333-9.2916-5.673-5.9476-7.3333-8.6283-7.3333-11.84 0-5.8266 4.1817-13.362 10.666-19.22 4.4476-4.0181 5.8976-4.6841 7.4299-3.4125 2.6664 2.2129 2.5453 2.6159-3.4263 11.407-2.9316 4.3156-5.3316 9.0671-5.3333 10.559-1e-3 1.5236 3.2106 5.8861 7.3302 9.9545 10.234 10.107 10.064 13.696-1.2823 27.095-4.8966 5.7824-8.3182 7.5263-10.495 5.3491z" fill="#afafaf"/>
  <path d="m236.67 409.51-12-6.4558-0.37354-15.282c-0.32423-13.265-0.0603-15.563 2-17.405 4.708-4.2096 63.563-37.363 66.269-37.33 2.7955 0.0345 17.269 7.6252 23.438 12.292 3.1667 2.3956 3.3333 3.1907 3.3333 15.906 0 13.108-0.0825 13.465-4 17.319-4.4798 4.4067-61.543 37.424-64.667 37.417-1.1-3e-3 -7.4-2.9098-14-6.4605zm122.97-12.427-32.975-18.92v-14.984c0-11.723 0.44752-15.432 2.0559-17.04 1.1307-1.1307 7.1572-4.8366 13.392-8.2353l11.336-6.1794 32.274 18.543 32.275 18.543 0.37434 17.087c0.42464 19.384 1.3642 17.486-12.591 25.43-4.5192 2.5727-9.3306 4.6776-10.692 4.6776-1.3615 0-17.314-8.5142-35.45-18.92zm-300.37-46.835c-0.42632-1.6986-0.58775-6.0486-0.35874-9.6667l0.41639-6.5783 91.249-0.34266c72.117-0.27082 91.472 9e-3 92.313 1.3333 1.6557 2.608 1.2905 14.957-0.49513 16.743-1.213 1.213-23.461 1.6-91.975 1.6h-90.375zm250.24-16.765c-6.1305-3.5545-11.671-7.2915-12.313-8.3044s-1.1757-18.749-1.1869-39.413c-0.0172-31.672 0.29425-37.886 1.9837-39.576 3.4367-3.4367 21.505-12.853 24.663-12.853 3.996 0 22.099 10.071 24.65 13.714 1.6816 2.4008 2.0166 8.9893 2.0166 39.661 0 27.413-0.42455 37.319-1.6667 38.889-2.212 2.797-22.388 14.41-24.972 14.373-1.1153-0.0159-7.0438-2.9371-13.174-6.4916zm-242.15-11.079c-4.9161-5.689-4.9498-5.8089-4.3567-15.471 0.32876-5.3557 1.2419-10.382 2.0292-11.169 2.2751-2.2751 7.3596-0.25142 13.955 5.5544l6.1064 5.3751 2.8516-4.6139c1.9388-3.1371 5.2834-5.7206 10.449-8.0715 4.1787-1.9016 9.3036-4.3976 11.389-5.5464 3.697-2.037 3.9123-1.9724 8.6667 2.5998 2.6815 2.5788 9.3754 8.0621 14.875 12.185l10 7.4963 1.2851-4.9072c1.3505-5.157 13.065-19.165 16.027-19.165 1.7133 0 8.1882 6.7384 13.536 14.087l2.8478 3.9133 1.6995-3.6667c2.1102-4.5527 4.3169-4.6556 7.1489-0.33334 2.3618 3.6046 5.4395 4.37 6.4964 1.6157 0.64574-1.6828 18.392-11.616 20.752-11.616 0.65923 0 1.138 2.3122 1.0639 5.1381-0.0903 3.4428 0.95597 6.7393 3.1709 9.9909 3.7914 5.5659 5.304 5.9815 7.7156 2.12 3.0994-4.9628 7.1772-2.8213 9.0467 4.751 0.90524 3.6667 2.0678 8.0167 2.5835 9.6667 1.0364 3.3159 0.3444 3.6564-3.3801 1.6631-1.6699-0.8937-2.772-0.8937-3.3244 0-2.511 4.063-16.154-3.7882-21.615-12.439-3.1946-5.0605-3.5066-5.2326-5.2258-2.8816-1.052 1.4388-1.8283 5.7887-1.8283 10.246 0 6.7152-0.33624 7.7452-2.5286 7.7452-1.3907 0-4.399-2.1303-6.685-4.734-3.9873-4.5413-6.7864-5.0919-6.7864-1.335 0 0.97548-1.153 3.1901-2.5622 4.9213l-2.5622 3.1477-4.1388-3.949c-2.2763-2.172-6.6373-7.722-9.6911-12.333-3.0538-4.6114-5.9919-8.3843-6.529-8.3843-1.2313 0-3.513 6.9899-4.6186 14.149-1.2103 7.837-1.942 8.5588-7.7254 7.6203-3.8543-0.62547-5.3484-1.643-6.306-4.2947-2.6686-7.3892-4.4713-9.4783-9.7423-11.29-8.4971-2.92-21.202-4.9748-22.532-3.6443-0.65111 0.6511-1.6142 4.8342-2.1403 9.2959-0.52607 4.4616-1.3864 8.542-1.9119 9.0675-0.52547 0.52548-2.587 7e-3 -4.581-1.1539-1.9941-1.1601-5.59-2.5294-7.9909-3.0429s-6.1762-2.4574-8.3896-4.3199c-2.2134-1.8624-4.4243-2.9864-4.913-2.4977-0.48874 0.48873-1.2134 3.7065-1.6104 7.1507-0.96039 8.3327-3.6764 8.7011-10.021 1.3592zm21.789-47.592-27.51-0.80777-7.5267-5.1875c-4.1397-2.8531-9.3188-7.4502-11.509-10.216-8.1529-10.294-8.2782-11.135-8.9889-60.342l-0.65107-45.079 118.9 0.41205c103.87 0.35999 119.07 0.66487 120.28 2.4121 1.8582 2.6859 0.45074 85.417-1.5744 92.54-2.009 7.0659-13.769 18.62-23.55 23.137l-7.691 3.552-61.333 0.19316c-33.733 0.10627-73.713-0.17036-88.843-0.61464zm-13.775-18.96c0.50459-1.5898-0.64439-4.2528-3.2321-7.4908-2.2082-2.7633-4.6306-7.7241-5.3829-11.024s-1.3826-20.51-1.4006-38.243c-0.03177-31.433-0.10208-32.266-2.7955-33.12-1.5196-0.48229-4.2688-0.49895-6.1094-0.0369l-3.3465 0.8399 0.46768 36.947c0.45265 35.76 0.56984 37.155 3.6465 43.402 1.7483 3.55 5.1917 8.5888 7.6519 11.197 4.3317 4.5929 4.5561 4.6679 7.0955 2.3697 1.4423-1.3053 2.9747-3.4832 3.4053-4.84zm208.64-107.51c0.012-18.621 0.57484-33.871 1.2928-35 1.1012-1.731 8.5652-1.9662 55.498-1.7485 35.124 0.16289 54.71 0.73571 55.6 1.6262 0.80486 0.80486 1.4191 9.2671 1.4819 20.415l0.10718 19.041-43.266 0.35216c-32.576 0.26515-43.525 0.7593-44.313 2-0.57565 0.90631-1.0558 7.1978-1.0671 13.981l-0.0204 12.333h-25.333l0.0204-33zm-278.35 16.031-4.3333-0.53302v-53.164h20v25.921c0 14.257-0.45 26.178-1 26.492-1.889 1.0772-10.337 1.8171-14.667 1.2845zm27.667-38.364v-15.333h240v12.754c0 7.0149-0.62111 13.915-1.3802 15.333-1.3487 2.5201-4.0887 2.579-120 2.579h-118.62zm31.333 1.3333v-8h-10.667l-0.41308 6.4972c-0.58571 9.2125 0.14541 10.407 6.069 9.9172l5.0107-0.41445zm29.556-38.889c-1.7433-1.7433-0.81692-4.0593 4.4444-11.111 2.9333-3.9316 5.3333-8.0711 5.3333-9.1989 0-1.1278-3.05-5.139-6.7778-8.9136-6.1374-6.2146-6.7778-7.4328-6.7778-12.893 0-7.1899 2.6295-12.75 8.2766-17.502 4.5146-3.7988 9.2789-4.6174 9.2789-1.5943 0 1.0438-2.0336 4.562-4.5191 7.8183-7.319 9.5885-7.2717 10.418 1.1163 19.542 10.411 11.325 10.008 16.575-2.2878 29.742-4.6216 4.9492-6.3635 5.8347-8.0871 4.1111zm48.459-1.0938c-2.4297-2.9276-0.74494-7.4786 5.3185-14.367 7.2365-8.2211 9.5269-12.798 7.9131-15.814-0.69978-1.3076-4.5173-5.4463-8.4834-9.1973-14.232-13.46-14.732-21.465-2.3631-37.807 7.1184-9.4047 7.9269-10.046 12.745-10.104 4.9496-0.059695 5.1106 0.076855 4.2498 3.6046-0.49209 2.0167-3.5868 7.1557-6.8772 11.42-10.584 13.717-10.453 15.773 1.7043 26.721 11.469 10.329 13.167 15.534 8.4552 25.917-2.7795 6.1242-16.669 21.609-19.383 21.609-0.89857 0-2.3742-0.89221-3.2792-1.9827zm47.023 0.48688c-1.921-1.921-0.9376-4.4577 4.534-11.696 2.4357-3.2221 4.4285-6.9436 4.4285-8.2698 0-1.3263-3-5.4114-6.6667-9.0781-5.9574-5.9574-6.6667-7.284-6.6667-12.469 0-8.7463 9.5065-22.325 15.63-22.325 2.8633 0 1.9058 4.6537-2.0934 10.174-8.4426 11.655-8.4402 11.677 2.354 22.821 7.3592 7.5976 8.0713 10.395 4.3868 17.229-2.4998 4.6366-11.786 15.109-13.398 15.109-0.55711 0-1.686-0.67311-2.5087-1.4958z" fill="#919191"/>
  <path d="m361.24 397.36c-17.916-10.25-33.12-19.468-33.786-20.484-0.72582-1.1068-0.72582-7.6629 0-16.363l1.211-14.516 11.333-6.3262c6.2333-3.4794 12.152-6.3294 13.152-6.3333 1.0004-4e-3 16.15 8.1692 33.667 18.162l31.848 18.169-4e-3 16.831-4e-3 16.831-11.064 6.3333c-6.0854 3.4833-11.675 6.3333-12.42 6.3333s-16.015-8.3866-33.931-18.637zm-125.91 10.873c-10.609-6.301-10.669-6.3674-11.028-12.285-0.1989-3.2726 0.10107-10.366 0.66667-15.764l1.0283-9.8134 32-18.483c17.6-10.165 33.095-18.499 34.434-18.52 2.4625-0.0379 19.602 9.3009 23.899 13.022 1.9288 1.6701 2.3333 4.307 2.3333 15.208 0 11.974-0.28156 13.469-3.0593 16.247-6.5448 6.5448-60.835 36.837-65.902 36.772-2.0377-0.0263-8.505-2.8988-14.372-6.3832zm-173.74-56.044c-1.2054-0.76457-1.6128-3.7121-1.3333-9.6462l0.40246-8.5453h181.33l0.40245 8.5453c0.27949 5.9342-0.12787 8.8817-1.3333 9.6462-2.2683 1.4388-177.2 1.4388-179.47 0zm247.07-19.94-10.667-6.4063v-79.827l11.333-6.3354c6.2333-3.4845 12.233-6.3354 13.333-6.3354s7.1 2.8509 13.333 6.3354l11.333 6.3354v79.982l-10.667 6.3281c-5.8667 3.4805-12.167 6.3286-14 6.3291-1.8333 5.3e-4 -8.1333-2.8819-14-6.4054zm-241.18-10.922c-3.7573-4.1588-4.8148-6.4402-4.79-10.333 0.03285-5.1608 1.8822-14.688 3.0845-15.89 1.4903-1.4903 6.9918 1.5118 12.903 7.041l6.2221 5.82 3.2127-4.9414c1.767-2.7178 4.7127-5.6977 6.546-6.6221 6.4227-3.2384 18.267-8.4035 19.27-8.4035 0.55703 0 2.2049 1.5155 3.6619 3.3678 1.457 1.8523 6.3434 5.8381 10.859 8.8574 4.5152 3.0193 9.5151 6.6666 11.111 8.1053 3.4006 3.0658 5.7654 2.1268 5.7654-2.2893 0-2.9999 7.6261-13.9 12.582-17.985 2.1419-1.7651 2.9302-1.336 8.5732 4.6667 3.418 3.6358 7.1703 8.0968 8.3385 9.9134l2.124 3.3029 2.3545-4.553 2.3544-4.553 3.6758 4.5038 3.6758 4.5038 4.3593-3.6681c2.3976-2.0175 7.8699-5.4403 12.161-7.6062l7.8013-3.9381v4.7735c0 5.2684 1.5979 9.059 5.7324 13.598 3.3376 3.6644 4.5131 3.7609 5.5619 0.4565 1.0044-3.1647 4.4992-4.6212 6.7018-2.7931 0.91195 0.75684 2.0046 3.6172 2.4282 6.3563 0.42354 2.7391 1.1892 6.3985 1.7014 8.132 0.82399 2.7885 0.59405 3.0448-1.9945 2.2232-1.6426-0.52133-3.733-0.25876-4.7661 0.59863-1.4001 1.1619-2.7817 1.0404-5.7762-0.5081-5.9289-3.066-12.112-8.6542-14.338-12.958-2.1813-4.2182-5.1786-5.0242-6.4419-1.7321-0.44513 1.16-0.80932 5.3246-0.80932 9.2546s-0.65596 7.551-1.4577 8.0465c-0.80173 0.49549-4.059-1.6521-7.2384-4.7724l-5.7807-5.6733-2.0348 4.8698c-2.2772 5.45-5.2465 7.2463-8.0846 4.8909-1.0425-0.86523-5.057-6.3045-8.9211-12.087-8.982-13.442-9.3449-13.206-13.926 9.0625-0.52085 2.5316-1.344 2.96-4.9725 2.5878-5.8774-0.60296-7.2278-1.6321-8.2503-6.2874-1.559-7.098-7.4448-9.9463-26.233-12.695l-6.233-0.91189-1.4262 5.1363c-0.78442 2.825-1.4296 7.0864-1.4336 9.4697-8e-3 4.8998-1.6416 5.4082-7.5217 2.3416-2.1005-1.0955-4.8482-1.9955-6.106-2-1.2578-4e-3 -4.4572-1.9137-7.1097-4.2427-5.5426-4.8665-6.6284-4.1604-8.0491 5.2345-0.49035 3.2424-1.5814 5.6667-2.5504 5.6667-0.9314 0-3.8633-2.4017-6.5153-5.3372zm-3.8031-47.99c-5.8048-1.7479-12.27-6.2288-18.077-12.529-9.7569-10.585-9.9785-11.47-11.224-44.81-0.6165-16.5-0.95508-37.2-0.7524-46l0.3685-16 74.667-0.31794c41.067-0.17485 94.467 0.1252 118.67 0.66667l44 0.9846 1.0938 10c1.72 15.725-0.90935 81.153-3.4595 86.085-3.1137 6.0212-14.779 16.306-22.651 19.971l-6.9832 3.2512-86-0.1016c-47.3-0.0559-87.642-0.59587-89.648-1.2zm10.761-14.949 2.7079-4.2769-4.4794-6.1022c-2.4637-3.3562-4.8988-7.7732-5.4114-9.8155-0.5126-2.0424-1.3065-19.122-1.7643-37.954l-0.83227-34.241h-10.667l-0.35596 35.248c-0.41221 40.818 0.31201 45.207 9.1101 55.202 3.0099 3.4194 6.2626 6.2171 7.2283 6.2171 0.96566 0 2.9743-1.9246 4.4637-4.2769zm210.09-78.915c-1.1446-2.9827-0.0255-63.901 1.2089-65.808 0.83384-1.2884 13.242-1.662 54.667-1.6462 29.473 0.0112 54.248 0.46122 55.054 1 1.7118 1.1436 3.5811 36.206 2.0614 38.665-0.73682 1.1922-12.222 1.7014-44.261 1.9621l-43.266 0.35216-0.66667 13.333-0.66667 13.333-11.688 0.38556c-9.3157 0.3073-11.841-0.0133-12.442-1.5774zm-283.2-42.2v-26.725l9.6667 0.39174 9.6667 0.39175 0.36362 25.236c0.27806 19.298-0.03569 25.489-1.3333 26.313-0.93332 0.59235-5.447 1.0862-10.03 1.0974l-8.3333 0.02042zm32.648 2.4918c-0.41294-1.0761-0.57777-7.9138-0.3663-15.195l0.38449-13.238h238.67l-0.31077 13.244c-0.17092 7.2843-0.77092 13.688-1.3333 14.229-0.5624 0.54194-53.958 1.4198-118.66 1.9509-102.78 0.8436-117.73 0.71847-118.38-0.99102zm29.754-3.5752c1.2054-0.76457 1.6128-3.7121 1.3333-9.6462l-0.40246-8.5452h-10.667l-0.40246 8.5452c-0.42269 8.9749 0.52321 10.747 5.7358 10.747 1.4667 0 3.4478-0.49544 4.4025-1.101zm30.931-50.294c0-1.1564 2.4-5.454 5.3333-9.5504 2.9333-4.0964 5.3333-8.1207 5.3333-8.9431s-3.3-4.7542-7.3333-8.7374c-6.3543-6.2754-7.3333-7.9247-7.3333-12.354 0-2.8115 0.86935-6.7929 1.9319-8.8476 1.9551-3.7808 10.6-12.132 12.559-12.132 3.7902 0 2.4085 4.1054-4.0288 11.97-5.5431 6.7725-4.9534 9.9077 3.538 18.81 4.0333 4.2285 7.3333 8.652 7.3333 9.83 0 3.7993-3.564 10.58-8.6147 16.389-5.045 5.803-8.7186 7.3048-8.7186 3.5642zm47.619 0.36598c-1.0657-2.7772 2.2746-9.0481 8.8985-16.706 3.3821-3.9099 6.1492-8.3668 6.1492-9.9043 0-1.6764-4.003-6.9088-10-13.071-9.9999-10.276-10-10.276-10-17.649 0-6.8745 0.4956-8.0269 7.3333-17.052 4.0333-5.3238 7.3333-10.175 7.3333-10.78 0-0.60538 2.4404-1.1007 5.4232-1.1007 5.0111 0 5.3524 0.22794 4.4917 3-0.9709 3.1271-3.5168 7.0516-10.878 16.769-6.414 8.4667-5.8741 10.951 4.7886 22.04 11.859 12.332 12.629 13.871 10.728 21.42-1.8783 7.4592-16.365 24.753-20.745 24.764-1.5716 0.0039-3.1572-0.77436-3.5237-1.7294zm47.048-0.47568c0-1.2167 2.4-5.391 5.3333-9.2761 2.9333-3.8852 5.3333-7.7854 5.3333-8.6673 0-0.88183-3.3-5.063-7.3333-9.2916-8.2908-8.6921-9.1383-12.454-4.7452-21.066 4.2717-8.3733 14.745-16.131 14.745-10.922 0 0.59108-2.3986 4.6057-5.3302 8.9213-2.9316 4.3156-5.3316 9.0671-5.3333 10.559-1e-3 1.5236 3.2106 5.8861 7.3302 9.9545 10.118 9.9921 9.9977 13.993-0.79457 26.461-4.928 5.6933-9.2054 7.2392-9.2054 3.327z" fill="#6e6e6e"/>
  <path d="m363.23 397.87c-17.543-9.9659-32.843-19.114-33.999-20.33-1.7504-1.8392-1.974-4.5475-1.3333-16.152l0.76975-13.942 5.329-3.6123c2.931-1.9868 8.5106-5.2233 12.399-7.1923l7.0702-3.58 32.548 18.468 32.548 18.468 0.0421 16.667c0.0404 15.969-0.0831 16.727-2.9475 18.111-1.6443 0.79437-6.9363 3.6427-11.76 6.3295l-8.7705 4.8852zm-126.56 10.582c-5.8667-3.3899-10.952-6.4142-11.3-6.7206-0.34844-0.30641-0.46966-6.972-0.26937-14.812 0.31653-12.391 0.71611-14.554 3.0553-16.541 3.3435-2.8393 63.064-37.048 64.675-37.047 1.8338 1e-3 23.618 13.234 24.769 15.046 0.5661 0.89085 1.0385 6.8603 1.0497 13.265 0.0191 10.855-0.22852 11.918-3.6463 15.665-4.3817 4.803-61.024 37.367-64.936 37.332-1.5018-0.0133-7.5305-2.7976-13.397-6.1876zm-176.12-58.282c-0.38948-1.015-0.52226-4.7692-0.29507-8.3427l0.41308-6.4972h181.33v16l-90.372 0.34266c-75.966 0.28804-90.484 0.0485-91.08-1.5027zm249.45-17.739c-5.8667-3.4015-11.107-6.8406-11.646-7.6426-0.53877-0.80195-0.98877-18.315-1-38.918-0.0235-42.995-1.5566-38.167 14.975-47.158l10.329-5.6178 10.338 5.5638c16.502 8.8816 15.004 4.1443 15.004 47.451 0 31.766-0.31536 38.013-2.0041 39.702-2.7714 2.7714-21.244 12.858-23.493 12.829-1.0097-0.0133-6.6358-2.8071-12.503-6.2086zm-241.35-10.025c-5.3434-6.3503-6.2404-9.7707-4.7197-17.997 0.73535-3.9779 1.6948-7.8115 2.1322-8.5192 1.0791-1.7461 10.811 3.8517 14.674 8.441 3.086 3.6655 5.9258 4.8059 5.9258 2.3797 0-3.01 8.4234-10.511 14.302-12.735 3.5006-1.3247 7.7926-3.3316 9.5377-4.4598 2.9752-1.9235 3.351-1.8441 6.0335 1.2745 1.5734 1.8291 7.4352 6.7088 13.026 10.844 5.5912 4.1348 10.561 8.1582 11.045 8.9409 1.8884 3.0555 4.411 1.2365 5.2094-3.7563 0.87396-5.4655 11.423-18.821 14.866-18.821 2.0009 0 10.854 9.7607 13 14.333 1.8461 3.9328 4.1856 3.8044 6.0709-0.33333 0.83532-1.8333 2.0302-3.3333 2.6554-3.3333s1.9394 1.5 2.9206 3.3333c2.1798 4.0729 5.4125 4.2644 8.7934 0.52088 2.1776-2.4112 16.439-10.521 18.502-10.521 0.38758 0 0.70469 2.1792 0.70469 4.8426 0 5.3366 4.1417 13.092 8.1318 15.228 2.1346 1.1424 2.7742 0.80713 3.8478-2.0169 1.7968-4.7258 6.3987-4.5516 7.3842 0.27968 0.4114 2.0167 1.2851 5.6768 1.9416 8.1336 1.1093 4.1513 0.99245 4.4143-1.6532 3.7225-1.5658-0.40945-3.6275-0.0965-4.5817 0.69534-3.6372 3.0186-17.571-6.7673-20.462-14.371-2.8839-7.5852-7.9168-0.088-7.9345 11.819-9e-3 6.451-2.6738 6.5706-7.4312 0.33333-4.4722-5.8634-6.6313-5.8932-8.5374-0.11787-1.9864 6.0189-4.354 6.683-8.3799 2.3507-4.1086-4.4214-12.992-17.446-12.992-19.049 0-1.5843-3.6369-1.5166-4.6275 0.0861-0.43166 0.69844-1.8611 5.6484-3.1766 11-1.3394 5.4488-3.082 9.6714-3.9605 9.5968-0.86282-0.0733-2.9872-0.22334-4.7209-0.33334-2.4375-0.15465-3.6742-1.5668-5.4544-6.2284-1.4758-3.8642-3.6309-6.7154-6.0032-7.9422-3.2974-1.7051-16.334-4.5848-23.323-5.1518-3.411-0.27672-6.0224 4.9241-6.0475 12.044-0.0207 5.8843-1.7218 8.1943-4.4114 5.9905-0.88454-0.72476-4.2272-2.0181-7.4282-2.8741-3.201-0.856-7.2782-3.0147-9.0606-4.797-1.7824-1.7823-3.8282-3.2406-4.5464-3.2406-1.7549 0-3.9064 5.9225-3.9064 10.753 0 5.1894-2.7997 5.058-7.346-0.34497zm-3.0066-49.028c-8.9986-2.1736-22.173-13.427-27.371-23.38-2.5849-4.9496-2.8595-8.4401-3.8162-48.51-0.72416-30.331-0.60058-43.981 0.41538-45.879 1.4416-2.6936 1.8199-2.6993 117.56-1.7593 84.732 0.68817 116.61 1.36 117.97 2.4859 1.5383 1.2767 1.7775 9.0288 1.3862 44.936-0.46066 42.277-0.55284 43.556-3.5829 49.723-3.5331 7.1907-11.124 14.265-20.876 19.455l-6.6667 3.5482-85.333 0.21582c-46.933 0.11867-87.292-0.25728-89.686-0.83553zm11.094-17.616c0.50404-1.5881-0.49433-4.0036-2.7749-6.714-6.295-7.4812-6.5772-9.3031-7.2883-47.05l-0.6782-36h-13.333v73.397l4.3764 8.8861c2.407 4.8873 6.2375 10.452 8.5122 12.366l4.1358 3.4801 3.1316-2.942c1.7224-1.6181 3.4859-4.0582 3.9189-5.4225zm208.57-76.452c-2.1013-2.5319-0.55878-62.97 1.6765-65.689 1.1106-1.3508 12.579-1.6309 54.59-1.3333 45.543 0.32256 53.365 0.664 54.447 2.3767 0.69488 1.1 1.2726 9.9096 1.2838 19.577 0.0181 15.589-0.24345 17.658-2.3129 18.292-1.2833 0.39319-20.333 0.51022-42.333 0.26006-22-0.25015-40.75-0.16723-41.667 0.18428-1.1661 0.44717-1.6667 4.3203-1.6667 12.896 0 7.7557-0.58761 12.845-1.6 13.857-2.4442 2.4442-20.318 2.1086-22.417-0.42088zm-283.98-41.968-0.0018754-26.011 9.6685 0.66667 9.6685 0.66666 0.32998 23.333c0.18149 12.833-0.18566 24.135-0.81588 25.114-0.7386 1.1479-4.2916 1.8627-9.9966 2.0112l-8.8508 0.23042zm33.17 1.7898c-0.69928-0.84281-1.0981-7.1428-0.88627-14l0.38514-12.468h238.56l-0.38276 12.667c-0.2105 6.9667-0.78634 13.069-1.2796 13.562-0.49329 0.49232-53.598 1.0923-118.01 1.3333-87.06 0.32575-117.44 0.0449-118.39-1.0942zm31.557-4.8893c0.42632-1.6986 0.58775-6.0486 0.35874-9.6667l-0.41639-6.5783-5.8679-0.41983c-7.073-0.50605-8.0841 0.71795-8.1117 9.8198-0.02441 8.0505 1.5338 9.9333 8.2208 9.9333 4.1587 0 5.177-0.54065 5.8164-3.0884zm29.525-47.107c-1.5163-1.5163-1.1346-2.3636 4.4173-9.8049 2.9333-3.9316 5.3333-8.3335 5.3333-9.782 0-1.4563-2.9964-5.3885-6.7023-8.7955-7.9702-7.3274-9.5889-12.929-5.951-20.596 2.5013-5.271 9.0462-11.494 12.089-11.494 2.9266 0 2.303 1.9314-2.769 8.5761-6.6325 8.689-6.2744 12.36 2 20.505 7.2733 7.1595 8.4328 11.687 4.7766 18.652-2.4669 4.6993-12.015 13.918-13.194 12.739zm47.704-0.54735c-1.6289-2.6356 0.59136-7.2423 7.3255-15.2 8.9767-10.607 9.0817-14.469 0.58278-21.433-16.72-13.701-17.994-23.43-5.116-39.072 3.2566-3.9558 5.9212-8.0235 5.9212-9.0392 0-1.2641 1.6738-1.8468 5.3047-1.8468 5.2717 0 5.2952 0.022865 3.7638 3.6667-0.84751 2.0167-4.4346 7.5352-7.9714 12.264-9.3595 12.513-9.0476 14.911 3.5695 27.446 8.5845 8.5289 10 10.585 10 14.526 0 7.0581-2.0097 10.919-10.879 20.898-7.9646 8.9616-10.718 10.677-12.502 7.7908zm46.936 0.52022c-1.4862-1.4862-1.0877-2.363 4.4444-9.7778 6.7434-9.0382 6.7704-11.971 0.15823-17.208-2.8463-2.2543-6.204-6.267-7.4616-8.9172-2.1217-4.4712-2.1318-5.2235-0.13975-10.44 2.2439-5.8756 10.062-15.435 12.623-15.435 2.6532 0 1.5842 3.3937-3.1798 10.094-6.583 9.2591-6.1981 12.316 2.6667 21.181 4.1685 4.1685 7.3333 8.5253 7.3333 10.095 0 4.0732-3.6542 10.628-9.0842 16.296-4.9223 5.1377-5.8278 5.6435-7.3603 4.1111z" fill="#515151"/>
  <path d="m248 413.62c-1.1-0.36715-6.65-3.3335-12.333-6.5919l-10.333-5.9244 0.012-8.2166c7e-3 -4.5192 0.37849-11.27 0.82693-15.002l0.81535-6.7851 31.642-18.215c17.403-10.018 32.781-18.193 34.173-18.167 1.3919 0.0263 7.3308 2.9009 13.197 6.388l10.667 6.3401 0.3802 13.632c0.36363 13.038 0.23586 13.766-2.9299 16.7-3.4017 3.1526-55.339 33.26-60.973 35.345-1.7292 0.63998-4.044 0.86321-5.144 0.49608zm112.33-17.902-32.333-18.728 0.012-8.1595c7e-3 -4.4877 0.38784-11.292 0.8477-15.12l0.83612-6.9604 10.66-6.0396c5.8626-3.3218 11.559-6.0396 12.658-6.0396s15.643 7.8 32.32 17.333c16.677 9.5333 30.999 17.333 31.828 17.333 1.0415 0 1.5057 5.3436 1.5057 17.333 0 13.904-0.36649 17.333-1.8522 17.333-1.0187 0-5.9592 2.4-10.979 5.3333-5.0197 2.9333-10.036 5.2828-11.148 5.221-1.1116-0.0617-16.571-8.54-34.354-18.84zm-298.72-45.304c-1.7203-1.7203-2.0872-7.8237-0.76654-12.752l0.80641-3.0093 89.509 0.34267 89.509 0.34267v16l-88.724 0.34269c-67.9 0.26227-89.102-0.0351-90.333-1.2667zm247.37-19.157-10.353-6.0328 0.35309-39.412 0.35308-39.412l11.667-6.1981 11.667-6.1981 11.667 6.1981 11.667 6.1981 0.35308 39.412 0.3531 39.412-10.353 6.0328c-5.6942 3.318-11.853 6.0328-13.686 6.0328s-7.9922-2.7147-13.686-6.0328zm-240.84-10.632c-3.3238-3.7856-4.1071-5.819-3.9804-10.333 0.24242-8.6368 1.6481-13.546 4.0088-14.001 1.1803-0.22731 5.5464 2.6946 9.7026 6.4931 4.1562 3.7985 7.8884 6.5746 8.2938 6.1692 0.40546-0.40546 1.7347-2.7347 2.9538-5.176 2.1631-4.3316 5.6402-6.6091 18.712-12.256l5.75-2.484 4.8772 4.5932c2.6824 2.5262 8.9272 7.4244 13.877 10.885s9 6.8612 9 7.5575 0.87281 1.266 1.9396 1.266c1.1974 0 2.2731-1.9131 2.8112-5 0.93991-5.3916 5.3785-12.778 10.661-17.74l3.2952-3.0957 5.1779 5.0561c2.8479 2.7808 6.2753 7.0939 7.6166 9.5845 2.188 4.0628 5.8323 6.2185 5.8323 3.4499 0-0.59317 0.84876-2.2392 1.8861-3.6579 1.8309-2.5039 1.9703-2.4724 4.7634 1.0785 3.4126 4.3384 5.4502 4.6061 7.6954 1.011 1.3682-2.1909 15.903-10.686 18.284-10.686 0.38759 0 0.7047 1.5394 0.7047 3.421 0 4.2109 1.9398 8.1171 6.4124 12.912 4.1516 4.4512 5.878 4.6026 7.6048 0.66667 2.166-4.937 5.1306-3.6548 6.2132 2.6872 0.53397 3.1279 1.3944 6.3724 1.9121 7.21 0.63615 1.0293 0.0252 1.2834-1.8849 0.78384-1.6112-0.42135-3.489 0.0596-4.3681 1.1189-1.3 1.5664-2.3778 1.3882-6.8686-1.1358-5.8819-3.3058-13.021-10.745-13.021-13.568 0-0.99602-0.88359-2.15-1.9635-2.5644-3.347-1.2843-6.0365 4.403-6.0365 12.765 0 4.2368-0.47823 7.7033-1.0627 7.7033-0.5845 0-3.4063-2.4-6.2706-5.3333-2.8643-2.9333-5.5951-5.3333-6.0683-5.3333-0.47327 0-1.8032 2.4-2.9555 5.3333-1.1522 2.9333-2.9276 5.3333-3.9451 5.3333-1.6561 0-10.014-10.533-16.136-20.333-1.2596-2.0167-2.8552-3.6667-3.5458-3.6667-1.9931 0-4.0938 4.8953-5.9124 13.778-1.6621 8.1182-1.7397 8.2213-6.1372 8.158-3.7346-0.0537-4.6572-0.69969-5.7132-4-1.7198-5.3744-5.828-9.6099-10.783-11.117-8.0926-2.4612-22.338-4.4846-23.386-3.3218-1.7434 1.9342-4.0846 9.9786-4.0846 14.035 0 3.6791-2.8938 5.3362-4.5733 2.6188-0.40185-0.6502-2.9873-1.5959-5.7454-2.1016-2.8938-0.53055-6.8869-2.7092-9.4413-5.1512-4.1272-3.9455-4.5443-4.072-6.1674-1.8705-0.95745 1.2987-2.1226 4.7487-2.5892 7.6667-0.46661 2.918-1.3791 5.3054-2.0278 5.3054-0.6487 0-3.0416-2.1209-5.3176-4.7131zm-7.4715-49.803c-8.1198-3.7418-17.468-12.789-21.214-20.531-3.3213-6.8644-3.3756-7.5148-4.2825-51.286l-0.91848-44.333 77.208 3e-3c42.464 1e-3 95.62 0.39731 118.12 0.88004l40.917 0.87771 0.91872 8.5788c0.50529 4.7184 0.34306 25.172-0.36052 45.453-1.0148 29.252-1.7176 37.716-3.3997 40.944-3.0977 5.9443-13.445 14.977-21.399 18.68l-6.9261 3.2247-86.667-0.0163c-81.374-0.0152-86.992-0.16636-92-2.474zm13.909-10.69c3.4436-4.8361 3.5012-8.3744 0.18519-11.375-6.4298-5.8189-7.0989-9.8589-7.9536-48.026l-0.8075-36.06h-13.333v77.333l3.5596 6.7444c4.2031 7.9636 10.68 15.256 13.551 15.256 1.1225 0 3.2818-1.7426 4.7984-3.8725zm210.76-109.29c0-16.042 0.375-31.042 0.83333-33.333l0.83334-4.1667h53.755c29.565 0 54.021 0.45 54.346 1 0.32549 0.55 0.8109 9.1 1.0787 19l0.48688 18-43.266 0.35216c-32.576 0.26515-43.525 0.75929-44.313 2-0.57566 0.90631-1.0558 7.1978-1.0671 13.981l-0.02041 12.333h-22.667zm-284-13.717v-25.238l9 0.39425 9 0.39425v49.333l-9 0.17754-9 0.17754zm33.333-10.899v-14.217h237.73l-0.76303 12.789c-0.41967 7.0341-1.0318 13.058-1.3602 13.387-0.32848 0.32846-53.473 0.97097-118.1 1.4278l-117.5 0.83058zm31.732 1.2356c0.28025-6.4697-0.11687-9.5413-1.3333-10.313-2.5934-1.6451-9.6435-1.3621-11.466 0.46023-1.7132 1.7132-2.249 17.307-0.64964 18.906 0.5227 0.52271 3.6727 0.77271 7 0.55556l6.0496-0.3948zm29.601-42.222c0-0.7897 2.4-4.7874 5.3333-8.8837 2.9333-4.0964 5.3333-8.1207 5.3333-8.9431s-3.3482-4.7747-7.4405-8.7829c-7.4309-7.2784-7.4398-7.2968-6.8879-14.317 0.43206-5.496 1.4007-7.9207 4.4405-11.115 8.8683-9.3185 11.858-7.0528 3.9008 2.9566-2.5596 3.2199-4.6596 7.2095-4.6667 8.8659-0.0078 1.8065 2.9214 6.2035 7.3204 10.988 9.5414 10.379 9.5146 12.899-0.26552 25-4.4847 5.5491-7.0678 7.0954-7.0678 4.2309zm47.358 0.14163c-1.1609-1.8784 2.222-7.6931 9.2006-15.815 3.3597-3.9099 6.1085-8.426 6.1085-10.036 0-1.8536-3.4324-6.333-9.3602-12.215-13.968-13.861-14.66-20.993-3.4242-35.295 3.3648-4.2828 6.1178-8.7376 6.1178-9.8995 0-1.5743 1.3531-2.1126 5.3106-2.1126h5.3105l-2.796 5c-1.5378 2.75-5.4276 8.5095-8.6439 12.799-3.28 4.3743-5.8478 9.2669-5.8478 11.142 0 2.32 2.8033 6.2586 9.1588 12.868 11.478 11.936 12.545 13.935 11.033 20.666-1.3519 6.0168-2.5212 7.8471-11.062 17.315-5.9618 6.609-9.4023 8.3385-11.105 5.5829zm47.309-0.14163c0-0.7897 2.4-4.7874 5.3333-8.8837 2.9333-4.0964 5.3333-8.046 5.3333-8.777 0-0.73098-3.3-4.7888-7.3333-9.0173-5.673-5.9476-7.3333-8.6283-7.3333-11.84 0-5.0399 3.8723-12.925 8.4416-17.189 6.0743-5.6686 6.6135-2.4558 0.9798 5.8378-2.9783 4.3844-5.4165 9.1943-5.4182 10.688-1e-3 1.5103 3.0019 5.6551 6.7637 9.3333 9.4461 9.2362 9.8438 10.242 6.7117 16.966-4.0956 8.7928-13.479 17.76-13.479 12.882z" fill="#2d2d2d"/>
  <path d="m237.67 407.07-11-6.2293 0.0204-13.418c0.0107-7.3799 0.46123-14.054 1-14.831 1.7734-2.5585 62.252-36.59 64.98-36.564 1.4667 0.0139 7.3093 2.7305 12.984 6.037 11.862 6.9124 12.338 7.8691 11.374 22.89-0.55397 8.6321-1.1075 10.447-3.8357 12.58-6.5204 5.0968-61.028 35.829-63.469 35.784-0.57921-0.0107-6.0031-2.8224-12.053-6.2486zm123.36-12.131-31.644-18.268-1e-3 -13.333c-1e-3 -7.3333 0.43895-13.985 0.97772-14.781 1.5998-2.3637 19.906-12.553 22.546-12.549 1.3387 3e-3 15.634 7.5872 31.767 16.856s30.401 16.803 31.706 16.743c2.1734-0.1 2.3413 1.3004 2 16.686-0.32043 14.444-0.6819 16.84-2.5828 17.117-1.2156 0.17737-5.8977 2.4837-10.405 5.1252-4.507 2.6415-9.2124 4.7732-10.456 4.7372-1.244-0.036-16.502-8.286-33.906-18.333zm-299.15-46.118c-0.39451-1.0281-0.52732-4.1824-0.29512-7.0095l0.42218-5.1402h178.67v13.333l-89.038 0.3428c-75.374 0.29019-89.148 0.056-89.756-1.5264zm250.13-16.984c-5.5-3.0062-10.75-6.4129-11.667-7.5706-1.2416-1.568-1.6614-11.306-1.6462-38.183 0.0107-19.843 0.46122-36.73 1-37.526 1.7192-2.54 20.003-12.553 22.922-12.553 1.5457 0 7.2276 2.532 12.626 5.6268 9.4629 5.4244 9.845 5.8387 10.624 11.519 1.0547 7.6948 1.05 67.338-5e-3 70.088-0.64938 1.6922-21.281 14.149-23.322 14.081-0.29229-9e-3 -5.0314-2.4772-10.531-5.4833zm-243.21-11.935c-2.3877-2.8376-3.4519-5.6636-3.4519-9.1667 0-7.549 1.453-13.398 3.3285-13.398 0.91402 0 4.289 2.3319 7.5 5.182l5.8381 5.182-3.084 2.4983c-1.9962 1.6171-3.3514 4.4922-3.8422 8.1513-0.41703 3.1092-1.2259 5.653-1.7975 5.653-0.57159 0-2.5926-1.846-4.4911-4.1023zm102.87-4.5281c-3.4882-4.7168-6.9234-10.104-7.6337-11.973-0.71031-1.8682-2.24-3.3968-3.3994-3.3968-2.5009 0-6.7913 9.07-8.0684 17.057-0.80664 5.0445-1.2741 5.61-4.6368 5.61-4.3971 0-6.9647-4.936-3.559-6.8418 1.0986-0.6148 2.4023-3.8178 2.8972-7.1178 0.61231-4.0831 2.5884-8.1362 6.1854-12.687 2.9071-3.6778 5.8019-6.6869 6.4328-6.6869 1.6866 0 10.306 9.8617 12.75 14.587 2.5574 4.9455 5.5694 5.2406 7.6171 0.74632 0.83533-1.8333 1.9262-3.3333 2.4241-3.3333 0.49791 0 1.5887 1.5 2.4241 3.3333 1.8387 4.0356 6.2505 4.389 8.2459 0.66052 0.78675-1.47 4.8962-4.4223 9.1321-6.5606l7.7016-3.8878 1.528 5.5606c2.7979 10.182 14.135 18.629 15.209 11.332 0.70448-4.7877 3.3757-4.2342 4.3387 0.89891 0.75103 4.0033 0.39796 5.1908-2.1587 7.2611-2.6999 2.1862-3.4677 2.2625-6.5788 0.65371-5.9123-3.0574-11.407-8.3162-13.192-12.626-1.2398-2.9932-2.4432-3.9869-4.4729-3.6937-3.7779 0.54584-6.1226 5.7299-6.2119 13.735l-0.0744 6.6667-5.2596-5.8166c-6.0084-6.6447-8.3065-6.5602-10.6 0.38996-0.86402 2.618-2.2744 4.7478-3.1342 4.7328-0.8598-0.0149-4.4172-3.8864-7.9055-8.6032zm-77.266 3.4547c-7.1988-2.4754-10.493-5.092-8.2407-6.5465 0.80427-0.51947 2.2028-3.2157 3.1078-5.9917 1.8509-5.6772 3.8409-7.2386 15.803-12.4l8.3956-3.6223 4.2711 4.0343c2.3491 2.2189 6.9112 5.9094 10.138 8.2013 6.7506 4.7947 6.5783 4.8451-7.4161 2.1672-5.7478-1.0999-10.88-1.9999-11.404-2-1.7583-4.1e-4 -4.2513 5.9465-4.9857 11.893-0.40031 3.2414-1.3278 6.0123-2.0612 6.1576s-4.1569-0.70671-7.608-1.8934zm4.9414-46.824l-36-0.66667-6.1505-3.6157c-7.1842-4.2234-13.349-10.87-17.342-18.695-2.6803-5.2539-2.8812-8.0534-3.5376-49.296l-0.69586-43.726 94.529 4e-3c51.991 3e-3 104.97 0.40024 117.74 0.88442l23.209 0.88036-0.9043 41.392c-0.49738 22.766-1.2751 43.711-1.7283 46.545-1.0949 6.8472-11.198 17.882-20.836 22.759l-7.2936 3.6902-52.495 0.25609c-28.872 0.14093-68.695-0.04383-88.495-0.41049zm-24.068-11.126c4.135-5.4213 4.3073-8.9741 0.59802-12.331-6.8352-6.1858-7.1533-8.1329-7.6024-46.543-0.46418-39.701-0.38076-39.333-8.9278-39.333-9.0519 0-8.907-0.69988-8.4297 40.719 0.42489 36.867 0.46783 37.362 3.8706 44.614 3.8367 8.1769 11.751 17.333 14.982 17.333 1.1594 0 3.6386-2.0066 5.5092-4.4592zm211.4-114.13v-31.918l6.0835-0.91228c5.6083-0.84102 100.71 0.476 101.67 1.408 0.23353 0.2268 0.77412 8.2713 1.2013 17.877l0.7767 17.464h-43.488c-50.627 0-46.248-1.5697-46.248 16.579v11.421h-20zm-284.78-9.415c0-14.3 0.19615-20.15 0.4359-13s0.23974 18.85 0 26-0.4359 1.3-0.4359-13zm2.1086 0v-24h14.667v48h-14.667zm32-11.333v-12.667h234.77l-0.38336 12.333-0.38337 12.333-101.33 0.3437-101.33 0.3437v-22.021l-7.6249-0.39862c-7.2297-0.37797-7.6697-0.21997-8.4901 3.0486-0.47586 1.896-0.60638 7.0254-0.29004 11.399l0.57515 7.9514h-15.503zm108.7-40.606c-1.161-1.8785 2.1712-7.7555 8.4143-14.84 8.8942-10.093 8.7328-11.446-2.8125-23.566-5.4759-5.7485-10.392-11.825-10.924-13.503-1.7193-5.4171 0.59092-11.957 7.3297-20.749 4.0733-5.3144 6.2877-9.3894 5.7972-10.668-0.63803-1.6627 0.28265-2.0686 4.6918-2.0686h5.4856l-4.9017 7c-2.6959 3.85-6.7203 9.2744-8.943 12.054-6.8344 8.5474-5.8888 12.308 6.2254 24.756 11.575 11.894 12.389 14.571 7.2667 23.902-2.7526 5.0141-12.267 16.187-15.47 18.166-0.74028 0.45751-1.7119 0.23967-2.1592-0.48408zm-47.371-1.0433c0-0.71992 2.0942-3.9434 4.6537-7.1633 6.4205-8.0769 6.0942-11.228-1.9871-19.188-6.1438-6.0514-6.6667-7.0634-6.6667-12.903 0-5.1869 0.75106-7.1925 4.1381-11.05 4.5447-5.1761 8.1654-6.507 4.6604-1.7131-5.2317 7.1557-7.4556 11.16-7.4602 13.432-0.0028 1.3378 3.295 5.892 7.3284 10.121 8.6086 9.0252 9.0462 11.737 3.2944 20.421-4.3063 6.5014-7.9611 10.194-7.9611 8.0438zm94.667-0.2486c0-0.67707 1.507-3.022 3.349-5.211 5.1469-6.1168 7.3352-11.034 6.0113-13.508-0.63694-1.1901-3.9036-4.9094-7.2592-8.265-7.9029-7.9029-8.3754-13.938-1.7677-22.577 6.1208-8.0027 9.2094-8.3339 3.3559-0.35987-7.966 10.852-7.8702 12.258 1.5236 22.355 4.4663 4.8009 8.0934 9.494 8.0604 10.429-0.11 3.1106-3.2231 8.6884-7.5658 13.556-4.3931 4.9239-5.7074 5.7483-5.7074 3.5802z" fill="#010101"/>
 </g>
</svg>
