<?xml version="1.0" encoding="UTF-8" standalone="no"?>
<!-- Created with Inkscape (http://www.inkscape.org/) -->

<svg
   xmlns:dc="http://purl.org/dc/elements/1.1/"
   xmlns:cc="http://creativecommons.org/ns#"
   xmlns:rdf="http://www.w3.org/1999/02/22-rdf-syntax-ns#"
   xmlns:svg="http://www.w3.org/2000/svg"
   xmlns="http://www.w3.org/2000/svg"
   xmlns:sodipodi="http://sodipodi.sourceforge.net/DTD/sodipodi-0.dtd"
   xmlns:inkscape="http://www.inkscape.org/namespaces/inkscape"
   version="1.1"
   id="svg14606"
   width="20"
   height="20"
   viewBox="0 0 20 20"
   sodipodi:docname="task_ensembleprepseq_20x20.svg"
   inkscape:version="0.92.2 5c3e80d, 2017-08-06">
  <metadata
     id="metadata14612">
    <rdf:RDF>
      <cc:Work
         rdf:about="">
        <dc:format>image/svg+xml</dc:format>
        <dc:type
           rdf:resource="http://purl.org/dc/dcmitype/StillImage" />
        <dc:title></dc:title>
      </cc:Work>
    </rdf:RDF>
  </metadata>
  <defs
     id="defs14610" />
  <sodipodi:namedview
     pagecolor="#ffffff"
     bordercolor="#666666"
     borderopacity="1"
     objecttolerance="10"
     gridtolerance="10"
     guidetolerance="10"
     inkscape:pageopacity="0"
     inkscape:pageshadow="2"
     inkscape:window-width="1440"
     inkscape:window-height="851"
     id="namedview14608"
     showgrid="false"
     inkscape:zoom="8.6203975"
     inkscape:cx="48.906335"
     inkscape:cy="10.741042"
     inkscape:window-x="0"
     inkscape:window-y="1"
     inkscape:window-maximized="1"
     inkscape:current-layer="svg14606"
     inkscape:pagecheckerboard="true" />
  <g
     id="g14760"
     transform="matrix(0.04739355,0,0,0.04811898,0.22013989,0.04833427)">
    <path
       style="fill:#d2d2d2;stroke-width:1.33333325"
       d="m 302.22222,415.1111 c -0.48889,-0.48888 -0.88889,-13.63543 -0.88889,-29.21453 0,-32.28131 1.38871,-39.47939 10.04008,-52.04082 7.80305,-11.32966 14.41752,-15.41209 44.16568,-27.25885 9.42016,-3.75145 18.92757,-7.92898 21.12757,-9.28342 3.89891,-2.40039 8.66667,-8.92078 8.66667,-11.85254 0,-0.9898 -6.04823,-1.46094 -18.75432,-1.46094 -10.37804,0 -19.9062,-0.61647 -21.33334,-1.38024 -1.95392,-1.04571 -2.57901,-2.81178 -2.57901,-7.28643 0,-4.47465 0.62509,-6.24072 2.57901,-7.28643 1.43767,-0.76941 11.13571,-1.38024 21.91406,-1.38024 h 19.33504 l 0.41928,-23.22566 c 0.2306,-12.77412 0.917,-23.72184 1.52532,-24.32827 1.79502,-1.78943 21.58692,-2.21593 24.7316,-0.53296 2.76392,1.4792 2.82902,2.25924 2.82902,33.8918 0,37.04604 -0.71605,41.06612 -9.69505,54.43031 -7.6848,11.43791 -15.62975,16.55799 -42.04472,27.09547 -15.16896,6.05122 -23.64067,10.20408 -26.59356,13.03626 -2.38333,2.28589 -4.33333,4.63846 -4.33333,5.22794 0,0.58948 7.83944,1.07178 17.42098,1.07178 9.58155,0 18.58155,0.6211 20,1.38024 1.95392,1.0457 2.57902,2.81177 2.57902,7.28642 0,4.47466 -0.6251,6.24072 -2.57902,7.28643 -1.42713,0.76377 -10.95529,1.38024 -21.33333,1.38024 h -18.75432 v 20.08765 c 0,11.29714 -0.604,21.21626 -1.38024,22.66667 -1.21269,2.26592 -2.88531,2.57901 -13.77779,2.57901 -6.81863,0 -12.79753,-0.4 -13.28641,-0.88889 z m 85.27099,-1.17528 c -0.4546,-1.18465 -0.82655,-4.80485 -0.82655,-8.04488 v -5.89095 l -21,-0.0204 c -11.55,-0.0107 -21.9,-0.58934 -23,-1.2847 -1.30189,-0.82298 -2,-3.39255 -2,-7.36155 0,-3.969 0.69811,-6.53857 2,-7.36155 1.1,-0.69536 11.45,-1.27348 23,-1.2847 l 21,-0.0204 v -11.9132 c 0,-13.62471 -0.85492,-16.5972 -6.68237,-23.23432 -2.3069,-2.6274 -3.99708,-5.74099 -3.75599,-6.91907 0.24548,-1.1995 5.57477,-4.53101 12.11184,-7.57152 11.31259,-5.26166 11.75535,-5.35544 14.32143,-3.03316 4.29666,3.88842 9.20362,13.26304 11.37142,21.7248 1.5601,6.08962 1.93978,14.26104 1.66131,35.75343 l -0.36097,27.85971 -13.50679,0.37821 c -11.43181,0.32011 -13.63377,0.0473 -14.33333,-1.77572 z M 59.225983,356.86771 c -0.379677,-0.98942 -0.510847,-5.93942 -0.291487,-11 l 0.398836,-9.20105 H 152.66666 246 l 0.39077,8.84732 c 0.29812,6.74967 -0.1196,9.35772 -1.76191,11 -1.93942,1.93943 -11.19534,2.15268 -93.43261,2.15268 -75.373855,0 -91.400236,-0.31348 -91.970267,-1.79895 z m 11.051456,-26.13632 c -7.380601,-6.48025 -9.415667,-12.10922 -8.336681,-23.05922 0.502838,-5.10303 1.236068,-10.11687 1.629398,-11.14187 1.506503,-3.92588 7.052854,-1.96318 17.837408,6.31216 l 4.740899,3.63786 3.540402,-4.43704 c 2.432211,-3.0482 6.442223,-5.5459 12.811025,-7.97955 5.09884,-1.94837 9.60342,-4.40979 10.01018,-5.46979 1.26666,-3.30086 4.24363,-2.12992 7.59987,2.9893 1.77287,2.7041 7.87339,8.10738 13.55672,12.00726 10.32727,7.08654 10.33334,7.08862 10.33334,3.52155 0,-2.47865 1.79628,-5.29031 5.87906,-9.20231 3.2335,-3.09822 6.5546,-6.89537 7.38026,-8.4381 0.82564,-1.54274 2.28873,-2.80498 3.25129,-2.80498 0.96257,0 5.21648,3.63411 9.45315,8.0758 l 7.703,8.0758 2.91922,-2.74246 c 4.00928,-3.76652 5.97563,-3.44175 7.6138,1.25753 1.43288,4.11033 3.00386,5.03388 4.48532,2.63683 0.46338,-0.74975 4.54878,-3.22978 9.0787,-5.51118 4.5299,-2.2814 9.65672,-5.2598 11.39292,-6.61865 4.41741,-3.45737 5.96988,-1.88475 5.0152,5.08035 -0.76532,5.58358 1.69116,15.07932 3.9009,15.07932 0.48156,0 2.6582,-1.5 4.837,-3.33334 6.69058,-5.62974 10.42351,-3.64044 10.42351,5.55476 0,3.12845 1.01399,7.81447 2.25332,10.41336 1.76797,3.70748 1.9044,5.07416 0.63339,6.34517 -1.27102,1.27102 -2.19714,1.25947 -4.29974,-0.0536 -1.7683,-1.10433 -3.43378,-1.25161 -4.89654,-0.433 -1.35323,0.7573 -3.47019,0.764 -5.43443,0.0172 -5.71553,-2.17304 -15.12831,-9.70817 -17.27743,-13.83097 l -2.09184,-4.01289 -1.1379,4 c -0.62586,2.2 -0.76907,6.85 -0.31826,10.33333 0.80124,6.19104 0.73896,6.33333 -2.77212,6.33333 -2.33357,0 -5.2421,-1.65032 -8.30289,-4.7111 -2.59112,-2.59112 -4.78112,-4.54112 -4.86667,-4.33334 -5.33321,12.95208 -9.6954,11.35016 -24.38022,-8.95312 -1.59023,-2.19865 -3.24695,-3.64194 -3.68159,-3.20729 -0.43465,0.43464 -1.54,4.93355 -2.45635,9.99756 l -1.66606,9.20729 -6.84982,0.27079 c -6.58777,0.26044 -6.90932,0.10747 -8.4054,-4 -4.15504,-11.40741 -6.24269,-12.76025 -22.87456,-14.82309 -7.06173,-0.87587 -7.53905,-0.75275 -8.31513,2.14488 -0.45284,1.69074 -0.83154,5.94292 -0.84155,9.44926 -0.0211,7.39692 -2.05514,8.97256 -7.21684,5.59048 -1.87774,-1.23034 -5.976214,-2.81252 -9.10772,-3.51594 -3.131507,-0.70344 -7.027989,-2.53227 -8.658851,-4.06407 -3.409098,-3.20203 -4.039137,-2.35339 -4.654809,6.26993 -0.489531,6.85654 -3.289424,7.4725 -9.435881,2.07583 z M 312.57208,309 c -2.01575,-2.38334 -5.21908,-7.63334 -7.11854,-11.66667 -3.39728,-7.21385 -3.46034,-7.89745 -3.87098,-41.95639 -0.48902,-40.56037 -1.45335,-38.04361 14.57703,-38.04361 13.02207,0 14.50707,1.23812 14.50707,12.09524 v 7.90476 h 20.57143 c 22.76422,0 24.7619,0.66016 24.7619,8.18289 0,8.96678 -0.48268,9.15044 -24.0469,9.15044 h -21.28643 v 14.04283 c 0,15.77961 1.42091,20.63021 7.80969,26.6602 5.15027,4.86103 5.27144,6.91079 0.52364,8.85779 -2.01666,0.827 -7.48402,3.21413 -12.14969,5.30474 -4.66567,2.09062 -8.96233,3.80111 -9.54815,3.80111 -0.58581,0 -2.71434,-1.95 -4.73007,-4.33333 z M 62.220504,279.28897 c -7.17,-2.65631 -17.166731,-10.28853 -21.283227,-16.24917 -8.25967,-11.9599 -8.233967,-11.78142 -8.687207,-60.33014 -0.385356,-41.27732 -0.241261,-44.75188 1.921505,-46.33333 3.420171,-2.50089 237.554465,-2.51227 240.974185,-0.012 2.14238,1.56656 2.29109,5.20388 1.9215,47 -0.39042,44.15199 -0.47834,45.45985 -3.46297,51.51851 -4.38825,8.90796 -12.22067,17.26272 -20.46375,21.82846 L 246,280.66666 156.66666,280.9249 c -74.371249,0.21499 -90.189654,-0.0591 -94.446156,-1.63593 z m 12.162192,-17.99641 c 1.461059,-2.33952 1.211643,-3.33567 -1.835458,-7.33063 -6.577204,-8.62316 -7.092464,-12.10091 -7.155382,-48.29527 L 65.333332,172 h -4.603093 -4.603093 l 0.704512,36.33333 c 0.765934,39.50099 1.213266,42.03108 9.075981,51.33333 4.247439,5.02508 6.12704,5.38567 8.475057,1.6259 z M 284.7619,185.90476 c -3.153,-3.15299 -3.14004,-67.33616 0.0143,-70.49042 1.86901,-1.86902 8.59436,-2.06985 59,-1.76191 L 400.66666,114 l 0.36483,22.16958 c 0.36322,22.07188 0.35146,22.17318 -2.66667,22.9818 -1.66732,0.44671 -21.48149,0.8204 -44.03149,0.83042 l -41,0.0182 v 12.61976 c 0,15.17345 -0.21267,15.38024 -15.81711,15.38024 -7.91229,0 -11.19901,-0.53994 -12.75432,-2.09524 z M 1.9491564,167.68162 C 1.5776518,166.7135 1.4371125,154.23909 1.6368468,139.9607 L 2,114 h 11.333333 11.333333 v 27.33333 27.33333 l -11.021024,0.3876 C 5.4627747,169.34204 2.4506725,168.98853 1.9491564,167.68162 Z M 34.052857,145.86238 c -1.755715,-1.75572 -2.070495,-4.79292 -1.761906,-17 L 32.666666,114 h 121.999994 122 l 0.37998,15.31712 c 0.32856,13.24505 0.0687,15.54477 -1.92151,17 C 273.31306,147.64213 247.66372,148 154.50706,148 47.729129,148 35.982007,147.79153 34.052857,145.86238 Z m 30.613809,-14.52905 c 0,-6.51852 -0.08889,-6.66667 -4,-6.66667 -3.679724,0 -4.033804,0.41158 -4.42218,5.14022 -0.59725,7.27177 0.417856,9.11381 4.747932,8.61574 3.463858,-0.39842 3.674248,-0.80436 3.674248,-7.08929 z M 94.066777,94.213706 c -3.497598,-2.557506 -1.8233,-8.022921 4.916564,-16.049147 l 5.460019,-6.502107 -6.308163,-5.875372 c -7.32534,-6.822765 -10.689818,-13.745986 -9.573054,-19.69885 0.427926,-2.281045 3.900164,-7.884051 7.716083,-12.451125 5.503024,-6.586285 7.717184,-8.303772 10.705084,-8.303772 7.01644,0 6.53536,7.50215 -1.01715,15.861882 -2.54806,2.820392 -4.63283,6.335448 -4.63283,7.811235 0,1.475788 2.30437,4.765109 5.12082,7.309604 12.96353,11.711769 13.00389,17.906499 0.21251,32.620561 -5.42826,6.244194 -9.147194,7.801759 -12.599883,5.277091 z M 143,94.592257 c -1.98348,-0.775538 -3,-2.287604 -3,-4.462493 0,-5.427733 2.065,-9.256545 9.20686,-17.070892 C 152.94309,68.970851 156,64.656266 156,63.470902 c 0,-1.185363 -1.61418,-3.501238 -3.58707,-5.146387 -14.296,-11.921153 -17.80281,-17.162316 -17.71699,-26.479209 0.0464,-5.032453 4.62934,-13.839573 10.53656,-20.248159 2.98879,-3.2424493 5.43416,-6.5782639 5.43416,-7.4129213 0,-0.8346575 1.65,-1.5257519 3.66667,-1.5357653 2.01667,-0.010013 4.86667,-0.3178156 6.33333,-0.684005 8.73888,-2.18187468 7.02851,8.0646296 -3.32021,19.8906806 -9.72591,11.114349 -9.32775,12.970363 5.29501,24.682145 8.86948,7.103813 11.70691,17.053895 7.29574,25.584163 -1.13455,2.193961 -4.88455,7.164664 -8.33334,11.046007 -3.4488,3.881342 -6.87053,7.98841 -7.60386,9.12682 -1.71464,2.661763 -7.16014,3.799369 -11,2.297986 z m 44.34932,-2.541894 c -1.0135,-3.193234 0.95006,-7.130302 6.8431,-13.720872 2.46083,-2.752112 4.47424,-5.893599 4.47424,-6.981081 0,-1.087483 -2.43925,-3.591466 -5.42057,-5.564406 -6.38121,-4.222886 -9.38951,-9.398093 -9.485,-16.31713 -0.0815,-5.902567 2.3278,-10.686779 9.35417,-18.5751 4.19419,-4.708714 5.85844,-5.69337 9.01431,-5.333333 3.24453,0.370153 3.93601,1.115709 4.27597,4.610371 0.31906,3.279775 -0.74724,5.500742 -5,10.414425 C 198.43249,44.018325 196,47.831505 196,49.05697 c 0,1.225464 3.3,5.274914 7.33333,8.998776 6.80025,6.278481 7.32989,7.201009 7.28608,12.690789 -0.0535,6.694349 -1.10957,8.873858 -8.56843,17.682129 -4.2712,5.043909 -6.10441,6.238001 -9.57681,6.238001 -3.09591,0 -4.52623,-0.730198 -5.12485,-2.616302 z"
       id="path14774"
       inkscape:connector-curvature="0" />
    <path
       style="fill:#adadad;stroke-width:1.33333325"
       d="m 304.33333,415.11695 c -1.26159,-0.50906 -1.66667,-7.71612 -1.66667,-29.65273 0,-32.86324 0.92328,-37.97637 9.02098,-49.95821 7.60427,-11.25176 14.85714,-15.98492 40.38643,-26.35584 26.08496,-10.59664 28.1879,-11.76859 31.90244,-17.77884 5.24676,-8.48944 5.02998,-8.59604 -18.30985,-9.00415 l -21,-0.36718 v -6.66667 -6.66667 l 21.66667,-0.36636 21.66666,-0.36636 v -23.13705 c 0,-18.22933 0.39682,-23.46637 1.87078,-24.68964 1.18646,-0.98468 5.94173,-1.41019 13,-1.16327 l 11.12922,0.38935 v 36 36 l -4.40786,8.44295 c -8.51783,16.3153 -15.9911,21.58485 -49.53962,34.93138 -11.85434,4.71599 -19.66281,8.68971 -23,11.70465 -8.44193,7.62678 -7.57209,8.13579 14.61415,8.55204 l 19.66667,0.36898 v 6.66666 6.66667 l -21,0.36719 -21,0.3672 v 21.91922 c 0,20.3063 -0.18978,22.0208 -2.57902,23.29948 -2.58896,1.38556 -19.30094,1.75616 -22.42098,0.4972 z m 85.314,-0.66962 c -0.90604,-0.90604 -1.64734,-4.82734 -1.64734,-8.714 v -7.06667 h -21.73333 c -23.69393,0 -24.93333,-0.36453 -24.93333,-7.33333 0,-6.9688 1.2394,-7.33334 24.93333,-7.33334 h 21.73333 l -0.0293,-12.33333 c -0.0315,-13.2552 -2.28432,-20.64849 -7.78241,-25.53999 -5.07526,-4.5153 -3.62983,-6.55737 8.51218,-12.02588 11.03767,-4.97113 11.44444,-5.0496 14.0328,-2.70717 1.4661,1.3268 4.60087,6.34097 6.96618,11.14261 l 4.30053,8.73024 v 32.03343 32.03343 l -11.35267,0.38066 c -7.68845,0.2578 -11.88437,-0.15104 -13,-1.26666 z M 60.898007,356.45355 c -0.493904,-0.4939 -0.898008,-4.92802 -0.898008,-9.85361 0,-8.16019 0.266452,-9.027 3,-9.75956 1.65,-0.44219 42.335321,-0.81217 90.411821,-0.82219 68.78842,-0.0143 87.90744,0.3442 89.73806,1.68278 1.88156,1.37582 2.24885,3.35109 1.9215,10.33333 l -0.40472,8.63236 -91.43532,0.34245 c -50.28943,0.18835 -91.839428,-0.0616 -92.333333,-0.55556 z m 8.244243,-28.49354 c -6.295352,-6.61779 -7.030436,-9.3823 -5.848516,-21.99513 C 64.154838,296.77561 64.462543,296 67.24704,296 c 3.056199,0 13.341825,6.52946 16.438593,10.43545 1.491979,1.88184 2.146008,1.5676 5.692848,-2.73533 2.683316,-3.25534 6.531464,-5.79043 11.647699,-7.67332 4.20227,-1.54652 9.21844,-3.94992 11.14705,-5.34088 l 3.50656,-2.52902 4.04167,5.02932 c 4.29767,5.34788 23.51106,19.1368 24.82887,17.819 0.43065,-0.43065 0.783,-2.2385 0.783,-4.01746 0,-2.17306 2.66919,-5.9286 8.13391,-11.44443 l 8.13392,-8.20996 7.96438,8.47339 7.96439,8.47337 2.98764,-2.80673 c 4.04137,-3.79668 5.63411,-3.53571 7.28264,1.19326 1.57896,4.52942 3.05517,4.99102 5.7032,1.78331 1.00645,-1.21917 4.52992,-3.401 7.82992,-4.84851 3.3,-1.4475 7.59263,-3.75 9.53916,-5.11665 5.54648,-3.89413 6.46084,-3.18991 6.46084,4.97603 0,5.42085 0.7588,8.52648 2.77516,11.3582 l 2.77516,3.89734 3.85728,-4.12921 c 5.6856,-6.08647 8.41292,-4.88667 9.38472,4.12854 0.43577,4.04259 1.54136,8.74975 2.45685,10.46036 2.08854,3.90247 -0.0355,6.82442 -3.10744,4.27488 -1.46622,-1.21686 -2.67145,-1.26128 -4.70421,-0.17338 -2.146,1.1485 -3.81085,0.91008 -7.75189,-1.11016 C 217.08529,325.12573 208,316.35391 208,313.66666 c 0,-1.03889 -0.75,-1.64089 -1.66667,-1.33778 -1.07516,0.3555 -1.80569,3.94398 -2.05841,10.1111 -0.35571,8.68052 -0.64788,9.56001 -3.1759,9.56001 -1.53128,0 -4.7647,-2.1 -7.18538,-4.66666 -2.42068,-2.56667 -4.73348,-4.66667 -5.13955,-4.66667 -0.40607,0 -1.63387,2.14337 -2.72843,4.76304 -3.10053,7.42061 -6.57728,5.90447 -16.04566,-6.99724 -4.4,-5.99548 -8.37203,-10.94548 -8.82672,-11 -0.9033,-0.10826 -3.24008,8.32456 -4.49858,16.2342 -0.73968,4.64891 -2.01696,5.83667 -5.34137,4.96699 -0.73333,-0.19184 -2.69349,-0.26878 -4.35592,-0.17096 -2.43279,0.14313 -3.63401,-1.20468 -6.15593,-6.90719 -2.26376,-5.11876 -4.20015,-7.49463 -6.9774,-8.56097 -3.98184,-1.52884 -21.90408,-4.76539 -22.48617,-4.06073 -2.01943,2.44465 -3.35791,7.32087 -3.35791,12.23318 0,3.30493 -0.57033,6.36145 -1.26739,6.79225 -0.69707,0.43082 -3.53818,-0.43377 -6.31359,-1.9213 -2.775408,-1.48754 -6.359047,-2.7046 -7.963643,-2.7046 -1.604594,0 -4.78882,-1.57466 -7.076058,-3.49924 -2.287238,-1.92459 -4.4785,-3.17936 -4.869474,-2.78839 -0.574794,0.5748 -1.275161,5.81436 -1.776144,13.28763 -0.177725,2.65117 -5.001488,0.45173 -9.591451,-4.37332 z M 313.71282,309 c -1.5136,-1.65 -4.46818,-6.3 -6.56574,-10.33334 l -3.81375,-7.33333 v -36 -36 l 11.12922,-0.38935 c 7.05827,-0.24692 11.81354,0.17859 13,1.16327 1.24762,1.03543 1.87078,4.38508 1.87078,10.056 v 8.50341 h 21.17008 c 23.77093,0 24.62322,0.31742 23.91596,8.90695 l -0.41938,5.09305 -22,0.66667 -22,0.66667 -0.37809,14.29872 c -0.4142,15.66418 1.46379,21.84321 8.66803,28.51988 2.81324,2.60721 3.10956,3.4951 1.72373,5.16493 -0.92044,1.10905 -2.19845,2.01647 -2.84004,2.01647 -0.64157,0 -4.97621,1.8 -9.63252,4 -10.14085,4.79132 -10.33733,4.80553 -13.82828,1 z M 59.333332,276.86516 c -8.126917,-3.78974 -18.227994,-13.77814 -22.308583,-22.05974 -2.967038,-6.02164 -3.02475,-7.01642 -3.02475,-52.13876 v -46 H 154.66666 275.33333 v 46.66667 c 0,45.30399 -0.0843,46.8224 -2.8836,52 -4.94237,9.14112 -12.14877,16.30815 -20.6886,20.57555 L 243.57408,280 l -88.78704,-0.0133 -88.787041,-0.0133 -6.666667,-3.10879 z m 15.930645,-15.39771 c 1.74497,-3.3744 1.753216,-4.06997 0.06487,-5.47117 -1.063844,-0.88292 -3.430601,-4.69327 -5.25946,-8.46746 -3.19615,-6.59584 -3.360645,-8.22049 -4.238514,-41.86216 l -0.913316,-35 h -4.458778 -4.458777 v 36.55612 c 0,40.61036 0.438336,43.10934 9.340016,53.24779 5.156876,5.87335 7.291361,6.08776 9.923962,0.99688 z M 285.64589,185.11256 C 284.42918,183.89585 284,174.88677 284,150.56325 c 0,-28.83271 0.26978,-33.12731 2.1807,-34.71323 3.0789,-2.55525 110.16189,-3.66545 113.1648,-1.17325 2.59521,2.15384 2.93999,39.83773 0.38783,42.38989 -1.17732,1.17732 -12.79436,1.6 -43.9746,1.6 h -42.3746 l -0.6896,3 c -0.37928,1.65 -0.84071,7.8 -1.0254,13.66667 L 311.33333,186 l -12.02077,0.37922 c -8.2094,0.259 -12.54263,-0.14262 -13.66667,-1.26666 z M 1.9283337,167.62737 C 1.5682816,166.68909 1.4371125,154.23909 1.6368468,139.9607 L 2,114 9.9444426,113.59184 c 4.3694434,-0.22449 9.3194434,-0.0631 10.9999994,0.35873 L 24,114.71747 v 26.49861 c 0,22.93328 -0.283768,26.6075 -2.10905,27.30793 -4.094826,1.57133 -19.2772482,0.8894 -19.9626163,-0.89664 z M 34.940411,145.07374 c -1.053493,-1.05349 -1.607078,-6.51826 -1.607078,-15.86442 0,-11.77085 0.367821,-14.3985 2.109049,-15.06667 3.218633,-1.23511 236.979318,-0.92391 238.936738,0.31808 1.26913,0.80528 1.6143,5.02837 1.33333,16.31292 L 275.33333,146 155.94041,146.34041 C 64.184331,146.60202 36.175486,146.30881 34.940411,145.07374 Z M 65.063622,131 l 0.396957,-8.33334 h -4.730291 -4.730289 v 7.77778 c 0,8.84229 0.56428,9.83377 5.283435,9.28344 3.169329,-0.3696 3.408329,-0.92142 3.780188,-8.72788 z M 94.999998,93.783624 c -3.981183,-1.606443 -1.032434,-9.023803 6.666672,-16.769503 3.79049,-3.813434 2.73345,-7.199661 -4.301576,-13.780105 -10.613503,-9.927689 -10.724435,-16.371997 -0.497496,-28.900683 4.938942,-6.050537 7.052972,-7.666667 10.028612,-7.666667 5.76911,0 5.11968,5.749468 -1.56288,13.836287 -2.93333,3.549738 -5.333332,7.540628 -5.333332,8.868642 0,1.328015 3.247942,5.514409 7.217642,9.3031 3.9697,3.788691 7.5955,8.394065 8.05734,10.234167 1.09622,4.367695 -3.01908,12.734831 -9.88165,20.091137 -5.08977,5.455958 -6.788952,6.238025 -10.393332,4.783625 z M 142.31181,92.788 c -1.63836,-1.638364 -1.85016,-3.081949 -0.92531,-6.306739 1.27515,-4.446194 2.78732,-6.545657 11.0728,-15.373289 6.21774,-6.624573 6.00182,-10.697482 -0.7904,-14.909885 -10.22466,-6.34114 -15.72108,-14.775358 -15.60877,-23.951554 0.0827,-6.749304 2.08604,-10.720903 10.52453,-20.863859 6.87486,-8.2635044 7.54978,-8.7160074 13,-8.7160074 5.11278,0 5.74867,0.3398448 5.74867,3.0722924 0,3.4956139 -6.10433,13.610765 -10.61792,17.594374 -7.59967,6.707316 -6.45388,13.472441 3.53109,20.848776 8.70228,6.428744 12.40847,12.066051 12.41518,18.884103 0.007,6.456332 -2.5174,11.273921 -10.5561,20.150532 -3.53952,3.908455 -6.66125,7.770013 -6.9372,8.581241 -0.89614,2.634489 -8.51713,3.329451 -10.85657,0.990015 z m 47.07463,-0.05735 C 187.15606,90.043209 188.65478,86.279516 194.7679,79.216358 197.64556,75.89149 200,72.573813 200,71.843743 c 0,-1.442547 -8.01642,-9.17708 -9.51154,-9.17708 -0.50449,0 -2.23385,-2.719728 -3.84302,-6.043839 -3.92206,-8.101898 -2.85879,-12.821056 5.02561,-22.30542 4.75596,-5.721069 7.2048,-7.617919 9.85296,-7.632002 1.97948,-0.01053 3.8746,0.894861 4.32389,2.065721 0.91024,2.372019 -1.93909,8.558135 -5.18124,11.248873 -1.1967,0.993179 -3.05448,3.504898 -4.12838,5.581598 -2.42483,4.689113 -1.22707,7.259439 6.07957,13.046407 10.5916,8.388706 10.03371,16.945983 -1.93667,29.705328 -6.2439,6.655438 -8.64489,7.590201 -11.29474,4.397317 z"
       id="path14772"
       inkscape:connector-curvature="0" />
    <path
       style="fill:#919191;stroke-width:1.33333325"
       d="m 303.60352,413.82574 c -1.3449,-1.34491 -1.11151,-40.38295 0.32292,-54.01149 1.84332,-17.51355 8.98665,-29.69068 22.44373,-38.25954 3.46306,-2.20512 16.3558,-8.02251 28.6505,-12.92755 19.52291,-7.78876 22.94243,-9.60568 27,-14.34604 2.5553,-2.98528 4.64599,-6.21979 4.64599,-7.18779 0,-0.968 0.004,-2.21 0.0107,-2.76 0.005,-0.55 -9.01746,-1.3 -20.05116,-1.66667 C 344.70071,281.93805 343.66545,281.53581 344.31985,274 l 0.34736,-4 20.57345,-0.36936 c 12.40061,-0.22263 21.27257,-0.94956 22.33333,-1.82992 1.33379,-1.1074 1.75934,-7.07527 1.75934,-24.68068 v -23.22011 l 12.33333,0.38336 12.33333,0.38337 -0.0107,34 -0.0107,34 -4.20824,8.90615 c -8.12539,17.19626 -16.05505,23.14125 -47.65223,35.72549 -9.46882,3.77116 -18.88781,7.72116 -20.93108,8.77777 -4.34309,2.24591 -11.32798,10.89092 -9.93278,12.29355 0.52724,0.53004 9.7609,1.26371 20.51926,1.63037 l 19.56066,0.66667 v 5.33333 5.33334 l -20.1983,0.36733 c -14.53232,0.26429 -20.60036,0.8518 -21.6316,2.09436 -0.85237,1.02705 -1.58261,10.33539 -1.8017,22.966 l -0.36932,21.23897 -11.39648,0.38131 c -6.26805,0.20971 -11.81805,-0.0403 -12.33333,-0.55556 z m 85.72981,-4.35557 c 0,-2.91312 -0.58515,-6.83564 -1.30034,-8.71671 l -1.30033,-3.42013 h -22.033 -22.033 v -6 -6 h 21.23809 c 26.63026,0 26.10442,0.33901 25.0367,-16.14124 -0.78634,-12.13726 -3.47027,-19.57904 -8.79958,-24.39875 -1.5447,-1.39699 -2.80854,-3.06213 -2.80854,-3.70032 0,-1.42381 19.47181,-10.42636 22.55141,-10.42636 2.61953,0 10.28521,12.08925 12.30569,19.40684 0.77074,2.79136 1.49319,18.31673 1.60546,34.50084 l 0.2041,29.42565 -12.33333,0.38338 -12.33333,0.38336 z M 60.609008,354.24497 c -0.426321,-1.6986 -0.587752,-6.0486 -0.358736,-9.66667 l 0.416394,-6.57831 91.248874,-0.34266 c 72.11668,-0.27082 91.47198,0.009 92.31292,1.33333 0.58522,0.9218 1.07323,4.48315 1.08446,7.91409 0.0368,11.23346 7.29558,10.42858 -94.04943,10.42858 H 61.384138 Z m 9.067659,-26.57831 C 63.274264,321.02905 62.288824,317.14075 64.124723,305.7601 64.990683,300.39204 66.314348,296 67.0662,296 c 1.949811,0 13.430613,7.53234 16.280291,10.68121 2.372454,2.62152 2.44872,2.59252 6.921442,-2.63285 3.15068,-3.68087 6.923981,-6.1592 12.439147,-8.17012 4.35413,-1.5876 8.59974,-3.70967 9.43468,-4.71572 2.33248,-2.81047 4.31137,-2.18764 6.76807,2.13018 1.23374,2.16839 6.33374,6.56739 11.33333,9.77556 4.9996,3.20816 9.91364,6.83024 10.92009,8.04906 2.62661,3.18078 4.17008,2.7348 4.17008,-1.20498 0,-1.88154 0.69256,-4.73154 1.53901,-6.33333 1.54878,-2.93083 13.00258,-14.26004 14.38554,-14.22905 1.21337,0.0272 11.27928,9.72194 13.72814,13.22197 l 2.26595,3.23859 3.31035,-3.57192 c 1.82069,-1.96456 3.63094,-3.57194 4.02278,-3.57194 0.39184,0 1.58988,2.1 2.6623,4.66667 2.0433,4.89029 3.97822,5.94116 5.17877,2.8126 0.39131,-1.01973 4.20549,-3.5284 8.47597,-5.57481 4.2705,-2.04642 9.41452,-4.85295 11.43119,-6.23674 2.01667,-1.38378 3.71699,-2.32512 3.77849,-2.09184 0.0615,0.23327 0.21151,3.72412 0.33334,7.75746 0.31838,10.54052 7.25289,19.25277 9.55385,12.00309 0.80205,-2.52701 6.65891,-5.12296 8.16353,-3.61832 0.38776,0.38776 0.97872,3.30981 1.31323,6.49345 0.33452,3.18364 1.27007,7.45768 2.07901,9.49785 1.72396,4.34787 0.59682,6.10974 -2.62248,4.09926 -1.62544,-1.01511 -2.96214,-1.00063 -4.65738,0.0504 -3.51168,2.17732 -13.83744,-3.9402 -19.57847,-11.5993 -5.75005,-7.67113 -7.28273,-6.57358 -7.59315,5.43736 -0.132,5.10643 -0.85708,9.10962 -1.70098,9.39092 -0.80903,0.26967 -3.92102,-1.95976 -6.91555,-4.95429 -5.23507,-5.23507 -7.82011,-5.96325 -7.82011,-2.20285 0,3.01489 -4.54576,7.62322 -6.67834,6.77025 -2.29778,-0.91904 -14.81492,-17.07083 -16.36744,-21.12012 -1.77644,-4.63329 -4.8191,0.1096 -6.7391,10.50497 l -1.70796,9.24726 -5.7492,-0.02 c -5.566,-0.0193 -5.81838,-0.20614 -7.92025,-5.86259 -2.76831,-7.44995 -6.84521,-10.36165 -16.83771,-12.02536 -4.4,-0.73257 -9.3393,-1.72017 -10.97623,-2.19465 -2.38918,-0.69253 -3.24393,-0.15863 -4.33334,2.70673 -0.7464,1.96319 -1.36628,5.78036 -1.37751,8.48263 -0.0112,2.70225 -0.58585,5.80756 -1.27694,6.90065 -1.10611,1.74953 -1.70222,1.72805 -4.97959,-0.17939 -2.047677,-1.19165 -5.823052,-2.59924 -8.389718,-3.12788 -2.566667,-0.52864 -6.345064,-2.53738 -8.39644,-4.46386 -3.137381,-2.94639 -3.928277,-3.18878 -4.979583,-1.52614 -0.687396,1.08712 -1.258997,4.52659 -1.270226,7.64326 -0.02576,7.14972 -2.978659,7.58668 -9.010416,1.33333 z M 311.45957,305 c -8.11039,-13.84508 -8.06869,-13.58595 -8.09859,-50.33334 l -0.0276,-34 12.14697,-0.3809 12.14696,-0.3809 0.68832,8.57506 c 0.37859,4.71628 1.09786,9.23768 1.5984,10.04756 0.60268,0.97517 8.1136,1.47252 22.23776,1.47252 h 21.3277 l -0.40639,6.33333 -0.40639,6.33333 -21.64953,0.36628 -21.64953,0.36628 -0.87131,3.47156 c -1.36423,5.43554 0.59952,26.89232 2.90607,31.75303 1.14466,2.4122 3.54741,5.76324 5.33942,7.44676 1.79202,1.68351 3.25822,3.78319 3.25822,4.66595 0,0.88276 -3.61275,2.95609 -8.02834,4.60741 -4.41557,1.65131 -8.35098,3.52447 -8.74534,4.16256 -0.39438,0.63809 -2.45634,1.16017 -4.58214,1.16017 -3.13758,0 -4.48993,-1.06662 -7.18461,-5.66666 z M 64.896435,278.11756 C 52.504394,274.73329 39.327771,261.94885 36.052111,250.13173 35.093559,246.6737 34.438569,228.75253 34.268607,201.33333 L 33.999999,158 H 154.66666 275.33333 v 44.66666 44.66667 l -3.69396,7.52201 c -4.09764,8.34403 -12.34267,16.67075 -21.17349,21.38327 l -5.79922,3.09472 L 158,279.6044 c -68.267579,0.21353 -88.033202,-0.10214 -93.103565,-1.48684 z m 9.673457,-14.96404 c 3.309415,-4.20724 3.467625,-6.24258 0.665989,-8.56774 -1.153597,-0.9574 -3.398122,-4.18086 -4.987831,-7.16325 -2.718655,-5.10036 -2.917583,-7.53837 -3.348219,-41.035 -0.439183,-34.16143 -0.565836,-35.64675 -3.108397,-36.45373 -1.457808,-0.46268 -4.141888,-0.46695 -5.964623,-0.009 l -3.314063,0.83179 0.410292,36.95528 c 0.391374,35.25127 0.549056,37.23383 3.419686,42.99621 3.290517,6.60526 10.513909,15.95907 12.324238,15.95907 0.626719,0 2.383036,-1.58092 3.902928,-3.51315 z M 284.65057,159.35414 c -1.14069,-30.42246 -0.59201,-41.72704 2.10884,-43.44801 1.09061,-0.69494 25.59955,-1.07775 57.24058,-0.89405 l 55.33334,0.32125 V 136 156.66666 l -43.33334,0.66667 -43.33333,0.66667 -0.3358,10.66666 c -0.5564,17.67395 0.30244,16.66667 -14.2106,16.66667 H 285.62468 Z M 1.3333333,141.33333 v -26.77451 l 10.9999997,0.38726 11,0.38725 v 26 26 l -11,0.38725 -10.9999997,0.38726 z m 32.8557967,-1 c -1.16964,-7.0763 -1.015455,-22.01754 0.247741,-24.00717 0.842354,-1.32677 25.927545,-1.60324 120.979579,-1.33333 l 119.91688,0.3405 0.39209,12 c 0.21566,6.6 0.0543,13.35 -0.35873,15 l -0.75083,3 H 154.81572 35.015579 Z m 31.810869,-9 v -8 h -5.333333 -5.333334 l -0.413082,6.49725 c -0.585712,9.21247 0.14541,10.40718 6.069033,9.9172 l 5.010716,-0.41445 z M 94.036272,92.058689 c -1.278332,-2.068384 2.6443,-9.753682 7.132848,-13.974812 2.29032,-2.153866 4.16421,-4.781269 4.16421,-5.838671 0,-1.057404 -3.3,-5.093323 -7.333332,-8.96871 -6.966938,-6.69411 -7.333333,-7.378432 -7.333333,-13.696573 0,-6.067564 0.602666,-7.363061 6.876513,-14.781836 6.731402,-7.959829 11.108532,-10.125794 12.601342,-6.235609 0.89559,2.333874 -1.33016,6.716487 -6.34005,12.483916 -5.761288,6.632428 -5.067148,10.26294 3.52886,18.456784 6.05573,5.77241 7.3251,7.76028 7.28609,11.410198 -0.0553,5.170075 -1.40985,7.728281 -8.56844,16.181955 -5.08365,6.003361 -10.092996,8.072754 -12.014708,4.963358 z m 47.943618,-0.09123 c -1.88749,-3.054022 1.32039,-9.833175 8.13711,-17.196058 9.65209,-10.425405 9.59348,-12.928169 -0.48604,-20.755629 -9.84566,-7.645833 -12.67858,-12.430111 -12.67858,-21.411711 0,-7.551317 2.73422,-13.353973 9.0911,-19.29348 1.94877,-1.82082 4.40162,-4.9605851 5.45077,-6.9772518 1.58411,-3.0449342 2.78725,-3.6666666 7.09555,-3.6666666 2.93905,0 5.45005,0.7224792 5.79254,1.6666667 1.0619,2.9273605 -2.8272,10.3614717 -9.02918,17.2595757 -4.5743,5.08772 -6.01983,7.754332 -6.01983,11.104941 0,4.529099 0.16551,4.732852 12.92563,15.911989 10.92094,9.567845 10.88525,19.100588 -0.11627,31.043354 -3.89115,4.224076 -7.78621,9.030139 -8.65569,10.680139 -1.16691,2.214431 -2.76998,3 -6.12194,3 -2.49758,0 -4.92093,-0.61464 -5.38521,-1.365865 z m 46.93493,-0.468239 c -0.92752,-2.417071 2.29014,-8.50674 7.16624,-13.562705 C 198.23648,75.701607 200,72.87988 200,71.666016 c 0,-1.213864 -2.462,-4.1853 -5.47112,-6.60319 -8.643,-6.944827 -11.5208,-15.531603 -7.64704,-22.817152 3.13182,-5.890133 12.27529,-15.579008 14.70205,-15.579008 5.72715,0 3.57109,9.278241 -3.75552,16.161233 -5.10672,4.797522 -4.10525,8.746531 4.17163,16.449472 6.20537,5.775081 7.32606,7.534761 7.28608,11.440395 -0.0549,5.368278 -1.36314,7.868737 -8.56843,16.377565 -5.31327,6.274509 -10.36211,8.158345 -11.80283,4.403897 z"
       id="path14770"
       inkscape:connector-curvature="0" />
    <path
       style="fill:#6d6d6d;stroke-width:1.33333325"
       d="m 304.55256,412.85009 c -0.3834,-0.99912 -0.51458,-15.24912 -0.2915,-31.66667 0.39574,-29.12389 0.4919,-30.03419 3.95282,-37.41696 3.87965,-8.27601 12.36629,-18.25945 19.01482,-22.36847 2.33128,-1.44081 14.10852,-6.60572 26.17165,-11.47758 24.21727,-9.78049 29.1271,-12.79088 32.51884,-19.93848 3.90774,-8.23493 3.25418,-8.53515 -19.47737,-8.94691 l -20.33541,-0.36836 -0.86336,-4.22848 c -0.47486,-2.32566 -0.47319,-4.8598 0.004,-5.63141 0.53189,-0.86063 9.0914,-1.5454 22.14348,-1.77151 l 21.27613,-0.3686 0.66667,-24 0.66666,-24 h 11.33334 11.33333 l 0.35677,33.92902 0.35679,33.92901 -4.56496,9.61249 c -8.07715,17.00819 -13.85696,21.20325 -48.54369,35.2336 -16.0151,6.47792 -20.53776,8.91861 -24.69944,13.32931 -2.802,2.96964 -4.85274,6.12697 -4.5572,7.01629 0.38069,1.14556 6.21589,1.72439 20.01586,1.98548 18.28654,0.34597 19.53148,0.53544 20.34424,3.09623 0.47616,1.50022 0.50395,4.1692 0.0617,5.93102 -0.80119,3.19218 -0.87708,3.20462 -21.78706,3.57044 l -20.98305,0.36711 -0.36768,21.94255 c -0.25985,15.50753 -0.84639,22.24666 -2,22.97957 -2.96589,1.88429 -20.97464,1.27256 -21.74642,-0.73869 z m 85.46581,0.20417 c -0.33343,-0.94652 -0.77398,-4.72093 -0.97898,-8.3876 l -0.37273,-6.66667 -22.66667,-0.66666 -22.66666,-0.66667 v -5.33333 -5.33334 l 22.66666,-0.66666 22.66667,-0.66667 0.41747,-11.33333 c 0.49558,-13.4542 -1.10427,-19.7449 -6.61888,-26.0257 -2.24463,-2.55648 -3.78086,-5.39653 -3.41383,-6.31122 0.36701,-0.9147 5.31516,-3.7241 10.99589,-6.24312 l 10.32859,-4.58003 2.67297,3.24669 c 1.47014,1.7857 4.23556,6.54671 6.14538,10.58004 3.43445,7.25316 3.47241,7.67592 3.47241,38.66667 v 31.33333 l -11.02103,0.3876 c -8.08225,0.28424 -11.18268,-0.0713 -11.62726,-1.33333 z M 62.468559,355.87858 c -0.700411,-0.43344 -1.092369,-4.63344 -0.871017,-9.33333 l 0.402457,-8.54526 h 90.666661 90.66667 l 0.3974,8.35059 c 0.28228,5.93151 -0.104,8.52968 -1.33333,8.9688 -2.5929,0.92615 -178.452693,1.47271 -179.928841,0.5592 z m 9.949295,-25.86932 c -1.576191,-1.104 -4.19835,-4.16339 -5.82702,-6.79863 -2.632276,-4.25912 -2.866376,-5.91336 -2.107416,-14.89182 0.46959,-5.55527 1.124985,-10.37167 1.456432,-10.70311 1.558097,-1.55809 7.691881,1.57855 13.765609,7.03936 l 6.693834,6.01834 2.75165,-4.66371 c 1.823462,-3.09053 4.904437,-5.61324 9.133685,-7.47865 3.510122,-1.54823 8.948532,-4.0432 12.085352,-5.54439 5.59501,-2.6776 5.73979,-2.68124 7.62426,-0.19137 1.05652,1.39593 1.94003,2.99198 1.96335,3.5468 0.0233,0.5548 4.09241,3.61913 9.04241,6.80961 4.95,3.19048 10.14298,7.08655 11.53998,8.65792 3.58882,4.03681 4.4308,3.61558 5.50711,-2.75505 0.74284,-4.39679 2.53044,-7.1818 8.25476,-12.86058 l 7.3066,-7.24845 8.36629,8.87503 8.36628,8.87501 2.19356,-3.34779 c 2.88662,-4.40552 4.63139,-4.2258 6.33187,0.65222 1.53841,4.41305 3.89052,5.10432 6.53323,1.92005 0.94941,-1.14396 6.42288,-4.42357 12.16325,-7.28801 L 216,293.42396 v 6.42417 c 0,9.59229 7.85004,20.2591 9.97716,13.55719 0.94572,-2.97972 5.38892,-5.95448 7.21141,-4.82812 0.62341,0.38529 1.46655,3.56304 1.87363,7.06166 0.40708,3.49863 1.17246,7.77944 1.70085,9.51293 0.85153,2.7937 0.62825,3.0463 -1.96516,2.22319 -1.63988,-0.52048 -3.73213,-0.25949 -4.76027,0.59379 -1.40433,1.16549 -3.05182,0.90134 -7.02697,-1.12662 C 217.80432,324.18607 208,314.4893 208,311.99616 c 0,-2.14918 -3.64091,-1.5218 -4.52402,0.77956 -0.44513,1.15997 -0.80932,5.65997 -0.80932,9.99999 0,9.66779 -1.56133,10.0873 -9.00397,2.41924 l -5.31085,-5.4717 -2.50926,5.13837 c -3.83422,7.8516 -6.01644,7.26125 -14.41728,-3.90027 C 167.34138,315.53537 164,310.39936 164,309.54797 164,308.69658 163.08514,308 161.967,308 c -2.41755,0 -4.45354,4.86336 -5.54303,13.24063 -0.95257,7.32448 -2.60251,9.83171 -5.42904,8.2499 -1.1222,-0.62802 -3.14784,-0.85222 -4.50144,-0.49824 -1.59659,0.4175 -2.74487,-0.22919 -3.26893,-1.84103 -2.44078,-7.5068 -3.91264,-10.20731 -6.48026,-11.88967 -2.31154,-1.51458 -21.02888,-5.92715 -25.14567,-5.92803 -1.73973,-3.8e-4 -4.93197,8.88947 -4.93197,13.73471 0,6.08311 -0.83398,6.53787 -6.45995,3.52254 -2.658637,-1.42495 -6.252046,-2.59082 -7.985353,-2.59082 -1.823421,0 -4.824058,-1.79052 -7.120549,-4.24892 -5.128443,-5.49001 -6.605919,-3.77246 -6.995535,8.13223 -0.131626,4.02188 -1.989257,4.71625 -5.687419,2.12596 z m 241.865006,-21.6967 c -1.17174,-1.29476 -3.97525,-6.29638 -6.23001,-11.11468 l -4.09956,-8.76058 0.35668,-33.88532 0.35669,-33.88532 h 11.33333 11.33334 l 0.66666,9.33334 0.66667,9.33333 22,0.66667 22,0.66666 V 246 v 5.33333 l -19.33333,0.32373 c -27.68616,0.4636 -25.33896,-1.02381 -25.30406,16.035 0.0321,15.6818 2.17526,22.86948 8.925,29.93239 l 3.46375,3.62445 -6.54235,2.71742 c -3.59829,1.49457 -8.13492,3.61357 -10.0814,4.70888 -4.62112,2.60036 -6.90888,2.51313 -9.51141,-0.36264 z M 59.329279,275.5342 C 55.375951,273.69322 49.812274,269.3135 45.671426,264.78276 34.876818,252.97173 34.563121,251.08818 34.980917,200.59314 L 35.333333,158 154.58352,157.65945 c 90.48034,-0.25839 119.4847,0.0389 120.22224,1.23228 0.53462,0.86504 0.65845,21.11829 0.27516,45.00721 -0.66752,41.60282 -0.82578,43.72383 -3.75287,50.29834 -3.86405,8.67901 -12.24369,17.10958 -21.10901,21.23732 l -6.88571,3.20601 H 154.66666 65.999999 Z m 16.586832,-13.05012 2.543581,-4.18259 -4.582308,-6.66151 c -2.520268,-3.66382 -4.902625,-7.93774 -5.294126,-9.49761 -0.391502,-1.55987 -1.132894,-18.43003 -1.647539,-37.48924 L 65.999999,170 h -5.333333 -5.333334 l -0.354429,37.00269 -0.354431,37.00269 3.494746,6.99731 c 3.823969,7.65649 10.722801,15.66397 13.495268,15.66397 0.966924,0 2.902654,-1.88216 4.301625,-4.18258 z M 285.95378,183.6937 c -0.36809,-0.95924 -0.50828,-16.43274 -0.31152,-34.38556 L 286,116.66666 l 10,-1.00685 c 5.5,-0.55377 30.99999,-0.85377 56.66666,-0.66666 l 46.66667,0.34018 V 136 156.66666 l -43.56248,0.35142 -43.56248,0.35142 -0.78005,8.31524 c -0.42904,4.57339 -0.92592,10.71526 -1.10419,13.64859 L 310,184.66666 l -11.68847,0.38556 c -8.68137,0.28638 -11.86065,-0.0632 -12.35775,-1.35852 z M 1.3333333,141.33333 v -26.66667 h 9.7333327 c 5.792592,0 10.381127,0.6478 11.333334,1.6 2.250848,2.25085 2.250848,47.88248 0,50.13334 -0.952207,0.95221 -5.540742,1.6 -11.333334,1.6 H 1.3333333 Z m 33.9097477,2.2456 c -0.373303,-0.97281 -0.505711,-7.72604 -0.29424,-15.00717 L 35.333333,115.33333 154,114.98829 c 98.46086,-0.28629 118.89369,-0.0381 120,1.45764 0.7901,1.06824 1.06172,7.18425 0.66666,15.01171 L 274,144.66666 154.9609,145.00717 c -97.903184,0.28005 -119.159601,0.0264 -119.717819,-1.42824 z m 29.826042,-3.38743 c 1.205405,-0.76457 1.612816,-3.71206 1.333333,-9.64625 L 65.999999,122 h -5.333333 -5.333334 l -0.402457,8.54525 c -0.422692,8.97489 0.523211,10.74724 5.735791,10.74724 1.466666,0 3.447772,-0.49544 4.402457,-1.10099 z M 95.555554,92.444443 c -2.051865,-2.051864 -0.566498,-5.988086 4.444444,-11.777778 2.933332,-3.389201 5.333332,-7.313349 5.333332,-8.720329 0,-1.406978 -3.3,-5.754445 -7.333332,-9.661036 -6.455181,-6.252337 -7.332281,-7.732513 -7.324547,-12.360763 0.0089,-5.319463 1.420228,-8.090734 8.657881,-17.000398 2.463258,-3.03231 5.152558,-4.924075 6.999998,-4.924101 4.64721,-6e-5 3.76482,4.657624 -2.33333,12.316585 -2.93333,3.684112 -5.333335,7.887114 -5.333335,9.340006 0,1.495485 3.147985,5.524926 7.255495,9.287089 11.17763,10.237846 11.13815,13.955649 -0.29083,27.389614 -5.657497,6.649997 -8.072285,8.114602 -10.075776,6.111111 z m 47.245706,-0.948928 c -2.36205,-2.8461 0.31315,-8.182563 8.57615,-17.107584 4.00909,-4.330296 7.28925,-9.066337 7.28925,-10.524537 0,-2.789103 -2.95032,-6.034127 -11.21705,-12.337532 -6.80741,-5.190659 -10.10529,-11.02956 -10.11129,-17.902021 -0.007,-7.119584 2.55761,-13.295684 7.31604,-17.623841 2.01558,-1.833334 5.10044,-5.583333 6.85522,-8.3333335 2.53266,-3.9690194 4.0205,-4.9999999 7.21566,-4.9999999 7.77536,0 6.32125,7.3167182 -3.70976,18.6666664 -9.34416,10.572781 -8.77018,15.316297 2.89618,23.93474 8.61359,6.363238 11.43447,11.069289 11.38828,18.999046 -0.0348,5.969409 -1.53477,8.437529 -13.91562,22.89701 -5.43664,6.349392 -9.69246,7.814344 -12.58306,4.331386 z m 47.42096,0.948928 c -2.1303,-2.130303 -0.47945,-6.14977 5.11111,-12.444444 3.3,-3.715624 6,-7.410733 6,-8.211356 0,-0.800621 -2.97907,-4.158171 -6.62016,-7.461219 -7.11907,-6.458136 -10.17109,-12.993319 -8.73683,-18.707866 1.39622,-5.562953 11.54318,-17.483013 14.94496,-17.556473 5.87052,-0.126773 4.99555,4.736548 -2.26754,12.603581 -6.58794,7.135732 -6.44683,9.471581 0.99502,16.472804 8.15764,7.67463 10.18671,11.349736 9.1442,16.562239 -0.71485,3.574276 -6.38982,11.704652 -12.28372,17.598551 -2.14548,2.145473 -4.80225,2.62898 -6.28704,1.144183 z"
       id="path14768"
       inkscape:connector-curvature="0" />
    <path
       style="fill:#515151;stroke-width:1.33333325"
       d="m 305.5731,413.50973 c -1.39382,-0.88378 -1.67137,-7.33254 -1.33333,-30.97959 0.4192,-29.32544 0.49257,-30.00367 4.07223,-37.64467 8.11385,-17.31954 14.36399,-22.02992 46.35466,-34.93487 12.44732,-5.02122 23.6438,-10.41096 25.78571,-12.41268 4.47544,-4.18252 7.54762,-9.66604 7.54762,-13.47171 0,-2.62859 -0.73362,-2.73288 -19.22428,-2.73288 -10.57336,0 -20.17336,-0.36419 -21.33333,-0.80932 -1.33111,-0.51079 -2.10905,-2.42544 -2.10905,-5.19068 0,-2.76524 0.77794,-4.67989 2.10905,-5.19068 1.15997,-0.44513 11.05997,-0.80932 22,-0.80932 h 19.89095 v -23.06667 c 0,-16.16296 0.47886,-23.54553 1.6,-24.66666 1.82589,-1.8259 18.10697,-2.1676 20.83621,-0.43731 1.41381,0.89632 1.68169,7.92839 1.33251,34.97957 L 412.66501,290 l -4.37162,8.37277 c -8.69533,16.65384 -15.63477,21.56277 -49.42609,34.96378 -9.78964,3.8824 -19.56119,8.54139 -21.71455,10.35332 -4.28016,3.60152 -8.20385,10.14792 -6.87736,11.47442 0.45964,0.45964 8.78664,0.8357 18.50444,0.8357 9.7178,0 18.6178,0.36419 19.77778,0.80932 2.85441,1.09534 2.85441,9.28603 0,10.38136 -1.15998,0.44514 -10.75998,0.80932 -21.33334,0.80932 h -19.22428 v 22.033 22.033 l -3.42013,1.30034 c -4.17057,1.58565 -16.58444,1.6793 -19.00676,0.1434 z m 85.36023,-0.44307 c -0.88,-0.88 -1.6,-4.78 -1.6,-8.66667 v -7.06666 h -21.73334 c -22.80361,0 -24.93333,-0.5125 -24.93333,-6 0,-5.48751 2.12972,-6 24.93333,-6 h 21.73334 v -13.37616 c 0,-14.68455 -1.72495,-20.76762 -7.6402,-26.94327 -1.9243,-2.00901 -3.24247,-3.88569 -2.92927,-4.17039 0.31321,-0.2847 5.21891,-2.65166 10.90156,-5.25992 l 10.33208,-4.74226 3.29457,4.3194 c 1.81203,2.37568 4.65952,7.28637 6.32779,10.91266 2.81467,6.11823 3.06587,8.74406 3.48643,36.44468 0.36166,23.82062 0.0936,30.07934 -1.32654,30.97959 -2.7372,1.73507 -19.01693,1.39849 -20.84642,-0.431 z M 61.878403,354.16391 c -0.387513,-1.00984 -0.518683,-4.75984 -0.291487,-8.33333 l 0.413083,-6.49725 h 90.666661 90.66667 l 0.41061,6.43692 c 0.22978,3.60196 -0.28254,7.27216 -1.16325,8.33333 -2.31783,2.79281 -179.631018,2.85201 -180.702287,0.0604 z m 8.533967,-27.16392 c -5.882942,-6.30748 -6.73465,-9.1525 -5.731206,-19.14435 0.508128,-5.05974 1.48428,-9.54587 2.169224,-9.96919 1.715668,-1.06035 14.227267,7.15049 16.740399,10.98601 2.316012,3.53468 4.409212,4.09199 4.409212,1.17394 0,-3.88516 7.839077,-10.98812 14.044261,-12.72546 3.34479,-0.93649 7.61047,-2.90544 9.47927,-4.37544 l 3.39784,-2.67273 4.87265,5.41916 c 2.67995,2.98053 8.30643,7.55133 12.50327,10.15733 4.19685,2.60599 8.39117,5.956 9.32073,7.44446 2.66307,4.26425 5.04864,3.30663 5.04864,-2.0266 0,-4.94115 3.20039,-12.60046 5.26502,-12.60046 0.65809,0 3.13116,-1.93464 5.49572,-4.2992 l 4.2992,-4.29918 8.44276,9.08846 8.44274,9.08847 1.57464,-3.45595 c 1.97262,-4.32941 4.83779,-4.44174 6.43068,-0.25212 1.87402,4.92903 3.93911,5.39323 7.82426,1.75878 1.95708,-1.8308 7.30832,-5.16579 11.89165,-7.4111 l 8.33333,-4.08238 v 4.81497 c 0,5.18688 5.29716,15.57176 8.58682,16.8341 1.28893,0.49462 2.59853,-0.508 3.71449,-2.84378 0.94803,-1.98425 2.99113,-3.78939 4.54024,-4.0114 2.49669,-0.35783 2.89193,0.39931 3.48012,6.66666 0.36496,3.88868 1.13285,8.19014 1.70645,9.55878 0.9323,2.22456 0.72962,2.32078 -1.91117,0.90748 -2.23249,-1.19479 -3.40616,-1.20578 -4.80485,-0.0449 -1.01794,0.84482 -3.01871,1.16535 -4.44615,0.7123 -5.24644,-1.66516 -13.79128,-9.02332 -15.65308,-13.47925 -1.05343,-2.5212 -2.78415,-4.584 -3.84604,-4.584 -2.39263,0 -5.01208,9.15798 -4.52197,15.80949 0.45098,6.12078 -1.86043,5.96629 -7.65283,-0.51151 -2.27771,-2.54725 -4.73669,-4.63135 -5.46441,-4.63135 -0.72771,0 -2.26586,2.4 -3.4181,5.33334 -1.15225,2.93333 -2.6965,5.33333 -3.43169,5.33333 -1.71339,0 -9.88823,-9.49853 -15.20469,-17.66666 -2.26723,-3.48334 -4.55604,-6.33334 -5.08624,-6.33334 -1.49822,0 -4.80318,9.30569 -5.84671,16.46241 -0.84652,5.80555 -1.23696,6.38339 -3.84124,5.68488 -1.59443,-0.42765 -3.86743,-0.78574 -5.05113,-0.79576 -1.31619,-0.0107 -3.0465,-2.35989 -4.45446,-6.0466 -2.72698,-7.14049 -5.99685,-9.13973 -18.06002,-11.04214 -4.76667,-0.75171 -9.67065,-1.76489 -10.89775,-2.25152 -2.99424,-1.1874 -5.46683,3.45525 -6.38497,11.98873 -0.5265,4.89352 -1.24923,6.59596 -2.71728,6.40085 -5.503595,-0.73149 -16.655963,-5.58664 -18.737615,-8.15736 -1.296074,-1.60058 -3.025174,-2.91016 -3.842444,-2.91016 -1.910801,0 -4.086609,5.7254 -4.086609,10.75347 0,4.95241 -2.450417,5.03969 -6.920962,0.24653 z M 315.3201,308.46296 c -1.15688,-1.15688 -4.0268,-5.78432 -6.37761,-10.28319 L 304.66832,290 304.23128,256.14226 c -0.34919,-27.05118 -0.0813,-34.08325 1.3325,-34.97957 2.72924,-1.73029 19.01032,-1.38859 20.83621,0.43731 0.90448,0.90448 1.6,5.2371 1.6,9.96697 v 8.36697 l 21.52312,0.36636 c 23.50956,0.40018 25.12114,0.96175 23.32275,8.12704 l -0.88013,3.50676 -21.64954,0.36628 -21.64953,0.36628 -0.3754,15.63734 c -0.40215,16.75196 1.11069,22.39718 7.56685,28.23598 1.54471,1.39699 2.80855,3.05456 2.80855,3.68348 0,0.62892 -3.45,2.68895 -7.66667,4.57784 -13.17508,5.90188 -13.38958,5.95198 -15.67989,3.66166 z M 63.843043,276.845 c -7.696221,-2.78072 -14.156085,-7.29799 -19.147773,-13.38968 -9.321404,-11.37555 -9.316521,-11.3456 -9.779063,-59.99151 -0.333893,-35.11581 -0.06784,-44.09103 1.333334,-44.97959 2.277774,-1.44445 234.541229,-1.45421 236.818159,-0.009 1.38038,0.87557 1.65251,10.19239 1.33334,45.64625 -0.39168,43.50715 -0.47236,44.67971 -3.45879,50.27288 -4.50477,8.43682 -11.88187,16.01008 -19.52431,20.0435 L 244.66666,278 l -88,0.2939 c -69.692053,0.23276 -89.003524,-0.0687 -92.823617,-1.4489 z m 12.617537,-14.42047 2.842277,-4.9088 -2.828798,-3.0912 c -7.472083,-8.1652 -7.758865,-9.804 -8.47406,-48.42453 l -0.666667,-36 h -6.666666 -6.666667 l 0.03805,37.33333 0.03805,37.33333 3.626133,6.95078 c 4.548359,8.71856 11.40432,16.62754 13.965149,16.11009 1.073004,-0.21681 3.229941,-2.60316 4.793192,-5.303 z m 210.47275,-78.6912 c -2.27256,-2.27256 -2.27256,-63.86077 0,-66.13333 1.19279,-1.19279 15.61481,-1.6 56.66666,-1.6 h 55.06667 v 19.91014 c 0,17.83163 -0.24359,19.97635 -2.33333,20.54418 -1.28334,0.3487 -20.43931,0.6265 -42.56882,0.61734 -22.12952,-0.009 -40.87951,0.38138 -41.66666,0.86786 -0.85396,0.52778 -1.43119,5.90396 -1.43119,13.32985 0,10.11852 -0.3943,12.59664 -2.10905,13.25464 -3.80723,1.46097 -19.96337,0.87023 -21.62428,-0.79068 z m -285.6062602,-42.4 v -26 l 10.6697982,0.43486 10.669798,0.43487 v 25.13027 25.13028 l -10.669798,0.43485 -10.6697982,0.43487 z m 34.7843772,2.13429 c -0.999345,-1.20414 -1.411833,-6.28669 -1.16326,-14.33334 L 35.333333,116.66666 155,116.3262 274.66666,115.98574 v 13.0738 c 0,8.39072 -0.57312,13.64691 -1.6,14.67379 -1.2201,1.22011 -29.3563,1.6 -118.50341,1.6 -98.54786,0 -117.14652,-0.29295 -118.451803,-1.86571 z m 31.279543,-5.22265 c 0.426321,-1.6986 0.587752,-6.0486 0.358736,-9.66667 L 67.333332,122 61.465478,121.58017 c -7.073031,-0.50605 -8.08413,0.71795 -8.111728,9.81983 -0.02441,8.05054 1.533782,9.93333 8.220846,9.93333 4.158728,0 5.17696,-0.54065 5.816394,-3.08836 z M 96.129802,92.080221 c -2.536921,-1.567902 -0.77599,-5.838093 5.304768,-12.86386 2.87765,-3.324868 5.23209,-6.868553 5.23209,-7.874855 0,-1.006303 -2.64425,-3.996412 -5.87612,-6.644687 -8.005184,-6.559644 -10.923811,-12.856308 -8.909761,-19.221972 2.034353,-6.42984 12.556611,-18.103955 15.351131,-17.031597 3.28157,1.259255 2.52999,3.753675 -3.23191,10.726369 -7.395844,8.949991 -7.107259,11.90473 2,20.477416 6.42601,6.048823 7.33333,7.538596 7.33333,12.040951 0,4.174699 -1.15559,6.498089 -6.16331,12.391705 -7.12185,8.381748 -8.64152,9.483008 -11.040218,8.00053 z M 142.66666,88.96334 c 0,-3.752921 2.65928,-7.827396 10.30132,-15.783354 7.97079,-8.298219 7.57386,-11.675278 -2.30132,-19.579616 -16.37396,-13.106135 -17.32388,-24.224284 -3.44928,-40.371665 3.4162,-3.9757879 6.81347,-7.9787051 7.54951,-8.8953717 1.55721,-1.9393692 5.09153,-2.1374849 7.77921,-0.4360619 2.78278,1.7616308 -0.25678,8.1884276 -8.12556,17.1805176 -8.29672,9.481117 -8.64962,14.192232 -1.53976,20.55458 11.7408,10.506389 15.00131,14.100275 15.84615,17.466387 1.68956,6.731758 -0.54179,12.546258 -7.88791,20.554437 -3.87485,4.224076 -7.42997,8.730139 -7.90026,10.013472 -0.59378,1.620306 -2.29391,2.333334 -5.56359,2.333334 -4.01085,0 -4.70851,-0.44994 -4.70851,-3.036659 z m 47.48027,1.941059 c -1.00432,-1.625006 2.78269,-8.317792 7.43608,-13.14184 5.09239,-5.279133 4.44823,-9.104047 -2.30035,-13.65908 -5.84586,-3.945731 -8.61813,-9.002497 -8.60938,-15.703933 0.005,-4.041973 1.26472,-6.616188 6.22954,-12.73288 C 199.14162,27.980462 204,25.703861 204,30.466616 c 0,2.459938 -6.54799,12.478607 -9.24527,14.145622 -3.54004,2.187868 -1.30621,7.728776 5.91193,14.664258 6.52511,6.26958 7.33334,7.642116 7.33334,12.453491 0,4.524572 -1.03394,6.614002 -6.33334,12.798758 -5.86318,6.842728 -9.86293,9.056412 -11.51973,6.375654 z"
       id="path14766"
       inkscape:connector-curvature="0" />
    <path
       style="fill:#2d2d2d;stroke-width:1.33333325"
       d="M 305.57893,381.72433 306,349.99999 l 3.71338,-7.04786 c 4.71463,-8.9482 11.87564,-16.89112 18.84176,-20.89907 2.99467,-1.72297 14.74485,-6.87668 26.11152,-11.45265 11.36667,-4.57599 22.6222,-9.76783 25.01231,-11.53744 4.28545,-3.17289 9.65436,-11.81147 9.65436,-15.53387 0,-3.05984 -3.0965,-3.5291 -23.28695,-3.5291 h -19.06885 l -0.69947,-3.65907 c -0.38472,-2.01249 -0.41925,-4.11249 -0.0768,-4.66667 0.34249,-0.55418 9.76732,-1.0076 20.94404,-1.0076 14.02768,0 20.81684,-0.49553 21.92131,-1.6 1.12113,-1.12113 1.6,-8.5037 1.6,-24.66666 v -23.06667 h 10.66666 10.66667 v 33.70428 33.70428 l -4.52579,9.44372 c -7.78858,16.25205 -14.0295,20.74889 -47.04184,33.89553 -20.58149,8.19627 -24.7597,10.64303 -28.49482,16.68657 -4.8995,7.92756 -3.82256,8.44799 18.34014,8.86299 l 19.72236,0.36929 v 4 4 l -20.19829,0.36734 c -14.53232,0.26429 -20.60036,0.8518 -21.6316,2.09436 -0.85237,1.02705 -1.58261,10.33538 -1.80171,22.966 l -0.3684,21.23897 -10.42106,0.391 -10.42105,0.391 z m 85.08773,24.54233 c 0,-3.88667 -0.72,-7.78667 -1.6,-8.66667 -1.11356,-1.11356 -8.20741,-1.6 -23.33333,-1.6 h -21.73334 v -4.66666 -4.66667 h 21.73334 c 15.12592,0 22.21977,-0.48644 23.33333,-1.6 2.15293,-2.15293 1.99011,-22.9812 -0.22816,-29.18693 -0.94111,-2.63283 -3.39844,-6.99916 -5.46075,-9.70296 -2.06229,-2.70382 -3.51596,-5.13472 -3.23036,-5.40203 1.78123,-1.66715 19.32438,-8.75109 20.52799,-8.28923 0.80748,0.30986 3.53585,4.37738 6.06304,9.03892 l 4.59491,8.47556 0.43909,31.66667 0.43909,31.66667 H 401.43909 390.66666 Z M 62.999999,354.55662 c -1.77118,-1.86679 -2.157852,-7.92109 -0.823844,-12.89929 l 0.806409,-3.00934 89.508716,0.34267 89.50872,0.34267 0.39986,7.66666 0.39988,7.66667 h -61.18489 c -33.65169,0 -73.73163,0.37048 -89.066535,0.82329 -22.171552,0.65468 -28.222979,0.46355 -29.548316,-0.93333 z m 10.075172,-25.34127 c -1.210665,-0.67752 -3.525184,-3.37409 -5.143376,-5.99238 -2.521891,-4.08051 -2.847331,-6.08595 -2.278268,-14.03935 0.365144,-5.10336 1.066163,-9.68109 1.557821,-10.17276 1.507459,-1.50745 10.159932,3.9429 14.723881,9.27484 2.376318,2.7762 4.66649,5.04763 5.089271,5.04763 0.422781,0 1.458424,-2.08991 2.301428,-4.64423 1.736428,-5.26144 6.221324,-8.88565 14.007402,-11.31929 2.93333,-0.91687 6.77266,-2.57251 8.53184,-3.67921 3.04477,-1.9155 3.39723,-1.78618 7.33333,2.69057 2.27416,2.58652 7.43483,6.77739 11.46816,9.31303 4.03334,2.53564 8.78792,6.19174 10.56575,8.12469 1.77784,1.93294 3.65053,3.51444 4.16156,3.51444 0.51103,0 1.34439,-3.13027 1.85191,-6.95613 0.80273,-6.05131 1.73184,-7.69895 7.14272,-12.66667 3.42097,-3.1408 6.9132,-5.71053 7.76052,-5.71053 1.58138,0 8.34204,7.14401 13.31796,14.07314 l 2.80041,3.89967 2.23383,-4.31973 c 2.29985,-4.44742 4.83201,-5.74047 4.83201,-2.46746 0,1.01875 1.1776,3.26875 2.61691,5 l 2.61689,3.14771 3.04977,-3.55433 C 196.01601,304.98297 211.66504,296 214.13682,296 c 0.29142,0 0.52984,2.13944 0.52984,4.75432 0,5.2501 1.60143,9.04361 5.73238,13.57901 3.66137,4.01985 5.38868,3.7797 7.19282,-1 1.94624,-5.15619 5.74147,-5.37071 5.74147,-0.32453 0,2.0215 0.55812,5.6215 1.24025,7.99999 1.14748,4.00102 1.00618,4.32454 -1.88888,4.32454 -1.72104,0 -3.35442,0.67582 -3.62976,1.50182 -1.32625,3.97875 -19.72161,-10.39082 -19.72161,-15.40557 0,-0.99602 -0.88359,-2.15001 -1.96351,-2.56442 -3.34694,-1.28434 -6.03649,4.40302 -6.03649,12.76485 0,4.23682 -0.47823,7.70332 -1.06273,7.70332 -0.58451,0 -3.40628,-2.4 -6.2706,-5.33334 -2.86432,-2.93333 -5.59508,-5.33333 -6.06835,-5.33333 -0.47327,0 -1.80323,2.4 -2.95547,5.33333 -1.15225,2.93334 -2.98646,5.33334 -4.07605,5.33334 -1.98845,0 -15.5668,-17.15436 -15.5668,-19.66649 0,-0.73718 -0.80892,-2.01167 -1.79761,-2.8322 -2.84514,-2.36126 -6.05052,2.32037 -7.73871,11.3027 -2.06391,10.98155 -2.25468,11.48253 -3.96891,10.42308 -0.83822,-0.51805 -2.79246,-1.00608 -4.34274,-1.08451 -1.91466,-0.0968 -3.24695,-1.46744 -4.15394,-4.27329 -1.54874,-4.79121 -4.0832,-8.13089 -7.59794,-10.01193 -2.01055,-1.076 -21.99492,-5.18192 -25.25538,-5.18887 -1.46251,-0.003 -5.14477,10.51224 -5.14477,14.69183 0,2.18516 -0.31893,3.97301 -0.70872,3.97301 -3.94007,0 -17.894483,-6.26487 -20.285554,-9.10724 -2.924935,-3.477 -3.040727,-3.49949 -5,-0.97125 -1.103148,1.42349 -2.005724,4.83808 -2.005724,7.58797 0,5.613 -1.037947,6.84133 -4.258161,5.03921 z m 241.839399,-21.5833 c -0.77656,-0.93571 -3.24956,-5.58571 -5.49553,-10.33333 l -4.0836,-8.63206 -0.001,-33.66666 -10e-4,-33.66667 h 10.66666 10.66667 v 8.4 c 0,4.75556 0.69417,9.09417 1.6,10 1.10943,1.10943 8.05925,1.6 22.66667,1.6 H 372.0001 V 246 v 4.66666 h -20.08765 c -11.29713,0 -21.21625,0.604 -22.66667,1.38024 -2.30481,1.23351 -2.57762,2.89916 -2.56598,15.66667 0.0107,12.15012 0.4778,15.28332 3.12114,20.95309 1.70948,3.66667 4.10362,7.49014 5.32031,8.49659 1.21671,1.00647 2.21219,2.29991 2.21219,2.87433 0,1.20972 -16.80554,9.29575 -19.31978,9.29575 -0.92786,0 -2.32241,-0.76557 -3.09898,-1.70128 z M 59.306296,274.19022 c -8.944095,-4.165 -18.677694,-15.08802 -21.293111,-23.8951 -1.611171,-5.4254 -2.013186,-15.25236 -2.013186,-49.21096 V 158.65233 L 155,158.99284 l 119,0.34049 -0.46071,44 c -0.44371,42.37535 -0.57268,44.25041 -3.49309,50.78197 -3.72711,8.33578 -10.69243,15.4826 -19.37978,19.88482 l -6.57777,3.33321 -89.04433,-0.0133 -89.044321,-0.0133 -6.693703,-3.11705 z m 15.649053,-8.52356 c 4.841506,-5.55041 5.2186,-7.92022 1.894118,-11.90338 -7.495949,-8.98115 -7.712075,-10.20478 -8.645329,-48.94691 l -0.870806,-36.14971 h -6.666666 -6.666667 l -0.354816,37.22266 -0.354816,37.22265 3.813731,8.11068 C 61.204784,259.9436 67.875108,268 70.994962,268 c 1.058789,0 2.840963,-1.05 3.960387,-2.33334 z M 286.66666,150.78042 v -33.21957 l 9.66667,-0.85185 c 5.31667,-0.46851 30.36666,-0.6697 55.66666,-0.44709 l 46,0.40475 V 136 155.33333 L 354.66666,156 311.33333,156.66666 310.12089,170.33333 308.90845,184 h -11.12089 -11.1209 z M 1.3309949,140.85529 1.3286565,115.33333 11.664328,116 22,116.66666 V 141.33333 166 l -10.333334,0.18862 -10.3333327,0.18863 z M 35.999999,130 V 116 H 154.58797 c 65.22339,0 118.88265,0.47679 119.24281,1.05953 0.36016,0.58275 0.30742,6.88275 -0.1172,14 L 272.94153,144 H 154.47077 35.999999 Z m 31.732464,1.45269 c 0.280253,-6.46968 -0.116867,-9.54129 -1.333333,-10.31292 -2.593439,-1.64507 -9.643482,-1.36209 -11.465798,0.46023 -1.713185,1.71318 -2.249001,17.30656 -0.649642,18.9059 0.522697,0.52271 3.672697,0.77271 7,0.55556 l 6.049642,-0.3948 z M 95.999998,89.414425 c 0,-1.422066 2.4,-5.358558 5.333332,-8.74776 2.93334,-3.389201 5.33333,-7.427515 5.33333,-8.974031 0,-1.692158 -2.92016,-5.52952 -7.333328,-9.636674 -6.597928,-6.140417 -7.333333,-7.375714 -7.333333,-12.31817 0,-4.540351 1.053594,-6.78674 6.073254,-12.9489 C 104.02315,29.484766 108,27.314878 108,31.372557 c 0,1.121573 -2.4,5.075452 -5.33333,8.786397 -2.933338,3.710944 -5.333338,7.940964 -5.333338,9.400043 0,1.506281 3.535658,6.048686 8.180488,10.50979 7.64079,7.338575 8.13013,8.167208 7.41725,12.560151 -0.48805,3.007521 -3.07691,7.341343 -7.18048,12.020321 -6.704204,7.64427 -9.750592,9.133057 -9.750592,4.765166 z m 47.369602,1.310931 c -1.35538,-2.193044 2.76617,-9.857535 7.9185,-14.725357 6.0837,-5.74776 9.11288,-11.302808 8.02778,-14.721673 -0.45184,-1.423618 -4.3873,-5.332183 -8.74544,-8.6857 -9.28332,-7.143355 -11.90378,-11.529784 -11.90378,-19.92596 0,-7.171522 2.13536,-11.798134 8,-17.333333 2.33094,-2.2 5.09991,-5.6499998 6.15328,-7.6666665 1.43582,-2.7488743 2.90786,-3.6666666 5.88096,-3.6666666 6.62236,0 5.14187,5.028249 -5.01582,17.0353921 -9.3894,11.098954 -8.31567,16.908355 4.79676,25.952697 11.92553,8.225681 13.3424,20.896182 3.39853,30.392052 -2.66079,2.540922 -6.27991,6.869858 -8.04248,9.619858 -3.1578,4.926866 -8.5416,6.842802 -10.46829,3.725357 z m 47.29706,-1.347517 c 0,-1.442188 2.7,-5.662216 6,-9.37784 3.3,-3.715624 6,-7.424581 6,-8.242128 0,-0.817547 -3.45,-4.671825 -7.66666,-8.565061 -7.29258,-6.733216 -7.66667,-7.391996 -7.66667,-13.501189 0,-5.648704 0.70795,-7.262154 5.87539,-13.390434 3.23145,-3.83232 6.98145,-6.967854 8.33333,-6.967854 1.35187,0 2.45795,0.329796 2.45795,0.73288 0,1.909756 -4.10242,8.266173 -7.20666,11.166205 -5.06069,4.7278 -4.73144,11.089969 0.83714,16.176076 2.36342,2.158661 4.74802,3.924838 5.29909,3.924838 2.17964,0 5.31053,8.466123 4.54551,12.291284 -0.89824,4.491185 -12.20966,18.375383 -14.97038,18.375383 -1.01092,0 -1.83804,-1.179972 -1.83804,-2.62216 z"
       id="path14764"
       inkscape:connector-curvature="0" />
    <path
       style="fill:#020202;stroke-width:1.33333325"
       d="m 305.42637,395.66666 c 0.17071,-29.96737 1.66439,-44.95101 5.21119,-52.27536 4.03262,-8.32757 10.84621,-15.919 18.10699,-20.17412 3.09887,-1.81604 15.14643,-7.15039 26.77238,-11.85409 23.41529,-9.47351 28.6448,-12.88024 32.75341,-21.33701 4.48927,-9.24027 3.45612,-10.02422 -13.22851,-10.03767 -7.90634,-0.007 -17.52517,-0.38995 -21.37517,-0.85239 -6.2302,-0.74833 -7,-1.18694 -7,-3.98841 V 272 l 20.33333,-0.0204 c 11.18334,-0.0107 21.23334,-0.5883 22.33334,-1.28235 1.62608,-1.026 2.07838,-5.63393 2.41928,-24.64625 l 0.41928,-23.38434 h 10.12264 10.12265 l -0.81655,33.29179 c -0.80046,32.63641 -0.8878,33.44241 -4.43646,40.94367 -3.97063,8.39322 -11.79103,17.6197 -18.39288,21.69987 -2.33128,1.44082 -14.10852,6.60572 -26.17166,11.47759 -24.11594,9.73956 -28.73297,12.54867 -32.63866,19.85805 -2.59971,4.86527 -2.60012,4.93782 -0.0395,6.8233 1.94905,1.43513 7.13476,1.90573 21,1.90573 h 18.41183 v 3.33333 3.33334 h -19.90476 c -16.31747,0 -20.28238,0.37761 -22,2.09524 -1.72938,1.72937 -2.09524,5.80374 -2.09524,23.33333 v 21.23809 h -10 -10 l 0.0931,-16.33333 z m 86.17534,8.85963 c -0.42424,-4.11054 -1.15657,-7.86054 -1.62738,-8.33334 -0.47083,-0.4728 -10.70766,-1.05 -22.74852,-1.28269 l -21.89248,-0.42307 v -3.15386 -3.15387 l 21.89248,-0.42307 c 12.04086,-0.23269 22.37306,-0.90526 22.96045,-1.49464 1.82257,-1.82869 2.16961,-18.7915 0.5446,-26.61914 -0.85256,-4.10679 -3.30528,-9.87608 -5.46776,-12.86131 l -3.92165,-5.41368 7.95792,-4.01715 c 4.37685,-2.20942 8.72502,-4.00972 9.6626,-4.00064 2.11418,0.0204 7.32777,7.91326 9.73622,14.73952 1.1651,3.30226 2.13992,15.52402 2.75271,34.51178 l 0.94876,29.39886 h -10.01329 -10.0133 z M 63.235655,352.89291 c -0.410675,-1.0702 -0.556701,-4.25892 -0.324503,-7.08604 l 0.42218,-5.14021 H 152.66666 242 l -0.26802,5.82356 c -0.1474,3.20297 -0.64702,6.20297 -1.11026,6.66667 -0.46326,0.4637 -40.39662,1.03182 -88.74083,1.26248 -76.081157,0.36298 -87.99894,0.15776 -88.645235,-1.52646 z m 9.154173,-25.83642 c -5.549917,-5.54992 -6.974778,-9.96367 -5.862498,-18.16011 0.564317,-4.15848 1.394965,-7.9298 1.845885,-8.3807 1.197419,-1.19743 9.799364,4.43557 13.013865,8.52216 2.7219,3.46033 2.72432,3.52876 0.158299,4.47798 -3.485928,1.28953 -4.291372,2.82665 -5.346579,10.20347 l -0.894293,6.25188 z m 99.867862,-8.54179 c -3.8084,-5.26985 -6.92436,-10.32732 -6.92436,-11.23881 0,-2.06493 -3.07108,-3.34071 -5.0692,-2.1058 -2.06008,1.2732 -5.11153,9.02398 -6.23216,15.8299 -0.84303,5.12002 -1.29893,5.66667 -4.72599,5.66667 -4.50505,0 -6.79028,-4.54384 -3.56976,-7.09792 1.13011,-0.89624 2.25135,-4.67503 2.61552,-8.81476 0.57783,-6.56865 1.18322,-7.71784 6.47618,-12.29353 3.2113,-2.77615 6.38165,-5.06545 7.0452,-5.08733 1.84912,-0.0609 11.48598,10.52106 12.85108,14.11152 1.69353,4.45434 4.94994,3.96186 6.99842,-1.0584 l 1.73027,-4.24042 2.89525,4.90708 c 3.30647,5.60404 4.92555,6.07454 7.30723,2.12339 0.92288,-1.53103 5.72796,-4.83857 10.67796,-7.35009 l 9,-4.56639 v 4.10441 c 0,4.87178 1.76407,8.61203 6.41237,13.59577 4.35923,4.6738 8.2543,4.86823 8.2543,0.41203 0,-3.02013 2.10302,-5.75344 3.4163,-4.44017 1.08536,1.08537 2.29035,13.69262 1.21307,12.6919 -0.5938,-0.5516 -2.1494,-0.0348 -3.45689,1.14847 -2.19712,1.98837 -2.73144,1.93248 -7.0519,-0.73771 -5.3302,-3.29424 -10.85808,-9.43005 -12.14297,-13.47838 -1.18792,-3.74283 -6.08289,-2.91067 -8.25792,1.40387 -0.92421,1.83333 -1.71384,6.33333 -1.75472,9.99999 l -0.0744,6.66667 -5.25956,-5.81664 c -5.96757,-6.59964 -8.601,-6.57791 -10.32759,0.0852 -1.81354,6.99871 -4.50796,6.00992 -12.04578,-4.42055 z m -77.802901,3.92104 c -7.072096,-2.38655 -11.526396,-6.43575 -7.07961,-6.43575 1.085078,0 1.958153,-1.21849 1.958153,-2.73287 0,-6.49338 7.580362,-14.60046 13.651868,-14.60046 0.98136,0 4.14367,-1.20288 7.02736,-2.67306 l 5.24308,-2.67308 3.07516,3.92933 c 1.69134,2.16113 6.28852,5.76783 10.21595,8.01487 3.92743,2.24705 7.90042,5.00085 8.82886,6.11954 1.48691,1.79163 1.22747,1.85698 -2.17711,0.54844 -2.12584,-0.81706 -6.86517,-2.00061 -10.53184,-2.6301 -3.66666,-0.62948 -8.56134,-1.54403 -10.87705,-2.03231 -3.53692,-0.74577 -4.48685,-0.3852 -5.93882,2.25429 -0.95065,1.72815 -2.05597,5.79411 -2.45629,9.03548 -0.40031,3.24136 -1.32783,6.01229 -2.06117,6.15764 -0.73333,0.14533 -4.728676,-0.88155 -8.878541,-2.28196 z M 313.41722,303.17609 c -7.13625,-12.09505 -7.22088,-12.61132 -7.78717,-47.50943 l -0.53551,-33 h 9.96407 9.96406 l 0.55767,8.75795 c 0.36275,5.69688 1.23257,9.18493 2.48865,9.97959 1.06206,0.67189 11.081,1.23082 22.26434,1.24205 l 20.33333,0.0204 v 4 4 h -21.28643 c -25.87674,0 -24.72334,-0.97086 -23.73054,19.97519 0.69169,14.59329 2.39124,20.14523 8.06708,26.35289 1.506,1.64711 2.48582,3.20807 2.17737,3.46879 C 334.41137,301.7169 319.46863,308 317.97057,308 c -0.93895,0 -2.98795,-2.17076 -4.55335,-4.82391 z M 71.999999,275.9708 c -4.766667,-0.4503 -10.2853,-1.50116 -12.263631,-2.33526 -5.44426,-2.2954 -14.118047,-10.67558 -18.137963,-17.52402 -3.478707,-5.92642 -3.614008,-6.93939 -4.467152,-33.44486 -0.483887,-15.03333 -0.936371,-35.28333 -1.005523,-45 L 35.999999,160 H 154.8129 273.62582 l -0.54257,43.66666 -0.54257,43.66667 L 269.06981,254 c -4.3832,8.41905 -11.71961,15.76474 -19.60333,19.62812 l -6.13315,3.0055 -81.33333,0.078 c -44.73334,0.0428 -85.233335,-0.29053 -90.000001,-0.74082 z m 4.598812,-11.09666 c 4.13502,-5.42129 4.307322,-8.97413 0.598016,-12.33101 C 70.420444,246.41058 70.087503,244.36966 69.604111,206 69.10416,166.31585 69.183874,166.66666 60.666666,166.66666 c -9.027491,0 -8.868145,-0.78376 -8.411341,41.3725 L 52.666666,246 l 3.611238,6.84629 c 4.250135,8.05753 11.823063,16.48704 14.811676,16.48704 1.159423,0 3.638577,-2.00664 5.509231,-4.45919 z M 287.77849,155.66666 c -0.29308,-14.85 -0.21313,-29.4 0.17765,-32.33333 L 288.66666,118 l 54.33333,-0.34829 54.33334,-0.34829 v 18.68162 18.68162 h -42.4 c -31.2,0 -42.82264,0.42264 -44,1.6 -1.01505,1.01506 -1.6,6.13334 -1.6,14 v 12.4 H 298.82234 288.31136 Z M 1.8914394,141.33333 c 0,-14.3 0.1961534,-20.15 0.4358963,-13 0.2397429,7.15 0.2397429,18.85 0,26 -0.2397429,7.15 -0.4358963,1.3 -0.4358963,-13 z m 2.1085605,0 v -24 h 8.6666661 8.666667 v 24 24 H 12.666666 3.9999999 Z M 36.981413,131.00084 c -0.400292,-6.41621 -0.449456,-12.11621 -0.109254,-12.66667 0.340204,-0.55046 53.683141,-1.00084 118.539861,-1.00084 H 273.33333 V 130 142.66666 L 171,142.66933 68.666666,142.672 v -11.00213 -11.00213 l -7.624878,-0.39862 c -7.22971,-0.37797 -7.669716,-0.21997 -8.490072,3.04859 -0.475858,1.89597 -0.606377,7.02535 -0.290043,11.39862 l 0.575153,7.95033 H 45.273022 37.709218 Z M 96.890944,88.430197 c 0.484877,-1.336609 3.182776,-4.966793 5.995326,-8.067074 C 105.69882,77.262841 108,73.411019 108,71.803518 c 0,-1.826563 -2.75036,-5.482378 -7.33333,-9.747558 -6.584953,-6.128336 -7.333338,-7.382278 -7.333338,-12.287219 0,-4.52522 1.055344,-6.74431 6.15117,-12.934162 3.383148,-4.109473 6.718358,-7.121223 7.411598,-6.692781 1.30989,0.809558 0.66683,1.909703 -6.0974,10.431455 -5.990359,7.546798 -5.191066,11.785213 3.78541,20.072941 9.73483,8.987894 9.91849,12.433525 1.18913,22.309298 -6.529248,7.386728 -10.453316,9.805372 -8.882296,5.474705 z M 144,89.245677 c 0,-2.722802 3.07733,-7.292356 9.59698,-14.250654 5.76224,-6.149916 6.51292,-7.607956 6.14987,-11.944835 -0.35632,-4.256541 -1.47733,-5.7469 -8.10408,-10.77411 -8.91904,-6.766208 -11.865,-11.642139 -11.865,-19.638107 0,-6.991562 1.56676,-10.141854 9.07515,-18.247517 3.19756,-3.451916 5.81374,-6.9019161 5.81374,-7.6666661 0,-0.7647501 1.5,-1.3904547 3.33334,-1.3904547 4.9717,0 4.2741,4.353286 -1.76751,11.0297908 -7.58659,8.383829 -9.56583,11.78133 -9.56583,16.420406 0,5.056061 3.58431,9.885 11.254,15.161889 12.05219,8.292115 12.79656,18.554788 2.16875,29.9005 -3.51403,3.75141 -7.09283,8.170746 -7.95287,9.820746 C 150.53404,90.741108 144,92.009129 144,89.245677 Z m 48,-0.608802 c 0,-1.116386 2.4,-4.633484 5.33333,-7.815775 7.22477,-7.837948 6.99629,-10.729752 -1.43737,-18.192342 -5.87802,-5.201198 -6.9171,-6.86742 -7.4983,-12.023868 -0.63316,-5.617375 -0.27904,-6.456563 5.7512,-13.628759 3.53426,-4.203538 6.89659,-7.642798 7.47186,-7.642798 2.49392,0 0.65468,4.289888 -4.28739,10 C 193.67882,43.555791 192,46.748186 192,49.475031 c 0,3.918031 0.78213,4.937632 10.46161,13.637989 6.31483,5.676048 5.79277,10.709173 -2.08233,20.0756 C 193.89052,90.906163 192,92.135389 192,88.636875 Z"
       id="path14762"
       inkscape:connector-curvature="0" />
  </g>
</svg>
