<?xml version="1.0" encoding="UTF-8"?>
<!-- Created with Inkscape (http://www.inkscape.org/) -->
<svg width="20" height="20" version="1.1" viewBox="0 0 106 106" xmlns="http://www.w3.org/2000/svg" xmlns:cc="http://creativecommons.org/ns#" xmlns:dc="http://purl.org/dc/elements/1.1/" xmlns:rdf="http://www.w3.org/1999/02/22-rdf-syntax-ns#">
 <metadata>
  <rdf:RDF>
   <cc:Work rdf:about="">
    <dc:format>image/svg+xml</dc:format>
    <dc:type rdf:resource="http://purl.org/dc/dcmitype/StillImage"/>
    <dc:title/>
   </cc:Work>
  </rdf:RDF>
 </metadata>
 <g transform="matrix(.36153 0 0 .34169 -2.2256 .8223)">
  <path d="m40.528 307.37c-1.0235-1.5791-4.8787-6.0212-8.5669-9.8712-3.6883-3.85-9.4301-10.278-12.76-14.284-8.8491-10.648-9.2576-12.823-10.276-54.716-1.3913-57.211-1.986-79.613-3.0531-115-0.56388-18.7-1.0725-36.025-1.1304-38.5-0.29148-12.474 1.5829-49.406 2.8355-55.869 1.5975-8.2427 5.7464-16.781 8.5933-17.685 2.3667-0.75117 6.1404 0.04349 16.83 3.544 4.675 1.531 11.2 3.5567 14.5 4.5016 10.94 3.1325 29.818 10.557 35.45 13.942 3.0526 1.8348 7.5752 4.3593 10.05 5.6101 5.8488 2.9558 44.541 15.956 47.489 15.956 3.1524 0 7.5851-1.9823 18.558-8.2991 19.76-11.375 52.642-25.529 71.952-30.971 10.198-2.8741 19.895-3.975 28.615-3.2486l8.3937 0.69919 11.878 12.739c11.472 12.304 11.901 12.925 12.558 18.16 0.37389 2.9812 1.3142 9.4704 2.0895 14.42 3.043 19.428 3.6409 39.042 2.493 81.779-0.60896 22.672-1.0131 54.946-0.89818 71.721 0.11495 16.775 4e-3 45.691-0.24563 64.258-0.52093 38.68-0.0129 36.681-10.032 39.475-8.4283 2.3507-71.108 3.6228-107.85 2.1889-33.666-1.3138-79.755-1.2133-92.718 0.20227-4.8301 0.52743-16.457 1.2198-25.838 1.5387l-17.056 0.57973zm39.518-150.25c6.1402-2.9072 15.69-12.512 16.95-17.048 1.3489-4.8557 1.2644-6.8376-0.55194-12.954-2.6179-8.8155-12.26-17.122-19.876-17.122-2.3929 0-2.7247 0.32774-2.2779 2.25 3.8118 16.399 3.7676 15.765 1.7057 24.477-1.0709 4.5247-3.5329 11.376-5.4713 15.225-1.9383 3.849-3.5243 7.293-3.5243 7.6533 0 1.2714 8.5579-0.3562 13.046-2.4811zm148.2-20.167c4.4008-8.7013 0.39878-19.252-9.4438-24.896-2.9176-1.6731-6.5322-3.0463-8.0326-3.0514l-2.728-9e-3 2.9905 4.7155c5.4602 8.6098 6.1405 14.584 2.9655 26.042-1.1 3.9695-2 7.4854-2 7.8131s3.2625-1.1484 7.25-3.2803c5.3499-2.8603 7.7082-4.7822 8.9984-7.3332z" fill="#dfcca4"/>
  <path d="m41.674 307.35c-1.1959-1.4574-5.7743-6.5512-10.174-11.319-21.306-23.089-20.56-20.806-21.569-66.031-0.41091-18.425-1.2476-47-1.8594-63.5s-1.174-53.85-1.2494-83c-0.14943-57.741 0.40174-65.089 5.6605-75.467 3.7147-7.3306 4.3362-7.5694 11.863-4.5581 3.5716 1.4289 11.817 4.1181 18.324 5.9761 16.211 4.6293 32.928 11.319 44.673 17.878 7.0656 3.9458 15.918 7.5216 31.372 12.673l21.529 7.176 4.6282-1.7512c2.5455-0.96316 9.1281-4.3215 14.628-7.4629 20.385-11.643 49.739-24.276 72.5-31.201 4.6571-1.4168 10.621-2.1223 21.036-2.4884l14.536-0.51088 11.721 12.494 11.721 12.494 1.5247 10.374c2.8984 19.72 6.0173 56.245 5.0274 58.874-0.3106 0.825-1.0884 37.95-1.7284 82.5-1.1712 81.522-1.2643 94.297-0.79517 109.04 0.28499 8.9538-0.6808 11.708-4.865 13.871-6.6028 3.4145-14.685 3.7986-74.178 3.5252-94.456-0.43403-131.14-0.0186-142.92 1.6184-5.7332 0.79663-14.655 1.4484-19.826 1.4484-8.9565 0-9.5045-0.12546-11.576-2.6499zm34.624-147.36c6.9995-2.1619 14.503-7.9716 19.877-15.389 3.1608-4.3634 3.7104-10.2 1.7089-18.149-2.1848-8.6768-12.844-17.451-21.199-17.451-4.3103 0-4.3599 0.2623-1.6714 8.8391 1.0929 3.4865 1.9871 7.9956 1.9871 10.02 0 5.5908-3.7287 17.862-7.6127 25.053-3.4494 6.3866-3.7537 9.0877-1.024 9.0877 0.78433 0 4.3549-0.90464 7.9347-2.0103zm153.05-22.299c1.0177-2.071 1.9177-5.92 2-8.5532 0.29013-9.279-8.9024-19.224-19.578-21.181-4.906-0.89917-5.6816-0.54236-4.0027 1.8414 7.6976 10.929 9.0563 18.832 5.3409 31.064-1.1607 3.8215-2.1104 7.4754-2.1104 8.12 0 0.64451 3.7125-0.78528 8.25-3.1773 6.6477-3.5044 8.6094-5.0805 10.1-8.1146z" fill="#aca599"/>
  <path d="m39.752 304.37c-1.9758-2.6779-5.2539-6.4438-7.2847-8.3688s-6.8467-7.2514-10.702-11.836c-10.736-12.768-10.781-13.016-11.797-65.164-0.45554-23.375-1.3718-57.8-2.0361-76.5-0.6643-18.7-1.2032-51.55-1.1976-73 0.011132-42.491 0.88897-51.878 5.748-61.467 3.7147-7.3306 4.3362-7.5694 11.863-4.5581 3.5716 1.4289 11.817 4.1181 18.324 5.9761 16.211 4.6293 32.928 11.319 44.673 17.878 7.0656 3.9458 15.918 7.5216 31.372 12.673l21.529 7.176 4.6282-1.7512c2.5455-0.96316 9.1281-4.3215 14.628-7.4629 20.403-11.654 49.901-24.345 72.5-31.193 4.5089-1.3662 10.743-2.1327 20.352-2.5022l13.852-0.53264 10.968 10.881c6.0326 5.9848 11.565 12.006 12.294 13.381s1.8407 6.7345 2.4698 11.91c0.62913 5.1755 1.395 9.8164 1.7019 10.313 0.83547 1.3518 2.6645 29.708 2.727 42.277 0.0301 6.05-0.52733 47.45-1.2387 92s-1.1432 84.825-0.95977 89.5 0.33357 12.252 0.33357 16.838c0 7.8302-0.16537 8.4802-2.7149 10.672-1.4932 1.2836-5.1261 2.8343-8.0731 3.4461-5.3548 1.1116-68.303 1.5873-153.21 1.1576-23.017-0.11646-42.893 0.24855-48.5 0.89065-5.225 0.5984-16.06 1.3457-24.078 1.6607l-14.578 0.57274zm36.546-144.38c6.9995-2.1619 14.503-7.9716 19.877-15.389 7.0639-9.7515 0.98256-27.473-11.502-33.517-4.1238-1.9963-12.687-2.8984-12.66-1.3338 0.0071 0.4125 0.9071 3.6026 2 7.0891 3.4899 11.133 2.0713 21.071-5.0218 35.179-2.8995 5.7668-3.5857 7.9878-2.7316 8.8418 1.5425 1.5425 2.4957 1.4599 10.039-0.86981zm141.84-13.561c9.3801-4.7237 11.401-6.9099 12.853-13.903 1.1487-5.5332 1.0806-5.9979-1.6711-11.397-3.2321-6.3416-9.4009-11.193-17.194-13.521-5.7367-1.7142-7.2622-0.62984-4.4552 3.1669 7.2597 9.8192 8.4887 17.225 4.8941 29.491-1.4128 4.8208-2.5687 8.9833-2.5687 9.25 0 0.88884 1.0023 0.50887 8.1419-3.0866z" fill="#d5ad5a"/>
  <path d="m39.752 304.37c-1.9758-2.6779-5.2539-6.4438-7.2847-8.3688s-6.8467-7.2514-10.702-11.836c-10.736-12.768-10.781-13.016-11.797-65.164-0.45554-23.375-1.3462-57.649-1.9793-76.165-0.69785-20.411-0.79245-34.387-0.24027-35.5 0.50091-1.0094 0.69388-6.7852 0.42882-12.835-0.73677-16.817-0.20056-61.131 0.83492-69 1.2368-9.3994 3.4542-16.38 6.3379-19.952l2.383-2.952 13.383 4.33c33.776 10.928 38.965 12.821 47.883 17.469 17.703 9.2259 20.477 10.391 40.711 17.095l20.211 6.6967 4.8147-1.5992c2.6481-0.87956 7.9529-3.4412 11.789-5.6925 8.6579-5.0818 35.21-18.401 41.96-21.049 14.213-5.5745 33.231-11.911 39.709-13.23 4.018-0.8184 12.164-1.5997 18.103-1.7363l10.798-0.24827 10.522 10.434c5.7874 5.7389 11.119 11.559 11.848 12.934s1.8403 6.7345 2.4695 11.91c0.62913 5.1755 1.395 9.8164 1.7019 10.313 0.83547 1.3518 2.6645 29.708 2.727 42.277 0.0301 6.05-0.52733 47.45-1.2387 92s-1.1432 84.825-0.95977 89.5 0.33357 12.252 0.33357 16.838c0 7.8302-0.16537 8.4802-2.7149 10.672-1.4932 1.2836-5.1261 2.8343-8.0731 3.4461-5.3548 1.1116-68.303 1.5873-153.21 1.1576-23.017-0.11646-42.893 0.24855-48.5 0.89065-5.225 0.5984-16.06 1.3457-24.078 1.6607l-14.578 0.57274zm41.694-145.27c7.9431-3.9104 17.144-13.4 18.14-18.71 1.0296-5.4883-0.13034-14.576-2.4377-19.099-3.231-6.3333-11.878-12.429-19.235-13.561-6.0761-0.93459-6.5616 0.0685-4.082 8.4341 3.7155 12.536 2.3502 21.867-5.3839 36.796-3.2342 6.2432-4.064 8.6792-3.1657 9.2934 2.1952 1.5006 9.6738 0.0416 16.164-3.1536zm138.73-12.252c4.3882-2.283 8.5901-5.0955 9.3375-6.25 2.1403-3.3059 3.7792-11.241 3.0855-14.938-1.6283-8.6797-12.438-18.221-21.304-18.803-5.37-0.35255-6.1468 0.49567-3.6038 3.9353 7.255 9.8129 8.4735 17.21 4.864 29.527-2.3162 7.904-2.5493 10.68-0.89655 10.68 0.29606 0 4.1286-1.8679 8.5168-4.1509z" fill="#cb9a33"/>
  <path d="m39.752 304.37c-1.9758-2.6779-5.2539-6.4438-7.2847-8.3688s-6.8467-7.2514-10.702-11.836c-10.736-12.768-10.781-13.016-11.797-65.164-0.45554-23.375-1.3483-57.708-1.9838-76.295-0.95736-27.998-0.92652-34.071 0.17976-35.403 1.6664-2.0077 2.0897-17.925 0.64616-24.302-1.5056-6.6506 0.56665-57.655 2.6579-65.42 1.7422-6.4687 5.3372-13.58 6.8651-13.58 0.53109 0 4.6107 1.3284 9.0659 2.952 4.4551 1.6236 12.179 4.0689 17.165 5.434 12.415 3.3995 31.55 11.093 39.135 15.736 8.182 5.0079 13.88 7.3175 36.758 14.9 22.196 7.3562 21.999 7.3624 36.826-1.1543 15.406-8.8493 37.752-19.428 53.437-25.297 23.2-8.6806 27.238-9.6893 40.686-10.164 6.9757-0.24639 12.488-0.90321 13.31-1.5861 1.1358-0.94259 3.5107 0.92407 12.414 9.7571 6.0553 6.0075 11.606 12.048 12.336 13.423s1.8407 6.7345 2.4698 11.91c0.62913 5.1755 1.395 9.8164 1.7019 10.313 0.83547 1.3518 2.6645 29.708 2.727 42.277 0.0301 6.05-0.52733 47.45-1.2387 92s-1.1432 84.825-0.95977 89.5 0.33357 12.252 0.33357 16.838c0 7.8302-0.16537 8.4802-2.7149 10.672-1.4932 1.2836-5.1261 2.8343-8.0731 3.4461-5.3548 1.1116-68.303 1.5873-153.21 1.1576-23.017-0.11646-42.893 0.24855-48.5 0.89065-5.225 0.5984-16.06 1.3457-24.078 1.6607l-14.578 0.57274zm15.418-49.369c1.1694 0 4.7867-2.8718 8.6682-6.8816 7.9067-8.1682 16.529-14.368 19.98-14.368 1.3661 0 3.2032 0.90358 4.0824 2.008 2.3149 2.9077 5.0473 4.0542 11.176 4.6892 5.3033 0.54955 5.3568 0.52975 2.423-0.89751-1.65-0.8027-3.8057-1.4798-4.7905-1.5046-4.0077-0.10095-11.805-8.4637-10.245-10.988 0.57013-0.92249 8.6425-5.0572 9.8734-5.0572 0.38864 0 2.7408 1.875 5.227 4.1667 4.1142 3.7924 5.1679 4.2403 11.728 4.9855 3.964 0.45031 11.647 1.352 17.073 2.0038 7.6512 0.91905 12.701 0.91315 22.5-0.0263 6.949-0.66625 14.82-1.3764 17.492-1.5782s5.3302-0.83931 5.9076-1.4168c1.4883-1.4883-1.1112-4.4186-3.1755-3.5796-0.87439 0.35536-5.1898 1.5415-9.5898 2.636-6.8722 1.7093-10.185 1.9151-23.5 1.4598-8.525-0.29149-16.85-0.7925-18.5-1.1134-7.8736-1.5311-16.294-4.6892-18.356-6.8847l-2.2686-2.4148 2.3125-2.369c1.2719-1.3029 5.596-4.5687 9.6092-7.2573 4.0132-2.6886 11.577-8.4261 16.809-12.75 5.2319-4.3239 10.013-7.8617 10.625-7.8617s1.9654 0.77232 3.0085 1.7163c2.0891 1.8906 8.5239 5.3066 31.761 16.86 26.617 13.235 26.193 13.482 7.7622-4.5282-17.754-17.348-30.592-27.689-40.939-32.973l-6.6773-3.4102-3.6075 3.1674c-1.9841 1.7421-4.2565 3.1674-5.0497 3.1674-0.79319 0-2.2197 1.1867-3.1701 2.6371-0.95035 1.4504-4.1107 4.8907-7.023 7.6451s-5.2951 5.5789-5.2951 6.2768c0 0.69787-3.0375 3.6672-6.75 6.5986s-10.17 8.2576-14.349 11.836c-4.1796 3.5785-10.916 8.7564-14.97 11.506s-10.921 7.7-15.26 11-8.8888 6.675-10.11 7.5c-6.3871 4.3164-14.554 11.705-14.558 13.17-3e-3 1.3315 1.3659 1.8032 6.7463 2.325 3.7125 0.36003 7.2 0.81019 7.75 1.0004s1.5993 0.15643 2.3318-0.075c0.73248-0.23142 2.2349-0.42077 3.3386-0.42077zm116.09-12.15c7.0168-2.2362 13.006-4.4672 13.309-4.9577 0.86228-1.3952-6.0386-1.0456-10.782 0.54616-5.2833 1.773-37.103 2.4739-53.423 1.1768-9.2396-0.73436-11.497-0.63358-13.246 0.59132l-2.1081 1.4766 2.2966 1.0464c6.952 3.1675 25.244 5.2845 40.195 4.6518 9.3181-0.39428 12.951-1.0871 23.758-4.5314zm-2.1333-66.721c1.4538-0.1154 1.4222-0.53787-0.30038-4.0196-1.0587-2.1398-2.8022-4.6846-3.8745-5.655-2.3231-2.1024-2.3961-3.075-0.50276-6.7044 1.3153-2.5214 1.2822-2.75-0.39776-2.75-1.9038 0-2.5971 1.7149-3.7769 9.3432-1.5493 10.018-1.0482 10.572 8.8523 9.7858zm-79.561-1.591c5.056-2.1125 9.5582-7.3547 15.767-18.358 6.506-11.531 7.8782-15.519 7.9218-23.027 0.0515-8.8548-2.5774-15.15-9.1226-21.845-11.172-11.427-18.332-15.011-30.895-15.465-13.639-0.49248-17.012 1.0329-26.744 12.092-6.6414 7.5469-10.962 16.102-13.976 27.671-1.9289 7.4057-1.9168 12.187 0.04281 16.877 3.0039 7.1893 18.16 19.885 26.443 22.151 6.5321 1.7869 26.205 1.725 30.564-0.0961zm-32.594-14.884c-5.5396-1.5084-8.0222-3.1876-11.868-8.0272-4.8074-6.0494-4.8158-8.9798-0.07633-26.716 2.3715-8.8743 12.489-16.939 21.648-17.254l4.5601-0.1571 2.3839 7.944c2.7877 9.2899 2.9679 14.333 0.81642 22.85-1.9009 7.5258-9.3553 22.131-11.433 22.4-0.825 0.1067-3.5389-0.36119-6.0308-1.0398zm138.61 12.903c11.388-4.0172 15.358-5.508 17.188-6.4538 0.95552-0.49384 3.7209-1.7195 6.1452-2.7236s6.0853-3.0408 8.1355-4.526c4.2684-3.092 13.81-17.111 16.342-24.01 3.4595-9.4276-0.66543-22.089-10.413-31.96-5.3076-5.3754-5.9451-5.7103-14.844-7.7996-10.332-2.4257-17.514-2.7378-36.487-1.586l-12.859 0.78064-1.447 3.4631c-0.79583 1.9047-1.3092 4.4295-1.1408 5.6108 0.27729 1.9453 0.91881 2.1477 6.8062 2.1477h6.5l-0.0793 11.5c-0.0436 6.325-0.69023 17.772-1.4369 25.438-1.0416 10.693-1.0813 14.03-0.1707 14.333 2.061 0.68699 1.2872 4.1172-1.3131 5.8209-3.3287 2.181-3.1516 3.177 0.75 4.2179 2.9789 0.79471 3.2316 1.1725 3.0299 4.5286l-0.22009 3.6615h4.295c2.3622 0 7.4113-1.0994 11.22-2.443zm-14.249-14.737c-1.2016-1.5322-1.0148-11.591 0.58172-31.32 1.5372-18.996 2.564-23.175 6.15-25.03 3.5805-1.8515 3.7246-1.8418 4.1334 0.27957 0.49366 2.5622 12.802 2.6167 12.807 0.0567 2e-3 -0.93131 0.98281-2.3796 2.1804-3.2185 2.0058-1.4049 2.5775-1.3108 7.25 1.1933 3.4406 1.8439 5.1753 3.4423 5.392 4.9685 0.35889 2.527-2e-3 2.6317-4.5627 1.3237-2.1031-0.60315-3.4484-0.57276-3.8562 0.0871-0.34449 0.5574-1.4751 0.79149-2.5125 0.52021-2.8436-0.74361-3.3659 1.1815-1.1381 4.1948 7.1891 9.7238 8.4023 17.161 4.8028 29.444-1.4215 4.8509-2.336 9.222-2.0322 9.7135 0.30378 0.49153-0.32382 1.7698-1.3947 2.8407-2.0049 2.0049-8.8547 3.796-17.626 4.6088-2.75 0.25485-5.9314 0.73175-7.0699 1.0598-1.1824 0.34068-2.5136 0.0306-3.1047-0.72311zm-60.663-3.0695c-0.27741-0.6875-0.50439-0.125-0.50439 1.25s0.22698 1.9375 0.50439 1.25 0.27741-1.8125 0-2.5zm25.296-3.0479c-3.0022-2.9138-5.6563-5.1535-5.8982-4.977-0.66195 0.48315 9.2114 10.275 10.361 10.275 0.54783 0-1.4602-2.384-4.4624-5.2979zm-23.665-3.6501c0.3681-2.8776 0.24555-3.9368-0.3471-3-0.84548 1.3364-1.4002 8.8027-0.58431 7.8647 0.19933-0.22917 0.61846-2.4183 0.93141-4.8647zm14.002-5.5999c-4.0047-3.1565-3.4016-5.0771 2.0555-6.5466 2.6923-0.72497 5.811-2.7819 8.8972-5.868 4.0977-4.0977 4.7518-5.3068 4.7518-8.7838 0-2.4792-0.73596-4.9412-1.911-6.3929-1.7424-2.1525-2.7348-2.374-11.25-2.5103l-9.339-0.14953 8 0.69755c9.1424 0.79717 12.215 2.1181 13.097 5.6304 1.3878 5.5295-2.3502 10.916-10.097 14.551-7.1375 3.3486-16.448 1.4836-15.022-3.009 0.30714-0.96773 0.75155-4.8257 0.98757-8.5733 0.25757-4.0898 0.94998-7.1442 1.732-7.6402 0.97667-0.61948 0.8695-0.83019-0.42812-0.84167-1.9468-0.0172-2.3931 1.522-3.1854 10.985-0.29934 3.575-0.83246 8.1596-1.1847 10.188-0.58677 3.3788-0.466 3.6423 1.4404 3.1438 2.2317-0.58361 7.5582 2.24 10.631 5.636 1.0116 1.1178 2.332 2.0273 2.9342 2.0212 0.60225-6e-3 -0.347-1.1477-2.1095-2.5368z" fill="#cc992e"/>
  <path d="m39.752 304.37c-1.9758-2.6779-5.2539-6.4438-7.2847-8.3688s-6.8467-7.2514-10.702-11.836c-10.736-12.768-10.781-13.016-11.797-65.164-0.45554-23.375-1.3493-57.738-1.9862-76.362-0.86465-25.285-0.8701-34.15-0.021534-34.999 0.65156-0.65156 4.4222-1.137 8.8377-1.1377l7.7013-0.00129 0.65227-9c0.35875-4.95 1.5779-13.95 2.7093-20s2.2728-16.625 2.5366-23.5c0.64812-16.892 1.5978-24.061 3.2725-24.704 0.76901-0.2951 3.5767 1.5323 6.3731 4.1481 5.4798 5.1257 6.6822 5.7194 24.361 12.028 26.975 9.6262 53.568 20.88 58.835 24.897 6.2915 4.7988 7.8894 4.8985 13.877 0.86638 2.9546-1.9898 10.325-5.8287 16.378-8.531 22.341-9.9737 25.185-11.299 34.004-15.845 4.951-2.5521 11.252-5.3231 14.002-6.1579 2.75-0.83477 9.725-3.6213 15.5-6.1923 28.718-12.785 31.322-13.796 32.921-12.784 1.3601 0.86128 1.5911 4.2355 1.6693 24.387 0.0499 12.863 0.60531 28.787 1.2342 35.387 0.62885 6.6 1.1505 12.788 1.1592 13.75 0.0137 1.5167 1.0622 1.75 7.8638 1.75h7.848l0.69861-12.75c1.4123-25.775 1.8167-64.752 0.71392-68.8-0.74147-2.7211-2.0151-4.4806-4.0925-5.654-3.065-1.7311-3.9159-4.1224-1.9084-5.3631 1.2324-0.76167 22.23 19.553 24.358 23.567 0.72926 1.375 1.8407 6.7345 2.4698 11.91 0.62913 5.1755 1.395 9.8164 1.7019 10.313 0.83547 1.3518 2.6645 29.708 2.727 42.277 0.0301 6.05-0.52733 47.45-1.2387 92s-1.1432 84.825-0.95977 89.5 0.33357 12.252 0.33357 16.838c0 7.8302-0.16537 8.4802-2.7149 10.672-1.4932 1.2836-5.1261 2.8343-8.0731 3.4461-5.3548 1.1116-68.303 1.5873-153.21 1.1576-23.017-0.11646-42.893 0.24855-48.5 0.89065-5.225 0.5984-16.06 1.3457-24.078 1.6607l-14.578 0.57274zm15.579-49.369c1.3813 0 4.5284-2.4904 8.674-6.864 3.5784-3.7752 9.3924-8.7294 12.92-11.009 5.9597-3.8519 6.561-4.0381 8.4942-2.6291 1.1442 0.83396 3.0636 2.2207 4.2653 3.0817 3.1483 2.2557 27.875 8.159 39.714 9.4814 18.322 2.0465 36.363-0.55814 52.114-7.524 3.1547-1.3952 6.3009-2.5367 6.9915-2.5367 0.69062 0 4.9767 3.2155 9.5247 7.1455l8.269 7.1456 10.101 0.0967c11.963 0.11452 15.601-0.66337 15.601-3.3364 0-2.5944-10.348-11.878-31.5-28.26-4.4-3.4078-13.084-11.294-19.298-17.526-13.358-13.396-30.298-26.852-39.542-31.41l-6.622-3.2654-2.769 2.6479c-1.5229 1.4564-3.6906 3.0112-4.817 3.4553-2.3356 0.92071-16.452 15.528-16.452 17.024 0 0.5411-5.2044 5.2138-11.565 10.384-11.424 9.2853-13.855 11.138-36.435 27.758-18.528 13.638-27.998 21.524-27.999 23.312-5.83e-4 1.331 1.3707 1.8034 6.7493 2.325 3.7125 0.36003 7.2 0.81019 7.75 1.0004s1.5993 0.15643 2.3318-0.075c0.73248-0.23142 2.3073-0.42077 3.4996-0.42077zm70.169-25.139c-13.637-1.7264-23.5-5.8316-23.5-9.781 0-1.1373 4.0043-4.5893 11.046-9.5227 6.0754-4.2563 14.063-10.39 17.75-13.631 3.6871-3.2405 7.5401-5.8997 8.5622-5.9092 2.0961-0.0196 33.642 31.476 33.642 33.589 0 4.9438-26.66 7.8932-47.5 5.2549zm54-54.493c7.8982-0.50792 12.207-1.4261 20.5-4.3686 13.356-4.739 23.424-9.322 27.785-12.648 4.1571-3.1708 14.73-18.999 16.388-24.535 2.7374-9.1367-2.8359-23.641-12.511-32.559-3.7423-3.4495-5.692-4.3343-13.761-6.2449-5.1707-1.2243-12.776-2.277-16.901-2.3395-9.434-0.1428-30.802 1.0872-32.025 1.8435-1.4217 0.87866-3.3222 8.136-2.614 9.9816 0.52443 1.3666 1.5367 1.5345 5.9382 0.98453 7.6322-0.95358 8.0514-0.16952 7.3522 13.751-0.31123 6.1968-1.1481 16.892-1.8597 23.767l-1.2938 12.5-6.7009 0.5c-3.6855 0.275-7.1386 0.95-7.6736 1.5s-1.4674 4.5981-2.072 8.9958c-0.99739 7.2546-0.93484 8.1186 0.67484 9.3214 1.101 0.82266 3.102 1.1108 5.2741 0.7595 1.925-0.31133 8-0.85544 13.5-1.2091zm7.694-18.2c-1.0622-0.69476-1.0983-3.9168-0.19338-17.261 1.2085-17.82 3.0472-32.709 4.2727-34.599 1.2646-1.9496 9.0697-2.5982 15.08-1.2531 3.0676 0.68648 5.3171 1.6692 4.9991 2.1839-0.31807 0.51464-1.4271 0.71376-2.4644 0.44248-2.8436-0.74361-3.3659 1.1815-1.1381 4.1948 7.1891 9.7238 8.4023 17.161 4.8028 29.444-1.4215 4.8509-2.336 9.222-2.0322 9.7135 1.0916 1.7662-3.444 4.8075-8.6812 5.8211-9.5257 1.8436-13.314 2.1831-14.645 1.3126zm-94.307 15.53c7.0194-4.6506 18.219-24.136 20.28-35.285 0.99328-5.3719 0.87556-6.9122-1.0002-13.088-1.8251-6.0087-3.0226-7.907-8.4605-13.412-12.157-12.306-18.018-15.025-32.676-15.157-12.078-0.10905-15.265 1.4067-23.97 11.398-6.7736 7.7748-11.981 17.607-14.55 27.47-3.2369 12.427-1.1532 19.855 7.8818 28.093 12.716 11.595 17.462 13.325 35.686 13.005 11.925-0.20944 12.797-0.36631 16.809-3.0242zm-35.918-13.042c-5.5396-1.5084-8.0222-3.1876-11.868-8.0272-4.8074-6.0494-4.8158-8.9798-0.07633-26.716 2.3715-8.8743 12.489-16.939 21.648-17.254l4.5601-0.1571 2.3839 7.944c2.7877 9.2899 2.9679 14.333 0.81642 22.85-1.9009 7.5258-9.3553 22.131-11.433 22.4-0.825 0.1067-3.5389-0.36119-6.0308-1.0398zm65.646-11.802c0.6135-4.9408 1.5807-9.4486 2.1493-10.017 1.9049-1.9049 5.3052 0.28069 15.174 9.7534 5.3929 5.1762 10.2 9.4114 10.682 9.4114 0.482 0-3.0605-3.7806-7.8722-8.4013-4.8117-4.6207-8.7486-9.1034-8.7486-9.9615 0-0.95862 1.456-1.9522 3.7763-2.577 11.513-3.1 18.587-15.91 11.943-21.626-4.5158-3.8844-21.461-3.9363-23.954-0.0733-0.40408 0.62628-0.74158 2.9622-0.75 5.191-8e-3 2.2288-1.1386 10.779-2.5114 19-2.5906 15.514-3.0325 20.309-1.7539 19.032 0.4125-0.41184 1.252-4.7913 1.8654-9.7321zm3.8906-14.843c-0.33659-0.54461-0.2998-4.8377 0.0818-9.5402 0.80213-9.8858 1.3404-10.473 9.5964-10.464 10.954 0.0115 15.946 3.3556 14.371 9.6283-0.76147 3.034-5.202 8.1318-8.6252 9.902-3.1883 1.6487-14.484 1.9958-15.424 0.47388z" fill="#9a8c6d"/>
  <path d="m35.93 299.73c-24.98-26.901-23.985-24.162-24.958-68.729-0.39005-17.875-1.2434-47.8-1.8963-66.5-0.65292-18.7-1.0497-39.4-0.88164-46l0.30548-12h16l0.65227-9c0.35875-4.95 1.5779-13.95 2.7093-20s2.2728-16.625 2.5366-23.5c0.64812-16.892 1.5978-24.061 3.2725-24.704 0.76901-0.2951 3.5767 1.5323 6.3731 4.1481 5.4798 5.1257 6.6822 5.7194 24.361 12.028 26.975 9.6262 53.568 20.88 58.835 24.897 6.2915 4.7988 7.8894 4.8985 13.877 0.86638 2.9546-1.9898 10.325-5.8287 16.378-8.531 22.341-9.9737 25.185-11.299 34.004-15.845 4.951-2.5521 11.252-5.3231 14.002-6.1579 2.75-0.83477 9.725-3.6213 15.5-6.1923 28.718-12.785 31.322-13.796 32.921-12.784 1.3601 0.86128 1.5911 4.2355 1.6693 24.387 0.0499 12.863 0.60531 28.787 1.2342 35.387 0.62885 6.6 1.1505 12.788 1.1592 13.75 0.0137 1.5167 1.0622 1.75 7.8638 1.75h7.848l0.69861-12.75c1.4123-25.775 1.8167-64.752 0.71392-68.8-0.74147-2.7211-2.0151-4.4806-4.0925-5.654-3.3491-1.8916-4.0467-4.7965-1.1519-4.7965 1.0907 0 6.4899 4.9427 13.012 11.912l11.148 11.912 1.5005 10.838c0.82526 5.961 1.7452 11.504 2.0444 12.317 0.68375 1.859 2.8369 33.471 2.8281 41.521-4e-3 3.3-0.61498 42.45-1.3586 87-1.4308 85.715-1.5049 94.302-0.92417 107 0.45277 9.8998-0.37397 13.069-3.8788 14.868-6.9255 3.5547-13.399 3.8653-74.691 3.5844-93.633-0.42915-129.53-0.0243-142.04 1.602-6.05 0.78638-15.05 1.424-20 1.4169l-9-0.0129-8.5699-9.229zm19.401-44.729c1.3813 0 4.5284-2.4904 8.674-6.864 3.5784-3.7752 9.3924-8.7294 12.92-11.009 5.9597-3.8519 6.561-4.0381 8.4942-2.6291 1.1442 0.83396 3.0636 2.2207 4.2653 3.0817 3.1483 2.2557 27.875 8.159 39.714 9.4814 18.322 2.0465 36.363-0.55814 52.114-7.524 3.1547-1.3952 6.3009-2.5367 6.9915-2.5367 0.69062 0 4.9767 3.2155 9.5247 7.1455l8.269 7.1456 10.101 0.0967c11.963 0.11452 15.601-0.66337 15.601-3.3364 0-2.5944-10.348-11.878-31.5-28.26-4.4-3.4078-13.084-11.294-19.298-17.526-13.358-13.396-30.298-26.852-39.542-31.41l-6.622-3.2654-2.769 2.6479c-1.5229 1.4564-3.6906 3.0112-4.817 3.4553-2.3356 0.92071-16.452 15.528-16.452 17.024 0 0.5411-5.2044 5.2138-11.565 10.384-11.424 9.2853-13.855 11.138-36.435 27.758-18.528 13.638-27.998 21.524-27.999 23.312-5.83e-4 1.331 1.3707 1.8034 6.7493 2.325 3.7125 0.36003 7.2 0.81019 7.75 1.0004s1.5993 0.15643 2.3318-0.075c0.73248-0.23142 2.3073-0.42077 3.4996-0.42077zm70.169-25.139c-13.637-1.7264-23.5-5.8316-23.5-9.781 0-1.1373 4.0043-4.5893 11.046-9.5227 6.0754-4.2563 14.063-10.39 17.75-13.631 3.6871-3.2405 7.5401-5.8997 8.5622-5.9092 2.0961-0.0196 33.642 31.476 33.642 33.589 0 4.9438-26.66 7.8932-47.5 5.2549zm54-54.493c7.8982-0.50792 12.207-1.4261 20.5-4.3686 13.356-4.739 23.424-9.322 27.785-12.648 4.1571-3.1708 14.73-18.999 16.388-24.535 2.7374-9.1367-2.8359-23.641-12.511-32.559-3.7423-3.4495-5.692-4.3343-13.761-6.2449-5.1707-1.2243-12.776-2.277-16.901-2.3395-9.434-0.1428-30.802 1.0872-32.025 1.8435-1.4217 0.87866-3.3222 8.136-2.614 9.9816 0.52443 1.3666 1.5367 1.5345 5.9382 0.98453 7.6322-0.95358 8.0514-0.16952 7.3522 13.751-0.31123 6.1968-1.1481 16.892-1.8597 23.767l-1.2938 12.5-6.7009 0.5c-3.6855 0.275-7.1386 0.95-7.6736 1.5s-1.4674 4.5981-2.072 8.9958c-0.99739 7.2546-0.93484 8.1186 0.67484 9.3214 1.101 0.82266 3.102 1.1108 5.2741 0.7595 1.925-0.31133 8-0.85544 13.5-1.2091zm7.694-18.226c-2.2863-1.45 1.7539-49.499 4.3826-52.121 1.8848-1.8796 10.601-2.1922 15.923-0.57098 3.7514 1.1427 4.1884 1.4448 1.75 1.21-4.099-0.39485-4.3773 1.9961-0.78094 6.7111 5.9486 7.799 7.0267 16.772 3.5309 29.387-1.1 3.9695-2 8.1071-2 9.1947 0 2.6663-2.8301 4.0046-11.883 5.6194-9.0728 1.6183-9.2541 1.6278-10.923 0.56947zm-94.307 15.556c7.0194-4.6506 18.219-24.136 20.28-35.285 0.99328-5.3719 0.87556-6.9122-1.0002-13.088-1.8251-6.0087-3.0226-7.907-8.4605-13.412-12.157-12.306-18.018-15.025-32.676-15.157-12.078-0.10905-15.265 1.4067-23.97 11.398-6.7736 7.7748-11.981 17.607-14.55 27.47-3.2369 12.427-1.1532 19.855 7.8818 28.093 12.716 11.595 17.462 13.325 35.686 13.005 11.925-0.20944 12.797-0.36631 16.809-3.0242zm-35.918-13.042c-5.5396-1.5084-8.0222-3.1876-11.868-8.0272-4.8074-6.0494-4.8158-8.9798-0.07633-26.716 1.4743-5.517 6.1059-11.127 11.696-14.166 6.0661-3.298 14.027-4.7262 14.652-2.6287 3.0525 10.242 4.633 17.005 4.6304 19.815-0.0081 8.8284-9.3596 32.256-13.077 32.762-0.7842 0.1067-3.4647-0.36119-5.9566-1.0398zm65.646-11.802c0.6135-4.9408 1.5807-9.4486 2.1493-10.017 1.9049-1.9049 5.3052 0.28069 15.174 9.7534 5.3929 5.1762 10.2 9.4114 10.682 9.4114 0.482 0-3.0605-3.7806-7.8722-8.4013-4.8117-4.6207-8.7486-9.1034-8.7486-9.9615 0-0.95862 1.456-1.9522 3.7763-2.577 11.513-3.1 18.587-15.91 11.943-21.626-4.5158-3.8844-21.461-3.9363-23.954-0.0733-0.40408 0.62628-0.74158 2.9622-0.75 5.191-8e-3 2.2288-1.1386 10.779-2.5114 19-2.5906 15.514-3.0325 20.309-1.7539 19.032 0.4125-0.41184 1.252-4.7913 1.8654-9.7321zm3.8906-14.843c-0.33659-0.54461-0.2998-4.8377 0.0818-9.5402 0.80213-9.8858 1.3404-10.473 9.5964-10.464 10.954 0.0115 15.946 3.3556 14.371 9.6283-0.76147 3.034-5.202 8.1318-8.6252 9.902-3.1883 1.6487-14.484 1.9958-15.424 0.47388z" fill="#b5882a"/>
  <path d="m35.93 299.73c-24.98-26.901-23.985-24.162-24.958-68.729-0.39005-17.875-1.2437-47.8-1.8969-66.5-0.65324-18.7-1.05-39.145-0.88164-45.434l0.30607-11.434 7.5-0.074c4.125-0.0407 8.0625-0.43435 8.75-0.8748 0.79132-0.50697 1.25-3.205 1.25-7.3526 0-3.6035 1.0924-12.689 2.4275-20.191 1.4349-8.0617 2.6884-19.978 3.0656-29.139 0.91138-22.141 1.2834-22.949 7.5607-16.411 4.2396 4.4157 10.567 7.7158 22.946 11.969 21.551 7.4033 56.617 21.937 59.949 24.847 2.2826 1.9931 7.7083 4.5952 9.5816 4.5952 0.89661 0 3.9965-1.5707 6.8887-3.4904 4.7892-3.1789 22.978-11.878 38.069-18.208 3.2934-1.3814 9.1434-4.215 13-6.297 3.8566-2.082 9.4869-4.5793 12.512-5.5495 3.025-0.97021 12.475-4.8912 21-8.7134 23.359-10.473 24.8-11.033 26.606-10.34 1.5028 0.57668 1.6152 2.3376 1.1081 17.37-0.48179 14.283 1.3534 52.699 2.7116 56.763 0.20395 0.61016 3.7782 1.0083 8.7099 0.97017l8.364-0.064631 0.63531-11.97c0.34942-6.5836 0.96993-23.445 1.3789-37.47 0.87256-29.922 0.20547-35.553-4.544-38.359-3.0521-1.8029-4.0343-4.6415-1.606-4.6415 0.7503 0 6.3807 5.3603 12.512 11.912l11.148 11.912 1.5005 10.838c0.82526 5.961 1.7452 11.504 2.0444 12.317 0.68375 1.859 2.8369 33.471 2.8281 41.521-4e-3 3.3-0.61498 42.45-1.3586 87-1.4308 85.715-1.5049 94.302-0.92417 107 0.45277 9.8998-0.37397 13.069-3.8788 14.868-6.9255 3.5547-13.399 3.8653-74.691 3.5844-93.633-0.42915-129.53-0.0243-142.04 1.602-6.05 0.78638-15.05 1.424-20 1.4169l-9-0.0129-8.5699-9.229zm28.355-50.741c3.7736-3.8568 9.5566-8.8428 12.851-11.08 5.6739-3.8531 6.1054-3.984 8.1769-2.4808 1.2028 0.87285 3.2084 2.3166 4.457 3.2082 1.2485 0.89168 4.8485 2.1934 8 2.8927 3.1515 0.69932 9.33 2.2978 13.73 3.5523 7.1678 2.0435 10.236 2.2872 29.5 2.343l21.5 0.0622 11.5-4.3c6.325-2.365 12.408-4.5317 13.519-4.8149 1.4721-0.37557 4.2303 1.3995 10.189 6.5574l8.1708 7.0723h11.626c17.712 0 19.396-2.1256 9.2181-11.635-3.4523-3.2256-11.404-9.9147-17.67-14.865-14.461-11.423-28.889-24.285-32.388-28.872-1.4917-1.9557-6.6391-6.5874-11.439-10.293-4.7996-3.7053-10.211-8.0017-12.025-9.5476-3.3046-2.8163-16.251-9.7875-18.177-9.7875-0.56373 0-1.9418 0.91688-3.0625 2.0375s-3.2956 2.8081-4.8334 3.75c-2.6728 1.6371-15.881 15.301-17.74 18.352-1.7418 2.8589-22.014 18.924-46.513 36.861-28.259 20.689-32.739 25.138-26.627 26.442 1.2375 0.26407 3.15 0.67044 4.25 0.90305 1.1 0.23262 5.3579 0.47514 9.4619 0.53894l7.4619 0.116zm57.446-20.546c-9.5579-1.4876-17.41-4.4406-18.355-6.9032-0.85644-2.2318 0.69587-3.7437 11.511-11.211 5.2871-3.6504 11.82-8.6118 14.519-11.025s6.1102-5.2456 7.5821-6.2937l2.6763-1.9057 11.418 11.221c19.187 18.856 21.492 21.541 19.842 23.114-4.4322 4.2256-30.942 5.8442-49.193 3.0036zm-28.563-54.974c7.5783-5.3051 19.067-25.169 20.856-36.059 0.8243-5.0182 0.64561-7.0074-1.1862-13.205-1.9129-6.4719-2.9084-8.0545-8.806-14-12.411-12.512-18.323-15.203-33.392-15.203-8.3682 0-9.9735 0.30466-14.49 2.75-5.4024 2.9248-14.572 13.238-18.345 20.634-3.4837 6.8285-6.8596 17.777-7.4837 24.27-0.76942 8.0047 1.6903 13.295 9.5539 20.55 12.935 11.934 18.059 13.814 36.794 13.5 11.779-0.19746 12.307-0.30102 16.5-3.2364zm-35.168-14.114c-8.6026-2.804-14.664-8.5099-15.678-14.758-0.74093-4.5658 3.2517-21.243 6.1478-25.68 3.6422-5.5794 11.821-10.342 17.83-10.382l4.9488-0.0332 2.3759 7.944c1.3067 4.3691 2.3759 9.5532 2.3759 11.52 0 5.4712-3.7335 17.736-7.6921 25.27-3.6429 6.9325-5.1212 7.8101-10.308 6.1195zm136.85 14.465c10.889-3.3631 29.503-11.663 33.445-14.912 4.3088-3.5517 10.182-11.853 14.76-20.863 2.9144-5.7352 3.1048-6.7086 2.4707-12.63-0.95445-8.9125-6.8529-19.613-14.233-25.821-6.0754-5.1101-27.959-9.3972-38.795-7.6001-3.3 0.54731-9.9271 0.99772-14.727 1.0009-8.1662 0.0054-8.8306 0.16399-10.34 2.4677-0.88721 1.354-1.8568 4.279-2.1547 6.5-0.6048 4.5092-0.91699 4.329 7.7217 4.4568l5.5 0.0814-0.0926 11.5c-0.11668 14.497-2.3376 36.266-3.7988 37.235-0.60974 0.40408-3.7058 0.74158-6.88 0.75-6.7939 0.018-7.1762 0.53041-8.5914 11.515-0.62662 4.8639-0.56561 7.4171 0.19994 8.3669 1.6465 2.0427 27.005 0.58015 35.515-2.0483zm-7.3762-31.442c0.36055-8.1819 1.0469-17.126 1.5251-19.876 0.47827-2.75 1.1522-7.556 1.4976-10.68 0.34542-3.124 1.2366-6.1851 1.9805-6.8024 0.76564-0.63542 3.8838-0.99119 7.1868-0.81998 5.3242 0.27597 5.8645 0.51585 6.1789 2.7431 0.18949 1.3424 1.4131 3.8416 2.7191 5.5538 3.7486 4.9147 5.4381 9.976 5.4154 16.223-0.0215 5.9074-3.8508 22.611-5.542 24.174-1.5803 1.4609-7.5981 2.9579-14.777 3.6759l-6.84 0.68412zm-64.501 7.8739c1.476-10.935 1.8469-12.25 3.4554-12.25 1.8039 0 7.8352 4.9344 15.993 13.084 6.3781 6.3721 9.5776 8.3626 9.5776 5.9584 0-0.52666-3.8354-4.6578-8.5232-9.1804s-8.3749-8.6676-8.1937-9.2113c0.18122-0.54366 2.0633-1.5887 4.1825-2.3224 5.0493-1.7481 10.166-5.7145 12.035-9.3304 2.4036-4.6481 1.9415-10.234-1.0816-13.074-2.3886-2.244-3.3519-2.4243-12.95-2.4243-6.6996 0-10.792 0.42233-11.563 1.1933-0.65633 0.65633-1.5366 4.7063-1.9563 9s-1.7236 13.846-2.8978 21.228-1.9055 14.019-1.6251 14.75c1.2395 3.23 2.4516 0.69375 3.547-7.4216zm6.145-16.973c-2.3558-0.44579-2.3732-0.54036-1.6788-9.0988 0.38594-4.7566 1.2322-9.0104 1.8805-9.4528 0.64833-0.44245 4.6204-0.67294 8.8269-0.5122 11.438 0.43708 14.6 4.3554 9.5938 11.889-3.8308 5.7645-11.158 8.5876-18.622 7.175z" fill="#877a5f"/>
  <path d="m36.365 300.24c-3.9242-4.259-10.181-11.552-13.905-16.208-10.416-13.023-10.485-13.412-11.488-64.536-0.45313-23.1-1.3514-57.443-1.9962-76.318-0.6448-18.875-0.89513-34.596-0.55631-34.935 0.33883-0.33883 3.8705-0.64921 7.8482-0.68973 3.9777-0.0405 7.7946-0.43405 8.4821-0.8745 0.79132-0.50697 1.25-3.205 1.25-7.3526 0-3.6035 1.0924-12.689 2.4275-20.191 1.4349-8.0618 2.6884-19.978 3.0656-29.139 0.91138-22.141 1.2834-22.949 7.5607-16.411 4.2396 4.4157 10.567 7.7158 22.946 11.969 21.551 7.4033 56.617 21.937 59.949 24.847 2.2826 1.9931 7.7083 4.5952 9.5816 4.5952 0.89661 0 3.9965-1.5707 6.8887-3.4904 4.7892-3.1789 22.978-11.878 38.069-18.208 3.2934-1.3814 9.1434-4.215 13-6.297 3.8566-2.082 9.4869-4.5793 12.512-5.5495 3.025-0.97021 12.475-4.8912 21-8.7134 23.359-10.473 24.8-11.033 26.606-10.34 1.5028 0.57668 1.6152 2.3376 1.1081 17.37-0.48179 14.283 1.3534 52.699 2.7116 56.763 0.20395 0.61016 3.7782 1.0083 8.7099 0.97017l8.364-0.064631 0.63531-11.97c0.34942-6.5836 0.96993-23.445 1.3789-37.47 0.87256-29.922 0.20547-35.553-4.544-38.359-2.7004-1.5952-4.1226-4.6415-2.167-4.6415 0.44176 0 6.0116 5.2875 12.377 11.75l11.574 11.75 1.1738 9c0.64558 4.95 1.5805 11.025 2.0776 13.5s1.4174 12.375 2.0451 22c0.62767 9.625 1.3 17.757 1.4941 18.072s-0.11138 6.1646-0.67875 13c-0.89378 10.768-1.5952 63.893-2.204 166.93-0.0894 15.125-0.52852 28.066-0.97589 28.757-1.437 2.2208-6.0085 3.9768-13.187 5.065-10.807 1.6384-75.904 2.3489-104 1.135-30.009-1.2965-77.53-1.2243-90 0.13673-4.95 0.54027-16.425 1.1873-25.5 1.4378l-16.5 0.45548zm27.92-51.256c3.7736-3.8568 9.5566-8.8428 12.851-11.08 5.6739-3.8531 6.1054-3.984 8.1769-2.4808 1.2028 0.87285 3.2084 2.3166 4.457 3.2082 1.2485 0.89168 4.8485 2.1934 8 2.8927 3.1515 0.69932 9.33 2.2978 13.73 3.5523 7.1678 2.0435 10.236 2.2872 29.5 2.343l21.5 0.0622 11.5-4.3c6.325-2.365 12.408-4.5317 13.519-4.8149 1.4721-0.37557 4.2303 1.3995 10.189 6.5574l8.1708 7.0723h11.626c17.712 0 19.396-2.1256 9.2181-11.635-3.4523-3.2256-11.404-9.9147-17.67-14.865-14.461-11.423-28.889-24.285-32.388-28.872-1.4917-1.9557-6.6391-6.5874-11.439-10.293-4.7996-3.7053-10.211-8.0017-12.025-9.5476-3.3046-2.8163-16.251-9.7875-18.177-9.7875-0.56373 0-1.9418 0.91688-3.0625 2.0375s-3.2956 2.8081-4.8334 3.75c-2.6728 1.6371-15.881 15.301-17.74 18.352-1.7418 2.8589-22.014 18.924-46.513 36.861-28.259 20.689-32.739 25.138-26.627 26.442 1.2375 0.26407 3.15 0.67044 4.25 0.90305 1.1 0.23262 5.3579 0.47514 9.4619 0.53894l7.4619 0.116zm57.446-20.546c-9.5579-1.4876-17.41-4.4406-18.355-6.9032-0.85644-2.2318 0.69587-3.7437 11.511-11.211 5.2871-3.6504 11.82-8.6118 14.519-11.025s6.1102-5.2456 7.5821-6.2937l2.6763-1.9057 11.418 11.221c19.187 18.856 21.492 21.541 19.842 23.114-4.4322 4.2256-30.942 5.8442-49.193 3.0036zm-28.563-54.974c7.5783-5.3051 19.067-25.169 20.856-36.059 0.8243-5.0182 0.64561-7.0074-1.1862-13.205-1.9129-6.4719-2.9084-8.0545-8.806-14-12.411-12.512-18.323-15.203-33.392-15.203-8.3682 0-9.9735 0.30466-14.49 2.75-5.4024 2.9248-14.572 13.238-18.345 20.634-3.4837 6.8285-6.8596 17.777-7.4837 24.27-0.76942 8.0047 1.6903 13.295 9.5539 20.55 12.935 11.934 18.059 13.814 36.794 13.5 11.779-0.19746 12.307-0.30102 16.5-3.2364zm-35.168-14.093c-8.7932-2.9938-14.664-8.5279-15.678-14.78-0.74093-4.5658 3.2517-21.243 6.1478-25.68 3.3219-5.0888 11.568-10.116 17.531-10.689l4.8448-0.46553 2.0876 6.7589c1.1482 3.7174 2.3577 8.4479 2.6878 10.512 0.88038 5.5056-2.3054 17.568-7.0337 26.633-4.1542 7.9638-5.9666 9.2838-10.587 7.7106zm136.85 14.444c10.889-3.3631 29.503-11.663 33.445-14.912 4.3088-3.5517 10.182-11.853 14.76-20.863 2.9144-5.7352 3.1048-6.7086 2.4707-12.63-0.95445-8.9125-6.8529-19.613-14.233-25.821-6.0754-5.1101-27.959-9.3972-38.795-7.6001-3.3 0.54731-9.9271 0.99772-14.727 1.0009-8.1662 0.0054-8.8306 0.16399-10.34 2.4677-0.88721 1.354-1.8568 4.279-2.1547 6.5-0.6048 4.5092-0.91699 4.329 7.7217 4.4568l5.5 0.0814-0.0926 11.5c-0.11668 14.497-2.3376 36.266-3.7988 37.235-0.60974 0.40408-3.7058 0.74158-6.88 0.75-6.7939 0.018-7.1762 0.53041-8.5914 11.515-0.62662 4.8639-0.56561 7.4171 0.19994 8.3669 1.6465 2.0427 27.005 0.58015 35.515-2.0483zm-7.7988-20.952c0.19986-16.463 3.3162-45.402 5.1239-47.58 0.649-0.78199 3.3737-1.2868 6.9455-1.2868 5.2741 0 5.8776 0.21218 5.8776 2.0667 0 1.1367 1.1024 3.512 2.4497 5.2784 6.9469 9.1079 8.0436 17.272 4.1336 30.772-1.3292 4.589-2.2341 8.639-2.011 9 1.2047 1.9492-6.1353 4.4735-15.822 5.4415l-6.75 0.67448 0.053-4.3665zm-64.079-2.6165c1.476-10.935 1.8469-12.25 3.4554-12.25 1.8039 0 7.8352 4.9344 15.993 13.084 6.3781 6.3721 9.5776 8.3626 9.5776 5.9584 0-0.52666-3.8354-4.6578-8.5232-9.1804s-8.3749-8.6676-8.1937-9.2113c0.18122-0.54366 2.0633-1.5887 4.1825-2.3224 5.0493-1.7481 10.166-5.7145 12.035-9.3304 2.4036-4.6481 1.9415-10.234-1.0816-13.074-2.3886-2.244-3.3519-2.4243-12.95-2.4243-6.6996 0-10.792 0.42233-11.563 1.1933-0.65633 0.65633-1.5366 4.7063-1.9563 9s-1.7236 13.846-2.8978 21.228-1.9055 14.019-1.6251 14.75c1.2395 3.23 2.4516 0.69375 3.547-7.4216zm6.145-16.973c-2.3558-0.44579-2.3732-0.54036-1.6788-9.0988 0.38594-4.7566 1.2322-9.0104 1.8805-9.4528 0.64833-0.44245 4.6204-0.67294 8.8269-0.5122 11.438 0.43708 14.6 4.3554 9.5938 11.889-3.8308 5.7645-11.158 8.5876-18.622 7.175z" fill="#a57b23"/>
  <path d="m36.365 300.24c-3.9242-4.259-10.181-11.552-13.905-16.208-10.455-13.071-10.48-13.215-11.513-66.036-0.46811-23.925-1.3227-56.603-1.8991-72.618-0.57638-16.015-1.048-30.938-1.048-33.162v-4.044l8.077 0.0353c4.694 0.0205 8.5479-0.43562 9.2013-1.089 0.61835-0.61835 1.1809-4.3862 1.2501-8.373 0.069228-3.9868 1.2893-13.549 2.7113-21.249 1.6298-8.8254 2.8239-19.729 3.2307-29.5 0.35488-8.525 1.0522-15.91 1.5496-16.412 0.54272-0.54745 2.6731 0.71818 5.3278 3.1652 5.6577 5.2151 7.6859 6.2281 24.36 12.168 29.939 10.665 52.134 20.064 60.143 25.468 2.9428 1.9859 6.1355 3.6108 7.095 3.6108s4.5544-1.8162 7.9888-4.0359c3.4344-2.2197 11.717-6.4482 18.405-9.3966 22.211-9.791 27.115-12.079 32.661-15.241 3.025-1.7244 8.425-4.0531 12-5.1749 6.4098-2.0114 22.554-8.7198 24.5-10.181 1.8656-1.4003 20.389-8.9714 21.949-8.9714 0.85305 0 1.5803 0.3375 1.616 0.75 0.0358 0.4125 0.24283 13.125 0.46014 28.25s0.75055 31.55 1.185 36.5l0.78985 9 9.25 0.28753 9.25 0.28753 0.0239-7.7875c0.01308-4.2831 0.45897-9.5875 0.99082-11.788 1.0756-4.4491 1.4268-56.631 0.42798-63.579l-0.63547-4.4205 8.9696 9 8.9696 9 1.1779 9c0.64785 4.95 1.5846 11.025 2.0818 13.5s1.4174 12.375 2.0451 22c0.62767 9.625 1.3 17.757 1.4941 18.072s-0.11138 6.1646-0.67875 13c-0.89378 10.768-1.5952 63.893-2.204 166.93-0.0894 15.125-0.52852 28.066-0.97589 28.757-1.437 2.2208-6.0085 3.9768-13.187 5.065-10.807 1.6384-75.904 2.3489-104 1.135-30.009-1.2965-77.53-1.2243-90 0.13673-4.95 0.54027-16.425 1.1873-25.5 1.4378l-16.5 0.45548zm21.579-44.714c1.5644-0.809 5.1167-4.0204 7.8939-7.1363 4.5144-5.065 15.366-13.381 17.471-13.39 0.44475-2e-3 2.4698 1.3244 4.5 2.947s5.9414 3.4384 8.6914 4.0351c2.75 0.59672 9.725 2.2991 15.5 3.7831 9.5861 2.4633 12.154 2.6996 29.5 2.7149l19 0.0167 12-4.3008c17.74-6.3579 15.874-6.4902 25.51 1.8097l8.3441 7.187 12.17-0.34795c15.772-0.45095 18.392-2.2283 12.902-8.7531-2.7364-3.252-20.607-18.401-31.426-26.639-3.575-2.7223-11.924-10.351-18.552-16.953-18.038-17.963-39.583-33.503-46.452-33.503-0.96274 0-2.3353 0.70467-3.05 1.5659-0.71479 0.86126-2.6731 2.2762-4.3518 3.1443-2.9943 1.5484-16.126 14.843-18.093 18.318-1.3936 2.4614-19.799 17.292-38.437 30.972-33.597 24.659-40.053 30.41-37.266 33.197 2.4907 2.4907 20.034 3.4583 24.146 1.3318zm73.056-26.637c-5.225-0.45805-11.75-1.3573-14.5-1.9982-5.1762-1.2065-11.966-4.2216-12.897-5.7266-0.61462-0.99447 3.5278-5.0644 7.8966-7.7583 5.0898-3.1385 13.758-9.6493 19-14.271 9.7126-8.563 7.2897-9.383 24.935 8.4392 8.561 8.647 15.565 16.089 15.565 16.537 0 1.5239-3.7586 2.8332-12.519 4.3609-9.4301 1.6445-12.879 1.6968-27.481 0.41674zm-39.04-53.912c5.5877-3.1068 10.421-9.4589 17.052-22.411 4.2197-8.2417 5.2809-11.347 5.7115-16.712 1.0132-12.622-4.8467-23.714-17.445-33.021-9.6663-7.1409-13.265-8.2789-26.279-8.3095-11.005-0.025891-11.694 0.097654-16 2.8683-11.752 7.5616-23.418 28.098-25.521 44.926-1.1593 9.2791 3.1936 16.606 15.521 26.125 3.025 2.3358 6.625 4.847 8 5.5804 4.7531 2.5352 13.533 3.8714 24 3.6524 9.0666-0.18976 11.109-0.55827 14.96-2.6995zm-34.111-16.371c-2.5583-0.68707-5.7908-1.9958-7.1834-2.9083-3.492-2.288-7.3218-7.6026-8.071-11.2-0.97009-4.6582 3.8662-22.256 7.2827-26.5 3.8783-4.8172 10.713-8.8492 16.294-9.6119l4.6712-0.63835 2.0892 6.7642c3.2407 10.492 3.4549 13.57 1.5164 21.793-1.7489 7.4183-9.0025 22.868-10.948 23.319-0.55 0.12741-3.0931-0.33049-5.6514-1.0176zm123.65 17.975c11.826-1.3546 16.848-2.8265 34.449-10.097 12.385-5.1159 18.538-11.09 26.438-25.669 4.3789-8.0808 4.8879-10.929 3.2974-18.448-2.4877-11.761-13.066-25.048-21.817-27.404-13.595-3.6608-18.13-4.0825-36.226-3.3683-20.086 0.79287-20.529 0.95386-22.721 8.2714-1.8691 6.2386-1.036 7.1324 6.6475 7.1324h6.6318l-0.59632 12.75c-1.17 25.017-1.8139 32.767-2.8246 34-0.60382 0.73648-3.3891 1.25-6.78 1.25-3.9014 0-6.157 0.48423-7.0028 1.5033-1.9922 2.4005-3.5841 18.085-2.0261 19.962 1.5866 1.9117 6.6361 1.9381 22.529 0.11775zm6.7776-20.276c-1.531-0.56964-0.88192-17.378 1.3441-34.807 2.1914-17.158 1.8473-16.178 5.9528-16.948 4.6449-0.8714 9.4255 0.19076 9.4255 2.0942 0 0.81799 1.1024 2.9325 2.4497 4.699 4.0678 5.3331 6.5048 11.789 6.5283 17.293 0.0236 5.5296-4.307 22.064-6.3135 24.105-1.0555 1.0736-5.9418 2.2118-15.665 3.6488-1.375 0.20322-3.0501 0.16484-3.7224-0.0853zm-65.278-0.38817c0-1.0102 0.5047-5.2301 1.1216-9.3776 0.91749-6.1688 1.448-7.5408 2.9156-7.5408 0.98671 0 6.5072 4.5 12.268 10s10.947 10 11.525 10c3.3234 0 1.5274-3.1056-6.4042-11.074-4.8522-4.8748-8.6206-9.0214-8.3742-9.2147 0.24639-0.19331 3.0392-1.5923 6.2063-3.1089 6.9122-3.31 10.811-8.0239 11.463-13.859 0.87859-7.8664-4.7125-11.726-17.003-11.738-3.1802-3e-3 -7.2797 0.62013-9.11 1.3849-3.2302 1.3497-3.3487 1.6064-4.0372 8.75-0.39015 4.0477-1.5758 12.535-2.6347 18.86-1.9761 11.804-2.4389 19.164-1.278 20.325 1.0175 1.0175 3.342-1.3518 3.342-3.4063zm5.2842-24.034c-0.68204-0.68204-0.92979-3.306-0.63731-6.75 0.91721-10.8 0.2731-10.134 9.8007-10.134 9.408 0 11.552 1.1128 11.552 5.9947 0 3.5473-4.2884 8.81-8.6712 10.641-3.946 1.6488-10.509 1.784-12.045 0.24823zm139.27-123.22c-1.0058-0.73546-1.6454-1.8872-1.4213-2.5595 0.2602-0.78058 1.2763-0.29737 2.8119 1.3372 2.547 2.7112 1.6836 3.4702-1.3906 1.2223z" fill="#6c6350"/>
  <path d="m36.5 299.29c-4.4-4.7244-9.8837-11.014-12.186-13.977-2.3023-2.963-5.0938-6.1576-6.2034-7.0993-1.1944-1.0136-2.8909-4.9759-4.1583-9.7122-2.3855-8.9138-2.2867-6.6429-3.9571-91-0.56634-28.6-1.3019-55.898-1.6346-60.663l-0.60489-8.6628 8.1992 0.0358c4.7851 0.0209 8.6674-0.43234 9.3235-1.0885 0.61835-0.61835 1.1809-4.3862 1.2501-8.373 0.069228-3.9868 1.2893-13.549 2.7113-21.249 1.6298-8.8254 2.8239-19.729 3.2307-29.5 0.35488-8.525 1.0522-15.91 1.5496-16.412 0.54272-0.54745 2.6731 0.71818 5.3278 3.1652 5.6577 5.2151 7.6859 6.2281 24.36 12.168 29.939 10.665 52.134 20.064 60.143 25.468 2.9428 1.9859 6.1355 3.6108 7.095 3.6108s4.5544-1.8162 7.9888-4.0359c3.4344-2.2197 11.717-6.4482 18.405-9.3966 22.211-9.791 27.115-12.079 32.661-15.241 3.025-1.7244 8.425-4.0531 12-5.1749 6.4098-2.0114 22.554-8.7198 24.5-10.181 1.8656-1.4003 20.389-8.9714 21.949-8.9714 0.85305 0 1.5803 0.3375 1.616 0.75 0.0358 0.4125 0.24283 13.125 0.46014 28.25s0.75055 31.55 1.185 36.5l0.78985 9 9.25 0.28753 9.25 0.28753 0.0239-7.7875c0.01308-4.2831 0.45897-9.5875 0.99082-11.788 1.0933-4.5224 1.4211-56.922 0.3962-63.332l-0.66724-4.1727 8.6264 8.8154 8.6264 8.8154 1.5143 10.937c0.83286 6.0152 1.7629 11.612 2.0668 12.437 0.67056 1.8205 2.7834 33.129 2.8006 41.5 7e-3 3.3-0.59608 42.45-1.3397 87-1.3814 82.758-1.4657 92.7-0.92157 108.62 0.5617 16.43 1.5826 16.223-78.039 15.838-92.445-0.44766-129.1-0.0352-141.58 1.593-6.05 0.78969-15.05 1.4121-20 1.3831l-9-0.0527-8-8.5899zm21.444-43.759c1.5644-0.809 5.1167-4.0204 7.8939-7.1363 4.5144-5.065 15.366-13.381 17.471-13.39 0.44475-2e-3 2.4698 1.3244 4.5 2.947s5.9414 3.4384 8.6914 4.0351c2.75 0.59672 9.725 2.2991 15.5 3.7831 9.5861 2.4633 12.154 2.6996 29.5 2.7149l19 0.0167 12-4.3008c17.74-6.3579 15.874-6.4902 25.51 1.8097l8.3441 7.187 12.17-0.34795c15.772-0.45095 18.392-2.2283 12.902-8.7531-2.7364-3.252-20.607-18.401-31.426-26.639-3.575-2.7223-11.924-10.351-18.552-16.953-18.038-17.963-39.583-33.503-46.452-33.503-0.96274 0-2.3353 0.70467-3.05 1.5659-0.71479 0.86126-2.6731 2.2762-4.3518 3.1443-2.9943 1.5484-16.126 14.843-18.093 18.318-1.3936 2.4614-19.799 17.292-38.437 30.972-33.597 24.659-40.053 30.41-37.266 33.197 2.4907 2.4907 20.034 3.4583 24.146 1.3318zm73.056-26.637c-5.225-0.45805-11.75-1.3573-14.5-1.9982-5.1762-1.2065-11.966-4.2216-12.897-5.7266-0.61462-0.99447 3.5278-5.0644 7.8966-7.7583 5.0898-3.1385 13.758-9.6493 19-14.271 9.7126-8.563 7.2897-9.383 24.935 8.4392 8.561 8.647 15.565 16.089 15.565 16.537 0 1.5239-3.7586 2.8332-12.519 4.3609-9.4301 1.6445-12.879 1.6968-27.481 0.41674zm-39.04-53.912c5.5877-3.1068 10.421-9.4589 17.052-22.411 4.2197-8.2417 5.2809-11.347 5.7115-16.712 1.0132-12.622-4.8467-23.714-17.445-33.021-9.6663-7.1409-13.265-8.2789-26.279-8.3095-11.005-0.025891-11.694 0.097654-16 2.8683-11.752 7.5616-23.418 28.098-25.521 44.926-1.1593 9.2791 3.1936 16.606 15.521 26.125 3.025 2.3358 6.625 4.847 8 5.5804 4.7531 2.5352 13.533 3.8714 24 3.6524 9.0666-0.18976 11.109-0.55827 14.96-2.6995zm-34.111-16.368c-2.5583-0.68909-5.7908-1.9994-7.1834-2.9119-3.492-2.288-7.3218-7.6026-8.071-11.2-0.97009-4.6582 3.8662-22.256 7.2827-26.5 3.841-4.7709 10.701-8.8484 16.123-9.584l4.5-0.61045 2.25 7.9062c2.6743 9.3971 2.7904 13.465 0.63423 22.224-1.5523 6.3062-8.9256 22.136-10.246 21.996-0.35121-0.0371-2.7317-0.63129-5.2899-1.3204zm123.65 17.971c11.826-1.3546 16.848-2.8265 34.449-10.097 12.385-5.1159 18.538-11.09 26.438-25.669 4.3789-8.0808 4.8879-10.929 3.2974-18.448-2.4877-11.761-13.066-25.048-21.817-27.404-13.595-3.6608-18.13-4.0825-36.226-3.3683-20.086 0.79287-20.529 0.95386-22.721 8.2714-1.8691 6.2386-1.036 7.1324 6.6475 7.1324h6.6318l-0.59632 12.75c-1.17 25.017-1.8139 32.767-2.8246 34-0.60382 0.73648-3.3891 1.25-6.78 1.25-3.9014 0-6.157 0.48423-7.0028 1.5033-1.9922 2.4005-3.5841 18.085-2.0261 19.962 1.5866 1.9117 6.6361 1.9381 22.529 0.11775zm6.7776-20.276c-1.531-0.56964-0.88192-17.378 1.3441-34.807 2.1914-17.158 1.8473-16.178 5.9528-16.948 4.2647-0.80007 9.701 0.1931 8.8241 1.6121-0.34037 0.55073 0.71867 2.8766 2.3534 5.1686 6.6401 9.3098 7.8865 14.683 5.6949 24.549-2.3341 10.507-3.9614 16.033-5.0394 17.111-0.86432 0.86432-6.1586 2.0324-15.407 3.3994-1.375 0.20322-3.0501 0.16484-3.7224-0.0853zm-65.278-0.38817c0-1.0102 0.5047-5.2301 1.1216-9.3776 0.91749-6.1688 1.448-7.5408 2.9156-7.5408 0.98671 0 6.5072 4.5 12.268 10s10.947 10 11.525 10c3.3234 0 1.5274-3.1056-6.4042-11.074-4.8522-4.8748-8.6206-9.0214-8.3742-9.2147 0.24639-0.19331 3.0392-1.5923 6.2063-3.1089 6.9122-3.31 10.811-8.0239 11.463-13.859 0.87859-7.8664-4.7125-11.726-17.003-11.738-3.1802-3e-3 -7.2797 0.62013-9.11 1.3849-3.2302 1.3497-3.3487 1.6064-4.0372 8.75-0.39015 4.0477-1.5758 12.535-2.6347 18.86-1.9761 11.804-2.4389 19.164-1.278 20.325 1.0175 1.0175 3.342-1.3518 3.342-3.4063zm5.2842-24.034c-0.68204-0.68204-0.92979-3.306-0.63731-6.75 0.91721-10.8 0.2731-10.134 9.8007-10.134 9.408 0 11.552 1.1128 11.552 5.9947 0 3.5473-4.2884 8.81-8.6712 10.641-3.946 1.6488-10.509 1.784-12.045 0.24823zm139.16-123.3c-1.0668-0.78003-1.7085-1.6493-1.4262-1.9316 0.28236-0.28235 1.6316 0.34585 2.9984 1.396 2.8466 2.1871 1.3729 2.6891-1.5722 0.5356z" fill="#8e681a"/>
  <path d="m36.439 299.18c-9.9528-10.722-19.135-22.255-20.43-25.661-3.2508-8.5503-4.0092-16.142-4.0294-40.335-0.011328-13.578-0.4317-31.213-0.93415-39.188s-1.2304-30.252-1.6177-49.505l-0.70412-35.005 8.1616-0.0682c5.0535-0.0422 8.6287-0.53769 9.3883-1.3011 0.72261-0.72624 1.229-3.9836 1.2324-7.9267 0.0032-3.6816 1.2027-13.219 2.6656-21.194 1.6713-9.1112 2.9087-20.26 3.3295-30 0.3683-8.525 0.82024-15.651 1.0043-15.837s2.5696 1.43 5.3011 3.5892c5.1395 4.0625 9.6619 6.1226 29.194 13.299 29.058 10.676 45.642 17.803 54.202 23.292 3.1361 2.0111 6.6346 3.6566 7.7745 3.6566 1.1399 0 4.874-1.7633 8.298-3.9184 3.424-2.1551 13.875-7.3435 23.225-11.53s20.825-9.5614 25.5-11.945c4.675-2.3833 10.3-4.9044 12.5-5.6025 4.65-1.4756 19.223-7.6392 35.242-14.905 6.1832-2.8046 11.696-5.0994 12.25-5.0994 1.2987 0 1.2708-0.5497 1.0422 20.5-0.2057 18.941 1.578 50.907 2.9876 53.541 0.66315 1.2391 2.5363 1.5108 9.3373 1.3546 4.6793-0.1075 8.9243-0.45293 9.4335-0.76762 1.5479-0.95664 2.587-22.485 2.6487-54.872l0.0585-30.743 7.7404 7.7435 7.7404 7.7435 1.5221 11c0.83717 6.05 1.7708 11.675 2.0746 12.5 0.67056 1.8205 2.7834 33.129 2.8006 41.5 7e-3 3.3-0.59608 42.45-1.3397 87-1.3814 82.758-1.4657 92.7-0.92157 108.62 0.5617 16.43 1.5826 16.223-78.039 15.838-92.445-0.44766-129.1-0.0352-141.58 1.593-6.05 0.78969-15.05 1.4097-20 1.3778l-9-0.058-8.0612-8.6839zm29.321-49.331c4.2571-4.1696 9.8822-9.0168 12.5-10.772l4.76-3.1907 4.24 2.9975c3.1121 2.2001 8.2302 4.0029 19.24 6.7768 14.837 3.7382 15.217 3.7796 35 3.8074l20 0.0281 10.5-3.6898c5.775-2.0294 11.927-4.2521 13.671-4.9393 3.0596-1.2057 3.3734-1.0764 8.9605 3.6898 3.1844 2.7166 6.8859 5.9518 8.2254 7.1893 2.2287 2.059 3.4021 2.25 13.822 2.25 20.409 0 23.25-3.5438 11.572-14.438-7.6127-7.1016-15.695-13.836-25.25-21.036-3.575-2.6943-12.8-11.011-20.5-18.482s-16.025-15.242-18.5-17.269l-4.5-3.6853 5.144-0.0449c9.7721-0.0854 25.876-2.1112 31.856-4.0074 10.074-3.1944 25.387-9.7567 30.653-13.136 5.5336-3.5509 12.958-13.64 18.059-24.54 2.5429-5.434 2.9042-7.152 2.3438-11.143-1.0134-7.2166-2.5008-11.149-6.7954-17.966-4.7851-7.5956-10.779-12.911-16.207-14.373-13.455-3.6231-17.943-4.0257-36.896-3.3094-21.331 0.80611-21.389 0.82834-23.712 9.1261-1.8151 6.4831-0.73504 7.7317 7.0104 8.104l6.2475 0.30035-0.62716 12.2c-1.1366 22.108-1.6118 29.172-2.1159 31.45-0.45357 2.0495-1.073 2.25-6.9532 2.25-6.0703 0-6.5423 0.16825-7.9143 2.8214-0.80246 1.5518-1.7759 6.7268-2.1632 11.5-0.38729 4.7732-0.86339 8.6786-1.058 8.6786-0.1946 0-2.271-1.4634-4.6142-3.252-2.3432-1.7886-7.1245-4.5374-10.625-6.1083l-6.3647-2.8563-2.6336 2.1454c-1.4485 1.18-3.9592 2.9162-5.5793 3.8583s-4.5452 3.4888-6.5 5.6594c-1.9548 2.1706-5.2417 5.6403-7.3042 7.7104-2.0625 2.0702-3.75 4.1911-3.75 4.7132 0 1.4648-24.539 21.201-44 35.388-21.948 16-32.415 24.734-32.798 27.367-0.62547 4.2977 6.0155 6.3908 19.058 6.0069l6.7598-0.199 7.7402-7.581zm57.74-22.854c-10.255-1.5424-18.5-4.6174-18.5-6.8998 0-0.47034 2.5853-2.5975 5.7451-4.7269 7.4149-4.9971 17.58-12.704 23.146-17.55 2.4149-2.1022 4.8956-3.8223 5.5125-3.8223 2.0597 0 30.905 29.691 29.618 30.487-5.1868 3.2056-31.321 4.6476-45.522 2.5118zm64.975-83.748c0.79471-16.115 3.4731-36.523 4.9198-37.485 0.60768-0.40408 2.9319-0.74158 5.1648-0.75 3.8841-0.0147 4.2366 0.25542 8.1367 6.2347 5.282 8.0978 5.9126 9.4558 6.6165 14.25 0.96828 6.5946-3.667 25.035-6.8071 27.08-1.1033 0.71865-4.931 1.7787-8.506 2.3556-11.143 1.7983-10.244 2.9015-9.5246-11.686zm-97.155 33.347c5.6025-2.7747 9.0836-6.6959 15.258-17.187 6.7902-11.538 9.4219-18.955 9.4219-26.557 0-14.434-10.658-28.522-28-37.013-3.8447-1.8825-6.2474-2.2133-16.5-2.2722-11.149-0.064012-12.308 0.11284-16.34 2.4947-5.8189 3.4375-15.331 14.817-19.64 23.494-3.8016 7.6569-7.5207 20.656-7.5207 26.286 0 5.1305 3.4206 11.391 9.3228 17.064 14.084 13.536 20.731 16.221 39.177 15.82 8.4203-0.18276 11.896-0.68249 14.82-2.1309zm-35.194-19.077c-7.0314-2.2226-13.127-9.1868-13.127-14.998 0-3.3045 3.8412-18.256 5.5295-21.523 3.0346-5.8723 12.686-11.933 19.075-11.978 2.9938-0.0212 3.1808 0.23615 5.2532 7.228 1.1819 3.9875 2.1474 9.0804 2.1457 11.318-0.0078 10.061-8.3005 30.71-12.503 31.134-1.1 0.11083-3.9679-0.42055-6.3731-1.1808zm66.602 2.2293c0.53578-0.6875 1.5227-5.2943 2.1932-10.237 0.6705-4.9431 1.4-9.1683 1.6211-9.3894 0.71093-0.71094 7.571 5.0165 15.03 12.548 7.5245 7.5981 10.758 9.0102 11.961 5.2225 0.54499-1.7171-0.82855-3.5385-7.4326-9.8562-4.4556-4.2624-8.1012-8.0335-8.1012-8.3802 0-0.34672 1.4952-1.2552 3.3227-2.0187 4.2644-1.7818 10.369-7.1423 12.228-10.737 3.4501-6.6718 0.35884-14.999-6.2491-16.834-4.9238-1.3673-16.147-1.3657-20.073 3e-3 -3.7445 1.3053-4.0283 2.0006-5.2347 12.821-0.52789 4.7349-1.853 14.403-2.9447 21.485-1.3946 9.0474-1.6867 13.434-0.98226 14.75 1.1542 2.1566 3.2485 2.4367 4.6615 0.62346zm6.5598-28.399c-0.68855-0.2794-1.0289-1.6474-0.78897-3.171 0.23207-1.4738 0.69207-4.8172 1.0222-7.4297l0.60025-4.75h7.0045c8.4373 0 10.873 1.084 10.873 4.839 0 2.8386-4.2729 7.779-8.6843 10.041-2.1946 1.1253-7.7686 1.387-10.027 0.47073z" fill="#624509"/>
  <path d="m42.258 304.78c-1.5167-1.7706-6.1693-6.8334-10.339-11.251-6.7373-7.1372-10.841-12.53-9.5338-12.53 0.25032 0 5.1037 1.1158 10.785 2.4795 5.6815 1.3637 13.03 2.6831 16.33 2.932 3.3 0.24887 11.625 1.0979 18.5 1.8868 6.875 0.78887 16.325 1.3067 21 1.1506s19.075-0.21868 32-0.13924c44.914 0.27603 92.55-0.35457 101-1.337 4.675-0.54354 11.206-1.839 14.513-2.8788 3.3069-1.0398 8.7069-2.1802 12-2.5342 12.484-1.3421 11.864-1.0228 17.87-9.2059 3.0642-4.1751 5.7776-9.0002 6.0296-10.722 2.4928-17.031 2.8359-27.234 1.5565-46.283-0.79365-11.816-1.2618-34.417-1.1568-55.849 0.12276-25.059-0.23642-39.493-1.1818-47.493-1.0877-9.204-1.1101-11.892-0.11243-13.5 1.6455-2.6515 2.657-23.23 2.8374-57.726l0.14493-27.719 6.3216 6.219c3.4769 3.4205 6.7525 7.0015 7.2792 7.9578 1.2457 2.2619 3.635 18.219 4.9055 32.761 0.55258 6.325 1.4186 16.225 1.9244 22 0.57 6.5077 0.55723 14.872-0.0336 22-0.97736 11.79-2.4754 140.51-2.0292 174.36 0.29287 22.213 0.50607 21.709-10.222 24.167-6.2437 1.4306-14.471 1.6096-65.146 1.4167-117.6-0.44754-131.15-0.31317-144.17 1.43-6.6935 0.8959-15.803 1.6289-20.242 1.6289-7.8536 0-8.1469-0.0872-10.83-3.2193zm15.425-147.21c-5.7295-1.5359-12.277-7.4357-13.61-12.264-1.1872-4.2996 2.7478-20.922 6.1808-26.11 2.9458-4.4514 11.089-9.1447 16.42-9.4636l3.8259-0.22889 2.2146 6.5c2.7194 7.9817 2.8325 13.551 0.45882 22.593-1.8768 7.1485-7.8924 19.603-9.6734 20.027-0.55 0.13103-3.1676-0.34282-5.8169-1.053zm131.43-2.4971c-0.94143-0.58184-0.0377-16.666 1.9705-35.069 1.5268-13.992 1.41-13.682 5.4517-14.44 5.921-1.1108 6.7584-0.42519 13.76 11.266 3.165 5.2846 3.865 11.316 2.2011 18.966-2.3641 10.869-4.0113 15.358-6.0549 16.502-2.418 1.3532-16.088 3.5434-17.329 2.7764z" fill="#4a360c"/>
  <path d="m44 306.11c0-0.49121-4.2992-5.492-9.5539-11.113-5.2546-5.6208-9.3205-10.453-9.0352-10.738 0.28525-0.28525 4.697 0.40492 9.8039 1.5337 5.1069 1.1288 11.985 2.3034 15.285 2.6103 3.3 0.30688 11.625 1.146 18.5 1.8646 6.875 0.71865 15.875 1.2182 20 1.1101 7.6512-0.20055 39.387-0.21656 73.5-0.0371 45.321 0.23846 60.407-0.76099 78.5-5.2007 4.675-1.1471 11.124-2.3592 14.332-2.6934 6.4619-0.67335 6.8332-0.96009 13.648-10.541 4.138-5.8174 4.5742-7.0289 5.7067-15.851 2.3492-18.299 2.5495-25.591 1.1827-43.052-0.82429-10.53-1.37-32.436-1.3702-55-2e-4 -22.188-0.48121-41.767-1.1781-47.95-0.64775-5.7476-0.80786-11.148-0.3558-12 1.0168-1.9174 3.479-67.224 2.8581-75.808-0.24834-3.4332-0.19781-6.1894 0.11229-6.125 0.3101 0.06446 3.1906 2.9529 6.4011 6.4188l5.8373 6.3017 1.4241 10.331c0.78323 5.6822 1.6855 11.006 2.0051 11.831 0.74869 1.933 2.654 30.094 2.7402 40.5 0.0364 4.4-0.54663 44.225-1.2957 88.5-1.3906 82.196-1.4765 92.169-0.93131 108.12 0.5333 15.6 2.4571 15.228-76.932 14.846-92.792-0.4469-129.15-0.03872-141.69 1.5907-12.305 1.5994-29.5 1.9216-29.5 0.55281zm12.942-149.06c-6.8851-2.0892-12.942-8.8946-12.942-14.542 0-3.9859 3.3964-17.448 5.3492-21.202 3.0283-5.8217 11.636-11.308 17.74-11.308h3.6191l2.1488 7.25c1.1819 3.9875 2.1474 8.4596 2.1457 9.938-0.0062 5.2445-3.1219 16.019-6.7563 23.364-3.9295 7.9413-4.8364 8.4627-11.305 6.4998zm132.48-14.74c0.60154-12.163 1.9307-24.612 3.4497-32.311 0.65502-3.3199 0.92283-3.5153 5.205-3.7965 4.3024-0.28259 4.6585-0.0948 7.5833 4 8.1664 11.433 9.1617 18.211 4.7823 32.569-2.9304 9.6072-4.0248 10.441-15.3 11.662l-6.3542 0.68815z" fill="#3a2908"/>
  <path d="m54.384 155.09c-5.5878-2.5375-9.3882-7.6818-9.3686-12.681 0.02155-5.4832 3.6551-19.415 5.8437-22.406 4.4292-6.0529 16.134-11.472 18.805-8.7056 1.7793 1.8426 4.3358 11.538 4.3358 16.444 0 6.2852-1.7074 12.657-5.7645 21.511-3.3196 7.2451-3.7524 7.7486-6.6432 7.728-1.7008-0.0121-4.9445-0.8631-7.2084-1.8912zm135.06-3.2151c0.29671-1.3045 1.0278-9.1218 1.6247-17.372 1.9118-26.424 1.9742-26.742 5.435-27.667 4.5138-1.2063 6.03-0.28939 10.439 6.313 6.8826 10.307 7.3602 15.361 2.822 29.867-2.7176 8.6866-3.7274 9.4421-14.061 10.521-6.7852 0.70812-6.7985 0.7046-6.2602-1.6622z" fill="#020101"/>
 </g>
</svg>
