<?xml version="1.0" encoding="UTF-8"?>
<svg width="20" height="20" version="1.1" viewBox="0 0 20 20" xmlns="http://www.w3.org/2000/svg">
 <path d="m1.5298 19.944c-0.64001-0.2359-1.2772-0.94318-1.3666-1.5169-0.033393-0.21418-0.070281-0.28059-0.11536-0.20766-0.037188 0.060163-0.066875-0.67029-0.067652-1.6646l-0.0013932-1.7718 0.65643 0.02573 0.65643 0.02573 0.040326 1.589c0.045502 1.793 0.10685 2.0316 0.57373 2.2317 0.38982 0.16705 15.692 0.17147 16.081 0.0046 0.50849-0.2179 0.55396-0.38778 0.58894-2.2l0.03138-1.6253 0.65871-0.0258 0.65871-0.0258-1.57e-4 1.7565c-7.7e-5 0.96606-0.02874 1.7383-0.06367 1.7162-0.03492-0.02214-0.10348 0.11315-0.15237 0.30061-0.10872 0.41694-0.63009 1.0426-1.0697 1.2839l-0.3242 0.17784-8.2451 0.01736c-6.7514 0.01419-8.2985-0.0022-8.5396-0.09122zm5.9195-4.0812c-0.51709-0.26502-0.89039-0.68723-1.0841-1.2261-0.064599-0.1797-0.094332-1.2566-0.099358-3.5988-0.0039422-1.8383-0.0377-3.3918-0.075006-3.4521-0.051976-0.084145-0.45067-0.12179-1.7058-0.16108-1.4782-0.046268-1.6405-0.065101-1.6644-0.19304-0.01781-0.095399 0.55726-0.75388 1.7584-2.0134 2.4848-2.6057 4.5728-4.7058 4.9192-4.9479 0.59116-0.41304 0.49441-0.48946 4.2491 3.3562 2.4315 2.4905 3.3574 3.4883 3.3371 3.5968-0.0259 0.1387-0.1522 0.15397-1.666 0.20135-1.2551 0.039292-1.6538 0.076928-1.7058 0.16108-0.0373 0.0604-0.06837 1.5984-0.06903 3.4176-0.0013 3.7443-0.0097 3.8074-0.57809 4.4061-0.6112 0.6437-0.6783 0.65886-3.0353 0.68573l-2.081 0.02373z" fill="#5377e3" stroke-width=".079525"/>
</svg>
