<?xml version="1.0" encoding="UTF-8" standalone="no"?>
<svg
   xmlns:dc="http://purl.org/dc/elements/1.1/"
   xmlns:cc="http://creativecommons.org/ns#"
   xmlns:rdf="http://www.w3.org/1999/02/22-rdf-syntax-ns#"
   xmlns:svg="http://www.w3.org/2000/svg"
   xmlns="http://www.w3.org/2000/svg"
   xmlns:sodipodi="http://sodipodi.sourceforge.net/DTD/sodipodi-0.dtd"
   xmlns:inkscape="http://www.inkscape.org/namespaces/inkscape"
   width="20"
   height="20"
   version="1.1"
   viewBox="0 0 20 20"
   id="svg18"
   sodipodi:docname="visit_20x20.svg"
   inkscape:version="0.92.2 5c3e80d, 2017-08-06">
  <metadata
     id="metadata24">
    <rdf:RDF>
      <cc:Work
         rdf:about="">
        <dc:format>image/svg+xml</dc:format>
        <dc:type
           rdf:resource="http://purl.org/dc/dcmitype/StillImage" />
        <dc:title></dc:title>
      </cc:Work>
    </rdf:RDF>
  </metadata>
  <defs
     id="defs22" />
  <sodipodi:namedview
     pagecolor="#ffffff"
     bordercolor="#666666"
     borderopacity="1"
     objecttolerance="10"
     gridtolerance="10"
     guidetolerance="10"
     inkscape:pageopacity="0"
     inkscape:pageshadow="2"
     inkscape:window-width="870"
     inkscape:window-height="861"
     id="namedview20"
     showgrid="false"
     inkscape:zoom="11.866823"
     inkscape:cx="13.8895"
     inkscape:cy="17.161017"
     inkscape:window-x="0"
     inkscape:window-y="0"
     inkscape:window-maximized="0"
     inkscape:current-layer="svg18" />
  <g
     transform="matrix(0.0899849,0,0,0.08013782,-0.07710878,0.78604693)"
     id="g16">
    <path
       d="M 13.235,214.94 C 7.8313,213.8747 7.4744,213.6371 3.9343,208.7502 L 1.0003,204.7 V 52.39 l 3.1091,-4.2278 c 4.6312,-6.2975 7.5528,-7.3972 21.137,-7.9567 l 11.753,-0.48406 v 176.27 l -9.75,-0.10957 c -5.3625,-0.0603 -11.669,-0.48797 -14.015,-0.95047 z M 55,128 V 40 h 15.761 l 0.40645,-9.2932 c 0.50736,-11.6 2.2921,-15.17 9.3489,-18.698 4.9448,-2.4724 5.1912,-2.4915 31.983,-2.4745 25.276,0.016023 27.293,0.15108 31.592,2.1156 7.3283,3.3488 9.1372,6.7946 9.6998,18.477 l 0.47543,9.8734 h 15.733 v 176 h -115 z m 90.994,-94.25 c -0.007,-7.8212 -1.5172,-13.424 -3.9724,-14.738 -2.4225,-1.2965 -54.979,-1.3586 -58.371,-0.06905 -2.9922,1.1376 -3.3522,2.2284 -4.2268,12.807 l -0.68211,8.25 h 67.258 l -0.006,-6.25 z M 185,128.113 V 40 h 9.9508 c 13.058,0 18.952,1.3317 23.512,5.3127 3.1977,2.7919 3.7652,3.9937 4.574,9.6873 0.50783,3.575 0.93238,38.978 0.94344,78.673 l 0.0201,72.173 -2.6191,3.1126 c -4.6555,5.5327 -7.5197,6.4002 -22.631,6.8545 l -13.75,0.41331 v -88.113 z"
       id="path2"
       inkscape:connector-curvature="0"
       style="fill:#cbad9b" />
    <path
       d="M 16,215.07 C 9.141,214.27954 7.0527,213.1244 3.677,208.2539 l -2.6774,-3.8635 v -151.57 l 3.133,-4.3627 c 4.4032,-6.1313 7.794,-7.4265 21.343,-8.1526 l 11.524,-0.6176 v 176.31 l -7.75,-0.14702 c -4.2625,-0.0809 -10.225,-0.43225 -13.25,-0.78086 z m 39,-87.072 v -88 h 15.727 l 0.48887,-9.3462 c 0.55364,-10.584 1.9518,-13.86 7.5553,-17.7 l 3.5818,-2.4543 h 30.073 c 28.3,0 30.269,0.11791 33.392,2 5.4794,3.3018 7.142,7.0921 7.852,17.901 l 0.63055,9.5992 h 15.698 v 176 h -115 z m 91,-94.851 c 0,-7.8442 -1.4008,-12.758 -4.0394,-14.17 -2.9563,-1.5822 -57.166,-1.2805 -59.369,0.33037 -2.0428,1.4938 -3.4845,7.7677 -3.5482,15.441 l -0.04355,5.25 h 67 z m 39,94.842 V 39.696 l 13.041,0.57999 c 11.75,0.52259 13.491,0.84388 17.591,3.2464 8.2697,4.8464 7.8061,-0.01488 8.1812,85.786 l 0.33138,75.811 -2.5158,3.2984 c -4.1794,5.4795 -8.3101,6.7828 -23.311,7.3553 l -13.317,0.50817 z"
       id="path4"
       inkscape:connector-curvature="0"
       style="fill:#b88f73" />
    <path
       d="M 17.5,214.99 C 8.4713,214.06835 7.5143,213.6057 3.965,208.4474 l -2.9653,-4.3098 v -151.78 l 3.6004,-4.2062 c 5.19,-6.0634 7.6038,-6.9649 20.754,-7.7511 l 11.645,-0.69622 v 176.29 l -6.25,-0.14665 c -3.4375,-0.0807 -9.4,-0.4682 -13.25,-0.86121 z M 55,127.998 v -88 h 16 l 0.02445,-6.25 c 0.05472,-13.991 4.0167,-20.738 13.387,-22.797 3.2703,-0.71875 14.378,-0.9994 31.088,-0.78552 22.9,0.29309 26.445,0.55412 29.734,2.1892 5.7554,2.8613 7.5013,6.6132 8.3265,17.894 l 0.71328,9.75 h 15.726 v 176 h -115 z m 90.85,-96.896 c -0.5485,-13.962 1.6062,-13.104 -32.894,-13.104 -34.936,0 -32.775,-0.8188 -33.653,12.75 l -0.59882,9.25 h 67.495 z M 185,127.988 V 39.69 l 13.25,0.66811 c 12.122,0.61124 13.633,0.90431 17.75,3.4433 7.6718,4.7313 7.3293,0.94973 7.7763,85.871 l 0.39568,75.174 -2.2762,3.0787 c -4.0673,5.5014 -9.3989,7.2451 -23.957,7.8356 l -12.939,0.52477 z"
       id="path6"
       inkscape:connector-curvature="0"
       style="fill:#a57146" />
    <path
       d="M 19,215.05 C 9.5061,214.34164 7.705,213.51 3.749,208.0066 l -2.7495,-3.825 v -75.14 c 0,-81.716 -0.27953,-77.607 5.6607,-83.227 4.0182,-3.8018 6.3849,-4.4546 19.089,-5.2648 l 11.25,-0.71743 v 176.17 l -4.75,-0.15843 c -2.6125,-0.0871 -8.575,-0.44382 -13.25,-0.79264 z m 36,-87.049 v -88 h 16 v -5.3635 c 0,-8.1535 1.7557,-15.746 4.2617,-18.429 5.1113,-5.4737 6.2867,-5.6824 33.971,-6.0316 30.816,-0.38864 35.087,0.2223 40.064,5.7305 3.2775,3.6278 3.4558,4.2276 4.1445,13.942 l 0.71972,10.152 h 15.84 v 176 h -115 z m 90.85,-96.973 c -0.29115,-7.4751 -0.69754,-9.3212 -2.434,-11.057 -2.4389,-2.4376 -5.34,-2.6068 -38.055,-2.2199 -26.325,0.31133 -25.36,-0.17106 -26.114,13.052 l -0.52446,9.1983 h 67.476 z m 39.911,97.116 0.26077,-88.143 5.7392,0.05392 c 3.1566,0.02965 9.2291,0.42012 13.495,0.86769 9.4786,0.9946 15.082,4.3032 16.862,9.9563 0.79241,2.5172 1.2859,26.529 1.6178,78.716 l 0.47759,75.094 -3.3405,3.8046 c -4.733,5.3906 -8.2107,6.4925 -22.674,7.1844 l -12.698,0.60747 z"
       id="path8"
       inkscape:connector-curvature="0"
       style="fill:#9a5c2f" />
    <path
       d="m 19.304,215.08 c -8.4471,-0.55083 -9.4523,-0.84314 -12.339,-3.5882 -6.2933,-5.9841 -5.9644,-1.3876 -5.9644,-83.361 v -74.972 l 3.2699,-4.3277 c 4.7664,-6.3084 8.2331,-7.6013 21.48,-8.0113 l 11.25,-0.34819 v 175.53 l -4.25,-0.16176 c -2.3375,-0.089 -8.3883,-0.43161 -13.446,-0.76143 z m 36.457,-87.077 0.26078,-88 h 14.679 l 0.65006,-9.1582 c 0.72765,-10.251 2.356,-14.054 7.5039,-17.523 4.5469,-3.0641 10.192,-3.5305 38.145,-3.1514 26.461,0.35891 27.641,0.58151 32.896,6.2068 1.9357,2.0721 2.5476,4.1543 3.1871,10.845 0.4353,4.5543 0.81977,9.293 0.85438,10.531 0.0599,2.1406 0.45193,2.25 8.0629,2.25 h 8 v 176 l -57.25,8e-5 -57.25,9e-5 z M 146,31.559 c 0,-7.4904 -0.27312,-8.7612 -2.4178,-11.25 l -2.4178,-2.8058 -28.832,0.33124 c -34.689,0.39853 -32.494,-0.47127 -33.145,13.137 l -0.43181,9.0317 h 67.245 z m 40,96.498 V 39.806 l 11.75,0.67213 c 14.279,0.8168 16.934,1.5719 21.276,6.0519 l 3.3818,3.4891 0.72725,17.242 c 0.39999,9.4831 0.75825,44.339 0.79614,77.457 l 0.0689,60.215 -3.2344,3.6838 c -4.5652,5.1995 -7.9001,6.2544 -22.185,7.0181 l -12.58,0.67254 z"
       id="path10"
       inkscape:connector-curvature="0"
       style="fill:#8c4813" />
    <path
       d="M 20.336,215.04 C 9.319,214.33582 8.435,213.9375 3.834,207.6033 l -2.8333,-3.9 v -150.54 l 3.277,-4.3277 c 5.0342,-6.6483 8.2609,-7.8244 21.473,-7.8262 l 11.25,-0.0016 v 175.00005 l -3.25,-0.15681 c -1.7875,-0.0863 -7.824,-0.44917 -13.414,-0.8065 z M 56,128.003 v -88 h 14.713 l 0.69792,-9.25 c 0.77811,-10.313 2.3496,-13.998 7.4285,-17.421 4.4641,-3.0084 11.636,-3.5857 39.22,-3.1569 25.287,0.39312 26.661,0.66127 31.852,6.2188 1.996,2.1366 2.5436,4.0908 3.1789,11.345 0.42217,4.8201 0.79956,9.5513 0.83865,10.514 0.0611,1.5046 1.1214,1.75 7.5603,1.75 h 7.4892 l 0.26077,88 0.26078,88 -56.75,-9e-5 -56.75,-8e-5 z m 90,-96.444 c 0,-7.4965 -0.27189,-8.7591 -2.4227,-11.25 l -2.4226,-2.8058 -28.327,0.30422 c -15.58,0.16732 -29.073,0.52195 -29.985,0.78807 -2.4187,0.70598 -3.0659,2.8972 -3.739,12.658 l -0.6034,8.7502 33.75,-2.28e-4 33.75,-2.27e-4 z m 40,96.512 V 39.882 l 12.25,0.69478 c 13.136,0.74502 17.192,2.0262 21.698,6.8538 2.3829,2.5527 2.4676,3.1888 3.1781,23.847 0.40149,11.674 0.76233,46.536 0.80185,77.472 l 0.0719,56.247 -3.566,3.9471 c -4.5224,5.0058 -7.1475,5.7904 -22.184,6.6309 l -12.25,0.68473 v -88.189 z"
       id="path12"
       inkscape:connector-curvature="0"
       style="fill:#813802" />
    <path
       d="m 33.244,215.28 2.7444,-0.41605 0.26123,-85.684 0.26123,-85.684 0.24434,86.25 0.24434,86.25 -3.25,-0.14983 c -3.0168,-0.13908 -3.0531,-0.17968 -0.50557,-0.56589 z m 50.434,-0.0335 c 15.498,-0.15492 41.148,-0.15503 57,-2.6e-4 15.852,0.15477 3.1712,0.28152 -28.179,0.28166 -31.3502,1.4e-4 -44.32,-0.12649 -28.821,-0.2814 z m 102.57,-87.001 0.24443,-87.75 0.26105,87.2 0.26105,87.2 5.7445,0.36066 5.7445,0.36065 -6.25,0.18909 -6.25,0.18908 z m 35.32,78.457 c 0.37553,-0.98622 0.93469,-1.5412 1.2426,-1.2333 0.30791,0.3079 6.4e-4,1.1148 -0.68278,1.7931 -0.98762,0.98026 -1.1025,0.8654 -0.5598,-0.5598 z M 1.238,128.9365 c -0.21222,-67.486 -0.069422,-75.766 1.3366,-77.5 0.86579,-1.0676 1.2033,-1.2661 0.75,-0.44113 -0.4533,0.82497 -1.0547,35.7 -1.3366,77.5 l -0.5124,76 z m 222.23,18.559 c 1.4e-4,-31.35 0.12689,-44.03 0.28166,-28.179 0.15477,15.851 0.15466,41.502 -2.6e-4,57 -0.15491,15.498 -0.28154,2.5288 -0.2814,-28.821 z M 3.998,48.6825 c 0,-0.1721 1.4625,-1.6346 3.25,-3.25 l 3.25,-2.9371 -2.9371,3.25 C 4.8231,48.7749 3.998,49.4551 3.998,48.6825 Z m 214.87,-1.4371 c -1.2439,-1.5861 -1.2085,-1.6214 0.37756,-0.37756 1.6658,1.3064 2.1955,2.1276 1.3724,2.1276 -0.20765,0 -0.99515,-0.7875 -1.75,-1.75 z m -203.6,-5.943 c 0.97297,-0.25354 2.323,-0.23687 3,0.03705 0.67703,0.27393 -0.11903,0.48137 -1.769,0.46099 -1.65,-0.02038 -2.2039,-0.2445 -1.231,-0.49804 z m 192,0 c 0.97297,-0.25354 2.323,-0.23687 3,0.03705 0.67703,0.27392 -0.11903,0.48137 -1.769,0.46099 -1.64997,-0.02038 -2.2039,-0.2445 -1.231,-0.49804 z m -136.02,-4.807 c 0.0111,-2.2 0.21588,-2.9823 0.45508,-1.7383 0.23919,1.2439 0.23011,3.0439 -0.02018,4 -0.25029,0.95609 -0.446,-0.06166 -0.4349,-2.2617 z m 75.103,-5 c -0.003,-4.95 0.16605,-7.1011 0.37577,-4.7802 0.20972,2.3209 0.21222,6.3709 0.006,9 -0.20713,2.6291 -0.37873,0.73017 -0.38177,-4.2198 z m 6.877,5.5 c 0,-1.925 0.2058,-2.7125 0.45733,-1.75 0.25152,0.9625 0.25152,2.5375 0,3.5 -0.25153,0.9625 -0.45733,0.175 -0.45733,-1.75 z m -74.896,-5 c 0,-4.125 0.17652,-5.8125 0.39226,-3.75 0.21574,2.0625 0.21574,5.4375 0,7.5 -0.21574,2.0625 -0.39226,0.375 -0.39226,-3.75 z m 62.664,-14 c -0.90129,-0.58246 -1.0246,-0.97549 -0.30902,-0.98469 0.65504,-0.0084 1.4691,0.43469 1.809,0.98469 0.7673,1.2415 0.42112,1.2415 -1.5,0 z M 89.746,17.255 c 3.4375,-0.19527 9.0625,-0.19527 12.5,0 3.4375,0.19527 0.625,0.35504 -6.25,0.35504 -6.875,0 -9.6875,-0.15977 -6.25,-0.35504 z m 38,-0.983 c 1.7875,-0.22183 4.7125,-0.22183 6.5,0 1.7875,0.22183 0.325,0.40332 -3.25,0.40332 -3.575,0 -5.0375,-0.1815 -3.25,-0.40332 z m -27.442,-6.0242 c 7.0445,-0.17214 18.295,-0.17164 25,0.0011 6.7055,0.17275 0.94178,0.31359 -12.808,0.31298 -13.75,-6.1e-4 -19.236,-0.14195 -12.192,-0.31409 z"
       id="path14"
       inkscape:connector-curvature="0"
       style="fill:#7d3101" />
  </g>
</svg>
