<?xml version="1.0" encoding="UTF-8"?>
<svg width="225" height="225" version="1.1" viewBox="0 0 225 225" xmlns="http://www.w3.org/2000/svg">
 <g transform="matrix(1 0 0 .91239 .95339 9.4155)">
  <path d="m13.235 214.94c-5.4037-1.0653-5.7606-1.3029-9.3007-6.1898l-2.934-4.0502v-152.31l3.1091-4.2278c4.6312-6.2975 7.5528-7.3972 21.137-7.9567l11.753-0.48406v176.27l-9.75-0.10957c-5.3625-0.0603-11.669-0.48797-14.015-0.95047zm41.765-86.94v-88h15.761l0.40645-9.2932c0.50736-11.6 2.2921-15.17 9.3489-18.698 4.9448-2.4724 5.1912-2.4915 31.983-2.4745 25.276 0.016023 27.293 0.15108 31.592 2.1156 7.3283 3.3488 9.1372 6.7946 9.6998 18.477l0.47543 9.8734h15.733v176h-115zm90.994-94.25c-7e-3 -7.8212-1.5172-13.424-3.9724-14.738-2.4225-1.2965-54.979-1.3586-58.371-0.069051-2.9922 1.1376-3.3522 2.2284-4.2268 12.807l-0.68211 8.25h67.258l-6e-3 -6.25zm39.006 94.363v-88.113h9.9508c13.058 0 18.952 1.3317 23.512 5.3127 3.1977 2.7919 3.7652 3.9937 4.574 9.6873 0.50783 3.575 0.93238 38.978 0.94344 78.673l0.0201 72.173-2.6191 3.1126c-4.6555 5.5327-7.5197 6.4002-22.631 6.8545l-13.75 0.41331v-88.113z" fill="#cbad9b"/>
  <path d="m16 215.07c-6.859-0.79046-8.9473-1.9456-12.323-6.8161l-2.6774-3.8635v-151.57l3.133-4.3627c4.4032-6.1313 7.794-7.4265 21.343-8.1526l11.524-0.6176v176.31l-7.75-0.14702c-4.2625-0.08086-10.225-0.43225-13.25-0.78086zm39-87.072v-88h15.727l0.48887-9.3462c0.55364-10.584 1.9518-13.86 7.5553-17.7l3.5818-2.4543h30.073c28.3 0 30.269 0.11791 33.392 2 5.4794 3.3018 7.142 7.0921 7.852 17.901l0.63055 9.5992h15.698v176h-115zm91-94.851c0-7.8442-1.4008-12.758-4.0394-14.17-2.9563-1.5822-57.166-1.2805-59.369 0.33037-2.0428 1.4938-3.4845 7.7677-3.5482 15.441l-0.043551 5.25h67zm39 94.842v-88.293l13.041 0.57999c11.75 0.52259 13.491 0.84388 17.591 3.2464 8.2697 4.8464 7.8061-0.01488 8.1812 85.786l0.33138 75.811-2.5158 3.2984c-4.1794 5.4795-8.3101 6.7828-23.311 7.3553l-13.317 0.50817z" fill="#b88f73"/>
  <path d="m17.5 214.99c-9.0287-0.92165-9.9857-1.3843-13.535-6.5426l-2.9653-4.3098v-151.78l3.6004-4.2062c5.19-6.0634 7.6038-6.9649 20.754-7.7511l11.645-0.69622v176.29l-6.25-0.14665c-3.4375-0.0807-9.4-0.4682-13.25-0.86121zm37.5-86.992v-88h16l0.02445-6.25c0.05472-13.991 4.0167-20.738 13.387-22.797 3.2703-0.71875 14.378-0.9994 31.088-0.78552 22.9 0.29309 26.445 0.55412 29.734 2.1892 5.7554 2.8613 7.5013 6.6132 8.3265 17.894l0.71328 9.75h15.726v176h-115zm90.85-96.896c-0.5485-13.962 1.6062-13.104-32.894-13.104-34.936 0-32.775-0.8188-33.653 12.75l-0.59882 9.25h67.495zm39.15 96.886v-88.298l13.25 0.66811c12.122 0.61124 13.633 0.90431 17.75 3.4433 7.6718 4.7313 7.3293 0.94973 7.7763 85.871l0.39568 75.174-2.2762 3.0787c-4.0673 5.5014-9.3989 7.2451-23.957 7.8356l-12.939 0.52477z" fill="#a57146"/>
  <path d="m19 215.05c-9.4939-0.70836-11.295-1.54-15.251-7.0434l-2.7495-3.825v-75.14c0-81.716-0.27953-77.607 5.6607-83.227 4.0182-3.8018 6.3849-4.4546 19.089-5.2648l11.25-0.71743v176.17l-4.75-0.15843c-2.6125-0.08714-8.575-0.44382-13.25-0.79264zm36-87.049v-88h16v-5.3635c0-8.1535 1.7557-15.746 4.2617-18.429 5.1113-5.4737 6.2867-5.6824 33.971-6.0316 30.816-0.38864 35.087 0.2223 40.064 5.7305 3.2775 3.6278 3.4558 4.2276 4.1445 13.942l0.71972 10.152h15.84v176h-115zm90.85-96.973c-0.29115-7.4751-0.69754-9.3212-2.434-11.057-2.4389-2.4376-5.34-2.6068-38.055-2.2199-26.325 0.31133-25.36-0.17106-26.114 13.052l-0.52446 9.1983h67.476zm39.911 97.116 0.26077-88.143l5.7392 0.05392c3.1566 0.02965 9.2291 0.42012 13.495 0.86769 9.4786 0.9946 15.082 4.3032 16.862 9.9563 0.79241 2.5172 1.2859 26.529 1.6178 78.716l0.47759 75.094-3.3405 3.8046c-4.733 5.3906-8.2107 6.4925-22.674 7.1844l-12.698 0.60747z" fill="#9a5c2f"/>
  <path d="m19.304 215.08c-8.4471-0.55083-9.4523-0.84314-12.339-3.5882-6.2933-5.9841-5.9644-1.3876-5.9644-83.361v-74.972l3.2699-4.3277c4.7664-6.3084 8.2331-7.6013 21.48-8.0113l11.25-0.34819v175.53l-4.25-0.16176c-2.3375-0.089-8.3883-0.43161-13.446-0.76143zm36.457-87.077 0.26078-88h14.679l0.65006-9.1582c0.72765-10.251 2.356-14.054 7.5039-17.523 4.5469-3.0641 10.192-3.5305 38.145-3.1514 26.461 0.35891 27.641 0.58151 32.896 6.2068 1.9357 2.0721 2.5476 4.1543 3.1871 10.845 0.4353 4.5543 0.81977 9.293 0.85438 10.531 0.0599 2.1406 0.45193 2.25 8.0629 2.25h8v176l-57.25 8e-5 -57.25 9e-5zm90.239-96.444c0-7.4904-0.27312-8.7612-2.4178-11.25l-2.4178-2.8058-28.832 0.33124c-34.689 0.39853-32.494-0.47127-33.145 13.137l-0.43181 9.0317h67.245zm40 96.498v-88.251l11.75 0.67213c14.279 0.8168 16.934 1.5719 21.276 6.0519l3.3818 3.4891 0.72725 17.242c0.39999 9.4831 0.75825 44.339 0.79614 77.457l0.0689 60.215-3.2344 3.6838c-4.5652 5.1995-7.9001 6.2544-22.185 7.0181l-12.58 0.67254z" fill="#8c4813"/>
  <path d="m20.336 215.04c-11.017-0.70418-11.901-1.1025-16.502-7.4367l-2.8333-3.9v-150.54l3.277-4.3277c5.0342-6.6483 8.2609-7.8244 21.473-7.8262l11.25-0.001554v175l-3.25-0.15681c-1.7875-0.0863-7.824-0.44917-13.414-0.8065zm35.664-87.037v-88h14.713l0.69792-9.25c0.77811-10.313 2.3496-13.998 7.4285-17.421 4.4641-3.0084 11.636-3.5857 39.22-3.1569 25.287 0.39312 26.661 0.66127 31.852 6.2188 1.996 2.1366 2.5436 4.0908 3.1789 11.345 0.42217 4.8201 0.79956 9.5513 0.83865 10.514 0.0611 1.5046 1.1214 1.75 7.5603 1.75h7.4892l0.26077 88 0.26078 88-56.75-9e-5 -56.75-8e-5zm90-96.444c0-7.4965-0.27189-8.7591-2.4227-11.25l-2.4226-2.8058-28.327 0.30422c-15.58 0.16732-29.073 0.52195-29.985 0.78807-2.4187 0.70598-3.0659 2.8972-3.739 12.658l-0.6034 8.7502 33.75-2.28e-4 33.75-2.27e-4zm40 96.512v-88.189l12.25 0.69478c13.136 0.74502 17.192 2.0262 21.698 6.8538 2.3829 2.5527 2.4676 3.1888 3.1781 23.847 0.40149 11.674 0.76233 46.536 0.80185 77.472l0.0719 56.247-3.566 3.9471c-4.5224 5.0058-7.1475 5.7904-22.184 6.6309l-12.25 0.68473v-88.189z" fill="#813802"/>
  <path d="m33.244 215.28 2.7444-0.41605 0.26123-85.684l0.26123-85.684 0.24434 86.25 0.24434 86.25-3.25-0.14983c-3.0168-0.13908-3.0531-0.17968-0.50557-0.56589zm50.434-0.0335c15.498-0.15492 41.148-0.15503 57-2.6e-4s3.1712 0.28152-28.179 0.28166-44.32-0.12649-28.821-0.2814zm102.57-87.001l0.24443-87.75 0.26105 87.2 0.26105 87.2 5.7445 0.36066 5.7445 0.36065-6.25 0.18909-6.25 0.18908zm35.32 78.457c0.37553-0.98622 0.93469-1.5412 1.2426-1.2333s6.4e-4 1.1148-0.68278 1.7931c-0.98762 0.98026-1.1025 0.8654-0.5598-0.5598zm-220.33-77.766c-0.21222-67.486-0.069422-75.766 1.3366-77.5 0.86579-1.0676 1.2033-1.2661 0.75-0.44113s-1.0547 35.7-1.3366 77.5l-0.5124 76zm222.23 18.559c1.4e-4 -31.35 0.12689-44.03 0.28166-28.179s0.15466 41.502-2.6e-4 57c-0.15491 15.498-0.28154 2.5288-0.2814-28.821zm-219.47-98.813c0-0.1721 1.4625-1.6346 3.25-3.25l3.25-2.9371-2.9371 3.25c-2.7378 3.0295-3.5629 3.7097-3.5629 2.9371zm214.87-1.4371c-1.2439-1.5861-1.2085-1.6214 0.37756-0.37756 1.6658 1.3064 2.1955 2.1276 1.3724 2.1276-0.20765 0-0.99515-0.7875-1.75-1.75zm-203.6-5.943c0.97297-0.25354 2.323-0.23687 3 0.03705 0.67703 0.27393-0.11903 0.48137-1.769 0.46099-1.65-0.020379-2.2039-0.2445-1.231-0.49804zm192 0c0.97297-0.25354 2.323-0.23687 3 0.03705 0.67703 0.27392-0.11903 0.48137-1.769 0.46099s-2.2039-0.2445-1.231-0.49804zm-136.02-4.807c0.0111-2.2 0.21588-2.9823 0.45508-1.7383 0.23919 1.2439 0.23011 3.0439-0.02018 4-0.25029 0.95609-0.446-0.061659-0.4349-2.2617zm75.103-5c-3e-3 -4.95 0.16605-7.1011 0.37577-4.7802s0.21222 6.3709 6e-3 9c-0.20713 2.6291-0.37873 0.73017-0.38177-4.2198zm6.877 5.5c0-1.925 0.2058-2.7125 0.45733-1.75 0.25152 0.9625 0.25152 2.5375 0 3.5-0.25153 0.9625-0.45733 0.175-0.45733-1.75zm-74.896-5c0-4.125 0.17652-5.8125 0.39226-3.75 0.21574 2.0625 0.21574 5.4375 0 7.5-0.21574 2.0625-0.39226 0.375-0.39226-3.75zm62.664-14c-0.90129-0.58246-1.0246-0.97549-0.30902-0.98469 0.65504-0.0084 1.4691 0.43469 1.809 0.98469 0.7673 1.2415 0.42112 1.2415-1.5 0zm-51.25-0.7404c3.4375-0.19527 9.0625-0.19527 12.5 0s0.625 0.35504-6.25 0.35504-9.6875-0.15977-6.25-0.35504zm38-0.983c1.7875-0.22183 4.7125-0.22183 6.5 0 1.7875 0.22183 0.325 0.40332-3.25 0.40332s-5.0375-0.1815-3.25-0.40332zm-27.442-6.0242c7.0445-0.17214 18.295-0.17164 25 0.0011 6.7055 0.17275 0.94178 0.31359-12.808 0.31298-13.75-6.1e-4 -19.236-0.14195-12.192-0.31409z" fill="#7d3101"/>
 </g>
</svg>
